<svg xmlns="http://www.w3.org/2000/svg" width="900" height="420" font-family="Consolas,monospace">
<rect width="900" height="420" fill="white"/>
<text x="70" y="24" font-size="15" font-weight="bold">I2C 总线上升沿 (4.7k 上拉, Cbus=115pF)</text>
<line x1="70" y1="374.0" x2="885" y2="374.0" stroke="#e0e0e0"/>
<text x="64" y="378.0" font-size="11" text-anchor="end">-0.264</text>
<line x1="70" y1="307.6" x2="885" y2="307.6" stroke="#e0e0e0"/>
<text x="64" y="311.6" font-size="11" text-anchor="end">0.5016</text>
<line x1="70" y1="241.2" x2="885" y2="241.2" stroke="#e0e0e0"/>
<text x="64" y="245.2" font-size="11" text-anchor="end">1.267</text>
<line x1="70" y1="174.8" x2="885" y2="174.8" stroke="#e0e0e0"/>
<text x="64" y="178.8" font-size="11" text-anchor="end">2.033</text>
<line x1="70" y1="108.4" x2="885" y2="108.4" stroke="#e0e0e0"/>
<text x="64" y="112.4" font-size="11" text-anchor="end">2.798</text>
<line x1="70" y1="42.0" x2="885" y2="42.0" stroke="#e0e0e0"/>
<text x="64" y="46.0" font-size="11" text-anchor="end">3.564</text>
<line x1="70.0" y1="42" x2="70.0" y2="374" stroke="#e0e0e0"/>
<text x="70.0" y="390" font-size="11" text-anchor="middle">0</text>
<line x1="233.0" y1="42" x2="233.0" y2="374" stroke="#e0e0e0"/>
<text x="233.0" y="390" font-size="11" text-anchor="middle">7.999e-09</text>
<line x1="396.0" y1="42" x2="396.0" y2="374" stroke="#e0e0e0"/>
<text x="396.0" y="390" font-size="11" text-anchor="middle">1.6e-08</text>
<line x1="559.0" y1="42" x2="559.0" y2="374" stroke="#e0e0e0"/>
<text x="559.0" y="390" font-size="11" text-anchor="middle">2.4e-08</text>
<line x1="722.0" y1="42" x2="722.0" y2="374" stroke="#e0e0e0"/>
<text x="722.0" y="390" font-size="11" text-anchor="middle">3.2e-08</text>
<line x1="885.0" y1="42" x2="885.0" y2="374" stroke="#e0e0e0"/>
<text x="885.0" y="390" font-size="11" text-anchor="middle">4e-08</text>
<text x="477.5" y="412" font-size="12" text-anchor="middle">t (µs)</text>
<text x="14" y="208.0" font-size="12" text-anchor="middle" transform="rotate(-90 14 208.0)">V</text>
<polyline points="70.0,351.1 70.0,351.1 70.1,351.1 70.2,351.1 70.3,351.1 70.4,351.1 70.5,351.1 70.6,351.1 70.7,351.1 70.8,351.1 70.9,351.1 71.0,351.1 71.1,351.1 71.2,351.1 71.3,351.1 71.4,351.1 71.5,351.1 71.6,351.1 71.7,351.1 71.8,351.1 71.9,351.1 72.0,351.1 72.1,351.1 72.2,351.1 72.3,351.1 72.4,351.1 72.5,351.1 72.6,351.1 72.8,351.1 72.9,351.1 73.0,351.1 73.1,351.1 73.2,351.1 73.3,351.1 73.4,351.1 73.5,351.1 73.6,351.1 73.7,351.1 73.8,351.1 73.9,351.1 74.0,351.1 74.1,351.1 74.2,351.1 74.3,351.1 74.4,351.1 74.5,351.1 74.6,351.1 74.7,351.1 74.8,351.1 74.9,351.1 75.0,351.1 75.1,351.1 75.2,351.1 75.3,351.1 75.4,351.1 75.5,351.1 75.6,351.1 75.7,351.1 75.8,351.1 75.9,351.1 76.0,351.1 76.1,351.1 76.2,351.1 76.3,351.1 76.4,351.1 76.5,351.1 76.6,351.1 76.7,351.1 76.8,351.1 76.9,351.1 77.0,351.1 77.1,351.1 77.2,351.1 77.3,351.1 77.4,351.1 77.5,351.1 77.6,351.1 77.7,351.1 77.8,351.1 77.9,351.1 78.0,351.1 78.2,351.1 78.3,351.1 78.4,351.1 78.5,351.1 78.6,351.1 78.7,351.1 78.8,351.1 78.9,351.1 79.0,351.1 79.1,351.1 79.2,351.1 79.3,351.1 79.4,351.1 79.5,351.1 79.6,351.1 79.7,351.1 79.8,351.1 79.9,351.1 80.0,351.1 80.1,351.1 80.2,351.1 80.3,351.1 80.4,351.1 80.5,351.1 80.6,351.1 80.7,351.1 80.8,351.1 80.9,351.1 81.0,351.1 81.1,351.1 81.2,351.1 81.3,351.1 81.4,351.1 81.5,351.1 81.6,351.1 81.7,351.1 81.8,351.1 81.9,351.1 82.0,351.1 82.1,351.1 82.2,351.1 82.3,351.1 82.4,351.1 82.5,351.1 82.6,351.1 82.7,351.1 82.8,351.1 82.9,351.1 83.0,351.1 83.1,351.1 83.2,351.1 83.3,351.1 83.4,351.1 83.6,351.1 83.7,351.1 83.8,351.1 83.9,351.1 84.0,351.1 84.1,351.1 84.2,351.1 84.3,351.1 84.4,351.1 84.5,351.1 84.6,351.1 84.7,351.1 84.8,351.1 84.9,351.1 85.0,351.1 85.1,351.1 85.2,351.1 85.3,351.1 85.4,351.1 85.5,351.1 85.6,351.1 85.7,351.1 85.8,351.1 85.9,351.1 86.0,351.1 86.1,351.1 86.2,351.1 86.3,351.1 86.4,351.1 86.5,351.1 86.6,351.1 86.7,351.1 86.8,351.1 86.9,351.1 87.0,351.1 87.1,351.1 87.2,351.1 87.3,351.1 87.4,351.1 87.5,351.1 87.6,351.1 87.7,351.1 87.8,351.1 87.9,351.1 88.0,351.1 88.1,351.1 88.2,351.1 88.3,351.1 88.4,351.1 88.5,351.1 88.6,351.1 88.7,351.1 88.8,351.1 89.0,351.1 89.1,351.1 89.2,351.1 89.3,351.1 89.4,351.1 89.5,351.1 89.6,351.1 89.7,351.1 89.8,351.1 89.9,351.1 90.0,351.1 90.1,351.1 90.2,351.1 90.3,351.1 90.4,351.1 90.5,351.1 90.6,351.1 90.7,351.1 90.8,351.1 90.9,351.1 91.0,351.1 91.1,351.1 91.2,351.1 91.3,351.1 91.4,351.1 91.5,351.1 91.6,351.1 91.7,351.1 91.8,351.1 91.9,351.1 92.0,351.1 92.1,351.1 92.2,351.1 92.3,351.1 92.4,351.1 92.5,351.1 92.6,351.1 92.7,351.1 92.8,351.1 92.9,351.1 93.0,351.1 93.1,351.1 93.2,351.1 93.3,351.1 93.4,351.1 93.5,351.1 93.6,351.1 93.7,351.1 93.8,351.1 93.9,351.1 94.0,351.1 94.1,351.1 94.2,351.1 94.4,351.1 94.5,351.1 94.6,351.1 94.7,351.1 94.8,351.1 94.9,351.1 95.0,351.1 95.1,351.1 95.2,351.1 95.3,351.1 95.4,351.1 95.5,351.1 95.6,351.1 95.7,351.1 95.8,351.1 95.9,351.1 96.0,351.1 96.1,351.1 96.2,351.1 96.3,351.1 96.4,351.1 96.5,351.1 96.6,351.1 96.7,351.1 96.8,351.1 96.9,351.1 97.0,351.1 97.1,351.1 97.2,351.1 97.3,351.1 97.4,351.1 97.5,351.1 97.6,351.1 97.7,351.1 97.8,351.1 97.9,351.1 98.0,351.1 98.1,351.1 98.2,351.1 98.3,351.1 98.4,351.1 98.5,351.1 98.6,351.1 98.7,351.1 98.8,351.1 98.9,351.1 99.0,351.1 99.1,351.1 99.2,351.1 99.3,351.1 99.4,351.1 99.5,351.1 99.6,351.1 99.8,351.1 99.9,351.1 100.0,351.1 100.1,351.1 100.2,351.1 100.3,351.1 100.4,351.1 100.5,351.1 100.6,351.1 100.7,351.1 100.8,351.1 100.9,351.1 101.0,351.1 101.1,351.1 101.2,351.1 101.3,351.1 101.4,351.1 101.5,351.1 101.6,351.1 101.7,351.1 101.8,351.1 101.9,351.1 102.0,351.1 102.1,351.1 102.2,351.1 102.3,351.1 102.4,351.1 102.5,351.1 102.6,351.1 102.7,351.1 102.8,351.1 102.9,351.1 103.0,351.1 103.1,351.1 103.2,351.1 103.3,351.1 103.4,351.1 103.5,351.1 103.6,351.1 103.7,351.1 103.8,351.1 103.9,351.1 104.0,351.1 104.1,351.1 104.2,351.1 104.3,351.1 104.4,351.1 104.5,351.1 104.6,351.1 104.7,351.1 104.8,351.1 104.9,351.1 105.0,351.1 105.2,351.1 105.3,351.1 105.4,351.1 105.5,351.1 105.6,351.1 105.7,351.1 105.8,351.1 105.9,351.1 106.0,351.1 106.1,351.1 106.2,351.1 106.3,351.1 106.4,351.1 106.5,351.1 106.6,351.1 106.7,351.1 106.8,351.1 106.9,351.1 107.0,351.1 107.1,351.1 107.2,351.1 107.3,351.1 107.4,351.1 107.5,351.1 107.6,351.1 107.7,351.1 107.8,351.1 107.9,351.1 108.0,351.1 108.1,351.1 108.2,351.1 108.3,351.1 108.4,351.1 108.5,351.1 108.6,351.1 108.7,351.1 108.8,351.1 108.9,351.1 109.0,351.1 109.1,351.1 109.2,351.1 109.3,351.1 109.4,351.1 109.5,351.1 109.6,351.1 109.7,351.1 109.8,351.1 109.9,351.1 110.0,351.1 110.1,351.1 110.2,351.1 110.3,351.1 110.4,351.1 110.6,351.1 110.7,351.1 110.8,351.1 110.9,348.5 111.0,345.8 111.1,343.2 111.2,340.7 111.3,338.1 111.4,335.6 111.5,333.1 111.6,330.6 111.7,328.1 111.8,325.7 111.9,323.3 112.0,320.9 112.1,318.5 112.2,316.2 112.3,313.9 112.4,311.6 112.5,309.3 112.6,307.0 112.7,304.8 112.8,302.6 112.9,300.4 113.0,298.2 113.1,296.0 113.2,293.9 113.3,291.8 113.4,289.7 113.5,287.6 113.6,285.5 113.7,283.5 113.8,281.5 113.9,279.5 114.0,277.5 114.1,275.5 114.2,273.6 114.3,271.6 114.4,269.7 114.5,267.8 114.6,265.9 114.7,264.1 114.8,262.2 114.9,260.4 115.0,258.6 115.1,256.8 115.2,255.0 115.3,253.3 115.4,251.5 115.5,249.8 115.6,248.1 115.7,246.4 115.8,244.7 116.0,243.1 116.1,241.4 116.2,239.8 116.3,238.2 116.4,236.6 116.5,235.0 116.6,233.4 116.7,231.8 116.8,230.3 116.9,228.8 117.0,227.3 117.1,225.8 117.2,224.3 117.3,222.8 117.4,221.3 117.5,219.9 117.6,218.4 117.7,217.0 117.8,215.6 117.9,214.2 118.0,212.8 118.1,211.5 118.2,210.1 118.3,208.8 118.4,207.4 118.5,206.1 118.6,204.8 118.7,203.5 118.8,202.2 118.9,201.0 119.0,199.7 119.1,198.5 119.2,197.2 119.3,196.0 119.4,194.8 119.5,193.6 119.6,192.4 119.7,191.2 119.8,190.1 119.9,188.9 120.0,187.7 120.1,186.6 120.2,185.5 120.3,184.4 120.4,183.3 120.5,182.2 120.6,181.1 120.7,180.0 120.8,178.9 120.9,177.9 121.0,176.8 121.1,175.8 121.2,174.8 121.4,173.8 121.5,172.8 121.6,171.8 121.7,170.8 121.8,169.8 121.9,168.8 122.0,167.9 122.1,166.9 122.2,166.0 122.3,165.0 122.4,164.1 122.5,163.2 122.6,162.3 122.7,161.4 122.8,160.5 122.9,159.6 123.0,158.7 123.1,157.9 123.2,157.0 123.3,156.1 123.4,155.3 123.5,154.5 123.6,153.6 123.7,152.8 123.8,152.0 123.9,151.2 124.0,150.4 124.1,149.6 124.2,148.8 124.3,148.0 124.4,147.3 124.5,146.5 124.6,145.8 124.7,145.0 124.8,144.3 124.9,143.5 125.0,142.8 125.1,142.1 125.2,141.4 125.3,140.7 125.4,140.0 125.5,139.3 125.6,138.6 125.7,137.9 125.8,137.2 125.9,136.6 126.0,135.9 126.1,135.2 126.2,134.6 126.3,133.9 126.4,133.3 126.5,132.7 126.6,132.0 126.8,131.4 126.9,130.8 127.0,130.2 127.1,129.6 127.2,129.0 127.3,128.4 127.4,127.8 127.5,127.2 127.6,126.7 127.7,126.1 127.8,125.5 127.9,125.0 128.0,124.4 128.1,123.9 128.2,123.3 128.3,122.8 128.4,122.2 128.5,121.7 128.6,121.2 128.7,120.7 128.8,120.1 128.9,119.6 129.0,119.1 129.1,118.6 129.2,118.1 129.3,117.6 129.4,117.1 129.5,116.7 129.6,116.2 129.7,115.7 129.8,115.2 129.9,114.8 130.0,114.3 130.1,113.9 130.2,113.4 130.3,113.0 130.4,112.5 130.5,112.1 130.6,111.6 130.7,111.2 130.8,110.8 130.9,110.3 131.0,109.9 131.1,109.5 131.2,109.1 131.3,108.7 131.4,108.3 131.5,107.9 131.6,107.5 131.7,107.1 131.8,106.7 131.9,106.3 132.0,105.9 132.2,105.5 132.3,105.2 132.4,104.8 132.5,104.4 132.6,104.1 132.7,103.7 132.8,103.3 132.9,103.0 133.0,102.6 133.1,102.3 133.2,101.9 133.3,101.6 133.4,101.3 133.5,100.9 133.6,100.6 133.7,100.3 133.8,99.9 133.9,99.6 134.0,99.3 134.1,99.0 134.2,98.7 134.3,98.3 134.4,98.0 134.5,97.7 134.6,97.4 134.7,97.1 134.8,96.8 134.9,96.5 135.0,96.2 135.1,95.9 135.2,95.7 135.3,95.4 135.4,95.1 135.5,94.8 135.6,94.5 135.7,94.3 135.8,94.0 135.9,93.7 136.0,93.5 136.1,93.2 136.2,92.9 136.3,92.7 136.4,92.4 136.5,92.2 136.6,91.9 136.7,91.7 136.8,91.4 136.9,91.2 137.0,90.9 137.1,90.7 137.2,90.4 137.3,90.2 137.4,90.0 137.6,89.7 137.7,89.5 137.8,89.3 137.9,89.1 138.0,88.8 138.1,88.6 138.2,88.4 138.3,88.2 138.4,88.0 138.5,87.7 138.6,87.5 138.7,87.3 138.8,87.1 138.9,86.9 139.0,86.7 139.1,86.5 139.2,86.3 139.3,86.1 139.4,85.9 139.5,85.7 139.6,85.5 139.7,85.3 139.8,85.1 139.9,85.0 140.0,84.8 140.1,84.6 140.2,84.4 140.3,84.2 140.4,84.0 140.5,83.9 140.6,83.7 140.7,83.5 140.8,83.3 140.9,83.2 141.0,83.0 141.1,82.8 141.2,82.7 141.3,82.5 141.4,82.3 141.5,82.2 141.6,82.0 141.7,81.9 141.8,81.7 141.9,81.6 142.0,81.4 142.1,81.2 142.2,81.1 142.3,80.9 142.4,80.8 142.5,80.7 142.6,80.5 142.7,80.4 142.8,80.2 143.0,80.1 143.1,79.9 143.2,79.8 143.3,79.7 143.4,79.5 143.5,79.4 143.6,79.3 143.7,79.1 143.8,79.0 143.9,78.9 144.0,78.7 144.1,78.6 144.2,78.5 144.3,78.3 144.4,78.2 144.5,78.1 144.6,78.0 144.7,77.9 144.8,77.7 144.9,77.6 145.0,77.5 145.1,77.4 145.2,77.3 145.3,77.2 145.4,77.0 145.5,76.9 145.6,76.8 145.7,76.7 145.8,76.6 145.9,76.5 146.0,76.4 146.1,76.3 146.2,76.2 146.3,76.1 146.4,76.0 146.5,75.9 146.6,75.8 146.7,75.7 146.8,75.6 146.9,75.5 147.0,75.4 147.1,75.3 147.2,75.2 147.3,75.1 147.4,75.0 147.5,74.9 147.6,74.8 147.7,74.7 147.8,74.6 147.9,74.5 148.0,74.4 148.1,74.3 148.2,74.3 148.4,74.2 148.5,74.1 148.6,74.0 148.7,73.9 148.8,73.8 148.9,73.8 149.0,73.7 149.1,73.6 149.2,73.5 149.3,73.4 149.4,73.3 149.5,73.3 149.6,73.2 149.7,73.1 149.8,73.0 149.9,73.0 150.0,72.9 150.1,72.8 150.2,72.7 150.3,72.7 150.4,72.6 150.5,72.5 150.6,72.5 150.7,72.4 150.8,72.3 150.9,72.2 151.0,72.2 151.1,72.1 151.2,72.0 151.3,72.0 151.4,71.9 151.5,71.8 151.6,71.8 151.7,71.7 151.8,71.7 151.9,71.6 152.0,71.5 152.1,71.5 152.2,71.4 152.3,71.4 152.4,71.3 152.5,71.2 152.6,71.2 152.7,71.1 152.8,71.1 152.9,71.0 153.0,70.9 153.1,70.9 153.2,70.8 153.3,70.8 153.4,70.7 153.5,70.7 153.6,70.6 153.8,70.6 153.9,70.5 154.0,70.5 154.1,70.4 154.2,70.4 154.3,70.3 154.4,70.3 154.5,70.2 154.6,70.2 154.7,70.1 154.8,70.1 154.9,70.0 155.0,70.0 155.1,69.9 155.2,69.9 155.3,69.8 155.4,69.8 155.5,69.7 155.6,69.7 155.7,69.6 155.8,69.6 155.9,69.6 156.0,69.5 156.1,69.5 156.2,69.4 156.3,69.4 156.4,69.3 156.5,69.3 156.6,69.3 156.7,69.2 156.8,69.2 156.9,69.1 157.0,69.1 157.1,69.1 157.2,69.0 157.3,69.0 157.4,69.0 157.5,68.9 157.6,68.9 157.7,68.8 157.8,68.8 157.9,68.8 158.0,68.7 158.1,68.7 158.2,68.7 158.3,68.6 158.4,68.6 158.5,68.6 158.6,68.5 158.7,68.5 158.8,68.5 158.9,68.4 159.0,68.4 159.2,68.4 159.3,68.3 159.4,68.3 159.5,68.3 159.6,68.2 159.7,68.2 159.8,68.2 159.9,68.1 160.0,68.1 160.1,68.1 160.2,68.1 160.3,68.0 160.4,68.0 160.5,68.0 160.6,67.9 160.7,67.9 160.8,67.9 160.9,67.9 161.0,67.8 161.1,67.8 161.2,67.8 161.3,67.7 161.4,67.7 161.5,67.7 161.6,67.7 161.7,67.6 161.8,67.6 161.9,67.6 162.0,67.6 162.1,67.5 162.2,67.5 162.3,67.5 162.4,67.5 162.5,67.4 162.6,67.4 162.7,67.4 162.8,67.4 162.9,67.4 163.0,67.3 163.1,67.3 163.2,67.3 163.3,67.3 163.4,67.2 163.5,67.2 163.6,67.2 163.7,67.2 163.8,67.2 163.9,67.1 164.0,67.1 164.1,67.1 164.2,67.1 164.3,67.1 164.4,67.0 164.6,67.0 164.7,67.0 164.8,67.0 164.9,67.0 165.0,66.9 165.1,66.9 165.2,66.9 165.3,66.9 165.4,66.9 165.5,66.8 165.6,66.8 165.7,66.8 165.8,66.8 165.9,66.8 166.0,66.8 166.1,66.7 166.2,66.7 166.3,66.7 166.4,66.7 166.5,66.7 166.6,66.7 166.7,66.6 166.8,66.6 166.9,66.6 167.0,66.6 167.1,66.6 167.2,66.6 167.3,66.5 167.4,66.5 167.5,66.5 167.6,66.5 167.7,66.5 167.8,66.5 167.9,66.5 168.0,66.4 168.1,66.4 168.2,66.4 168.3,66.4 168.4,66.4 168.5,66.4 168.6,66.4 168.7,66.3 168.8,66.3 168.9,66.3 169.0,66.3 169.1,66.3 169.2,66.3 169.3,66.3 169.4,66.3 169.5,66.2 169.6,66.2 169.7,66.2 169.8,66.2 170.0,66.2 170.1,66.2 170.2,66.2 170.3,66.2 170.4,66.1 170.5,66.1 170.6,66.1 170.7,66.1 170.8,66.1 170.9,66.1 171.0,66.1 171.1,66.1 171.2,66.1 171.3,66.0 171.4,66.0 171.5,66.0 171.6,66.0 171.7,66.0 171.8,66.0 171.9,66.0 172.0,66.0 172.1,66.0 172.2,66.0 172.3,65.9 172.4,65.9 172.5,65.9 172.6,65.9 172.7,65.9 172.8,65.9 172.9,65.9 173.0,65.9 173.1,65.9 173.2,65.9 173.3,65.8 173.4,65.8 173.5,65.8 173.6,65.8 173.7,65.8 173.8,65.8 173.9,65.8 174.0,65.8 174.1,65.8 174.2,65.8 174.3,65.8 174.4,65.8 174.5,65.7 174.6,65.7 174.7,65.7 174.8,65.7 174.9,65.7 175.0,65.7 175.1,65.7 175.3,65.7 175.4,65.7 175.5,65.7 175.6,65.7 175.7,65.7 175.8,65.7 175.9,65.7 176.0,65.6 176.1,65.6 176.2,65.6 176.3,65.6 176.4,65.6 176.5,65.6 176.6,65.6 176.7,65.6 176.8,65.6 176.9,65.6 177.0,65.6 177.1,65.6 177.2,65.6 177.3,65.6 177.4,65.6 177.5,65.5 177.6,65.5 177.7,65.5 177.8,65.5 177.9,65.5 178.0,65.5 178.1,65.5 178.2,65.5 178.3,65.5 178.4,65.5 178.5,65.5 178.6,65.5 178.7,65.5 178.8,65.5 178.9,65.5 179.0,65.5 179.1,65.5 179.2,65.5 179.3,65.4 179.4,65.4 179.5,65.4 179.6,65.4 179.7,65.4 179.8,65.4 179.9,65.4 180.0,65.4 180.1,65.4 180.2,65.4 180.3,65.4 180.4,65.4 180.5,65.4 180.7,65.4 180.8,65.4 180.9,65.4 181.0,65.4 181.1,65.4 181.2,65.4 181.3,65.4 181.4,65.4 181.5,65.3 181.6,65.3 181.7,65.3 181.8,65.3 181.9,65.3 182.0,65.3 182.1,65.3 182.2,65.3 182.3,65.3 182.4,65.3 182.5,65.3 182.6,65.3 182.7,65.3 182.8,65.3 182.9,65.3 183.0,65.3 183.1,65.3 183.2,65.3 183.3,65.3 183.4,65.3 183.5,65.3 183.6,65.3 183.7,65.3 183.8,65.3 183.9,65.3 184.0,65.3 184.1,65.3 184.2,65.2 184.3,65.2 184.4,65.2 184.5,65.2 184.6,65.2 184.7,65.2 184.8,65.2 184.9,65.2 185.0,65.2 185.1,65.2 185.2,65.2 185.3,65.2 185.4,65.2 185.5,65.2 185.6,65.2 185.7,65.2 185.8,65.2 185.9,65.2 186.1,65.2 186.2,65.2 186.3,65.2 186.4,65.2 186.5,65.2 186.6,65.2 186.7,65.2 186.8,65.2 186.9,65.2 187.0,65.2 187.1,65.2 187.2,65.2 187.3,65.2 187.4,65.2 187.5,65.2 187.6,65.2 187.7,65.2 187.8,65.2 187.9,65.1 188.0,65.1 188.1,65.1 188.2,65.1 188.3,65.1 188.4,65.1 188.5,65.1 188.6,65.1 188.7,65.1 188.8,65.1 188.9,65.1 189.0,65.1 189.1,65.1 189.2,65.1 189.3,65.1 189.4,65.1 189.5,65.1 189.6,65.1 189.7,65.1 189.8,65.1 189.9,65.1 190.0,65.1 190.1,65.1 190.2,65.1 190.3,65.1 190.4,65.1 190.5,65.1 190.6,65.1 190.7,65.1 190.8,65.1 190.9,65.1 191.0,65.1 191.1,65.1 191.2,65.1 191.3,65.1 191.5,65.1 191.6,65.1 191.7,65.1 191.8,65.1 191.9,65.1 192.0,65.1 192.1,65.1 192.2,65.1 192.3,65.1 192.4,65.1 192.5,65.1 192.6,65.1 192.7,65.1 192.8,65.1 192.9,65.1 193.0,65.1 193.1,65.1 193.2,65.1 193.3,65.1 193.4,65.0 193.5,65.0 193.6,65.0 193.7,65.0 193.8,65.0 193.9,65.0 194.0,65.0 194.1,65.0 194.2,65.0 194.3,65.0 194.4,65.0 194.5,65.0 194.6,65.0 194.7,65.0 194.8,65.0 194.9,65.0 195.0,65.0 195.1,65.0 195.2,65.0 195.3,65.0 195.4,65.0 195.5,65.0 195.6,65.0 195.7,65.0 195.8,65.0 195.9,65.0 196.0,65.0 196.1,65.0 196.2,65.0 196.3,65.0 196.4,65.0 196.5,65.0 196.6,65.0 196.7,65.0 196.9,65.0 197.0,65.0 197.1,65.0 197.2,65.0 197.3,65.0 197.4,65.0 197.5,65.0 197.6,65.0 197.7,65.0 197.8,65.0 197.9,65.0 198.0,65.0 198.1,65.0 198.2,65.0 198.3,65.0 198.4,65.0 198.5,65.0 198.6,65.0 198.7,65.0 198.8,65.0 198.9,65.0 199.0,65.0 199.1,65.0 199.2,65.0 199.3,65.0 199.4,65.0 199.5,65.0 199.6,65.0 199.7,65.0 199.8,65.0 199.9,65.0 200.0,65.0 200.1,65.0 200.2,65.0 200.3,65.0 200.4,65.0 200.5,65.0 200.6,65.0 200.7,65.0 200.8,65.0 200.9,65.0 201.0,65.0 201.1,65.0 201.2,65.0 201.3,65.0 201.4,65.0 201.5,65.0 201.6,65.0 201.7,65.0 201.8,65.0 201.9,65.0 202.0,65.0 202.1,65.0 202.3,65.0 202.4,65.0 202.5,65.0 202.6,65.0 202.7,65.0 202.8,65.0 202.9,65.0 203.0,65.0 203.1,65.0 203.2,65.0 203.3,65.0 203.4,65.0 203.5,65.0 203.6,65.0 203.7,65.0 203.8,65.0 203.9,65.0 204.0,65.0 204.1,65.0 204.2,65.0 204.3,65.0 204.4,65.0 204.5,65.0 204.6,65.0 204.7,65.0 204.8,65.0 204.9,64.9 205.0,64.9 205.1,64.9 205.2,64.9 205.3,64.9 205.4,64.9 205.5,64.9 205.6,64.9 205.7,64.9 205.8,64.9 205.9,64.9 206.0,64.9 206.1,64.9 206.2,64.9 206.3,64.9 206.4,64.9 206.5,64.9 206.6,64.9 206.7,64.9 206.8,64.9 206.9,64.9 207.0,64.9 207.1,64.9 207.2,64.9 207.3,64.9 207.4,64.9 207.5,64.9 207.7,64.9 207.8,64.9 207.9,64.9 208.0,64.9 208.1,64.9 208.2,64.9 208.3,64.9 208.4,64.9 208.5,64.9 208.6,64.9 208.7,64.9 208.8,64.9 208.9,64.9 209.0,64.9 209.1,64.9 209.2,64.9 209.3,64.9 209.4,64.9 209.5,64.9 209.6,64.9 209.7,64.9 209.8,64.9 209.9,64.9 210.0,64.9 210.1,64.9 210.2,64.9 210.3,64.9 210.4,64.9 210.5,64.9 210.6,64.9 210.7,64.9 210.8,64.9 210.9,64.9 211.0,64.9 211.1,64.9 211.2,64.9 211.3,64.9 211.4,64.9 211.5,64.9 211.6,64.9 211.7,64.9 211.8,64.9 211.9,64.9 212.0,64.9 212.1,64.9 212.2,64.9 212.3,64.9 212.4,64.9 212.5,64.9 212.6,64.9 212.7,64.9 212.8,64.9 212.9,64.9 213.1,64.9 213.2,64.9 213.3,64.9 213.4,64.9 213.5,64.9 213.6,64.9 213.7,64.9 213.8,64.9 213.9,64.9 214.0,64.9 214.1,64.9 214.2,64.9 214.3,64.9 214.4,64.9 214.5,64.9 214.6,64.9 214.7,64.9 214.8,64.9 214.9,64.9 215.0,64.9 215.1,64.9 215.2,64.9 215.3,64.9 215.4,64.9 215.5,64.9 215.6,64.9 215.7,64.9 215.8,64.9 215.9,64.9 216.0,64.9 216.1,64.9 216.2,64.9 216.3,64.9 216.4,64.9 216.5,64.9 216.6,64.9 216.7,64.9 216.8,64.9 216.9,64.9 217.0,64.9 217.1,64.9 217.2,64.9 217.3,64.9 217.4,64.9 217.5,64.9 217.6,64.9 217.7,64.9 217.8,64.9 217.9,64.9 218.0,64.9 218.1,64.9 218.2,64.9 218.3,64.9 218.5,64.9 218.6,64.9 218.7,64.9 218.8,64.9 218.9,64.9 219.0,64.9 219.1,64.9 219.2,64.9 219.3,64.9 219.4,64.9 219.5,64.9 219.6,64.9 219.7,64.9 219.8,64.9 219.9,64.9 220.0,64.9 220.1,64.9 220.2,64.9 220.3,64.9 220.4,64.9 220.5,64.9 220.6,64.9 220.7,64.9 220.8,64.9 220.9,64.9 221.0,64.9 221.1,64.9 221.2,64.9 221.3,64.9 221.4,64.9 221.5,64.9 221.6,64.9 221.7,64.9 221.8,64.9 221.9,64.9 222.0,64.9 222.1,64.9 222.2,64.9 222.3,64.9 222.4,64.9 222.5,64.9 222.6,64.9 222.7,64.9 222.8,64.9 222.9,64.9 223.0,64.9 223.1,64.9 223.2,64.9 223.3,64.9 223.4,64.9 223.5,64.9 223.6,64.9 223.7,64.9 223.9,64.9 224.0,64.9 224.1,64.9 224.2,64.9 224.3,64.9 224.4,64.9 224.5,64.9 224.6,64.9 224.7,64.9 224.8,64.9 224.9,64.9 225.0,64.9 225.1,64.9 225.2,64.9 225.3,64.9 225.4,64.9 225.5,64.9 225.6,64.9 225.7,64.9 225.8,64.9 225.9,64.9 226.0,64.9 226.1,64.9 226.2,64.9 226.3,64.9 226.4,64.9 226.5,64.9 226.6,64.9 226.7,64.9 226.8,64.9 226.9,64.9 227.0,64.9 227.1,64.9 227.2,64.9 227.3,64.9 227.4,64.9 227.5,64.9 227.6,64.9 227.7,64.9 227.8,64.9 227.9,64.9 228.0,64.9 228.1,64.9 228.2,64.9 228.3,64.9 228.4,64.9 228.5,64.9 228.6,64.9 228.7,64.9 228.8,64.9 228.9,64.9 229.0,64.9 229.1,64.9 229.3,64.9 229.4,64.9 229.5,64.9 229.6,64.9 229.7,64.9 229.8,64.9 229.9,64.9 230.0,64.9 230.1,64.9 230.2,64.9 230.3,64.9 230.4,64.9 230.5,64.9 230.6,64.9 230.7,64.9 230.8,64.9 230.9,64.9 231.0,64.9 231.1,64.9 231.2,64.9 231.3,64.9 231.4,64.9 231.5,64.9 231.6,64.9 231.7,64.9 231.8,64.9 231.9,64.9 232.0,64.9 232.1,64.9 232.2,64.9 232.3,64.9 232.4,64.9 232.5,64.9 232.6,64.9 232.7,64.9 232.8,64.9 232.9,64.9 233.0,64.9 233.1,64.9 233.2,64.9 233.3,64.9 233.4,64.9 233.5,64.9 233.6,64.9 233.7,64.9 233.8,64.9 233.9,64.9 234.0,64.9 234.1,64.9 234.2,64.9 234.3,64.9 234.4,64.9 234.5,64.9 234.7,64.9 234.8,64.9 234.9,64.9 235.0,64.9 235.1,64.9 235.2,64.9 235.3,64.9 235.4,64.9 235.5,64.9 235.6,64.9 235.7,64.9 235.8,64.9 235.9,64.9 236.0,64.9 236.1,64.9 236.2,64.9 236.3,64.9 236.4,64.9 236.5,64.9 236.6,64.9 236.7,64.9 236.8,64.9 236.9,64.9 237.0,64.9 237.1,64.9 237.2,64.9 237.3,64.9 237.4,64.9 237.5,64.9 237.6,64.9 237.7,64.9 237.8,64.9 237.9,64.9 238.0,64.9 238.1,64.9 238.2,64.9 238.3,64.9 238.4,64.9 238.5,64.9 238.6,64.9 238.7,64.9 238.8,64.9 238.9,64.9 239.0,64.9 239.1,64.9 239.2,64.9 239.3,64.9 239.4,64.9 239.5,64.9 239.6,64.9 239.7,64.9 239.8,64.9 239.9,64.9 240.1,64.9 240.2,64.9 240.3,64.9 240.4,64.9 240.5,64.9 240.6,64.9 240.7,64.9 240.8,64.9 240.9,64.9 241.0,64.9 241.1,64.9 241.2,64.9 241.3,64.9 241.4,64.9 241.5,64.9 241.6,64.9 241.7,64.9 241.8,64.9 241.9,64.9 242.0,64.9 242.1,64.9 242.2,64.9 242.3,64.9 242.4,64.9 242.5,64.9 242.6,64.9 242.7,64.9 242.8,64.9 242.9,64.9 243.0,64.9 243.1,64.9 243.2,64.9 243.3,64.9 243.4,64.9 243.5,64.9 243.6,64.9 243.7,64.9 243.8,64.9 243.9,64.9 244.0,64.9 244.1,64.9 244.2,64.9 244.3,64.9 244.4,64.9 244.5,64.9 244.6,64.9 244.7,64.9 244.8,64.9 244.9,64.9 245.0,64.9 245.1,64.9 245.2,64.9 245.3,64.9 245.5,64.9 245.6,64.9 245.7,64.9 245.8,64.9 245.9,64.9 246.0,64.9 246.1,64.9 246.2,64.9 246.3,64.9 246.4,64.9 246.5,64.9 246.6,64.9 246.7,64.9 246.8,64.9 246.9,64.9 247.0,64.9 247.1,64.9 247.2,64.9 247.3,64.9 247.4,64.9 247.5,64.9 247.6,64.9 247.7,64.9 247.8,64.9 247.9,64.9 248.0,64.9 248.1,64.9 248.2,64.9 248.3,64.9 248.4,64.9 248.5,64.9 248.6,64.9 248.7,64.9 248.8,64.9 248.9,64.9 249.0,64.9 249.1,64.9 249.2,64.9 249.3,64.9 249.4,64.9 249.5,64.9 249.6,64.9 249.7,64.9 249.8,64.9 249.9,64.9 250.0,64.9 250.1,64.9 250.2,64.9 250.3,64.9 250.4,64.9 250.5,64.9 250.6,64.9 250.7,64.9 250.9,64.9 251.0,64.9 251.1,64.9 251.2,64.9 251.3,64.9 251.4,64.9 251.5,64.9 251.6,64.9 251.7,64.9 251.8,64.9 251.9,64.9 252.0,64.9 252.1,64.9 252.2,64.9 252.3,64.9 252.4,64.9 252.5,64.9 252.6,64.9 252.7,64.9 252.8,64.9 252.9,64.9 253.0,64.9 253.1,64.9 253.2,64.9 253.3,64.9 253.4,64.9 253.5,64.9 253.6,64.9 253.7,64.9 253.8,64.9 253.9,64.9 254.0,64.9 254.1,64.9 254.2,64.9 254.3,64.9 254.4,64.9 254.5,64.9 254.6,64.9 254.7,64.9 254.8,64.9 254.9,64.9 255.0,64.9 255.1,64.9 255.2,64.9 255.3,64.9 255.4,64.9 255.5,64.9 255.6,64.9 255.7,64.9 255.8,64.9 255.9,64.9 256.0,64.9 256.1,64.9 256.3,64.9 256.4,64.9 256.5,64.9 256.6,64.9 256.7,64.9 256.8,64.9 256.9,64.9 257.0,64.9 257.1,64.9 257.2,64.9 257.3,64.9 257.4,64.9 257.5,64.9 257.6,64.9 257.7,64.9 257.8,64.9 257.9,64.9 258.0,64.9 258.1,64.9 258.2,64.9 258.3,64.9 258.4,64.9 258.5,64.9 258.6,64.9 258.7,64.9 258.8,64.9 258.9,64.9 259.0,64.9 259.1,64.9 259.2,64.9 259.3,64.9 259.4,64.9 259.5,64.9 259.6,64.9 259.7,64.9 259.8,64.9 259.9,64.9 260.0,64.9 260.1,64.9 260.2,64.9 260.3,64.9 260.4,64.9 260.5,64.9 260.6,64.9 260.7,64.9 260.8,64.9 260.9,64.9 261.0,64.9 261.1,64.9 261.2,64.9 261.3,64.9 261.4,64.9 261.5,64.9 261.7,64.9 261.8,64.9 261.9,64.9 262.0,64.9 262.1,64.9 262.2,64.9 262.3,64.9 262.4,64.9 262.5,64.9 262.6,64.9 262.7,64.9 262.8,64.9 262.9,64.9 263.0,64.9 263.1,64.9 263.2,64.9 263.3,64.9 263.4,64.9 263.5,64.9 263.6,64.9 263.7,64.9 263.8,64.9 263.9,64.9 264.0,64.9 264.1,64.9 264.2,64.9 264.3,64.9 264.4,64.9 264.5,64.9 264.6,64.9 264.7,64.9 264.8,64.9 264.9,64.9 265.0,64.9 265.1,64.9 265.2,64.9 265.3,64.9 265.4,64.9 265.5,64.9 265.6,64.9 265.7,64.9 265.8,64.9 265.9,64.9 266.0,64.9 266.1,64.9 266.2,64.9 266.3,64.9 266.4,64.9 266.5,64.9 266.6,64.9 266.7,64.9 266.8,64.9 266.9,64.9 267.1,64.9 267.2,64.9 267.3,64.9 267.4,64.9 267.5,64.9 267.6,64.9 267.7,64.9 267.8,64.9 267.9,64.9 268.0,64.9 268.1,64.9 268.2,64.9 268.3,64.9 268.4,64.9 268.5,64.9 268.6,64.9 268.7,64.9 268.8,64.9 268.9,64.9 269.0,64.9 269.1,64.9 269.2,64.9 269.3,64.9 269.4,64.9 269.5,64.9 269.6,64.9 269.7,64.9 269.8,64.9 269.9,64.9 270.0,64.9 270.1,64.9 270.2,64.9 270.3,64.9 270.4,64.9 270.5,64.9 270.6,64.9 270.7,64.9 270.8,64.9 270.9,64.9 271.0,64.9 271.1,64.9 271.2,64.9 271.3,64.9 271.4,64.9 271.5,64.9 271.6,64.9 271.7,64.9 271.8,64.9 271.9,64.9 272.0,64.9 272.1,64.9 272.2,64.9 272.3,64.9 272.5,64.9 272.6,64.9 272.7,64.9 272.8,64.9 272.9,64.9 273.0,64.9 273.1,64.9 273.2,64.9 273.3,64.9 273.4,64.9 273.5,64.9 273.6,64.9 273.7,64.9 273.8,64.9 273.9,64.9 274.0,64.9 274.1,64.9 274.2,64.9 274.3,64.9 274.4,64.9 274.5,64.9 274.6,64.9 274.7,64.9 274.8,64.9 274.9,64.9 275.0,64.9 275.1,64.9 275.2,64.9 275.3,64.9 275.4,64.9 275.5,64.9 275.6,64.9 275.7,64.9 275.8,64.9 275.9,64.9 276.0,64.9 276.1,64.9 276.2,64.9 276.3,64.9 276.4,64.9 276.5,64.9 276.6,64.9 276.7,64.9 276.8,64.9 276.9,64.9 277.0,64.9 277.1,64.9 277.2,64.9 277.3,64.9 277.4,64.9 277.5,64.9 277.6,64.9 277.7,64.9 277.9,64.9 278.0,64.9 278.1,64.9 278.2,64.9 278.3,64.9 278.4,64.9 278.5,64.9 278.6,64.9 278.7,64.9 278.8,64.9 278.9,64.9 279.0,64.9 279.1,64.9 279.2,64.9 279.3,64.9 279.4,64.9 279.5,64.9 279.6,64.9 279.7,64.9 279.8,64.9 279.9,64.9 280.0,64.9 280.1,64.9 280.2,64.9 280.3,64.9 280.4,64.9 280.5,64.9 280.6,64.9 280.7,64.9 280.8,64.9 280.9,64.9 281.0,64.9 281.1,64.9 281.2,64.9 281.3,64.9 281.4,64.9 281.5,64.9 281.6,64.9 281.7,64.9 281.8,64.9 281.9,64.9 282.0,64.9 282.1,64.9 282.2,64.9 282.3,64.9 282.4,64.9 282.5,64.9 282.6,64.9 282.7,64.9 282.8,64.9 282.9,64.9 283.0,64.9 283.1,64.9 283.3,64.9 283.4,64.9 283.5,64.9 283.6,64.9 283.7,64.9 283.8,64.9 283.9,64.9 284.0,64.9 284.1,64.9 284.2,64.9 284.3,64.9 284.4,64.9 284.5,64.9 284.6,64.9 284.7,64.9 284.8,64.9 284.9,64.9 285.0,64.9 285.1,64.9 285.2,64.9 285.3,64.9 285.4,64.9 285.5,64.9 285.6,64.9 285.7,64.9 285.8,64.9 285.9,64.9 286.0,64.9 286.1,64.9 286.2,64.9 286.3,64.9 286.4,64.9 286.5,64.9 286.6,64.9 286.7,64.9 286.8,64.9 286.9,64.9 287.0,64.9 287.1,64.9 287.2,64.9 287.3,64.9 287.4,64.9 287.5,64.9 287.6,64.9 287.7,64.9 287.8,64.9 287.9,64.9 288.0,64.9 288.1,64.9 288.2,64.9 288.3,64.9 288.4,64.9 288.5,64.9 288.7,64.9 288.8,64.9 288.9,64.9 289.0,64.9 289.1,64.9 289.2,64.9 289.3,64.9 289.4,64.9 289.5,64.9 289.6,64.9 289.7,64.9 289.8,64.9 289.9,64.9 290.0,64.9 290.1,64.9 290.2,64.9 290.3,64.9 290.4,64.9 290.5,64.9 290.6,64.9 290.7,64.9 290.8,64.9 290.9,64.9 291.0,64.9 291.1,64.9 291.2,64.9 291.3,64.9 291.4,64.9 291.5,64.9 291.6,64.9 291.7,64.9 291.8,64.9 291.9,64.9 292.0,64.9 292.1,64.9 292.2,64.9 292.3,64.9 292.4,64.9 292.5,64.9 292.6,64.9 292.7,64.9 292.8,64.9 292.9,64.9 293.0,64.9 293.1,64.9 293.2,64.9 293.3,64.9 293.4,64.9 293.5,64.9 293.6,64.9 293.7,64.9 293.8,64.9 293.9,64.9 294.1,64.9 294.2,64.9 294.3,64.9 294.4,64.9 294.5,64.9 294.6,64.9 294.7,64.9 294.8,64.9 294.9,64.9 295.0,64.9 295.1,64.9 295.2,64.9 295.3,64.9 295.4,64.9 295.5,64.9 295.6,64.9 295.7,64.9 295.8,64.9 295.9,64.9 296.0,64.9 296.1,64.9 296.2,64.9 296.3,64.9 296.4,64.9 296.5,64.9 296.6,64.9 296.7,64.9 296.8,64.9 296.9,64.9 297.0,64.9 297.1,64.9 297.2,64.9 297.3,64.9 297.4,64.9 297.5,64.9 297.6,64.9 297.7,64.9 297.8,64.9 297.9,64.9 298.0,64.9 298.1,64.9 298.2,64.9 298.3,64.9 298.4,64.9 298.5,64.9 298.6,64.9 298.7,64.9 298.8,64.9 298.9,64.9 299.0,64.9 299.1,64.9 299.2,64.9 299.3,64.9 299.5,64.9 299.6,64.9 299.7,64.9 299.8,64.9 299.9,64.9 300.0,64.9 300.1,64.9 300.2,64.9 300.3,64.9 300.4,64.9 300.5,64.9 300.6,64.9 300.7,64.9 300.8,64.9 300.9,64.9 301.0,64.9 301.1,64.9 301.2,64.9 301.3,64.9 301.4,64.9 301.5,64.9 301.6,64.9 301.7,64.9 301.8,64.9 301.9,64.9 302.0,64.9 302.1,64.9 302.2,64.9 302.3,64.9 302.4,64.9 302.5,64.9 302.6,64.9 302.7,64.9 302.8,64.9 302.9,64.9 303.0,64.9 303.1,64.9 303.2,64.9 303.3,64.9 303.4,64.9 303.5,64.9 303.6,64.9 303.7,64.9 303.8,64.9 303.9,64.9 304.0,64.9 304.1,64.9 304.2,64.9 304.3,64.9 304.4,64.9 304.5,64.9 304.6,64.9 304.7,64.9 304.9,64.9 305.0,64.9 305.1,64.9 305.2,64.9 305.3,64.9 305.4,64.9 305.5,64.9 305.6,64.9 305.7,64.9 305.8,64.9 305.9,64.9 306.0,64.9 306.1,64.9 306.2,64.9 306.3,64.9 306.4,64.9 306.5,64.9 306.6,64.9 306.7,64.9 306.8,64.9 306.9,64.9 307.0,64.9 307.1,64.9 307.2,64.9 307.3,64.9 307.4,64.9 307.5,64.9 307.6,64.9 307.7,64.9 307.8,64.9 307.9,64.9 308.0,64.9 308.1,64.9 308.2,64.9 308.3,64.9 308.4,64.9 308.5,64.9 308.6,64.9 308.7,64.9 308.8,64.9 308.9,64.9 309.0,64.9 309.1,64.9 309.2,64.9 309.3,64.9 309.4,64.9 309.5,64.9 309.6,64.9 309.7,64.9 309.8,64.9 309.9,64.9 310.0,64.9 310.1,64.9 310.3,64.9 310.4,64.9 310.5,64.9 310.6,64.9 310.7,64.9 310.8,64.9 310.9,64.9 311.0,64.9 311.1,64.9 311.2,64.9 311.3,64.9 311.4,64.9 311.5,64.9 311.6,64.9 311.7,64.9 311.8,64.9 311.9,64.9 312.0,64.9 312.1,64.9 312.2,64.9 312.3,64.9 312.4,64.9 312.5,64.9 312.6,64.9 312.7,64.9 312.8,64.9 312.9,64.9 313.0,64.9 313.1,64.9 313.2,64.9 313.3,64.9 313.4,64.9 313.5,64.9 313.6,64.9 313.7,64.9 313.8,64.9 313.9,64.9 314.0,64.9 314.1,64.9 314.2,64.9 314.3,64.9 314.4,64.9 314.5,64.9 314.6,64.9 314.7,64.9 314.8,64.9 314.9,64.9 315.0,64.9 315.1,64.9 315.2,64.9 315.3,64.9 315.4,64.9 315.5,64.9 315.7,64.9 315.8,64.9 315.9,64.9 316.0,64.9 316.1,64.9 316.2,64.9 316.3,64.9 316.4,64.9 316.5,64.9 316.6,64.9 316.7,64.9 316.8,64.9 316.9,64.9 317.0,64.9 317.1,64.9 317.2,64.9 317.3,64.9 317.4,64.9 317.5,64.9 317.6,64.9 317.7,64.9 317.8,64.9 317.9,64.9 318.0,64.9 318.1,64.9 318.2,64.9 318.3,64.9 318.4,64.9 318.5,64.9 318.6,64.9 318.7,64.9 318.8,64.9 318.9,64.9 319.0,64.9 319.1,64.9 319.2,64.9 319.3,64.9 319.4,64.9 319.5,64.9 319.6,64.9 319.7,64.9 319.8,64.9 319.9,64.9 320.0,64.9 320.1,64.9 320.2,64.9 320.3,64.9 320.4,64.9 320.5,64.9 320.6,64.9 320.7,64.9 320.8,64.9 320.9,64.9 321.1,64.9 321.2,64.9 321.3,64.9 321.4,64.9 321.5,64.9 321.6,64.9 321.7,64.9 321.8,64.9 321.9,64.9 322.0,64.9 322.1,64.9 322.2,64.9 322.3,64.9 322.4,64.9 322.5,64.9 322.6,64.9 322.7,64.9 322.8,64.9 322.9,64.9 323.0,64.9 323.1,64.9 323.2,64.9 323.3,64.9 323.4,64.9 323.5,64.9 323.6,64.9 323.7,64.9 323.8,64.9 323.9,64.9 324.0,64.9 324.1,64.9 324.2,64.9 324.3,64.9 324.4,64.9 324.5,64.9 324.6,64.9 324.7,64.9 324.8,64.9 324.9,64.9 325.0,64.9 325.1,64.9 325.2,64.9 325.3,64.9 325.4,64.9 325.5,64.9 325.6,64.9 325.7,64.9 325.8,64.9 325.9,64.9 326.0,64.9 326.1,64.9 326.2,64.9 326.3,64.9 326.5,64.9 326.6,64.9 326.7,64.9 326.8,64.9 326.9,64.9 327.0,64.9 327.1,64.9 327.2,64.9 327.3,64.9 327.4,64.9 327.5,64.9 327.6,64.9 327.7,64.9 327.8,64.9 327.9,64.9 328.0,64.9 328.1,64.9 328.2,64.9 328.3,64.9 328.4,64.9 328.5,64.9 328.6,64.9 328.7,64.9 328.8,64.9 328.9,64.9 329.0,64.9 329.1,64.9 329.2,64.9 329.3,64.9 329.4,64.9 329.5,64.9 329.6,64.9 329.7,64.9 329.8,64.9 329.9,64.9 330.0,64.9 330.1,64.9 330.2,64.9 330.3,64.9 330.4,64.9 330.5,64.9 330.6,64.9 330.7,64.9 330.8,64.9 330.9,64.9 331.0,64.9 331.1,64.9 331.2,64.9 331.3,64.9 331.4,64.9 331.5,64.9 331.6,64.9 331.7,64.9 331.9,64.9 332.0,64.9 332.1,64.9 332.2,64.9 332.3,64.9 332.4,64.9 332.5,64.9 332.6,64.9 332.7,64.9 332.8,64.9 332.9,64.9 333.0,64.9 333.1,64.9 333.2,64.9 333.3,64.9 333.4,64.9 333.5,64.9 333.6,64.9 333.7,64.9 333.8,64.9 333.9,64.9 334.0,64.9 334.1,64.9 334.2,64.9 334.3,64.9 334.4,64.9 334.5,64.9 334.6,64.9 334.7,64.9 334.8,64.9 334.9,64.9 335.0,64.9 335.1,64.9 335.2,64.9 335.3,64.9 335.4,64.9 335.5,64.9 335.6,64.9 335.7,64.9 335.8,64.9 335.9,64.9 336.0,64.9 336.1,64.9 336.2,64.9 336.3,64.9 336.4,64.9 336.5,64.9 336.6,64.9 336.7,64.9 336.8,64.9 336.9,64.9 337.0,64.9 337.1,64.9 337.3,64.9 337.4,64.9 337.5,64.9 337.6,64.9 337.7,64.9 337.8,64.9 337.9,64.9 338.0,64.9 338.1,64.9 338.2,64.9 338.3,64.9 338.4,64.9 338.5,64.9 338.6,64.9 338.7,64.9 338.8,64.9 338.9,64.9 339.0,64.9 339.1,64.9 339.2,64.9 339.3,64.9 339.4,64.9 339.5,64.9 339.6,64.9 339.7,64.9 339.8,64.9 339.9,64.9 340.0,64.9 340.1,64.9 340.2,64.9 340.3,64.9 340.4,64.9 340.5,64.9 340.6,64.9 340.7,64.9 340.8,64.9 340.9,64.9 341.0,64.9 341.1,64.9 341.2,64.9 341.3,64.9 341.4,64.9 341.5,64.9 341.6,64.9 341.7,64.9 341.8,64.9 341.9,64.9 342.0,64.9 342.1,64.9 342.2,64.9 342.3,64.9 342.4,64.9 342.5,64.9 342.7,64.9 342.8,64.9 342.9,64.9 343.0,64.9 343.1,64.9 343.2,64.9 343.3,64.9 343.4,64.9 343.5,64.9 343.6,64.9 343.7,64.9 343.8,64.9 343.9,64.9 344.0,64.9 344.1,64.9 344.2,64.9 344.3,64.9 344.4,64.9 344.5,64.9 344.6,64.9 344.7,64.9 344.8,64.9 344.9,64.9 345.0,64.9 345.1,64.9 345.2,64.9 345.3,64.9 345.4,64.9 345.5,64.9 345.6,64.9 345.7,64.9 345.8,64.9 345.9,64.9 346.0,64.9 346.1,64.9 346.2,64.9 346.3,64.9 346.4,64.9 346.5,64.9 346.6,64.9 346.7,64.9 346.8,64.9 346.9,64.9 347.0,64.9 347.1,64.9 347.2,64.9 347.3,64.9 347.4,64.9 347.5,64.9 347.6,64.9 347.7,64.9 347.8,64.9 347.9,64.9 348.1,64.9 348.2,64.9 348.3,64.9 348.4,64.9 348.5,64.9 348.6,64.9 348.7,64.9 348.8,64.9 348.9,64.9 349.0,64.9 349.1,64.9 349.2,64.9 349.3,64.9 349.4,64.9 349.5,64.9 349.6,64.9 349.7,64.9 349.8,64.9 349.9,64.9 350.0,64.9 350.1,64.9 350.2,64.9 350.3,64.9 350.4,64.9 350.5,64.9 350.6,64.9 350.7,64.9 350.8,64.9 350.9,64.9 351.0,64.9 351.1,64.9 351.2,64.9 351.3,64.9 351.4,64.9 351.5,64.9 351.6,64.9 351.7,64.9 351.8,64.9 351.9,64.9 352.0,64.9 352.1,64.9 352.2,64.9 352.3,64.9 352.4,64.9 352.5,64.9 352.6,64.9 352.7,64.9 352.8,64.9 352.9,64.9 353.0,64.9 353.1,64.9 353.2,64.9 353.3,64.9 353.5,64.9 353.6,64.9 353.7,64.9 353.8,64.9 353.9,64.9 354.0,64.9 354.1,64.9 354.2,64.9 354.3,64.9 354.4,64.9 354.5,64.9 354.6,64.9 354.7,64.9 354.8,64.9 354.9,64.9 355.0,64.9 355.1,64.9 355.2,64.9 355.3,64.9 355.4,64.9 355.5,64.9 355.6,64.9 355.7,64.9 355.8,64.9 355.9,64.9 356.0,64.9 356.1,64.9 356.2,64.9 356.3,64.9 356.4,64.9 356.5,64.9 356.6,64.9 356.7,64.9 356.8,64.9 356.9,64.9 357.0,64.9 357.1,64.9 357.2,64.9 357.3,64.9 357.4,64.9 357.5,64.9 357.6,64.9 357.7,64.9 357.8,64.9 357.9,64.9 358.0,64.9 358.1,64.9 358.2,64.9 358.3,64.9 358.4,64.9 358.5,64.9 358.6,64.9 358.7,64.9 358.9,64.9 359.0,64.9 359.1,64.9 359.2,64.9 359.3,64.9 359.4,64.9 359.5,64.9 359.6,64.9 359.7,64.9 359.8,64.9 359.9,64.9 360.0,64.9 360.1,64.9 360.2,64.9 360.3,64.9 360.4,64.9 360.5,64.9 360.6,64.9 360.7,64.9 360.8,64.9 360.9,64.9 361.0,64.9 361.1,64.9 361.2,64.9 361.3,64.9 361.4,64.9 361.5,64.9 361.6,64.9 361.7,64.9 361.8,64.9 361.9,64.9 362.0,64.9 362.1,64.9 362.2,64.9 362.3,64.9 362.4,64.9 362.5,64.9 362.6,64.9 362.7,64.9 362.8,64.9 362.9,64.9 363.0,64.9 363.1,64.9 363.2,64.9 363.3,64.9 363.4,64.9 363.5,64.9 363.6,64.9 363.7,64.9 363.8,64.9 363.9,64.9 364.0,64.9 364.1,64.9 364.3,64.9 364.4,64.9 364.5,64.9 364.6,64.9 364.7,64.9 364.8,64.9 364.9,64.9 365.0,64.9 365.1,64.9 365.2,64.9 365.3,64.9 365.4,64.9 365.5,64.9 365.6,64.9 365.7,64.9 365.8,64.9 365.9,64.9 366.0,64.9 366.1,64.9 366.2,64.9 366.3,64.9 366.4,64.9 366.5,64.9 366.6,64.9 366.7,64.9 366.8,64.9 366.9,64.9 367.0,64.9 367.1,64.9 367.2,64.9 367.3,64.9 367.4,64.9 367.5,64.9 367.6,64.9 367.7,64.9 367.8,64.9 367.9,64.9 368.0,64.9 368.1,64.9 368.2,64.9 368.3,64.9 368.4,64.9 368.5,64.9 368.6,64.9 368.7,64.9 368.8,64.9 368.9,64.9 369.0,64.9 369.1,64.9 369.2,64.9 369.3,64.9 369.4,64.9 369.5,64.9 369.7,64.9 369.8,64.9 369.9,64.9 370.0,64.9 370.1,64.9 370.2,64.9 370.3,64.9 370.4,64.9 370.5,64.9 370.6,64.9 370.7,64.9 370.8,64.9 370.9,64.9 371.0,64.9 371.1,64.9 371.2,64.9 371.3,64.9 371.4,64.9 371.5,64.9 371.6,64.9 371.7,64.9 371.8,64.9 371.9,64.9 372.0,64.9 372.1,64.9 372.2,64.9 372.3,64.9 372.4,64.9 372.5,64.9 372.6,64.9 372.7,64.9 372.8,64.9 372.9,64.9 373.0,64.9 373.1,64.9 373.2,64.9 373.3,64.9 373.4,64.9 373.5,64.9 373.6,64.9 373.7,64.9 373.8,64.9 373.9,64.9 374.0,64.9 374.1,64.9 374.2,64.9 374.3,64.9 374.4,64.9 374.5,64.9 374.6,64.9 374.7,64.9 374.8,64.9 374.9,64.9 375.1,64.9 375.2,64.9 375.3,64.9 375.4,64.9 375.5,64.9 375.6,64.9 375.7,64.9 375.8,64.9 375.9,64.9 376.0,64.9 376.1,64.9 376.2,64.9 376.3,64.9 376.4,64.9 376.5,64.9 376.6,64.9 376.7,64.9 376.8,64.9 376.9,64.9 377.0,64.9 377.1,64.9 377.2,64.9 377.3,64.9 377.4,64.9 377.5,64.9 377.6,64.9 377.7,64.9 377.8,64.9 377.9,64.9 378.0,64.9 378.1,64.9 378.2,64.9 378.3,64.9 378.4,64.9 378.5,64.9 378.6,64.9 378.7,64.9 378.8,64.9 378.9,64.9 379.0,64.9 379.1,64.9 379.2,64.9 379.3,64.9 379.4,64.9 379.5,64.9 379.6,64.9 379.7,64.9 379.8,64.9 379.9,64.9 380.0,64.9 380.1,64.9 380.2,64.9 380.4,64.9 380.5,64.9 380.6,64.9 380.7,64.9 380.8,64.9 380.9,64.9 381.0,64.9 381.1,64.9 381.2,64.9 381.3,64.9 381.4,64.9 381.5,64.9 381.6,64.9 381.7,64.9 381.8,64.9 381.9,64.9 382.0,64.9 382.1,64.9 382.2,64.9 382.3,64.9 382.4,64.9 382.5,64.9 382.6,64.9 382.7,64.9 382.8,64.9 382.9,64.9 383.0,64.9 383.1,64.9 383.2,64.9 383.3,64.9 383.4,64.9 383.5,64.9 383.6,64.9 383.7,64.9 383.8,64.9 383.9,64.9 384.0,64.9 384.1,64.9 384.2,64.9 384.3,64.9 384.4,64.9 384.5,64.9 384.6,64.9 384.7,64.9 384.8,64.9 384.9,64.9 385.0,64.9 385.1,64.9 385.2,64.9 385.3,64.9 385.4,64.9 385.5,64.9 385.6,64.9 385.8,64.9 385.9,64.9 386.0,64.9 386.1,64.9 386.2,64.9 386.3,64.9 386.4,64.9 386.5,64.9 386.6,64.9 386.7,64.9 386.8,64.9 386.9,64.9 387.0,64.9 387.1,64.9 387.2,64.9 387.3,64.9 387.4,64.9 387.5,64.9 387.6,64.9 387.7,64.9 387.8,64.9 387.9,64.9 388.0,64.9 388.1,64.9 388.2,64.9 388.3,64.9 388.4,64.9 388.5,64.9 388.6,64.9 388.7,64.9 388.8,64.9 388.9,64.9 389.0,64.9 389.1,64.9 389.2,64.9 389.3,64.9 389.4,64.9 389.5,64.9 389.6,64.9 389.7,64.9 389.8,64.9 389.9,64.9 390.0,64.9 390.1,64.9 390.2,64.9 390.3,64.9 390.4,64.9 390.5,64.9 390.6,64.9 390.7,64.9 390.8,64.9 390.9,64.9 391.0,64.9 391.2,64.9 391.3,64.9 391.4,64.9 391.5,64.9 391.6,64.9 391.7,64.9 391.8,64.9 391.9,64.9 392.0,64.9 392.1,64.9 392.2,64.9 392.3,64.9 392.4,64.9 392.5,64.9 392.6,64.9 392.7,64.9 392.8,64.9 392.9,64.9 393.0,64.9 393.1,64.9 393.2,64.9 393.3,64.9 393.4,64.9 393.5,64.9 393.6,64.9 393.7,64.9 393.8,64.9 393.9,64.9 394.0,64.9 394.1,64.9 394.2,64.9 394.3,64.9 394.4,64.9 394.5,64.9 394.6,64.9 394.7,64.9 394.8,64.9 394.9,64.9 395.0,64.9 395.1,64.9 395.2,64.9 395.3,64.9 395.4,64.9 395.5,64.9 395.6,64.9 395.7,64.9 395.8,64.9 395.9,64.9 396.0,64.9 396.1,64.9 396.2,64.9 396.3,64.9 396.4,64.9 396.6,64.9 396.7,64.9 396.8,64.9 396.9,64.9 397.0,64.9 397.1,64.9 397.2,64.9 397.3,64.9 397.4,64.9 397.5,64.9 397.6,64.9 397.7,64.9 397.8,64.9 397.9,64.9 398.0,64.9 398.1,64.9 398.2,64.9 398.3,64.9 398.4,64.9 398.5,64.9 398.6,64.9 398.7,64.9 398.8,64.9 398.9,64.9 399.0,64.9 399.1,64.9 399.2,64.9 399.3,64.9 399.4,64.9 399.5,64.9 399.6,64.9 399.7,64.9 399.8,64.9 399.9,64.9 400.0,64.9 400.1,64.9 400.2,64.9 400.3,64.9 400.4,64.9 400.5,64.9 400.6,64.9 400.7,64.9 400.8,64.9 400.9,64.9 401.0,64.9 401.1,64.9 401.2,64.9 401.3,64.9 401.4,64.9 401.5,64.9 401.6,64.9 401.7,64.9 401.8,64.9 402.0,64.9 402.1,64.9 402.2,64.9 402.3,64.9 402.4,64.9 402.5,64.9 402.6,64.9 402.7,64.9 402.8,64.9 402.9,64.9 403.0,64.9 403.1,64.9 403.2,64.9 403.3,64.9 403.4,64.9 403.5,64.9 403.6,64.9 403.7,64.9 403.8,64.9 403.9,64.9 404.0,64.9 404.1,64.9 404.2,64.9 404.3,64.9 404.4,64.9 404.5,64.9 404.6,64.9 404.7,64.9 404.8,64.9 404.9,64.9 405.0,64.9 405.1,64.9 405.2,64.9 405.3,64.9 405.4,64.9 405.5,64.9 405.6,64.9 405.7,64.9 405.8,64.9 405.9,64.9 406.0,64.9 406.1,64.9 406.2,64.9 406.3,64.9 406.4,64.9 406.5,64.9 406.6,64.9 406.7,64.9 406.8,64.9 406.9,64.9 407.0,64.9 407.1,64.9 407.2,64.9 407.4,64.9 407.5,64.9 407.6,64.9 407.7,64.9 407.8,64.9 407.9,64.9 408.0,64.9 408.1,64.9 408.2,64.9 408.3,64.9 408.4,64.9 408.5,64.9 408.6,64.9 408.7,64.9 408.8,64.9 408.9,64.9 409.0,64.9 409.1,64.9 409.2,64.9 409.3,64.9 409.4,64.9 409.5,64.9 409.6,64.9 409.7,64.9 409.8,64.9 409.9,64.9 410.0,64.9 410.1,64.9 410.2,64.9 410.3,64.9 410.4,64.9 410.5,64.9 410.6,64.9 410.7,64.9 410.8,64.9 410.9,64.9 411.0,64.9 411.1,64.9 411.2,64.9 411.3,64.9 411.4,64.9 411.5,64.9 411.6,64.9 411.7,64.9 411.8,64.9 411.9,64.9 412.0,64.9 412.1,64.9 412.2,64.9 412.3,64.9 412.4,64.9 412.5,64.9 412.6,64.9 412.8,64.9 412.9,64.9 413.0,64.9 413.1,64.9 413.2,64.9 413.3,64.9 413.4,64.9 413.5,64.9 413.6,64.9 413.7,64.9 413.8,64.9 413.9,64.9 414.0,64.9 414.1,64.9 414.2,64.9 414.3,64.9 414.4,64.9 414.5,64.9 414.6,64.9 414.7,64.9 414.8,64.9 414.9,64.9 415.0,64.9 415.1,64.9 415.2,64.9 415.3,64.9 415.4,64.9 415.5,64.9 415.6,64.9 415.7,64.9 415.8,64.9 415.9,64.9 416.0,64.9 416.1,64.9 416.2,64.9 416.3,64.9 416.4,64.9 416.5,64.9 416.6,64.9 416.7,64.9 416.8,64.9 416.9,64.9 417.0,64.9 417.1,64.9 417.2,64.9 417.3,64.9 417.4,64.9 417.5,64.9 417.6,64.9 417.7,64.9 417.8,64.9 417.9,64.9 418.0,64.9 418.2,64.9 418.3,64.9 418.4,64.9 418.5,64.9 418.6,64.9 418.7,64.9 418.8,64.9 418.9,64.9 419.0,64.9 419.1,64.9 419.2,64.9 419.3,64.9 419.4,64.9 419.5,64.9 419.6,64.9 419.7,64.9 419.8,64.9 419.9,64.9 420.0,64.9 420.1,64.9 420.2,64.9 420.3,64.9 420.4,64.9 420.5,64.9 420.6,64.9 420.7,64.9 420.8,64.9 420.9,64.9 421.0,64.9 421.1,64.9 421.2,64.9 421.3,64.9 421.4,64.9 421.5,64.9 421.6,64.9 421.7,64.9 421.8,64.9 421.9,64.9 422.0,64.9 422.1,64.9 422.2,64.9 422.3,64.9 422.4,64.9 422.5,64.9 422.6,64.9 422.7,64.9 422.8,64.9 422.9,64.9 423.0,64.9 423.1,64.9 423.2,64.9 423.3,64.9 423.4,64.9 423.6,64.9 423.7,64.9 423.8,64.9 423.9,64.9 424.0,64.9 424.1,64.9 424.2,64.9 424.3,64.9 424.4,64.9 424.5,64.9 424.6,64.9 424.7,64.9 424.8,64.9 424.9,64.9 425.0,64.9 425.1,64.9 425.2,64.9 425.3,64.9 425.4,64.9 425.5,64.9 425.6,64.9 425.7,64.9 425.8,64.9 425.9,64.9 426.0,64.9 426.1,64.9 426.2,64.9 426.3,64.9 426.4,64.9 426.5,64.9 426.6,64.9 426.7,64.9 426.8,64.9 426.9,64.9 427.0,64.9 427.1,64.9 427.2,64.9 427.3,64.9 427.4,64.9 427.5,64.9 427.6,64.9 427.7,64.9 427.8,64.9 427.9,64.9 428.0,64.9 428.1,64.9 428.2,64.9 428.3,64.9 428.4,64.9 428.5,64.9 428.6,64.9 428.7,64.9 428.8,64.9 429.0,64.9 429.1,64.9 429.2,64.9 429.3,64.9 429.4,64.9 429.5,64.9 429.6,64.9 429.7,64.9 429.8,64.9 429.9,64.9 430.0,64.9 430.1,64.9 430.2,64.9 430.3,64.9 430.4,64.9 430.5,64.9 430.6,64.9 430.7,64.9 430.8,64.9 430.9,64.9 431.0,64.9 431.1,64.9 431.2,64.9 431.3,64.9 431.4,64.9 431.5,64.9 431.6,64.9 431.7,64.9 431.8,64.9 431.9,64.9 432.0,64.9 432.1,64.9 432.2,64.9 432.3,64.9 432.4,64.9 432.5,64.9 432.6,64.9 432.7,64.9 432.8,64.9 432.9,64.9 433.0,64.9 433.1,64.9 433.2,64.9 433.3,64.9 433.4,64.9 433.5,64.9 433.6,64.9 433.7,64.9 433.8,64.9 433.9,64.9 434.0,64.9 434.1,64.9 434.2,64.9 434.4,64.9 434.5,64.9 434.6,64.9 434.7,64.9 434.8,64.9 434.9,64.9 435.0,64.9 435.1,64.9 435.2,64.9 435.3,64.9 435.4,64.9 435.5,64.9 435.6,64.9 435.7,64.9 435.8,64.9 435.9,64.9 436.0,64.9 436.1,64.9 436.2,64.9 436.3,64.9 436.4,64.9 436.5,64.9 436.6,64.9 436.7,64.9 436.8,64.9 436.9,64.9 437.0,64.9 437.1,64.9 437.2,64.9 437.3,64.9 437.4,64.9 437.5,64.9 437.6,64.9 437.7,64.9 437.8,64.9 437.9,64.9 438.0,64.9 438.1,64.9 438.2,64.9 438.3,64.9 438.4,64.9 438.5,64.9 438.6,64.9 438.7,64.9 438.8,64.9 438.9,64.9 439.0,64.9 439.1,64.9 439.2,64.9 439.3,64.9 439.4,64.9 439.5,64.9 439.6,64.9 439.8,64.9 439.9,64.9 440.0,64.9 440.1,64.9 440.2,64.9 440.3,64.9 440.4,64.9 440.5,64.9 440.6,64.9 440.7,64.9 440.8,64.9 440.9,64.9 441.0,64.9 441.1,64.9 441.2,64.9 441.3,64.9 441.4,64.9 441.5,64.9 441.6,64.9 441.7,64.9 441.8,64.9 441.9,64.9 442.0,64.9 442.1,64.9 442.2,64.9 442.3,64.9 442.4,64.9 442.5,64.9 442.6,64.9 442.7,64.9 442.8,64.9 442.9,64.9 443.0,64.9 443.1,64.9 443.2,64.9 443.3,64.9 443.4,64.9 443.5,64.9 443.6,64.9 443.7,64.9 443.8,64.9 443.9,64.9 444.0,64.9 444.1,64.9 444.2,64.9 444.3,64.9 444.4,64.9 444.5,64.9 444.6,64.9 444.7,64.9 444.8,64.9 444.9,64.9 445.0,64.9 445.2,64.9 445.3,64.9 445.4,64.9 445.5,64.9 445.6,64.9 445.7,64.9 445.8,64.9 445.9,64.9 446.0,64.9 446.1,64.9 446.2,64.9 446.3,64.9 446.4,64.9 446.5,64.9 446.6,64.9 446.7,64.9 446.8,64.9 446.9,64.9 447.0,64.9 447.1,64.9 447.2,64.9 447.3,64.9 447.4,64.9 447.5,64.9 447.6,64.9 447.7,64.9 447.8,64.9 447.9,64.9 448.0,64.9 448.1,64.9 448.2,64.9 448.3,64.9 448.4,64.9 448.5,64.9 448.6,64.9 448.7,64.9 448.8,64.9 448.9,64.9 449.0,64.9 449.1,64.9 449.2,64.9 449.3,64.9 449.4,64.9 449.5,64.9 449.6,64.9 449.7,64.9 449.8,64.9 449.9,64.9 450.0,64.9 450.1,64.9 450.2,64.9 450.3,64.9 450.4,64.9 450.6,64.9 450.7,64.9 450.8,64.9 450.9,64.9 451.0,64.9 451.1,64.9 451.2,64.9 451.3,64.9 451.4,64.9 451.5,64.9 451.6,64.9 451.7,64.9 451.8,64.9 451.9,64.9 452.0,64.9 452.1,64.9 452.2,64.9 452.3,64.9 452.4,64.9 452.5,64.9 452.6,64.9 452.7,64.9 452.8,64.9 452.9,64.9 453.0,64.9 453.1,64.9 453.2,64.9 453.3,64.9 453.4,64.9 453.5,64.9 453.6,64.9 453.7,64.9 453.8,64.9 453.9,64.9 454.0,64.9 454.1,64.9 454.2,64.9 454.3,64.9 454.4,64.9 454.5,64.9 454.6,64.9 454.7,64.9 454.8,64.9 454.9,64.9 455.0,64.9 455.1,64.9 455.2,64.9 455.3,64.9 455.4,64.9 455.5,64.9 455.6,64.9 455.7,64.9 455.8,64.9 456.0,64.9 456.1,64.9 456.2,64.9 456.3,64.9 456.4,64.9 456.5,64.9 456.6,64.9 456.7,64.9 456.8,64.9 456.9,64.9 457.0,64.9 457.1,64.9 457.2,64.9 457.3,64.9 457.4,64.9 457.5,64.9 457.6,64.9 457.7,64.9 457.8,64.9 457.9,64.9 458.0,64.9 458.1,64.9 458.2,64.9 458.3,64.9 458.4,64.9 458.5,64.9 458.6,64.9 458.7,64.9 458.8,64.9 458.9,64.9 459.0,64.9 459.1,64.9 459.2,64.9 459.3,64.9 459.4,64.9 459.5,64.9 459.6,64.9 459.7,64.9 459.8,64.9 459.9,64.9 460.0,64.9 460.1,64.9 460.2,64.9 460.3,64.9 460.4,64.9 460.5,64.9 460.6,64.9 460.7,64.9 460.8,64.9 460.9,64.9 461.0,64.9 461.1,64.9 461.2,64.9 461.4,64.9 461.5,64.9 461.6,64.9 461.7,64.9 461.8,64.9 461.9,64.9 462.0,64.9 462.1,64.9 462.2,64.9 462.3,64.9 462.4,64.9 462.5,64.9 462.6,64.9 462.7,64.9 462.8,64.9 462.9,64.9 463.0,64.9 463.1,64.9 463.2,64.9 463.3,64.9 463.4,64.9 463.5,64.9 463.6,64.9 463.7,64.9 463.8,64.9 463.9,64.9 464.0,64.9 464.1,64.9 464.2,64.9 464.3,64.9 464.4,64.9 464.5,64.9 464.6,64.9 464.7,64.9 464.8,64.9 464.9,64.9 465.0,64.9 465.1,64.9 465.2,64.9 465.3,64.9 465.4,64.9 465.5,64.9 465.6,64.9 465.7,64.9 465.8,64.9 465.9,64.9 466.0,64.9 466.1,64.9 466.2,64.9 466.3,64.9 466.4,64.9 466.5,64.9 466.6,64.9 466.8,64.9 466.9,64.9 467.0,64.9 467.1,64.9 467.2,64.9 467.3,64.9 467.4,64.9 467.5,64.9 467.6,64.9 467.7,64.9 467.8,64.9 467.9,64.9 468.0,64.9 468.1,64.9 468.2,64.9 468.3,64.9 468.4,64.9 468.5,64.9 468.6,64.9 468.7,64.9 468.8,64.9 468.9,64.9 469.0,64.9 469.1,64.9 469.2,64.9 469.3,64.9 469.4,64.9 469.5,64.9 469.6,64.9 469.7,64.9 469.8,64.9 469.9,64.9 470.0,64.9 470.1,64.9 470.2,64.9 470.3,64.9 470.4,64.9 470.5,64.9 470.6,64.9 470.7,64.9 470.8,64.9 470.9,64.9 471.0,64.9 471.1,64.9 471.2,64.9 471.3,64.9 471.4,64.9 471.5,64.9 471.6,64.9 471.7,64.9 471.8,64.9 471.9,64.9 472.0,64.9 472.2,64.9 472.3,64.9 472.4,64.9 472.5,64.9 472.6,64.9 472.7,64.9 472.8,64.9 472.9,64.9 473.0,64.9 473.1,64.9 473.2,64.9 473.3,64.9 473.4,64.9 473.5,64.9 473.6,64.9 473.7,64.9 473.8,64.9 473.9,64.9 474.0,64.9 474.1,64.9 474.2,64.9 474.3,64.9 474.4,64.9 474.5,64.9 474.6,64.9 474.7,64.9 474.8,64.9 474.9,64.9 475.0,64.9 475.1,64.9 475.2,64.9 475.3,64.9 475.4,64.9 475.5,64.9 475.6,64.9 475.7,64.9 475.8,64.9 475.9,64.9 476.0,64.9 476.1,64.9 476.2,64.9 476.3,64.9 476.4,64.9 476.5,64.9 476.6,64.9 476.7,64.9 476.8,64.9 476.9,64.9 477.0,64.9 477.1,64.9 477.2,64.9 477.3,64.9 477.4,64.9 477.6,64.9 477.7,64.9 477.8,64.9 477.9,64.9 478.0,64.9 478.1,64.9 478.2,64.9 478.3,64.9 478.4,64.9 478.5,64.9 478.6,64.9 478.7,64.9 478.8,64.9 478.9,64.9 479.0,64.9 479.1,64.9 479.2,64.9 479.3,64.9 479.4,64.9 479.5,64.9 479.6,64.9 479.7,64.9 479.8,64.9 479.9,64.9 480.0,64.9 480.1,64.9 480.2,64.9 480.3,64.9 480.4,64.9 480.5,64.9 480.6,64.9 480.7,64.9 480.8,64.9 480.9,64.9 481.0,64.9 481.1,64.9 481.2,64.9 481.3,64.9 481.4,64.9 481.5,64.9 481.6,64.9 481.7,64.9 481.8,64.9 481.9,64.9 482.0,64.9 482.1,64.9 482.2,64.9 482.3,64.9 482.4,64.9 482.5,64.9 482.6,64.9 482.7,64.9 482.8,64.9 483.0,64.9 483.1,64.9 483.2,64.9 483.3,64.9 483.4,64.9 483.5,64.9 483.6,64.9 483.7,64.9 483.8,64.9 483.9,64.9 484.0,64.9 484.1,64.9 484.2,64.9 484.3,64.9 484.4,64.9 484.5,64.9 484.6,64.9 484.7,64.9 484.8,64.9 484.9,64.9 485.0,64.9 485.1,64.9 485.2,64.9 485.3,64.9 485.4,64.9 485.5,64.9 485.6,64.9 485.7,64.9 485.8,64.9 485.9,64.9 486.0,64.9 486.1,64.9 486.2,64.9 486.3,64.9 486.4,64.9 486.5,64.9 486.6,64.9 486.7,64.9 486.8,64.9 486.9,64.9 487.0,64.9 487.1,64.9 487.2,64.9 487.3,64.9 487.4,64.9 487.5,64.9 487.6,64.9 487.7,64.9 487.8,64.9 487.9,64.9 488.0,64.9 488.1,64.9 488.2,64.9 488.4,64.9 488.5,64.9 488.6,64.9 488.7,64.9 488.8,64.9 488.9,64.9 489.0,64.9 489.1,64.9 489.2,64.9 489.3,64.9 489.4,64.9 489.5,64.9 489.6,64.9 489.7,64.9 489.8,64.9 489.9,64.9 490.0,64.9 490.1,64.9 490.2,64.9 490.3,64.9 490.4,64.9 490.5,64.9 490.6,64.9 490.7,64.9 490.8,64.9 490.9,64.9 491.0,64.9 491.1,64.9 491.2,64.9 491.3,64.9 491.4,64.9 491.5,64.9 491.6,64.9 491.7,64.9 491.8,64.9 491.9,64.9 492.0,64.9 492.1,64.9 492.2,64.9 492.3,64.9 492.4,64.9 492.5,64.9 492.6,64.9 492.7,64.9 492.8,64.9 492.9,64.9 493.0,64.9 493.1,64.9 493.2,64.9 493.3,64.9 493.4,64.9 493.5,64.9 493.6,64.9 493.8,64.9 493.9,64.9 494.0,64.9 494.1,64.9 494.2,64.9 494.3,64.9 494.4,64.9 494.5,64.9 494.6,64.9 494.7,64.9 494.8,64.9 494.9,64.9 495.0,64.9 495.1,64.9 495.2,64.9 495.3,64.9 495.4,64.9 495.5,64.9 495.6,64.9 495.7,64.9 495.8,64.9 495.9,64.9 496.0,64.9 496.1,64.9 496.2,64.9 496.3,64.9 496.4,64.9 496.5,64.9 496.6,64.9 496.7,64.9 496.8,64.9 496.9,64.9 497.0,64.9 497.1,64.9 497.2,64.9 497.3,64.9 497.4,64.9 497.5,64.9 497.6,64.9 497.7,64.9 497.8,64.9 497.9,64.9 498.0,64.9 498.1,64.9 498.2,64.9 498.3,64.9 498.4,64.9 498.5,64.9 498.6,64.9 498.7,64.9 498.8,64.9 498.9,64.9 499.0,64.9 499.2,64.9 499.3,64.9 499.4,64.9 499.5,64.9 499.6,64.9 499.7,64.9 499.8,64.9 499.9,64.9 500.0,64.9 500.1,64.9 500.2,64.9 500.3,64.9 500.4,64.9 500.5,64.9 500.6,64.9 500.7,64.9 500.8,64.9 500.9,64.9 501.0,64.9 501.1,64.9 501.2,64.9 501.3,64.9 501.4,64.9 501.5,64.9 501.6,64.9 501.7,64.9 501.8,64.9 501.9,64.9 502.0,64.9 502.1,64.9 502.2,64.9 502.3,64.9 502.4,64.9 502.5,64.9 502.6,64.9 502.7,64.9 502.8,64.9 502.9,64.9 503.0,64.9 503.1,64.9 503.2,64.9 503.3,64.9 503.4,64.9 503.5,64.9 503.6,64.9 503.7,64.9 503.8,64.9 503.9,64.9 504.0,64.9 504.1,64.9 504.2,64.9 504.3,64.9 504.4,64.9 504.6,64.9 504.7,64.9 504.8,64.9 504.9,64.9 505.0,64.9 505.1,64.9 505.2,64.9 505.3,64.9 505.4,64.9 505.5,64.9 505.6,64.9 505.7,64.9 505.8,64.9 505.9,64.9 506.0,64.9 506.1,64.9 506.2,64.9 506.3,64.9 506.4,64.9 506.5,64.9 506.6,64.9 506.7,64.9 506.8,64.9 506.9,64.9 507.0,64.9 507.1,64.9 507.2,64.9 507.3,64.9 507.4,64.9 507.5,64.9 507.6,64.9 507.7,64.9 507.8,64.9 507.9,64.9 508.0,64.9 508.1,64.9 508.2,64.9 508.3,64.9 508.4,64.9 508.5,64.9 508.6,64.9 508.7,64.9 508.8,64.9 508.9,64.9 509.0,64.9 509.1,64.9 509.2,64.9 509.3,64.9 509.4,64.9 509.5,64.9 509.6,64.9 509.7,64.9 509.8,64.9 510.0,64.9 510.1,64.9 510.2,64.9 510.3,64.9 510.4,64.9 510.5,64.9 510.6,64.9 510.7,64.9 510.8,64.9 510.9,64.9 511.0,64.9 511.1,64.9 511.2,64.9 511.3,64.9 511.4,64.9 511.5,64.9 511.6,64.9 511.7,64.9 511.8,64.9 511.9,64.9 512.0,64.9 512.1,64.9 512.2,64.9 512.3,64.9 512.4,64.9 512.5,64.9 512.6,64.9 512.7,64.9 512.8,64.9 512.9,64.9 513.0,64.9 513.1,64.9 513.2,64.9 513.3,64.9 513.4,64.9 513.5,64.9 513.6,64.9 513.7,64.9 513.8,64.9 513.9,64.9 514.0,64.9 514.1,64.9 514.2,64.9 514.3,64.9 514.4,64.9 514.5,64.9 514.6,64.9 514.7,64.9 514.8,64.9 514.9,64.9 515.0,64.9 515.1,64.9 515.2,64.9 515.4,64.9 515.5,64.9 515.6,64.9 515.7,64.9 515.8,64.9 515.9,64.9 516.0,64.9 516.1,64.9 516.2,64.9 516.3,64.9 516.4,64.9 516.5,64.9 516.6,64.9 516.7,64.9 516.8,64.9 516.9,64.9 517.0,64.9 517.1,64.9 517.2,64.9 517.3,64.9 517.4,64.9 517.5,64.9 517.6,64.9 517.7,64.9 517.8,64.9 517.9,64.9 518.0,64.9 518.1,64.9 518.2,64.9 518.3,64.9 518.4,64.9 518.5,64.9 518.6,64.9 518.7,64.9 518.8,64.9 518.9,64.9 519.0,64.9 519.1,64.9 519.2,64.9 519.3,64.9 519.4,64.9 519.5,64.9 519.6,64.9 519.7,64.9 519.8,64.9 519.9,64.9 520.0,64.9 520.1,64.9 520.2,64.9 520.3,64.9 520.4,64.9 520.5,64.9 520.6,64.9 520.8,64.9 520.9,64.9 521.0,64.9 521.1,64.9 521.2,64.9 521.3,64.9 521.4,64.9 521.5,64.9 521.6,64.9 521.7,64.9 521.8,64.9 521.9,64.9 522.0,64.9 522.1,64.9 522.2,64.9 522.3,64.9 522.4,64.9 522.5,64.9 522.6,64.9 522.7,64.9 522.8,64.9 522.9,64.9 523.0,64.9 523.1,64.9 523.2,64.9 523.3,64.9 523.4,64.9 523.5,64.9 523.6,64.9 523.7,64.9 523.8,64.9 523.9,64.9 524.0,64.9 524.1,64.9 524.2,64.9 524.3,64.9 524.4,64.9 524.5,64.9 524.6,64.9 524.7,64.9 524.8,64.9 524.9,64.9 525.0,64.9 525.1,64.9 525.2,64.9 525.3,64.9 525.4,64.9 525.5,64.9 525.6,64.9 525.7,64.9 525.8,64.9 525.9,64.9 526.0,64.9 526.2,64.9 526.3,64.9 526.4,64.9 526.5,64.9 526.6,64.9 526.7,64.9 526.8,64.9 526.9,64.9 527.0,64.9 527.1,64.9 527.2,64.9 527.3,64.9 527.4,64.9 527.5,64.9 527.6,64.9 527.7,64.9 527.8,64.9 527.9,64.9 528.0,64.9 528.1,64.9 528.2,64.9 528.3,64.9 528.4,64.9 528.5,64.9 528.6,64.9 528.7,64.9 528.8,64.9 528.9,64.9 529.0,64.9 529.1,64.9 529.2,64.9 529.3,64.9 529.4,64.9 529.5,64.9 529.6,64.9 529.7,64.9 529.8,64.9 529.9,64.9 530.0,64.9 530.1,64.9 530.2,64.9 530.3,64.9 530.4,64.9 530.5,64.9 530.6,64.9 530.7,64.9 530.8,64.9 530.9,64.9 531.0,64.9 531.1,64.9 531.2,64.9 531.3,64.9 531.4,64.9 531.6,64.9 531.7,64.9 531.8,64.9 531.9,64.9 532.0,64.9 532.1,64.9 532.2,64.9 532.3,64.9 532.4,64.9 532.5,64.9 532.6,64.9 532.7,64.9 532.8,64.9 532.9,64.9 533.0,64.9 533.1,64.9 533.2,64.9 533.3,64.9 533.4,64.9 533.5,64.9 533.6,64.9 533.7,64.9 533.8,64.9 533.9,64.9 534.0,64.9 534.1,64.9 534.2,64.9 534.3,64.9 534.4,64.9 534.5,64.9 534.6,64.9 534.7,64.9 534.8,64.9 534.9,64.9 535.0,64.9 535.1,64.9 535.2,64.9 535.3,64.9 535.4,64.9 535.5,64.9 535.6,64.9 535.7,64.9 535.8,64.9 535.9,64.9 536.0,64.9 536.1,64.9 536.2,64.9 536.3,64.9 536.4,64.9 536.5,64.9 536.6,64.9 536.7,64.9 536.8,64.9 537.0,64.9 537.1,64.9 537.2,64.9 537.3,64.9 537.4,64.9 537.5,64.9 537.6,64.9 537.7,64.9 537.8,64.9 537.9,64.9 538.0,64.9 538.1,64.9 538.2,64.9 538.3,64.9 538.4,64.9 538.5,64.9 538.6,64.9 538.7,64.9 538.8,64.9 538.9,64.9 539.0,64.9 539.1,64.9 539.2,64.9 539.3,64.9 539.4,64.9 539.5,64.9 539.6,64.9 539.7,64.9 539.8,64.9 539.9,64.9 540.0,64.9 540.1,64.9 540.2,64.9 540.3,64.9 540.4,64.9 540.5,64.9 540.6,64.9 540.7,64.9 540.8,64.9 540.9,64.9 541.0,64.9 541.1,64.9 541.2,64.9 541.3,64.9 541.4,64.9 541.5,64.9 541.6,64.9 541.7,64.9 541.8,64.9 541.9,64.9 542.0,64.9 542.1,64.9 542.2,64.9 542.4,64.9 542.5,64.9 542.6,64.9 542.7,64.9 542.8,64.9 542.9,64.9 543.0,64.9 543.1,64.9 543.2,64.9 543.3,64.9 543.4,64.9 543.5,64.9 543.6,64.9 543.7,64.9 543.8,64.9 543.9,64.9 544.0,64.9 544.1,64.9 544.2,64.9 544.3,64.9 544.4,64.9 544.5,64.9 544.6,64.9 544.7,64.9 544.8,64.9 544.9,64.9 545.0,64.9 545.1,64.9 545.2,64.9 545.3,64.9 545.4,64.9 545.5,64.9 545.6,64.9 545.7,64.9 545.8,64.9 545.9,64.9 546.0,64.9 546.1,64.9 546.2,64.9 546.3,64.9 546.4,64.9 546.5,64.9 546.6,64.9 546.7,64.9 546.8,64.9 546.9,64.9 547.0,64.9 547.1,64.9 547.2,64.9 547.3,64.9 547.4,64.9 547.5,64.9 547.6,64.9 547.8,64.9 547.9,64.9 548.0,64.9 548.1,64.9 548.2,64.9 548.3,64.9 548.4,64.9 548.5,64.9 548.6,64.9 548.7,64.9 548.8,64.9 548.9,64.9 549.0,64.9 549.1,64.9 549.2,64.9 549.3,64.9 549.4,64.9 549.5,64.9 549.6,64.9 549.7,64.9 549.8,64.9 549.9,64.9 550.0,64.9 550.1,64.9 550.2,64.9 550.3,64.9 550.4,64.9 550.5,64.9 550.6,64.9 550.7,64.9 550.8,64.9 550.9,64.9 551.0,64.9 551.1,64.9 551.2,64.9 551.3,64.9 551.4,64.9 551.5,64.9 551.6,64.9 551.7,64.9 551.8,64.9 551.9,64.9 552.0,64.9 552.1,64.9 552.2,64.9 552.3,64.9 552.4,64.9 552.5,64.9 552.6,64.9 552.7,64.9 552.8,64.9 552.9,64.9 553.0,64.9 553.2,64.9 553.3,64.9 553.4,64.9 553.5,64.9 553.6,64.9 553.7,64.9 553.8,64.9 553.9,64.9 554.0,64.9 554.1,64.9 554.2,64.9 554.3,64.9 554.4,64.9 554.5,64.9 554.6,64.9 554.7,64.9 554.8,64.9 554.9,64.9 555.0,64.9 555.1,64.9 555.2,64.9 555.3,64.9 555.4,64.9 555.5,64.9 555.6,64.9 555.7,64.9 555.8,64.9 555.9,64.9 556.0,64.9 556.1,64.9 556.2,64.9 556.3,64.9 556.4,64.9 556.5,64.9 556.6,64.9 556.7,64.9 556.8,64.9 556.9,64.9 557.0,64.9 557.1,64.9 557.2,64.9 557.3,64.9 557.4,64.9 557.5,64.9 557.6,64.9 557.7,64.9 557.8,64.9 557.9,64.9 558.0,64.9 558.1,64.9 558.2,64.9 558.3,64.9 558.4,64.9 558.6,64.9 558.7,64.9 558.8,64.9 558.9,64.9 559.0,64.9 559.1,64.9 559.2,64.9 559.3,64.9 559.4,64.9 559.5,64.9 559.6,64.9 559.7,64.9 559.8,64.9 559.9,64.9 560.0,64.9 560.1,64.9 560.2,64.9 560.3,64.9 560.4,64.9 560.5,64.9 560.6,64.9 560.7,64.9 560.8,64.9 560.9,64.9 561.0,64.9 561.1,64.9 561.2,64.9 561.3,64.9 561.4,64.9 561.5,64.9 561.6,64.9 561.7,64.9 561.8,64.9 561.9,64.9 562.0,64.9 562.1,64.9 562.2,64.9 562.3,64.9 562.4,64.9 562.5,64.9 562.6,64.9 562.7,64.9 562.8,64.9 562.9,64.9 563.0,64.9 563.1,64.9 563.2,64.9 563.3,64.9 563.4,64.9 563.5,64.9 563.6,64.9 563.7,64.9 563.8,64.9 564.0,64.9 564.1,64.9 564.2,64.9 564.3,64.9 564.4,64.9 564.5,64.9 564.6,64.9 564.7,64.9 564.8,64.9 564.9,64.9 565.0,64.9 565.1,64.9 565.2,64.9 565.3,64.9 565.4,64.9 565.5,64.9 565.6,64.9 565.7,64.9 565.8,64.9 565.9,64.9 566.0,64.9 566.1,64.9 566.2,64.9 566.3,64.9 566.4,64.9 566.5,64.9 566.6,64.9 566.7,64.9 566.8,64.9 566.9,64.9 567.0,64.9 567.1,64.9 567.2,64.9 567.3,64.9 567.4,64.9 567.5,64.9 567.6,64.9 567.7,64.9 567.8,64.9 567.9,64.9 568.0,64.9 568.1,64.9 568.2,64.9 568.3,64.9 568.4,64.9 568.5,64.9 568.6,64.9 568.7,64.9 568.8,64.9 568.9,64.9 569.0,64.9 569.1,64.9 569.2,64.9 569.4,64.9 569.5,64.9 569.6,64.9 569.7,64.9 569.8,64.9 569.9,64.9 570.0,64.9 570.1,64.9 570.2,64.9 570.3,64.9 570.4,64.9 570.5,64.9 570.6,64.9 570.7,64.9 570.8,64.9 570.9,64.9 571.0,64.9 571.1,64.9 571.2,64.9 571.3,64.9 571.4,64.9 571.5,64.9 571.6,64.9 571.7,64.9 571.8,64.9 571.9,64.9 572.0,64.9 572.1,64.9 572.2,64.9 572.3,64.9 572.4,64.9 572.5,64.9 572.6,64.9 572.7,64.9 572.8,64.9 572.9,64.9 573.0,64.9 573.1,64.9 573.2,64.9 573.3,64.9 573.4,64.9 573.5,64.9 573.6,64.9 573.7,64.9 573.8,64.9 573.9,64.9 574.0,64.9 574.1,64.9 574.2,64.9 574.3,64.9 574.4,64.9 574.5,64.9 574.6,64.9 574.8,64.9 574.9,64.9 575.0,64.9 575.1,64.9 575.2,64.9 575.3,64.9 575.4,64.9 575.5,64.9 575.6,64.9 575.7,64.9 575.8,64.9 575.9,64.9 576.0,64.9 576.1,64.9 576.2,64.9 576.3,64.9 576.4,64.9 576.5,64.9 576.6,64.9 576.7,64.9 576.8,64.9 576.9,64.9 577.0,64.9 577.1,64.9 577.2,64.9 577.3,64.9 577.4,64.9 577.5,64.9 577.6,64.9 577.7,64.9 577.8,64.9 577.9,64.9 578.0,64.9 578.1,64.9 578.2,64.9 578.3,64.9 578.4,64.9 578.5,64.9 578.6,64.9 578.7,64.9 578.8,64.9 578.9,64.9 579.0,64.9 579.1,64.9 579.2,64.9 579.3,64.9 579.4,64.9 579.5,64.9 579.6,64.9 579.7,64.9 579.8,64.9 579.9,64.9 580.0,64.9 580.2,64.9 580.3,64.9 580.4,64.9 580.5,64.9 580.6,64.9 580.7,64.9 580.8,64.9 580.9,64.9 581.0,64.9 581.1,64.9 581.2,64.9 581.3,64.9 581.4,64.9 581.5,64.9 581.6,64.9 581.7,64.9 581.8,64.9 581.9,64.9 582.0,64.9 582.1,64.9 582.2,64.9 582.3,64.9 582.4,64.9 582.5,64.9 582.6,64.9 582.7,64.9 582.8,64.9 582.9,64.9 583.0,64.9 583.1,64.9 583.2,64.9 583.3,64.9 583.4,64.9 583.5,64.9 583.6,64.9 583.7,64.9 583.8,64.9 583.9,64.9 584.0,64.9 584.1,64.9 584.2,64.9 584.3,64.9 584.4,64.9 584.5,64.9 584.6,64.9 584.7,64.9 584.8,64.9 584.9,64.9 585.0,64.9 585.1,64.9 585.2,64.9 585.3,64.9 585.5,64.9 585.6,64.9 585.7,64.9 585.8,64.9 585.9,64.9 586.0,64.9 586.1,64.9 586.2,64.9 586.3,64.9 586.4,64.9 586.5,64.9 586.6,64.9 586.7,64.9 586.8,64.9 586.9,64.9 587.0,64.9 587.1,64.9 587.2,64.9 587.3,64.9 587.4,64.9 587.5,64.9 587.6,64.9 587.7,64.9 587.8,64.9 587.9,64.9 588.0,64.9 588.1,64.9 588.2,64.9 588.3,64.9 588.4,64.9 588.5,64.9 588.6,64.9 588.7,64.9 588.8,64.9 588.9,64.9 589.0,64.9 589.1,64.9 589.2,64.9 589.3,64.9 589.4,64.9 589.5,64.9 589.6,64.9 589.7,64.9 589.8,64.9 589.9,64.9 590.0,64.9 590.1,64.9 590.2,64.9 590.3,64.9 590.4,64.9 590.5,64.9 590.6,64.9 590.7,64.9 590.9,64.9 591.0,64.9 591.1,64.9 591.2,64.9 591.3,64.9 591.4,64.9 591.5,64.9 591.6,64.9 591.7,64.9 591.8,64.9 591.9,64.9 592.0,64.9 592.1,64.9 592.2,64.9 592.3,64.9 592.4,64.9 592.5,64.9 592.6,64.9 592.7,64.9 592.8,64.9 592.9,64.9 593.0,64.9 593.1,64.9 593.2,64.9 593.3,64.9 593.4,64.9 593.5,64.9 593.6,64.9 593.7,64.9 593.8,64.9 593.9,64.9 594.0,64.9 594.1,64.9 594.2,64.9 594.3,64.9 594.4,64.9 594.5,64.9 594.6,64.9 594.7,64.9 594.8,64.9 594.9,64.9 595.0,64.9 595.1,64.9 595.2,64.9 595.3,64.9 595.4,64.9 595.5,64.9 595.6,64.9 595.7,64.9 595.8,64.9 595.9,64.9 596.0,64.9 596.1,64.9 596.3,64.9 596.4,64.9 596.5,64.9 596.6,64.9 596.7,64.9 596.8,64.9 596.9,64.9 597.0,64.9 597.1,64.9 597.2,64.9 597.3,64.9 597.4,64.9 597.5,64.9 597.6,64.9 597.7,64.9 597.8,64.9 597.9,64.9 598.0,64.9 598.1,64.9 598.2,64.9 598.3,64.9 598.4,64.9 598.5,64.9 598.6,64.9 598.7,64.9 598.8,64.9 598.9,64.9 599.0,64.9 599.1,64.9 599.2,64.9 599.3,64.9 599.4,64.9 599.5,64.9 599.6,64.9 599.7,64.9 599.8,64.9 599.9,64.9 600.0,64.9 600.1,64.9 600.2,64.9 600.3,64.9 600.4,64.9 600.5,64.9 600.6,64.9 600.7,64.9 600.8,64.9 600.9,64.9 601.0,64.9 601.1,64.9 601.2,64.9 601.3,64.9 601.4,64.9 601.5,64.9 601.7,64.9 601.8,64.9 601.9,64.9 602.0,64.9 602.1,64.9 602.2,64.9 602.3,64.9 602.4,64.9 602.5,64.9 602.6,64.9 602.7,64.9 602.8,64.9 602.9,64.9 603.0,64.9 603.1,64.9 603.2,64.9 603.3,64.9 603.4,64.9 603.5,64.9 603.6,64.9 603.7,64.9 603.8,64.9 603.9,64.9 604.0,64.9 604.1,64.9 604.2,64.9 604.3,64.9 604.4,64.9 604.5,64.9 604.6,64.9 604.7,64.9 604.8,64.9 604.9,64.9 605.0,64.9 605.1,64.9 605.2,64.9 605.3,64.9 605.4,64.9 605.5,64.9 605.6,64.9 605.7,64.9 605.8,64.9 605.9,64.9 606.0,64.9 606.1,64.9 606.2,64.9 606.3,64.9 606.4,64.9 606.5,64.9 606.6,64.9 606.7,64.9 606.8,64.9 606.9,64.9 607.1,64.9 607.2,64.9 607.3,64.9 607.4,64.9 607.5,64.9 607.6,64.9 607.7,64.9 607.8,64.9 607.9,64.9 608.0,64.9 608.1,64.9 608.2,64.9 608.3,64.9 608.4,64.9 608.5,64.9 608.6,64.9 608.7,64.9 608.8,64.9 608.9,64.9 609.0,64.9 609.1,64.9 609.2,64.9 609.3,64.9 609.4,64.9 609.5,64.9 609.6,64.9 609.7,64.9 609.8,64.9 609.9,64.9 610.0,64.9 610.1,64.9 610.2,64.9 610.3,64.9 610.4,64.9 610.5,64.9 610.6,64.9 610.7,64.9 610.8,64.9 610.9,64.9 611.0,64.9 611.1,64.9 611.2,64.9 611.3,64.9 611.4,64.9 611.5,64.9 611.6,64.9 611.7,64.9 611.8,64.9 611.9,64.9 612.0,64.9 612.1,64.9 612.2,64.9 612.3,64.9 612.5,64.9 612.6,64.9 612.7,64.9 612.8,64.9 612.9,64.9 613.0,64.9 613.1,64.9 613.2,64.9 613.3,64.9 613.4,64.9 613.5,64.9 613.6,64.9 613.7,64.9 613.8,64.9 613.9,64.9 614.0,64.9 614.1,64.9 614.2,64.9 614.3,64.9 614.4,64.9 614.5,64.9 614.6,64.9 614.7,64.9 614.8,64.9 614.9,64.9 615.0,64.9 615.1,64.9 615.2,64.9 615.3,64.9 615.4,64.9 615.5,64.9 615.6,64.9 615.7,64.9 615.8,64.9 615.9,64.9 616.0,64.9 616.1,64.9 616.2,64.9 616.3,64.9 616.4,64.9 616.5,64.9 616.6,64.9 616.7,64.9 616.8,64.9 616.9,64.9 617.0,64.9 617.1,64.9 617.2,64.9 617.3,64.9 617.4,64.9 617.5,64.9 617.6,64.9 617.7,64.9 617.9,64.9 618.0,64.9 618.1,64.9 618.2,64.9 618.3,64.9 618.4,64.9 618.5,64.9 618.6,64.9 618.7,64.9 618.8,64.9 618.9,64.9 619.0,64.9 619.1,64.9 619.2,64.9 619.3,64.9 619.4,64.9 619.5,64.9 619.6,64.9 619.7,64.9 619.8,64.9 619.9,64.9 620.0,64.9 620.1,64.9 620.2,64.9 620.3,64.9 620.4,64.9 620.5,64.9 620.6,64.9 620.7,64.9 620.8,64.9 620.9,64.9 621.0,64.9 621.1,64.9 621.2,64.9 621.3,64.9 621.4,64.9 621.5,64.9 621.6,64.9 621.7,64.9 621.8,64.9 621.9,64.9 622.0,64.9 622.1,64.9 622.2,64.9 622.3,64.9 622.4,64.9 622.5,64.9 622.6,64.9 622.7,64.9 622.8,64.9 622.9,64.9 623.0,64.9 623.1,64.9 623.3,64.9 623.4,64.9 623.5,64.9 623.6,64.9 623.7,64.9 623.8,64.9 623.9,64.9 624.0,64.9 624.1,64.9 624.2,64.9 624.3,64.9 624.4,64.9 624.5,64.9 624.6,64.9 624.7,64.9 624.8,64.9 624.9,64.9 625.0,64.9 625.1,64.9 625.2,64.9 625.3,64.9 625.4,64.9 625.5,64.9 625.6,64.9 625.7,64.9 625.8,64.9 625.9,64.9 626.0,64.9 626.1,64.9 626.2,64.9 626.3,64.9 626.4,64.9 626.5,64.9 626.6,64.9 626.7,64.9 626.8,64.9 626.9,64.9 627.0,64.9 627.1,64.9 627.2,64.9 627.3,64.9 627.4,64.9 627.5,64.9 627.6,64.9 627.7,64.9 627.8,64.9 627.9,64.9 628.0,64.9 628.1,64.9 628.2,64.9 628.3,64.9 628.4,64.9 628.5,64.9 628.7,64.9 628.8,64.9 628.9,64.9 629.0,64.9 629.1,64.9 629.2,64.9 629.3,64.9 629.4,64.9 629.5,64.9 629.6,64.9 629.7,64.9 629.8,64.9 629.9,64.9 630.0,64.9 630.1,64.9 630.2,64.9 630.3,64.9 630.4,64.9 630.5,64.9 630.6,64.9 630.7,64.9 630.8,64.9 630.9,64.9 631.0,64.9 631.1,64.9 631.2,64.9 631.3,64.9 631.4,64.9 631.5,64.9 631.6,64.9 631.7,64.9 631.8,64.9 631.9,64.9 632.0,64.9 632.1,64.9 632.2,64.9 632.3,64.9 632.4,64.9 632.5,64.9 632.6,64.9 632.7,64.9 632.8,64.9 632.9,64.9 633.0,64.9 633.1,64.9 633.2,64.9 633.3,64.9 633.4,64.9 633.5,64.9 633.6,64.9 633.7,64.9 633.8,64.9 633.9,64.9 634.1,64.9 634.2,64.9 634.3,64.9 634.4,64.9 634.5,64.9 634.6,64.9 634.7,64.9 634.8,64.9 634.9,64.9 635.0,64.9 635.1,64.9 635.2,64.9 635.3,64.9 635.4,64.9 635.5,64.9 635.6,64.9 635.7,64.9 635.8,64.9 635.9,64.9 636.0,64.9 636.1,64.9 636.2,64.9 636.3,64.9 636.4,64.9 636.5,64.9 636.6,64.9 636.7,64.9 636.8,64.9 636.9,64.9 637.0,64.9 637.1,64.9 637.2,64.9 637.3,64.9 637.4,64.9 637.5,64.9 637.6,64.9 637.7,64.9 637.8,64.9 637.9,64.9 638.0,64.9 638.1,64.9 638.2,64.9 638.3,64.9 638.4,64.9 638.5,64.9 638.6,64.9 638.7,64.9 638.8,64.9 638.9,64.9 639.0,64.9 639.1,64.9 639.2,64.9 639.3,64.9 639.5,64.9 639.6,64.9 639.7,64.9 639.8,64.9 639.9,64.9 640.0,64.9 640.1,64.9 640.2,64.9 640.3,64.9 640.4,64.9 640.5,64.9 640.6,64.9 640.7,64.9 640.8,64.9 640.9,64.9 641.0,64.9 641.1,64.9 641.2,64.9 641.3,64.9 641.4,64.9 641.5,64.9 641.6,64.9 641.7,64.9 641.8,64.9 641.9,64.9 642.0,64.9 642.1,64.9 642.2,64.9 642.3,64.9 642.4,64.9 642.5,64.9 642.6,64.9 642.7,64.9 642.8,64.9 642.9,64.9 643.0,64.9 643.1,64.9 643.2,64.9 643.3,64.9 643.4,64.9 643.5,64.9 643.6,64.9 643.7,64.9 643.8,64.9 643.9,64.9 644.0,64.9 644.1,64.9 644.2,64.9 644.3,64.9 644.4,64.9 644.5,64.9 644.6,64.9 644.7,64.9 644.9,64.9 645.0,64.9 645.1,64.9 645.2,64.9 645.3,64.9 645.4,64.9 645.5,64.9 645.6,64.9 645.7,64.9 645.8,64.9 645.9,64.9 646.0,64.9 646.1,64.9 646.2,64.9 646.3,64.9 646.4,64.9 646.5,64.9 646.6,64.9 646.7,64.9 646.8,64.9 646.9,64.9 647.0,64.9 647.1,64.9 647.2,64.9 647.3,64.9 647.4,64.9 647.5,64.9 647.6,64.9 647.7,64.9 647.8,64.9 647.9,64.9 648.0,64.9 648.1,64.9 648.2,64.9 648.3,64.9 648.4,64.9 648.5,64.9 648.6,64.9 648.7,64.9 648.8,64.9 648.9,64.9 649.0,64.9 649.1,64.9 649.2,64.9 649.3,64.9 649.4,64.9 649.5,64.9 649.6,64.9 649.7,64.9 649.8,64.9 649.9,64.9 650.0,64.9 650.1,64.9 650.3,64.9 650.4,64.9 650.5,64.9 650.6,64.9 650.7,64.9 650.8,64.9 650.9,64.9 651.0,64.9 651.1,64.9 651.2,64.9 651.3,64.9 651.4,64.9 651.5,64.9 651.6,64.9 651.7,64.9 651.8,64.9 651.9,64.9 652.0,64.9 652.1,64.9 652.2,64.9 652.3,64.9 652.4,64.9 652.5,64.9 652.6,64.9 652.7,64.9 652.8,64.9 652.9,64.9 653.0,64.9 653.1,64.9 653.2,64.9 653.3,64.9 653.4,64.9 653.5,64.9 653.6,64.9 653.7,64.9 653.8,64.9 653.9,64.9 654.0,64.9 654.1,64.9 654.2,64.9 654.3,64.9 654.4,64.9 654.5,64.9 654.6,64.9 654.7,64.9 654.8,64.9 654.9,64.9 655.0,64.9 655.1,64.9 655.2,64.9 655.3,64.9 655.4,64.9 655.5,64.9 655.7,64.9 655.8,64.9 655.9,64.9 656.0,64.9 656.1,64.9 656.2,64.9 656.3,64.9 656.4,64.9 656.5,64.9 656.6,64.9 656.7,64.9 656.8,64.9 656.9,64.9 657.0,64.9 657.1,64.9 657.2,64.9 657.3,64.9 657.4,64.9 657.5,64.9 657.6,64.9 657.7,64.9 657.8,64.9 657.9,64.9 658.0,64.9 658.1,64.9 658.2,64.9 658.3,64.9 658.4,64.9 658.5,64.9 658.6,64.9 658.7,64.9 658.8,64.9 658.9,64.9 659.0,64.9 659.1,64.9 659.2,64.9 659.3,64.9 659.4,64.9 659.5,64.9 659.6,64.9 659.7,64.9 659.8,64.9 659.9,64.9 660.0,64.9 660.1,64.9 660.2,64.9 660.3,64.9 660.4,64.9 660.5,64.9 660.6,64.9 660.7,64.9 660.8,64.9 660.9,64.9 661.1,64.9 661.2,64.9 661.3,64.9 661.4,64.9 661.5,64.9 661.6,64.9 661.7,64.9 661.8,64.9 661.9,64.9 662.0,64.9 662.1,64.9 662.2,64.9 662.3,64.9 662.4,64.9 662.5,64.9 662.6,64.9 662.7,64.9 662.8,64.9 662.9,64.9 663.0,64.9 663.1,64.9 663.2,64.9 663.3,64.9 663.4,64.9 663.5,64.9 663.6,64.9 663.7,64.9 663.8,64.9 663.9,64.9 664.0,64.9 664.1,64.9 664.2,64.9 664.3,64.9 664.4,64.9 664.5,64.9 664.6,64.9 664.7,64.9 664.8,64.9 664.9,64.9 665.0,64.9 665.1,64.9 665.2,64.9 665.3,64.9 665.4,64.9 665.5,64.9 665.6,64.9 665.7,64.9 665.8,64.9 665.9,64.9 666.0,64.9 666.1,64.9 666.2,64.9 666.3,64.9 666.5,64.9 666.6,64.9 666.7,64.9 666.8,64.9 666.9,64.9 667.0,64.9 667.1,64.9 667.2,64.9 667.3,64.9 667.4,64.9 667.5,64.9 667.6,64.9 667.7,64.9 667.8,64.9 667.9,64.9 668.0,64.9 668.1,64.9 668.2,64.9 668.3,64.9 668.4,64.9 668.5,64.9 668.6,64.9 668.7,64.9 668.8,64.9 668.9,64.9 669.0,64.9 669.1,64.9 669.2,64.9 669.3,64.9 669.4,64.9 669.5,64.9 669.6,64.9 669.7,64.9 669.8,64.9 669.9,64.9 670.0,64.9 670.1,64.9 670.2,64.9 670.3,64.9 670.4,64.9 670.5,64.9 670.6,64.9 670.7,64.9 670.8,64.9 670.9,64.9 671.0,64.9 671.1,64.9 671.2,64.9 671.3,64.9 671.4,64.9 671.5,64.9 671.6,64.9 671.7,64.9 671.9,64.9 672.0,64.9 672.1,64.9 672.2,64.9 672.3,64.9 672.4,64.9 672.5,64.9 672.6,64.9 672.7,64.9 672.8,64.9 672.9,64.9 673.0,64.9 673.1,64.9 673.2,64.9 673.3,64.9 673.4,64.9 673.5,64.9 673.6,64.9 673.7,64.9 673.8,64.9 673.9,64.9 674.0,64.9 674.1,64.9 674.2,64.9 674.3,64.9 674.4,64.9 674.5,64.9 674.6,64.9 674.7,64.9 674.8,64.9 674.9,64.9 675.0,64.9 675.1,64.9 675.2,64.9 675.3,64.9 675.4,64.9 675.5,64.9 675.6,64.9 675.7,64.9 675.8,64.9 675.9,64.9 676.0,64.9 676.1,64.9 676.2,64.9 676.3,64.9 676.4,64.9 676.5,64.9 676.6,64.9 676.7,64.9 676.8,64.9 676.9,64.9 677.0,64.9 677.1,64.9 677.3,64.9 677.4,64.9 677.5,64.9 677.6,64.9 677.7,64.9 677.8,64.9 677.9,64.9 678.0,64.9 678.1,64.9 678.2,64.9 678.3,64.9 678.4,64.9 678.5,64.9 678.6,64.9 678.7,64.9 678.8,64.9 678.9,64.9 679.0,64.9 679.1,64.9 679.2,64.9 679.3,64.9 679.4,64.9 679.5,64.9 679.6,64.9 679.7,64.9 679.8,64.9 679.9,64.9 680.0,64.9 680.1,64.9 680.2,64.9 680.3,64.9 680.4,64.9 680.5,64.9 680.6,64.9 680.7,64.9 680.8,64.9 680.9,64.9 681.0,64.9 681.1,64.9 681.2,64.9 681.3,64.9 681.4,64.9 681.5,64.9 681.6,64.9 681.7,64.9 681.8,64.9 681.9,64.9 682.0,64.9 682.1,64.9 682.2,64.9 682.3,64.9 682.4,64.9 682.5,64.9 682.7,64.9 682.8,64.9 682.9,64.9 683.0,64.9 683.1,64.9 683.2,64.9 683.3,64.9 683.4,64.9 683.5,64.9 683.6,64.9 683.7,64.9 683.8,64.9 683.9,64.9 684.0,64.9 684.1,64.9 684.2,64.9 684.3,64.9 684.4,64.9 684.5,64.9 684.6,64.9 684.7,64.9 684.8,64.9 684.9,64.9 685.0,64.9 685.1,64.9 685.2,64.9 685.3,64.9 685.4,64.9 685.5,64.9 685.6,64.9 685.7,64.9 685.8,64.9 685.9,64.9 686.0,64.9 686.1,64.9 686.2,64.9 686.3,64.9 686.4,64.9 686.5,64.9 686.6,64.9 686.7,64.9 686.8,64.9 686.9,64.9 687.0,64.9 687.1,64.9 687.2,64.9 687.3,64.9 687.4,64.9 687.5,64.9 687.6,64.9 687.7,64.9 687.8,64.9 687.9,64.9 688.1,64.9 688.2,64.9 688.3,64.9 688.4,64.9 688.5,64.9 688.6,64.9 688.7,64.9 688.8,64.9 688.9,64.9 689.0,64.9 689.1,64.9 689.2,64.9 689.3,64.9 689.4,64.9 689.5,64.9 689.6,64.9 689.7,64.9 689.8,64.9 689.9,64.9 690.0,64.9 690.1,64.9 690.2,64.9 690.3,64.9 690.4,64.9 690.5,64.9 690.6,64.9 690.7,64.9 690.8,64.9 690.9,64.9 691.0,64.9 691.1,64.9 691.2,64.9 691.3,64.9 691.4,64.9 691.5,64.9 691.6,64.9 691.7,64.9 691.8,64.9 691.9,64.9 692.0,64.9 692.1,64.9 692.2,64.9 692.3,64.9 692.4,64.9 692.5,64.9 692.6,64.9 692.7,64.9 692.8,64.9 692.9,64.9 693.0,64.9 693.1,64.9 693.2,64.9 693.3,64.9 693.5,64.9 693.6,64.9 693.7,64.9 693.8,64.9 693.9,64.9 694.0,64.9 694.1,64.9 694.2,64.9 694.3,64.9 694.4,64.9 694.5,64.9 694.6,64.9 694.7,64.9 694.8,64.9 694.9,64.9 695.0,64.9 695.1,64.9 695.2,64.9 695.3,64.9 695.4,64.9 695.5,64.9 695.6,64.9 695.7,64.9 695.8,64.9 695.9,64.9 696.0,64.9 696.1,64.9 696.2,64.9 696.3,64.9 696.4,64.9 696.5,64.9 696.6,64.9 696.7,64.9 696.8,64.9 696.9,64.9 697.0,64.9 697.1,64.9 697.2,64.9 697.3,64.9 697.4,64.9 697.5,64.9 697.6,64.9 697.7,64.9 697.8,64.9 697.9,64.9 698.0,64.9 698.1,64.9 698.2,64.9 698.3,64.9 698.4,64.9 698.5,64.9 698.6,64.9 698.7,64.9 698.9,64.9 699.0,64.9 699.1,64.9 699.2,64.9 699.3,64.9 699.4,64.9 699.5,64.9 699.6,64.9 699.7,64.9 699.8,64.9 699.9,64.9 700.0,64.9 700.1,64.9 700.2,64.9 700.3,64.9 700.4,64.9 700.5,64.9 700.6,64.9 700.7,64.9 700.8,64.9 700.9,64.9 701.0,64.9 701.1,64.9 701.2,64.9 701.3,64.9 701.4,64.9 701.5,64.9 701.6,64.9 701.7,64.9 701.8,64.9 701.9,64.9 702.0,64.9 702.1,64.9 702.2,64.9 702.3,64.9 702.4,64.9 702.5,64.9 702.6,64.9 702.7,64.9 702.8,64.9 702.9,64.9 703.0,64.9 703.1,64.9 703.2,64.9 703.3,64.9 703.4,64.9 703.5,64.9 703.6,64.9 703.7,64.9 703.8,64.9 703.9,64.9 704.0,64.9 704.1,64.9 704.3,64.9 704.4,64.9 704.5,64.9 704.6,64.9 704.7,64.9 704.8,64.9 704.9,64.9 705.0,64.9 705.1,64.9 705.2,64.9 705.3,64.9 705.4,64.9 705.5,64.9 705.6,64.9 705.7,64.9 705.8,64.9 705.9,64.9 706.0,64.9 706.1,64.9 706.2,64.9 706.3,64.9 706.4,64.9 706.5,64.9 706.6,64.9 706.7,64.9 706.8,64.9 706.9,64.9 707.0,64.9 707.1,64.9 707.2,64.9 707.3,64.9 707.4,64.9 707.5,64.9 707.6,64.9 707.7,64.9 707.8,64.9 707.9,64.9 708.0,64.9 708.1,64.9 708.2,64.9 708.3,64.9 708.4,64.9 708.5,64.9 708.6,64.9 708.7,64.9 708.8,64.9 708.9,64.9 709.0,64.9 709.1,64.9 709.2,64.9 709.3,64.9 709.4,64.9 709.5,64.9 709.7,64.9 709.8,64.9 709.9,64.9 710.0,64.9 710.1,64.9 710.2,64.9 710.3,64.9 710.4,64.9 710.5,64.9 710.6,64.9 710.7,64.9 710.8,64.9 710.9,64.9 711.0,64.9 711.1,64.9 711.2,64.9 711.3,64.9 711.4,64.9 711.5,64.9 711.6,64.9 711.7,64.9 711.8,64.9 711.9,64.9 712.0,64.9 712.1,64.9 712.2,64.9 712.3,64.9 712.4,64.9 712.5,64.9 712.6,64.9 712.7,64.9 712.8,64.9 712.9,64.9 713.0,64.9 713.1,64.9 713.2,64.9 713.3,64.9 713.4,64.9 713.5,64.9 713.6,64.9 713.7,64.9 713.8,64.9 713.9,64.9 714.0,64.9 714.1,64.9 714.2,64.9 714.3,64.9 714.4,64.9 714.5,64.9 714.6,64.9 714.7,64.9 714.8,64.9 714.9,64.9 715.1,64.9 715.2,64.9 715.3,64.9 715.4,64.9 715.5,64.9 715.6,64.9 715.7,64.9 715.8,64.9 715.9,64.9 716.0,64.9 716.1,64.9 716.2,64.9 716.3,64.9 716.4,64.9 716.5,64.9 716.6,64.9 716.7,64.9 716.8,64.9 716.9,64.9 717.0,64.9 717.1,64.9 717.2,64.9 717.3,64.9 717.4,64.9 717.5,64.9 717.6,64.9 717.7,64.9 717.8,64.9 717.9,64.9 718.0,64.9 718.1,64.9 718.2,64.9 718.3,64.9 718.4,64.9 718.5,64.9 718.6,64.9 718.7,64.9 718.8,64.9 718.9,64.9 719.0,64.9 719.1,64.9 719.2,64.9 719.3,64.9 719.4,64.9 719.5,64.9 719.6,64.9 719.7,64.9 719.8,64.9 719.9,64.9 720.0,64.9 720.1,64.9 720.2,64.9 720.3,64.9 720.5,64.9 720.6,64.9 720.7,64.9 720.8,64.9 720.9,64.9 721.0,64.9 721.1,64.9 721.2,64.9 721.3,64.9 721.4,64.9 721.5,64.9 721.6,64.9 721.7,64.9 721.8,64.9 721.9,64.9 722.0,64.9 722.1,64.9 722.2,64.9 722.3,64.9 722.4,64.9 722.5,64.9 722.6,64.9 722.7,64.9 722.8,64.9 722.9,64.9 723.0,64.9 723.1,64.9 723.2,64.9 723.3,64.9 723.4,64.9 723.5,64.9 723.6,64.9 723.7,64.9 723.8,64.9 723.9,64.9 724.0,64.9 724.1,64.9 724.2,64.9 724.3,64.9 724.4,64.9 724.5,64.9 724.6,64.9 724.7,64.9 724.8,64.9 724.9,64.9 725.0,64.9 725.1,64.9 725.2,64.9 725.3,64.9 725.4,64.9 725.5,64.9 725.6,64.9 725.7,64.9 725.9,64.9 726.0,64.9 726.1,64.9 726.2,64.9 726.3,64.9 726.4,64.9 726.5,64.9 726.6,64.9 726.7,64.9 726.8,64.9 726.9,64.9 727.0,64.9 727.1,64.9 727.2,64.9 727.3,64.9 727.4,64.9 727.5,64.9 727.6,64.9 727.7,64.9 727.8,64.9 727.9,64.9 728.0,64.9 728.1,64.9 728.2,64.9 728.3,64.9 728.4,64.9 728.5,64.9 728.6,64.9 728.7,64.9 728.8,64.9 728.9,64.9 729.0,64.9 729.1,64.9 729.2,64.9 729.3,64.9 729.4,64.9 729.5,64.9 729.6,64.9 729.7,64.9 729.8,64.9 729.9,64.9 730.0,64.9 730.1,64.9 730.2,64.9 730.3,64.9 730.4,64.9 730.5,64.9 730.6,64.9 730.7,64.9 730.8,64.9 730.9,64.9 731.0,64.9 731.1,64.9 731.3,64.9 731.4,64.9 731.5,64.9 731.6,64.9 731.7,64.9 731.8,64.9 731.9,64.9 732.0,64.9 732.1,64.9 732.2,64.9 732.3,64.9 732.4,64.9 732.5,64.9 732.6,64.9 732.7,64.9 732.8,64.9 732.9,64.9 733.0,64.9 733.1,64.9 733.2,64.9 733.3,64.9 733.4,64.9 733.5,64.9 733.6,64.9 733.7,64.9 733.8,64.9 733.9,64.9 734.0,64.9 734.1,64.9 734.2,64.9 734.3,64.9 734.4,64.9 734.5,64.9 734.6,64.9 734.7,64.9 734.8,64.9 734.9,64.9 735.0,64.9 735.1,64.9 735.2,64.9 735.3,64.9 735.4,64.9 735.5,64.9 735.6,64.9 735.7,64.9 735.8,64.9 735.9,64.9 736.0,64.9 736.1,64.9 736.2,64.9 736.3,64.9 736.4,64.9 736.5,64.9 736.7,64.9 736.8,64.9 736.9,64.9 737.0,64.9 737.1,64.9 737.2,64.9 737.3,64.9 737.4,64.9 737.5,64.9 737.6,64.9 737.7,64.9 737.8,64.9 737.9,64.9 738.0,64.9 738.1,64.9 738.2,64.9 738.3,64.9 738.4,64.9 738.5,64.9 738.6,64.9 738.7,64.9 738.8,64.9 738.9,64.9 739.0,64.9 739.1,64.9 739.2,64.9 739.3,64.9 739.4,64.9 739.5,64.9 739.6,64.9 739.7,64.9 739.8,64.9 739.9,64.9 740.0,64.9 740.1,64.9 740.2,64.9 740.3,64.9 740.4,64.9 740.5,64.9 740.6,64.9 740.7,64.9 740.8,64.9 740.9,64.9 741.0,64.9 741.1,64.9 741.2,64.9 741.3,64.9 741.4,64.9 741.5,64.9 741.6,64.9 741.7,64.9 741.8,64.9 741.9,64.9 742.1,64.9 742.2,64.9 742.3,64.9 742.4,64.9 742.5,64.9 742.6,64.9 742.7,64.9 742.8,64.9 742.9,64.9 743.0,64.9 743.1,64.9 743.2,64.9 743.3,64.9 743.4,64.9 743.5,64.9 743.6,64.9 743.7,64.9 743.8,64.9 743.9,64.9 744.0,64.9 744.1,64.9 744.2,64.9 744.3,64.9 744.4,64.9 744.5,64.9 744.6,64.9 744.7,64.9 744.8,64.9 744.9,64.9 745.0,64.9 745.1,64.9 745.2,64.9 745.3,64.9 745.4,64.9 745.5,64.9 745.6,64.9 745.7,64.9 745.8,64.9 745.9,64.9 746.0,64.9 746.1,64.9 746.2,64.9 746.3,64.9 746.4,64.9 746.5,64.9 746.6,64.9 746.7,64.9 746.8,64.9 746.9,64.9 747.0,64.9 747.1,64.9 747.2,64.9 747.3,64.9 747.5,64.9 747.6,64.9 747.7,64.9 747.8,64.9 747.9,64.9 748.0,64.9 748.1,64.9 748.2,64.9 748.3,64.9 748.4,64.9 748.5,64.9 748.6,64.9 748.7,64.9 748.8,64.9 748.9,64.9 749.0,64.9 749.1,64.9 749.2,64.9 749.3,64.9 749.4,64.9 749.5,64.9 749.6,64.9 749.7,64.9 749.8,64.9 749.9,64.9 750.0,64.9 750.1,64.9 750.2,64.9 750.3,64.9 750.4,64.9 750.5,64.9 750.6,64.9 750.7,64.9 750.8,64.9 750.9,64.9 751.0,64.9 751.1,64.9 751.2,64.9 751.3,64.9 751.4,64.9 751.5,64.9 751.6,64.9 751.7,64.9 751.8,64.9 751.9,64.9 752.0,64.9 752.1,64.9 752.2,64.9 752.3,64.9 752.4,64.9 752.5,64.9 752.6,64.9 752.7,64.9 752.9,64.9 753.0,64.9 753.1,64.9 753.2,64.9 753.3,64.9 753.4,64.9 753.5,64.9 753.6,64.9 753.7,64.9 753.8,64.9 753.9,64.9 754.0,64.9 754.1,64.9 754.2,64.9 754.3,64.9 754.4,64.9 754.5,64.9 754.6,64.9 754.7,64.9 754.8,64.9 754.9,64.9 755.0,64.9 755.1,64.9 755.2,64.9 755.3,64.9 755.4,64.9 755.5,64.9 755.6,64.9 755.7,64.9 755.8,64.9 755.9,64.9 756.0,64.9 756.1,64.9 756.2,64.9 756.3,64.9 756.4,64.9 756.5,64.9 756.6,64.9 756.7,64.9 756.8,64.9 756.9,64.9 757.0,64.9 757.1,64.9 757.2,64.9 757.3,64.9 757.4,64.9 757.5,64.9 757.6,64.9 757.7,64.9 757.8,64.9 757.9,64.9 758.0,64.9 758.1,64.9 758.3,64.9 758.4,64.9 758.5,64.9 758.6,64.9 758.7,64.9 758.8,64.9 758.9,64.9 759.0,64.9 759.1,64.9 759.2,64.9 759.3,64.9 759.4,64.9 759.5,64.9 759.6,64.9 759.7,64.9 759.8,64.9 759.9,64.9 760.0,64.9 760.1,64.9 760.2,64.9 760.3,64.9 760.4,64.9 760.5,64.9 760.6,64.9 760.7,64.9 760.8,64.9 760.9,64.9 761.0,64.9 761.1,64.9 761.2,64.9 761.3,64.9 761.4,64.9 761.5,64.9 761.6,64.9 761.7,64.9 761.8,64.9 761.9,64.9 762.0,64.9 762.1,64.9 762.2,64.9 762.3,64.9 762.4,64.9 762.5,64.9 762.6,64.9 762.7,64.9 762.8,64.9 762.9,64.9 763.0,64.9 763.1,64.9 763.2,64.9 763.3,64.9 763.4,64.9 763.5,64.9 763.7,64.9 763.8,64.9 763.9,64.9 764.0,64.9 764.1,64.9 764.2,64.9 764.3,64.9 764.4,64.9 764.5,64.9 764.6,64.9 764.7,64.9 764.8,64.9 764.9,64.9 765.0,64.9 765.1,64.9 765.2,64.9 765.3,64.9 765.4,64.9 765.5,64.9 765.6,64.9 765.7,64.9 765.8,64.9 765.9,64.9 766.0,64.9 766.1,64.9 766.2,64.9 766.3,64.9 766.4,64.9 766.5,64.9 766.6,64.9 766.7,64.9 766.8,64.9 766.9,64.9 767.0,64.9 767.1,64.9 767.2,64.9 767.3,64.9 767.4,64.9 767.5,64.9 767.6,64.9 767.7,64.9 767.8,64.9 767.9,64.9 768.0,64.9 768.1,64.9 768.2,64.9 768.3,64.9 768.4,64.9 768.5,64.9 768.6,64.9 768.7,64.9 768.8,64.9 768.9,64.9 769.1,64.9 769.2,64.9 769.3,64.9 769.4,64.9 769.5,64.9 769.6,64.9 769.7,64.9 769.8,64.9 769.9,64.9 770.0,64.9 770.1,64.9 770.2,64.9 770.3,64.9 770.4,64.9 770.5,64.9 770.6,64.9 770.7,64.9 770.8,64.9 770.9,64.9 771.0,64.9 771.1,64.9 771.2,64.9 771.3,64.9 771.4,64.9 771.5,64.9 771.6,64.9 771.7,64.9 771.8,64.9 771.9,64.9 772.0,64.9 772.1,64.9 772.2,64.9 772.3,64.9 772.4,64.9 772.5,64.9 772.6,64.9 772.7,64.9 772.8,64.9 772.9,64.9 773.0,64.9 773.1,64.9 773.2,64.9 773.3,64.9 773.4,64.9 773.5,64.9 773.6,64.9 773.7,64.9 773.8,64.9 773.9,64.9 774.0,64.9 774.1,64.9 774.2,64.9 774.3,64.9 774.5,64.9 774.6,64.9 774.7,64.9 774.8,64.9 774.9,64.9 775.0,64.9 775.1,64.9 775.2,64.9 775.3,64.9 775.4,64.9 775.5,64.9 775.6,64.9 775.7,64.9 775.8,64.9 775.9,64.9 776.0,64.9 776.1,64.9 776.2,64.9 776.3,64.9 776.4,64.9 776.5,64.9 776.6,64.9 776.7,64.9 776.8,64.9 776.9,64.9 777.0,64.9 777.1,64.9 777.2,64.9 777.3,64.9 777.4,64.9 777.5,64.9 777.6,64.9 777.7,64.9 777.8,64.9 777.9,64.9 778.0,64.9 778.1,64.9 778.2,64.9 778.3,64.9 778.4,64.9 778.5,64.9 778.6,64.9 778.7,64.9 778.8,64.9 778.9,64.9 779.0,64.9 779.1,64.9 779.2,64.9 779.3,64.9 779.4,64.9 779.5,64.9 779.6,64.9 779.7,64.9 779.9,64.9 780.0,64.9 780.1,64.9 780.2,64.9 780.3,64.9 780.4,64.9 780.5,64.9 780.6,64.9 780.7,64.9 780.8,64.9 780.9,64.9 781.0,64.9 781.1,64.9 781.2,64.9 781.3,64.9 781.4,64.9 781.5,64.9 781.6,64.9 781.7,64.9 781.8,64.9 781.9,64.9 782.0,64.9 782.1,64.9 782.2,64.9 782.3,64.9 782.4,64.9 782.5,64.9 782.6,64.9 782.7,64.9 782.8,64.9 782.9,64.9 783.0,64.9 783.1,64.9 783.2,64.9 783.3,64.9 783.4,64.9 783.5,64.9 783.6,64.9 783.7,64.9 783.8,64.9 783.9,64.9 784.0,64.9 784.1,64.9 784.2,64.9 784.3,64.9 784.4,64.9 784.5,64.9 784.6,64.9 784.7,64.9 784.8,64.9 784.9,64.9 785.0,64.9 785.2,64.9 785.3,64.9 785.4,64.9 785.5,64.9 785.6,64.9 785.7,64.9 785.8,64.9 785.9,64.9 786.0,64.9 786.1,64.9 786.2,64.9 786.3,64.9 786.4,64.9 786.5,64.9 786.6,64.9 786.7,64.9 786.8,64.9 786.9,64.9 787.0,64.9 787.1,64.9 787.2,64.9 787.3,64.9 787.4,64.9 787.5,64.9 787.6,64.9 787.7,64.9 787.8,64.9 787.9,64.9 788.0,64.9 788.1,64.9 788.2,64.9 788.3,64.9 788.4,64.9 788.5,64.9 788.6,64.9 788.7,64.9 788.8,64.9 788.9,64.9 789.0,64.9 789.1,64.9 789.2,64.9 789.3,64.9 789.4,64.9 789.5,64.9 789.6,64.9 789.7,64.9 789.8,64.9 789.9,64.9 790.0,64.9 790.1,64.9 790.2,64.9 790.3,64.9 790.4,64.9 790.6,64.9 790.7,64.9 790.8,64.9 790.9,64.9 791.0,64.9 791.1,64.9 791.2,64.9 791.3,64.9 791.4,64.9 791.5,64.9 791.6,64.9 791.7,64.9 791.8,64.9 791.9,64.9 792.0,64.9 792.1,64.9 792.2,64.9 792.3,64.9 792.4,64.9 792.5,64.9 792.6,64.9 792.7,64.9 792.8,64.9 792.9,64.9 793.0,64.9 793.1,64.9 793.2,64.9 793.3,64.9 793.4,64.9 793.5,64.9 793.6,64.9 793.7,64.9 793.8,64.9 793.9,64.9 794.0,64.9 794.1,64.9 794.2,64.9 794.3,64.9 794.4,64.9 794.5,64.9 794.6,64.9 794.7,64.9 794.8,64.9 794.9,64.9 795.0,64.9 795.1,64.9 795.2,64.9 795.3,64.9 795.4,64.9 795.5,64.9 795.6,64.9 795.7,64.9 795.8,64.9 796.0,64.9 796.1,64.9 796.2,64.9 796.3,64.9 796.4,64.9 796.5,64.9 796.6,64.9 796.7,64.9 796.8,64.9 796.9,64.9 797.0,64.9 797.1,64.9 797.2,64.9 797.3,64.9 797.4,64.9 797.5,64.9 797.6,64.9 797.7,64.9 797.8,64.9 797.9,64.9 798.0,64.9 798.1,64.9 798.2,64.9 798.3,64.9 798.4,64.9 798.5,64.9 798.6,64.9 798.7,64.9 798.8,64.9 798.9,64.9 799.0,64.9 799.1,64.9 799.2,64.9 799.3,64.9 799.4,64.9 799.5,64.9 799.6,64.9 799.7,64.9 799.8,64.9 799.9,64.9 800.0,64.9 800.1,64.9 800.2,64.9 800.3,64.9 800.4,64.9 800.5,64.9 800.6,64.9 800.7,64.9 800.8,64.9 800.9,64.9 801.0,64.9 801.1,64.9 801.2,64.9 801.4,64.9 801.5,64.9 801.6,64.9 801.7,64.9 801.8,64.9 801.9,64.9 802.0,64.9 802.1,64.9 802.2,64.9 802.3,64.9 802.4,64.9 802.5,64.9 802.6,64.9 802.7,64.9 802.8,64.9 802.9,64.9 803.0,64.9 803.1,64.9 803.2,64.9 803.3,64.9 803.4,64.9 803.5,64.9 803.6,64.9 803.7,64.9 803.8,64.9 803.9,64.9 804.0,64.9 804.1,64.9 804.2,64.9 804.3,64.9 804.4,64.9 804.5,64.9 804.6,64.9 804.7,64.9 804.8,64.9 804.9,64.9 805.0,64.9 805.1,64.9 805.2,64.9 805.3,64.9 805.4,64.9 805.5,64.9 805.6,64.9 805.7,64.9 805.8,64.9 805.9,64.9 806.0,64.9 806.1,64.9 806.2,64.9 806.3,64.9 806.4,64.9 806.5,64.9 806.6,64.9 806.8,64.9 806.9,64.9 807.0,64.9 807.1,64.9 807.2,64.9 807.3,64.9 807.4,64.9 807.5,64.9 807.6,64.9 807.7,64.9 807.8,64.9 807.9,64.9 808.0,64.9 808.1,64.9 808.2,64.9 808.3,64.9 808.4,64.9 808.5,64.9 808.6,64.9 808.7,64.9 808.8,64.9 808.9,64.9 809.0,64.9 809.1,64.9 809.2,64.9 809.3,64.9 809.4,64.9 809.5,64.9 809.6,64.9 809.7,64.9 809.8,64.9 809.9,64.9 810.0,64.9 810.1,64.9 810.2,64.9 810.3,64.9 810.4,64.9 810.5,64.9 810.6,64.9 810.7,64.9 810.8,64.9 810.9,64.9 811.0,64.9 811.1,64.9 811.2,64.9 811.3,64.9 811.4,64.9 811.5,64.9 811.6,64.9 811.7,64.9 811.8,64.9 811.9,64.9 812.0,64.9 812.2,64.9 812.3,64.9 812.4,64.9 812.5,64.9 812.6,64.9 812.7,64.9 812.8,64.9 812.9,64.9 813.0,64.9 813.1,64.9 813.2,64.9 813.3,64.9 813.4,64.9 813.5,64.9 813.6,64.9 813.7,64.9 813.8,64.9 813.9,64.9 814.0,64.9 814.1,64.9 814.2,64.9 814.3,64.9 814.4,64.9 814.5,64.9 814.6,64.9 814.7,64.9 814.8,64.9 814.9,64.9 815.0,64.9 815.1,64.9 815.2,64.9 815.3,64.9 815.4,64.9 815.5,64.9 815.6,64.9 815.7,64.9 815.8,64.9 815.9,64.9 816.0,64.9 816.1,64.9 816.2,64.9 816.3,64.9 816.4,64.9 816.5,64.9 816.6,64.9 816.7,64.9 816.8,64.9 816.9,64.9 817.0,64.9 817.1,64.9 817.2,64.9 817.3,64.9 817.4,64.9 817.6,64.9 817.7,64.9 817.8,64.9 817.9,64.9 818.0,64.9 818.1,64.9 818.2,64.9 818.3,64.9 818.4,64.9 818.5,64.9 818.6,64.9 818.7,64.9 818.8,64.9 818.9,64.9 819.0,64.9 819.1,64.9 819.2,64.9 819.3,64.9 819.4,64.9 819.5,64.9 819.6,64.9 819.7,64.9 819.8,64.9 819.9,64.9 820.0,64.9 820.1,64.9 820.2,64.9 820.3,64.9 820.4,64.9 820.5,64.9 820.6,64.9 820.7,64.9 820.8,64.9 820.9,64.9 821.0,64.9 821.1,64.9 821.2,64.9 821.3,64.9 821.4,64.9 821.5,64.9 821.6,64.9 821.7,64.9 821.8,64.9 821.9,64.9 822.0,64.9 822.1,64.9 822.2,64.9 822.3,64.9 822.4,64.9 822.5,64.9 822.6,64.9 822.7,64.9 822.8,64.9 823.0,64.9 823.1,64.9 823.2,64.9 823.3,64.9 823.4,64.9 823.5,64.9 823.6,64.9 823.7,64.9 823.8,64.9 823.9,64.9 824.0,64.9 824.1,64.9 824.2,64.9 824.3,64.9 824.4,64.9 824.5,64.9 824.6,64.9 824.7,64.9 824.8,64.9 824.9,64.9 825.0,64.9 825.1,64.9 825.2,64.9 825.3,64.9 825.4,64.9 825.5,64.9 825.6,64.9 825.7,64.9 825.8,64.9 825.9,64.9 826.0,64.9 826.1,64.9 826.2,64.9 826.3,64.9 826.4,64.9 826.5,64.9 826.6,64.9 826.7,64.9 826.8,64.9 826.9,64.9 827.0,64.9 827.1,64.9 827.2,64.9 827.3,64.9 827.4,64.9 827.5,64.9 827.6,64.9 827.7,64.9 827.8,64.9 827.9,64.9 828.0,64.9 828.1,64.9 828.2,64.9 828.4,64.9 828.5,64.9 828.6,64.9 828.7,64.9 828.8,64.9 828.9,64.9 829.0,64.9 829.1,64.9 829.2,64.9 829.3,64.9 829.4,64.9 829.5,64.9 829.6,64.9 829.7,64.9 829.8,64.9 829.9,64.9 830.0,64.9 830.1,64.9 830.2,64.9 830.3,64.9 830.4,64.9 830.5,64.9 830.6,64.9 830.7,64.9 830.8,64.9 830.9,64.9 831.0,64.9 831.1,64.9 831.2,64.9 831.3,64.9 831.4,64.9 831.5,64.9 831.6,64.9 831.7,64.9 831.8,64.9 831.9,64.9 832.0,64.9 832.1,64.9 832.2,64.9 832.3,64.9 832.4,64.9 832.5,64.9 832.6,64.9 832.7,64.9 832.8,64.9 832.9,64.9 833.0,64.9 833.1,64.9 833.2,64.9 833.3,64.9 833.4,64.9 833.5,64.9 833.6,64.9 833.8,64.9 833.9,64.9 834.0,64.9 834.1,64.9 834.2,64.9 834.3,64.9 834.4,64.9 834.5,64.9 834.6,64.9 834.7,64.9 834.8,64.9 834.9,64.9 835.0,64.9 835.1,64.9 835.2,64.9 835.3,64.9 835.4,64.9 835.5,64.9 835.6,64.9 835.7,64.9 835.8,64.9 835.9,64.9 836.0,64.9 836.1,64.9 836.2,64.9 836.3,64.9 836.4,64.9 836.5,64.9 836.6,64.9 836.7,64.9 836.8,64.9 836.9,64.9 837.0,64.9 837.1,64.9 837.2,64.9 837.3,64.9 837.4,64.9 837.5,64.9 837.6,64.9 837.7,64.9 837.8,64.9 837.9,64.9 838.0,64.9 838.1,64.9 838.2,64.9 838.3,64.9 838.4,64.9 838.5,64.9 838.6,64.9 838.7,64.9 838.8,64.9 838.9,64.9 839.0,64.9 839.2,64.9 839.3,64.9 839.4,64.9 839.5,64.9 839.6,64.9 839.7,64.9 839.8,64.9 839.9,64.9 840.0,64.9 840.1,64.9 840.2,64.9 840.3,64.9 840.4,64.9 840.5,64.9 840.6,64.9 840.7,64.9 840.8,64.9 840.9,64.9 841.0,64.9 841.1,64.9 841.2,64.9 841.3,64.9 841.4,64.9 841.5,64.9 841.6,64.9 841.7,64.9 841.8,64.9 841.9,64.9 842.0,64.9 842.1,64.9 842.2,64.9 842.3,64.9 842.4,64.9 842.5,64.9 842.6,64.9 842.7,64.9 842.8,64.9 842.9,64.9 843.0,64.9 843.1,64.9 843.2,64.9 843.3,64.9 843.4,64.9 843.5,64.9 843.6,64.9 843.7,64.9 843.8,64.9 843.9,64.9 844.0,64.9 844.1,64.9 844.2,64.9 844.3,64.9 844.4,64.9 844.6,64.9 844.7,64.9 844.8,64.9 844.9,64.9 845.0,64.9 845.1,64.9 845.2,64.9 845.3,64.9 845.4,64.9 845.5,64.9 845.6,64.9 845.7,64.9 845.8,64.9 845.9,64.9 846.0,64.9 846.1,64.9 846.2,64.9 846.3,64.9 846.4,64.9 846.5,64.9 846.6,64.9 846.7,64.9 846.8,64.9 846.9,64.9 847.0,64.9 847.1,64.9 847.2,64.9 847.3,64.9 847.4,64.9 847.5,64.9 847.6,64.9 847.7,64.9 847.8,64.9 847.9,64.9 848.0,64.9 848.1,64.9 848.2,64.9 848.3,64.9 848.4,64.9 848.5,64.9 848.6,64.9 848.7,64.9 848.8,64.9 848.9,64.9 849.0,64.9 849.1,64.9 849.2,64.9 849.3,64.9 849.4,64.9 849.5,64.9 849.6,64.9 849.7,64.9 849.8,64.9 850.0,64.9 850.1,64.9 850.2,64.9 850.3,64.9 850.4,64.9 850.5,64.9 850.6,64.9 850.7,64.9 850.8,64.9 850.9,64.9 851.0,64.9 851.1,64.9 851.2,64.9 851.3,64.9 851.4,64.9 851.5,64.9 851.6,64.9 851.7,64.9 851.8,64.9 851.9,64.9 852.0,64.9 852.1,64.9 852.2,64.9 852.3,64.9 852.4,64.9 852.5,64.9 852.6,64.9 852.7,64.9 852.8,64.9 852.9,64.9 853.0,64.9 853.1,64.9 853.2,64.9 853.3,64.9 853.4,64.9 853.5,64.9 853.6,64.9 853.7,64.9 853.8,64.9 853.9,64.9 854.0,64.9 854.1,64.9 854.2,64.9 854.3,64.9 854.4,64.9 854.5,64.9 854.6,64.9 854.7,64.9 854.8,64.9 854.9,64.9 855.0,64.9 855.1,64.9 855.2,64.9 855.4,64.9 855.5,64.9 855.6,64.9 855.7,64.9 855.8,64.9 855.9,64.9 856.0,64.9 856.1,64.9 856.2,64.9 856.3,64.9 856.4,64.9 856.5,64.9 856.6,64.9 856.7,64.9 856.8,64.9 856.9,64.9 857.0,64.9 857.1,64.9 857.2,64.9 857.3,64.9 857.4,64.9 857.5,64.9 857.6,64.9 857.7,64.9 857.8,64.9 857.9,64.9 858.0,64.9 858.1,64.9 858.2,64.9 858.3,64.9 858.4,64.9 858.5,64.9 858.6,64.9 858.7,64.9 858.8,64.9 858.9,64.9 859.0,64.9 859.1,64.9 859.2,64.9 859.3,64.9 859.4,64.9 859.5,64.9 859.6,64.9 859.7,64.9 859.8,64.9 859.9,64.9 860.0,64.9 860.1,64.9 860.2,64.9 860.3,64.9 860.4,64.9 860.5,64.9 860.6,64.9 860.8,64.9 860.9,64.9 861.0,64.9 861.1,64.9 861.2,64.9 861.3,64.9 861.4,64.9 861.5,64.9 861.6,64.9 861.7,64.9 861.8,64.9 861.9,64.9 862.0,64.9 862.1,64.9 862.2,64.9 862.3,64.9 862.4,64.9 862.5,64.9 862.6,64.9 862.7,64.9 862.8,64.9 862.9,64.9 863.0,64.9 863.1,64.9 863.2,64.9 863.3,64.9 863.4,64.9 863.5,64.9 863.6,64.9 863.7,64.9 863.8,64.9 863.9,64.9 864.0,64.9 864.1,64.9 864.2,64.9 864.3,64.9 864.4,64.9 864.5,64.9 864.6,64.9 864.7,64.9 864.8,64.9 864.9,64.9 865.0,64.9 865.1,64.9 865.2,64.9 865.3,64.9 865.4,64.9 865.5,64.9 865.6,64.9 865.7,64.9 865.8,64.9 865.9,64.9 866.0,64.9 866.2,64.9 866.3,64.9 866.4,64.9 866.5,64.9 866.6,64.9 866.7,64.9 866.8,64.9 866.9,64.9 867.0,64.9 867.1,64.9 867.2,64.9 867.3,64.9 867.4,64.9 867.5,64.9 867.6,64.9 867.7,64.9 867.8,64.9 867.9,64.9 868.0,64.9 868.1,64.9 868.2,64.9 868.3,64.9 868.4,64.9 868.5,64.9 868.6,64.9 868.7,64.9 868.8,64.9 868.9,64.9 869.0,64.9 869.1,64.9 869.2,64.9 869.3,64.9 869.4,64.9 869.5,64.9 869.6,64.9 869.7,64.9 869.8,64.9 869.9,64.9 870.0,64.9 870.1,64.9 870.2,64.9 870.3,64.9 870.4,64.9 870.5,64.9 870.6,64.9 870.7,64.9 870.8,64.9 870.9,64.9 871.0,64.9 871.1,64.9 871.2,64.9 871.3,64.9 871.4,64.9 871.6,64.9 871.7,64.9 871.8,64.9 871.9,64.9 872.0,64.9 872.1,64.9 872.2,64.9 872.3,64.9 872.4,64.9 872.5,64.9 872.6,64.9 872.7,64.9 872.8,64.9 872.9,64.9 873.0,64.9 873.1,64.9 873.2,64.9 873.3,64.9 873.4,64.9 873.5,64.9 873.6,64.9 873.7,64.9 873.8,64.9 873.9,64.9 874.0,64.9 874.1,64.9 874.2,64.9 874.3,64.9 874.4,64.9 874.5,64.9 874.6,64.9 874.7,64.9 874.8,64.9 874.9,64.9 875.0,64.9 875.1,64.9 875.2,64.9 875.3,64.9 875.4,64.9 875.5,64.9 875.6,64.9 875.7,64.9 875.8,64.9 875.9,64.9 876.0,64.9 876.1,64.9 876.2,64.9 876.3,64.9 876.4,64.9 876.5,64.9 876.6,64.9 876.7,64.9 876.8,64.9 877.0,64.9 877.1,64.9 877.2,64.9 877.3,64.9 877.4,64.9 877.5,64.9 877.6,64.9 877.7,64.9 877.8,64.9 877.9,64.9 878.0,64.9 878.1,64.9 878.2,64.9 878.3,64.9 878.4,64.9 878.5,64.9 878.6,64.9 878.7,64.9 878.8,64.9 878.9,64.9 879.0,64.9 879.1,64.9 879.2,64.9 879.3,64.9 879.4,64.9 879.5,64.9 879.6,64.9 879.7,64.9 879.8,64.9 879.9,64.9 880.0,64.9 880.1,64.9 880.2,64.9 880.3,64.9 880.4,64.9 880.5,64.9 880.6,64.9 880.7,64.9 880.8,64.9 880.9,64.9 881.0,64.9 881.1,64.9 881.2,64.9 881.3,64.9 881.4,64.9 881.5,64.9 881.6,64.9 881.7,64.9 881.8,64.9 881.9,64.9 882.0,64.9 882.1,64.9 882.2,64.9 882.4,64.9 882.5,64.9 882.6,64.9 882.7,64.9 882.8,64.9 882.9,64.9 883.0,64.9 883.1,64.9 883.2,64.9 883.3,64.9 883.4,64.9 883.5,64.9 883.6,64.9 883.7,64.9 883.8,64.9 883.9,64.9 884.0,64.9 884.1,64.9 884.2,64.9 884.3,64.9 884.4,64.9 884.5,64.9 884.6,64.9 884.7,64.9 884.8,64.9 884.9,64.9 885.0,64.9" fill="none" stroke="#1f77b4" stroke-width="1.3"/>
<rect x="78" y="48" width="10" height="4" fill="#1f77b4"/>
<text x="92" y="53" font-size="11">SDA/SCL (V)</text>
<text x="78" y="72" font-size="11" fill="#444">τ = 0.54 µs, 10-90% 上升时间 tr = 1.19 µs</text>
<text x="78" y="86" font-size="11" fill="#444">400kHz 快速模式预算 300ns×... 按 0.6µs 判定</text>
</svg>