%TF.GenerationSoftware,KiCad,Pcbnew,10.0.6*%
%TF.CreationDate,2026-10-01T23:46:28+08:00*%
%TF.ProjectId,flowio-p1,666c6f77-696f-42d7-9031-2e6b69636164,rev?*%
%TF.SameCoordinates,Original*%
%TF.FileFunction,Drillmap*%
%TF.FilePolarity,Positive*%
%FSLAX45Y45*%
G04 Gerber Fmt 4.5, Leading zero omitted, Abs format (unit mm)*
G04 Created by KiCad (PCBNEW 10.0.6) date 2026-10-01 23:46:28*
%MOMM*%
%LPD*%
G01*
G04 APERTURE LIST*
%ADD10C,0.100000*%
%ADD11C,0.200000*%
%ADD12C,0.120000*%
%ADD13C,0.130000*%
%ADD14C,0.320000*%
G04 APERTURE END LIST*
D10*
X0Y0D02*
X9000000Y0D01*
X0Y-7500000D02*
X0Y0D01*
X9000000Y0D02*
X9000000Y-7500000D01*
X9000000Y-7500000D02*
X0Y-7500000D01*
D11*
D10*
X702430Y-5659700D02*
X732430Y-5689700D01*
X732430Y-5659700D02*
X702430Y-5689700D01*
X1284370Y-5614940D02*
X1314370Y-5644940D01*
X1314370Y-5614940D02*
X1284370Y-5644940D01*
X1446470Y-1782050D02*
X1476470Y-1812050D01*
X1476470Y-1782050D02*
X1446470Y-1812050D01*
X1484930Y-6393630D02*
X1514930Y-6423630D01*
X1514930Y-6393630D02*
X1484930Y-6423630D01*
X1711870Y-1213280D02*
X1741870Y-1243280D01*
X1741870Y-1213280D02*
X1711870Y-1243280D01*
X1741870Y-1335400D02*
X1771870Y-1365400D01*
X1771870Y-1335400D02*
X1741870Y-1365400D01*
X1772910Y-903490D02*
X1802910Y-933490D01*
X1802910Y-903490D02*
X1772910Y-933490D01*
X1776730Y-1880070D02*
X1806730Y-1910070D01*
X1806730Y-1880070D02*
X1776730Y-1910070D01*
X1854970Y-3482640D02*
X1884970Y-3512640D01*
X1884970Y-3482640D02*
X1854970Y-3512640D01*
X1916200Y-4742220D02*
X1946200Y-4772220D01*
X1946200Y-4742220D02*
X1916200Y-4772220D01*
X2035000Y-6285000D02*
X2065000Y-6315000D01*
X2065000Y-6285000D02*
X2035000Y-6315000D01*
X2052030Y-1405310D02*
X2082030Y-1435310D01*
X2082030Y-1405310D02*
X2052030Y-1435310D01*
X2102190Y-5004360D02*
X2132190Y-5034360D01*
X2132190Y-5004360D02*
X2102190Y-5034360D01*
X2135090Y-3033370D02*
X2165090Y-3063370D01*
X2165090Y-3033370D02*
X2135090Y-3063370D01*
X2157280Y-1276340D02*
X2187280Y-1306340D01*
X2187280Y-1276340D02*
X2157280Y-1306340D01*
X2275000Y-1605000D02*
X2305000Y-1635000D01*
X2305000Y-1605000D02*
X2275000Y-1635000D01*
X2281050Y-2971070D02*
X2311050Y-3001070D01*
X2311050Y-2971070D02*
X2281050Y-3001070D01*
X2358440Y-4517630D02*
X2388440Y-4547630D01*
X2388440Y-4517630D02*
X2358440Y-4547630D01*
X2421130Y-2356590D02*
X2451130Y-2386590D01*
X2451130Y-2356590D02*
X2421130Y-2386590D01*
X2438880Y-5614940D02*
X2468880Y-5644940D01*
X2468880Y-5614940D02*
X2438880Y-5644940D01*
X2448250Y-2144220D02*
X2478250Y-2174220D01*
X2478250Y-2144220D02*
X2448250Y-2174220D01*
X2465000Y-2720720D02*
X2495000Y-2750720D01*
X2495000Y-2720720D02*
X2465000Y-2750720D01*
X2478450Y-4396610D02*
X2508450Y-4426610D01*
X2508450Y-4396610D02*
X2478450Y-4426610D01*
X2493060Y-5008770D02*
X2523060Y-5038770D01*
X2523060Y-5008770D02*
X2493060Y-5038770D01*
X2499170Y-3539640D02*
X2529170Y-3569640D01*
X2529170Y-3539640D02*
X2499170Y-3569640D01*
X2540030Y-2636700D02*
X2570030Y-2666700D01*
X2570030Y-2636700D02*
X2540030Y-2666700D01*
X2554610Y-4954100D02*
X2584610Y-4984100D01*
X2584610Y-4954100D02*
X2554610Y-4984100D01*
X2685000Y-2685000D02*
X2715000Y-2715000D01*
X2715000Y-2685000D02*
X2685000Y-2715000D01*
X2710360Y-2344150D02*
X2740360Y-2374150D01*
X2740360Y-2344150D02*
X2710360Y-2374150D01*
X2739220Y-2144220D02*
X2769220Y-2174220D01*
X2769220Y-2144220D02*
X2739220Y-2174220D01*
X2739220Y-4376950D02*
X2769220Y-4406950D01*
X2769220Y-4376950D02*
X2739220Y-4406950D01*
X2783700Y-3837440D02*
X2813700Y-3867440D01*
X2813700Y-3837440D02*
X2783700Y-3867440D01*
X2943390Y-2345350D02*
X2973390Y-2375350D01*
X2973390Y-2345350D02*
X2943390Y-2375350D01*
X2985000Y-4285000D02*
X3015000Y-4315000D01*
X3015000Y-4285000D02*
X2985000Y-4315000D01*
X3305000Y-3305000D02*
X3335000Y-3335000D01*
X3335000Y-3305000D02*
X3305000Y-3335000D01*
X3319590Y-2722380D02*
X3349590Y-2752380D01*
X3349590Y-2722380D02*
X3319590Y-2752380D01*
X3350810Y-2364140D02*
X3380810Y-2394140D01*
X3380810Y-2364140D02*
X3350810Y-2394140D01*
X3365000Y-2965000D02*
X3395000Y-2995000D01*
X3395000Y-2965000D02*
X3365000Y-2995000D01*
X3415000Y-4065000D02*
X3445000Y-4095000D01*
X3445000Y-4065000D02*
X3415000Y-4095000D01*
X3520820Y-1754400D02*
X3550820Y-1784400D01*
X3550820Y-1754400D02*
X3520820Y-1784400D01*
X3575220Y-5650460D02*
X3605220Y-5680460D01*
X3605220Y-5650460D02*
X3575220Y-5680460D01*
X3585000Y-5285000D02*
X3615000Y-5315000D01*
X3615000Y-5285000D02*
X3585000Y-5315000D01*
X3595000Y-3175000D02*
X3625000Y-3205000D01*
X3625000Y-3175000D02*
X3595000Y-3205000D01*
X3605000Y-2955000D02*
X3635000Y-2985000D01*
X3635000Y-2955000D02*
X3605000Y-2985000D01*
X3615000Y-3275000D02*
X3645000Y-3305000D01*
X3645000Y-3275000D02*
X3615000Y-3305000D01*
X3615000Y-4145000D02*
X3645000Y-4175000D01*
X3645000Y-4145000D02*
X3615000Y-4175000D01*
X3775000Y-3105000D02*
X3805000Y-3135000D01*
X3805000Y-3105000D02*
X3775000Y-3135000D01*
X4069810Y-3032050D02*
X4099810Y-3062050D01*
X4099810Y-3032050D02*
X4069810Y-3062050D01*
X4165000Y-2575000D02*
X4195000Y-2605000D01*
X4195000Y-2575000D02*
X4165000Y-2605000D01*
X4192410Y-3069870D02*
X4222410Y-3099870D01*
X4222410Y-3069870D02*
X4192410Y-3099870D01*
X4205000Y-2135000D02*
X4235000Y-2165000D01*
X4235000Y-2135000D02*
X4205000Y-2165000D01*
X4415000Y-3435000D02*
X4445000Y-3465000D01*
X4445000Y-3435000D02*
X4415000Y-3465000D01*
X4435000Y-2135000D02*
X4465000Y-2165000D01*
X4465000Y-2135000D02*
X4435000Y-2165000D01*
X4435000Y-2495000D02*
X4465000Y-2525000D01*
X4465000Y-2495000D02*
X4435000Y-2525000D01*
X4485040Y-5325700D02*
X4515040Y-5355700D01*
X4515040Y-5325700D02*
X4485040Y-5355700D01*
X4562500Y-3023510D02*
X4592500Y-3053510D01*
X4592500Y-3023510D02*
X4562500Y-3053510D01*
X4625000Y-2135000D02*
X4655000Y-2165000D01*
X4655000Y-2135000D02*
X4625000Y-2165000D01*
X4635000Y-3675000D02*
X4665000Y-3705000D01*
X4665000Y-3675000D02*
X4635000Y-3705000D01*
X4719470Y-3265280D02*
X4749470Y-3295280D01*
X4749470Y-3265280D02*
X4719470Y-3295280D01*
X4801660Y-2795730D02*
X4831660Y-2825730D01*
X4831660Y-2795730D02*
X4801660Y-2825730D01*
X4835000Y-3405000D02*
X4865000Y-3435000D01*
X4865000Y-3405000D02*
X4835000Y-3435000D01*
X4871500Y-2144060D02*
X4901500Y-2174060D01*
X4901500Y-2144060D02*
X4871500Y-2174060D01*
X4885000Y-1415000D02*
X4915000Y-1445000D01*
X4915000Y-1415000D02*
X4885000Y-1445000D01*
X4909660Y-2685000D02*
X4939660Y-2715000D01*
X4939660Y-2685000D02*
X4909660Y-2715000D01*
X4980850Y-4498530D02*
X5010850Y-4528530D01*
X5010850Y-4498530D02*
X4980850Y-4528530D01*
X5020600Y-2348010D02*
X5050600Y-2378010D01*
X5050600Y-2348010D02*
X5020600Y-2378010D01*
X5285000Y-1405000D02*
X5315000Y-1435000D01*
X5315000Y-1405000D02*
X5285000Y-1435000D01*
X5415000Y-2755000D02*
X5445000Y-2785000D01*
X5445000Y-2755000D02*
X5415000Y-2785000D01*
X5435000Y-2135000D02*
X5465000Y-2165000D01*
X5465000Y-2135000D02*
X5435000Y-2165000D01*
X5644510Y-2429050D02*
X5674510Y-2459050D01*
X5674510Y-2429050D02*
X5644510Y-2459050D01*
X5743640Y-5664310D02*
X5773640Y-5694310D01*
X5773640Y-5664310D02*
X5743640Y-5694310D01*
X5755000Y-2775000D02*
X5785000Y-2805000D01*
X5785000Y-2775000D02*
X5755000Y-2805000D01*
X5765000Y-2135000D02*
X5795000Y-2165000D01*
X5795000Y-2135000D02*
X5765000Y-2165000D01*
X5774930Y-5574230D02*
X5804930Y-5604230D01*
X5804930Y-5574230D02*
X5774930Y-5604230D01*
X5939890Y-4457980D02*
X5969890Y-4487980D01*
X5969890Y-4457980D02*
X5939890Y-4487980D01*
X6109660Y-2585000D02*
X6139660Y-2615000D01*
X6139660Y-2585000D02*
X6109660Y-2615000D01*
X6289100Y-3852610D02*
X6319100Y-3882610D01*
X6319100Y-3852610D02*
X6289100Y-3882610D01*
X6307270Y-4835580D02*
X6337270Y-4865580D01*
X6337270Y-4835580D02*
X6307270Y-4865580D01*
X6313720Y-2924310D02*
X6343720Y-2954310D01*
X6343720Y-2924310D02*
X6313720Y-2954310D01*
X6545480Y-4177930D02*
X6575480Y-4207930D01*
X6575480Y-4177930D02*
X6545480Y-4207930D01*
X6547760Y-5634770D02*
X6577760Y-5664770D01*
X6577760Y-5634770D02*
X6547760Y-5664770D01*
X6553460Y-4652920D02*
X6583460Y-4682920D01*
X6583460Y-4652920D02*
X6553460Y-4682920D01*
X6559660Y-2585000D02*
X6589660Y-2615000D01*
X6589660Y-2585000D02*
X6559660Y-2615000D01*
X6673580Y-2349340D02*
X6703580Y-2379340D01*
X6703580Y-2349340D02*
X6673580Y-2379340D01*
X6699640Y-2065620D02*
X6729640Y-2095620D01*
X6729640Y-2065620D02*
X6699640Y-2095620D01*
X6699680Y-3866750D02*
X6729680Y-3896750D01*
X6729680Y-3866750D02*
X6699680Y-3896750D01*
X6717870Y-2909240D02*
X6747870Y-2939240D01*
X6747870Y-2909240D02*
X6717870Y-2939240D01*
X6718480Y-3381480D02*
X6748480Y-3411480D01*
X6748480Y-3381480D02*
X6718480Y-3411480D01*
X6757150Y-2490900D02*
X6787150Y-2520900D01*
X6787150Y-2490900D02*
X6757150Y-2520900D01*
X6811680Y-4841930D02*
X6841680Y-4871930D01*
X6841680Y-4841930D02*
X6811680Y-4871930D01*
X6821090Y-4328570D02*
X6851090Y-4358570D01*
X6851090Y-4328570D02*
X6821090Y-4358570D01*
X6859320Y-2144060D02*
X6889320Y-2174060D01*
X6889320Y-2144060D02*
X6859320Y-2174060D01*
X6894980Y-4638630D02*
X6924980Y-4668630D01*
X6924980Y-4638630D02*
X6894980Y-4668630D01*
X6941340Y-4147700D02*
X6971340Y-4177700D01*
X6971340Y-4147700D02*
X6941340Y-4177700D01*
X7070280Y-3939720D02*
X7100280Y-3969720D01*
X7100280Y-3939720D02*
X7070280Y-3969720D01*
X7083170Y-4291430D02*
X7113170Y-4321430D01*
X7113170Y-4291430D02*
X7083170Y-4321430D01*
X7087030Y-3828480D02*
X7117030Y-3858480D01*
X7117030Y-3828480D02*
X7087030Y-3858480D01*
X7115000Y-2655000D02*
X7145000Y-2685000D01*
X7145000Y-2655000D02*
X7115000Y-2685000D01*
X7132900Y-1556100D02*
X7162900Y-1586100D01*
X7162900Y-1556100D02*
X7132900Y-1586100D01*
X7149030Y-1401400D02*
X7179030Y-1431400D01*
X7179030Y-1401400D02*
X7149030Y-1431400D01*
X7180720Y-1774480D02*
X7210720Y-1804480D01*
X7210720Y-1774480D02*
X7180720Y-1804480D01*
X7185950Y-4445750D02*
X7215950Y-4475750D01*
X7215950Y-4445750D02*
X7185950Y-4475750D01*
X7284860Y-4453160D02*
X7314860Y-4483160D01*
X7314860Y-4453160D02*
X7284860Y-4483160D01*
X7345000Y-3325000D02*
X7375000Y-3355000D01*
X7375000Y-3325000D02*
X7345000Y-3355000D01*
X7397790Y-5039630D02*
X7427790Y-5069630D01*
X7427790Y-5039630D02*
X7397790Y-5069630D01*
X7405490Y-1576440D02*
X7435490Y-1606440D01*
X7435490Y-1576440D02*
X7405490Y-1606440D01*
X7435000Y-1185000D02*
X7465000Y-1215000D01*
X7465000Y-1185000D02*
X7435000Y-1215000D01*
X7435000Y-1300000D02*
X7465000Y-1330000D01*
X7465000Y-1300000D02*
X7435000Y-1330000D01*
X7445820Y-4499030D02*
X7475820Y-4529030D01*
X7475820Y-4499030D02*
X7445820Y-4529030D01*
X7482710Y-1658600D02*
X7512710Y-1688600D01*
X7512710Y-1658600D02*
X7482710Y-1688600D01*
X7485010Y-4835800D02*
X7515010Y-4865800D01*
X7515010Y-4835800D02*
X7485010Y-4865800D01*
X7552420Y-3718430D02*
X7582420Y-3748430D01*
X7582420Y-3718430D02*
X7552420Y-3748430D01*
X7649100Y-4464550D02*
X7679100Y-4494550D01*
X7679100Y-4464550D02*
X7649100Y-4494550D01*
X7649390Y-3519660D02*
X7679390Y-3549660D01*
X7679390Y-3519660D02*
X7649390Y-3549660D01*
X7655520Y-2999540D02*
X7685520Y-3029540D01*
X7685520Y-2999540D02*
X7655520Y-3029540D01*
X7681920Y-3287670D02*
X7711920Y-3317670D01*
X7711920Y-3287670D02*
X7681920Y-3317670D01*
X7685710Y-2144060D02*
X7715710Y-2174060D01*
X7715710Y-2144060D02*
X7685710Y-2174060D01*
X7685710Y-5350160D02*
X7715710Y-5380160D01*
X7715710Y-5350160D02*
X7685710Y-5380160D01*
X7757620Y-4530520D02*
X7787620Y-4560520D01*
X7787620Y-4530520D02*
X7757620Y-4560520D01*
X7835000Y-1305000D02*
X7865000Y-1335000D01*
X7865000Y-1305000D02*
X7835000Y-1335000D01*
X7865000Y-2135000D02*
X7895000Y-2165000D01*
X7895000Y-2135000D02*
X7865000Y-2165000D01*
X7955000Y-2135000D02*
X7985000Y-2165000D01*
X7985000Y-2135000D02*
X7955000Y-2165000D01*
X8256080Y-1276340D02*
X8286080Y-1306340D01*
X8286080Y-1276340D02*
X8256080Y-1306340D01*
X8267650Y-714980D02*
X8297650Y-744980D01*
X8297650Y-714980D02*
X8267650Y-744980D01*
X417500Y-1600000D02*
G75*
G02*
X382500Y-1600000I-17500J0D01*
G01*
X382500Y-1600000D02*
G75*
G02*
X417500Y-1600000I17500J0D01*
G01*
X417500Y-4000000D02*
G75*
G02*
X382500Y-4000000I-17500J0D01*
G01*
X382500Y-4000000D02*
G75*
G02*
X417500Y-4000000I17500J0D01*
G01*
X417500Y-5200000D02*
G75*
G02*
X382500Y-5200000I-17500J0D01*
G01*
X382500Y-5200000D02*
G75*
G02*
X417500Y-5200000I17500J0D01*
G01*
X417500Y-6400000D02*
G75*
G02*
X382500Y-6400000I-17500J0D01*
G01*
X382500Y-6400000D02*
G75*
G02*
X417500Y-6400000I17500J0D01*
G01*
X1253990Y-6050000D02*
G75*
G02*
X1218990Y-6050000I-17500J0D01*
G01*
X1218990Y-6050000D02*
G75*
G02*
X1253990Y-6050000I17500J0D01*
G01*
X1447160Y-2081870D02*
G75*
G02*
X1412160Y-2081870I-17500J0D01*
G01*
X1412160Y-2081870D02*
G75*
G02*
X1447160Y-2081870I17500J0D01*
G01*
X1567500Y-3300000D02*
G75*
G02*
X1532500Y-3300000I-17500J0D01*
G01*
X1532500Y-3300000D02*
G75*
G02*
X1567500Y-3300000I17500J0D01*
G01*
X1617500Y-400000D02*
G75*
G02*
X1582500Y-400000I-17500J0D01*
G01*
X1582500Y-400000D02*
G75*
G02*
X1617500Y-400000I17500J0D01*
G01*
X1617500Y-1600000D02*
G75*
G02*
X1582500Y-1600000I-17500J0D01*
G01*
X1582500Y-1600000D02*
G75*
G02*
X1617500Y-1600000I17500J0D01*
G01*
X1617500Y-2800000D02*
G75*
G02*
X1582500Y-2800000I-17500J0D01*
G01*
X1582500Y-2800000D02*
G75*
G02*
X1617500Y-2800000I17500J0D01*
G01*
X1617500Y-4000000D02*
G75*
G02*
X1582500Y-4000000I-17500J0D01*
G01*
X1582500Y-4000000D02*
G75*
G02*
X1617500Y-4000000I17500J0D01*
G01*
X1617500Y-5200000D02*
G75*
G02*
X1582500Y-5200000I-17500J0D01*
G01*
X1582500Y-5200000D02*
G75*
G02*
X1617500Y-5200000I17500J0D01*
G01*
X1617500Y-6400000D02*
G75*
G02*
X1582500Y-6400000I-17500J0D01*
G01*
X1582500Y-6400000D02*
G75*
G02*
X1617500Y-6400000I17500J0D01*
G01*
X1867500Y-2559260D02*
G75*
G02*
X1832500Y-2559260I-17500J0D01*
G01*
X1832500Y-2559260D02*
G75*
G02*
X1867500Y-2559260I17500J0D01*
G01*
X2267500Y-2875340D02*
G75*
G02*
X2232500Y-2875340I-17500J0D01*
G01*
X2232500Y-2875340D02*
G75*
G02*
X2267500Y-2875340I17500J0D01*
G01*
X2297510Y-3350000D02*
G75*
G02*
X2262510Y-3350000I-17500J0D01*
G01*
X2262510Y-3350000D02*
G75*
G02*
X2297510Y-3350000I17500J0D01*
G01*
X2333890Y-6125000D02*
G75*
G02*
X2298890Y-6125000I-17500J0D01*
G01*
X2298890Y-6125000D02*
G75*
G02*
X2333890Y-6125000I17500J0D01*
G01*
X2347510Y-3850000D02*
G75*
G02*
X2312510Y-3850000I-17500J0D01*
G01*
X2312510Y-3850000D02*
G75*
G02*
X2347510Y-3850000I17500J0D01*
G01*
X2817500Y-2800000D02*
G75*
G02*
X2782500Y-2800000I-17500J0D01*
G01*
X2782500Y-2800000D02*
G75*
G02*
X2817500Y-2800000I17500J0D01*
G01*
X2817500Y-4000000D02*
G75*
G02*
X2782500Y-4000000I-17500J0D01*
G01*
X2782500Y-4000000D02*
G75*
G02*
X2817500Y-4000000I17500J0D01*
G01*
X2817500Y-5200000D02*
G75*
G02*
X2782500Y-5200000I-17500J0D01*
G01*
X2782500Y-5200000D02*
G75*
G02*
X2817500Y-5200000I17500J0D01*
G01*
X2817500Y-6400000D02*
G75*
G02*
X2782500Y-6400000I-17500J0D01*
G01*
X2782500Y-6400000D02*
G75*
G02*
X2817500Y-6400000I17500J0D01*
G01*
X2940000Y-4000000D02*
G75*
G02*
X2905000Y-4000000I-17500J0D01*
G01*
X2905000Y-4000000D02*
G75*
G02*
X2940000Y-4000000I17500J0D01*
G01*
X2988140Y-3425000D02*
G75*
G02*
X2953140Y-3425000I-17500J0D01*
G01*
X2953140Y-3425000D02*
G75*
G02*
X2988140Y-3425000I17500J0D01*
G01*
X3453990Y-6050000D02*
G75*
G02*
X3418990Y-6050000I-17500J0D01*
G01*
X3418990Y-6050000D02*
G75*
G02*
X3453990Y-6050000I17500J0D01*
G01*
X3617500Y-5227500D02*
G75*
G02*
X3582500Y-5227500I-17500J0D01*
G01*
X3582500Y-5227500D02*
G75*
G02*
X3617500Y-5227500I17500J0D01*
G01*
X3629690Y-4300000D02*
G75*
G02*
X3594690Y-4300000I-17500J0D01*
G01*
X3594690Y-4300000D02*
G75*
G02*
X3629690Y-4300000I17500J0D01*
G01*
X3947160Y-3281870D02*
G75*
G02*
X3912160Y-3281870I-17500J0D01*
G01*
X3912160Y-3281870D02*
G75*
G02*
X3947160Y-3281870I17500J0D01*
G01*
X4017500Y-400000D02*
G75*
G02*
X3982500Y-400000I-17500J0D01*
G01*
X3982500Y-400000D02*
G75*
G02*
X4017500Y-400000I17500J0D01*
G01*
X4017500Y-1600000D02*
G75*
G02*
X3982500Y-1600000I-17500J0D01*
G01*
X3982500Y-1600000D02*
G75*
G02*
X4017500Y-1600000I17500J0D01*
G01*
X4017500Y-2800000D02*
G75*
G02*
X3982500Y-2800000I-17500J0D01*
G01*
X3982500Y-2800000D02*
G75*
G02*
X4017500Y-2800000I17500J0D01*
G01*
X4017500Y-4000000D02*
G75*
G02*
X3982500Y-4000000I-17500J0D01*
G01*
X3982500Y-4000000D02*
G75*
G02*
X4017500Y-4000000I17500J0D01*
G01*
X4017500Y-6400000D02*
G75*
G02*
X3982500Y-6400000I-17500J0D01*
G01*
X3982500Y-6400000D02*
G75*
G02*
X4017500Y-6400000I17500J0D01*
G01*
X4288140Y-975000D02*
G75*
G02*
X4253140Y-975000I-17500J0D01*
G01*
X4253140Y-975000D02*
G75*
G02*
X4288140Y-975000I17500J0D01*
G01*
X4345000Y-1581870D02*
G75*
G02*
X4310000Y-1581870I-17500J0D01*
G01*
X4310000Y-1581870D02*
G75*
G02*
X4345000Y-1581870I17500J0D01*
G01*
X4553990Y-6050000D02*
G75*
G02*
X4518990Y-6050000I-17500J0D01*
G01*
X4518990Y-6050000D02*
G75*
G02*
X4553990Y-6050000I17500J0D01*
G01*
X4802500Y-3759170D02*
G75*
G02*
X4767500Y-3759170I-17500J0D01*
G01*
X4767500Y-3759170D02*
G75*
G02*
X4802500Y-3759170I17500J0D01*
G01*
X4997410Y-1725000D02*
G75*
G02*
X4962410Y-1725000I-17500J0D01*
G01*
X4962410Y-1725000D02*
G75*
G02*
X4997410Y-1725000I17500J0D01*
G01*
X5047160Y-2881870D02*
G75*
G02*
X5012160Y-2881870I-17500J0D01*
G01*
X5012160Y-2881870D02*
G75*
G02*
X5047160Y-2881870I17500J0D01*
G01*
X5217500Y-400000D02*
G75*
G02*
X5182500Y-400000I-17500J0D01*
G01*
X5182500Y-400000D02*
G75*
G02*
X5217500Y-400000I17500J0D01*
G01*
X5217500Y-5200000D02*
G75*
G02*
X5182500Y-5200000I-17500J0D01*
G01*
X5182500Y-5200000D02*
G75*
G02*
X5217500Y-5200000I17500J0D01*
G01*
X5217500Y-6400000D02*
G75*
G02*
X5182500Y-6400000I-17500J0D01*
G01*
X5182500Y-6400000D02*
G75*
G02*
X5217500Y-6400000I17500J0D01*
G01*
X5317500Y-4025340D02*
G75*
G02*
X5282500Y-4025340I-17500J0D01*
G01*
X5282500Y-4025340D02*
G75*
G02*
X5317500Y-4025340I17500J0D01*
G01*
X5497160Y-2881870D02*
G75*
G02*
X5462160Y-2881870I-17500J0D01*
G01*
X5462160Y-2881870D02*
G75*
G02*
X5497160Y-2881870I17500J0D01*
G01*
X5595000Y-1931870D02*
G75*
G02*
X5560000Y-1931870I-17500J0D01*
G01*
X5560000Y-1931870D02*
G75*
G02*
X5595000Y-1931870I17500J0D01*
G01*
X5653990Y-6050000D02*
G75*
G02*
X5618990Y-6050000I-17500J0D01*
G01*
X5618990Y-6050000D02*
G75*
G02*
X5653990Y-6050000I17500J0D01*
G01*
X5767500Y-4159260D02*
G75*
G02*
X5732500Y-4159260I-17500J0D01*
G01*
X5732500Y-4159260D02*
G75*
G02*
X5767500Y-4159260I17500J0D01*
G01*
X5767500Y-4709260D02*
G75*
G02*
X5732500Y-4709260I-17500J0D01*
G01*
X5732500Y-4709260D02*
G75*
G02*
X5767500Y-4709260I17500J0D01*
G01*
X5817500Y-5825340D02*
G75*
G02*
X5782500Y-5825340I-17500J0D01*
G01*
X5782500Y-5825340D02*
G75*
G02*
X5817500Y-5825340I17500J0D01*
G01*
X5942500Y-2279900D02*
G75*
G02*
X5907500Y-2279900I-17500J0D01*
G01*
X5907500Y-2279900D02*
G75*
G02*
X5942500Y-2279900I17500J0D01*
G01*
X6017500Y-2824990D02*
G75*
G02*
X5982500Y-2824990I-17500J0D01*
G01*
X5982500Y-2824990D02*
G75*
G02*
X6017500Y-2824990I17500J0D01*
G01*
X6142160Y-2750000D02*
G75*
G02*
X6107160Y-2750000I-17500J0D01*
G01*
X6107160Y-2750000D02*
G75*
G02*
X6142160Y-2750000I17500J0D01*
G01*
X6367500Y-3075340D02*
G75*
G02*
X6332500Y-3075340I-17500J0D01*
G01*
X6332500Y-3075340D02*
G75*
G02*
X6367500Y-3075340I17500J0D01*
G01*
X6367500Y-3555340D02*
G75*
G02*
X6332500Y-3555340I-17500J0D01*
G01*
X6332500Y-3555340D02*
G75*
G02*
X6367500Y-3555340I17500J0D01*
G01*
X6367500Y-4035340D02*
G75*
G02*
X6332500Y-4035340I-17500J0D01*
G01*
X6332500Y-4035340D02*
G75*
G02*
X6367500Y-4035340I17500J0D01*
G01*
X6367500Y-4515340D02*
G75*
G02*
X6332500Y-4515340I-17500J0D01*
G01*
X6332500Y-4515340D02*
G75*
G02*
X6367500Y-4515340I17500J0D01*
G01*
X6367500Y-4995340D02*
G75*
G02*
X6332500Y-4995340I-17500J0D01*
G01*
X6332500Y-4995340D02*
G75*
G02*
X6367500Y-4995340I17500J0D01*
G01*
X6417500Y-1600000D02*
G75*
G02*
X6382500Y-1600000I-17500J0D01*
G01*
X6382500Y-1600000D02*
G75*
G02*
X6417500Y-1600000I17500J0D01*
G01*
X6417500Y-2800000D02*
G75*
G02*
X6382500Y-2800000I-17500J0D01*
G01*
X6382500Y-2800000D02*
G75*
G02*
X6417500Y-2800000I17500J0D01*
G01*
X6417500Y-5200000D02*
G75*
G02*
X6382500Y-5200000I-17500J0D01*
G01*
X6382500Y-5200000D02*
G75*
G02*
X6417500Y-5200000I17500J0D01*
G01*
X6417500Y-6400000D02*
G75*
G02*
X6382500Y-6400000I-17500J0D01*
G01*
X6382500Y-6400000D02*
G75*
G02*
X6417500Y-6400000I17500J0D01*
G01*
X6592160Y-2750000D02*
G75*
G02*
X6557160Y-2750000I-17500J0D01*
G01*
X6557160Y-2750000D02*
G75*
G02*
X6592160Y-2750000I17500J0D01*
G01*
X6753990Y-6050000D02*
G75*
G02*
X6718990Y-6050000I-17500J0D01*
G01*
X6718990Y-6050000D02*
G75*
G02*
X6753990Y-6050000I17500J0D01*
G01*
X6767500Y-3075340D02*
G75*
G02*
X6732500Y-3075340I-17500J0D01*
G01*
X6732500Y-3075340D02*
G75*
G02*
X6767500Y-3075340I17500J0D01*
G01*
X6767500Y-3555340D02*
G75*
G02*
X6732500Y-3555340I-17500J0D01*
G01*
X6732500Y-3555340D02*
G75*
G02*
X6767500Y-3555340I17500J0D01*
G01*
X6767500Y-4035340D02*
G75*
G02*
X6732500Y-4035340I-17500J0D01*
G01*
X6732500Y-4035340D02*
G75*
G02*
X6767500Y-4035340I17500J0D01*
G01*
X6767500Y-4515340D02*
G75*
G02*
X6732500Y-4515340I-17500J0D01*
G01*
X6732500Y-4515340D02*
G75*
G02*
X6767500Y-4515340I17500J0D01*
G01*
X6767500Y-4995340D02*
G75*
G02*
X6732500Y-4995340I-17500J0D01*
G01*
X6732500Y-4995340D02*
G75*
G02*
X6767500Y-4995340I17500J0D01*
G01*
X7117840Y-3479950D02*
G75*
G02*
X7082840Y-3479950I-17500J0D01*
G01*
X7082840Y-3479950D02*
G75*
G02*
X7117840Y-3479950I17500J0D01*
G01*
X7117840Y-4479950D02*
G75*
G02*
X7082840Y-4479950I-17500J0D01*
G01*
X7082840Y-4479950D02*
G75*
G02*
X7117840Y-4479950I17500J0D01*
G01*
X7617500Y-1600000D02*
G75*
G02*
X7582500Y-1600000I-17500J0D01*
G01*
X7582500Y-1600000D02*
G75*
G02*
X7617500Y-1600000I17500J0D01*
G01*
X7617500Y-2800000D02*
G75*
G02*
X7582500Y-2800000I-17500J0D01*
G01*
X7582500Y-2800000D02*
G75*
G02*
X7617500Y-2800000I17500J0D01*
G01*
X7617500Y-5200000D02*
G75*
G02*
X7582500Y-5200000I-17500J0D01*
G01*
X7582500Y-5200000D02*
G75*
G02*
X7617500Y-5200000I17500J0D01*
G01*
X7617500Y-6400000D02*
G75*
G02*
X7582500Y-6400000I-17500J0D01*
G01*
X7582500Y-6400000D02*
G75*
G02*
X7617500Y-6400000I17500J0D01*
G01*
X7995000Y-5181870D02*
G75*
G02*
X7960000Y-5181870I-17500J0D01*
G01*
X7960000Y-5181870D02*
G75*
G02*
X7995000Y-5181870I17500J0D01*
G01*
X7997400Y-5802500D02*
G75*
G02*
X7962400Y-5802500I-17500J0D01*
G01*
X7962400Y-5802500D02*
G75*
G02*
X7997400Y-5802500I17500J0D01*
G01*
X8045000Y-2731870D02*
G75*
G02*
X8010000Y-2731870I-17500J0D01*
G01*
X8010000Y-2731870D02*
G75*
G02*
X8045000Y-2731870I17500J0D01*
G01*
X8817500Y-1600000D02*
G75*
G02*
X8782500Y-1600000I-17500J0D01*
G01*
X8782500Y-1600000D02*
G75*
G02*
X8817500Y-1600000I17500J0D01*
G01*
X8817500Y-4000000D02*
G75*
G02*
X8782500Y-4000000I-17500J0D01*
G01*
X8782500Y-4000000D02*
G75*
G02*
X8817500Y-4000000I17500J0D01*
G01*
X8817500Y-5200000D02*
G75*
G02*
X8782500Y-5200000I-17500J0D01*
G01*
X8782500Y-5200000D02*
G75*
G02*
X8817500Y-5200000I17500J0D01*
G01*
X8817500Y-6400000D02*
G75*
G02*
X8782500Y-6400000I-17500J0D01*
G01*
X8782500Y-6400000D02*
G75*
G02*
X8817500Y-6400000I17500J0D01*
G01*
X8817510Y-2869000D02*
G75*
G02*
X8782510Y-2869000I-17500J0D01*
G01*
X8782510Y-2869000D02*
G75*
G02*
X8817510Y-2869000I17500J0D01*
G01*
X8878990Y-6179900D02*
G75*
G02*
X8843990Y-6179900I-17500J0D01*
G01*
X8843990Y-6179900D02*
G75*
G02*
X8878990Y-6179900I17500J0D01*
G01*
X2299100Y-4929400D02*
X2299100Y-4969400D01*
X2279100Y-4949400D02*
X2319100Y-4949400D01*
X2651200Y-3131200D02*
X2651200Y-3171200D01*
X2631200Y-3151200D02*
X2671200Y-3151200D01*
X2721200Y-3188800D02*
X2721200Y-3228800D01*
X2701200Y-3208800D02*
X2741200Y-3208800D01*
X2996200Y-2653800D02*
X2996200Y-2693800D01*
X2976200Y-2673800D02*
X3016200Y-2673800D01*
X4777000Y-3350000D02*
X4777000Y-3390000D01*
X4757000Y-3370000D02*
X4797000Y-3370000D01*
X5371600Y-1686200D02*
X5371600Y-1726200D01*
X5351600Y-1706200D02*
X5391600Y-1706200D01*
X5552410Y-2150590D02*
X5552410Y-2190590D01*
X5532410Y-2170590D02*
X5572410Y-2170590D01*
X5552630Y-1971950D02*
X5552630Y-2011950D01*
X5532630Y-1991950D02*
X5572630Y-1991950D01*
X5839340Y-2842590D02*
X5839340Y-2882590D01*
X5819340Y-2862590D02*
X5859340Y-2862590D01*
X5860000Y-2259900D02*
X5860000Y-2299900D01*
X5840000Y-2279900D02*
X5880000Y-2279900D01*
X5880000Y-2130000D02*
X5880000Y-2170000D01*
X5860000Y-2150000D02*
X5900000Y-2150000D01*
X5956280Y-2964090D02*
X5956280Y-3004090D01*
X5936280Y-2984090D02*
X5976280Y-2984090D01*
X5990000Y-2259900D02*
X5990000Y-2299900D01*
X5970000Y-2279900D02*
X6010000Y-2279900D01*
X6136600Y-3145200D02*
X6136600Y-3185200D01*
X6116600Y-3165200D02*
X6156600Y-3165200D01*
X6182562Y-3191162D02*
X6182562Y-3231162D01*
X6162562Y-3211162D02*
X6202562Y-3211162D01*
X7074000Y-2216900D02*
X7074000Y-2256900D01*
X7054000Y-2236900D02*
X7094000Y-2236900D01*
X7137500Y-4884800D02*
X7137500Y-4924800D01*
X7117500Y-4904800D02*
X7157500Y-4904800D01*
X7371900Y-3753800D02*
X7371900Y-3793800D01*
X7351900Y-3773800D02*
X7391900Y-3773800D01*
X7907000Y-669000D02*
X7907000Y-709000D01*
X7887000Y-689000D02*
X7927000Y-689000D01*
X7952500Y-2530000D02*
X7952500Y-2570000D01*
X7932500Y-2550000D02*
X7972500Y-2550000D01*
X2431210Y-4946910D02*
X2431210Y-4915090D01*
X2399390Y-4915090D01*
X2399390Y-4946910D01*
X2431210Y-4946910D01*
X7720050Y-6103950D02*
X7720050Y-6072130D01*
X7688230Y-6072130D01*
X7688230Y-6103950D01*
X7720050Y-6103950D01*
X7905910Y-5743410D02*
X7905910Y-5711590D01*
X7874090Y-5711590D01*
X7874090Y-5743410D01*
X7905910Y-5743410D01*
X8410000Y-198000D02*
X8440000Y-168000D01*
X8410000Y-138000D01*
X8380000Y-168000D01*
X8410000Y-198000D01*
X8375000Y-198000D02*
X8445000Y-198000D01*
X8445000Y-138000D02*
G75*
G02*
X8445000Y-198000I0J-30000D01*
G01*
X8445000Y-138000D02*
X8375000Y-138000D01*
X8375000Y-138000D02*
G75*
G03*
X8375000Y-198000I0J-30000D01*
G01*
X8410000Y-1062000D02*
X8440000Y-1032000D01*
X8410000Y-1002000D01*
X8380000Y-1032000D01*
X8410000Y-1062000D01*
X8375000Y-1062000D02*
X8445000Y-1062000D01*
X8445000Y-1002000D02*
G75*
G02*
X8445000Y-1062000I0J-30000D01*
G01*
X8445000Y-1002000D02*
X8375000Y-1002000D01*
X8375000Y-1002000D02*
G75*
G03*
X8375000Y-1062000I0J-30000D01*
G01*
X8790000Y-198000D02*
X8820000Y-168000D01*
X8790000Y-138000D01*
X8760000Y-168000D01*
X8790000Y-198000D01*
X8755000Y-198000D02*
X8825000Y-198000D01*
X8825000Y-138000D02*
G75*
G02*
X8825000Y-198000I0J-30000D01*
G01*
X8825000Y-138000D02*
X8755000Y-138000D01*
X8755000Y-138000D02*
G75*
G03*
X8755000Y-198000I0J-30000D01*
G01*
X8790000Y-1062000D02*
X8820000Y-1032000D01*
X8790000Y-1002000D01*
X8760000Y-1032000D01*
X8790000Y-1062000D01*
X8755000Y-1062000D02*
X8825000Y-1062000D01*
X8825000Y-1002000D02*
G75*
G02*
X8825000Y-1062000I0J-30000D01*
G01*
X8825000Y-1002000D02*
X8755000Y-1002000D01*
X8755000Y-1002000D02*
G75*
G03*
X8755000Y-1062000I0J-30000D01*
G01*
X454990Y-4936000D02*
X544990Y-5026000D01*
X544990Y-4936000D02*
X454990Y-5026000D01*
X544990Y-4981000D02*
G75*
G02*
X454990Y-4981000I-45000J0D01*
G01*
X454990Y-4981000D02*
G75*
G02*
X544990Y-4981000I45000J0D01*
G01*
X455010Y-4174000D02*
X545010Y-4264000D01*
X545010Y-4174000D02*
X455010Y-4264000D01*
X545010Y-4219000D02*
G75*
G02*
X455010Y-4219000I-45000J0D01*
G01*
X455010Y-4219000D02*
G75*
G02*
X545010Y-4219000I45000J0D01*
G01*
X455010Y-4428000D02*
X545010Y-4518000D01*
X545010Y-4428000D02*
X455010Y-4518000D01*
X545010Y-4473000D02*
G75*
G02*
X455010Y-4473000I-45000J0D01*
G01*
X455010Y-4473000D02*
G75*
G02*
X545010Y-4473000I45000J0D01*
G01*
X455010Y-4682000D02*
X545010Y-4772000D01*
X545010Y-4682000D02*
X455010Y-4772000D01*
X545010Y-4727000D02*
G75*
G02*
X455010Y-4727000I-45000J0D01*
G01*
X455010Y-4727000D02*
G75*
G02*
X545010Y-4727000I45000J0D01*
G01*
X4174000Y-354990D02*
X4264000Y-444990D01*
X4264000Y-354990D02*
X4174000Y-444990D01*
X4264000Y-399990D02*
G75*
G02*
X4174000Y-399990I-45000J0D01*
G01*
X4174000Y-399990D02*
G75*
G02*
X4264000Y-399990I45000J0D01*
G01*
X4428000Y-355010D02*
X4518000Y-445010D01*
X4518000Y-355010D02*
X4428000Y-445010D01*
X4518000Y-400010D02*
G75*
G02*
X4428000Y-400010I-45000J0D01*
G01*
X4428000Y-400010D02*
G75*
G02*
X4518000Y-400010I45000J0D01*
G01*
X4682000Y-355010D02*
X4772000Y-445010D01*
X4772000Y-355010D02*
X4682000Y-445010D01*
X4772000Y-400010D02*
G75*
G02*
X4682000Y-400010I-45000J0D01*
G01*
X4682000Y-400010D02*
G75*
G02*
X4772000Y-400010I45000J0D01*
G01*
X4936000Y-355010D02*
X5026000Y-445010D01*
X5026000Y-355010D02*
X4936000Y-445010D01*
X5026000Y-400010D02*
G75*
G02*
X4936000Y-400010I-45000J0D01*
G01*
X4936000Y-400010D02*
G75*
G02*
X5026000Y-400010I45000J0D01*
G01*
X5524000Y-354990D02*
X5614000Y-444990D01*
X5614000Y-354990D02*
X5524000Y-444990D01*
X5614000Y-399990D02*
G75*
G02*
X5524000Y-399990I-45000J0D01*
G01*
X5524000Y-399990D02*
G75*
G02*
X5614000Y-399990I45000J0D01*
G01*
X5778000Y-355010D02*
X5868000Y-445010D01*
X5868000Y-355010D02*
X5778000Y-445010D01*
X5868000Y-400010D02*
G75*
G02*
X5778000Y-400010I-45000J0D01*
G01*
X5778000Y-400010D02*
G75*
G02*
X5868000Y-400010I45000J0D01*
G01*
X6032000Y-355010D02*
X6122000Y-445010D01*
X6122000Y-355010D02*
X6032000Y-445010D01*
X6122000Y-400010D02*
G75*
G02*
X6032000Y-400010I-45000J0D01*
G01*
X6032000Y-400010D02*
G75*
G02*
X6122000Y-400010I45000J0D01*
G01*
X6286000Y-355010D02*
X6376000Y-445010D01*
X6376000Y-355010D02*
X6286000Y-445010D01*
X6376000Y-400010D02*
G75*
G02*
X6286000Y-400010I-45000J0D01*
G01*
X6286000Y-400010D02*
G75*
G02*
X6376000Y-400010I45000J0D01*
G01*
X6874000Y-354990D02*
X6964000Y-444990D01*
X6964000Y-354990D02*
X6874000Y-444990D01*
X6964000Y-399990D02*
G75*
G02*
X6874000Y-399990I-45000J0D01*
G01*
X6874000Y-399990D02*
G75*
G02*
X6964000Y-399990I45000J0D01*
G01*
X7128000Y-355010D02*
X7218000Y-445010D01*
X7218000Y-355010D02*
X7128000Y-445010D01*
X7218000Y-400010D02*
G75*
G02*
X7128000Y-400010I-45000J0D01*
G01*
X7128000Y-400010D02*
G75*
G02*
X7218000Y-400010I45000J0D01*
G01*
X7382000Y-355010D02*
X7472000Y-445010D01*
X7472000Y-355010D02*
X7382000Y-445010D01*
X7472000Y-400010D02*
G75*
G02*
X7382000Y-400010I-45000J0D01*
G01*
X7382000Y-400010D02*
G75*
G02*
X7472000Y-400010I45000J0D01*
G01*
X7636000Y-355010D02*
X7726000Y-445010D01*
X7726000Y-355010D02*
X7636000Y-445010D01*
X7726000Y-400010D02*
G75*
G02*
X7636000Y-400010I-45000J0D01*
G01*
X7636000Y-400010D02*
G75*
G02*
X7726000Y-400010I45000J0D01*
G01*
X8604990Y-2028000D02*
X8694990Y-2118000D01*
X8694990Y-2028000D02*
X8604990Y-2118000D01*
X8694990Y-2073000D02*
G75*
G02*
X8604990Y-2073000I-45000J0D01*
G01*
X8604990Y-2073000D02*
G75*
G02*
X8694990Y-2073000I45000J0D01*
G01*
X8604990Y-2282000D02*
X8694990Y-2372000D01*
X8694990Y-2282000D02*
X8604990Y-2372000D01*
X8694990Y-2327000D02*
G75*
G02*
X8604990Y-2327000I-45000J0D01*
G01*
X8604990Y-2327000D02*
G75*
G02*
X8694990Y-2327000I45000J0D01*
G01*
X8604990Y-2536000D02*
X8694990Y-2626000D01*
X8694990Y-2536000D02*
X8604990Y-2626000D01*
X8694990Y-2581000D02*
G75*
G02*
X8604990Y-2581000I-45000J0D01*
G01*
X8604990Y-2581000D02*
G75*
G02*
X8694990Y-2581000I45000J0D01*
G01*
X8604990Y-3078000D02*
X8694990Y-3168000D01*
X8694990Y-3078000D02*
X8604990Y-3168000D01*
X8694990Y-3123000D02*
G75*
G02*
X8604990Y-3123000I-45000J0D01*
G01*
X8604990Y-3123000D02*
G75*
G02*
X8694990Y-3123000I45000J0D01*
G01*
X8604990Y-3332000D02*
X8694990Y-3422000D01*
X8694990Y-3332000D02*
X8604990Y-3422000D01*
X8694990Y-3377000D02*
G75*
G02*
X8604990Y-3377000I-45000J0D01*
G01*
X8604990Y-3377000D02*
G75*
G02*
X8694990Y-3377000I45000J0D01*
G01*
X8604990Y-3586000D02*
X8694990Y-3676000D01*
X8694990Y-3586000D02*
X8604990Y-3676000D01*
X8694990Y-3631000D02*
G75*
G02*
X8604990Y-3631000I-45000J0D01*
G01*
X8604990Y-3631000D02*
G75*
G02*
X8694990Y-3631000I45000J0D01*
G01*
X8604990Y-4428000D02*
X8694990Y-4518000D01*
X8694990Y-4428000D02*
X8604990Y-4518000D01*
X8694990Y-4473000D02*
G75*
G02*
X8604990Y-4473000I-45000J0D01*
G01*
X8604990Y-4473000D02*
G75*
G02*
X8694990Y-4473000I45000J0D01*
G01*
X8604990Y-4682000D02*
X8694990Y-4772000D01*
X8694990Y-4682000D02*
X8604990Y-4772000D01*
X8694990Y-4727000D02*
G75*
G02*
X8604990Y-4727000I-45000J0D01*
G01*
X8604990Y-4727000D02*
G75*
G02*
X8694990Y-4727000I45000J0D01*
G01*
X8604990Y-4936000D02*
X8694990Y-5026000D01*
X8694990Y-4936000D02*
X8604990Y-5026000D01*
X8694990Y-4981000D02*
G75*
G02*
X8604990Y-4981000I-45000J0D01*
G01*
X8604990Y-4981000D02*
G75*
G02*
X8694990Y-4981000I45000J0D01*
G01*
X8605010Y-1774000D02*
X8695010Y-1864000D01*
X8695010Y-1774000D02*
X8605010Y-1864000D01*
X8695010Y-1819000D02*
G75*
G02*
X8605010Y-1819000I-45000J0D01*
G01*
X8605010Y-1819000D02*
G75*
G02*
X8695010Y-1819000I45000J0D01*
G01*
X8605010Y-2824000D02*
X8695010Y-2914000D01*
X8695010Y-2824000D02*
X8605010Y-2914000D01*
X8695010Y-2869000D02*
G75*
G02*
X8605010Y-2869000I-45000J0D01*
G01*
X8605010Y-2869000D02*
G75*
G02*
X8695010Y-2869000I45000J0D01*
G01*
X8605010Y-4174000D02*
X8695010Y-4264000D01*
X8695010Y-4174000D02*
X8605010Y-4264000D01*
X8695010Y-4219000D02*
G75*
G02*
X8605010Y-4219000I-45000J0D01*
G01*
X8605010Y-4219000D02*
G75*
G02*
X8695010Y-4219000I45000J0D01*
G01*
D12*
X189990Y-2650020D02*
X309990Y-2770020D01*
X309990Y-2650020D02*
X189990Y-2770020D01*
X249990Y-2650020D02*
X249990Y-2770020D01*
X189990Y-2710020D02*
X309990Y-2710020D01*
D10*
X189990Y-2585020D02*
X189990Y-2835020D01*
X309990Y-2835020D02*
G75*
G02*
X189990Y-2835020I-60000J0D01*
G01*
X309990Y-2835020D02*
X309990Y-2585020D01*
X309990Y-2585020D02*
G75*
G03*
X189990Y-2585020I-60000J0D01*
G01*
D12*
X660000Y-2949980D02*
X780000Y-3069980D01*
X780000Y-2949980D02*
X660000Y-3069980D01*
X720000Y-2949980D02*
X720000Y-3069980D01*
X660000Y-3009980D02*
X780000Y-3009980D01*
D10*
X595000Y-3069980D02*
X845000Y-3069980D01*
X845000Y-2949980D02*
G75*
G02*
X845000Y-3069980I0J-60000D01*
G01*
X845000Y-2949980D02*
X595000Y-2949980D01*
X595000Y-2949980D02*
G75*
G03*
X595000Y-3069980I0J-60000D01*
G01*
D12*
X660010Y-2330010D02*
X780010Y-2450010D01*
X780010Y-2330010D02*
X660010Y-2450010D01*
X720010Y-2330010D02*
X720010Y-2450010D01*
X660010Y-2390010D02*
X780010Y-2390010D01*
D10*
X845010Y-2330010D02*
X595010Y-2330010D01*
X595010Y-2450010D02*
G75*
G02*
X595010Y-2330010I0J60000D01*
G01*
X595010Y-2450010D02*
X845010Y-2450010D01*
X845010Y-2450010D02*
G75*
G03*
X845010Y-2330010I0J60000D01*
G01*
D13*
X331000Y-6785000D02*
X461000Y-6915000D01*
X461000Y-6785000D02*
X331000Y-6915000D01*
X441962Y-6895962D02*
X441962Y-6804038D01*
X350038Y-6804038D01*
X350038Y-6895962D01*
X441962Y-6895962D01*
X839000Y-6785000D02*
X969000Y-6915000D01*
X969000Y-6785000D02*
X839000Y-6915000D01*
X949962Y-6895962D02*
X949962Y-6804038D01*
X858038Y-6804038D01*
X858038Y-6895962D01*
X949962Y-6895962D01*
X1431000Y-6785000D02*
X1561000Y-6915000D01*
X1561000Y-6785000D02*
X1431000Y-6915000D01*
X1541962Y-6895962D02*
X1541962Y-6804038D01*
X1450038Y-6804038D01*
X1450038Y-6895962D01*
X1541962Y-6895962D01*
X1939000Y-6785000D02*
X2069000Y-6915000D01*
X2069000Y-6785000D02*
X1939000Y-6915000D01*
X2049962Y-6895962D02*
X2049962Y-6804038D01*
X1958038Y-6804038D01*
X1958038Y-6895962D01*
X2049962Y-6895962D01*
X2531000Y-6785000D02*
X2661000Y-6915000D01*
X2661000Y-6785000D02*
X2531000Y-6915000D01*
X2641962Y-6895962D02*
X2641962Y-6804038D01*
X2550038Y-6804038D01*
X2550038Y-6895962D01*
X2641962Y-6895962D01*
X3039000Y-6785000D02*
X3169000Y-6915000D01*
X3169000Y-6785000D02*
X3039000Y-6915000D01*
X3149962Y-6895962D02*
X3149962Y-6804038D01*
X3058038Y-6804038D01*
X3058038Y-6895962D01*
X3149962Y-6895962D01*
X3631000Y-6785000D02*
X3761000Y-6915000D01*
X3761000Y-6785000D02*
X3631000Y-6915000D01*
X3741962Y-6895962D02*
X3741962Y-6804038D01*
X3650038Y-6804038D01*
X3650038Y-6895962D01*
X3741962Y-6895962D01*
X4139000Y-6785000D02*
X4269000Y-6915000D01*
X4269000Y-6785000D02*
X4139000Y-6915000D01*
X4249962Y-6895962D02*
X4249962Y-6804038D01*
X4158038Y-6804038D01*
X4158038Y-6895962D01*
X4249962Y-6895962D01*
X4731000Y-6785000D02*
X4861000Y-6915000D01*
X4861000Y-6785000D02*
X4731000Y-6915000D01*
X4841962Y-6895962D02*
X4841962Y-6804038D01*
X4750038Y-6804038D01*
X4750038Y-6895962D01*
X4841962Y-6895962D01*
X5239000Y-6785000D02*
X5369000Y-6915000D01*
X5369000Y-6785000D02*
X5239000Y-6915000D01*
X5349962Y-6895962D02*
X5349962Y-6804038D01*
X5258038Y-6804038D01*
X5258038Y-6895962D01*
X5349962Y-6895962D01*
X5831000Y-6785000D02*
X5961000Y-6915000D01*
X5961000Y-6785000D02*
X5831000Y-6915000D01*
X5941962Y-6895962D02*
X5941962Y-6804038D01*
X5850038Y-6804038D01*
X5850038Y-6895962D01*
X5941962Y-6895962D01*
X6339000Y-6785000D02*
X6469000Y-6915000D01*
X6469000Y-6785000D02*
X6339000Y-6915000D01*
X6449962Y-6895962D02*
X6449962Y-6804038D01*
X6358038Y-6804038D01*
X6358038Y-6895962D01*
X6449962Y-6895962D01*
X6931000Y-6785000D02*
X7061000Y-6915000D01*
X7061000Y-6785000D02*
X6931000Y-6915000D01*
X7041962Y-6895962D02*
X7041962Y-6804038D01*
X6950038Y-6804038D01*
X6950038Y-6895962D01*
X7041962Y-6895962D01*
X7439000Y-6785000D02*
X7569000Y-6915000D01*
X7569000Y-6785000D02*
X7439000Y-6915000D01*
X7549962Y-6895962D02*
X7549962Y-6804038D01*
X7458038Y-6804038D01*
X7458038Y-6895962D01*
X7549962Y-6895962D01*
X8031000Y-6785000D02*
X8161000Y-6915000D01*
X8161000Y-6785000D02*
X8031000Y-6915000D01*
X8141962Y-6895962D02*
X8141962Y-6804038D01*
X8050038Y-6804038D01*
X8050038Y-6895962D01*
X8141962Y-6895962D01*
X8539000Y-6785000D02*
X8669000Y-6915000D01*
X8669000Y-6785000D02*
X8539000Y-6915000D01*
X8649962Y-6895962D02*
X8649962Y-6804038D01*
X8558038Y-6804038D01*
X8558038Y-6895962D01*
X8649962Y-6895962D01*
D14*
X140000Y-3540000D02*
X460000Y-3860000D01*
X460000Y-3540000D02*
X140000Y-3860000D01*
X300000Y-3860000D02*
X460000Y-3700000D01*
X300000Y-3540000D01*
X140000Y-3700000D01*
X300000Y-3860000D01*
X240000Y-240000D02*
X560000Y-560000D01*
X560000Y-240000D02*
X240000Y-560000D01*
X400000Y-560000D02*
X560000Y-400000D01*
X400000Y-240000D01*
X240000Y-400000D01*
X400000Y-560000D01*
X6640000Y-6340000D02*
X6960000Y-6660000D01*
X6960000Y-6340000D02*
X6640000Y-6660000D01*
X6800000Y-6660000D02*
X6960000Y-6500000D01*
X6800000Y-6340000D01*
X6640000Y-6500000D01*
X6800000Y-6660000D01*
X8440000Y-1140000D02*
X8760000Y-1460000D01*
X8760000Y-1140000D02*
X8440000Y-1460000D01*
X8600000Y-1460000D02*
X8760000Y-1300000D01*
X8600000Y-1140000D01*
X8440000Y-1300000D01*
X8600000Y-1460000D01*
D11*
X255777Y-7816484D02*
X255777Y-7616484D01*
X255777Y-7616484D02*
X303396Y-7616484D01*
X303396Y-7616484D02*
X331967Y-7626008D01*
X331967Y-7626008D02*
X351015Y-7645055D01*
X351015Y-7645055D02*
X360539Y-7664103D01*
X360539Y-7664103D02*
X370062Y-7702198D01*
X370062Y-7702198D02*
X370062Y-7730769D01*
X370062Y-7730769D02*
X360539Y-7768865D01*
X360539Y-7768865D02*
X351015Y-7787912D01*
X351015Y-7787912D02*
X331967Y-7806960D01*
X331967Y-7806960D02*
X303396Y-7816484D01*
X303396Y-7816484D02*
X255777Y-7816484D01*
X455777Y-7816484D02*
X455777Y-7683150D01*
X455777Y-7721246D02*
X465301Y-7702198D01*
X465301Y-7702198D02*
X474824Y-7692674D01*
X474824Y-7692674D02*
X493872Y-7683150D01*
X493872Y-7683150D02*
X512920Y-7683150D01*
X579586Y-7816484D02*
X579586Y-7683150D01*
X579586Y-7616484D02*
X570063Y-7626008D01*
X570063Y-7626008D02*
X579586Y-7635531D01*
X579586Y-7635531D02*
X589110Y-7626008D01*
X589110Y-7626008D02*
X579586Y-7616484D01*
X579586Y-7616484D02*
X579586Y-7635531D01*
X703396Y-7816484D02*
X684348Y-7806960D01*
X684348Y-7806960D02*
X674824Y-7787912D01*
X674824Y-7787912D02*
X674824Y-7616484D01*
X808158Y-7816484D02*
X789110Y-7806960D01*
X789110Y-7806960D02*
X779586Y-7787912D01*
X779586Y-7787912D02*
X779586Y-7616484D01*
X1036729Y-7816484D02*
X1036729Y-7616484D01*
X1036729Y-7616484D02*
X1103396Y-7759341D01*
X1103396Y-7759341D02*
X1170063Y-7616484D01*
X1170063Y-7616484D02*
X1170063Y-7816484D01*
X1351015Y-7816484D02*
X1351015Y-7711722D01*
X1351015Y-7711722D02*
X1341491Y-7692674D01*
X1341491Y-7692674D02*
X1322444Y-7683150D01*
X1322444Y-7683150D02*
X1284348Y-7683150D01*
X1284348Y-7683150D02*
X1265301Y-7692674D01*
X1351015Y-7806960D02*
X1331967Y-7816484D01*
X1331967Y-7816484D02*
X1284348Y-7816484D01*
X1284348Y-7816484D02*
X1265301Y-7806960D01*
X1265301Y-7806960D02*
X1255777Y-7787912D01*
X1255777Y-7787912D02*
X1255777Y-7768865D01*
X1255777Y-7768865D02*
X1265301Y-7749817D01*
X1265301Y-7749817D02*
X1284348Y-7740293D01*
X1284348Y-7740293D02*
X1331967Y-7740293D01*
X1331967Y-7740293D02*
X1351015Y-7730769D01*
X1446253Y-7683150D02*
X1446253Y-7883150D01*
X1446253Y-7692674D02*
X1465301Y-7683150D01*
X1465301Y-7683150D02*
X1503396Y-7683150D01*
X1503396Y-7683150D02*
X1522443Y-7692674D01*
X1522443Y-7692674D02*
X1531967Y-7702198D01*
X1531967Y-7702198D02*
X1541491Y-7721246D01*
X1541491Y-7721246D02*
X1541491Y-7778388D01*
X1541491Y-7778388D02*
X1531967Y-7797436D01*
X1531967Y-7797436D02*
X1522443Y-7806960D01*
X1522443Y-7806960D02*
X1503396Y-7816484D01*
X1503396Y-7816484D02*
X1465301Y-7816484D01*
X1465301Y-7816484D02*
X1446253Y-7806960D01*
X1627205Y-7797436D02*
X1636729Y-7806960D01*
X1636729Y-7806960D02*
X1627205Y-7816484D01*
X1627205Y-7816484D02*
X1617682Y-7806960D01*
X1617682Y-7806960D02*
X1627205Y-7797436D01*
X1627205Y-7797436D02*
X1627205Y-7816484D01*
X1627205Y-7692674D02*
X1636729Y-7702198D01*
X1636729Y-7702198D02*
X1627205Y-7711722D01*
X1627205Y-7711722D02*
X1617682Y-7702198D01*
X1617682Y-7702198D02*
X1627205Y-7692674D01*
X1627205Y-7692674D02*
X1627205Y-7711722D01*
D10*
X-35000Y-8130000D02*
X-5000Y-8160000D01*
X-5000Y-8130000D02*
X-35000Y-8160000D01*
D11*
X293872Y-8036484D02*
X312920Y-8036484D01*
X312920Y-8036484D02*
X331967Y-8046008D01*
X331967Y-8046008D02*
X341491Y-8055531D01*
X341491Y-8055531D02*
X351015Y-8074579D01*
X351015Y-8074579D02*
X360539Y-8112674D01*
X360539Y-8112674D02*
X360539Y-8160293D01*
X360539Y-8160293D02*
X351015Y-8198388D01*
X351015Y-8198388D02*
X341491Y-8217436D01*
X341491Y-8217436D02*
X331967Y-8226960D01*
X331967Y-8226960D02*
X312920Y-8236484D01*
X312920Y-8236484D02*
X293872Y-8236484D01*
X293872Y-8236484D02*
X274824Y-8226960D01*
X274824Y-8226960D02*
X265301Y-8217436D01*
X265301Y-8217436D02*
X255777Y-8198388D01*
X255777Y-8198388D02*
X246253Y-8160293D01*
X246253Y-8160293D02*
X246253Y-8112674D01*
X246253Y-8112674D02*
X255777Y-8074579D01*
X255777Y-8074579D02*
X265301Y-8055531D01*
X265301Y-8055531D02*
X274824Y-8046008D01*
X274824Y-8046008D02*
X293872Y-8036484D01*
X446253Y-8217436D02*
X455777Y-8226960D01*
X455777Y-8226960D02*
X446253Y-8236484D01*
X446253Y-8236484D02*
X436729Y-8226960D01*
X436729Y-8226960D02*
X446253Y-8217436D01*
X446253Y-8217436D02*
X446253Y-8236484D01*
X522443Y-8036484D02*
X646253Y-8036484D01*
X646253Y-8036484D02*
X579586Y-8112674D01*
X579586Y-8112674D02*
X608158Y-8112674D01*
X608158Y-8112674D02*
X627205Y-8122198D01*
X627205Y-8122198D02*
X636729Y-8131722D01*
X636729Y-8131722D02*
X646253Y-8150769D01*
X646253Y-8150769D02*
X646253Y-8198388D01*
X646253Y-8198388D02*
X636729Y-8217436D01*
X636729Y-8217436D02*
X627205Y-8226960D01*
X627205Y-8226960D02*
X608158Y-8236484D01*
X608158Y-8236484D02*
X551015Y-8236484D01*
X551015Y-8236484D02*
X531967Y-8226960D01*
X531967Y-8226960D02*
X522443Y-8217436D01*
X770062Y-8036484D02*
X789110Y-8036484D01*
X789110Y-8036484D02*
X808158Y-8046008D01*
X808158Y-8046008D02*
X817682Y-8055531D01*
X817682Y-8055531D02*
X827205Y-8074579D01*
X827205Y-8074579D02*
X836729Y-8112674D01*
X836729Y-8112674D02*
X836729Y-8160293D01*
X836729Y-8160293D02*
X827205Y-8198388D01*
X827205Y-8198388D02*
X817682Y-8217436D01*
X817682Y-8217436D02*
X808158Y-8226960D01*
X808158Y-8226960D02*
X789110Y-8236484D01*
X789110Y-8236484D02*
X770062Y-8236484D01*
X770062Y-8236484D02*
X751015Y-8226960D01*
X751015Y-8226960D02*
X741491Y-8217436D01*
X741491Y-8217436D02*
X731967Y-8198388D01*
X731967Y-8198388D02*
X722443Y-8160293D01*
X722443Y-8160293D02*
X722443Y-8112674D01*
X722443Y-8112674D02*
X731967Y-8074579D01*
X731967Y-8074579D02*
X741491Y-8055531D01*
X741491Y-8055531D02*
X751015Y-8046008D01*
X751015Y-8046008D02*
X770062Y-8036484D01*
X960539Y-8036484D02*
X979586Y-8036484D01*
X979586Y-8036484D02*
X998634Y-8046008D01*
X998634Y-8046008D02*
X1008158Y-8055531D01*
X1008158Y-8055531D02*
X1017682Y-8074579D01*
X1017682Y-8074579D02*
X1027205Y-8112674D01*
X1027205Y-8112674D02*
X1027205Y-8160293D01*
X1027205Y-8160293D02*
X1017682Y-8198388D01*
X1017682Y-8198388D02*
X1008158Y-8217436D01*
X1008158Y-8217436D02*
X998634Y-8226960D01*
X998634Y-8226960D02*
X979586Y-8236484D01*
X979586Y-8236484D02*
X960539Y-8236484D01*
X960539Y-8236484D02*
X941491Y-8226960D01*
X941491Y-8226960D02*
X931967Y-8217436D01*
X931967Y-8217436D02*
X922443Y-8198388D01*
X922443Y-8198388D02*
X912920Y-8160293D01*
X912920Y-8160293D02*
X912920Y-8112674D01*
X912920Y-8112674D02*
X922443Y-8074579D01*
X922443Y-8074579D02*
X931967Y-8055531D01*
X931967Y-8055531D02*
X941491Y-8046008D01*
X941491Y-8046008D02*
X960539Y-8036484D01*
X1112920Y-8236484D02*
X1112920Y-8103150D01*
X1112920Y-8122198D02*
X1122444Y-8112674D01*
X1122444Y-8112674D02*
X1141491Y-8103150D01*
X1141491Y-8103150D02*
X1170063Y-8103150D01*
X1170063Y-8103150D02*
X1189110Y-8112674D01*
X1189110Y-8112674D02*
X1198634Y-8131722D01*
X1198634Y-8131722D02*
X1198634Y-8236484D01*
X1198634Y-8131722D02*
X1208158Y-8112674D01*
X1208158Y-8112674D02*
X1227205Y-8103150D01*
X1227205Y-8103150D02*
X1255777Y-8103150D01*
X1255777Y-8103150D02*
X1274825Y-8112674D01*
X1274825Y-8112674D02*
X1284348Y-8131722D01*
X1284348Y-8131722D02*
X1284348Y-8236484D01*
X1379586Y-8236484D02*
X1379586Y-8103150D01*
X1379586Y-8122198D02*
X1389110Y-8112674D01*
X1389110Y-8112674D02*
X1408158Y-8103150D01*
X1408158Y-8103150D02*
X1436729Y-8103150D01*
X1436729Y-8103150D02*
X1455777Y-8112674D01*
X1455777Y-8112674D02*
X1465301Y-8131722D01*
X1465301Y-8131722D02*
X1465301Y-8236484D01*
X1465301Y-8131722D02*
X1474824Y-8112674D01*
X1474824Y-8112674D02*
X1493872Y-8103150D01*
X1493872Y-8103150D02*
X1522443Y-8103150D01*
X1522443Y-8103150D02*
X1541491Y-8112674D01*
X1541491Y-8112674D02*
X1551015Y-8131722D01*
X1551015Y-8131722D02*
X1551015Y-8236484D01*
X1941491Y-8026960D02*
X1770063Y-8284103D01*
X2198634Y-8036484D02*
X2217682Y-8036484D01*
X2217682Y-8036484D02*
X2236729Y-8046008D01*
X2236729Y-8046008D02*
X2246253Y-8055531D01*
X2246253Y-8055531D02*
X2255777Y-8074579D01*
X2255777Y-8074579D02*
X2265301Y-8112674D01*
X2265301Y-8112674D02*
X2265301Y-8160293D01*
X2265301Y-8160293D02*
X2255777Y-8198388D01*
X2255777Y-8198388D02*
X2246253Y-8217436D01*
X2246253Y-8217436D02*
X2236729Y-8226960D01*
X2236729Y-8226960D02*
X2217682Y-8236484D01*
X2217682Y-8236484D02*
X2198634Y-8236484D01*
X2198634Y-8236484D02*
X2179587Y-8226960D01*
X2179587Y-8226960D02*
X2170063Y-8217436D01*
X2170063Y-8217436D02*
X2160539Y-8198388D01*
X2160539Y-8198388D02*
X2151015Y-8160293D01*
X2151015Y-8160293D02*
X2151015Y-8112674D01*
X2151015Y-8112674D02*
X2160539Y-8074579D01*
X2160539Y-8074579D02*
X2170063Y-8055531D01*
X2170063Y-8055531D02*
X2179587Y-8046008D01*
X2179587Y-8046008D02*
X2198634Y-8036484D01*
X2351015Y-8217436D02*
X2360539Y-8226960D01*
X2360539Y-8226960D02*
X2351015Y-8236484D01*
X2351015Y-8236484D02*
X2341491Y-8226960D01*
X2341491Y-8226960D02*
X2351015Y-8217436D01*
X2351015Y-8217436D02*
X2351015Y-8236484D01*
X2484348Y-8036484D02*
X2503396Y-8036484D01*
X2503396Y-8036484D02*
X2522444Y-8046008D01*
X2522444Y-8046008D02*
X2531968Y-8055531D01*
X2531968Y-8055531D02*
X2541491Y-8074579D01*
X2541491Y-8074579D02*
X2551015Y-8112674D01*
X2551015Y-8112674D02*
X2551015Y-8160293D01*
X2551015Y-8160293D02*
X2541491Y-8198388D01*
X2541491Y-8198388D02*
X2531968Y-8217436D01*
X2531968Y-8217436D02*
X2522444Y-8226960D01*
X2522444Y-8226960D02*
X2503396Y-8236484D01*
X2503396Y-8236484D02*
X2484348Y-8236484D01*
X2484348Y-8236484D02*
X2465301Y-8226960D01*
X2465301Y-8226960D02*
X2455777Y-8217436D01*
X2455777Y-8217436D02*
X2446253Y-8198388D01*
X2446253Y-8198388D02*
X2436729Y-8160293D01*
X2436729Y-8160293D02*
X2436729Y-8112674D01*
X2436729Y-8112674D02*
X2446253Y-8074579D01*
X2446253Y-8074579D02*
X2455777Y-8055531D01*
X2455777Y-8055531D02*
X2465301Y-8046008D01*
X2465301Y-8046008D02*
X2484348Y-8036484D01*
X2741491Y-8236484D02*
X2627206Y-8236484D01*
X2684348Y-8236484D02*
X2684348Y-8036484D01*
X2684348Y-8036484D02*
X2665301Y-8065055D01*
X2665301Y-8065055D02*
X2646253Y-8084103D01*
X2646253Y-8084103D02*
X2627206Y-8093627D01*
X2931967Y-8236484D02*
X2817682Y-8236484D01*
X2874825Y-8236484D02*
X2874825Y-8036484D01*
X2874825Y-8036484D02*
X2855777Y-8065055D01*
X2855777Y-8065055D02*
X2836729Y-8084103D01*
X2836729Y-8084103D02*
X2817682Y-8093627D01*
X3046253Y-8122198D02*
X3027206Y-8112674D01*
X3027206Y-8112674D02*
X3017682Y-8103150D01*
X3017682Y-8103150D02*
X3008158Y-8084103D01*
X3008158Y-8084103D02*
X3008158Y-8074579D01*
X3008158Y-8074579D02*
X3017682Y-8055531D01*
X3017682Y-8055531D02*
X3027206Y-8046008D01*
X3027206Y-8046008D02*
X3046253Y-8036484D01*
X3046253Y-8036484D02*
X3084348Y-8036484D01*
X3084348Y-8036484D02*
X3103396Y-8046008D01*
X3103396Y-8046008D02*
X3112920Y-8055531D01*
X3112920Y-8055531D02*
X3122444Y-8074579D01*
X3122444Y-8074579D02*
X3122444Y-8084103D01*
X3122444Y-8084103D02*
X3112920Y-8103150D01*
X3112920Y-8103150D02*
X3103396Y-8112674D01*
X3103396Y-8112674D02*
X3084348Y-8122198D01*
X3084348Y-8122198D02*
X3046253Y-8122198D01*
X3046253Y-8122198D02*
X3027206Y-8131722D01*
X3027206Y-8131722D02*
X3017682Y-8141246D01*
X3017682Y-8141246D02*
X3008158Y-8160293D01*
X3008158Y-8160293D02*
X3008158Y-8198388D01*
X3008158Y-8198388D02*
X3017682Y-8217436D01*
X3017682Y-8217436D02*
X3027206Y-8226960D01*
X3027206Y-8226960D02*
X3046253Y-8236484D01*
X3046253Y-8236484D02*
X3084348Y-8236484D01*
X3084348Y-8236484D02*
X3103396Y-8226960D01*
X3103396Y-8226960D02*
X3112920Y-8217436D01*
X3112920Y-8217436D02*
X3122444Y-8198388D01*
X3122444Y-8198388D02*
X3122444Y-8160293D01*
X3122444Y-8160293D02*
X3112920Y-8141246D01*
X3112920Y-8141246D02*
X3103396Y-8131722D01*
X3103396Y-8131722D02*
X3084348Y-8122198D01*
X3198634Y-8036484D02*
X3198634Y-8074579D01*
X3274825Y-8036484D02*
X3274825Y-8074579D01*
X3570063Y-8312674D02*
X3560539Y-8303150D01*
X3560539Y-8303150D02*
X3541491Y-8274579D01*
X3541491Y-8274579D02*
X3531968Y-8255531D01*
X3531968Y-8255531D02*
X3522444Y-8226960D01*
X3522444Y-8226960D02*
X3512920Y-8179341D01*
X3512920Y-8179341D02*
X3512920Y-8141246D01*
X3512920Y-8141246D02*
X3522444Y-8093627D01*
X3522444Y-8093627D02*
X3531968Y-8065055D01*
X3531968Y-8065055D02*
X3541491Y-8046008D01*
X3541491Y-8046008D02*
X3560539Y-8017436D01*
X3560539Y-8017436D02*
X3570063Y-8007912D01*
X3751015Y-8236484D02*
X3636729Y-8236484D01*
X3693872Y-8236484D02*
X3693872Y-8036484D01*
X3693872Y-8036484D02*
X3674825Y-8065055D01*
X3674825Y-8065055D02*
X3655777Y-8084103D01*
X3655777Y-8084103D02*
X3636729Y-8093627D01*
X3827206Y-8055531D02*
X3836729Y-8046008D01*
X3836729Y-8046008D02*
X3855777Y-8036484D01*
X3855777Y-8036484D02*
X3903396Y-8036484D01*
X3903396Y-8036484D02*
X3922444Y-8046008D01*
X3922444Y-8046008D02*
X3931968Y-8055531D01*
X3931968Y-8055531D02*
X3941491Y-8074579D01*
X3941491Y-8074579D02*
X3941491Y-8093627D01*
X3941491Y-8093627D02*
X3931968Y-8122198D01*
X3931968Y-8122198D02*
X3817682Y-8236484D01*
X3817682Y-8236484D02*
X3941491Y-8236484D01*
X4112920Y-8103150D02*
X4112920Y-8236484D01*
X4065301Y-8026960D02*
X4017682Y-8169817D01*
X4017682Y-8169817D02*
X4141491Y-8169817D01*
X4370063Y-8236484D02*
X4370063Y-8036484D01*
X4455777Y-8236484D02*
X4455777Y-8131722D01*
X4455777Y-8131722D02*
X4446253Y-8112674D01*
X4446253Y-8112674D02*
X4427206Y-8103150D01*
X4427206Y-8103150D02*
X4398634Y-8103150D01*
X4398634Y-8103150D02*
X4379587Y-8112674D01*
X4379587Y-8112674D02*
X4370063Y-8122198D01*
X4579587Y-8236484D02*
X4560539Y-8226960D01*
X4560539Y-8226960D02*
X4551015Y-8217436D01*
X4551015Y-8217436D02*
X4541492Y-8198388D01*
X4541492Y-8198388D02*
X4541492Y-8141246D01*
X4541492Y-8141246D02*
X4551015Y-8122198D01*
X4551015Y-8122198D02*
X4560539Y-8112674D01*
X4560539Y-8112674D02*
X4579587Y-8103150D01*
X4579587Y-8103150D02*
X4608158Y-8103150D01*
X4608158Y-8103150D02*
X4627206Y-8112674D01*
X4627206Y-8112674D02*
X4636730Y-8122198D01*
X4636730Y-8122198D02*
X4646253Y-8141246D01*
X4646253Y-8141246D02*
X4646253Y-8198388D01*
X4646253Y-8198388D02*
X4636730Y-8217436D01*
X4636730Y-8217436D02*
X4627206Y-8226960D01*
X4627206Y-8226960D02*
X4608158Y-8236484D01*
X4608158Y-8236484D02*
X4579587Y-8236484D01*
X4760539Y-8236484D02*
X4741492Y-8226960D01*
X4741492Y-8226960D02*
X4731968Y-8207912D01*
X4731968Y-8207912D02*
X4731968Y-8036484D01*
X4912920Y-8226960D02*
X4893873Y-8236484D01*
X4893873Y-8236484D02*
X4855777Y-8236484D01*
X4855777Y-8236484D02*
X4836730Y-8226960D01*
X4836730Y-8226960D02*
X4827206Y-8207912D01*
X4827206Y-8207912D02*
X4827206Y-8131722D01*
X4827206Y-8131722D02*
X4836730Y-8112674D01*
X4836730Y-8112674D02*
X4855777Y-8103150D01*
X4855777Y-8103150D02*
X4893873Y-8103150D01*
X4893873Y-8103150D02*
X4912920Y-8112674D01*
X4912920Y-8112674D02*
X4922444Y-8131722D01*
X4922444Y-8131722D02*
X4922444Y-8150769D01*
X4922444Y-8150769D02*
X4827206Y-8169817D01*
X4998634Y-8226960D02*
X5017682Y-8236484D01*
X5017682Y-8236484D02*
X5055777Y-8236484D01*
X5055777Y-8236484D02*
X5074825Y-8226960D01*
X5074825Y-8226960D02*
X5084349Y-8207912D01*
X5084349Y-8207912D02*
X5084349Y-8198388D01*
X5084349Y-8198388D02*
X5074825Y-8179341D01*
X5074825Y-8179341D02*
X5055777Y-8169817D01*
X5055777Y-8169817D02*
X5027206Y-8169817D01*
X5027206Y-8169817D02*
X5008158Y-8160293D01*
X5008158Y-8160293D02*
X4998634Y-8141246D01*
X4998634Y-8141246D02*
X4998634Y-8131722D01*
X4998634Y-8131722D02*
X5008158Y-8112674D01*
X5008158Y-8112674D02*
X5027206Y-8103150D01*
X5027206Y-8103150D02*
X5055777Y-8103150D01*
X5055777Y-8103150D02*
X5074825Y-8112674D01*
X5151015Y-8312674D02*
X5160539Y-8303150D01*
X5160539Y-8303150D02*
X5179587Y-8274579D01*
X5179587Y-8274579D02*
X5189111Y-8255531D01*
X5189111Y-8255531D02*
X5198634Y-8226960D01*
X5198634Y-8226960D02*
X5208158Y-8179341D01*
X5208158Y-8179341D02*
X5208158Y-8141246D01*
X5208158Y-8141246D02*
X5198634Y-8093627D01*
X5198634Y-8093627D02*
X5189111Y-8065055D01*
X5189111Y-8065055D02*
X5179587Y-8046008D01*
X5179587Y-8046008D02*
X5160539Y-8017436D01*
X5160539Y-8017436D02*
X5151015Y-8007912D01*
D10*
X-5000Y-8409000D02*
G75*
G02*
X-40000Y-8409000I-17500J0D01*
G01*
X-40000Y-8409000D02*
G75*
G02*
X-5000Y-8409000I17500J0D01*
G01*
D11*
X293872Y-8300484D02*
X312920Y-8300484D01*
X312920Y-8300484D02*
X331967Y-8310008D01*
X331967Y-8310008D02*
X341491Y-8319531D01*
X341491Y-8319531D02*
X351015Y-8338579D01*
X351015Y-8338579D02*
X360539Y-8376674D01*
X360539Y-8376674D02*
X360539Y-8424293D01*
X360539Y-8424293D02*
X351015Y-8462389D01*
X351015Y-8462389D02*
X341491Y-8481436D01*
X341491Y-8481436D02*
X331967Y-8490960D01*
X331967Y-8490960D02*
X312920Y-8500484D01*
X312920Y-8500484D02*
X293872Y-8500484D01*
X293872Y-8500484D02*
X274824Y-8490960D01*
X274824Y-8490960D02*
X265301Y-8481436D01*
X265301Y-8481436D02*
X255777Y-8462389D01*
X255777Y-8462389D02*
X246253Y-8424293D01*
X246253Y-8424293D02*
X246253Y-8376674D01*
X246253Y-8376674D02*
X255777Y-8338579D01*
X255777Y-8338579D02*
X265301Y-8319531D01*
X265301Y-8319531D02*
X274824Y-8310008D01*
X274824Y-8310008D02*
X293872Y-8300484D01*
X446253Y-8481436D02*
X455777Y-8490960D01*
X455777Y-8490960D02*
X446253Y-8500484D01*
X446253Y-8500484D02*
X436729Y-8490960D01*
X436729Y-8490960D02*
X446253Y-8481436D01*
X446253Y-8481436D02*
X446253Y-8500484D01*
X522443Y-8300484D02*
X646253Y-8300484D01*
X646253Y-8300484D02*
X579586Y-8376674D01*
X579586Y-8376674D02*
X608158Y-8376674D01*
X608158Y-8376674D02*
X627205Y-8386198D01*
X627205Y-8386198D02*
X636729Y-8395722D01*
X636729Y-8395722D02*
X646253Y-8414770D01*
X646253Y-8414770D02*
X646253Y-8462389D01*
X646253Y-8462389D02*
X636729Y-8481436D01*
X636729Y-8481436D02*
X627205Y-8490960D01*
X627205Y-8490960D02*
X608158Y-8500484D01*
X608158Y-8500484D02*
X551015Y-8500484D01*
X551015Y-8500484D02*
X531967Y-8490960D01*
X531967Y-8490960D02*
X522443Y-8481436D01*
X827205Y-8300484D02*
X731967Y-8300484D01*
X731967Y-8300484D02*
X722443Y-8395722D01*
X722443Y-8395722D02*
X731967Y-8386198D01*
X731967Y-8386198D02*
X751015Y-8376674D01*
X751015Y-8376674D02*
X798634Y-8376674D01*
X798634Y-8376674D02*
X817682Y-8386198D01*
X817682Y-8386198D02*
X827205Y-8395722D01*
X827205Y-8395722D02*
X836729Y-8414770D01*
X836729Y-8414770D02*
X836729Y-8462389D01*
X836729Y-8462389D02*
X827205Y-8481436D01*
X827205Y-8481436D02*
X817682Y-8490960D01*
X817682Y-8490960D02*
X798634Y-8500484D01*
X798634Y-8500484D02*
X751015Y-8500484D01*
X751015Y-8500484D02*
X731967Y-8490960D01*
X731967Y-8490960D02*
X722443Y-8481436D01*
X960539Y-8300484D02*
X979586Y-8300484D01*
X979586Y-8300484D02*
X998634Y-8310008D01*
X998634Y-8310008D02*
X1008158Y-8319531D01*
X1008158Y-8319531D02*
X1017682Y-8338579D01*
X1017682Y-8338579D02*
X1027205Y-8376674D01*
X1027205Y-8376674D02*
X1027205Y-8424293D01*
X1027205Y-8424293D02*
X1017682Y-8462389D01*
X1017682Y-8462389D02*
X1008158Y-8481436D01*
X1008158Y-8481436D02*
X998634Y-8490960D01*
X998634Y-8490960D02*
X979586Y-8500484D01*
X979586Y-8500484D02*
X960539Y-8500484D01*
X960539Y-8500484D02*
X941491Y-8490960D01*
X941491Y-8490960D02*
X931967Y-8481436D01*
X931967Y-8481436D02*
X922443Y-8462389D01*
X922443Y-8462389D02*
X912920Y-8424293D01*
X912920Y-8424293D02*
X912920Y-8376674D01*
X912920Y-8376674D02*
X922443Y-8338579D01*
X922443Y-8338579D02*
X931967Y-8319531D01*
X931967Y-8319531D02*
X941491Y-8310008D01*
X941491Y-8310008D02*
X960539Y-8300484D01*
X1112920Y-8500484D02*
X1112920Y-8367150D01*
X1112920Y-8386198D02*
X1122444Y-8376674D01*
X1122444Y-8376674D02*
X1141491Y-8367150D01*
X1141491Y-8367150D02*
X1170063Y-8367150D01*
X1170063Y-8367150D02*
X1189110Y-8376674D01*
X1189110Y-8376674D02*
X1198634Y-8395722D01*
X1198634Y-8395722D02*
X1198634Y-8500484D01*
X1198634Y-8395722D02*
X1208158Y-8376674D01*
X1208158Y-8376674D02*
X1227205Y-8367150D01*
X1227205Y-8367150D02*
X1255777Y-8367150D01*
X1255777Y-8367150D02*
X1274825Y-8376674D01*
X1274825Y-8376674D02*
X1284348Y-8395722D01*
X1284348Y-8395722D02*
X1284348Y-8500484D01*
X1379586Y-8500484D02*
X1379586Y-8367150D01*
X1379586Y-8386198D02*
X1389110Y-8376674D01*
X1389110Y-8376674D02*
X1408158Y-8367150D01*
X1408158Y-8367150D02*
X1436729Y-8367150D01*
X1436729Y-8367150D02*
X1455777Y-8376674D01*
X1455777Y-8376674D02*
X1465301Y-8395722D01*
X1465301Y-8395722D02*
X1465301Y-8500484D01*
X1465301Y-8395722D02*
X1474824Y-8376674D01*
X1474824Y-8376674D02*
X1493872Y-8367150D01*
X1493872Y-8367150D02*
X1522443Y-8367150D01*
X1522443Y-8367150D02*
X1541491Y-8376674D01*
X1541491Y-8376674D02*
X1551015Y-8395722D01*
X1551015Y-8395722D02*
X1551015Y-8500484D01*
X1941491Y-8290960D02*
X1770063Y-8548103D01*
X2198634Y-8300484D02*
X2217682Y-8300484D01*
X2217682Y-8300484D02*
X2236729Y-8310008D01*
X2236729Y-8310008D02*
X2246253Y-8319531D01*
X2246253Y-8319531D02*
X2255777Y-8338579D01*
X2255777Y-8338579D02*
X2265301Y-8376674D01*
X2265301Y-8376674D02*
X2265301Y-8424293D01*
X2265301Y-8424293D02*
X2255777Y-8462389D01*
X2255777Y-8462389D02*
X2246253Y-8481436D01*
X2246253Y-8481436D02*
X2236729Y-8490960D01*
X2236729Y-8490960D02*
X2217682Y-8500484D01*
X2217682Y-8500484D02*
X2198634Y-8500484D01*
X2198634Y-8500484D02*
X2179587Y-8490960D01*
X2179587Y-8490960D02*
X2170063Y-8481436D01*
X2170063Y-8481436D02*
X2160539Y-8462389D01*
X2160539Y-8462389D02*
X2151015Y-8424293D01*
X2151015Y-8424293D02*
X2151015Y-8376674D01*
X2151015Y-8376674D02*
X2160539Y-8338579D01*
X2160539Y-8338579D02*
X2170063Y-8319531D01*
X2170063Y-8319531D02*
X2179587Y-8310008D01*
X2179587Y-8310008D02*
X2198634Y-8300484D01*
X2351015Y-8481436D02*
X2360539Y-8490960D01*
X2360539Y-8490960D02*
X2351015Y-8500484D01*
X2351015Y-8500484D02*
X2341491Y-8490960D01*
X2341491Y-8490960D02*
X2351015Y-8481436D01*
X2351015Y-8481436D02*
X2351015Y-8500484D01*
X2484348Y-8300484D02*
X2503396Y-8300484D01*
X2503396Y-8300484D02*
X2522444Y-8310008D01*
X2522444Y-8310008D02*
X2531968Y-8319531D01*
X2531968Y-8319531D02*
X2541491Y-8338579D01*
X2541491Y-8338579D02*
X2551015Y-8376674D01*
X2551015Y-8376674D02*
X2551015Y-8424293D01*
X2551015Y-8424293D02*
X2541491Y-8462389D01*
X2541491Y-8462389D02*
X2531968Y-8481436D01*
X2531968Y-8481436D02*
X2522444Y-8490960D01*
X2522444Y-8490960D02*
X2503396Y-8500484D01*
X2503396Y-8500484D02*
X2484348Y-8500484D01*
X2484348Y-8500484D02*
X2465301Y-8490960D01*
X2465301Y-8490960D02*
X2455777Y-8481436D01*
X2455777Y-8481436D02*
X2446253Y-8462389D01*
X2446253Y-8462389D02*
X2436729Y-8424293D01*
X2436729Y-8424293D02*
X2436729Y-8376674D01*
X2436729Y-8376674D02*
X2446253Y-8338579D01*
X2446253Y-8338579D02*
X2455777Y-8319531D01*
X2455777Y-8319531D02*
X2465301Y-8310008D01*
X2465301Y-8310008D02*
X2484348Y-8300484D01*
X2741491Y-8500484D02*
X2627206Y-8500484D01*
X2684348Y-8500484D02*
X2684348Y-8300484D01*
X2684348Y-8300484D02*
X2665301Y-8329055D01*
X2665301Y-8329055D02*
X2646253Y-8348103D01*
X2646253Y-8348103D02*
X2627206Y-8357627D01*
X2808158Y-8300484D02*
X2931967Y-8300484D01*
X2931967Y-8300484D02*
X2865301Y-8376674D01*
X2865301Y-8376674D02*
X2893872Y-8376674D01*
X2893872Y-8376674D02*
X2912920Y-8386198D01*
X2912920Y-8386198D02*
X2922444Y-8395722D01*
X2922444Y-8395722D02*
X2931967Y-8414770D01*
X2931967Y-8414770D02*
X2931967Y-8462389D01*
X2931967Y-8462389D02*
X2922444Y-8481436D01*
X2922444Y-8481436D02*
X2912920Y-8490960D01*
X2912920Y-8490960D02*
X2893872Y-8500484D01*
X2893872Y-8500484D02*
X2836729Y-8500484D01*
X2836729Y-8500484D02*
X2817682Y-8490960D01*
X2817682Y-8490960D02*
X2808158Y-8481436D01*
X3046253Y-8386198D02*
X3027206Y-8376674D01*
X3027206Y-8376674D02*
X3017682Y-8367150D01*
X3017682Y-8367150D02*
X3008158Y-8348103D01*
X3008158Y-8348103D02*
X3008158Y-8338579D01*
X3008158Y-8338579D02*
X3017682Y-8319531D01*
X3017682Y-8319531D02*
X3027206Y-8310008D01*
X3027206Y-8310008D02*
X3046253Y-8300484D01*
X3046253Y-8300484D02*
X3084348Y-8300484D01*
X3084348Y-8300484D02*
X3103396Y-8310008D01*
X3103396Y-8310008D02*
X3112920Y-8319531D01*
X3112920Y-8319531D02*
X3122444Y-8338579D01*
X3122444Y-8338579D02*
X3122444Y-8348103D01*
X3122444Y-8348103D02*
X3112920Y-8367150D01*
X3112920Y-8367150D02*
X3103396Y-8376674D01*
X3103396Y-8376674D02*
X3084348Y-8386198D01*
X3084348Y-8386198D02*
X3046253Y-8386198D01*
X3046253Y-8386198D02*
X3027206Y-8395722D01*
X3027206Y-8395722D02*
X3017682Y-8405246D01*
X3017682Y-8405246D02*
X3008158Y-8424293D01*
X3008158Y-8424293D02*
X3008158Y-8462389D01*
X3008158Y-8462389D02*
X3017682Y-8481436D01*
X3017682Y-8481436D02*
X3027206Y-8490960D01*
X3027206Y-8490960D02*
X3046253Y-8500484D01*
X3046253Y-8500484D02*
X3084348Y-8500484D01*
X3084348Y-8500484D02*
X3103396Y-8490960D01*
X3103396Y-8490960D02*
X3112920Y-8481436D01*
X3112920Y-8481436D02*
X3122444Y-8462389D01*
X3122444Y-8462389D02*
X3122444Y-8424293D01*
X3122444Y-8424293D02*
X3112920Y-8405246D01*
X3112920Y-8405246D02*
X3103396Y-8395722D01*
X3103396Y-8395722D02*
X3084348Y-8386198D01*
X3198634Y-8300484D02*
X3198634Y-8338579D01*
X3274825Y-8300484D02*
X3274825Y-8338579D01*
X3570063Y-8576674D02*
X3560539Y-8567150D01*
X3560539Y-8567150D02*
X3541491Y-8538579D01*
X3541491Y-8538579D02*
X3531968Y-8519531D01*
X3531968Y-8519531D02*
X3522444Y-8490960D01*
X3522444Y-8490960D02*
X3512920Y-8443341D01*
X3512920Y-8443341D02*
X3512920Y-8405246D01*
X3512920Y-8405246D02*
X3522444Y-8357627D01*
X3522444Y-8357627D02*
X3531968Y-8329055D01*
X3531968Y-8329055D02*
X3541491Y-8310008D01*
X3541491Y-8310008D02*
X3560539Y-8281436D01*
X3560539Y-8281436D02*
X3570063Y-8271912D01*
X3674825Y-8386198D02*
X3655777Y-8376674D01*
X3655777Y-8376674D02*
X3646253Y-8367150D01*
X3646253Y-8367150D02*
X3636729Y-8348103D01*
X3636729Y-8348103D02*
X3636729Y-8338579D01*
X3636729Y-8338579D02*
X3646253Y-8319531D01*
X3646253Y-8319531D02*
X3655777Y-8310008D01*
X3655777Y-8310008D02*
X3674825Y-8300484D01*
X3674825Y-8300484D02*
X3712920Y-8300484D01*
X3712920Y-8300484D02*
X3731968Y-8310008D01*
X3731968Y-8310008D02*
X3741491Y-8319531D01*
X3741491Y-8319531D02*
X3751015Y-8338579D01*
X3751015Y-8338579D02*
X3751015Y-8348103D01*
X3751015Y-8348103D02*
X3741491Y-8367150D01*
X3741491Y-8367150D02*
X3731968Y-8376674D01*
X3731968Y-8376674D02*
X3712920Y-8386198D01*
X3712920Y-8386198D02*
X3674825Y-8386198D01*
X3674825Y-8386198D02*
X3655777Y-8395722D01*
X3655777Y-8395722D02*
X3646253Y-8405246D01*
X3646253Y-8405246D02*
X3636729Y-8424293D01*
X3636729Y-8424293D02*
X3636729Y-8462389D01*
X3636729Y-8462389D02*
X3646253Y-8481436D01*
X3646253Y-8481436D02*
X3655777Y-8490960D01*
X3655777Y-8490960D02*
X3674825Y-8500484D01*
X3674825Y-8500484D02*
X3712920Y-8500484D01*
X3712920Y-8500484D02*
X3731968Y-8490960D01*
X3731968Y-8490960D02*
X3741491Y-8481436D01*
X3741491Y-8481436D02*
X3751015Y-8462389D01*
X3751015Y-8462389D02*
X3751015Y-8424293D01*
X3751015Y-8424293D02*
X3741491Y-8405246D01*
X3741491Y-8405246D02*
X3731968Y-8395722D01*
X3731968Y-8395722D02*
X3712920Y-8386198D01*
X3817682Y-8300484D02*
X3941491Y-8300484D01*
X3941491Y-8300484D02*
X3874825Y-8376674D01*
X3874825Y-8376674D02*
X3903396Y-8376674D01*
X3903396Y-8376674D02*
X3922444Y-8386198D01*
X3922444Y-8386198D02*
X3931968Y-8395722D01*
X3931968Y-8395722D02*
X3941491Y-8414770D01*
X3941491Y-8414770D02*
X3941491Y-8462389D01*
X3941491Y-8462389D02*
X3931968Y-8481436D01*
X3931968Y-8481436D02*
X3922444Y-8490960D01*
X3922444Y-8490960D02*
X3903396Y-8500484D01*
X3903396Y-8500484D02*
X3846253Y-8500484D01*
X3846253Y-8500484D02*
X3827206Y-8490960D01*
X3827206Y-8490960D02*
X3817682Y-8481436D01*
X4179587Y-8500484D02*
X4179587Y-8300484D01*
X4265301Y-8500484D02*
X4265301Y-8395722D01*
X4265301Y-8395722D02*
X4255777Y-8376674D01*
X4255777Y-8376674D02*
X4236730Y-8367150D01*
X4236730Y-8367150D02*
X4208158Y-8367150D01*
X4208158Y-8367150D02*
X4189110Y-8376674D01*
X4189110Y-8376674D02*
X4179587Y-8386198D01*
X4389111Y-8500484D02*
X4370063Y-8490960D01*
X4370063Y-8490960D02*
X4360539Y-8481436D01*
X4360539Y-8481436D02*
X4351015Y-8462389D01*
X4351015Y-8462389D02*
X4351015Y-8405246D01*
X4351015Y-8405246D02*
X4360539Y-8386198D01*
X4360539Y-8386198D02*
X4370063Y-8376674D01*
X4370063Y-8376674D02*
X4389111Y-8367150D01*
X4389111Y-8367150D02*
X4417682Y-8367150D01*
X4417682Y-8367150D02*
X4436730Y-8376674D01*
X4436730Y-8376674D02*
X4446253Y-8386198D01*
X4446253Y-8386198D02*
X4455777Y-8405246D01*
X4455777Y-8405246D02*
X4455777Y-8462389D01*
X4455777Y-8462389D02*
X4446253Y-8481436D01*
X4446253Y-8481436D02*
X4436730Y-8490960D01*
X4436730Y-8490960D02*
X4417682Y-8500484D01*
X4417682Y-8500484D02*
X4389111Y-8500484D01*
X4570063Y-8500484D02*
X4551015Y-8490960D01*
X4551015Y-8490960D02*
X4541492Y-8471912D01*
X4541492Y-8471912D02*
X4541492Y-8300484D01*
X4722444Y-8490960D02*
X4703396Y-8500484D01*
X4703396Y-8500484D02*
X4665301Y-8500484D01*
X4665301Y-8500484D02*
X4646253Y-8490960D01*
X4646253Y-8490960D02*
X4636730Y-8471912D01*
X4636730Y-8471912D02*
X4636730Y-8395722D01*
X4636730Y-8395722D02*
X4646253Y-8376674D01*
X4646253Y-8376674D02*
X4665301Y-8367150D01*
X4665301Y-8367150D02*
X4703396Y-8367150D01*
X4703396Y-8367150D02*
X4722444Y-8376674D01*
X4722444Y-8376674D02*
X4731968Y-8395722D01*
X4731968Y-8395722D02*
X4731968Y-8414770D01*
X4731968Y-8414770D02*
X4636730Y-8433817D01*
X4808158Y-8490960D02*
X4827206Y-8500484D01*
X4827206Y-8500484D02*
X4865301Y-8500484D01*
X4865301Y-8500484D02*
X4884349Y-8490960D01*
X4884349Y-8490960D02*
X4893873Y-8471912D01*
X4893873Y-8471912D02*
X4893873Y-8462389D01*
X4893873Y-8462389D02*
X4884349Y-8443341D01*
X4884349Y-8443341D02*
X4865301Y-8433817D01*
X4865301Y-8433817D02*
X4836730Y-8433817D01*
X4836730Y-8433817D02*
X4817682Y-8424293D01*
X4817682Y-8424293D02*
X4808158Y-8405246D01*
X4808158Y-8405246D02*
X4808158Y-8395722D01*
X4808158Y-8395722D02*
X4817682Y-8376674D01*
X4817682Y-8376674D02*
X4836730Y-8367150D01*
X4836730Y-8367150D02*
X4865301Y-8367150D01*
X4865301Y-8367150D02*
X4884349Y-8376674D01*
X4960539Y-8576674D02*
X4970063Y-8567150D01*
X4970063Y-8567150D02*
X4989111Y-8538579D01*
X4989111Y-8538579D02*
X4998634Y-8519531D01*
X4998634Y-8519531D02*
X5008158Y-8490960D01*
X5008158Y-8490960D02*
X5017682Y-8443341D01*
X5017682Y-8443341D02*
X5017682Y-8405246D01*
X5017682Y-8405246D02*
X5008158Y-8357627D01*
X5008158Y-8357627D02*
X4998634Y-8329055D01*
X4998634Y-8329055D02*
X4989111Y-8310008D01*
X4989111Y-8310008D02*
X4970063Y-8281436D01*
X4970063Y-8281436D02*
X4960539Y-8271912D01*
D10*
X-25000Y-8653000D02*
X-25000Y-8693000D01*
X-45000Y-8673000D02*
X-5000Y-8673000D01*
D11*
X293872Y-8564484D02*
X312920Y-8564484D01*
X312920Y-8564484D02*
X331967Y-8574008D01*
X331967Y-8574008D02*
X341491Y-8583531D01*
X341491Y-8583531D02*
X351015Y-8602579D01*
X351015Y-8602579D02*
X360539Y-8640674D01*
X360539Y-8640674D02*
X360539Y-8688293D01*
X360539Y-8688293D02*
X351015Y-8726389D01*
X351015Y-8726389D02*
X341491Y-8745436D01*
X341491Y-8745436D02*
X331967Y-8754960D01*
X331967Y-8754960D02*
X312920Y-8764484D01*
X312920Y-8764484D02*
X293872Y-8764484D01*
X293872Y-8764484D02*
X274824Y-8754960D01*
X274824Y-8754960D02*
X265301Y-8745436D01*
X265301Y-8745436D02*
X255777Y-8726389D01*
X255777Y-8726389D02*
X246253Y-8688293D01*
X246253Y-8688293D02*
X246253Y-8640674D01*
X246253Y-8640674D02*
X255777Y-8602579D01*
X255777Y-8602579D02*
X265301Y-8583531D01*
X265301Y-8583531D02*
X274824Y-8574008D01*
X274824Y-8574008D02*
X293872Y-8564484D01*
X446253Y-8745436D02*
X455777Y-8754960D01*
X455777Y-8754960D02*
X446253Y-8764484D01*
X446253Y-8764484D02*
X436729Y-8754960D01*
X436729Y-8754960D02*
X446253Y-8745436D01*
X446253Y-8745436D02*
X446253Y-8764484D01*
X627205Y-8631150D02*
X627205Y-8764484D01*
X579586Y-8554960D02*
X531967Y-8697817D01*
X531967Y-8697817D02*
X655777Y-8697817D01*
X770062Y-8564484D02*
X789110Y-8564484D01*
X789110Y-8564484D02*
X808158Y-8574008D01*
X808158Y-8574008D02*
X817682Y-8583531D01*
X817682Y-8583531D02*
X827205Y-8602579D01*
X827205Y-8602579D02*
X836729Y-8640674D01*
X836729Y-8640674D02*
X836729Y-8688293D01*
X836729Y-8688293D02*
X827205Y-8726389D01*
X827205Y-8726389D02*
X817682Y-8745436D01*
X817682Y-8745436D02*
X808158Y-8754960D01*
X808158Y-8754960D02*
X789110Y-8764484D01*
X789110Y-8764484D02*
X770062Y-8764484D01*
X770062Y-8764484D02*
X751015Y-8754960D01*
X751015Y-8754960D02*
X741491Y-8745436D01*
X741491Y-8745436D02*
X731967Y-8726389D01*
X731967Y-8726389D02*
X722443Y-8688293D01*
X722443Y-8688293D02*
X722443Y-8640674D01*
X722443Y-8640674D02*
X731967Y-8602579D01*
X731967Y-8602579D02*
X741491Y-8583531D01*
X741491Y-8583531D02*
X751015Y-8574008D01*
X751015Y-8574008D02*
X770062Y-8564484D01*
X960539Y-8564484D02*
X979586Y-8564484D01*
X979586Y-8564484D02*
X998634Y-8574008D01*
X998634Y-8574008D02*
X1008158Y-8583531D01*
X1008158Y-8583531D02*
X1017682Y-8602579D01*
X1017682Y-8602579D02*
X1027205Y-8640674D01*
X1027205Y-8640674D02*
X1027205Y-8688293D01*
X1027205Y-8688293D02*
X1017682Y-8726389D01*
X1017682Y-8726389D02*
X1008158Y-8745436D01*
X1008158Y-8745436D02*
X998634Y-8754960D01*
X998634Y-8754960D02*
X979586Y-8764484D01*
X979586Y-8764484D02*
X960539Y-8764484D01*
X960539Y-8764484D02*
X941491Y-8754960D01*
X941491Y-8754960D02*
X931967Y-8745436D01*
X931967Y-8745436D02*
X922443Y-8726389D01*
X922443Y-8726389D02*
X912920Y-8688293D01*
X912920Y-8688293D02*
X912920Y-8640674D01*
X912920Y-8640674D02*
X922443Y-8602579D01*
X922443Y-8602579D02*
X931967Y-8583531D01*
X931967Y-8583531D02*
X941491Y-8574008D01*
X941491Y-8574008D02*
X960539Y-8564484D01*
X1112920Y-8764484D02*
X1112920Y-8631150D01*
X1112920Y-8650198D02*
X1122444Y-8640674D01*
X1122444Y-8640674D02*
X1141491Y-8631150D01*
X1141491Y-8631150D02*
X1170063Y-8631150D01*
X1170063Y-8631150D02*
X1189110Y-8640674D01*
X1189110Y-8640674D02*
X1198634Y-8659722D01*
X1198634Y-8659722D02*
X1198634Y-8764484D01*
X1198634Y-8659722D02*
X1208158Y-8640674D01*
X1208158Y-8640674D02*
X1227205Y-8631150D01*
X1227205Y-8631150D02*
X1255777Y-8631150D01*
X1255777Y-8631150D02*
X1274825Y-8640674D01*
X1274825Y-8640674D02*
X1284348Y-8659722D01*
X1284348Y-8659722D02*
X1284348Y-8764484D01*
X1379586Y-8764484D02*
X1379586Y-8631150D01*
X1379586Y-8650198D02*
X1389110Y-8640674D01*
X1389110Y-8640674D02*
X1408158Y-8631150D01*
X1408158Y-8631150D02*
X1436729Y-8631150D01*
X1436729Y-8631150D02*
X1455777Y-8640674D01*
X1455777Y-8640674D02*
X1465301Y-8659722D01*
X1465301Y-8659722D02*
X1465301Y-8764484D01*
X1465301Y-8659722D02*
X1474824Y-8640674D01*
X1474824Y-8640674D02*
X1493872Y-8631150D01*
X1493872Y-8631150D02*
X1522443Y-8631150D01*
X1522443Y-8631150D02*
X1541491Y-8640674D01*
X1541491Y-8640674D02*
X1551015Y-8659722D01*
X1551015Y-8659722D02*
X1551015Y-8764484D01*
X1941491Y-8554960D02*
X1770063Y-8812103D01*
X2198634Y-8564484D02*
X2217682Y-8564484D01*
X2217682Y-8564484D02*
X2236729Y-8574008D01*
X2236729Y-8574008D02*
X2246253Y-8583531D01*
X2246253Y-8583531D02*
X2255777Y-8602579D01*
X2255777Y-8602579D02*
X2265301Y-8640674D01*
X2265301Y-8640674D02*
X2265301Y-8688293D01*
X2265301Y-8688293D02*
X2255777Y-8726389D01*
X2255777Y-8726389D02*
X2246253Y-8745436D01*
X2246253Y-8745436D02*
X2236729Y-8754960D01*
X2236729Y-8754960D02*
X2217682Y-8764484D01*
X2217682Y-8764484D02*
X2198634Y-8764484D01*
X2198634Y-8764484D02*
X2179587Y-8754960D01*
X2179587Y-8754960D02*
X2170063Y-8745436D01*
X2170063Y-8745436D02*
X2160539Y-8726389D01*
X2160539Y-8726389D02*
X2151015Y-8688293D01*
X2151015Y-8688293D02*
X2151015Y-8640674D01*
X2151015Y-8640674D02*
X2160539Y-8602579D01*
X2160539Y-8602579D02*
X2170063Y-8583531D01*
X2170063Y-8583531D02*
X2179587Y-8574008D01*
X2179587Y-8574008D02*
X2198634Y-8564484D01*
X2351015Y-8745436D02*
X2360539Y-8754960D01*
X2360539Y-8754960D02*
X2351015Y-8764484D01*
X2351015Y-8764484D02*
X2341491Y-8754960D01*
X2341491Y-8754960D02*
X2351015Y-8745436D01*
X2351015Y-8745436D02*
X2351015Y-8764484D01*
X2484348Y-8564484D02*
X2503396Y-8564484D01*
X2503396Y-8564484D02*
X2522444Y-8574008D01*
X2522444Y-8574008D02*
X2531968Y-8583531D01*
X2531968Y-8583531D02*
X2541491Y-8602579D01*
X2541491Y-8602579D02*
X2551015Y-8640674D01*
X2551015Y-8640674D02*
X2551015Y-8688293D01*
X2551015Y-8688293D02*
X2541491Y-8726389D01*
X2541491Y-8726389D02*
X2531968Y-8745436D01*
X2531968Y-8745436D02*
X2522444Y-8754960D01*
X2522444Y-8754960D02*
X2503396Y-8764484D01*
X2503396Y-8764484D02*
X2484348Y-8764484D01*
X2484348Y-8764484D02*
X2465301Y-8754960D01*
X2465301Y-8754960D02*
X2455777Y-8745436D01*
X2455777Y-8745436D02*
X2446253Y-8726389D01*
X2446253Y-8726389D02*
X2436729Y-8688293D01*
X2436729Y-8688293D02*
X2436729Y-8640674D01*
X2436729Y-8640674D02*
X2446253Y-8602579D01*
X2446253Y-8602579D02*
X2455777Y-8583531D01*
X2455777Y-8583531D02*
X2465301Y-8574008D01*
X2465301Y-8574008D02*
X2484348Y-8564484D01*
X2741491Y-8764484D02*
X2627206Y-8764484D01*
X2684348Y-8764484D02*
X2684348Y-8564484D01*
X2684348Y-8564484D02*
X2665301Y-8593055D01*
X2665301Y-8593055D02*
X2646253Y-8612103D01*
X2646253Y-8612103D02*
X2627206Y-8621627D01*
X2922444Y-8564484D02*
X2827206Y-8564484D01*
X2827206Y-8564484D02*
X2817682Y-8659722D01*
X2817682Y-8659722D02*
X2827206Y-8650198D01*
X2827206Y-8650198D02*
X2846253Y-8640674D01*
X2846253Y-8640674D02*
X2893872Y-8640674D01*
X2893872Y-8640674D02*
X2912920Y-8650198D01*
X2912920Y-8650198D02*
X2922444Y-8659722D01*
X2922444Y-8659722D02*
X2931967Y-8678770D01*
X2931967Y-8678770D02*
X2931967Y-8726389D01*
X2931967Y-8726389D02*
X2922444Y-8745436D01*
X2922444Y-8745436D02*
X2912920Y-8754960D01*
X2912920Y-8754960D02*
X2893872Y-8764484D01*
X2893872Y-8764484D02*
X2846253Y-8764484D01*
X2846253Y-8764484D02*
X2827206Y-8754960D01*
X2827206Y-8754960D02*
X2817682Y-8745436D01*
X2998634Y-8564484D02*
X3131967Y-8564484D01*
X3131967Y-8564484D02*
X3046253Y-8764484D01*
X3198634Y-8564484D02*
X3198634Y-8602579D01*
X3274825Y-8564484D02*
X3274825Y-8602579D01*
X3570063Y-8840674D02*
X3560539Y-8831150D01*
X3560539Y-8831150D02*
X3541491Y-8802579D01*
X3541491Y-8802579D02*
X3531968Y-8783531D01*
X3531968Y-8783531D02*
X3522444Y-8754960D01*
X3522444Y-8754960D02*
X3512920Y-8707341D01*
X3512920Y-8707341D02*
X3512920Y-8669246D01*
X3512920Y-8669246D02*
X3522444Y-8621627D01*
X3522444Y-8621627D02*
X3531968Y-8593055D01*
X3531968Y-8593055D02*
X3541491Y-8574008D01*
X3541491Y-8574008D02*
X3560539Y-8545436D01*
X3560539Y-8545436D02*
X3570063Y-8535912D01*
X3636729Y-8583531D02*
X3646253Y-8574008D01*
X3646253Y-8574008D02*
X3665301Y-8564484D01*
X3665301Y-8564484D02*
X3712920Y-8564484D01*
X3712920Y-8564484D02*
X3731968Y-8574008D01*
X3731968Y-8574008D02*
X3741491Y-8583531D01*
X3741491Y-8583531D02*
X3751015Y-8602579D01*
X3751015Y-8602579D02*
X3751015Y-8621627D01*
X3751015Y-8621627D02*
X3741491Y-8650198D01*
X3741491Y-8650198D02*
X3627206Y-8764484D01*
X3627206Y-8764484D02*
X3751015Y-8764484D01*
X3874825Y-8564484D02*
X3893872Y-8564484D01*
X3893872Y-8564484D02*
X3912920Y-8574008D01*
X3912920Y-8574008D02*
X3922444Y-8583531D01*
X3922444Y-8583531D02*
X3931968Y-8602579D01*
X3931968Y-8602579D02*
X3941491Y-8640674D01*
X3941491Y-8640674D02*
X3941491Y-8688293D01*
X3941491Y-8688293D02*
X3931968Y-8726389D01*
X3931968Y-8726389D02*
X3922444Y-8745436D01*
X3922444Y-8745436D02*
X3912920Y-8754960D01*
X3912920Y-8754960D02*
X3893872Y-8764484D01*
X3893872Y-8764484D02*
X3874825Y-8764484D01*
X3874825Y-8764484D02*
X3855777Y-8754960D01*
X3855777Y-8754960D02*
X3846253Y-8745436D01*
X3846253Y-8745436D02*
X3836729Y-8726389D01*
X3836729Y-8726389D02*
X3827206Y-8688293D01*
X3827206Y-8688293D02*
X3827206Y-8640674D01*
X3827206Y-8640674D02*
X3836729Y-8602579D01*
X3836729Y-8602579D02*
X3846253Y-8583531D01*
X3846253Y-8583531D02*
X3855777Y-8574008D01*
X3855777Y-8574008D02*
X3874825Y-8564484D01*
X4179587Y-8764484D02*
X4179587Y-8564484D01*
X4265301Y-8764484D02*
X4265301Y-8659722D01*
X4265301Y-8659722D02*
X4255777Y-8640674D01*
X4255777Y-8640674D02*
X4236730Y-8631150D01*
X4236730Y-8631150D02*
X4208158Y-8631150D01*
X4208158Y-8631150D02*
X4189110Y-8640674D01*
X4189110Y-8640674D02*
X4179587Y-8650198D01*
X4389111Y-8764484D02*
X4370063Y-8754960D01*
X4370063Y-8754960D02*
X4360539Y-8745436D01*
X4360539Y-8745436D02*
X4351015Y-8726389D01*
X4351015Y-8726389D02*
X4351015Y-8669246D01*
X4351015Y-8669246D02*
X4360539Y-8650198D01*
X4360539Y-8650198D02*
X4370063Y-8640674D01*
X4370063Y-8640674D02*
X4389111Y-8631150D01*
X4389111Y-8631150D02*
X4417682Y-8631150D01*
X4417682Y-8631150D02*
X4436730Y-8640674D01*
X4436730Y-8640674D02*
X4446253Y-8650198D01*
X4446253Y-8650198D02*
X4455777Y-8669246D01*
X4455777Y-8669246D02*
X4455777Y-8726389D01*
X4455777Y-8726389D02*
X4446253Y-8745436D01*
X4446253Y-8745436D02*
X4436730Y-8754960D01*
X4436730Y-8754960D02*
X4417682Y-8764484D01*
X4417682Y-8764484D02*
X4389111Y-8764484D01*
X4570063Y-8764484D02*
X4551015Y-8754960D01*
X4551015Y-8754960D02*
X4541492Y-8735912D01*
X4541492Y-8735912D02*
X4541492Y-8564484D01*
X4722444Y-8754960D02*
X4703396Y-8764484D01*
X4703396Y-8764484D02*
X4665301Y-8764484D01*
X4665301Y-8764484D02*
X4646253Y-8754960D01*
X4646253Y-8754960D02*
X4636730Y-8735912D01*
X4636730Y-8735912D02*
X4636730Y-8659722D01*
X4636730Y-8659722D02*
X4646253Y-8640674D01*
X4646253Y-8640674D02*
X4665301Y-8631150D01*
X4665301Y-8631150D02*
X4703396Y-8631150D01*
X4703396Y-8631150D02*
X4722444Y-8640674D01*
X4722444Y-8640674D02*
X4731968Y-8659722D01*
X4731968Y-8659722D02*
X4731968Y-8678770D01*
X4731968Y-8678770D02*
X4636730Y-8697817D01*
X4808158Y-8754960D02*
X4827206Y-8764484D01*
X4827206Y-8764484D02*
X4865301Y-8764484D01*
X4865301Y-8764484D02*
X4884349Y-8754960D01*
X4884349Y-8754960D02*
X4893873Y-8735912D01*
X4893873Y-8735912D02*
X4893873Y-8726389D01*
X4893873Y-8726389D02*
X4884349Y-8707341D01*
X4884349Y-8707341D02*
X4865301Y-8697817D01*
X4865301Y-8697817D02*
X4836730Y-8697817D01*
X4836730Y-8697817D02*
X4817682Y-8688293D01*
X4817682Y-8688293D02*
X4808158Y-8669246D01*
X4808158Y-8669246D02*
X4808158Y-8659722D01*
X4808158Y-8659722D02*
X4817682Y-8640674D01*
X4817682Y-8640674D02*
X4836730Y-8631150D01*
X4836730Y-8631150D02*
X4865301Y-8631150D01*
X4865301Y-8631150D02*
X4884349Y-8640674D01*
X4960539Y-8840674D02*
X4970063Y-8831150D01*
X4970063Y-8831150D02*
X4989111Y-8802579D01*
X4989111Y-8802579D02*
X4998634Y-8783531D01*
X4998634Y-8783531D02*
X5008158Y-8754960D01*
X5008158Y-8754960D02*
X5017682Y-8707341D01*
X5017682Y-8707341D02*
X5017682Y-8669246D01*
X5017682Y-8669246D02*
X5008158Y-8621627D01*
X5008158Y-8621627D02*
X4998634Y-8593055D01*
X4998634Y-8593055D02*
X4989111Y-8574008D01*
X4989111Y-8574008D02*
X4970063Y-8545436D01*
X4970063Y-8545436D02*
X4960539Y-8535912D01*
D10*
X-11590Y-8952910D02*
X-11590Y-8921090D01*
X-43410Y-8921090D01*
X-43410Y-8952910D01*
X-11590Y-8952910D01*
D11*
X293872Y-8828484D02*
X312920Y-8828484D01*
X312920Y-8828484D02*
X331967Y-8838008D01*
X331967Y-8838008D02*
X341491Y-8847531D01*
X341491Y-8847531D02*
X351015Y-8866579D01*
X351015Y-8866579D02*
X360539Y-8904674D01*
X360539Y-8904674D02*
X360539Y-8952293D01*
X360539Y-8952293D02*
X351015Y-8990389D01*
X351015Y-8990389D02*
X341491Y-9009436D01*
X341491Y-9009436D02*
X331967Y-9018960D01*
X331967Y-9018960D02*
X312920Y-9028484D01*
X312920Y-9028484D02*
X293872Y-9028484D01*
X293872Y-9028484D02*
X274824Y-9018960D01*
X274824Y-9018960D02*
X265301Y-9009436D01*
X265301Y-9009436D02*
X255777Y-8990389D01*
X255777Y-8990389D02*
X246253Y-8952293D01*
X246253Y-8952293D02*
X246253Y-8904674D01*
X246253Y-8904674D02*
X255777Y-8866579D01*
X255777Y-8866579D02*
X265301Y-8847531D01*
X265301Y-8847531D02*
X274824Y-8838008D01*
X274824Y-8838008D02*
X293872Y-8828484D01*
X446253Y-9009436D02*
X455777Y-9018960D01*
X455777Y-9018960D02*
X446253Y-9028484D01*
X446253Y-9028484D02*
X436729Y-9018960D01*
X436729Y-9018960D02*
X446253Y-9009436D01*
X446253Y-9009436D02*
X446253Y-9028484D01*
X627205Y-8895150D02*
X627205Y-9028484D01*
X579586Y-8818960D02*
X531967Y-8961817D01*
X531967Y-8961817D02*
X655777Y-8961817D01*
X827205Y-8828484D02*
X731967Y-8828484D01*
X731967Y-8828484D02*
X722443Y-8923722D01*
X722443Y-8923722D02*
X731967Y-8914198D01*
X731967Y-8914198D02*
X751015Y-8904674D01*
X751015Y-8904674D02*
X798634Y-8904674D01*
X798634Y-8904674D02*
X817682Y-8914198D01*
X817682Y-8914198D02*
X827205Y-8923722D01*
X827205Y-8923722D02*
X836729Y-8942770D01*
X836729Y-8942770D02*
X836729Y-8990389D01*
X836729Y-8990389D02*
X827205Y-9009436D01*
X827205Y-9009436D02*
X817682Y-9018960D01*
X817682Y-9018960D02*
X798634Y-9028484D01*
X798634Y-9028484D02*
X751015Y-9028484D01*
X751015Y-9028484D02*
X731967Y-9018960D01*
X731967Y-9018960D02*
X722443Y-9009436D01*
X960539Y-8828484D02*
X979586Y-8828484D01*
X979586Y-8828484D02*
X998634Y-8838008D01*
X998634Y-8838008D02*
X1008158Y-8847531D01*
X1008158Y-8847531D02*
X1017682Y-8866579D01*
X1017682Y-8866579D02*
X1027205Y-8904674D01*
X1027205Y-8904674D02*
X1027205Y-8952293D01*
X1027205Y-8952293D02*
X1017682Y-8990389D01*
X1017682Y-8990389D02*
X1008158Y-9009436D01*
X1008158Y-9009436D02*
X998634Y-9018960D01*
X998634Y-9018960D02*
X979586Y-9028484D01*
X979586Y-9028484D02*
X960539Y-9028484D01*
X960539Y-9028484D02*
X941491Y-9018960D01*
X941491Y-9018960D02*
X931967Y-9009436D01*
X931967Y-9009436D02*
X922443Y-8990389D01*
X922443Y-8990389D02*
X912920Y-8952293D01*
X912920Y-8952293D02*
X912920Y-8904674D01*
X912920Y-8904674D02*
X922443Y-8866579D01*
X922443Y-8866579D02*
X931967Y-8847531D01*
X931967Y-8847531D02*
X941491Y-8838008D01*
X941491Y-8838008D02*
X960539Y-8828484D01*
X1112920Y-9028484D02*
X1112920Y-8895150D01*
X1112920Y-8914198D02*
X1122444Y-8904674D01*
X1122444Y-8904674D02*
X1141491Y-8895150D01*
X1141491Y-8895150D02*
X1170063Y-8895150D01*
X1170063Y-8895150D02*
X1189110Y-8904674D01*
X1189110Y-8904674D02*
X1198634Y-8923722D01*
X1198634Y-8923722D02*
X1198634Y-9028484D01*
X1198634Y-8923722D02*
X1208158Y-8904674D01*
X1208158Y-8904674D02*
X1227205Y-8895150D01*
X1227205Y-8895150D02*
X1255777Y-8895150D01*
X1255777Y-8895150D02*
X1274825Y-8904674D01*
X1274825Y-8904674D02*
X1284348Y-8923722D01*
X1284348Y-8923722D02*
X1284348Y-9028484D01*
X1379586Y-9028484D02*
X1379586Y-8895150D01*
X1379586Y-8914198D02*
X1389110Y-8904674D01*
X1389110Y-8904674D02*
X1408158Y-8895150D01*
X1408158Y-8895150D02*
X1436729Y-8895150D01*
X1436729Y-8895150D02*
X1455777Y-8904674D01*
X1455777Y-8904674D02*
X1465301Y-8923722D01*
X1465301Y-8923722D02*
X1465301Y-9028484D01*
X1465301Y-8923722D02*
X1474824Y-8904674D01*
X1474824Y-8904674D02*
X1493872Y-8895150D01*
X1493872Y-8895150D02*
X1522443Y-8895150D01*
X1522443Y-8895150D02*
X1541491Y-8904674D01*
X1541491Y-8904674D02*
X1551015Y-8923722D01*
X1551015Y-8923722D02*
X1551015Y-9028484D01*
X1941491Y-8818960D02*
X1770063Y-9076103D01*
X2198634Y-8828484D02*
X2217682Y-8828484D01*
X2217682Y-8828484D02*
X2236729Y-8838008D01*
X2236729Y-8838008D02*
X2246253Y-8847531D01*
X2246253Y-8847531D02*
X2255777Y-8866579D01*
X2255777Y-8866579D02*
X2265301Y-8904674D01*
X2265301Y-8904674D02*
X2265301Y-8952293D01*
X2265301Y-8952293D02*
X2255777Y-8990389D01*
X2255777Y-8990389D02*
X2246253Y-9009436D01*
X2246253Y-9009436D02*
X2236729Y-9018960D01*
X2236729Y-9018960D02*
X2217682Y-9028484D01*
X2217682Y-9028484D02*
X2198634Y-9028484D01*
X2198634Y-9028484D02*
X2179587Y-9018960D01*
X2179587Y-9018960D02*
X2170063Y-9009436D01*
X2170063Y-9009436D02*
X2160539Y-8990389D01*
X2160539Y-8990389D02*
X2151015Y-8952293D01*
X2151015Y-8952293D02*
X2151015Y-8904674D01*
X2151015Y-8904674D02*
X2160539Y-8866579D01*
X2160539Y-8866579D02*
X2170063Y-8847531D01*
X2170063Y-8847531D02*
X2179587Y-8838008D01*
X2179587Y-8838008D02*
X2198634Y-8828484D01*
X2351015Y-9009436D02*
X2360539Y-9018960D01*
X2360539Y-9018960D02*
X2351015Y-9028484D01*
X2351015Y-9028484D02*
X2341491Y-9018960D01*
X2341491Y-9018960D02*
X2351015Y-9009436D01*
X2351015Y-9009436D02*
X2351015Y-9028484D01*
X2484348Y-8828484D02*
X2503396Y-8828484D01*
X2503396Y-8828484D02*
X2522444Y-8838008D01*
X2522444Y-8838008D02*
X2531968Y-8847531D01*
X2531968Y-8847531D02*
X2541491Y-8866579D01*
X2541491Y-8866579D02*
X2551015Y-8904674D01*
X2551015Y-8904674D02*
X2551015Y-8952293D01*
X2551015Y-8952293D02*
X2541491Y-8990389D01*
X2541491Y-8990389D02*
X2531968Y-9009436D01*
X2531968Y-9009436D02*
X2522444Y-9018960D01*
X2522444Y-9018960D02*
X2503396Y-9028484D01*
X2503396Y-9028484D02*
X2484348Y-9028484D01*
X2484348Y-9028484D02*
X2465301Y-9018960D01*
X2465301Y-9018960D02*
X2455777Y-9009436D01*
X2455777Y-9009436D02*
X2446253Y-8990389D01*
X2446253Y-8990389D02*
X2436729Y-8952293D01*
X2436729Y-8952293D02*
X2436729Y-8904674D01*
X2436729Y-8904674D02*
X2446253Y-8866579D01*
X2446253Y-8866579D02*
X2455777Y-8847531D01*
X2455777Y-8847531D02*
X2465301Y-8838008D01*
X2465301Y-8838008D02*
X2484348Y-8828484D01*
X2741491Y-9028484D02*
X2627206Y-9028484D01*
X2684348Y-9028484D02*
X2684348Y-8828484D01*
X2684348Y-8828484D02*
X2665301Y-8857055D01*
X2665301Y-8857055D02*
X2646253Y-8876103D01*
X2646253Y-8876103D02*
X2627206Y-8885627D01*
X2808158Y-8828484D02*
X2941491Y-8828484D01*
X2941491Y-8828484D02*
X2855777Y-9028484D01*
X2998634Y-8828484D02*
X3131967Y-8828484D01*
X3131967Y-8828484D02*
X3046253Y-9028484D01*
X3198634Y-8828484D02*
X3198634Y-8866579D01*
X3274825Y-8828484D02*
X3274825Y-8866579D01*
X3570063Y-9104674D02*
X3560539Y-9095150D01*
X3560539Y-9095150D02*
X3541491Y-9066579D01*
X3541491Y-9066579D02*
X3531968Y-9047531D01*
X3531968Y-9047531D02*
X3522444Y-9018960D01*
X3522444Y-9018960D02*
X3512920Y-8971341D01*
X3512920Y-8971341D02*
X3512920Y-8933246D01*
X3512920Y-8933246D02*
X3522444Y-8885627D01*
X3522444Y-8885627D02*
X3531968Y-8857055D01*
X3531968Y-8857055D02*
X3541491Y-8838008D01*
X3541491Y-8838008D02*
X3560539Y-8809436D01*
X3560539Y-8809436D02*
X3570063Y-8799912D01*
X3627206Y-8828484D02*
X3751015Y-8828484D01*
X3751015Y-8828484D02*
X3684348Y-8904674D01*
X3684348Y-8904674D02*
X3712920Y-8904674D01*
X3712920Y-8904674D02*
X3731968Y-8914198D01*
X3731968Y-8914198D02*
X3741491Y-8923722D01*
X3741491Y-8923722D02*
X3751015Y-8942770D01*
X3751015Y-8942770D02*
X3751015Y-8990389D01*
X3751015Y-8990389D02*
X3741491Y-9009436D01*
X3741491Y-9009436D02*
X3731968Y-9018960D01*
X3731968Y-9018960D02*
X3712920Y-9028484D01*
X3712920Y-9028484D02*
X3655777Y-9028484D01*
X3655777Y-9028484D02*
X3636729Y-9018960D01*
X3636729Y-9018960D02*
X3627206Y-9009436D01*
X3989110Y-9028484D02*
X3989110Y-8828484D01*
X4074825Y-9028484D02*
X4074825Y-8923722D01*
X4074825Y-8923722D02*
X4065301Y-8904674D01*
X4065301Y-8904674D02*
X4046253Y-8895150D01*
X4046253Y-8895150D02*
X4017682Y-8895150D01*
X4017682Y-8895150D02*
X3998634Y-8904674D01*
X3998634Y-8904674D02*
X3989110Y-8914198D01*
X4198634Y-9028484D02*
X4179587Y-9018960D01*
X4179587Y-9018960D02*
X4170063Y-9009436D01*
X4170063Y-9009436D02*
X4160539Y-8990389D01*
X4160539Y-8990389D02*
X4160539Y-8933246D01*
X4160539Y-8933246D02*
X4170063Y-8914198D01*
X4170063Y-8914198D02*
X4179587Y-8904674D01*
X4179587Y-8904674D02*
X4198634Y-8895150D01*
X4198634Y-8895150D02*
X4227206Y-8895150D01*
X4227206Y-8895150D02*
X4246253Y-8904674D01*
X4246253Y-8904674D02*
X4255777Y-8914198D01*
X4255777Y-8914198D02*
X4265301Y-8933246D01*
X4265301Y-8933246D02*
X4265301Y-8990389D01*
X4265301Y-8990389D02*
X4255777Y-9009436D01*
X4255777Y-9009436D02*
X4246253Y-9018960D01*
X4246253Y-9018960D02*
X4227206Y-9028484D01*
X4227206Y-9028484D02*
X4198634Y-9028484D01*
X4379587Y-9028484D02*
X4360539Y-9018960D01*
X4360539Y-9018960D02*
X4351015Y-8999912D01*
X4351015Y-8999912D02*
X4351015Y-8828484D01*
X4531968Y-9018960D02*
X4512920Y-9028484D01*
X4512920Y-9028484D02*
X4474825Y-9028484D01*
X4474825Y-9028484D02*
X4455777Y-9018960D01*
X4455777Y-9018960D02*
X4446253Y-8999912D01*
X4446253Y-8999912D02*
X4446253Y-8923722D01*
X4446253Y-8923722D02*
X4455777Y-8904674D01*
X4455777Y-8904674D02*
X4474825Y-8895150D01*
X4474825Y-8895150D02*
X4512920Y-8895150D01*
X4512920Y-8895150D02*
X4531968Y-8904674D01*
X4531968Y-8904674D02*
X4541492Y-8923722D01*
X4541492Y-8923722D02*
X4541492Y-8942770D01*
X4541492Y-8942770D02*
X4446253Y-8961817D01*
X4617682Y-9018960D02*
X4636730Y-9028484D01*
X4636730Y-9028484D02*
X4674825Y-9028484D01*
X4674825Y-9028484D02*
X4693873Y-9018960D01*
X4693873Y-9018960D02*
X4703396Y-8999912D01*
X4703396Y-8999912D02*
X4703396Y-8990389D01*
X4703396Y-8990389D02*
X4693873Y-8971341D01*
X4693873Y-8971341D02*
X4674825Y-8961817D01*
X4674825Y-8961817D02*
X4646253Y-8961817D01*
X4646253Y-8961817D02*
X4627206Y-8952293D01*
X4627206Y-8952293D02*
X4617682Y-8933246D01*
X4617682Y-8933246D02*
X4617682Y-8923722D01*
X4617682Y-8923722D02*
X4627206Y-8904674D01*
X4627206Y-8904674D02*
X4646253Y-8895150D01*
X4646253Y-8895150D02*
X4674825Y-8895150D01*
X4674825Y-8895150D02*
X4693873Y-8904674D01*
X4770063Y-9104674D02*
X4779587Y-9095150D01*
X4779587Y-9095150D02*
X4798634Y-9066579D01*
X4798634Y-9066579D02*
X4808158Y-9047531D01*
X4808158Y-9047531D02*
X4817682Y-9018960D01*
X4817682Y-9018960D02*
X4827206Y-8971341D01*
X4827206Y-8971341D02*
X4827206Y-8933246D01*
X4827206Y-8933246D02*
X4817682Y-8885627D01*
X4817682Y-8885627D02*
X4808158Y-8857055D01*
X4808158Y-8857055D02*
X4798634Y-8838008D01*
X4798634Y-8838008D02*
X4779587Y-8809436D01*
X4779587Y-8809436D02*
X4770063Y-8799912D01*
D10*
X-35000Y-9231000D02*
X-5000Y-9201000D01*
X-35000Y-9171000D01*
X-65000Y-9201000D01*
X-35000Y-9231000D01*
D11*
X293872Y-9092484D02*
X312920Y-9092484D01*
X312920Y-9092484D02*
X331967Y-9102008D01*
X331967Y-9102008D02*
X341491Y-9111531D01*
X341491Y-9111531D02*
X351015Y-9130579D01*
X351015Y-9130579D02*
X360539Y-9168674D01*
X360539Y-9168674D02*
X360539Y-9216293D01*
X360539Y-9216293D02*
X351015Y-9254389D01*
X351015Y-9254389D02*
X341491Y-9273436D01*
X341491Y-9273436D02*
X331967Y-9282960D01*
X331967Y-9282960D02*
X312920Y-9292484D01*
X312920Y-9292484D02*
X293872Y-9292484D01*
X293872Y-9292484D02*
X274824Y-9282960D01*
X274824Y-9282960D02*
X265301Y-9273436D01*
X265301Y-9273436D02*
X255777Y-9254389D01*
X255777Y-9254389D02*
X246253Y-9216293D01*
X246253Y-9216293D02*
X246253Y-9168674D01*
X246253Y-9168674D02*
X255777Y-9130579D01*
X255777Y-9130579D02*
X265301Y-9111531D01*
X265301Y-9111531D02*
X274824Y-9102008D01*
X274824Y-9102008D02*
X293872Y-9092484D01*
X446253Y-9273436D02*
X455777Y-9282960D01*
X455777Y-9282960D02*
X446253Y-9292484D01*
X446253Y-9292484D02*
X436729Y-9282960D01*
X436729Y-9282960D02*
X446253Y-9273436D01*
X446253Y-9273436D02*
X446253Y-9292484D01*
X627205Y-9092484D02*
X589110Y-9092484D01*
X589110Y-9092484D02*
X570063Y-9102008D01*
X570063Y-9102008D02*
X560539Y-9111531D01*
X560539Y-9111531D02*
X541491Y-9140103D01*
X541491Y-9140103D02*
X531967Y-9178198D01*
X531967Y-9178198D02*
X531967Y-9254389D01*
X531967Y-9254389D02*
X541491Y-9273436D01*
X541491Y-9273436D02*
X551015Y-9282960D01*
X551015Y-9282960D02*
X570063Y-9292484D01*
X570063Y-9292484D02*
X608158Y-9292484D01*
X608158Y-9292484D02*
X627205Y-9282960D01*
X627205Y-9282960D02*
X636729Y-9273436D01*
X636729Y-9273436D02*
X646253Y-9254389D01*
X646253Y-9254389D02*
X646253Y-9206770D01*
X646253Y-9206770D02*
X636729Y-9187722D01*
X636729Y-9187722D02*
X627205Y-9178198D01*
X627205Y-9178198D02*
X608158Y-9168674D01*
X608158Y-9168674D02*
X570063Y-9168674D01*
X570063Y-9168674D02*
X551015Y-9178198D01*
X551015Y-9178198D02*
X541491Y-9187722D01*
X541491Y-9187722D02*
X531967Y-9206770D01*
X770062Y-9092484D02*
X789110Y-9092484D01*
X789110Y-9092484D02*
X808158Y-9102008D01*
X808158Y-9102008D02*
X817682Y-9111531D01*
X817682Y-9111531D02*
X827205Y-9130579D01*
X827205Y-9130579D02*
X836729Y-9168674D01*
X836729Y-9168674D02*
X836729Y-9216293D01*
X836729Y-9216293D02*
X827205Y-9254389D01*
X827205Y-9254389D02*
X817682Y-9273436D01*
X817682Y-9273436D02*
X808158Y-9282960D01*
X808158Y-9282960D02*
X789110Y-9292484D01*
X789110Y-9292484D02*
X770062Y-9292484D01*
X770062Y-9292484D02*
X751015Y-9282960D01*
X751015Y-9282960D02*
X741491Y-9273436D01*
X741491Y-9273436D02*
X731967Y-9254389D01*
X731967Y-9254389D02*
X722443Y-9216293D01*
X722443Y-9216293D02*
X722443Y-9168674D01*
X722443Y-9168674D02*
X731967Y-9130579D01*
X731967Y-9130579D02*
X741491Y-9111531D01*
X741491Y-9111531D02*
X751015Y-9102008D01*
X751015Y-9102008D02*
X770062Y-9092484D01*
X960539Y-9092484D02*
X979586Y-9092484D01*
X979586Y-9092484D02*
X998634Y-9102008D01*
X998634Y-9102008D02*
X1008158Y-9111531D01*
X1008158Y-9111531D02*
X1017682Y-9130579D01*
X1017682Y-9130579D02*
X1027205Y-9168674D01*
X1027205Y-9168674D02*
X1027205Y-9216293D01*
X1027205Y-9216293D02*
X1017682Y-9254389D01*
X1017682Y-9254389D02*
X1008158Y-9273436D01*
X1008158Y-9273436D02*
X998634Y-9282960D01*
X998634Y-9282960D02*
X979586Y-9292484D01*
X979586Y-9292484D02*
X960539Y-9292484D01*
X960539Y-9292484D02*
X941491Y-9282960D01*
X941491Y-9282960D02*
X931967Y-9273436D01*
X931967Y-9273436D02*
X922443Y-9254389D01*
X922443Y-9254389D02*
X912920Y-9216293D01*
X912920Y-9216293D02*
X912920Y-9168674D01*
X912920Y-9168674D02*
X922443Y-9130579D01*
X922443Y-9130579D02*
X931967Y-9111531D01*
X931967Y-9111531D02*
X941491Y-9102008D01*
X941491Y-9102008D02*
X960539Y-9092484D01*
X1112920Y-9292484D02*
X1112920Y-9159150D01*
X1112920Y-9178198D02*
X1122444Y-9168674D01*
X1122444Y-9168674D02*
X1141491Y-9159150D01*
X1141491Y-9159150D02*
X1170063Y-9159150D01*
X1170063Y-9159150D02*
X1189110Y-9168674D01*
X1189110Y-9168674D02*
X1198634Y-9187722D01*
X1198634Y-9187722D02*
X1198634Y-9292484D01*
X1198634Y-9187722D02*
X1208158Y-9168674D01*
X1208158Y-9168674D02*
X1227205Y-9159150D01*
X1227205Y-9159150D02*
X1255777Y-9159150D01*
X1255777Y-9159150D02*
X1274825Y-9168674D01*
X1274825Y-9168674D02*
X1284348Y-9187722D01*
X1284348Y-9187722D02*
X1284348Y-9292484D01*
X1379586Y-9292484D02*
X1379586Y-9159150D01*
X1379586Y-9178198D02*
X1389110Y-9168674D01*
X1389110Y-9168674D02*
X1408158Y-9159150D01*
X1408158Y-9159150D02*
X1436729Y-9159150D01*
X1436729Y-9159150D02*
X1455777Y-9168674D01*
X1455777Y-9168674D02*
X1465301Y-9187722D01*
X1465301Y-9187722D02*
X1465301Y-9292484D01*
X1465301Y-9187722D02*
X1474824Y-9168674D01*
X1474824Y-9168674D02*
X1493872Y-9159150D01*
X1493872Y-9159150D02*
X1522443Y-9159150D01*
X1522443Y-9159150D02*
X1541491Y-9168674D01*
X1541491Y-9168674D02*
X1551015Y-9187722D01*
X1551015Y-9187722D02*
X1551015Y-9292484D01*
X1941491Y-9082960D02*
X1770063Y-9340103D01*
X2198634Y-9092484D02*
X2217682Y-9092484D01*
X2217682Y-9092484D02*
X2236729Y-9102008D01*
X2236729Y-9102008D02*
X2246253Y-9111531D01*
X2246253Y-9111531D02*
X2255777Y-9130579D01*
X2255777Y-9130579D02*
X2265301Y-9168674D01*
X2265301Y-9168674D02*
X2265301Y-9216293D01*
X2265301Y-9216293D02*
X2255777Y-9254389D01*
X2255777Y-9254389D02*
X2246253Y-9273436D01*
X2246253Y-9273436D02*
X2236729Y-9282960D01*
X2236729Y-9282960D02*
X2217682Y-9292484D01*
X2217682Y-9292484D02*
X2198634Y-9292484D01*
X2198634Y-9292484D02*
X2179587Y-9282960D01*
X2179587Y-9282960D02*
X2170063Y-9273436D01*
X2170063Y-9273436D02*
X2160539Y-9254389D01*
X2160539Y-9254389D02*
X2151015Y-9216293D01*
X2151015Y-9216293D02*
X2151015Y-9168674D01*
X2151015Y-9168674D02*
X2160539Y-9130579D01*
X2160539Y-9130579D02*
X2170063Y-9111531D01*
X2170063Y-9111531D02*
X2179587Y-9102008D01*
X2179587Y-9102008D02*
X2198634Y-9092484D01*
X2351015Y-9273436D02*
X2360539Y-9282960D01*
X2360539Y-9282960D02*
X2351015Y-9292484D01*
X2351015Y-9292484D02*
X2341491Y-9282960D01*
X2341491Y-9282960D02*
X2351015Y-9273436D01*
X2351015Y-9273436D02*
X2351015Y-9292484D01*
X2484348Y-9092484D02*
X2503396Y-9092484D01*
X2503396Y-9092484D02*
X2522444Y-9102008D01*
X2522444Y-9102008D02*
X2531968Y-9111531D01*
X2531968Y-9111531D02*
X2541491Y-9130579D01*
X2541491Y-9130579D02*
X2551015Y-9168674D01*
X2551015Y-9168674D02*
X2551015Y-9216293D01*
X2551015Y-9216293D02*
X2541491Y-9254389D01*
X2541491Y-9254389D02*
X2531968Y-9273436D01*
X2531968Y-9273436D02*
X2522444Y-9282960D01*
X2522444Y-9282960D02*
X2503396Y-9292484D01*
X2503396Y-9292484D02*
X2484348Y-9292484D01*
X2484348Y-9292484D02*
X2465301Y-9282960D01*
X2465301Y-9282960D02*
X2455777Y-9273436D01*
X2455777Y-9273436D02*
X2446253Y-9254389D01*
X2446253Y-9254389D02*
X2436729Y-9216293D01*
X2436729Y-9216293D02*
X2436729Y-9168674D01*
X2436729Y-9168674D02*
X2446253Y-9130579D01*
X2446253Y-9130579D02*
X2455777Y-9111531D01*
X2455777Y-9111531D02*
X2465301Y-9102008D01*
X2465301Y-9102008D02*
X2484348Y-9092484D01*
X2627206Y-9111531D02*
X2636729Y-9102008D01*
X2636729Y-9102008D02*
X2655777Y-9092484D01*
X2655777Y-9092484D02*
X2703396Y-9092484D01*
X2703396Y-9092484D02*
X2722444Y-9102008D01*
X2722444Y-9102008D02*
X2731968Y-9111531D01*
X2731968Y-9111531D02*
X2741491Y-9130579D01*
X2741491Y-9130579D02*
X2741491Y-9149627D01*
X2741491Y-9149627D02*
X2731968Y-9178198D01*
X2731968Y-9178198D02*
X2617682Y-9292484D01*
X2617682Y-9292484D02*
X2741491Y-9292484D01*
X2808158Y-9092484D02*
X2931967Y-9092484D01*
X2931967Y-9092484D02*
X2865301Y-9168674D01*
X2865301Y-9168674D02*
X2893872Y-9168674D01*
X2893872Y-9168674D02*
X2912920Y-9178198D01*
X2912920Y-9178198D02*
X2922444Y-9187722D01*
X2922444Y-9187722D02*
X2931967Y-9206770D01*
X2931967Y-9206770D02*
X2931967Y-9254389D01*
X2931967Y-9254389D02*
X2922444Y-9273436D01*
X2922444Y-9273436D02*
X2912920Y-9282960D01*
X2912920Y-9282960D02*
X2893872Y-9292484D01*
X2893872Y-9292484D02*
X2836729Y-9292484D01*
X2836729Y-9292484D02*
X2817682Y-9282960D01*
X2817682Y-9282960D02*
X2808158Y-9273436D01*
X3103396Y-9092484D02*
X3065301Y-9092484D01*
X3065301Y-9092484D02*
X3046253Y-9102008D01*
X3046253Y-9102008D02*
X3036729Y-9111531D01*
X3036729Y-9111531D02*
X3017682Y-9140103D01*
X3017682Y-9140103D02*
X3008158Y-9178198D01*
X3008158Y-9178198D02*
X3008158Y-9254389D01*
X3008158Y-9254389D02*
X3017682Y-9273436D01*
X3017682Y-9273436D02*
X3027206Y-9282960D01*
X3027206Y-9282960D02*
X3046253Y-9292484D01*
X3046253Y-9292484D02*
X3084348Y-9292484D01*
X3084348Y-9292484D02*
X3103396Y-9282960D01*
X3103396Y-9282960D02*
X3112920Y-9273436D01*
X3112920Y-9273436D02*
X3122444Y-9254389D01*
X3122444Y-9254389D02*
X3122444Y-9206770D01*
X3122444Y-9206770D02*
X3112920Y-9187722D01*
X3112920Y-9187722D02*
X3103396Y-9178198D01*
X3103396Y-9178198D02*
X3084348Y-9168674D01*
X3084348Y-9168674D02*
X3046253Y-9168674D01*
X3046253Y-9168674D02*
X3027206Y-9178198D01*
X3027206Y-9178198D02*
X3017682Y-9187722D01*
X3017682Y-9187722D02*
X3008158Y-9206770D01*
X3198634Y-9092484D02*
X3198634Y-9130579D01*
X3274825Y-9092484D02*
X3274825Y-9130579D01*
X3570063Y-9368674D02*
X3560539Y-9359150D01*
X3560539Y-9359150D02*
X3541491Y-9330579D01*
X3541491Y-9330579D02*
X3531968Y-9311531D01*
X3531968Y-9311531D02*
X3522444Y-9282960D01*
X3522444Y-9282960D02*
X3512920Y-9235341D01*
X3512920Y-9235341D02*
X3512920Y-9197246D01*
X3512920Y-9197246D02*
X3522444Y-9149627D01*
X3522444Y-9149627D02*
X3531968Y-9121055D01*
X3531968Y-9121055D02*
X3541491Y-9102008D01*
X3541491Y-9102008D02*
X3560539Y-9073436D01*
X3560539Y-9073436D02*
X3570063Y-9063912D01*
X3684348Y-9092484D02*
X3703396Y-9092484D01*
X3703396Y-9092484D02*
X3722444Y-9102008D01*
X3722444Y-9102008D02*
X3731968Y-9111531D01*
X3731968Y-9111531D02*
X3741491Y-9130579D01*
X3741491Y-9130579D02*
X3751015Y-9168674D01*
X3751015Y-9168674D02*
X3751015Y-9216293D01*
X3751015Y-9216293D02*
X3741491Y-9254389D01*
X3741491Y-9254389D02*
X3731968Y-9273436D01*
X3731968Y-9273436D02*
X3722444Y-9282960D01*
X3722444Y-9282960D02*
X3703396Y-9292484D01*
X3703396Y-9292484D02*
X3684348Y-9292484D01*
X3684348Y-9292484D02*
X3665301Y-9282960D01*
X3665301Y-9282960D02*
X3655777Y-9273436D01*
X3655777Y-9273436D02*
X3646253Y-9254389D01*
X3646253Y-9254389D02*
X3636729Y-9216293D01*
X3636729Y-9216293D02*
X3636729Y-9168674D01*
X3636729Y-9168674D02*
X3646253Y-9130579D01*
X3646253Y-9130579D02*
X3655777Y-9111531D01*
X3655777Y-9111531D02*
X3665301Y-9102008D01*
X3665301Y-9102008D02*
X3684348Y-9092484D01*
X3989110Y-9292484D02*
X3989110Y-9092484D01*
X4074825Y-9292484D02*
X4074825Y-9187722D01*
X4074825Y-9187722D02*
X4065301Y-9168674D01*
X4065301Y-9168674D02*
X4046253Y-9159150D01*
X4046253Y-9159150D02*
X4017682Y-9159150D01*
X4017682Y-9159150D02*
X3998634Y-9168674D01*
X3998634Y-9168674D02*
X3989110Y-9178198D01*
X4198634Y-9292484D02*
X4179587Y-9282960D01*
X4179587Y-9282960D02*
X4170063Y-9273436D01*
X4170063Y-9273436D02*
X4160539Y-9254389D01*
X4160539Y-9254389D02*
X4160539Y-9197246D01*
X4160539Y-9197246D02*
X4170063Y-9178198D01*
X4170063Y-9178198D02*
X4179587Y-9168674D01*
X4179587Y-9168674D02*
X4198634Y-9159150D01*
X4198634Y-9159150D02*
X4227206Y-9159150D01*
X4227206Y-9159150D02*
X4246253Y-9168674D01*
X4246253Y-9168674D02*
X4255777Y-9178198D01*
X4255777Y-9178198D02*
X4265301Y-9197246D01*
X4265301Y-9197246D02*
X4265301Y-9254389D01*
X4265301Y-9254389D02*
X4255777Y-9273436D01*
X4255777Y-9273436D02*
X4246253Y-9282960D01*
X4246253Y-9282960D02*
X4227206Y-9292484D01*
X4227206Y-9292484D02*
X4198634Y-9292484D01*
X4379587Y-9292484D02*
X4360539Y-9282960D01*
X4360539Y-9282960D02*
X4351015Y-9263912D01*
X4351015Y-9263912D02*
X4351015Y-9092484D01*
X4531968Y-9282960D02*
X4512920Y-9292484D01*
X4512920Y-9292484D02*
X4474825Y-9292484D01*
X4474825Y-9292484D02*
X4455777Y-9282960D01*
X4455777Y-9282960D02*
X4446253Y-9263912D01*
X4446253Y-9263912D02*
X4446253Y-9187722D01*
X4446253Y-9187722D02*
X4455777Y-9168674D01*
X4455777Y-9168674D02*
X4474825Y-9159150D01*
X4474825Y-9159150D02*
X4512920Y-9159150D01*
X4512920Y-9159150D02*
X4531968Y-9168674D01*
X4531968Y-9168674D02*
X4541492Y-9187722D01*
X4541492Y-9187722D02*
X4541492Y-9206770D01*
X4541492Y-9206770D02*
X4446253Y-9225817D01*
X4617682Y-9282960D02*
X4636730Y-9292484D01*
X4636730Y-9292484D02*
X4674825Y-9292484D01*
X4674825Y-9292484D02*
X4693873Y-9282960D01*
X4693873Y-9282960D02*
X4703396Y-9263912D01*
X4703396Y-9263912D02*
X4703396Y-9254389D01*
X4703396Y-9254389D02*
X4693873Y-9235341D01*
X4693873Y-9235341D02*
X4674825Y-9225817D01*
X4674825Y-9225817D02*
X4646253Y-9225817D01*
X4646253Y-9225817D02*
X4627206Y-9216293D01*
X4627206Y-9216293D02*
X4617682Y-9197246D01*
X4617682Y-9197246D02*
X4617682Y-9187722D01*
X4617682Y-9187722D02*
X4627206Y-9168674D01*
X4627206Y-9168674D02*
X4646253Y-9159150D01*
X4646253Y-9159150D02*
X4674825Y-9159150D01*
X4674825Y-9159150D02*
X4693873Y-9168674D01*
X4941492Y-9216293D02*
X5093873Y-9216293D01*
X5017682Y-9292484D02*
X5017682Y-9140103D01*
X5427206Y-9159150D02*
X5427206Y-9292484D01*
X5379587Y-9082960D02*
X5331968Y-9225817D01*
X5331968Y-9225817D02*
X5455777Y-9225817D01*
X5674825Y-9282960D02*
X5693873Y-9292484D01*
X5693873Y-9292484D02*
X5731968Y-9292484D01*
X5731968Y-9292484D02*
X5751015Y-9282960D01*
X5751015Y-9282960D02*
X5760539Y-9263912D01*
X5760539Y-9263912D02*
X5760539Y-9254389D01*
X5760539Y-9254389D02*
X5751015Y-9235341D01*
X5751015Y-9235341D02*
X5731968Y-9225817D01*
X5731968Y-9225817D02*
X5703396Y-9225817D01*
X5703396Y-9225817D02*
X5684349Y-9216293D01*
X5684349Y-9216293D02*
X5674825Y-9197246D01*
X5674825Y-9197246D02*
X5674825Y-9187722D01*
X5674825Y-9187722D02*
X5684349Y-9168674D01*
X5684349Y-9168674D02*
X5703396Y-9159150D01*
X5703396Y-9159150D02*
X5731968Y-9159150D01*
X5731968Y-9159150D02*
X5751015Y-9168674D01*
X5874825Y-9292484D02*
X5855777Y-9282960D01*
X5855777Y-9282960D02*
X5846254Y-9263912D01*
X5846254Y-9263912D02*
X5846254Y-9092484D01*
X5979587Y-9292484D02*
X5960539Y-9282960D01*
X5960539Y-9282960D02*
X5951015Y-9273436D01*
X5951015Y-9273436D02*
X5941492Y-9254389D01*
X5941492Y-9254389D02*
X5941492Y-9197246D01*
X5941492Y-9197246D02*
X5951015Y-9178198D01*
X5951015Y-9178198D02*
X5960539Y-9168674D01*
X5960539Y-9168674D02*
X5979587Y-9159150D01*
X5979587Y-9159150D02*
X6008158Y-9159150D01*
X6008158Y-9159150D02*
X6027206Y-9168674D01*
X6027206Y-9168674D02*
X6036730Y-9178198D01*
X6036730Y-9178198D02*
X6046254Y-9197246D01*
X6046254Y-9197246D02*
X6046254Y-9254389D01*
X6046254Y-9254389D02*
X6036730Y-9273436D01*
X6036730Y-9273436D02*
X6027206Y-9282960D01*
X6027206Y-9282960D02*
X6008158Y-9292484D01*
X6008158Y-9292484D02*
X5979587Y-9292484D01*
X6103396Y-9159150D02*
X6179587Y-9159150D01*
X6131968Y-9092484D02*
X6131968Y-9263912D01*
X6131968Y-9263912D02*
X6141492Y-9282960D01*
X6141492Y-9282960D02*
X6160539Y-9292484D01*
X6160539Y-9292484D02*
X6179587Y-9292484D01*
X6236730Y-9282960D02*
X6255777Y-9292484D01*
X6255777Y-9292484D02*
X6293873Y-9292484D01*
X6293873Y-9292484D02*
X6312920Y-9282960D01*
X6312920Y-9282960D02*
X6322444Y-9263912D01*
X6322444Y-9263912D02*
X6322444Y-9254389D01*
X6322444Y-9254389D02*
X6312920Y-9235341D01*
X6312920Y-9235341D02*
X6293873Y-9225817D01*
X6293873Y-9225817D02*
X6265301Y-9225817D01*
X6265301Y-9225817D02*
X6246254Y-9216293D01*
X6246254Y-9216293D02*
X6236730Y-9197246D01*
X6236730Y-9197246D02*
X6236730Y-9187722D01*
X6236730Y-9187722D02*
X6246254Y-9168674D01*
X6246254Y-9168674D02*
X6265301Y-9159150D01*
X6265301Y-9159150D02*
X6293873Y-9159150D01*
X6293873Y-9159150D02*
X6312920Y-9168674D01*
X6389111Y-9368674D02*
X6398635Y-9359150D01*
X6398635Y-9359150D02*
X6417682Y-9330579D01*
X6417682Y-9330579D02*
X6427206Y-9311531D01*
X6427206Y-9311531D02*
X6436730Y-9282960D01*
X6436730Y-9282960D02*
X6446254Y-9235341D01*
X6446254Y-9235341D02*
X6446254Y-9197246D01*
X6446254Y-9197246D02*
X6436730Y-9149627D01*
X6436730Y-9149627D02*
X6427206Y-9121055D01*
X6427206Y-9121055D02*
X6417682Y-9102008D01*
X6417682Y-9102008D02*
X6398635Y-9073436D01*
X6398635Y-9073436D02*
X6389111Y-9063912D01*
D10*
X-95000Y-9420000D02*
X-5000Y-9510000D01*
X-5000Y-9420000D02*
X-95000Y-9510000D01*
X-5000Y-9465000D02*
G75*
G02*
X-95000Y-9465000I-45000J0D01*
G01*
X-95000Y-9465000D02*
G75*
G02*
X-5000Y-9465000I45000J0D01*
G01*
D11*
X293872Y-9356484D02*
X312920Y-9356484D01*
X312920Y-9356484D02*
X331967Y-9366008D01*
X331967Y-9366008D02*
X341491Y-9375531D01*
X341491Y-9375531D02*
X351015Y-9394579D01*
X351015Y-9394579D02*
X360539Y-9432674D01*
X360539Y-9432674D02*
X360539Y-9480293D01*
X360539Y-9480293D02*
X351015Y-9518389D01*
X351015Y-9518389D02*
X341491Y-9537436D01*
X341491Y-9537436D02*
X331967Y-9546960D01*
X331967Y-9546960D02*
X312920Y-9556484D01*
X312920Y-9556484D02*
X293872Y-9556484D01*
X293872Y-9556484D02*
X274824Y-9546960D01*
X274824Y-9546960D02*
X265301Y-9537436D01*
X265301Y-9537436D02*
X255777Y-9518389D01*
X255777Y-9518389D02*
X246253Y-9480293D01*
X246253Y-9480293D02*
X246253Y-9432674D01*
X246253Y-9432674D02*
X255777Y-9394579D01*
X255777Y-9394579D02*
X265301Y-9375531D01*
X265301Y-9375531D02*
X274824Y-9366008D01*
X274824Y-9366008D02*
X293872Y-9356484D01*
X446253Y-9537436D02*
X455777Y-9546960D01*
X455777Y-9546960D02*
X446253Y-9556484D01*
X446253Y-9556484D02*
X436729Y-9546960D01*
X436729Y-9546960D02*
X446253Y-9537436D01*
X446253Y-9537436D02*
X446253Y-9556484D01*
X551015Y-9556484D02*
X589110Y-9556484D01*
X589110Y-9556484D02*
X608158Y-9546960D01*
X608158Y-9546960D02*
X617682Y-9537436D01*
X617682Y-9537436D02*
X636729Y-9508865D01*
X636729Y-9508865D02*
X646253Y-9470770D01*
X646253Y-9470770D02*
X646253Y-9394579D01*
X646253Y-9394579D02*
X636729Y-9375531D01*
X636729Y-9375531D02*
X627205Y-9366008D01*
X627205Y-9366008D02*
X608158Y-9356484D01*
X608158Y-9356484D02*
X570063Y-9356484D01*
X570063Y-9356484D02*
X551015Y-9366008D01*
X551015Y-9366008D02*
X541491Y-9375531D01*
X541491Y-9375531D02*
X531967Y-9394579D01*
X531967Y-9394579D02*
X531967Y-9442198D01*
X531967Y-9442198D02*
X541491Y-9461246D01*
X541491Y-9461246D02*
X551015Y-9470770D01*
X551015Y-9470770D02*
X570063Y-9480293D01*
X570063Y-9480293D02*
X608158Y-9480293D01*
X608158Y-9480293D02*
X627205Y-9470770D01*
X627205Y-9470770D02*
X636729Y-9461246D01*
X636729Y-9461246D02*
X646253Y-9442198D01*
X770062Y-9356484D02*
X789110Y-9356484D01*
X789110Y-9356484D02*
X808158Y-9366008D01*
X808158Y-9366008D02*
X817682Y-9375531D01*
X817682Y-9375531D02*
X827205Y-9394579D01*
X827205Y-9394579D02*
X836729Y-9432674D01*
X836729Y-9432674D02*
X836729Y-9480293D01*
X836729Y-9480293D02*
X827205Y-9518389D01*
X827205Y-9518389D02*
X817682Y-9537436D01*
X817682Y-9537436D02*
X808158Y-9546960D01*
X808158Y-9546960D02*
X789110Y-9556484D01*
X789110Y-9556484D02*
X770062Y-9556484D01*
X770062Y-9556484D02*
X751015Y-9546960D01*
X751015Y-9546960D02*
X741491Y-9537436D01*
X741491Y-9537436D02*
X731967Y-9518389D01*
X731967Y-9518389D02*
X722443Y-9480293D01*
X722443Y-9480293D02*
X722443Y-9432674D01*
X722443Y-9432674D02*
X731967Y-9394579D01*
X731967Y-9394579D02*
X741491Y-9375531D01*
X741491Y-9375531D02*
X751015Y-9366008D01*
X751015Y-9366008D02*
X770062Y-9356484D01*
X960539Y-9356484D02*
X979586Y-9356484D01*
X979586Y-9356484D02*
X998634Y-9366008D01*
X998634Y-9366008D02*
X1008158Y-9375531D01*
X1008158Y-9375531D02*
X1017682Y-9394579D01*
X1017682Y-9394579D02*
X1027205Y-9432674D01*
X1027205Y-9432674D02*
X1027205Y-9480293D01*
X1027205Y-9480293D02*
X1017682Y-9518389D01*
X1017682Y-9518389D02*
X1008158Y-9537436D01*
X1008158Y-9537436D02*
X998634Y-9546960D01*
X998634Y-9546960D02*
X979586Y-9556484D01*
X979586Y-9556484D02*
X960539Y-9556484D01*
X960539Y-9556484D02*
X941491Y-9546960D01*
X941491Y-9546960D02*
X931967Y-9537436D01*
X931967Y-9537436D02*
X922443Y-9518389D01*
X922443Y-9518389D02*
X912920Y-9480293D01*
X912920Y-9480293D02*
X912920Y-9432674D01*
X912920Y-9432674D02*
X922443Y-9394579D01*
X922443Y-9394579D02*
X931967Y-9375531D01*
X931967Y-9375531D02*
X941491Y-9366008D01*
X941491Y-9366008D02*
X960539Y-9356484D01*
X1112920Y-9556484D02*
X1112920Y-9423150D01*
X1112920Y-9442198D02*
X1122444Y-9432674D01*
X1122444Y-9432674D02*
X1141491Y-9423150D01*
X1141491Y-9423150D02*
X1170063Y-9423150D01*
X1170063Y-9423150D02*
X1189110Y-9432674D01*
X1189110Y-9432674D02*
X1198634Y-9451722D01*
X1198634Y-9451722D02*
X1198634Y-9556484D01*
X1198634Y-9451722D02*
X1208158Y-9432674D01*
X1208158Y-9432674D02*
X1227205Y-9423150D01*
X1227205Y-9423150D02*
X1255777Y-9423150D01*
X1255777Y-9423150D02*
X1274825Y-9432674D01*
X1274825Y-9432674D02*
X1284348Y-9451722D01*
X1284348Y-9451722D02*
X1284348Y-9556484D01*
X1379586Y-9556484D02*
X1379586Y-9423150D01*
X1379586Y-9442198D02*
X1389110Y-9432674D01*
X1389110Y-9432674D02*
X1408158Y-9423150D01*
X1408158Y-9423150D02*
X1436729Y-9423150D01*
X1436729Y-9423150D02*
X1455777Y-9432674D01*
X1455777Y-9432674D02*
X1465301Y-9451722D01*
X1465301Y-9451722D02*
X1465301Y-9556484D01*
X1465301Y-9451722D02*
X1474824Y-9432674D01*
X1474824Y-9432674D02*
X1493872Y-9423150D01*
X1493872Y-9423150D02*
X1522443Y-9423150D01*
X1522443Y-9423150D02*
X1541491Y-9432674D01*
X1541491Y-9432674D02*
X1551015Y-9451722D01*
X1551015Y-9451722D02*
X1551015Y-9556484D01*
X1941491Y-9346960D02*
X1770063Y-9604103D01*
X2198634Y-9356484D02*
X2217682Y-9356484D01*
X2217682Y-9356484D02*
X2236729Y-9366008D01*
X2236729Y-9366008D02*
X2246253Y-9375531D01*
X2246253Y-9375531D02*
X2255777Y-9394579D01*
X2255777Y-9394579D02*
X2265301Y-9432674D01*
X2265301Y-9432674D02*
X2265301Y-9480293D01*
X2265301Y-9480293D02*
X2255777Y-9518389D01*
X2255777Y-9518389D02*
X2246253Y-9537436D01*
X2246253Y-9537436D02*
X2236729Y-9546960D01*
X2236729Y-9546960D02*
X2217682Y-9556484D01*
X2217682Y-9556484D02*
X2198634Y-9556484D01*
X2198634Y-9556484D02*
X2179587Y-9546960D01*
X2179587Y-9546960D02*
X2170063Y-9537436D01*
X2170063Y-9537436D02*
X2160539Y-9518389D01*
X2160539Y-9518389D02*
X2151015Y-9480293D01*
X2151015Y-9480293D02*
X2151015Y-9432674D01*
X2151015Y-9432674D02*
X2160539Y-9394579D01*
X2160539Y-9394579D02*
X2170063Y-9375531D01*
X2170063Y-9375531D02*
X2179587Y-9366008D01*
X2179587Y-9366008D02*
X2198634Y-9356484D01*
X2351015Y-9537436D02*
X2360539Y-9546960D01*
X2360539Y-9546960D02*
X2351015Y-9556484D01*
X2351015Y-9556484D02*
X2341491Y-9546960D01*
X2341491Y-9546960D02*
X2351015Y-9537436D01*
X2351015Y-9537436D02*
X2351015Y-9556484D01*
X2484348Y-9356484D02*
X2503396Y-9356484D01*
X2503396Y-9356484D02*
X2522444Y-9366008D01*
X2522444Y-9366008D02*
X2531968Y-9375531D01*
X2531968Y-9375531D02*
X2541491Y-9394579D01*
X2541491Y-9394579D02*
X2551015Y-9432674D01*
X2551015Y-9432674D02*
X2551015Y-9480293D01*
X2551015Y-9480293D02*
X2541491Y-9518389D01*
X2541491Y-9518389D02*
X2531968Y-9537436D01*
X2531968Y-9537436D02*
X2522444Y-9546960D01*
X2522444Y-9546960D02*
X2503396Y-9556484D01*
X2503396Y-9556484D02*
X2484348Y-9556484D01*
X2484348Y-9556484D02*
X2465301Y-9546960D01*
X2465301Y-9546960D02*
X2455777Y-9537436D01*
X2455777Y-9537436D02*
X2446253Y-9518389D01*
X2446253Y-9518389D02*
X2436729Y-9480293D01*
X2436729Y-9480293D02*
X2436729Y-9432674D01*
X2436729Y-9432674D02*
X2446253Y-9394579D01*
X2446253Y-9394579D02*
X2455777Y-9375531D01*
X2455777Y-9375531D02*
X2465301Y-9366008D01*
X2465301Y-9366008D02*
X2484348Y-9356484D01*
X2617682Y-9356484D02*
X2741491Y-9356484D01*
X2741491Y-9356484D02*
X2674825Y-9432674D01*
X2674825Y-9432674D02*
X2703396Y-9432674D01*
X2703396Y-9432674D02*
X2722444Y-9442198D01*
X2722444Y-9442198D02*
X2731968Y-9451722D01*
X2731968Y-9451722D02*
X2741491Y-9470770D01*
X2741491Y-9470770D02*
X2741491Y-9518389D01*
X2741491Y-9518389D02*
X2731968Y-9537436D01*
X2731968Y-9537436D02*
X2722444Y-9546960D01*
X2722444Y-9546960D02*
X2703396Y-9556484D01*
X2703396Y-9556484D02*
X2646253Y-9556484D01*
X2646253Y-9556484D02*
X2627206Y-9546960D01*
X2627206Y-9546960D02*
X2617682Y-9537436D01*
X2922444Y-9356484D02*
X2827206Y-9356484D01*
X2827206Y-9356484D02*
X2817682Y-9451722D01*
X2817682Y-9451722D02*
X2827206Y-9442198D01*
X2827206Y-9442198D02*
X2846253Y-9432674D01*
X2846253Y-9432674D02*
X2893872Y-9432674D01*
X2893872Y-9432674D02*
X2912920Y-9442198D01*
X2912920Y-9442198D02*
X2922444Y-9451722D01*
X2922444Y-9451722D02*
X2931967Y-9470770D01*
X2931967Y-9470770D02*
X2931967Y-9518389D01*
X2931967Y-9518389D02*
X2922444Y-9537436D01*
X2922444Y-9537436D02*
X2912920Y-9546960D01*
X2912920Y-9546960D02*
X2893872Y-9556484D01*
X2893872Y-9556484D02*
X2846253Y-9556484D01*
X2846253Y-9556484D02*
X2827206Y-9546960D01*
X2827206Y-9546960D02*
X2817682Y-9537436D01*
X3103396Y-9423150D02*
X3103396Y-9556484D01*
X3055777Y-9346960D02*
X3008158Y-9489817D01*
X3008158Y-9489817D02*
X3131967Y-9489817D01*
X3198634Y-9356484D02*
X3198634Y-9394579D01*
X3274825Y-9356484D02*
X3274825Y-9394579D01*
X3570063Y-9632674D02*
X3560539Y-9623150D01*
X3560539Y-9623150D02*
X3541491Y-9594579D01*
X3541491Y-9594579D02*
X3531968Y-9575531D01*
X3531968Y-9575531D02*
X3522444Y-9546960D01*
X3522444Y-9546960D02*
X3512920Y-9499341D01*
X3512920Y-9499341D02*
X3512920Y-9461246D01*
X3512920Y-9461246D02*
X3522444Y-9413627D01*
X3522444Y-9413627D02*
X3531968Y-9385055D01*
X3531968Y-9385055D02*
X3541491Y-9366008D01*
X3541491Y-9366008D02*
X3560539Y-9337436D01*
X3560539Y-9337436D02*
X3570063Y-9327912D01*
X3636729Y-9375531D02*
X3646253Y-9366008D01*
X3646253Y-9366008D02*
X3665301Y-9356484D01*
X3665301Y-9356484D02*
X3712920Y-9356484D01*
X3712920Y-9356484D02*
X3731968Y-9366008D01*
X3731968Y-9366008D02*
X3741491Y-9375531D01*
X3741491Y-9375531D02*
X3751015Y-9394579D01*
X3751015Y-9394579D02*
X3751015Y-9413627D01*
X3751015Y-9413627D02*
X3741491Y-9442198D01*
X3741491Y-9442198D02*
X3627206Y-9556484D01*
X3627206Y-9556484D02*
X3751015Y-9556484D01*
X3865301Y-9442198D02*
X3846253Y-9432674D01*
X3846253Y-9432674D02*
X3836729Y-9423150D01*
X3836729Y-9423150D02*
X3827206Y-9404103D01*
X3827206Y-9404103D02*
X3827206Y-9394579D01*
X3827206Y-9394579D02*
X3836729Y-9375531D01*
X3836729Y-9375531D02*
X3846253Y-9366008D01*
X3846253Y-9366008D02*
X3865301Y-9356484D01*
X3865301Y-9356484D02*
X3903396Y-9356484D01*
X3903396Y-9356484D02*
X3922444Y-9366008D01*
X3922444Y-9366008D02*
X3931968Y-9375531D01*
X3931968Y-9375531D02*
X3941491Y-9394579D01*
X3941491Y-9394579D02*
X3941491Y-9404103D01*
X3941491Y-9404103D02*
X3931968Y-9423150D01*
X3931968Y-9423150D02*
X3922444Y-9432674D01*
X3922444Y-9432674D02*
X3903396Y-9442198D01*
X3903396Y-9442198D02*
X3865301Y-9442198D01*
X3865301Y-9442198D02*
X3846253Y-9451722D01*
X3846253Y-9451722D02*
X3836729Y-9461246D01*
X3836729Y-9461246D02*
X3827206Y-9480293D01*
X3827206Y-9480293D02*
X3827206Y-9518389D01*
X3827206Y-9518389D02*
X3836729Y-9537436D01*
X3836729Y-9537436D02*
X3846253Y-9546960D01*
X3846253Y-9546960D02*
X3865301Y-9556484D01*
X3865301Y-9556484D02*
X3903396Y-9556484D01*
X3903396Y-9556484D02*
X3922444Y-9546960D01*
X3922444Y-9546960D02*
X3931968Y-9537436D01*
X3931968Y-9537436D02*
X3941491Y-9518389D01*
X3941491Y-9518389D02*
X3941491Y-9480293D01*
X3941491Y-9480293D02*
X3931968Y-9461246D01*
X3931968Y-9461246D02*
X3922444Y-9451722D01*
X3922444Y-9451722D02*
X3903396Y-9442198D01*
X4179587Y-9556484D02*
X4179587Y-9356484D01*
X4265301Y-9556484D02*
X4265301Y-9451722D01*
X4265301Y-9451722D02*
X4255777Y-9432674D01*
X4255777Y-9432674D02*
X4236730Y-9423150D01*
X4236730Y-9423150D02*
X4208158Y-9423150D01*
X4208158Y-9423150D02*
X4189110Y-9432674D01*
X4189110Y-9432674D02*
X4179587Y-9442198D01*
X4389111Y-9556484D02*
X4370063Y-9546960D01*
X4370063Y-9546960D02*
X4360539Y-9537436D01*
X4360539Y-9537436D02*
X4351015Y-9518389D01*
X4351015Y-9518389D02*
X4351015Y-9461246D01*
X4351015Y-9461246D02*
X4360539Y-9442198D01*
X4360539Y-9442198D02*
X4370063Y-9432674D01*
X4370063Y-9432674D02*
X4389111Y-9423150D01*
X4389111Y-9423150D02*
X4417682Y-9423150D01*
X4417682Y-9423150D02*
X4436730Y-9432674D01*
X4436730Y-9432674D02*
X4446253Y-9442198D01*
X4446253Y-9442198D02*
X4455777Y-9461246D01*
X4455777Y-9461246D02*
X4455777Y-9518389D01*
X4455777Y-9518389D02*
X4446253Y-9537436D01*
X4446253Y-9537436D02*
X4436730Y-9546960D01*
X4436730Y-9546960D02*
X4417682Y-9556484D01*
X4417682Y-9556484D02*
X4389111Y-9556484D01*
X4570063Y-9556484D02*
X4551015Y-9546960D01*
X4551015Y-9546960D02*
X4541492Y-9527912D01*
X4541492Y-9527912D02*
X4541492Y-9356484D01*
X4722444Y-9546960D02*
X4703396Y-9556484D01*
X4703396Y-9556484D02*
X4665301Y-9556484D01*
X4665301Y-9556484D02*
X4646253Y-9546960D01*
X4646253Y-9546960D02*
X4636730Y-9527912D01*
X4636730Y-9527912D02*
X4636730Y-9451722D01*
X4636730Y-9451722D02*
X4646253Y-9432674D01*
X4646253Y-9432674D02*
X4665301Y-9423150D01*
X4665301Y-9423150D02*
X4703396Y-9423150D01*
X4703396Y-9423150D02*
X4722444Y-9432674D01*
X4722444Y-9432674D02*
X4731968Y-9451722D01*
X4731968Y-9451722D02*
X4731968Y-9470770D01*
X4731968Y-9470770D02*
X4636730Y-9489817D01*
X4808158Y-9546960D02*
X4827206Y-9556484D01*
X4827206Y-9556484D02*
X4865301Y-9556484D01*
X4865301Y-9556484D02*
X4884349Y-9546960D01*
X4884349Y-9546960D02*
X4893873Y-9527912D01*
X4893873Y-9527912D02*
X4893873Y-9518389D01*
X4893873Y-9518389D02*
X4884349Y-9499341D01*
X4884349Y-9499341D02*
X4865301Y-9489817D01*
X4865301Y-9489817D02*
X4836730Y-9489817D01*
X4836730Y-9489817D02*
X4817682Y-9480293D01*
X4817682Y-9480293D02*
X4808158Y-9461246D01*
X4808158Y-9461246D02*
X4808158Y-9451722D01*
X4808158Y-9451722D02*
X4817682Y-9432674D01*
X4817682Y-9432674D02*
X4836730Y-9423150D01*
X4836730Y-9423150D02*
X4865301Y-9423150D01*
X4865301Y-9423150D02*
X4884349Y-9432674D01*
X4960539Y-9632674D02*
X4970063Y-9623150D01*
X4970063Y-9623150D02*
X4989111Y-9594579D01*
X4989111Y-9594579D02*
X4998634Y-9575531D01*
X4998634Y-9575531D02*
X5008158Y-9546960D01*
X5008158Y-9546960D02*
X5017682Y-9499341D01*
X5017682Y-9499341D02*
X5017682Y-9461246D01*
X5017682Y-9461246D02*
X5008158Y-9413627D01*
X5008158Y-9413627D02*
X4998634Y-9385055D01*
X4998634Y-9385055D02*
X4989111Y-9366008D01*
X4989111Y-9366008D02*
X4970063Y-9337436D01*
X4970063Y-9337436D02*
X4960539Y-9327912D01*
D12*
X-125000Y-9669000D02*
X-5000Y-9789000D01*
X-5000Y-9669000D02*
X-125000Y-9789000D01*
X-65000Y-9669000D02*
X-65000Y-9789000D01*
X-125000Y-9729000D02*
X-5000Y-9729000D01*
D11*
X360539Y-9820484D02*
X246253Y-9820484D01*
X303396Y-9820484D02*
X303396Y-9620484D01*
X303396Y-9620484D02*
X284348Y-9649055D01*
X284348Y-9649055D02*
X265301Y-9668103D01*
X265301Y-9668103D02*
X246253Y-9677627D01*
X446253Y-9801436D02*
X455777Y-9810960D01*
X455777Y-9810960D02*
X446253Y-9820484D01*
X446253Y-9820484D02*
X436729Y-9810960D01*
X436729Y-9810960D02*
X446253Y-9801436D01*
X446253Y-9801436D02*
X446253Y-9820484D01*
X531967Y-9639531D02*
X541491Y-9630008D01*
X541491Y-9630008D02*
X560539Y-9620484D01*
X560539Y-9620484D02*
X608158Y-9620484D01*
X608158Y-9620484D02*
X627205Y-9630008D01*
X627205Y-9630008D02*
X636729Y-9639531D01*
X636729Y-9639531D02*
X646253Y-9658579D01*
X646253Y-9658579D02*
X646253Y-9677627D01*
X646253Y-9677627D02*
X636729Y-9706198D01*
X636729Y-9706198D02*
X522443Y-9820484D01*
X522443Y-9820484D02*
X646253Y-9820484D01*
X770062Y-9620484D02*
X789110Y-9620484D01*
X789110Y-9620484D02*
X808158Y-9630008D01*
X808158Y-9630008D02*
X817682Y-9639531D01*
X817682Y-9639531D02*
X827205Y-9658579D01*
X827205Y-9658579D02*
X836729Y-9696674D01*
X836729Y-9696674D02*
X836729Y-9744293D01*
X836729Y-9744293D02*
X827205Y-9782389D01*
X827205Y-9782389D02*
X817682Y-9801436D01*
X817682Y-9801436D02*
X808158Y-9810960D01*
X808158Y-9810960D02*
X789110Y-9820484D01*
X789110Y-9820484D02*
X770062Y-9820484D01*
X770062Y-9820484D02*
X751015Y-9810960D01*
X751015Y-9810960D02*
X741491Y-9801436D01*
X741491Y-9801436D02*
X731967Y-9782389D01*
X731967Y-9782389D02*
X722443Y-9744293D01*
X722443Y-9744293D02*
X722443Y-9696674D01*
X722443Y-9696674D02*
X731967Y-9658579D01*
X731967Y-9658579D02*
X741491Y-9639531D01*
X741491Y-9639531D02*
X751015Y-9630008D01*
X751015Y-9630008D02*
X770062Y-9620484D01*
X960539Y-9620484D02*
X979586Y-9620484D01*
X979586Y-9620484D02*
X998634Y-9630008D01*
X998634Y-9630008D02*
X1008158Y-9639531D01*
X1008158Y-9639531D02*
X1017682Y-9658579D01*
X1017682Y-9658579D02*
X1027205Y-9696674D01*
X1027205Y-9696674D02*
X1027205Y-9744293D01*
X1027205Y-9744293D02*
X1017682Y-9782389D01*
X1017682Y-9782389D02*
X1008158Y-9801436D01*
X1008158Y-9801436D02*
X998634Y-9810960D01*
X998634Y-9810960D02*
X979586Y-9820484D01*
X979586Y-9820484D02*
X960539Y-9820484D01*
X960539Y-9820484D02*
X941491Y-9810960D01*
X941491Y-9810960D02*
X931967Y-9801436D01*
X931967Y-9801436D02*
X922443Y-9782389D01*
X922443Y-9782389D02*
X912920Y-9744293D01*
X912920Y-9744293D02*
X912920Y-9696674D01*
X912920Y-9696674D02*
X922443Y-9658579D01*
X922443Y-9658579D02*
X931967Y-9639531D01*
X931967Y-9639531D02*
X941491Y-9630008D01*
X941491Y-9630008D02*
X960539Y-9620484D01*
X1112920Y-9820484D02*
X1112920Y-9687150D01*
X1112920Y-9706198D02*
X1122444Y-9696674D01*
X1122444Y-9696674D02*
X1141491Y-9687150D01*
X1141491Y-9687150D02*
X1170063Y-9687150D01*
X1170063Y-9687150D02*
X1189110Y-9696674D01*
X1189110Y-9696674D02*
X1198634Y-9715722D01*
X1198634Y-9715722D02*
X1198634Y-9820484D01*
X1198634Y-9715722D02*
X1208158Y-9696674D01*
X1208158Y-9696674D02*
X1227205Y-9687150D01*
X1227205Y-9687150D02*
X1255777Y-9687150D01*
X1255777Y-9687150D02*
X1274825Y-9696674D01*
X1274825Y-9696674D02*
X1284348Y-9715722D01*
X1284348Y-9715722D02*
X1284348Y-9820484D01*
X1379586Y-9820484D02*
X1379586Y-9687150D01*
X1379586Y-9706198D02*
X1389110Y-9696674D01*
X1389110Y-9696674D02*
X1408158Y-9687150D01*
X1408158Y-9687150D02*
X1436729Y-9687150D01*
X1436729Y-9687150D02*
X1455777Y-9696674D01*
X1455777Y-9696674D02*
X1465301Y-9715722D01*
X1465301Y-9715722D02*
X1465301Y-9820484D01*
X1465301Y-9715722D02*
X1474824Y-9696674D01*
X1474824Y-9696674D02*
X1493872Y-9687150D01*
X1493872Y-9687150D02*
X1522443Y-9687150D01*
X1522443Y-9687150D02*
X1541491Y-9696674D01*
X1541491Y-9696674D02*
X1551015Y-9715722D01*
X1551015Y-9715722D02*
X1551015Y-9820484D01*
X1941491Y-9610960D02*
X1770063Y-9868103D01*
X2198634Y-9620484D02*
X2217682Y-9620484D01*
X2217682Y-9620484D02*
X2236729Y-9630008D01*
X2236729Y-9630008D02*
X2246253Y-9639531D01*
X2246253Y-9639531D02*
X2255777Y-9658579D01*
X2255777Y-9658579D02*
X2265301Y-9696674D01*
X2265301Y-9696674D02*
X2265301Y-9744293D01*
X2265301Y-9744293D02*
X2255777Y-9782389D01*
X2255777Y-9782389D02*
X2246253Y-9801436D01*
X2246253Y-9801436D02*
X2236729Y-9810960D01*
X2236729Y-9810960D02*
X2217682Y-9820484D01*
X2217682Y-9820484D02*
X2198634Y-9820484D01*
X2198634Y-9820484D02*
X2179587Y-9810960D01*
X2179587Y-9810960D02*
X2170063Y-9801436D01*
X2170063Y-9801436D02*
X2160539Y-9782389D01*
X2160539Y-9782389D02*
X2151015Y-9744293D01*
X2151015Y-9744293D02*
X2151015Y-9696674D01*
X2151015Y-9696674D02*
X2160539Y-9658579D01*
X2160539Y-9658579D02*
X2170063Y-9639531D01*
X2170063Y-9639531D02*
X2179587Y-9630008D01*
X2179587Y-9630008D02*
X2198634Y-9620484D01*
X2351015Y-9801436D02*
X2360539Y-9810960D01*
X2360539Y-9810960D02*
X2351015Y-9820484D01*
X2351015Y-9820484D02*
X2341491Y-9810960D01*
X2341491Y-9810960D02*
X2351015Y-9801436D01*
X2351015Y-9801436D02*
X2351015Y-9820484D01*
X2484348Y-9620484D02*
X2503396Y-9620484D01*
X2503396Y-9620484D02*
X2522444Y-9630008D01*
X2522444Y-9630008D02*
X2531968Y-9639531D01*
X2531968Y-9639531D02*
X2541491Y-9658579D01*
X2541491Y-9658579D02*
X2551015Y-9696674D01*
X2551015Y-9696674D02*
X2551015Y-9744293D01*
X2551015Y-9744293D02*
X2541491Y-9782389D01*
X2541491Y-9782389D02*
X2531968Y-9801436D01*
X2531968Y-9801436D02*
X2522444Y-9810960D01*
X2522444Y-9810960D02*
X2503396Y-9820484D01*
X2503396Y-9820484D02*
X2484348Y-9820484D01*
X2484348Y-9820484D02*
X2465301Y-9810960D01*
X2465301Y-9810960D02*
X2455777Y-9801436D01*
X2455777Y-9801436D02*
X2446253Y-9782389D01*
X2446253Y-9782389D02*
X2436729Y-9744293D01*
X2436729Y-9744293D02*
X2436729Y-9696674D01*
X2436729Y-9696674D02*
X2446253Y-9658579D01*
X2446253Y-9658579D02*
X2455777Y-9639531D01*
X2455777Y-9639531D02*
X2465301Y-9630008D01*
X2465301Y-9630008D02*
X2484348Y-9620484D01*
X2722444Y-9687150D02*
X2722444Y-9820484D01*
X2674825Y-9610960D02*
X2627206Y-9753817D01*
X2627206Y-9753817D02*
X2751015Y-9753817D01*
X2808158Y-9620484D02*
X2941491Y-9620484D01*
X2941491Y-9620484D02*
X2855777Y-9820484D01*
X3008158Y-9639531D02*
X3017682Y-9630008D01*
X3017682Y-9630008D02*
X3036729Y-9620484D01*
X3036729Y-9620484D02*
X3084348Y-9620484D01*
X3084348Y-9620484D02*
X3103396Y-9630008D01*
X3103396Y-9630008D02*
X3112920Y-9639531D01*
X3112920Y-9639531D02*
X3122444Y-9658579D01*
X3122444Y-9658579D02*
X3122444Y-9677627D01*
X3122444Y-9677627D02*
X3112920Y-9706198D01*
X3112920Y-9706198D02*
X2998634Y-9820484D01*
X2998634Y-9820484D02*
X3122444Y-9820484D01*
X3198634Y-9620484D02*
X3198634Y-9658579D01*
X3274825Y-9620484D02*
X3274825Y-9658579D01*
X3570063Y-9896674D02*
X3560539Y-9887150D01*
X3560539Y-9887150D02*
X3541491Y-9858579D01*
X3541491Y-9858579D02*
X3531968Y-9839531D01*
X3531968Y-9839531D02*
X3522444Y-9810960D01*
X3522444Y-9810960D02*
X3512920Y-9763341D01*
X3512920Y-9763341D02*
X3512920Y-9725246D01*
X3512920Y-9725246D02*
X3522444Y-9677627D01*
X3522444Y-9677627D02*
X3531968Y-9649055D01*
X3531968Y-9649055D02*
X3541491Y-9630008D01*
X3541491Y-9630008D02*
X3560539Y-9601436D01*
X3560539Y-9601436D02*
X3570063Y-9591912D01*
X3684348Y-9620484D02*
X3703396Y-9620484D01*
X3703396Y-9620484D02*
X3722444Y-9630008D01*
X3722444Y-9630008D02*
X3731968Y-9639531D01*
X3731968Y-9639531D02*
X3741491Y-9658579D01*
X3741491Y-9658579D02*
X3751015Y-9696674D01*
X3751015Y-9696674D02*
X3751015Y-9744293D01*
X3751015Y-9744293D02*
X3741491Y-9782389D01*
X3741491Y-9782389D02*
X3731968Y-9801436D01*
X3731968Y-9801436D02*
X3722444Y-9810960D01*
X3722444Y-9810960D02*
X3703396Y-9820484D01*
X3703396Y-9820484D02*
X3684348Y-9820484D01*
X3684348Y-9820484D02*
X3665301Y-9810960D01*
X3665301Y-9810960D02*
X3655777Y-9801436D01*
X3655777Y-9801436D02*
X3646253Y-9782389D01*
X3646253Y-9782389D02*
X3636729Y-9744293D01*
X3636729Y-9744293D02*
X3636729Y-9696674D01*
X3636729Y-9696674D02*
X3646253Y-9658579D01*
X3646253Y-9658579D02*
X3655777Y-9639531D01*
X3655777Y-9639531D02*
X3665301Y-9630008D01*
X3665301Y-9630008D02*
X3684348Y-9620484D01*
X3989110Y-9820484D02*
X3989110Y-9620484D01*
X4074825Y-9820484D02*
X4074825Y-9715722D01*
X4074825Y-9715722D02*
X4065301Y-9696674D01*
X4065301Y-9696674D02*
X4046253Y-9687150D01*
X4046253Y-9687150D02*
X4017682Y-9687150D01*
X4017682Y-9687150D02*
X3998634Y-9696674D01*
X3998634Y-9696674D02*
X3989110Y-9706198D01*
X4198634Y-9820484D02*
X4179587Y-9810960D01*
X4179587Y-9810960D02*
X4170063Y-9801436D01*
X4170063Y-9801436D02*
X4160539Y-9782389D01*
X4160539Y-9782389D02*
X4160539Y-9725246D01*
X4160539Y-9725246D02*
X4170063Y-9706198D01*
X4170063Y-9706198D02*
X4179587Y-9696674D01*
X4179587Y-9696674D02*
X4198634Y-9687150D01*
X4198634Y-9687150D02*
X4227206Y-9687150D01*
X4227206Y-9687150D02*
X4246253Y-9696674D01*
X4246253Y-9696674D02*
X4255777Y-9706198D01*
X4255777Y-9706198D02*
X4265301Y-9725246D01*
X4265301Y-9725246D02*
X4265301Y-9782389D01*
X4265301Y-9782389D02*
X4255777Y-9801436D01*
X4255777Y-9801436D02*
X4246253Y-9810960D01*
X4246253Y-9810960D02*
X4227206Y-9820484D01*
X4227206Y-9820484D02*
X4198634Y-9820484D01*
X4379587Y-9820484D02*
X4360539Y-9810960D01*
X4360539Y-9810960D02*
X4351015Y-9791912D01*
X4351015Y-9791912D02*
X4351015Y-9620484D01*
X4531968Y-9810960D02*
X4512920Y-9820484D01*
X4512920Y-9820484D02*
X4474825Y-9820484D01*
X4474825Y-9820484D02*
X4455777Y-9810960D01*
X4455777Y-9810960D02*
X4446253Y-9791912D01*
X4446253Y-9791912D02*
X4446253Y-9715722D01*
X4446253Y-9715722D02*
X4455777Y-9696674D01*
X4455777Y-9696674D02*
X4474825Y-9687150D01*
X4474825Y-9687150D02*
X4512920Y-9687150D01*
X4512920Y-9687150D02*
X4531968Y-9696674D01*
X4531968Y-9696674D02*
X4541492Y-9715722D01*
X4541492Y-9715722D02*
X4541492Y-9734770D01*
X4541492Y-9734770D02*
X4446253Y-9753817D01*
X4617682Y-9810960D02*
X4636730Y-9820484D01*
X4636730Y-9820484D02*
X4674825Y-9820484D01*
X4674825Y-9820484D02*
X4693873Y-9810960D01*
X4693873Y-9810960D02*
X4703396Y-9791912D01*
X4703396Y-9791912D02*
X4703396Y-9782389D01*
X4703396Y-9782389D02*
X4693873Y-9763341D01*
X4693873Y-9763341D02*
X4674825Y-9753817D01*
X4674825Y-9753817D02*
X4646253Y-9753817D01*
X4646253Y-9753817D02*
X4627206Y-9744293D01*
X4627206Y-9744293D02*
X4617682Y-9725246D01*
X4617682Y-9725246D02*
X4617682Y-9715722D01*
X4617682Y-9715722D02*
X4627206Y-9696674D01*
X4627206Y-9696674D02*
X4646253Y-9687150D01*
X4646253Y-9687150D02*
X4674825Y-9687150D01*
X4674825Y-9687150D02*
X4693873Y-9696674D01*
X4941492Y-9744293D02*
X5093873Y-9744293D01*
X5017682Y-9820484D02*
X5017682Y-9668103D01*
X5322444Y-9620484D02*
X5446254Y-9620484D01*
X5446254Y-9620484D02*
X5379587Y-9696674D01*
X5379587Y-9696674D02*
X5408158Y-9696674D01*
X5408158Y-9696674D02*
X5427206Y-9706198D01*
X5427206Y-9706198D02*
X5436730Y-9715722D01*
X5436730Y-9715722D02*
X5446254Y-9734770D01*
X5446254Y-9734770D02*
X5446254Y-9782389D01*
X5446254Y-9782389D02*
X5436730Y-9801436D01*
X5436730Y-9801436D02*
X5427206Y-9810960D01*
X5427206Y-9810960D02*
X5408158Y-9820484D01*
X5408158Y-9820484D02*
X5351015Y-9820484D01*
X5351015Y-9820484D02*
X5331968Y-9810960D01*
X5331968Y-9810960D02*
X5322444Y-9801436D01*
X5674825Y-9810960D02*
X5693873Y-9820484D01*
X5693873Y-9820484D02*
X5731968Y-9820484D01*
X5731968Y-9820484D02*
X5751015Y-9810960D01*
X5751015Y-9810960D02*
X5760539Y-9791912D01*
X5760539Y-9791912D02*
X5760539Y-9782389D01*
X5760539Y-9782389D02*
X5751015Y-9763341D01*
X5751015Y-9763341D02*
X5731968Y-9753817D01*
X5731968Y-9753817D02*
X5703396Y-9753817D01*
X5703396Y-9753817D02*
X5684349Y-9744293D01*
X5684349Y-9744293D02*
X5674825Y-9725246D01*
X5674825Y-9725246D02*
X5674825Y-9715722D01*
X5674825Y-9715722D02*
X5684349Y-9696674D01*
X5684349Y-9696674D02*
X5703396Y-9687150D01*
X5703396Y-9687150D02*
X5731968Y-9687150D01*
X5731968Y-9687150D02*
X5751015Y-9696674D01*
X5874825Y-9820484D02*
X5855777Y-9810960D01*
X5855777Y-9810960D02*
X5846254Y-9791912D01*
X5846254Y-9791912D02*
X5846254Y-9620484D01*
X5979587Y-9820484D02*
X5960539Y-9810960D01*
X5960539Y-9810960D02*
X5951015Y-9801436D01*
X5951015Y-9801436D02*
X5941492Y-9782389D01*
X5941492Y-9782389D02*
X5941492Y-9725246D01*
X5941492Y-9725246D02*
X5951015Y-9706198D01*
X5951015Y-9706198D02*
X5960539Y-9696674D01*
X5960539Y-9696674D02*
X5979587Y-9687150D01*
X5979587Y-9687150D02*
X6008158Y-9687150D01*
X6008158Y-9687150D02*
X6027206Y-9696674D01*
X6027206Y-9696674D02*
X6036730Y-9706198D01*
X6036730Y-9706198D02*
X6046254Y-9725246D01*
X6046254Y-9725246D02*
X6046254Y-9782389D01*
X6046254Y-9782389D02*
X6036730Y-9801436D01*
X6036730Y-9801436D02*
X6027206Y-9810960D01*
X6027206Y-9810960D02*
X6008158Y-9820484D01*
X6008158Y-9820484D02*
X5979587Y-9820484D01*
X6103396Y-9687150D02*
X6179587Y-9687150D01*
X6131968Y-9620484D02*
X6131968Y-9791912D01*
X6131968Y-9791912D02*
X6141492Y-9810960D01*
X6141492Y-9810960D02*
X6160539Y-9820484D01*
X6160539Y-9820484D02*
X6179587Y-9820484D01*
X6236730Y-9810960D02*
X6255777Y-9820484D01*
X6255777Y-9820484D02*
X6293873Y-9820484D01*
X6293873Y-9820484D02*
X6312920Y-9810960D01*
X6312920Y-9810960D02*
X6322444Y-9791912D01*
X6322444Y-9791912D02*
X6322444Y-9782389D01*
X6322444Y-9782389D02*
X6312920Y-9763341D01*
X6312920Y-9763341D02*
X6293873Y-9753817D01*
X6293873Y-9753817D02*
X6265301Y-9753817D01*
X6265301Y-9753817D02*
X6246254Y-9744293D01*
X6246254Y-9744293D02*
X6236730Y-9725246D01*
X6236730Y-9725246D02*
X6236730Y-9715722D01*
X6236730Y-9715722D02*
X6246254Y-9696674D01*
X6246254Y-9696674D02*
X6265301Y-9687150D01*
X6265301Y-9687150D02*
X6293873Y-9687150D01*
X6293873Y-9687150D02*
X6312920Y-9696674D01*
X6389111Y-9896674D02*
X6398635Y-9887150D01*
X6398635Y-9887150D02*
X6417682Y-9858579D01*
X6417682Y-9858579D02*
X6427206Y-9839531D01*
X6427206Y-9839531D02*
X6436730Y-9810960D01*
X6436730Y-9810960D02*
X6446254Y-9763341D01*
X6446254Y-9763341D02*
X6446254Y-9725246D01*
X6446254Y-9725246D02*
X6436730Y-9677627D01*
X6436730Y-9677627D02*
X6427206Y-9649055D01*
X6427206Y-9649055D02*
X6417682Y-9630008D01*
X6417682Y-9630008D02*
X6398635Y-9601436D01*
X6398635Y-9601436D02*
X6389111Y-9591912D01*
D13*
X-135000Y-9928000D02*
X-5000Y-10058000D01*
X-5000Y-9928000D02*
X-135000Y-10058000D01*
X-24038Y-10038962D02*
X-24038Y-9947038D01*
X-115962Y-9947038D01*
X-115962Y-10038962D01*
X-24038Y-10038962D01*
D11*
X360539Y-10084484D02*
X246253Y-10084484D01*
X303396Y-10084484D02*
X303396Y-9884484D01*
X303396Y-9884484D02*
X284348Y-9913055D01*
X284348Y-9913055D02*
X265301Y-9932103D01*
X265301Y-9932103D02*
X246253Y-9941627D01*
X446253Y-10065436D02*
X455777Y-10074960D01*
X455777Y-10074960D02*
X446253Y-10084484D01*
X446253Y-10084484D02*
X436729Y-10074960D01*
X436729Y-10074960D02*
X446253Y-10065436D01*
X446253Y-10065436D02*
X446253Y-10084484D01*
X522443Y-9884484D02*
X646253Y-9884484D01*
X646253Y-9884484D02*
X579586Y-9960674D01*
X579586Y-9960674D02*
X608158Y-9960674D01*
X608158Y-9960674D02*
X627205Y-9970198D01*
X627205Y-9970198D02*
X636729Y-9979722D01*
X636729Y-9979722D02*
X646253Y-9998770D01*
X646253Y-9998770D02*
X646253Y-10046389D01*
X646253Y-10046389D02*
X636729Y-10065436D01*
X636729Y-10065436D02*
X627205Y-10074960D01*
X627205Y-10074960D02*
X608158Y-10084484D01*
X608158Y-10084484D02*
X551015Y-10084484D01*
X551015Y-10084484D02*
X531967Y-10074960D01*
X531967Y-10074960D02*
X522443Y-10065436D01*
X770062Y-9884484D02*
X789110Y-9884484D01*
X789110Y-9884484D02*
X808158Y-9894008D01*
X808158Y-9894008D02*
X817682Y-9903531D01*
X817682Y-9903531D02*
X827205Y-9922579D01*
X827205Y-9922579D02*
X836729Y-9960674D01*
X836729Y-9960674D02*
X836729Y-10008293D01*
X836729Y-10008293D02*
X827205Y-10046389D01*
X827205Y-10046389D02*
X817682Y-10065436D01*
X817682Y-10065436D02*
X808158Y-10074960D01*
X808158Y-10074960D02*
X789110Y-10084484D01*
X789110Y-10084484D02*
X770062Y-10084484D01*
X770062Y-10084484D02*
X751015Y-10074960D01*
X751015Y-10074960D02*
X741491Y-10065436D01*
X741491Y-10065436D02*
X731967Y-10046389D01*
X731967Y-10046389D02*
X722443Y-10008293D01*
X722443Y-10008293D02*
X722443Y-9960674D01*
X722443Y-9960674D02*
X731967Y-9922579D01*
X731967Y-9922579D02*
X741491Y-9903531D01*
X741491Y-9903531D02*
X751015Y-9894008D01*
X751015Y-9894008D02*
X770062Y-9884484D01*
X960539Y-9884484D02*
X979586Y-9884484D01*
X979586Y-9884484D02*
X998634Y-9894008D01*
X998634Y-9894008D02*
X1008158Y-9903531D01*
X1008158Y-9903531D02*
X1017682Y-9922579D01*
X1017682Y-9922579D02*
X1027205Y-9960674D01*
X1027205Y-9960674D02*
X1027205Y-10008293D01*
X1027205Y-10008293D02*
X1017682Y-10046389D01*
X1017682Y-10046389D02*
X1008158Y-10065436D01*
X1008158Y-10065436D02*
X998634Y-10074960D01*
X998634Y-10074960D02*
X979586Y-10084484D01*
X979586Y-10084484D02*
X960539Y-10084484D01*
X960539Y-10084484D02*
X941491Y-10074960D01*
X941491Y-10074960D02*
X931967Y-10065436D01*
X931967Y-10065436D02*
X922443Y-10046389D01*
X922443Y-10046389D02*
X912920Y-10008293D01*
X912920Y-10008293D02*
X912920Y-9960674D01*
X912920Y-9960674D02*
X922443Y-9922579D01*
X922443Y-9922579D02*
X931967Y-9903531D01*
X931967Y-9903531D02*
X941491Y-9894008D01*
X941491Y-9894008D02*
X960539Y-9884484D01*
X1112920Y-10084484D02*
X1112920Y-9951150D01*
X1112920Y-9970198D02*
X1122444Y-9960674D01*
X1122444Y-9960674D02*
X1141491Y-9951150D01*
X1141491Y-9951150D02*
X1170063Y-9951150D01*
X1170063Y-9951150D02*
X1189110Y-9960674D01*
X1189110Y-9960674D02*
X1198634Y-9979722D01*
X1198634Y-9979722D02*
X1198634Y-10084484D01*
X1198634Y-9979722D02*
X1208158Y-9960674D01*
X1208158Y-9960674D02*
X1227205Y-9951150D01*
X1227205Y-9951150D02*
X1255777Y-9951150D01*
X1255777Y-9951150D02*
X1274825Y-9960674D01*
X1274825Y-9960674D02*
X1284348Y-9979722D01*
X1284348Y-9979722D02*
X1284348Y-10084484D01*
X1379586Y-10084484D02*
X1379586Y-9951150D01*
X1379586Y-9970198D02*
X1389110Y-9960674D01*
X1389110Y-9960674D02*
X1408158Y-9951150D01*
X1408158Y-9951150D02*
X1436729Y-9951150D01*
X1436729Y-9951150D02*
X1455777Y-9960674D01*
X1455777Y-9960674D02*
X1465301Y-9979722D01*
X1465301Y-9979722D02*
X1465301Y-10084484D01*
X1465301Y-9979722D02*
X1474824Y-9960674D01*
X1474824Y-9960674D02*
X1493872Y-9951150D01*
X1493872Y-9951150D02*
X1522443Y-9951150D01*
X1522443Y-9951150D02*
X1541491Y-9960674D01*
X1541491Y-9960674D02*
X1551015Y-9979722D01*
X1551015Y-9979722D02*
X1551015Y-10084484D01*
X1941491Y-9874960D02*
X1770063Y-10132103D01*
X2198634Y-9884484D02*
X2217682Y-9884484D01*
X2217682Y-9884484D02*
X2236729Y-9894008D01*
X2236729Y-9894008D02*
X2246253Y-9903531D01*
X2246253Y-9903531D02*
X2255777Y-9922579D01*
X2255777Y-9922579D02*
X2265301Y-9960674D01*
X2265301Y-9960674D02*
X2265301Y-10008293D01*
X2265301Y-10008293D02*
X2255777Y-10046389D01*
X2255777Y-10046389D02*
X2246253Y-10065436D01*
X2246253Y-10065436D02*
X2236729Y-10074960D01*
X2236729Y-10074960D02*
X2217682Y-10084484D01*
X2217682Y-10084484D02*
X2198634Y-10084484D01*
X2198634Y-10084484D02*
X2179587Y-10074960D01*
X2179587Y-10074960D02*
X2170063Y-10065436D01*
X2170063Y-10065436D02*
X2160539Y-10046389D01*
X2160539Y-10046389D02*
X2151015Y-10008293D01*
X2151015Y-10008293D02*
X2151015Y-9960674D01*
X2151015Y-9960674D02*
X2160539Y-9922579D01*
X2160539Y-9922579D02*
X2170063Y-9903531D01*
X2170063Y-9903531D02*
X2179587Y-9894008D01*
X2179587Y-9894008D02*
X2198634Y-9884484D01*
X2351015Y-10065436D02*
X2360539Y-10074960D01*
X2360539Y-10074960D02*
X2351015Y-10084484D01*
X2351015Y-10084484D02*
X2341491Y-10074960D01*
X2341491Y-10074960D02*
X2351015Y-10065436D01*
X2351015Y-10065436D02*
X2351015Y-10084484D01*
X2484348Y-9884484D02*
X2503396Y-9884484D01*
X2503396Y-9884484D02*
X2522444Y-9894008D01*
X2522444Y-9894008D02*
X2531968Y-9903531D01*
X2531968Y-9903531D02*
X2541491Y-9922579D01*
X2541491Y-9922579D02*
X2551015Y-9960674D01*
X2551015Y-9960674D02*
X2551015Y-10008293D01*
X2551015Y-10008293D02*
X2541491Y-10046389D01*
X2541491Y-10046389D02*
X2531968Y-10065436D01*
X2531968Y-10065436D02*
X2522444Y-10074960D01*
X2522444Y-10074960D02*
X2503396Y-10084484D01*
X2503396Y-10084484D02*
X2484348Y-10084484D01*
X2484348Y-10084484D02*
X2465301Y-10074960D01*
X2465301Y-10074960D02*
X2455777Y-10065436D01*
X2455777Y-10065436D02*
X2446253Y-10046389D01*
X2446253Y-10046389D02*
X2436729Y-10008293D01*
X2436729Y-10008293D02*
X2436729Y-9960674D01*
X2436729Y-9960674D02*
X2446253Y-9922579D01*
X2446253Y-9922579D02*
X2455777Y-9903531D01*
X2455777Y-9903531D02*
X2465301Y-9894008D01*
X2465301Y-9894008D02*
X2484348Y-9884484D01*
X2731968Y-9884484D02*
X2636729Y-9884484D01*
X2636729Y-9884484D02*
X2627206Y-9979722D01*
X2627206Y-9979722D02*
X2636729Y-9970198D01*
X2636729Y-9970198D02*
X2655777Y-9960674D01*
X2655777Y-9960674D02*
X2703396Y-9960674D01*
X2703396Y-9960674D02*
X2722444Y-9970198D01*
X2722444Y-9970198D02*
X2731968Y-9979722D01*
X2731968Y-9979722D02*
X2741491Y-9998770D01*
X2741491Y-9998770D02*
X2741491Y-10046389D01*
X2741491Y-10046389D02*
X2731968Y-10065436D01*
X2731968Y-10065436D02*
X2722444Y-10074960D01*
X2722444Y-10074960D02*
X2703396Y-10084484D01*
X2703396Y-10084484D02*
X2655777Y-10084484D01*
X2655777Y-10084484D02*
X2636729Y-10074960D01*
X2636729Y-10074960D02*
X2627206Y-10065436D01*
X2931967Y-10084484D02*
X2817682Y-10084484D01*
X2874825Y-10084484D02*
X2874825Y-9884484D01*
X2874825Y-9884484D02*
X2855777Y-9913055D01*
X2855777Y-9913055D02*
X2836729Y-9932103D01*
X2836729Y-9932103D02*
X2817682Y-9941627D01*
X3008158Y-9903531D02*
X3017682Y-9894008D01*
X3017682Y-9894008D02*
X3036729Y-9884484D01*
X3036729Y-9884484D02*
X3084348Y-9884484D01*
X3084348Y-9884484D02*
X3103396Y-9894008D01*
X3103396Y-9894008D02*
X3112920Y-9903531D01*
X3112920Y-9903531D02*
X3122444Y-9922579D01*
X3122444Y-9922579D02*
X3122444Y-9941627D01*
X3122444Y-9941627D02*
X3112920Y-9970198D01*
X3112920Y-9970198D02*
X2998634Y-10084484D01*
X2998634Y-10084484D02*
X3122444Y-10084484D01*
X3198634Y-9884484D02*
X3198634Y-9922579D01*
X3274825Y-9884484D02*
X3274825Y-9922579D01*
X3570063Y-10160674D02*
X3560539Y-10151150D01*
X3560539Y-10151150D02*
X3541491Y-10122579D01*
X3541491Y-10122579D02*
X3531968Y-10103531D01*
X3531968Y-10103531D02*
X3522444Y-10074960D01*
X3522444Y-10074960D02*
X3512920Y-10027341D01*
X3512920Y-10027341D02*
X3512920Y-9989246D01*
X3512920Y-9989246D02*
X3522444Y-9941627D01*
X3522444Y-9941627D02*
X3531968Y-9913055D01*
X3531968Y-9913055D02*
X3541491Y-9894008D01*
X3541491Y-9894008D02*
X3560539Y-9865436D01*
X3560539Y-9865436D02*
X3570063Y-9855912D01*
X3751015Y-10084484D02*
X3636729Y-10084484D01*
X3693872Y-10084484D02*
X3693872Y-9884484D01*
X3693872Y-9884484D02*
X3674825Y-9913055D01*
X3674825Y-9913055D02*
X3655777Y-9932103D01*
X3655777Y-9932103D02*
X3636729Y-9941627D01*
X3922444Y-9884484D02*
X3884348Y-9884484D01*
X3884348Y-9884484D02*
X3865301Y-9894008D01*
X3865301Y-9894008D02*
X3855777Y-9903531D01*
X3855777Y-9903531D02*
X3836729Y-9932103D01*
X3836729Y-9932103D02*
X3827206Y-9970198D01*
X3827206Y-9970198D02*
X3827206Y-10046389D01*
X3827206Y-10046389D02*
X3836729Y-10065436D01*
X3836729Y-10065436D02*
X3846253Y-10074960D01*
X3846253Y-10074960D02*
X3865301Y-10084484D01*
X3865301Y-10084484D02*
X3903396Y-10084484D01*
X3903396Y-10084484D02*
X3922444Y-10074960D01*
X3922444Y-10074960D02*
X3931968Y-10065436D01*
X3931968Y-10065436D02*
X3941491Y-10046389D01*
X3941491Y-10046389D02*
X3941491Y-9998770D01*
X3941491Y-9998770D02*
X3931968Y-9979722D01*
X3931968Y-9979722D02*
X3922444Y-9970198D01*
X3922444Y-9970198D02*
X3903396Y-9960674D01*
X3903396Y-9960674D02*
X3865301Y-9960674D01*
X3865301Y-9960674D02*
X3846253Y-9970198D01*
X3846253Y-9970198D02*
X3836729Y-9979722D01*
X3836729Y-9979722D02*
X3827206Y-9998770D01*
X4179587Y-10084484D02*
X4179587Y-9884484D01*
X4265301Y-10084484D02*
X4265301Y-9979722D01*
X4265301Y-9979722D02*
X4255777Y-9960674D01*
X4255777Y-9960674D02*
X4236730Y-9951150D01*
X4236730Y-9951150D02*
X4208158Y-9951150D01*
X4208158Y-9951150D02*
X4189110Y-9960674D01*
X4189110Y-9960674D02*
X4179587Y-9970198D01*
X4389111Y-10084484D02*
X4370063Y-10074960D01*
X4370063Y-10074960D02*
X4360539Y-10065436D01*
X4360539Y-10065436D02*
X4351015Y-10046389D01*
X4351015Y-10046389D02*
X4351015Y-9989246D01*
X4351015Y-9989246D02*
X4360539Y-9970198D01*
X4360539Y-9970198D02*
X4370063Y-9960674D01*
X4370063Y-9960674D02*
X4389111Y-9951150D01*
X4389111Y-9951150D02*
X4417682Y-9951150D01*
X4417682Y-9951150D02*
X4436730Y-9960674D01*
X4436730Y-9960674D02*
X4446253Y-9970198D01*
X4446253Y-9970198D02*
X4455777Y-9989246D01*
X4455777Y-9989246D02*
X4455777Y-10046389D01*
X4455777Y-10046389D02*
X4446253Y-10065436D01*
X4446253Y-10065436D02*
X4436730Y-10074960D01*
X4436730Y-10074960D02*
X4417682Y-10084484D01*
X4417682Y-10084484D02*
X4389111Y-10084484D01*
X4570063Y-10084484D02*
X4551015Y-10074960D01*
X4551015Y-10074960D02*
X4541492Y-10055912D01*
X4541492Y-10055912D02*
X4541492Y-9884484D01*
X4722444Y-10074960D02*
X4703396Y-10084484D01*
X4703396Y-10084484D02*
X4665301Y-10084484D01*
X4665301Y-10084484D02*
X4646253Y-10074960D01*
X4646253Y-10074960D02*
X4636730Y-10055912D01*
X4636730Y-10055912D02*
X4636730Y-9979722D01*
X4636730Y-9979722D02*
X4646253Y-9960674D01*
X4646253Y-9960674D02*
X4665301Y-9951150D01*
X4665301Y-9951150D02*
X4703396Y-9951150D01*
X4703396Y-9951150D02*
X4722444Y-9960674D01*
X4722444Y-9960674D02*
X4731968Y-9979722D01*
X4731968Y-9979722D02*
X4731968Y-9998770D01*
X4731968Y-9998770D02*
X4636730Y-10017817D01*
X4808158Y-10074960D02*
X4827206Y-10084484D01*
X4827206Y-10084484D02*
X4865301Y-10084484D01*
X4865301Y-10084484D02*
X4884349Y-10074960D01*
X4884349Y-10074960D02*
X4893873Y-10055912D01*
X4893873Y-10055912D02*
X4893873Y-10046389D01*
X4893873Y-10046389D02*
X4884349Y-10027341D01*
X4884349Y-10027341D02*
X4865301Y-10017817D01*
X4865301Y-10017817D02*
X4836730Y-10017817D01*
X4836730Y-10017817D02*
X4817682Y-10008293D01*
X4817682Y-10008293D02*
X4808158Y-9989246D01*
X4808158Y-9989246D02*
X4808158Y-9979722D01*
X4808158Y-9979722D02*
X4817682Y-9960674D01*
X4817682Y-9960674D02*
X4836730Y-9951150D01*
X4836730Y-9951150D02*
X4865301Y-9951150D01*
X4865301Y-9951150D02*
X4884349Y-9960674D01*
X4960539Y-10160674D02*
X4970063Y-10151150D01*
X4970063Y-10151150D02*
X4989111Y-10122579D01*
X4989111Y-10122579D02*
X4998634Y-10103531D01*
X4998634Y-10103531D02*
X5008158Y-10074960D01*
X5008158Y-10074960D02*
X5017682Y-10027341D01*
X5017682Y-10027341D02*
X5017682Y-9989246D01*
X5017682Y-9989246D02*
X5008158Y-9941627D01*
X5008158Y-9941627D02*
X4998634Y-9913055D01*
X4998634Y-9913055D02*
X4989111Y-9894008D01*
X4989111Y-9894008D02*
X4970063Y-9865436D01*
X4970063Y-9865436D02*
X4960539Y-9855912D01*
X-205000Y-10157000D02*
X-5000Y-10357000D01*
X-5000Y-10157000D02*
X-205000Y-10357000D01*
X-105000Y-10357000D02*
X-5000Y-10257000D01*
X-105000Y-10157000D01*
X-205000Y-10257000D01*
X-105000Y-10357000D01*
X236729Y-10148484D02*
X360539Y-10148484D01*
X360539Y-10148484D02*
X293872Y-10224674D01*
X293872Y-10224674D02*
X322444Y-10224674D01*
X322444Y-10224674D02*
X341491Y-10234198D01*
X341491Y-10234198D02*
X351015Y-10243722D01*
X351015Y-10243722D02*
X360539Y-10262770D01*
X360539Y-10262770D02*
X360539Y-10310389D01*
X360539Y-10310389D02*
X351015Y-10329436D01*
X351015Y-10329436D02*
X341491Y-10338960D01*
X341491Y-10338960D02*
X322444Y-10348484D01*
X322444Y-10348484D02*
X265301Y-10348484D01*
X265301Y-10348484D02*
X246253Y-10338960D01*
X246253Y-10338960D02*
X236729Y-10329436D01*
X446253Y-10329436D02*
X455777Y-10338960D01*
X455777Y-10338960D02*
X446253Y-10348484D01*
X446253Y-10348484D02*
X436729Y-10338960D01*
X436729Y-10338960D02*
X446253Y-10329436D01*
X446253Y-10329436D02*
X446253Y-10348484D01*
X531967Y-10167531D02*
X541491Y-10158008D01*
X541491Y-10158008D02*
X560539Y-10148484D01*
X560539Y-10148484D02*
X608158Y-10148484D01*
X608158Y-10148484D02*
X627205Y-10158008D01*
X627205Y-10158008D02*
X636729Y-10167531D01*
X636729Y-10167531D02*
X646253Y-10186579D01*
X646253Y-10186579D02*
X646253Y-10205627D01*
X646253Y-10205627D02*
X636729Y-10234198D01*
X636729Y-10234198D02*
X522443Y-10348484D01*
X522443Y-10348484D02*
X646253Y-10348484D01*
X770062Y-10148484D02*
X789110Y-10148484D01*
X789110Y-10148484D02*
X808158Y-10158008D01*
X808158Y-10158008D02*
X817682Y-10167531D01*
X817682Y-10167531D02*
X827205Y-10186579D01*
X827205Y-10186579D02*
X836729Y-10224674D01*
X836729Y-10224674D02*
X836729Y-10272293D01*
X836729Y-10272293D02*
X827205Y-10310389D01*
X827205Y-10310389D02*
X817682Y-10329436D01*
X817682Y-10329436D02*
X808158Y-10338960D01*
X808158Y-10338960D02*
X789110Y-10348484D01*
X789110Y-10348484D02*
X770062Y-10348484D01*
X770062Y-10348484D02*
X751015Y-10338960D01*
X751015Y-10338960D02*
X741491Y-10329436D01*
X741491Y-10329436D02*
X731967Y-10310389D01*
X731967Y-10310389D02*
X722443Y-10272293D01*
X722443Y-10272293D02*
X722443Y-10224674D01*
X722443Y-10224674D02*
X731967Y-10186579D01*
X731967Y-10186579D02*
X741491Y-10167531D01*
X741491Y-10167531D02*
X751015Y-10158008D01*
X751015Y-10158008D02*
X770062Y-10148484D01*
X960539Y-10148484D02*
X979586Y-10148484D01*
X979586Y-10148484D02*
X998634Y-10158008D01*
X998634Y-10158008D02*
X1008158Y-10167531D01*
X1008158Y-10167531D02*
X1017682Y-10186579D01*
X1017682Y-10186579D02*
X1027205Y-10224674D01*
X1027205Y-10224674D02*
X1027205Y-10272293D01*
X1027205Y-10272293D02*
X1017682Y-10310389D01*
X1017682Y-10310389D02*
X1008158Y-10329436D01*
X1008158Y-10329436D02*
X998634Y-10338960D01*
X998634Y-10338960D02*
X979586Y-10348484D01*
X979586Y-10348484D02*
X960539Y-10348484D01*
X960539Y-10348484D02*
X941491Y-10338960D01*
X941491Y-10338960D02*
X931967Y-10329436D01*
X931967Y-10329436D02*
X922443Y-10310389D01*
X922443Y-10310389D02*
X912920Y-10272293D01*
X912920Y-10272293D02*
X912920Y-10224674D01*
X912920Y-10224674D02*
X922443Y-10186579D01*
X922443Y-10186579D02*
X931967Y-10167531D01*
X931967Y-10167531D02*
X941491Y-10158008D01*
X941491Y-10158008D02*
X960539Y-10148484D01*
X1112920Y-10348484D02*
X1112920Y-10215150D01*
X1112920Y-10234198D02*
X1122444Y-10224674D01*
X1122444Y-10224674D02*
X1141491Y-10215150D01*
X1141491Y-10215150D02*
X1170063Y-10215150D01*
X1170063Y-10215150D02*
X1189110Y-10224674D01*
X1189110Y-10224674D02*
X1198634Y-10243722D01*
X1198634Y-10243722D02*
X1198634Y-10348484D01*
X1198634Y-10243722D02*
X1208158Y-10224674D01*
X1208158Y-10224674D02*
X1227205Y-10215150D01*
X1227205Y-10215150D02*
X1255777Y-10215150D01*
X1255777Y-10215150D02*
X1274825Y-10224674D01*
X1274825Y-10224674D02*
X1284348Y-10243722D01*
X1284348Y-10243722D02*
X1284348Y-10348484D01*
X1379586Y-10348484D02*
X1379586Y-10215150D01*
X1379586Y-10234198D02*
X1389110Y-10224674D01*
X1389110Y-10224674D02*
X1408158Y-10215150D01*
X1408158Y-10215150D02*
X1436729Y-10215150D01*
X1436729Y-10215150D02*
X1455777Y-10224674D01*
X1455777Y-10224674D02*
X1465301Y-10243722D01*
X1465301Y-10243722D02*
X1465301Y-10348484D01*
X1465301Y-10243722D02*
X1474824Y-10224674D01*
X1474824Y-10224674D02*
X1493872Y-10215150D01*
X1493872Y-10215150D02*
X1522443Y-10215150D01*
X1522443Y-10215150D02*
X1541491Y-10224674D01*
X1541491Y-10224674D02*
X1551015Y-10243722D01*
X1551015Y-10243722D02*
X1551015Y-10348484D01*
X1941491Y-10138960D02*
X1770063Y-10396103D01*
X2198634Y-10148484D02*
X2217682Y-10148484D01*
X2217682Y-10148484D02*
X2236729Y-10158008D01*
X2236729Y-10158008D02*
X2246253Y-10167531D01*
X2246253Y-10167531D02*
X2255777Y-10186579D01*
X2255777Y-10186579D02*
X2265301Y-10224674D01*
X2265301Y-10224674D02*
X2265301Y-10272293D01*
X2265301Y-10272293D02*
X2255777Y-10310389D01*
X2255777Y-10310389D02*
X2246253Y-10329436D01*
X2246253Y-10329436D02*
X2236729Y-10338960D01*
X2236729Y-10338960D02*
X2217682Y-10348484D01*
X2217682Y-10348484D02*
X2198634Y-10348484D01*
X2198634Y-10348484D02*
X2179587Y-10338960D01*
X2179587Y-10338960D02*
X2170063Y-10329436D01*
X2170063Y-10329436D02*
X2160539Y-10310389D01*
X2160539Y-10310389D02*
X2151015Y-10272293D01*
X2151015Y-10272293D02*
X2151015Y-10224674D01*
X2151015Y-10224674D02*
X2160539Y-10186579D01*
X2160539Y-10186579D02*
X2170063Y-10167531D01*
X2170063Y-10167531D02*
X2179587Y-10158008D01*
X2179587Y-10158008D02*
X2198634Y-10148484D01*
X2351015Y-10329436D02*
X2360539Y-10338960D01*
X2360539Y-10338960D02*
X2351015Y-10348484D01*
X2351015Y-10348484D02*
X2341491Y-10338960D01*
X2341491Y-10338960D02*
X2351015Y-10329436D01*
X2351015Y-10329436D02*
X2351015Y-10348484D01*
X2551015Y-10348484D02*
X2436729Y-10348484D01*
X2493872Y-10348484D02*
X2493872Y-10148484D01*
X2493872Y-10148484D02*
X2474825Y-10177055D01*
X2474825Y-10177055D02*
X2455777Y-10196103D01*
X2455777Y-10196103D02*
X2436729Y-10205627D01*
X2627206Y-10167531D02*
X2636729Y-10158008D01*
X2636729Y-10158008D02*
X2655777Y-10148484D01*
X2655777Y-10148484D02*
X2703396Y-10148484D01*
X2703396Y-10148484D02*
X2722444Y-10158008D01*
X2722444Y-10158008D02*
X2731968Y-10167531D01*
X2731968Y-10167531D02*
X2741491Y-10186579D01*
X2741491Y-10186579D02*
X2741491Y-10205627D01*
X2741491Y-10205627D02*
X2731968Y-10234198D01*
X2731968Y-10234198D02*
X2617682Y-10348484D01*
X2617682Y-10348484D02*
X2741491Y-10348484D01*
X2912920Y-10148484D02*
X2874825Y-10148484D01*
X2874825Y-10148484D02*
X2855777Y-10158008D01*
X2855777Y-10158008D02*
X2846253Y-10167531D01*
X2846253Y-10167531D02*
X2827206Y-10196103D01*
X2827206Y-10196103D02*
X2817682Y-10234198D01*
X2817682Y-10234198D02*
X2817682Y-10310389D01*
X2817682Y-10310389D02*
X2827206Y-10329436D01*
X2827206Y-10329436D02*
X2836729Y-10338960D01*
X2836729Y-10338960D02*
X2855777Y-10348484D01*
X2855777Y-10348484D02*
X2893872Y-10348484D01*
X2893872Y-10348484D02*
X2912920Y-10338960D01*
X2912920Y-10338960D02*
X2922444Y-10329436D01*
X2922444Y-10329436D02*
X2931967Y-10310389D01*
X2931967Y-10310389D02*
X2931967Y-10262770D01*
X2931967Y-10262770D02*
X2922444Y-10243722D01*
X2922444Y-10243722D02*
X2912920Y-10234198D01*
X2912920Y-10234198D02*
X2893872Y-10224674D01*
X2893872Y-10224674D02*
X2855777Y-10224674D01*
X2855777Y-10224674D02*
X2836729Y-10234198D01*
X2836729Y-10234198D02*
X2827206Y-10243722D01*
X2827206Y-10243722D02*
X2817682Y-10262770D01*
X3055777Y-10148484D02*
X3074825Y-10148484D01*
X3074825Y-10148484D02*
X3093872Y-10158008D01*
X3093872Y-10158008D02*
X3103396Y-10167531D01*
X3103396Y-10167531D02*
X3112920Y-10186579D01*
X3112920Y-10186579D02*
X3122444Y-10224674D01*
X3122444Y-10224674D02*
X3122444Y-10272293D01*
X3122444Y-10272293D02*
X3112920Y-10310389D01*
X3112920Y-10310389D02*
X3103396Y-10329436D01*
X3103396Y-10329436D02*
X3093872Y-10338960D01*
X3093872Y-10338960D02*
X3074825Y-10348484D01*
X3074825Y-10348484D02*
X3055777Y-10348484D01*
X3055777Y-10348484D02*
X3036729Y-10338960D01*
X3036729Y-10338960D02*
X3027206Y-10329436D01*
X3027206Y-10329436D02*
X3017682Y-10310389D01*
X3017682Y-10310389D02*
X3008158Y-10272293D01*
X3008158Y-10272293D02*
X3008158Y-10224674D01*
X3008158Y-10224674D02*
X3017682Y-10186579D01*
X3017682Y-10186579D02*
X3027206Y-10167531D01*
X3027206Y-10167531D02*
X3036729Y-10158008D01*
X3036729Y-10158008D02*
X3055777Y-10148484D01*
X3198634Y-10148484D02*
X3198634Y-10186579D01*
X3274825Y-10148484D02*
X3274825Y-10186579D01*
X3570063Y-10424674D02*
X3560539Y-10415150D01*
X3560539Y-10415150D02*
X3541491Y-10386579D01*
X3541491Y-10386579D02*
X3531968Y-10367531D01*
X3531968Y-10367531D02*
X3522444Y-10338960D01*
X3522444Y-10338960D02*
X3512920Y-10291341D01*
X3512920Y-10291341D02*
X3512920Y-10253246D01*
X3512920Y-10253246D02*
X3522444Y-10205627D01*
X3522444Y-10205627D02*
X3531968Y-10177055D01*
X3531968Y-10177055D02*
X3541491Y-10158008D01*
X3541491Y-10158008D02*
X3560539Y-10129436D01*
X3560539Y-10129436D02*
X3570063Y-10119912D01*
X3731968Y-10215150D02*
X3731968Y-10348484D01*
X3684348Y-10138960D02*
X3636729Y-10281817D01*
X3636729Y-10281817D02*
X3760539Y-10281817D01*
X3989110Y-10348484D02*
X3989110Y-10148484D01*
X4074825Y-10348484D02*
X4074825Y-10243722D01*
X4074825Y-10243722D02*
X4065301Y-10224674D01*
X4065301Y-10224674D02*
X4046253Y-10215150D01*
X4046253Y-10215150D02*
X4017682Y-10215150D01*
X4017682Y-10215150D02*
X3998634Y-10224674D01*
X3998634Y-10224674D02*
X3989110Y-10234198D01*
X4198634Y-10348484D02*
X4179587Y-10338960D01*
X4179587Y-10338960D02*
X4170063Y-10329436D01*
X4170063Y-10329436D02*
X4160539Y-10310389D01*
X4160539Y-10310389D02*
X4160539Y-10253246D01*
X4160539Y-10253246D02*
X4170063Y-10234198D01*
X4170063Y-10234198D02*
X4179587Y-10224674D01*
X4179587Y-10224674D02*
X4198634Y-10215150D01*
X4198634Y-10215150D02*
X4227206Y-10215150D01*
X4227206Y-10215150D02*
X4246253Y-10224674D01*
X4246253Y-10224674D02*
X4255777Y-10234198D01*
X4255777Y-10234198D02*
X4265301Y-10253246D01*
X4265301Y-10253246D02*
X4265301Y-10310389D01*
X4265301Y-10310389D02*
X4255777Y-10329436D01*
X4255777Y-10329436D02*
X4246253Y-10338960D01*
X4246253Y-10338960D02*
X4227206Y-10348484D01*
X4227206Y-10348484D02*
X4198634Y-10348484D01*
X4379587Y-10348484D02*
X4360539Y-10338960D01*
X4360539Y-10338960D02*
X4351015Y-10319912D01*
X4351015Y-10319912D02*
X4351015Y-10148484D01*
X4531968Y-10338960D02*
X4512920Y-10348484D01*
X4512920Y-10348484D02*
X4474825Y-10348484D01*
X4474825Y-10348484D02*
X4455777Y-10338960D01*
X4455777Y-10338960D02*
X4446253Y-10319912D01*
X4446253Y-10319912D02*
X4446253Y-10243722D01*
X4446253Y-10243722D02*
X4455777Y-10224674D01*
X4455777Y-10224674D02*
X4474825Y-10215150D01*
X4474825Y-10215150D02*
X4512920Y-10215150D01*
X4512920Y-10215150D02*
X4531968Y-10224674D01*
X4531968Y-10224674D02*
X4541492Y-10243722D01*
X4541492Y-10243722D02*
X4541492Y-10262770D01*
X4541492Y-10262770D02*
X4446253Y-10281817D01*
X4617682Y-10338960D02*
X4636730Y-10348484D01*
X4636730Y-10348484D02*
X4674825Y-10348484D01*
X4674825Y-10348484D02*
X4693873Y-10338960D01*
X4693873Y-10338960D02*
X4703396Y-10319912D01*
X4703396Y-10319912D02*
X4703396Y-10310389D01*
X4703396Y-10310389D02*
X4693873Y-10291341D01*
X4693873Y-10291341D02*
X4674825Y-10281817D01*
X4674825Y-10281817D02*
X4646253Y-10281817D01*
X4646253Y-10281817D02*
X4627206Y-10272293D01*
X4627206Y-10272293D02*
X4617682Y-10253246D01*
X4617682Y-10253246D02*
X4617682Y-10243722D01*
X4617682Y-10243722D02*
X4627206Y-10224674D01*
X4627206Y-10224674D02*
X4646253Y-10215150D01*
X4646253Y-10215150D02*
X4674825Y-10215150D01*
X4674825Y-10215150D02*
X4693873Y-10224674D01*
X4770063Y-10424674D02*
X4779587Y-10415150D01*
X4779587Y-10415150D02*
X4798634Y-10386579D01*
X4798634Y-10386579D02*
X4808158Y-10367531D01*
X4808158Y-10367531D02*
X4817682Y-10338960D01*
X4817682Y-10338960D02*
X4827206Y-10291341D01*
X4827206Y-10291341D02*
X4827206Y-10253246D01*
X4827206Y-10253246D02*
X4817682Y-10205627D01*
X4817682Y-10205627D02*
X4808158Y-10177055D01*
X4808158Y-10177055D02*
X4798634Y-10158008D01*
X4798634Y-10158008D02*
X4779587Y-10129436D01*
X4779587Y-10129436D02*
X4770063Y-10119912D01*
X5131968Y-10424674D02*
X5122444Y-10415150D01*
X5122444Y-10415150D02*
X5103396Y-10386579D01*
X5103396Y-10386579D02*
X5093873Y-10367531D01*
X5093873Y-10367531D02*
X5084349Y-10338960D01*
X5084349Y-10338960D02*
X5074825Y-10291341D01*
X5074825Y-10291341D02*
X5074825Y-10253246D01*
X5074825Y-10253246D02*
X5084349Y-10205627D01*
X5084349Y-10205627D02*
X5093873Y-10177055D01*
X5093873Y-10177055D02*
X5103396Y-10158008D01*
X5103396Y-10158008D02*
X5122444Y-10129436D01*
X5122444Y-10129436D02*
X5131968Y-10119912D01*
X5208158Y-10215150D02*
X5208158Y-10348484D01*
X5208158Y-10234198D02*
X5217682Y-10224674D01*
X5217682Y-10224674D02*
X5236730Y-10215150D01*
X5236730Y-10215150D02*
X5265301Y-10215150D01*
X5265301Y-10215150D02*
X5284349Y-10224674D01*
X5284349Y-10224674D02*
X5293873Y-10243722D01*
X5293873Y-10243722D02*
X5293873Y-10348484D01*
X5417682Y-10348484D02*
X5398634Y-10338960D01*
X5398634Y-10338960D02*
X5389111Y-10329436D01*
X5389111Y-10329436D02*
X5379587Y-10310389D01*
X5379587Y-10310389D02*
X5379587Y-10253246D01*
X5379587Y-10253246D02*
X5389111Y-10234198D01*
X5389111Y-10234198D02*
X5398634Y-10224674D01*
X5398634Y-10224674D02*
X5417682Y-10215150D01*
X5417682Y-10215150D02*
X5446254Y-10215150D01*
X5446254Y-10215150D02*
X5465301Y-10224674D01*
X5465301Y-10224674D02*
X5474825Y-10234198D01*
X5474825Y-10234198D02*
X5484349Y-10253246D01*
X5484349Y-10253246D02*
X5484349Y-10310389D01*
X5484349Y-10310389D02*
X5474825Y-10329436D01*
X5474825Y-10329436D02*
X5465301Y-10338960D01*
X5465301Y-10338960D02*
X5446254Y-10348484D01*
X5446254Y-10348484D02*
X5417682Y-10348484D01*
X5541492Y-10215150D02*
X5617682Y-10215150D01*
X5570063Y-10148484D02*
X5570063Y-10319912D01*
X5570063Y-10319912D02*
X5579587Y-10338960D01*
X5579587Y-10338960D02*
X5598634Y-10348484D01*
X5598634Y-10348484D02*
X5617682Y-10348484D01*
X5836730Y-10215150D02*
X5836730Y-10415150D01*
X5836730Y-10224674D02*
X5855777Y-10215150D01*
X5855777Y-10215150D02*
X5893873Y-10215150D01*
X5893873Y-10215150D02*
X5912920Y-10224674D01*
X5912920Y-10224674D02*
X5922444Y-10234198D01*
X5922444Y-10234198D02*
X5931968Y-10253246D01*
X5931968Y-10253246D02*
X5931968Y-10310389D01*
X5931968Y-10310389D02*
X5922444Y-10329436D01*
X5922444Y-10329436D02*
X5912920Y-10338960D01*
X5912920Y-10338960D02*
X5893873Y-10348484D01*
X5893873Y-10348484D02*
X5855777Y-10348484D01*
X5855777Y-10348484D02*
X5836730Y-10338960D01*
X6046253Y-10348484D02*
X6027206Y-10338960D01*
X6027206Y-10338960D02*
X6017682Y-10319912D01*
X6017682Y-10319912D02*
X6017682Y-10148484D01*
X6208158Y-10348484D02*
X6208158Y-10243722D01*
X6208158Y-10243722D02*
X6198634Y-10224674D01*
X6198634Y-10224674D02*
X6179587Y-10215150D01*
X6179587Y-10215150D02*
X6141492Y-10215150D01*
X6141492Y-10215150D02*
X6122444Y-10224674D01*
X6208158Y-10338960D02*
X6189111Y-10348484D01*
X6189111Y-10348484D02*
X6141492Y-10348484D01*
X6141492Y-10348484D02*
X6122444Y-10338960D01*
X6122444Y-10338960D02*
X6112920Y-10319912D01*
X6112920Y-10319912D02*
X6112920Y-10300865D01*
X6112920Y-10300865D02*
X6122444Y-10281817D01*
X6122444Y-10281817D02*
X6141492Y-10272293D01*
X6141492Y-10272293D02*
X6189111Y-10272293D01*
X6189111Y-10272293D02*
X6208158Y-10262770D01*
X6274825Y-10215150D02*
X6351015Y-10215150D01*
X6303396Y-10148484D02*
X6303396Y-10319912D01*
X6303396Y-10319912D02*
X6312920Y-10338960D01*
X6312920Y-10338960D02*
X6331968Y-10348484D01*
X6331968Y-10348484D02*
X6351015Y-10348484D01*
X6493873Y-10338960D02*
X6474825Y-10348484D01*
X6474825Y-10348484D02*
X6436730Y-10348484D01*
X6436730Y-10348484D02*
X6417682Y-10338960D01*
X6417682Y-10338960D02*
X6408158Y-10319912D01*
X6408158Y-10319912D02*
X6408158Y-10243722D01*
X6408158Y-10243722D02*
X6417682Y-10224674D01*
X6417682Y-10224674D02*
X6436730Y-10215150D01*
X6436730Y-10215150D02*
X6474825Y-10215150D01*
X6474825Y-10215150D02*
X6493873Y-10224674D01*
X6493873Y-10224674D02*
X6503396Y-10243722D01*
X6503396Y-10243722D02*
X6503396Y-10262770D01*
X6503396Y-10262770D02*
X6408158Y-10281817D01*
X6674825Y-10348484D02*
X6674825Y-10148484D01*
X6674825Y-10338960D02*
X6655777Y-10348484D01*
X6655777Y-10348484D02*
X6617682Y-10348484D01*
X6617682Y-10348484D02*
X6598634Y-10338960D01*
X6598634Y-10338960D02*
X6589111Y-10329436D01*
X6589111Y-10329436D02*
X6579587Y-10310389D01*
X6579587Y-10310389D02*
X6579587Y-10253246D01*
X6579587Y-10253246D02*
X6589111Y-10234198D01*
X6589111Y-10234198D02*
X6598634Y-10224674D01*
X6598634Y-10224674D02*
X6617682Y-10215150D01*
X6617682Y-10215150D02*
X6655777Y-10215150D01*
X6655777Y-10215150D02*
X6674825Y-10224674D01*
X6751015Y-10424674D02*
X6760539Y-10415150D01*
X6760539Y-10415150D02*
X6779587Y-10386579D01*
X6779587Y-10386579D02*
X6789111Y-10367531D01*
X6789111Y-10367531D02*
X6798634Y-10338960D01*
X6798634Y-10338960D02*
X6808158Y-10291341D01*
X6808158Y-10291341D02*
X6808158Y-10253246D01*
X6808158Y-10253246D02*
X6798634Y-10205627D01*
X6798634Y-10205627D02*
X6789111Y-10177055D01*
X6789111Y-10177055D02*
X6779587Y-10158008D01*
X6779587Y-10158008D02*
X6760539Y-10129436D01*
X6760539Y-10129436D02*
X6751015Y-10119912D01*
M02*
