M48
; DRILL file KiCad 10.0.6 date 2026-10-05T03:03:23
; FORMAT={-:-/ absolute / metric / decimal}
; #@! TF.CreationDate,2026-10-05T03:03:23+08:00
; #@! TF.GenerationSoftware,Kicad,Pcbnew,10.0.6
; #@! TF.FileFunction,MixedPlating,1,4
FMAT,2
METRIC
; #@! TA.AperFunction,Plated,PTH,ViaDrill
T1C0.300
; #@! TA.AperFunction,Plated,PTH,ViaDrill
T2C0.350
; #@! TA.AperFunction,Plated,PTH,ComponentDrill
T3C0.600
; #@! TA.AperFunction,Plated,PTH,ComponentDrill
T4C0.800
; #@! TA.AperFunction,Plated,PTH,ComponentDrill
T5C0.900
; #@! TA.AperFunction,NonPlated,NPTH,ComponentDrill
T6C0.600
; #@! TA.AperFunction,NonPlated,NPTH,ComponentDrill
T7C3.200
%
G90
G05
T1
X2.72Y-60.161
X3.623Y-67.8
X3.623Y-69.704
X3.964Y-38.404
X3.964Y-40.544
X4.321Y-60.794
X4.445Y-59.848
X6.051Y-18.873
X7.27Y-10.62
X7.397Y-67.209
X9.963Y-18.873
X12.733Y-18.72
X13.45Y-20.987
X13.45Y-21.561
X13.73Y-60.15
X14.226Y-20.738
X15.148Y-61.753
X15.523Y-13.937
X15.985Y-59.85
X16.109Y-60.792
X17.02Y-16.0
X19.0Y-32.0
X20.3Y-9.99
X21.841Y-13.957
X21.936Y-15.45
X21.936Y-17.133
X21.962Y-20.148
X22.003Y-19.207
X22.003Y-63.763
X22.114Y-54.845
X22.332Y-14.675
X22.796Y-11.094
X22.8Y-28.92
X22.84Y-15.182
X23.09Y-46.43
X23.188Y-35.611
X23.188Y-36.472
X23.308Y-62.458
X23.555Y-26.0
X23.9Y-62.458
X23.991Y-43.558
X24.239Y-22.644
X24.365Y-46.805
X24.95Y-68.026
X24.95Y-69.704
X25.175Y-49.064
X25.205Y-28.643
X25.4Y-67.577
X25.912Y-22.644
X27.198Y-27.779
X27.897Y-63.669
X28.335Y-36.734
X28.885Y-28.025
X29.225Y-38.5
X29.689Y-63.669
X30.773Y-19.5
X30.773Y-28.19
X30.773Y-40.6
X30.845Y-22.642
X30.9Y-62.458
X31.875Y-60.136
X32.0Y-50.6
X32.0Y-55.8
X32.024Y-23.454
X33.508Y-22.463
X33.756Y-28.161
X33.792Y-15.842
X33.792Y-67.209
X33.821Y-39.877
X34.861Y-22.328
X35.339Y-67.209
X36.739Y-72.674
X37.15Y-73.085
X37.397Y-29.802
X37.538Y-63.451
X37.676Y-69.662
X37.676Y-71.737
X38.247Y-31.0
X38.845Y-22.14
X38.974Y-11.351
X38.974Y-12.015
X39.686Y-9.88
X42.633Y-32.367
X42.633Y-34.059
X43.269Y-60.792
X44.23Y-61.753
X45.3Y-27.5
X45.9Y-26.9
X46.2Y-55.5
X46.9Y-24.5
X47.4Y-67.928
X47.49Y-51.0
X47.582Y-51.88
X48.3Y-33.158
X48.438Y-51.948
X48.527Y-60.872
X49.141Y-33.682
X49.175Y-69.704
X49.282Y-21.1
X49.981Y-31.911
X50.04Y-21.935
X50.622Y-19.382
X51.0Y-16.5
X51.084Y-21.935
X51.766Y-21.253
X52.5Y-42.753
X53.216Y-5.074
X53.25Y-27.7
X54.192Y-18.453
X54.29Y-4.0
X54.539Y-62.82
X55.247Y-16.236
X56.538Y-62.82
X57.903Y-42.97
X57.958Y-27.0
X58.424Y-41.527
X58.963Y-25.996
X59.131Y-40.12
X59.664Y-25.996
X59.839Y-42.942
X60.0Y-29.25
X60.316Y-54.852
X60.734Y-34.047
X60.734Y-38.847
X60.734Y-43.647
X61.161Y-33.663
X61.409Y-42.972
X62.629Y-38.78
X62.629Y-42.972
X62.72Y-31.78
X62.8Y-51.4
X63.0Y-56.593
X64.038Y-26.008
X64.6Y-62.8
X64.919Y-39.434
X65.201Y-43.75
X65.5Y-38.632
X65.775Y-24.567
X65.798Y-36.021
X65.798Y-36.988
X66.438Y-28.04
X66.7Y-67.479
X67.241Y-63.763
X67.9Y-62.458
X67.917Y-50.197
X68.0Y-37.542
X68.003Y-45.7
X68.236Y-35.669
X68.308Y-30.239
X68.63Y-36.911
X68.654Y-46.362
X68.799Y-41.627
X69.079Y-38.632
X69.157Y-25.098
X69.157Y-31.088
X69.42Y-49.172
X69.563Y-43.109
X69.691Y-33.935
X69.917Y-45.075
X70.037Y-26.066
X70.054Y-38.373
X70.434Y-31.088
X70.435Y-36.911
X70.707Y-26.726
X70.737Y-45.075
X71.225Y-38.373
X71.226Y-51.245
X71.432Y-29.5
X71.906Y-12.635
X72.04Y-27.451
X72.104Y-60.872
X72.228Y-21.235
X72.671Y-15.386
X72.9Y-63.5
X72.972Y-35.212
X74.0Y-63.0
X74.205Y-42.417
X74.325Y-15.037
X74.35Y-23.651
X74.434Y-49.877
X74.5Y-10.847
X74.626Y-51.364
X74.773Y-31.16
X75.049Y-43.179
X75.051Y-10.296
X75.341Y-16.827
X75.517Y-48.972
X75.918Y-25.866
X75.978Y-61.622
X76.5Y-31.458
X76.65Y-17.0
X76.778Y-28.16
X77.15Y-48.85
X77.266Y-39.283
X77.33Y-52.713
X77.604Y-32.562
X77.604Y-34.059
X77.68Y-22.177
X77.818Y-19.371
X78.167Y-29.548
X78.179Y-46.562
X78.807Y-52.713
X79.266Y-52.253
X79.5Y-2.3
X79.5Y-36.0
X79.6Y-31.5
X81.16Y-58.12
X82.089Y-2.987
X83.892Y-31.273
X83.892Y-51.881
X83.892Y-69.704
X84.144Y-17.318
X84.173Y-21.546
X84.449Y-19.721
X85.0Y-22.373
X85.0Y-32.381
X85.0Y-42.991
X85.6Y-2.3
X85.673Y-42.318
X87.373Y-60.489
X87.989Y-60.489
X92.734Y-19.207
X93.179Y-42.97
X95.029Y-51.881
X95.648Y-29.75
X95.648Y-51.75
X95.681Y-4.072
X95.681Y-31.587
X95.703Y-7.347
X95.722Y-6.383
X97.35Y-73.2
X98.3Y-1.68
T2
X1.5Y-76.0
X2.3Y-64.0
X2.528Y-75.15
X3.15Y-74.528
X3.221Y-51.55
X3.221Y-52.45
X4.4Y-16.95
X4.4Y-21.25
X4.45Y-63.221
X4.45Y-64.779
X4.9Y-64.0
X5.472Y-75.15
X8.15Y-77.7
X8.207Y-59.847
X10.227Y-22.954
X10.829Y-64.851
X13.667Y-27.926
X13.835Y-74.75
X14.997Y-17.701
X15.41Y-33.513
X16.0Y-4.0
X16.0Y-16.0
X16.0Y-28.0
X16.0Y-40.0
X16.0Y-52.0
X16.0Y-64.0
X16.0Y-73.5
X16.0Y-75.1
X16.85Y-74.528
X19.15Y-77.7
X19.416Y-33.955
X22.164Y-66.75
X23.3Y-38.5
X23.997Y-32.299
X25.835Y-74.75
X26.3Y-28.0
X26.3Y-64.0
X26.528Y-63.15
X27.15Y-14.528
X27.25Y-8.725
X27.55Y-75.221
X28.0Y-52.0
X28.0Y-74.3
X28.45Y-28.779
X28.779Y-40.45
X28.779Y-64.45
X28.85Y-14.528
X28.85Y-74.528
X28.9Y-16.0
X29.472Y-15.15
X29.472Y-28.85
X29.472Y-40.85
X29.472Y-64.85
X29.706Y-34.25
X30.15Y-77.7
X31.548Y-38.707
X32.378Y-67.41
X35.977Y-52.535
X36.957Y-6.682
X37.622Y-43.0
X38.528Y-75.15
X39.15Y-5.472
X39.15Y-74.528
X39.221Y-4.45
X40.0Y-5.7
X40.0Y-16.0
X40.0Y-28.0
X40.0Y-40.0
X40.0Y-52.0
X40.0Y-64.0
X40.0Y-74.3
X41.15Y-77.7
X41.25Y-6.165
X41.497Y-20.99
X41.7Y-76.0
X41.975Y-30.299
X42.975Y-15.299
X44.09Y-35.766
X44.164Y-66.75
X49.273Y-27.718
X50.3Y-40.0
X50.528Y-40.85
X51.15Y-14.528
X51.221Y-63.55
X51.221Y-64.45
X51.55Y-39.221
X52.0Y-4.0
X52.0Y-13.5
X52.0Y-15.1
X52.0Y-28.9
X52.0Y-52.0
X52.0Y-64.9
X52.0Y-75.1
X52.15Y-77.7
X52.779Y-28.45
X52.779Y-64.45
X52.85Y-14.528
X52.85Y-29.472
X52.85Y-38.528
X52.9Y-76.0
X53.472Y-28.85
X53.472Y-76.85
X53.7Y-76.0
X55.164Y-66.75
X56.497Y-28.299
X56.513Y-43.502
X56.8Y-34.247
X57.5Y-29.75
X57.5Y-49.093
X57.59Y-19.568
X57.834Y-64.484
X58.5Y-57.753
X60.0Y-32.253
X60.197Y-27.819
X61.477Y-35.814
X61.477Y-45.414
X61.5Y-40.0
X61.75Y-27.129
X61.973Y-50.672
X62.528Y-64.85
X62.75Y-37.835
X63.15Y-65.472
X63.15Y-77.7
X63.487Y-46.563
X63.55Y-16.779
X63.55Y-64.779
X64.0Y-4.0
X64.0Y-52.0
X64.0Y-76.0
X64.45Y-16.779
X64.5Y-56.593
X64.9Y-16.0
X65.234Y-27.41
X65.378Y-67.41
X65.472Y-16.85
X65.973Y-50.672
X68.988Y-27.128
X69.525Y-47.715
X70.357Y-32.636
X71.201Y-19.5
X73.835Y-29.25
X74.15Y-77.7
X76.0Y-5.7
X76.0Y-38.3
X76.0Y-64.0
X76.0Y-76.0
X76.85Y-5.472
X76.9Y-4.0
X76.975Y-50.201
X77.014Y-66.964
X77.426Y-26.25
X77.472Y-4.85
X77.7Y-28.0
X78.165Y-14.75
X78.165Y-17.25
X78.5Y-16.0
X78.663Y-20.07
X79.226Y-42.937
X80.985Y-61.977
X81.356Y-43.65
X82.452Y-57.41
X83.929Y-24.149
X83.929Y-35.149
X85.127Y-60.04
X85.15Y-77.7
X87.0Y-21.25
X87.15Y-5.472
X87.4Y-32.357
X88.0Y-2.3
X88.0Y-5.7
X88.0Y-16.0
X88.0Y-28.0
X88.0Y-40.0
X88.0Y-52.0
X88.0Y-64.0
X88.0Y-76.0
X88.365Y-66.0
X89.7Y-16.25
X89.7Y-27.25
X90.5Y-4.0
X96.251Y-37.862
X96.251Y-48.862
X96.291Y-15.737
X96.291Y-26.737
T5
X5.0Y-42.31
X5.0Y-55.81
X5.0Y-34.69
X5.0Y-37.23
X5.0Y-39.77
X5.0Y-48.19
X5.0Y-50.73
X5.0Y-53.27
X40.99Y-4.0
X43.53Y-4.0
X46.07Y-4.0
X48.61Y-4.0
X54.29Y-4.0
X56.83Y-4.0
X59.37Y-4.0
X61.91Y-4.0
X67.59Y-4.0
X70.13Y-4.0
X72.67Y-4.0
X75.21Y-4.0
X80.89Y-4.0
X83.43Y-4.0
X85.97Y-4.0
X88.51Y-4.0
X90.69Y-74.0
X93.23Y-74.0
X95.77Y-74.0
X98.31Y-74.0
T6
X3.169Y-16.1
X3.169Y-21.9
T7
X3.0Y-28.0
X3.4Y-3.4
X73.5Y-55.7
X83.0Y-12.5
T3
X94.15Y-1.68G85X94.85Y-1.68
G05
X94.15Y-10.32G85X94.85Y-10.32
G05
X97.95Y-1.68G85X98.65Y-1.68
G05
X97.95Y-10.32G85X98.65Y-10.32
G05
T4
X3.019Y-14.675G85X2.319Y-14.675
G05
X3.019Y-23.325G85X2.319Y-23.325
G05
X7.049Y-14.675G85X6.649Y-14.675
G05
X7.049Y-23.325G85X6.649Y-23.325
G05
M30
