%TF.GenerationSoftware,KiCad,Pcbnew,10.0.6*%
%TF.CreationDate,2026-10-05T03:03:23+08:00*%
%TF.ProjectId,flowio-p1,666c6f77-696f-42d7-9031-2e6b69636164,rev?*%
%TF.SameCoordinates,Original*%
%TF.FileFunction,Drillmap*%
%TF.FilePolarity,Positive*%
%FSLAX45Y45*%
G04 Gerber Fmt 4.5, Leading zero omitted, Abs format (unit mm)*
G04 Created by KiCad (PCBNEW 10.0.6) date 2026-10-05 03:03:23*
%MOMM*%
%LPD*%
G01*
G04 APERTURE LIST*
%ADD10C,0.100000*%
%ADD11C,0.200000*%
%ADD12C,0.320000*%
G04 APERTURE END LIST*
D10*
X0Y0D02*
X10000000Y0D01*
X0Y-8000000D02*
X0Y0D01*
X10000000Y0D02*
X10000000Y-8000000D01*
X10000000Y-8000000D02*
X0Y-8000000D01*
D11*
D10*
X256960Y-6001070D02*
X286960Y-6031070D01*
X286960Y-6001070D02*
X256960Y-6031070D01*
X347340Y-6765010D02*
X377340Y-6795010D01*
X377340Y-6765010D02*
X347340Y-6795010D01*
X347340Y-6955360D02*
X377340Y-6985360D01*
X377340Y-6955360D02*
X347340Y-6985360D01*
X381369Y-3825431D02*
X411369Y-3855431D01*
X411369Y-3825431D02*
X381369Y-3855431D01*
X381369Y-4039395D02*
X411369Y-4069395D01*
X411369Y-4039395D02*
X381369Y-4069395D01*
X417070Y-6064400D02*
X447070Y-6094400D01*
X447070Y-6064400D02*
X417070Y-6094400D01*
X429500Y-5969820D02*
X459500Y-5999820D01*
X459500Y-5969820D02*
X429500Y-5999820D01*
X590100Y-1872340D02*
X620100Y-1902340D01*
X620100Y-1872340D02*
X590100Y-1902340D01*
X712000Y-1047000D02*
X742000Y-1077000D01*
X742000Y-1047000D02*
X712000Y-1077000D01*
X724730Y-6705920D02*
X754730Y-6735920D01*
X754730Y-6705920D02*
X724730Y-6735920D01*
X981270Y-1872340D02*
X1011270Y-1902340D01*
X1011270Y-1872340D02*
X981270Y-1902340D01*
X1258294Y-1857023D02*
X1288294Y-1887023D01*
X1288294Y-1857023D02*
X1258294Y-1887023D01*
X1330000Y-2083680D02*
X1360000Y-2113680D01*
X1360000Y-2083680D02*
X1330000Y-2113680D01*
X1330000Y-2141150D02*
X1360000Y-2171150D01*
X1360000Y-2141150D02*
X1330000Y-2171150D01*
X1358020Y-6000010D02*
X1388020Y-6030010D01*
X1388020Y-6000010D02*
X1358020Y-6030010D01*
X1407580Y-2058850D02*
X1437580Y-2088850D01*
X1437580Y-2058850D02*
X1407580Y-2088850D01*
X1499810Y-6160340D02*
X1529810Y-6190340D01*
X1529810Y-6160340D02*
X1499810Y-6190340D01*
X1537260Y-1378740D02*
X1567260Y-1408740D01*
X1567260Y-1378740D02*
X1537260Y-1408740D01*
X1583490Y-5969980D02*
X1613490Y-5999980D01*
X1613490Y-5969980D02*
X1583490Y-5999980D01*
X1595910Y-6064240D02*
X1625910Y-6094240D01*
X1625910Y-6064240D02*
X1595910Y-6094240D01*
X1687000Y-1585000D02*
X1717000Y-1615000D01*
X1717000Y-1585000D02*
X1687000Y-1615000D01*
X1885000Y-3185000D02*
X1915000Y-3215000D01*
X1915000Y-3185000D02*
X1885000Y-3215000D01*
X2015000Y-984000D02*
X2045000Y-1014000D01*
X2045000Y-984000D02*
X2015000Y-1014000D01*
X2169100Y-1380690D02*
X2199100Y-1410690D01*
X2199100Y-1380690D02*
X2169100Y-1410690D01*
X2178630Y-1529970D02*
X2208630Y-1559970D01*
X2208630Y-1529970D02*
X2178630Y-1559970D01*
X2178630Y-1698330D02*
X2208630Y-1728330D01*
X2208630Y-1698330D02*
X2178630Y-1728330D01*
X2181190Y-1999780D02*
X2211190Y-2029780D01*
X2211190Y-1999780D02*
X2181190Y-2029780D01*
X2185330Y-1905680D02*
X2215330Y-1935680D01*
X2215330Y-1905680D02*
X2185330Y-1935680D01*
X2185330Y-6361280D02*
X2215330Y-6391280D01*
X2215330Y-6361280D02*
X2185330Y-6391280D01*
X2196415Y-5469545D02*
X2226415Y-5499545D01*
X2226415Y-5469545D02*
X2196415Y-5499545D01*
X2218190Y-1452480D02*
X2248190Y-1482480D01*
X2248190Y-1452480D02*
X2218190Y-1482480D01*
X2264610Y-1094420D02*
X2294610Y-1124420D01*
X2294610Y-1094420D02*
X2264610Y-1124420D01*
X2265000Y-2877000D02*
X2295000Y-2907000D01*
X2295000Y-2877000D02*
X2265000Y-2907000D01*
X2268960Y-1503250D02*
X2298960Y-1533250D01*
X2298960Y-1503250D02*
X2268960Y-1533250D01*
X2294000Y-4628000D02*
X2324000Y-4658000D01*
X2324000Y-4628000D02*
X2294000Y-4658000D01*
X2303850Y-3546130D02*
X2333850Y-3576130D01*
X2333850Y-3546130D02*
X2303850Y-3576130D01*
X2303850Y-3632200D02*
X2333850Y-3662200D01*
X2333850Y-3632200D02*
X2303850Y-3662200D01*
X2315780Y-6230830D02*
X2345780Y-6260830D01*
X2345780Y-6230830D02*
X2315780Y-6260830D01*
X2340500Y-2585000D02*
X2370500Y-2615000D01*
X2370500Y-2585000D02*
X2340500Y-2615000D01*
X2375000Y-6230830D02*
X2405000Y-6260830D01*
X2405000Y-6230830D02*
X2375000Y-6260830D01*
X2384113Y-4340834D02*
X2414113Y-4370834D01*
X2414113Y-4340834D02*
X2384113Y-4370834D01*
X2408860Y-2249370D02*
X2438860Y-2279370D01*
X2438860Y-2249370D02*
X2408860Y-2279370D01*
X2421500Y-4665510D02*
X2451500Y-4695510D01*
X2451500Y-4665510D02*
X2421500Y-4695510D01*
X2480040Y-6787630D02*
X2510040Y-6817630D01*
X2510040Y-6787630D02*
X2480040Y-6817630D01*
X2480040Y-6955360D02*
X2510040Y-6985360D01*
X2510040Y-6955360D02*
X2480040Y-6985360D01*
X2502530Y-4891440D02*
X2532530Y-4921440D01*
X2532530Y-4891440D02*
X2502530Y-4921440D01*
X2505460Y-2849310D02*
X2535460Y-2879310D01*
X2535460Y-2849310D02*
X2505460Y-2879310D01*
X2525000Y-6742670D02*
X2555000Y-6772670D01*
X2555000Y-6742670D02*
X2525000Y-6772670D01*
X2576210Y-2249370D02*
X2606210Y-2279370D01*
X2606210Y-2249370D02*
X2576210Y-2279370D01*
X2704760Y-2762940D02*
X2734760Y-2792940D01*
X2734760Y-2762940D02*
X2704760Y-2792940D01*
X2774750Y-6351880D02*
X2804750Y-6381880D01*
X2804750Y-6351880D02*
X2774750Y-6381880D01*
X2818550Y-3658400D02*
X2848550Y-3688400D01*
X2848550Y-3658400D02*
X2818550Y-3688400D01*
X2873510Y-2787540D02*
X2903510Y-2817540D01*
X2903510Y-2787540D02*
X2873510Y-2817540D01*
X2907500Y-3835000D02*
X2937500Y-3865000D01*
X2937500Y-3835000D02*
X2907500Y-3865000D01*
X2953950Y-6351880D02*
X2983950Y-6381880D01*
X2983950Y-6351880D02*
X2953950Y-6381880D01*
X3062300Y-1935000D02*
X3092300Y-1965000D01*
X3092300Y-1935000D02*
X3062300Y-1965000D01*
X3062300Y-2803960D02*
X3092300Y-2833960D01*
X3092300Y-2803960D02*
X3062300Y-2833960D01*
X3062300Y-4045000D02*
X3092300Y-4075000D01*
X3092300Y-4045000D02*
X3062300Y-4075000D01*
X3069460Y-2249210D02*
X3099460Y-2279210D01*
X3099460Y-2249210D02*
X3069460Y-2279210D01*
X3075000Y-6230830D02*
X3105000Y-6260830D01*
X3105000Y-6230830D02*
X3075000Y-6260830D01*
X3172510Y-5998640D02*
X3202510Y-6028640D01*
X3202510Y-5998640D02*
X3172510Y-6028640D01*
X3185000Y-5045000D02*
X3215000Y-5075000D01*
X3215000Y-5045000D02*
X3185000Y-5075000D01*
X3185000Y-5565000D02*
X3215000Y-5595000D01*
X3215000Y-5565000D02*
X3185000Y-5595000D01*
X3187420Y-2330370D02*
X3217420Y-2360370D01*
X3217420Y-2330370D02*
X3187420Y-2360370D01*
X3335770Y-2231280D02*
X3365770Y-2261280D01*
X3365770Y-2231280D02*
X3335770Y-2261280D01*
X3360600Y-2801060D02*
X3390600Y-2831060D01*
X3390600Y-2801060D02*
X3360600Y-2831060D01*
X3364170Y-1569220D02*
X3394170Y-1599220D01*
X3394170Y-1569220D02*
X3364170Y-1599220D01*
X3364170Y-6705920D02*
X3394170Y-6735920D01*
X3394170Y-6705920D02*
X3364170Y-6735920D01*
X3367060Y-3972720D02*
X3397060Y-4002720D01*
X3397060Y-3972720D02*
X3367060Y-4002720D01*
X3471090Y-2217840D02*
X3501090Y-2247840D01*
X3501090Y-2217840D02*
X3471090Y-2247840D01*
X3518910Y-6705920D02*
X3548910Y-6735920D01*
X3548910Y-6705920D02*
X3518910Y-6735920D01*
X3658880Y-7252400D02*
X3688880Y-7282400D01*
X3688880Y-7252400D02*
X3658880Y-7282400D01*
X3699990Y-7293510D02*
X3729990Y-7323510D01*
X3729990Y-7293510D02*
X3699990Y-7323510D01*
X3724720Y-2965180D02*
X3754720Y-2995180D01*
X3754720Y-2965180D02*
X3724720Y-2995180D01*
X3738760Y-6330130D02*
X3768760Y-6360130D01*
X3768760Y-6330130D02*
X3738760Y-6360130D01*
X3752560Y-6951210D02*
X3782560Y-6981210D01*
X3782560Y-6951210D02*
X3752560Y-6981210D01*
X3752560Y-7158720D02*
X3782560Y-7188720D01*
X3782560Y-7158720D02*
X3752560Y-7188720D01*
X3809660Y-3085000D02*
X3839660Y-3115000D01*
X3839660Y-3085000D02*
X3809660Y-3115000D01*
X3869460Y-2199000D02*
X3899460Y-2229000D01*
X3899460Y-2199000D02*
X3869460Y-2229000D01*
X3882360Y-1120050D02*
X3912360Y-1150050D01*
X3912360Y-1120050D02*
X3882360Y-1150050D01*
X3882360Y-1186520D02*
X3912360Y-1216520D01*
X3912360Y-1186520D02*
X3882360Y-1216520D01*
X3953590Y-973040D02*
X3983590Y-1003040D01*
X3983590Y-973040D02*
X3953590Y-1003040D01*
X4248300Y-3221700D02*
X4278300Y-3251700D01*
X4278300Y-3221700D02*
X4248300Y-3251700D01*
X4248300Y-3390880D02*
X4278300Y-3420880D01*
X4278300Y-3390880D02*
X4248300Y-3420880D01*
X4311930Y-6064240D02*
X4341930Y-6094240D01*
X4341930Y-6064240D02*
X4311930Y-6094240D01*
X4408030Y-6160340D02*
X4438030Y-6190340D01*
X4438030Y-6160340D02*
X4408030Y-6190340D01*
X4515000Y-2735000D02*
X4545000Y-2765000D01*
X4545000Y-2735000D02*
X4515000Y-2765000D01*
X4575000Y-2675000D02*
X4605000Y-2705000D01*
X4605000Y-2675000D02*
X4575000Y-2705000D01*
X4605000Y-5535000D02*
X4635000Y-5565000D01*
X4635000Y-5535000D02*
X4605000Y-5565000D01*
X4675000Y-2435000D02*
X4705000Y-2465000D01*
X4705000Y-2435000D02*
X4675000Y-2465000D01*
X4725000Y-6777830D02*
X4755000Y-6807830D01*
X4755000Y-6777830D02*
X4725000Y-6807830D01*
X4733980Y-5085000D02*
X4763980Y-5115000D01*
X4763980Y-5085000D02*
X4733980Y-5115000D01*
X4743170Y-5173000D02*
X4773170Y-5203000D01*
X4773170Y-5173000D02*
X4743170Y-5203000D01*
X4815000Y-3300800D02*
X4845000Y-3330800D01*
X4845000Y-3300800D02*
X4815000Y-3330800D01*
X4828770Y-5179790D02*
X4858770Y-5209790D01*
X4858770Y-5179790D02*
X4828770Y-5209790D01*
X4837720Y-6072195D02*
X4867720Y-6102195D01*
X4867720Y-6072195D02*
X4837720Y-6102195D01*
X4899078Y-3353214D02*
X4929078Y-3383214D01*
X4929078Y-3353214D02*
X4899078Y-3383214D01*
X4902530Y-6955360D02*
X4932530Y-6985360D01*
X4932530Y-6955360D02*
X4902530Y-6985360D01*
X4913200Y-2095000D02*
X4943200Y-2125000D01*
X4943200Y-2095000D02*
X4913200Y-2125000D01*
X4983150Y-3176130D02*
X5013150Y-3206130D01*
X5013150Y-3176130D02*
X4983150Y-3206130D01*
X4989050Y-2178540D02*
X5019050Y-2208540D01*
X5019050Y-2178540D02*
X4989050Y-2208540D01*
X5047250Y-1923210D02*
X5077250Y-1953210D01*
X5077250Y-1923210D02*
X5047250Y-1953210D01*
X5085010Y-1635000D02*
X5115010Y-1665000D01*
X5115010Y-1635000D02*
X5085010Y-1665000D01*
X5093430Y-2178540D02*
X5123430Y-2208540D01*
X5123430Y-2178540D02*
X5093430Y-2208540D01*
X5161630Y-2110340D02*
X5191630Y-2140340D01*
X5191630Y-2110340D02*
X5161630Y-2140340D01*
X5235000Y-4260340D02*
X5265000Y-4290340D01*
X5265000Y-4260340D02*
X5235000Y-4290340D01*
X5306590Y-492400D02*
X5336590Y-522400D01*
X5336590Y-492400D02*
X5306590Y-522400D01*
X5310000Y-2755000D02*
X5340000Y-2785000D01*
X5340000Y-2755000D02*
X5310000Y-2785000D01*
X5404160Y-1830340D02*
X5434160Y-1860340D01*
X5434160Y-1830340D02*
X5404160Y-1860340D01*
X5414000Y-384990D02*
X5444000Y-414990D01*
X5444000Y-384990D02*
X5414000Y-414990D01*
X5438900Y-6267020D02*
X5468900Y-6297020D01*
X5468900Y-6267020D02*
X5438900Y-6297020D01*
X5509740Y-1608640D02*
X5539740Y-1638640D01*
X5539740Y-1608640D02*
X5509740Y-1638640D01*
X5638810Y-6267020D02*
X5668810Y-6297020D01*
X5668810Y-6267020D02*
X5638810Y-6297020D01*
X5775300Y-4282000D02*
X5805300Y-4312000D01*
X5805300Y-4282000D02*
X5775300Y-4312000D01*
X5780840Y-2685000D02*
X5810840Y-2715000D01*
X5810840Y-2685000D02*
X5780840Y-2715000D01*
X5827420Y-4137700D02*
X5857420Y-4167700D01*
X5857420Y-4137700D02*
X5827420Y-4167700D01*
X5881270Y-2584570D02*
X5911270Y-2614570D01*
X5911270Y-2584570D02*
X5881270Y-2614570D01*
X5898067Y-3997046D02*
X5928067Y-4027046D01*
X5928067Y-3997046D02*
X5898067Y-4027046D01*
X5951430Y-2584570D02*
X5981430Y-2614570D01*
X5981430Y-2584570D02*
X5951430Y-2614570D01*
X5968880Y-4279160D02*
X5998880Y-4309160D01*
X5998880Y-4279160D02*
X5968880Y-4309160D01*
X5985000Y-2910000D02*
X6015000Y-2940000D01*
X6015000Y-2910000D02*
X5985000Y-2940000D01*
X6016560Y-5470160D02*
X6046560Y-5500160D01*
X6046560Y-5470160D02*
X6016560Y-5500160D01*
X6058370Y-3389660D02*
X6088370Y-3419660D01*
X6088370Y-3389660D02*
X6058370Y-3419660D01*
X6058370Y-3869660D02*
X6088370Y-3899660D01*
X6088370Y-3869660D02*
X6058370Y-3899660D01*
X6058370Y-4349660D02*
X6088370Y-4379660D01*
X6088370Y-4349660D02*
X6058370Y-4379660D01*
X6101060Y-3351280D02*
X6131060Y-3381280D01*
X6131060Y-3351280D02*
X6101060Y-3381280D01*
X6125870Y-4282160D02*
X6155870Y-4312160D01*
X6155870Y-4282160D02*
X6125870Y-4312160D01*
X6247860Y-3863050D02*
X6277860Y-3893050D01*
X6277860Y-3863050D02*
X6247860Y-3893050D01*
X6247860Y-4282160D02*
X6277860Y-4312160D01*
X6277860Y-4282160D02*
X6247860Y-4312160D01*
X6257000Y-3163000D02*
X6287000Y-3193000D01*
X6287000Y-3163000D02*
X6257000Y-3193000D01*
X6265000Y-5125000D02*
X6295000Y-5155000D01*
X6295000Y-5125000D02*
X6265000Y-5155000D01*
X6285000Y-5644260D02*
X6315000Y-5674260D01*
X6315000Y-5644260D02*
X6285000Y-5674260D01*
X6388840Y-2585850D02*
X6418840Y-2615850D01*
X6418840Y-2585850D02*
X6388840Y-2615850D01*
X6445000Y-6265000D02*
X6475000Y-6295000D01*
X6475000Y-6265000D02*
X6445000Y-6295000D01*
X6476924Y-3928416D02*
X6506924Y-3958416D01*
X6506924Y-3928416D02*
X6476924Y-3958416D01*
X6505080Y-4359960D02*
X6535080Y-4389960D01*
X6535080Y-4359960D02*
X6505080Y-4389960D01*
X6535000Y-3848200D02*
X6565000Y-3878200D01*
X6565000Y-3848200D02*
X6535000Y-3878200D01*
X6562520Y-2441680D02*
X6592520Y-2471680D01*
X6592520Y-2441680D02*
X6562520Y-2471680D01*
X6564830Y-3587110D02*
X6594830Y-3617110D01*
X6594830Y-3587110D02*
X6564830Y-3617110D01*
X6564830Y-3683800D02*
X6594830Y-3713800D01*
X6594830Y-3683800D02*
X6564830Y-3713800D01*
X6628800Y-2789020D02*
X6658800Y-2819020D01*
X6658800Y-2789020D02*
X6628800Y-2819020D01*
X6654970Y-6732890D02*
X6684970Y-6762890D01*
X6684970Y-6732890D02*
X6654970Y-6762890D01*
X6709080Y-6361280D02*
X6739080Y-6391280D01*
X6739080Y-6361280D02*
X6709080Y-6391280D01*
X6775000Y-6230830D02*
X6805000Y-6260830D01*
X6805000Y-6230830D02*
X6775000Y-6260830D01*
X6776710Y-5004740D02*
X6806710Y-5034740D01*
X6806710Y-5004740D02*
X6776710Y-5034740D01*
X6785000Y-3739160D02*
X6815000Y-3769160D01*
X6815000Y-3739160D02*
X6785000Y-3769160D01*
X6785340Y-4554950D02*
X6815340Y-4584950D01*
X6815340Y-4554950D02*
X6785340Y-4584950D01*
X6808634Y-3551883D02*
X6838634Y-3581883D01*
X6838634Y-3551883D02*
X6808634Y-3581883D01*
X6815800Y-3008950D02*
X6845800Y-3038950D01*
X6845800Y-3008950D02*
X6815800Y-3038950D01*
X6848030Y-3676130D02*
X6878030Y-3706130D01*
X6878030Y-3676130D02*
X6848030Y-3706130D01*
X6850430Y-4621250D02*
X6880430Y-4651250D01*
X6880430Y-4621250D02*
X6850430Y-4651250D01*
X6864937Y-4147740D02*
X6894937Y-4177740D01*
X6894937Y-4147740D02*
X6864937Y-4177740D01*
X6892900Y-3848200D02*
X6922900Y-3878200D01*
X6922900Y-3848200D02*
X6892900Y-3878200D01*
X6900690Y-2494800D02*
X6930690Y-2524800D01*
X6930690Y-2494800D02*
X6900690Y-2524800D01*
X6900690Y-3093840D02*
X6930690Y-3123840D01*
X6930690Y-3093840D02*
X6900690Y-3123840D01*
X6926960Y-4902180D02*
X6956960Y-4932180D01*
X6956960Y-4902180D02*
X6926960Y-4932180D01*
X6941350Y-4295920D02*
X6971350Y-4325920D01*
X6971350Y-4295920D02*
X6941350Y-4325920D01*
X6954090Y-3378480D02*
X6984090Y-3408480D01*
X6984090Y-3378480D02*
X6954090Y-3408480D01*
X6976710Y-4492550D02*
X7006710Y-4522550D01*
X7006710Y-4492550D02*
X6976710Y-4522550D01*
X6988690Y-2591560D02*
X7018690Y-2621560D01*
X7018690Y-2591560D02*
X6988690Y-2621560D01*
X6990450Y-3822320D02*
X7020450Y-3852320D01*
X7020450Y-3822320D02*
X6990450Y-3852320D01*
X7028440Y-3093840D02*
X7058440Y-3123840D01*
X7058440Y-3093840D02*
X7028440Y-3123840D01*
X7028480Y-3676130D02*
X7058480Y-3706130D01*
X7058480Y-3676130D02*
X7028480Y-3706130D01*
X7055715Y-2657627D02*
X7085715Y-2687627D01*
X7085715Y-2657627D02*
X7055715Y-2687627D01*
X7058740Y-4492550D02*
X7088740Y-4522550D01*
X7088740Y-4492550D02*
X7058740Y-4522550D01*
X7107520Y-3822320D02*
X7137520Y-3852320D01*
X7137520Y-3822320D02*
X7107520Y-3852320D01*
X7107600Y-5109530D02*
X7137600Y-5139530D01*
X7137600Y-5109530D02*
X7107600Y-5139530D01*
X7128200Y-2935000D02*
X7158200Y-2965000D01*
X7158200Y-2935000D02*
X7128200Y-2965000D01*
X7175560Y-1248470D02*
X7205560Y-1278470D01*
X7205560Y-1248470D02*
X7175560Y-1278470D01*
X7189010Y-2730130D02*
X7219010Y-2760130D01*
X7219010Y-2730130D02*
X7189010Y-2760130D01*
X7195400Y-6072195D02*
X7225400Y-6102195D01*
X7225400Y-6072195D02*
X7195400Y-6102195D01*
X7207830Y-2108460D02*
X7237830Y-2138460D01*
X7237830Y-2108460D02*
X7207830Y-2138460D01*
X7252060Y-1523590D02*
X7282060Y-1553590D01*
X7282060Y-1523590D02*
X7252060Y-1553590D01*
X7275000Y-6335000D02*
X7305000Y-6365000D01*
X7305000Y-6335000D02*
X7275000Y-6365000D01*
X7282180Y-3506240D02*
X7312180Y-3536240D01*
X7312180Y-3506240D02*
X7282180Y-3536240D01*
X7385000Y-6285000D02*
X7415000Y-6315000D01*
X7415000Y-6285000D02*
X7385000Y-6315000D01*
X7405490Y-4226720D02*
X7435490Y-4256720D01*
X7435490Y-4226720D02*
X7405490Y-4256720D01*
X7417550Y-1488740D02*
X7447550Y-1518740D01*
X7447550Y-1488740D02*
X7417550Y-1518740D01*
X7420050Y-2350080D02*
X7450050Y-2380080D01*
X7450050Y-2350080D02*
X7420050Y-2380080D01*
X7428390Y-4972660D02*
X7458390Y-5002660D01*
X7458390Y-4972660D02*
X7428390Y-5002660D01*
X7435000Y-1069670D02*
X7465000Y-1099670D01*
X7465000Y-1069670D02*
X7435000Y-1099670D01*
X7447580Y-5121440D02*
X7477580Y-5151440D01*
X7477580Y-5121440D02*
X7447580Y-5151440D01*
X7462280Y-3101010D02*
X7492280Y-3131010D01*
X7492280Y-3101010D02*
X7462280Y-3131010D01*
X7489950Y-4302880D02*
X7519950Y-4332880D01*
X7519950Y-4302880D02*
X7489950Y-4332880D01*
X7490110Y-1014560D02*
X7520110Y-1044560D01*
X7520110Y-1014560D02*
X7490110Y-1044560D01*
X7519150Y-1667680D02*
X7549150Y-1697680D01*
X7549150Y-1667680D02*
X7519150Y-1697680D01*
X7536720Y-4882180D02*
X7566720Y-4912180D01*
X7566720Y-4882180D02*
X7536720Y-4912180D01*
X7576850Y-2571630D02*
X7606850Y-2601630D01*
X7606850Y-2571630D02*
X7576850Y-2601630D01*
X7582800Y-6147200D02*
X7612800Y-6177200D01*
X7612800Y-6147200D02*
X7582800Y-6177200D01*
X7635000Y-3130830D02*
X7665000Y-3160830D01*
X7665000Y-3130830D02*
X7635000Y-3160830D01*
X7650000Y-1685000D02*
X7680000Y-1715000D01*
X7680000Y-1685000D02*
X7650000Y-1715000D01*
X7662830Y-2800960D02*
X7692830Y-2830960D01*
X7692830Y-2800960D02*
X7662830Y-2830960D01*
X7700000Y-4870000D02*
X7730000Y-4900000D01*
X7730000Y-4870000D02*
X7700000Y-4900000D01*
X7711620Y-3913340D02*
X7741620Y-3943340D01*
X7741620Y-3913340D02*
X7711620Y-3943340D01*
X7717980Y-5256280D02*
X7747980Y-5286280D01*
X7747980Y-5256280D02*
X7717980Y-5286280D01*
X7745360Y-3241190D02*
X7775360Y-3271190D01*
X7775360Y-3241190D02*
X7745360Y-3271190D01*
X7745360Y-3390880D02*
X7775360Y-3420880D01*
X7775360Y-3390880D02*
X7745360Y-3420880D01*
X7752990Y-2202720D02*
X7782990Y-2232720D01*
X7782990Y-2202720D02*
X7752990Y-2232720D01*
X7766822Y-1922126D02*
X7796822Y-1952126D01*
X7796822Y-1922126D02*
X7766822Y-1952126D01*
X7801710Y-2939840D02*
X7831710Y-2969840D01*
X7831710Y-2939840D02*
X7801710Y-2969840D01*
X7802920Y-4641160D02*
X7832920Y-4671160D01*
X7832920Y-4641160D02*
X7802920Y-4671160D01*
X7865690Y-5256280D02*
X7895690Y-5286280D01*
X7895690Y-5256280D02*
X7865690Y-5286280D01*
X7911630Y-5210340D02*
X7941630Y-5240340D01*
X7941630Y-5210340D02*
X7911630Y-5240340D01*
X7935000Y-215000D02*
X7965000Y-245000D01*
X7965000Y-215000D02*
X7935000Y-245000D01*
X7935000Y-3585000D02*
X7965000Y-3615000D01*
X7965000Y-3585000D02*
X7935000Y-3615000D01*
X7945000Y-3135000D02*
X7975000Y-3165000D01*
X7975000Y-3135000D02*
X7945000Y-3165000D01*
X8101000Y-5797000D02*
X8131000Y-5827000D01*
X8131000Y-5797000D02*
X8101000Y-5827000D01*
X8193891Y-283713D02*
X8223891Y-313713D01*
X8223891Y-283713D02*
X8193891Y-313713D01*
X8374240Y-3112340D02*
X8404240Y-3142340D01*
X8404240Y-3112340D02*
X8374240Y-3142340D01*
X8374240Y-5173120D02*
X8404240Y-5203120D01*
X8404240Y-5173120D02*
X8374240Y-5203120D01*
X8374240Y-6955360D02*
X8404240Y-6985360D01*
X8404240Y-6955360D02*
X8374240Y-6985360D01*
X8399430Y-1716810D02*
X8429430Y-1746810D01*
X8429430Y-1716810D02*
X8399430Y-1746810D01*
X8402270Y-2139600D02*
X8432270Y-2169600D01*
X8432270Y-2139600D02*
X8402270Y-2169600D01*
X8429900Y-1957090D02*
X8459900Y-1987090D01*
X8459900Y-1957090D02*
X8429900Y-1987090D01*
X8485000Y-2222330D02*
X8515000Y-2252330D01*
X8515000Y-2222330D02*
X8485000Y-2252330D01*
X8485000Y-3223100D02*
X8515000Y-3253100D01*
X8515000Y-3223100D02*
X8485000Y-3253100D01*
X8485000Y-4284120D02*
X8515000Y-4314120D01*
X8515000Y-4284120D02*
X8485000Y-4314120D01*
X8545000Y-215000D02*
X8575000Y-245000D01*
X8575000Y-215000D02*
X8545000Y-245000D01*
X8552280Y-4216840D02*
X8582280Y-4246840D01*
X8582280Y-4216840D02*
X8552280Y-4246840D01*
X8722250Y-6033890D02*
X8752250Y-6063890D01*
X8752250Y-6033890D02*
X8722250Y-6063890D01*
X8783890Y-6033890D02*
X8813890Y-6063890D01*
X8813890Y-6033890D02*
X8783890Y-6063890D01*
X9258370Y-1905680D02*
X9288370Y-1935680D01*
X9288370Y-1905680D02*
X9258370Y-1935680D01*
X9302860Y-4282000D02*
X9332860Y-4312000D01*
X9332860Y-4282000D02*
X9302860Y-4312000D01*
X9487860Y-5173120D02*
X9517860Y-5203120D01*
X9517860Y-5173120D02*
X9487860Y-5203120D01*
X9549820Y-2960010D02*
X9579820Y-2990010D01*
X9579820Y-2960010D02*
X9549820Y-2990010D01*
X9549820Y-5160010D02*
X9579820Y-5190010D01*
X9579820Y-5160010D02*
X9549820Y-5190010D01*
X9553080Y-392230D02*
X9583080Y-422230D01*
X9583080Y-392230D02*
X9553080Y-422230D01*
X9553080Y-3143680D02*
X9583080Y-3173680D01*
X9583080Y-3143680D02*
X9553080Y-3173680D01*
X9555250Y-719690D02*
X9585250Y-749690D01*
X9585250Y-719690D02*
X9555250Y-749690D01*
X9557230Y-623260D02*
X9587230Y-653260D01*
X9587230Y-623260D02*
X9557230Y-653260D01*
X9720000Y-7305000D02*
X9750000Y-7335000D01*
X9750000Y-7305000D02*
X9720000Y-7335000D01*
X9815000Y-153000D02*
X9845000Y-183000D01*
X9845000Y-153000D02*
X9815000Y-183000D01*
X167500Y-7600000D02*
G75*
G02*
X132500Y-7600000I-17500J0D01*
G01*
X132500Y-7600000D02*
G75*
G02*
X167500Y-7600000I17500J0D01*
G01*
X247500Y-6400000D02*
G75*
G02*
X212500Y-6400000I-17500J0D01*
G01*
X212500Y-6400000D02*
G75*
G02*
X247500Y-6400000I17500J0D01*
G01*
X270276Y-7515000D02*
G75*
G02*
X235276Y-7515000I-17500J0D01*
G01*
X235276Y-7515000D02*
G75*
G02*
X270276Y-7515000I17500J0D01*
G01*
X332500Y-7452776D02*
G75*
G02*
X297500Y-7452776I-17500J0D01*
G01*
X297500Y-7452776D02*
G75*
G02*
X332500Y-7452776I17500J0D01*
G01*
X339558Y-5155000D02*
G75*
G02*
X304558Y-5155000I-17500J0D01*
G01*
X304558Y-5155000D02*
G75*
G02*
X339558Y-5155000I17500J0D01*
G01*
X339558Y-5245000D02*
G75*
G02*
X304558Y-5245000I-17500J0D01*
G01*
X304558Y-5245000D02*
G75*
G02*
X339558Y-5245000I17500J0D01*
G01*
X457500Y-1695000D02*
G75*
G02*
X422500Y-1695000I-17500J0D01*
G01*
X422500Y-1695000D02*
G75*
G02*
X457500Y-1695000I17500J0D01*
G01*
X457500Y-2125000D02*
G75*
G02*
X422500Y-2125000I-17500J0D01*
G01*
X422500Y-2125000D02*
G75*
G02*
X457500Y-2125000I17500J0D01*
G01*
X462500Y-6322058D02*
G75*
G02*
X427500Y-6322058I-17500J0D01*
G01*
X427500Y-6322058D02*
G75*
G02*
X462500Y-6322058I17500J0D01*
G01*
X462500Y-6477942D02*
G75*
G02*
X427500Y-6477942I-17500J0D01*
G01*
X427500Y-6477942D02*
G75*
G02*
X462500Y-6477942I17500J0D01*
G01*
X507500Y-6400000D02*
G75*
G02*
X472500Y-6400000I-17500J0D01*
G01*
X472500Y-6400000D02*
G75*
G02*
X507500Y-6400000I17500J0D01*
G01*
X564724Y-7515000D02*
G75*
G02*
X529724Y-7515000I-17500J0D01*
G01*
X529724Y-7515000D02*
G75*
G02*
X564724Y-7515000I17500J0D01*
G01*
X832510Y-7770010D02*
G75*
G02*
X797510Y-7770010I-17500J0D01*
G01*
X797510Y-7770010D02*
G75*
G02*
X832510Y-7770010I17500J0D01*
G01*
X838218Y-5984660D02*
G75*
G02*
X803218Y-5984660I-17500J0D01*
G01*
X803218Y-5984660D02*
G75*
G02*
X838218Y-5984660I17500J0D01*
G01*
X1040226Y-2295366D02*
G75*
G02*
X1005226Y-2295366I-17500J0D01*
G01*
X1005226Y-2295366D02*
G75*
G02*
X1040226Y-2295366I17500J0D01*
G01*
X1100408Y-6485093D02*
G75*
G02*
X1065408Y-6485093I-17500J0D01*
G01*
X1065408Y-6485093D02*
G75*
G02*
X1100408Y-6485093I17500J0D01*
G01*
X1384155Y-2792605D02*
G75*
G02*
X1349155Y-2792605I-17500J0D01*
G01*
X1349155Y-2792605D02*
G75*
G02*
X1384155Y-2792605I17500J0D01*
G01*
X1400994Y-7475000D02*
G75*
G02*
X1365994Y-7475000I-17500J0D01*
G01*
X1365994Y-7475000D02*
G75*
G02*
X1400994Y-7475000I17500J0D01*
G01*
X1517160Y-1770096D02*
G75*
G02*
X1482160Y-1770096I-17500J0D01*
G01*
X1482160Y-1770096D02*
G75*
G02*
X1517160Y-1770096I17500J0D01*
G01*
X1558454Y-3351303D02*
G75*
G02*
X1523454Y-3351303I-17500J0D01*
G01*
X1523454Y-3351303D02*
G75*
G02*
X1558454Y-3351303I17500J0D01*
G01*
X1617500Y-400000D02*
G75*
G02*
X1582500Y-400000I-17500J0D01*
G01*
X1582500Y-400000D02*
G75*
G02*
X1617500Y-400000I17500J0D01*
G01*
X1617500Y-1600000D02*
G75*
G02*
X1582500Y-1600000I-17500J0D01*
G01*
X1582500Y-1600000D02*
G75*
G02*
X1617500Y-1600000I17500J0D01*
G01*
X1617500Y-2800000D02*
G75*
G02*
X1582500Y-2800000I-17500J0D01*
G01*
X1582500Y-2800000D02*
G75*
G02*
X1617500Y-2800000I17500J0D01*
G01*
X1617500Y-4000000D02*
G75*
G02*
X1582500Y-4000000I-17500J0D01*
G01*
X1582500Y-4000000D02*
G75*
G02*
X1617500Y-4000000I17500J0D01*
G01*
X1617500Y-5200000D02*
G75*
G02*
X1582500Y-5200000I-17500J0D01*
G01*
X1582500Y-5200000D02*
G75*
G02*
X1617500Y-5200000I17500J0D01*
G01*
X1617500Y-6400000D02*
G75*
G02*
X1582500Y-6400000I-17500J0D01*
G01*
X1582500Y-6400000D02*
G75*
G02*
X1617500Y-6400000I17500J0D01*
G01*
X1617500Y-7350000D02*
G75*
G02*
X1582500Y-7350000I-17500J0D01*
G01*
X1582500Y-7350000D02*
G75*
G02*
X1617500Y-7350000I17500J0D01*
G01*
X1617500Y-7510000D02*
G75*
G02*
X1582500Y-7510000I-17500J0D01*
G01*
X1582500Y-7510000D02*
G75*
G02*
X1617500Y-7510000I17500J0D01*
G01*
X1702500Y-7452776D02*
G75*
G02*
X1667500Y-7452776I-17500J0D01*
G01*
X1667500Y-7452776D02*
G75*
G02*
X1702500Y-7452776I17500J0D01*
G01*
X1932510Y-7770010D02*
G75*
G02*
X1897510Y-7770010I-17500J0D01*
G01*
X1897510Y-7770010D02*
G75*
G02*
X1932510Y-7770010I17500J0D01*
G01*
X1959144Y-3395506D02*
G75*
G02*
X1924144Y-3395506I-17500J0D01*
G01*
X1924144Y-3395506D02*
G75*
G02*
X1959144Y-3395506I17500J0D01*
G01*
X2233894Y-6675000D02*
G75*
G02*
X2198894Y-6675000I-17500J0D01*
G01*
X2198894Y-6675000D02*
G75*
G02*
X2233894Y-6675000I17500J0D01*
G01*
X2347510Y-3850000D02*
G75*
G02*
X2312510Y-3850000I-17500J0D01*
G01*
X2312510Y-3850000D02*
G75*
G02*
X2347510Y-3850000I17500J0D01*
G01*
X2417160Y-3229904D02*
G75*
G02*
X2382160Y-3229904I-17500J0D01*
G01*
X2382160Y-3229904D02*
G75*
G02*
X2417160Y-3229904I17500J0D01*
G01*
X2600994Y-7475000D02*
G75*
G02*
X2565994Y-7475000I-17500J0D01*
G01*
X2565994Y-7475000D02*
G75*
G02*
X2600994Y-7475000I17500J0D01*
G01*
X2647500Y-2800000D02*
G75*
G02*
X2612500Y-2800000I-17500J0D01*
G01*
X2612500Y-2800000D02*
G75*
G02*
X2647500Y-2800000I17500J0D01*
G01*
X2647500Y-6400000D02*
G75*
G02*
X2612500Y-6400000I-17500J0D01*
G01*
X2612500Y-6400000D02*
G75*
G02*
X2647500Y-6400000I17500J0D01*
G01*
X2670276Y-6315000D02*
G75*
G02*
X2635276Y-6315000I-17500J0D01*
G01*
X2635276Y-6315000D02*
G75*
G02*
X2670276Y-6315000I17500J0D01*
G01*
X2732500Y-1452776D02*
G75*
G02*
X2697500Y-1452776I-17500J0D01*
G01*
X2697500Y-1452776D02*
G75*
G02*
X2732500Y-1452776I17500J0D01*
G01*
X2742500Y-872500D02*
G75*
G02*
X2707500Y-872500I-17500J0D01*
G01*
X2707500Y-872500D02*
G75*
G02*
X2742500Y-872500I17500J0D01*
G01*
X2772500Y-7522058D02*
G75*
G02*
X2737500Y-7522058I-17500J0D01*
G01*
X2737500Y-7522058D02*
G75*
G02*
X2772500Y-7522058I17500J0D01*
G01*
X2817500Y-5200000D02*
G75*
G02*
X2782500Y-5200000I-17500J0D01*
G01*
X2782500Y-5200000D02*
G75*
G02*
X2817500Y-5200000I17500J0D01*
G01*
X2817500Y-7430000D02*
G75*
G02*
X2782500Y-7430000I-17500J0D01*
G01*
X2782500Y-7430000D02*
G75*
G02*
X2817500Y-7430000I17500J0D01*
G01*
X2862500Y-2877942D02*
G75*
G02*
X2827500Y-2877942I-17500J0D01*
G01*
X2827500Y-2877942D02*
G75*
G02*
X2862500Y-2877942I17500J0D01*
G01*
X2895442Y-4045000D02*
G75*
G02*
X2860442Y-4045000I-17500J0D01*
G01*
X2860442Y-4045000D02*
G75*
G02*
X2895442Y-4045000I17500J0D01*
G01*
X2895442Y-6445000D02*
G75*
G02*
X2860442Y-6445000I-17500J0D01*
G01*
X2860442Y-6445000D02*
G75*
G02*
X2895442Y-6445000I17500J0D01*
G01*
X2902500Y-1452776D02*
G75*
G02*
X2867500Y-1452776I-17500J0D01*
G01*
X2867500Y-1452776D02*
G75*
G02*
X2902500Y-1452776I17500J0D01*
G01*
X2902500Y-7452776D02*
G75*
G02*
X2867500Y-7452776I-17500J0D01*
G01*
X2867500Y-7452776D02*
G75*
G02*
X2902500Y-7452776I17500J0D01*
G01*
X2907500Y-1600000D02*
G75*
G02*
X2872500Y-1600000I-17500J0D01*
G01*
X2872500Y-1600000D02*
G75*
G02*
X2907500Y-1600000I17500J0D01*
G01*
X2964724Y-1515000D02*
G75*
G02*
X2929724Y-1515000I-17500J0D01*
G01*
X2929724Y-1515000D02*
G75*
G02*
X2964724Y-1515000I17500J0D01*
G01*
X2964724Y-2885000D02*
G75*
G02*
X2929724Y-2885000I-17500J0D01*
G01*
X2929724Y-2885000D02*
G75*
G02*
X2964724Y-2885000I17500J0D01*
G01*
X2964724Y-4085000D02*
G75*
G02*
X2929724Y-4085000I-17500J0D01*
G01*
X2929724Y-4085000D02*
G75*
G02*
X2964724Y-4085000I17500J0D01*
G01*
X2964724Y-6485000D02*
G75*
G02*
X2929724Y-6485000I-17500J0D01*
G01*
X2929724Y-6485000D02*
G75*
G02*
X2964724Y-6485000I17500J0D01*
G01*
X2988144Y-3425000D02*
G75*
G02*
X2953144Y-3425000I-17500J0D01*
G01*
X2953144Y-3425000D02*
G75*
G02*
X2988144Y-3425000I17500J0D01*
G01*
X3032510Y-7770010D02*
G75*
G02*
X2997510Y-7770010I-17500J0D01*
G01*
X2997510Y-7770010D02*
G75*
G02*
X3032510Y-7770010I17500J0D01*
G01*
X3172274Y-3870705D02*
G75*
G02*
X3137274Y-3870705I-17500J0D01*
G01*
X3137274Y-3870705D02*
G75*
G02*
X3172274Y-3870705I17500J0D01*
G01*
X3255293Y-6740954D02*
G75*
G02*
X3220293Y-6740954I-17500J0D01*
G01*
X3220293Y-6740954D02*
G75*
G02*
X3255293Y-6740954I17500J0D01*
G01*
X3615221Y-5253547D02*
G75*
G02*
X3580221Y-5253547I-17500J0D01*
G01*
X3580221Y-5253547D02*
G75*
G02*
X3615221Y-5253547I17500J0D01*
G01*
X3713205Y-668226D02*
G75*
G02*
X3678205Y-668226I-17500J0D01*
G01*
X3678205Y-668226D02*
G75*
G02*
X3713205Y-668226I17500J0D01*
G01*
X3779690Y-4300000D02*
G75*
G02*
X3744690Y-4300000I-17500J0D01*
G01*
X3744690Y-4300000D02*
G75*
G02*
X3779690Y-4300000I17500J0D01*
G01*
X3870276Y-7515000D02*
G75*
G02*
X3835276Y-7515000I-17500J0D01*
G01*
X3835276Y-7515000D02*
G75*
G02*
X3870276Y-7515000I17500J0D01*
G01*
X3932500Y-547224D02*
G75*
G02*
X3897500Y-547224I-17500J0D01*
G01*
X3897500Y-547224D02*
G75*
G02*
X3932500Y-547224I17500J0D01*
G01*
X3932500Y-7452776D02*
G75*
G02*
X3897500Y-7452776I-17500J0D01*
G01*
X3897500Y-7452776D02*
G75*
G02*
X3932500Y-7452776I17500J0D01*
G01*
X3939558Y-445000D02*
G75*
G02*
X3904558Y-445000I-17500J0D01*
G01*
X3904558Y-445000D02*
G75*
G02*
X3939558Y-445000I17500J0D01*
G01*
X4017500Y-570000D02*
G75*
G02*
X3982500Y-570000I-17500J0D01*
G01*
X3982500Y-570000D02*
G75*
G02*
X4017500Y-570000I17500J0D01*
G01*
X4017500Y-1600000D02*
G75*
G02*
X3982500Y-1600000I-17500J0D01*
G01*
X3982500Y-1600000D02*
G75*
G02*
X4017500Y-1600000I17500J0D01*
G01*
X4017500Y-2800000D02*
G75*
G02*
X3982500Y-2800000I-17500J0D01*
G01*
X3982500Y-2800000D02*
G75*
G02*
X4017500Y-2800000I17500J0D01*
G01*
X4017500Y-4000000D02*
G75*
G02*
X3982500Y-4000000I-17500J0D01*
G01*
X3982500Y-4000000D02*
G75*
G02*
X4017500Y-4000000I17500J0D01*
G01*
X4017500Y-5200000D02*
G75*
G02*
X3982500Y-5200000I-17500J0D01*
G01*
X3982500Y-5200000D02*
G75*
G02*
X4017500Y-5200000I17500J0D01*
G01*
X4017500Y-6400000D02*
G75*
G02*
X3982500Y-6400000I-17500J0D01*
G01*
X3982500Y-6400000D02*
G75*
G02*
X4017500Y-6400000I17500J0D01*
G01*
X4017500Y-7430000D02*
G75*
G02*
X3982500Y-7430000I-17500J0D01*
G01*
X3982500Y-7430000D02*
G75*
G02*
X4017500Y-7430000I17500J0D01*
G01*
X4132510Y-7770010D02*
G75*
G02*
X4097510Y-7770010I-17500J0D01*
G01*
X4097510Y-7770010D02*
G75*
G02*
X4132510Y-7770010I17500J0D01*
G01*
X4142500Y-616506D02*
G75*
G02*
X4107500Y-616506I-17500J0D01*
G01*
X4107500Y-616506D02*
G75*
G02*
X4142500Y-616506I17500J0D01*
G01*
X4167221Y-2099047D02*
G75*
G02*
X4132221Y-2099047I-17500J0D01*
G01*
X4132221Y-2099047D02*
G75*
G02*
X4167221Y-2099047I17500J0D01*
G01*
X4187500Y-7600000D02*
G75*
G02*
X4152500Y-7600000I-17500J0D01*
G01*
X4152500Y-7600000D02*
G75*
G02*
X4187500Y-7600000I17500J0D01*
G01*
X4215000Y-3029904D02*
G75*
G02*
X4180000Y-3029904I-17500J0D01*
G01*
X4180000Y-3029904D02*
G75*
G02*
X4215000Y-3029904I17500J0D01*
G01*
X4315000Y-1529904D02*
G75*
G02*
X4280000Y-1529904I-17500J0D01*
G01*
X4280000Y-1529904D02*
G75*
G02*
X4315000Y-1529904I17500J0D01*
G01*
X4426546Y-3576643D02*
G75*
G02*
X4391546Y-3576643I-17500J0D01*
G01*
X4391546Y-3576643D02*
G75*
G02*
X4426546Y-3576643I17500J0D01*
G01*
X4433894Y-6675000D02*
G75*
G02*
X4398894Y-6675000I-17500J0D01*
G01*
X4398894Y-6675000D02*
G75*
G02*
X4433894Y-6675000I17500J0D01*
G01*
X4944825Y-2771824D02*
G75*
G02*
X4909825Y-2771824I-17500J0D01*
G01*
X4909825Y-2771824D02*
G75*
G02*
X4944825Y-2771824I17500J0D01*
G01*
X5047500Y-4000000D02*
G75*
G02*
X5012500Y-4000000I-17500J0D01*
G01*
X5012500Y-4000000D02*
G75*
G02*
X5047500Y-4000000I17500J0D01*
G01*
X5070276Y-4085000D02*
G75*
G02*
X5035276Y-4085000I-17500J0D01*
G01*
X5035276Y-4085000D02*
G75*
G02*
X5070276Y-4085000I17500J0D01*
G01*
X5132500Y-1452776D02*
G75*
G02*
X5097500Y-1452776I-17500J0D01*
G01*
X5097500Y-1452776D02*
G75*
G02*
X5132500Y-1452776I17500J0D01*
G01*
X5139558Y-6355000D02*
G75*
G02*
X5104558Y-6355000I-17500J0D01*
G01*
X5104558Y-6355000D02*
G75*
G02*
X5139558Y-6355000I17500J0D01*
G01*
X5139558Y-6445000D02*
G75*
G02*
X5104558Y-6445000I-17500J0D01*
G01*
X5104558Y-6445000D02*
G75*
G02*
X5139558Y-6445000I17500J0D01*
G01*
X5172500Y-3922058D02*
G75*
G02*
X5137500Y-3922058I-17500J0D01*
G01*
X5137500Y-3922058D02*
G75*
G02*
X5172500Y-3922058I17500J0D01*
G01*
X5217500Y-400000D02*
G75*
G02*
X5182500Y-400000I-17500J0D01*
G01*
X5182500Y-400000D02*
G75*
G02*
X5217500Y-400000I17500J0D01*
G01*
X5217500Y-1350000D02*
G75*
G02*
X5182500Y-1350000I-17500J0D01*
G01*
X5182500Y-1350000D02*
G75*
G02*
X5217500Y-1350000I17500J0D01*
G01*
X5217500Y-1510000D02*
G75*
G02*
X5182500Y-1510000I-17500J0D01*
G01*
X5182500Y-1510000D02*
G75*
G02*
X5217500Y-1510000I17500J0D01*
G01*
X5217500Y-2890000D02*
G75*
G02*
X5182500Y-2890000I-17500J0D01*
G01*
X5182500Y-2890000D02*
G75*
G02*
X5217500Y-2890000I17500J0D01*
G01*
X5217500Y-5200000D02*
G75*
G02*
X5182500Y-5200000I-17500J0D01*
G01*
X5182500Y-5200000D02*
G75*
G02*
X5217500Y-5200000I17500J0D01*
G01*
X5217500Y-6490000D02*
G75*
G02*
X5182500Y-6490000I-17500J0D01*
G01*
X5182500Y-6490000D02*
G75*
G02*
X5217500Y-6490000I17500J0D01*
G01*
X5217500Y-7510000D02*
G75*
G02*
X5182500Y-7510000I-17500J0D01*
G01*
X5182500Y-7510000D02*
G75*
G02*
X5217500Y-7510000I17500J0D01*
G01*
X5232510Y-7770010D02*
G75*
G02*
X5197510Y-7770010I-17500J0D01*
G01*
X5197510Y-7770010D02*
G75*
G02*
X5232510Y-7770010I17500J0D01*
G01*
X5295442Y-2845000D02*
G75*
G02*
X5260442Y-2845000I-17500J0D01*
G01*
X5260442Y-2845000D02*
G75*
G02*
X5295442Y-2845000I17500J0D01*
G01*
X5295442Y-6445000D02*
G75*
G02*
X5260442Y-6445000I-17500J0D01*
G01*
X5260442Y-6445000D02*
G75*
G02*
X5295442Y-6445000I17500J0D01*
G01*
X5302500Y-1452776D02*
G75*
G02*
X5267500Y-1452776I-17500J0D01*
G01*
X5267500Y-1452776D02*
G75*
G02*
X5302500Y-1452776I17500J0D01*
G01*
X5302500Y-2947224D02*
G75*
G02*
X5267500Y-2947224I-17500J0D01*
G01*
X5267500Y-2947224D02*
G75*
G02*
X5302500Y-2947224I17500J0D01*
G01*
X5302500Y-3852776D02*
G75*
G02*
X5267500Y-3852776I-17500J0D01*
G01*
X5267500Y-3852776D02*
G75*
G02*
X5302500Y-3852776I17500J0D01*
G01*
X5307500Y-7600000D02*
G75*
G02*
X5272500Y-7600000I-17500J0D01*
G01*
X5272500Y-7600000D02*
G75*
G02*
X5307500Y-7600000I17500J0D01*
G01*
X5364724Y-2885000D02*
G75*
G02*
X5329724Y-2885000I-17500J0D01*
G01*
X5329724Y-2885000D02*
G75*
G02*
X5364724Y-2885000I17500J0D01*
G01*
X5364724Y-7685000D02*
G75*
G02*
X5329724Y-7685000I-17500J0D01*
G01*
X5329724Y-7685000D02*
G75*
G02*
X5364724Y-7685000I17500J0D01*
G01*
X5387500Y-7600000D02*
G75*
G02*
X5352500Y-7600000I-17500J0D01*
G01*
X5352500Y-7600000D02*
G75*
G02*
X5387500Y-7600000I17500J0D01*
G01*
X5533894Y-6675000D02*
G75*
G02*
X5498894Y-6675000I-17500J0D01*
G01*
X5498894Y-6675000D02*
G75*
G02*
X5533894Y-6675000I17500J0D01*
G01*
X5667160Y-2829904D02*
G75*
G02*
X5632160Y-2829904I-17500J0D01*
G01*
X5632160Y-2829904D02*
G75*
G02*
X5667160Y-2829904I17500J0D01*
G01*
X5668803Y-4350214D02*
G75*
G02*
X5633803Y-4350214I-17500J0D01*
G01*
X5633803Y-4350214D02*
G75*
G02*
X5668803Y-4350214I17500J0D01*
G01*
X5697500Y-3424660D02*
G75*
G02*
X5662500Y-3424660I-17500J0D01*
G01*
X5662500Y-3424660D02*
G75*
G02*
X5697500Y-3424660I17500J0D01*
G01*
X5767500Y-2974990D02*
G75*
G02*
X5732500Y-2974990I-17500J0D01*
G01*
X5732500Y-2974990D02*
G75*
G02*
X5767500Y-2974990I17500J0D01*
G01*
X5767500Y-4909260D02*
G75*
G02*
X5732500Y-4909260I-17500J0D01*
G01*
X5732500Y-4909260D02*
G75*
G02*
X5767500Y-4909260I17500J0D01*
G01*
X5776466Y-1956810D02*
G75*
G02*
X5741466Y-1956810I-17500J0D01*
G01*
X5741466Y-1956810D02*
G75*
G02*
X5776466Y-1956810I17500J0D01*
G01*
X5800931Y-6448431D02*
G75*
G02*
X5765931Y-6448431I-17500J0D01*
G01*
X5765931Y-6448431D02*
G75*
G02*
X5800931Y-6448431I17500J0D01*
G01*
X5867500Y-5775340D02*
G75*
G02*
X5832500Y-5775340I-17500J0D01*
G01*
X5832500Y-5775340D02*
G75*
G02*
X5867500Y-5775340I17500J0D01*
G01*
X6017500Y-3225340D02*
G75*
G02*
X5982500Y-3225340I-17500J0D01*
G01*
X5982500Y-3225340D02*
G75*
G02*
X6017500Y-3225340I17500J0D01*
G01*
X6037160Y-2781865D02*
G75*
G02*
X6002160Y-2781865I-17500J0D01*
G01*
X6002160Y-2781865D02*
G75*
G02*
X6037160Y-2781865I17500J0D01*
G01*
X6165221Y-3581387D02*
G75*
G02*
X6130221Y-3581387I-17500J0D01*
G01*
X6130221Y-3581387D02*
G75*
G02*
X6165221Y-3581387I17500J0D01*
G01*
X6165221Y-4541387D02*
G75*
G02*
X6130221Y-4541387I-17500J0D01*
G01*
X6130221Y-4541387D02*
G75*
G02*
X6165221Y-4541387I17500J0D01*
G01*
X6167500Y-4000000D02*
G75*
G02*
X6132500Y-4000000I-17500J0D01*
G01*
X6132500Y-4000000D02*
G75*
G02*
X6167500Y-4000000I17500J0D01*
G01*
X6192500Y-2712917D02*
G75*
G02*
X6157500Y-2712917I-17500J0D01*
G01*
X6157500Y-2712917D02*
G75*
G02*
X6192500Y-2712917I17500J0D01*
G01*
X6214835Y-5067164D02*
G75*
G02*
X6179835Y-5067164I-17500J0D01*
G01*
X6179835Y-5067164D02*
G75*
G02*
X6214835Y-5067164I17500J0D01*
G01*
X6270276Y-6485000D02*
G75*
G02*
X6235276Y-6485000I-17500J0D01*
G01*
X6235276Y-6485000D02*
G75*
G02*
X6270276Y-6485000I17500J0D01*
G01*
X6292500Y-3783494D02*
G75*
G02*
X6257500Y-3783494I-17500J0D01*
G01*
X6257500Y-3783494D02*
G75*
G02*
X6292500Y-3783494I17500J0D01*
G01*
X6332500Y-6547224D02*
G75*
G02*
X6297500Y-6547224I-17500J0D01*
G01*
X6297500Y-6547224D02*
G75*
G02*
X6332500Y-6547224I17500J0D01*
G01*
X6332510Y-7770010D02*
G75*
G02*
X6297510Y-7770010I-17500J0D01*
G01*
X6297510Y-7770010D02*
G75*
G02*
X6332510Y-7770010I17500J0D01*
G01*
X6366197Y-4656294D02*
G75*
G02*
X6331197Y-4656294I-17500J0D01*
G01*
X6331197Y-4656294D02*
G75*
G02*
X6366197Y-4656294I17500J0D01*
G01*
X6372500Y-1677942D02*
G75*
G02*
X6337500Y-1677942I-17500J0D01*
G01*
X6337500Y-1677942D02*
G75*
G02*
X6372500Y-1677942I17500J0D01*
G01*
X6372500Y-6477942D02*
G75*
G02*
X6337500Y-6477942I-17500J0D01*
G01*
X6337500Y-6477942D02*
G75*
G02*
X6372500Y-6477942I17500J0D01*
G01*
X6417500Y-400000D02*
G75*
G02*
X6382500Y-400000I-17500J0D01*
G01*
X6382500Y-400000D02*
G75*
G02*
X6417500Y-400000I17500J0D01*
G01*
X6417500Y-5200000D02*
G75*
G02*
X6382500Y-5200000I-17500J0D01*
G01*
X6382500Y-5200000D02*
G75*
G02*
X6417500Y-5200000I17500J0D01*
G01*
X6417500Y-7600000D02*
G75*
G02*
X6382500Y-7600000I-17500J0D01*
G01*
X6382500Y-7600000D02*
G75*
G02*
X6417500Y-7600000I17500J0D01*
G01*
X6462500Y-1677942D02*
G75*
G02*
X6427500Y-1677942I-17500J0D01*
G01*
X6427500Y-1677942D02*
G75*
G02*
X6462500Y-1677942I17500J0D01*
G01*
X6467500Y-5659260D02*
G75*
G02*
X6432500Y-5659260I-17500J0D01*
G01*
X6432500Y-5659260D02*
G75*
G02*
X6467500Y-5659260I17500J0D01*
G01*
X6507500Y-1600000D02*
G75*
G02*
X6472500Y-1600000I-17500J0D01*
G01*
X6472500Y-1600000D02*
G75*
G02*
X6507500Y-1600000I17500J0D01*
G01*
X6540857Y-2740954D02*
G75*
G02*
X6505857Y-2740954I-17500J0D01*
G01*
X6505857Y-2740954D02*
G75*
G02*
X6540857Y-2740954I17500J0D01*
G01*
X6555293Y-6740954D02*
G75*
G02*
X6520293Y-6740954I-17500J0D01*
G01*
X6520293Y-6740954D02*
G75*
G02*
X6555293Y-6740954I17500J0D01*
G01*
X6564724Y-1685000D02*
G75*
G02*
X6529724Y-1685000I-17500J0D01*
G01*
X6529724Y-1685000D02*
G75*
G02*
X6564724Y-1685000I17500J0D01*
G01*
X6614835Y-5067164D02*
G75*
G02*
X6579835Y-5067164I-17500J0D01*
G01*
X6579835Y-5067164D02*
G75*
G02*
X6614835Y-5067164I17500J0D01*
G01*
X6916349Y-2712841D02*
G75*
G02*
X6881349Y-2712841I-17500J0D01*
G01*
X6881349Y-2712841D02*
G75*
G02*
X6916349Y-2712841I17500J0D01*
G01*
X6970020Y-4771542D02*
G75*
G02*
X6935020Y-4771542I-17500J0D01*
G01*
X6935020Y-4771542D02*
G75*
G02*
X6970020Y-4771542I17500J0D01*
G01*
X7053218Y-3263630D02*
G75*
G02*
X7018218Y-3263630I-17500J0D01*
G01*
X7018218Y-3263630D02*
G75*
G02*
X7053218Y-3263630I17500J0D01*
G01*
X7137596Y-1950010D02*
G75*
G02*
X7102596Y-1950010I-17500J0D01*
G01*
X7102596Y-1950010D02*
G75*
G02*
X7137596Y-1950010I17500J0D01*
G01*
X7400994Y-2925000D02*
G75*
G02*
X7365994Y-2925000I-17500J0D01*
G01*
X7365994Y-2925000D02*
G75*
G02*
X7400994Y-2925000I17500J0D01*
G01*
X7432510Y-7770010D02*
G75*
G02*
X7397510Y-7770010I-17500J0D01*
G01*
X7397510Y-7770010D02*
G75*
G02*
X7432510Y-7770010I17500J0D01*
G01*
X7617500Y-570000D02*
G75*
G02*
X7582500Y-570000I-17500J0D01*
G01*
X7582500Y-570000D02*
G75*
G02*
X7617500Y-570000I17500J0D01*
G01*
X7617500Y-3830000D02*
G75*
G02*
X7582500Y-3830000I-17500J0D01*
G01*
X7582500Y-3830000D02*
G75*
G02*
X7617500Y-3830000I17500J0D01*
G01*
X7617500Y-6400000D02*
G75*
G02*
X7582500Y-6400000I-17500J0D01*
G01*
X7582500Y-6400000D02*
G75*
G02*
X7617500Y-6400000I17500J0D01*
G01*
X7617500Y-7600000D02*
G75*
G02*
X7582500Y-7600000I-17500J0D01*
G01*
X7582500Y-7600000D02*
G75*
G02*
X7617500Y-7600000I17500J0D01*
G01*
X7702500Y-547224D02*
G75*
G02*
X7667500Y-547224I-17500J0D01*
G01*
X7667500Y-547224D02*
G75*
G02*
X7702500Y-547224I17500J0D01*
G01*
X7707500Y-400000D02*
G75*
G02*
X7672500Y-400000I-17500J0D01*
G01*
X7672500Y-400000D02*
G75*
G02*
X7707500Y-400000I17500J0D01*
G01*
X7715000Y-5020096D02*
G75*
G02*
X7680000Y-5020096I-17500J0D01*
G01*
X7680000Y-5020096D02*
G75*
G02*
X7715000Y-5020096I17500J0D01*
G01*
X7718897Y-6696418D02*
G75*
G02*
X7683897Y-6696418I-17500J0D01*
G01*
X7683897Y-6696418D02*
G75*
G02*
X7718897Y-6696418I17500J0D01*
G01*
X7760096Y-2625000D02*
G75*
G02*
X7725096Y-2625000I-17500J0D01*
G01*
X7725096Y-2625000D02*
G75*
G02*
X7760096Y-2625000I17500J0D01*
G01*
X7764724Y-485000D02*
G75*
G02*
X7729724Y-485000I-17500J0D01*
G01*
X7729724Y-485000D02*
G75*
G02*
X7764724Y-485000I17500J0D01*
G01*
X7787500Y-2800000D02*
G75*
G02*
X7752500Y-2800000I-17500J0D01*
G01*
X7752500Y-2800000D02*
G75*
G02*
X7787500Y-2800000I17500J0D01*
G01*
X7834006Y-1475000D02*
G75*
G02*
X7799006Y-1475000I-17500J0D01*
G01*
X7799006Y-1475000D02*
G75*
G02*
X7834006Y-1475000I17500J0D01*
G01*
X7834006Y-1725000D02*
G75*
G02*
X7799006Y-1725000I-17500J0D01*
G01*
X7799006Y-1725000D02*
G75*
G02*
X7834006Y-1725000I17500J0D01*
G01*
X7867500Y-1600000D02*
G75*
G02*
X7832500Y-1600000I-17500J0D01*
G01*
X7832500Y-1600000D02*
G75*
G02*
X7867500Y-1600000I17500J0D01*
G01*
X7883801Y-2006978D02*
G75*
G02*
X7848801Y-2006978I-17500J0D01*
G01*
X7848801Y-2006978D02*
G75*
G02*
X7883801Y-2006978I17500J0D01*
G01*
X7940116Y-4293731D02*
G75*
G02*
X7905116Y-4293731I-17500J0D01*
G01*
X7905116Y-4293731D02*
G75*
G02*
X7940116Y-4293731I17500J0D01*
G01*
X8116047Y-6197721D02*
G75*
G02*
X8081047Y-6197721I-17500J0D01*
G01*
X8081047Y-6197721D02*
G75*
G02*
X8116047Y-6197721I17500J0D01*
G01*
X8153121Y-4365015D02*
G75*
G02*
X8118121Y-4365015I-17500J0D01*
G01*
X8118121Y-4365015D02*
G75*
G02*
X8153121Y-4365015I17500J0D01*
G01*
X8262687Y-5740954D02*
G75*
G02*
X8227687Y-5740954I-17500J0D01*
G01*
X8227687Y-5740954D02*
G75*
G02*
X8262687Y-5740954I17500J0D01*
G01*
X8410408Y-2414907D02*
G75*
G02*
X8375408Y-2414907I-17500J0D01*
G01*
X8375408Y-2414907D02*
G75*
G02*
X8410408Y-2414907I17500J0D01*
G01*
X8410408Y-3514907D02*
G75*
G02*
X8375408Y-3514907I-17500J0D01*
G01*
X8375408Y-3514907D02*
G75*
G02*
X8410408Y-3514907I17500J0D01*
G01*
X8530226Y-6003954D02*
G75*
G02*
X8495226Y-6003954I-17500J0D01*
G01*
X8495226Y-6003954D02*
G75*
G02*
X8530226Y-6003954I17500J0D01*
G01*
X8532510Y-7770010D02*
G75*
G02*
X8497510Y-7770010I-17500J0D01*
G01*
X8497510Y-7770010D02*
G75*
G02*
X8532510Y-7770010I17500J0D01*
G01*
X8717500Y-2125000D02*
G75*
G02*
X8682500Y-2125000I-17500J0D01*
G01*
X8682500Y-2125000D02*
G75*
G02*
X8717500Y-2125000I17500J0D01*
G01*
X8732500Y-547224D02*
G75*
G02*
X8697500Y-547224I-17500J0D01*
G01*
X8697500Y-547224D02*
G75*
G02*
X8732500Y-547224I17500J0D01*
G01*
X8757500Y-3235718D02*
G75*
G02*
X8722500Y-3235718I-17500J0D01*
G01*
X8722500Y-3235718D02*
G75*
G02*
X8757500Y-3235718I17500J0D01*
G01*
X8817500Y-230000D02*
G75*
G02*
X8782500Y-230000I-17500J0D01*
G01*
X8782500Y-230000D02*
G75*
G02*
X8817500Y-230000I17500J0D01*
G01*
X8817500Y-570000D02*
G75*
G02*
X8782500Y-570000I-17500J0D01*
G01*
X8782500Y-570000D02*
G75*
G02*
X8817500Y-570000I17500J0D01*
G01*
X8817500Y-1600000D02*
G75*
G02*
X8782500Y-1600000I-17500J0D01*
G01*
X8782500Y-1600000D02*
G75*
G02*
X8817500Y-1600000I17500J0D01*
G01*
X8817500Y-2800000D02*
G75*
G02*
X8782500Y-2800000I-17500J0D01*
G01*
X8782500Y-2800000D02*
G75*
G02*
X8817500Y-2800000I17500J0D01*
G01*
X8817500Y-4000000D02*
G75*
G02*
X8782500Y-4000000I-17500J0D01*
G01*
X8782500Y-4000000D02*
G75*
G02*
X8817500Y-4000000I17500J0D01*
G01*
X8817500Y-5200000D02*
G75*
G02*
X8782500Y-5200000I-17500J0D01*
G01*
X8782500Y-5200000D02*
G75*
G02*
X8817500Y-5200000I17500J0D01*
G01*
X8817500Y-6400000D02*
G75*
G02*
X8782500Y-6400000I-17500J0D01*
G01*
X8782500Y-6400000D02*
G75*
G02*
X8817500Y-6400000I17500J0D01*
G01*
X8817500Y-7600000D02*
G75*
G02*
X8782500Y-7600000I-17500J0D01*
G01*
X8782500Y-7600000D02*
G75*
G02*
X8817500Y-7600000I17500J0D01*
G01*
X8853990Y-6600000D02*
G75*
G02*
X8818990Y-6600000I-17500J0D01*
G01*
X8818990Y-6600000D02*
G75*
G02*
X8853990Y-6600000I17500J0D01*
G01*
X8987510Y-1624990D02*
G75*
G02*
X8952510Y-1624990I-17500J0D01*
G01*
X8952510Y-1624990D02*
G75*
G02*
X8987510Y-1624990I17500J0D01*
G01*
X8987510Y-2724990D02*
G75*
G02*
X8952510Y-2724990I-17500J0D01*
G01*
X8952510Y-2724990D02*
G75*
G02*
X8987510Y-2724990I17500J0D01*
G01*
X9067500Y-400000D02*
G75*
G02*
X9032500Y-400000I-17500J0D01*
G01*
X9032500Y-400000D02*
G75*
G02*
X9067500Y-400000I17500J0D01*
G01*
X9642621Y-3786167D02*
G75*
G02*
X9607621Y-3786167I-17500J0D01*
G01*
X9607621Y-3786167D02*
G75*
G02*
X9642621Y-3786167I17500J0D01*
G01*
X9642621Y-4886167D02*
G75*
G02*
X9607621Y-4886167I-17500J0D01*
G01*
X9607621Y-4886167D02*
G75*
G02*
X9642621Y-4886167I17500J0D01*
G01*
X9646556Y-1573687D02*
G75*
G02*
X9611556Y-1573687I-17500J0D01*
G01*
X9611556Y-1573687D02*
G75*
G02*
X9646556Y-1573687I17500J0D01*
G01*
X9646556Y-2673687D02*
G75*
G02*
X9611556Y-2673687I-17500J0D01*
G01*
X9611556Y-2673687D02*
G75*
G02*
X9646556Y-2673687I17500J0D01*
G01*
X9450000Y-138000D02*
X9450000Y-198000D01*
X9420000Y-168000D02*
X9480000Y-168000D01*
X9415000Y-198000D02*
X9485000Y-198000D01*
X9485000Y-138000D02*
G75*
G02*
X9485000Y-198000I0J-30000D01*
G01*
X9485000Y-138000D02*
X9415000Y-138000D01*
X9415000Y-138000D02*
G75*
G03*
X9415000Y-198000I0J-30000D01*
G01*
X9450000Y-1002000D02*
X9450000Y-1062000D01*
X9420000Y-1032000D02*
X9480000Y-1032000D01*
X9415000Y-1062000D02*
X9485000Y-1062000D01*
X9485000Y-1002000D02*
G75*
G02*
X9485000Y-1062000I0J-30000D01*
G01*
X9485000Y-1002000D02*
X9415000Y-1002000D01*
X9415000Y-1002000D02*
G75*
G03*
X9415000Y-1062000I0J-30000D01*
G01*
X9830000Y-138000D02*
X9830000Y-198000D01*
X9800000Y-168000D02*
X9860000Y-168000D01*
X9795000Y-198000D02*
X9865000Y-198000D01*
X9865000Y-138000D02*
G75*
G02*
X9865000Y-198000I0J-30000D01*
G01*
X9865000Y-138000D02*
X9795000Y-138000D01*
X9795000Y-138000D02*
G75*
G03*
X9795000Y-198000I0J-30000D01*
G01*
X9830000Y-1002000D02*
X9830000Y-1062000D01*
X9800000Y-1032000D02*
X9860000Y-1032000D01*
X9795000Y-1062000D02*
X9865000Y-1062000D01*
X9865000Y-1002000D02*
G75*
G02*
X9865000Y-1062000I0J-30000D01*
G01*
X9865000Y-1002000D02*
X9795000Y-1002000D01*
X9795000Y-1002000D02*
G75*
G03*
X9795000Y-1062000I0J-30000D01*
G01*
X295225Y-1495784D02*
X295225Y-1439215D01*
X238655Y-1439215D01*
X238655Y-1495784D01*
X295225Y-1495784D01*
X301940Y-1427500D02*
X231940Y-1427500D01*
X231940Y-1507500D02*
G75*
G02*
X231940Y-1427500I0J40000D01*
G01*
X231940Y-1507500D02*
X301940Y-1507500D01*
X301940Y-1507500D02*
G75*
G03*
X301940Y-1427500I0J40000D01*
G01*
X295225Y-2360785D02*
X295225Y-2304216D01*
X238655Y-2304216D01*
X238655Y-2360785D01*
X295225Y-2360785D01*
X301940Y-2292500D02*
X231940Y-2292500D01*
X231940Y-2372500D02*
G75*
G02*
X231940Y-2292500I0J40000D01*
G01*
X231940Y-2372500D02*
X301940Y-2372500D01*
X301940Y-2372500D02*
G75*
G03*
X301940Y-2292500I0J40000D01*
G01*
X713214Y-1495784D02*
X713214Y-1439215D01*
X656646Y-1439215D01*
X656646Y-1495784D01*
X713214Y-1495784D01*
X704930Y-1427500D02*
X664930Y-1427500D01*
X664930Y-1507500D02*
G75*
G02*
X664930Y-1427500I0J40000D01*
G01*
X664930Y-1507500D02*
X704930Y-1507500D01*
X704930Y-1507500D02*
G75*
G03*
X704930Y-1427500I0J40000D01*
G01*
X713214Y-2360785D02*
X713214Y-2304216D01*
X656646Y-2304216D01*
X656646Y-2360785D01*
X713214Y-2360785D01*
X704930Y-2292500D02*
X664930Y-2292500D01*
X664930Y-2372500D02*
G75*
G02*
X664930Y-2292500I0J40000D01*
G01*
X664930Y-2372500D02*
X704930Y-2372500D01*
X704930Y-2372500D02*
G75*
G03*
X704930Y-2292500I0J40000D01*
G01*
X499990Y-4276000D02*
X544990Y-4231000D01*
X499990Y-4186000D01*
X454990Y-4231000D01*
X499990Y-4276000D01*
X499990Y-5626000D02*
X544990Y-5581000D01*
X499990Y-5536000D01*
X454990Y-5581000D01*
X499990Y-5626000D01*
X500010Y-3514000D02*
X545010Y-3469000D01*
X500010Y-3424000D01*
X455010Y-3469000D01*
X500010Y-3514000D01*
X500010Y-3768000D02*
X545010Y-3723000D01*
X500010Y-3678000D01*
X455010Y-3723000D01*
X500010Y-3768000D01*
X500010Y-4022000D02*
X545010Y-3977000D01*
X500010Y-3932000D01*
X455010Y-3977000D01*
X500010Y-4022000D01*
X500010Y-4864000D02*
X545010Y-4819000D01*
X500010Y-4774000D01*
X455010Y-4819000D01*
X500010Y-4864000D01*
X500010Y-5118000D02*
X545010Y-5073000D01*
X500010Y-5028000D01*
X455010Y-5073000D01*
X500010Y-5118000D01*
X500010Y-5372000D02*
X545010Y-5327000D01*
X500010Y-5282000D01*
X455010Y-5327000D01*
X500010Y-5372000D01*
X4099000Y-444990D02*
X4144000Y-399990D01*
X4099000Y-354990D01*
X4054000Y-399990D01*
X4099000Y-444990D01*
X4353000Y-445010D02*
X4398000Y-400010D01*
X4353000Y-355010D01*
X4308000Y-400010D01*
X4353000Y-445010D01*
X4607000Y-445010D02*
X4652000Y-400010D01*
X4607000Y-355010D01*
X4562000Y-400010D01*
X4607000Y-445010D01*
X4861000Y-445010D02*
X4906000Y-400010D01*
X4861000Y-355010D01*
X4816000Y-400010D01*
X4861000Y-445010D01*
X5429000Y-444990D02*
X5474000Y-399990D01*
X5429000Y-354990D01*
X5384000Y-399990D01*
X5429000Y-444990D01*
X5683000Y-445010D02*
X5728000Y-400010D01*
X5683000Y-355010D01*
X5638000Y-400010D01*
X5683000Y-445010D01*
X5937000Y-445010D02*
X5982000Y-400010D01*
X5937000Y-355010D01*
X5892000Y-400010D01*
X5937000Y-445010D01*
X6191000Y-445010D02*
X6236000Y-400010D01*
X6191000Y-355010D01*
X6146000Y-400010D01*
X6191000Y-445010D01*
X6759000Y-444990D02*
X6804000Y-399990D01*
X6759000Y-354990D01*
X6714000Y-399990D01*
X6759000Y-444990D01*
X7013000Y-445010D02*
X7058000Y-400010D01*
X7013000Y-355010D01*
X6968000Y-400010D01*
X7013000Y-445010D01*
X7267000Y-445010D02*
X7312000Y-400010D01*
X7267000Y-355010D01*
X7222000Y-400010D01*
X7267000Y-445010D01*
X7521000Y-445010D02*
X7566000Y-400010D01*
X7521000Y-355010D01*
X7476000Y-400010D01*
X7521000Y-445010D01*
X8089000Y-444990D02*
X8134000Y-399990D01*
X8089000Y-354990D01*
X8044000Y-399990D01*
X8089000Y-444990D01*
X8343000Y-445010D02*
X8388000Y-400010D01*
X8343000Y-355010D01*
X8298000Y-400010D01*
X8343000Y-445010D01*
X8597000Y-445010D02*
X8642000Y-400010D01*
X8597000Y-355010D01*
X8552000Y-400010D01*
X8597000Y-445010D01*
X8851000Y-445010D02*
X8896000Y-400010D01*
X8851000Y-355010D01*
X8806000Y-400010D01*
X8851000Y-445010D01*
X9069000Y-7444990D02*
X9114000Y-7399990D01*
X9069000Y-7354990D01*
X9024000Y-7399990D01*
X9069000Y-7444990D01*
X9323000Y-7444990D02*
X9368000Y-7399990D01*
X9323000Y-7354990D01*
X9278000Y-7399990D01*
X9323000Y-7444990D01*
X9577000Y-7444990D02*
X9622000Y-7399990D01*
X9577000Y-7354990D01*
X9532000Y-7399990D01*
X9577000Y-7444990D01*
X9831000Y-7445010D02*
X9876000Y-7400010D01*
X9831000Y-7355010D01*
X9786000Y-7400010D01*
X9831000Y-7445010D01*
X286940Y-1580010D02*
X346940Y-1640010D01*
X346940Y-1580010D02*
X286940Y-1640010D01*
X346940Y-1610010D02*
G75*
G02*
X286940Y-1610010I-30000J0D01*
G01*
X286940Y-1610010D02*
G75*
G02*
X346940Y-1610010I30000J0D01*
G01*
X286940Y-2159990D02*
X346940Y-2219990D01*
X346940Y-2159990D02*
X286940Y-2219990D01*
X346940Y-2189990D02*
G75*
G02*
X286940Y-2189990I-30000J0D01*
G01*
X286940Y-2189990D02*
G75*
G02*
X346940Y-2189990I30000J0D01*
G01*
D12*
X140000Y-2640000D02*
X460000Y-2960000D01*
X460000Y-2640000D02*
X140000Y-2960000D01*
X300000Y-2640000D02*
X300000Y-2960000D01*
X140000Y-2800000D02*
X460000Y-2800000D01*
X180000Y-180000D02*
X500000Y-500000D01*
X500000Y-180000D02*
X180000Y-500000D01*
X340000Y-180000D02*
X340000Y-500000D01*
X180000Y-340000D02*
X500000Y-340000D01*
X7190000Y-5410000D02*
X7510000Y-5730000D01*
X7510000Y-5410000D02*
X7190000Y-5730000D01*
X7350000Y-5410000D02*
X7350000Y-5730000D01*
X7190000Y-5570000D02*
X7510000Y-5570000D01*
X8140000Y-1090000D02*
X8460000Y-1410000D01*
X8460000Y-1090000D02*
X8140000Y-1410000D01*
X8300000Y-1090000D02*
X8300000Y-1410000D01*
X8140000Y-1250000D02*
X8460000Y-1250000D01*
D11*
X255777Y-8316484D02*
X255777Y-8116484D01*
X255777Y-8116484D02*
X303396Y-8116484D01*
X303396Y-8116484D02*
X331967Y-8126008D01*
X331967Y-8126008D02*
X351015Y-8145055D01*
X351015Y-8145055D02*
X360539Y-8164103D01*
X360539Y-8164103D02*
X370062Y-8202198D01*
X370062Y-8202198D02*
X370062Y-8230769D01*
X370062Y-8230769D02*
X360539Y-8268865D01*
X360539Y-8268865D02*
X351015Y-8287912D01*
X351015Y-8287912D02*
X331967Y-8306960D01*
X331967Y-8306960D02*
X303396Y-8316484D01*
X303396Y-8316484D02*
X255777Y-8316484D01*
X455777Y-8316484D02*
X455777Y-8183150D01*
X455777Y-8221246D02*
X465301Y-8202198D01*
X465301Y-8202198D02*
X474824Y-8192674D01*
X474824Y-8192674D02*
X493872Y-8183150D01*
X493872Y-8183150D02*
X512920Y-8183150D01*
X579586Y-8316484D02*
X579586Y-8183150D01*
X579586Y-8116484D02*
X570063Y-8126008D01*
X570063Y-8126008D02*
X579586Y-8135531D01*
X579586Y-8135531D02*
X589110Y-8126008D01*
X589110Y-8126008D02*
X579586Y-8116484D01*
X579586Y-8116484D02*
X579586Y-8135531D01*
X703396Y-8316484D02*
X684348Y-8306960D01*
X684348Y-8306960D02*
X674824Y-8287912D01*
X674824Y-8287912D02*
X674824Y-8116484D01*
X808158Y-8316484D02*
X789110Y-8306960D01*
X789110Y-8306960D02*
X779586Y-8287912D01*
X779586Y-8287912D02*
X779586Y-8116484D01*
X1036729Y-8316484D02*
X1036729Y-8116484D01*
X1036729Y-8116484D02*
X1103396Y-8259341D01*
X1103396Y-8259341D02*
X1170063Y-8116484D01*
X1170063Y-8116484D02*
X1170063Y-8316484D01*
X1351015Y-8316484D02*
X1351015Y-8211722D01*
X1351015Y-8211722D02*
X1341491Y-8192674D01*
X1341491Y-8192674D02*
X1322444Y-8183150D01*
X1322444Y-8183150D02*
X1284348Y-8183150D01*
X1284348Y-8183150D02*
X1265301Y-8192674D01*
X1351015Y-8306960D02*
X1331967Y-8316484D01*
X1331967Y-8316484D02*
X1284348Y-8316484D01*
X1284348Y-8316484D02*
X1265301Y-8306960D01*
X1265301Y-8306960D02*
X1255777Y-8287912D01*
X1255777Y-8287912D02*
X1255777Y-8268865D01*
X1255777Y-8268865D02*
X1265301Y-8249817D01*
X1265301Y-8249817D02*
X1284348Y-8240293D01*
X1284348Y-8240293D02*
X1331967Y-8240293D01*
X1331967Y-8240293D02*
X1351015Y-8230769D01*
X1446253Y-8183150D02*
X1446253Y-8383150D01*
X1446253Y-8192674D02*
X1465301Y-8183150D01*
X1465301Y-8183150D02*
X1503396Y-8183150D01*
X1503396Y-8183150D02*
X1522443Y-8192674D01*
X1522443Y-8192674D02*
X1531967Y-8202198D01*
X1531967Y-8202198D02*
X1541491Y-8221246D01*
X1541491Y-8221246D02*
X1541491Y-8278388D01*
X1541491Y-8278388D02*
X1531967Y-8297436D01*
X1531967Y-8297436D02*
X1522443Y-8306960D01*
X1522443Y-8306960D02*
X1503396Y-8316484D01*
X1503396Y-8316484D02*
X1465301Y-8316484D01*
X1465301Y-8316484D02*
X1446253Y-8306960D01*
X1627205Y-8297436D02*
X1636729Y-8306960D01*
X1636729Y-8306960D02*
X1627205Y-8316484D01*
X1627205Y-8316484D02*
X1617682Y-8306960D01*
X1617682Y-8306960D02*
X1627205Y-8297436D01*
X1627205Y-8297436D02*
X1627205Y-8316484D01*
X1627205Y-8192674D02*
X1636729Y-8202198D01*
X1636729Y-8202198D02*
X1627205Y-8211722D01*
X1627205Y-8211722D02*
X1617682Y-8202198D01*
X1617682Y-8202198D02*
X1627205Y-8192674D01*
X1627205Y-8192674D02*
X1627205Y-8211722D01*
D10*
X-35000Y-8630000D02*
X-5000Y-8660000D01*
X-5000Y-8630000D02*
X-35000Y-8660000D01*
D11*
X293872Y-8536484D02*
X312920Y-8536484D01*
X312920Y-8536484D02*
X331967Y-8546008D01*
X331967Y-8546008D02*
X341491Y-8555531D01*
X341491Y-8555531D02*
X351015Y-8574579D01*
X351015Y-8574579D02*
X360539Y-8612674D01*
X360539Y-8612674D02*
X360539Y-8660293D01*
X360539Y-8660293D02*
X351015Y-8698389D01*
X351015Y-8698389D02*
X341491Y-8717436D01*
X341491Y-8717436D02*
X331967Y-8726960D01*
X331967Y-8726960D02*
X312920Y-8736484D01*
X312920Y-8736484D02*
X293872Y-8736484D01*
X293872Y-8736484D02*
X274824Y-8726960D01*
X274824Y-8726960D02*
X265301Y-8717436D01*
X265301Y-8717436D02*
X255777Y-8698389D01*
X255777Y-8698389D02*
X246253Y-8660293D01*
X246253Y-8660293D02*
X246253Y-8612674D01*
X246253Y-8612674D02*
X255777Y-8574579D01*
X255777Y-8574579D02*
X265301Y-8555531D01*
X265301Y-8555531D02*
X274824Y-8546008D01*
X274824Y-8546008D02*
X293872Y-8536484D01*
X446253Y-8717436D02*
X455777Y-8726960D01*
X455777Y-8726960D02*
X446253Y-8736484D01*
X446253Y-8736484D02*
X436729Y-8726960D01*
X436729Y-8726960D02*
X446253Y-8717436D01*
X446253Y-8717436D02*
X446253Y-8736484D01*
X522443Y-8536484D02*
X646253Y-8536484D01*
X646253Y-8536484D02*
X579586Y-8612674D01*
X579586Y-8612674D02*
X608158Y-8612674D01*
X608158Y-8612674D02*
X627205Y-8622198D01*
X627205Y-8622198D02*
X636729Y-8631722D01*
X636729Y-8631722D02*
X646253Y-8650770D01*
X646253Y-8650770D02*
X646253Y-8698389D01*
X646253Y-8698389D02*
X636729Y-8717436D01*
X636729Y-8717436D02*
X627205Y-8726960D01*
X627205Y-8726960D02*
X608158Y-8736484D01*
X608158Y-8736484D02*
X551015Y-8736484D01*
X551015Y-8736484D02*
X531967Y-8726960D01*
X531967Y-8726960D02*
X522443Y-8717436D01*
X770062Y-8536484D02*
X789110Y-8536484D01*
X789110Y-8536484D02*
X808158Y-8546008D01*
X808158Y-8546008D02*
X817682Y-8555531D01*
X817682Y-8555531D02*
X827205Y-8574579D01*
X827205Y-8574579D02*
X836729Y-8612674D01*
X836729Y-8612674D02*
X836729Y-8660293D01*
X836729Y-8660293D02*
X827205Y-8698389D01*
X827205Y-8698389D02*
X817682Y-8717436D01*
X817682Y-8717436D02*
X808158Y-8726960D01*
X808158Y-8726960D02*
X789110Y-8736484D01*
X789110Y-8736484D02*
X770062Y-8736484D01*
X770062Y-8736484D02*
X751015Y-8726960D01*
X751015Y-8726960D02*
X741491Y-8717436D01*
X741491Y-8717436D02*
X731967Y-8698389D01*
X731967Y-8698389D02*
X722443Y-8660293D01*
X722443Y-8660293D02*
X722443Y-8612674D01*
X722443Y-8612674D02*
X731967Y-8574579D01*
X731967Y-8574579D02*
X741491Y-8555531D01*
X741491Y-8555531D02*
X751015Y-8546008D01*
X751015Y-8546008D02*
X770062Y-8536484D01*
X960539Y-8536484D02*
X979586Y-8536484D01*
X979586Y-8536484D02*
X998634Y-8546008D01*
X998634Y-8546008D02*
X1008158Y-8555531D01*
X1008158Y-8555531D02*
X1017682Y-8574579D01*
X1017682Y-8574579D02*
X1027205Y-8612674D01*
X1027205Y-8612674D02*
X1027205Y-8660293D01*
X1027205Y-8660293D02*
X1017682Y-8698389D01*
X1017682Y-8698389D02*
X1008158Y-8717436D01*
X1008158Y-8717436D02*
X998634Y-8726960D01*
X998634Y-8726960D02*
X979586Y-8736484D01*
X979586Y-8736484D02*
X960539Y-8736484D01*
X960539Y-8736484D02*
X941491Y-8726960D01*
X941491Y-8726960D02*
X931967Y-8717436D01*
X931967Y-8717436D02*
X922443Y-8698389D01*
X922443Y-8698389D02*
X912920Y-8660293D01*
X912920Y-8660293D02*
X912920Y-8612674D01*
X912920Y-8612674D02*
X922443Y-8574579D01*
X922443Y-8574579D02*
X931967Y-8555531D01*
X931967Y-8555531D02*
X941491Y-8546008D01*
X941491Y-8546008D02*
X960539Y-8536484D01*
X1112920Y-8736484D02*
X1112920Y-8603150D01*
X1112920Y-8622198D02*
X1122444Y-8612674D01*
X1122444Y-8612674D02*
X1141491Y-8603150D01*
X1141491Y-8603150D02*
X1170063Y-8603150D01*
X1170063Y-8603150D02*
X1189110Y-8612674D01*
X1189110Y-8612674D02*
X1198634Y-8631722D01*
X1198634Y-8631722D02*
X1198634Y-8736484D01*
X1198634Y-8631722D02*
X1208158Y-8612674D01*
X1208158Y-8612674D02*
X1227205Y-8603150D01*
X1227205Y-8603150D02*
X1255777Y-8603150D01*
X1255777Y-8603150D02*
X1274825Y-8612674D01*
X1274825Y-8612674D02*
X1284348Y-8631722D01*
X1284348Y-8631722D02*
X1284348Y-8736484D01*
X1379586Y-8736484D02*
X1379586Y-8603150D01*
X1379586Y-8622198D02*
X1389110Y-8612674D01*
X1389110Y-8612674D02*
X1408158Y-8603150D01*
X1408158Y-8603150D02*
X1436729Y-8603150D01*
X1436729Y-8603150D02*
X1455777Y-8612674D01*
X1455777Y-8612674D02*
X1465301Y-8631722D01*
X1465301Y-8631722D02*
X1465301Y-8736484D01*
X1465301Y-8631722D02*
X1474824Y-8612674D01*
X1474824Y-8612674D02*
X1493872Y-8603150D01*
X1493872Y-8603150D02*
X1522443Y-8603150D01*
X1522443Y-8603150D02*
X1541491Y-8612674D01*
X1541491Y-8612674D02*
X1551015Y-8631722D01*
X1551015Y-8631722D02*
X1551015Y-8736484D01*
X1941491Y-8526960D02*
X1770063Y-8784103D01*
X2198634Y-8536484D02*
X2217682Y-8536484D01*
X2217682Y-8536484D02*
X2236729Y-8546008D01*
X2236729Y-8546008D02*
X2246253Y-8555531D01*
X2246253Y-8555531D02*
X2255777Y-8574579D01*
X2255777Y-8574579D02*
X2265301Y-8612674D01*
X2265301Y-8612674D02*
X2265301Y-8660293D01*
X2265301Y-8660293D02*
X2255777Y-8698389D01*
X2255777Y-8698389D02*
X2246253Y-8717436D01*
X2246253Y-8717436D02*
X2236729Y-8726960D01*
X2236729Y-8726960D02*
X2217682Y-8736484D01*
X2217682Y-8736484D02*
X2198634Y-8736484D01*
X2198634Y-8736484D02*
X2179587Y-8726960D01*
X2179587Y-8726960D02*
X2170063Y-8717436D01*
X2170063Y-8717436D02*
X2160539Y-8698389D01*
X2160539Y-8698389D02*
X2151015Y-8660293D01*
X2151015Y-8660293D02*
X2151015Y-8612674D01*
X2151015Y-8612674D02*
X2160539Y-8574579D01*
X2160539Y-8574579D02*
X2170063Y-8555531D01*
X2170063Y-8555531D02*
X2179587Y-8546008D01*
X2179587Y-8546008D02*
X2198634Y-8536484D01*
X2351015Y-8717436D02*
X2360539Y-8726960D01*
X2360539Y-8726960D02*
X2351015Y-8736484D01*
X2351015Y-8736484D02*
X2341491Y-8726960D01*
X2341491Y-8726960D02*
X2351015Y-8717436D01*
X2351015Y-8717436D02*
X2351015Y-8736484D01*
X2484348Y-8536484D02*
X2503396Y-8536484D01*
X2503396Y-8536484D02*
X2522444Y-8546008D01*
X2522444Y-8546008D02*
X2531968Y-8555531D01*
X2531968Y-8555531D02*
X2541491Y-8574579D01*
X2541491Y-8574579D02*
X2551015Y-8612674D01*
X2551015Y-8612674D02*
X2551015Y-8660293D01*
X2551015Y-8660293D02*
X2541491Y-8698389D01*
X2541491Y-8698389D02*
X2531968Y-8717436D01*
X2531968Y-8717436D02*
X2522444Y-8726960D01*
X2522444Y-8726960D02*
X2503396Y-8736484D01*
X2503396Y-8736484D02*
X2484348Y-8736484D01*
X2484348Y-8736484D02*
X2465301Y-8726960D01*
X2465301Y-8726960D02*
X2455777Y-8717436D01*
X2455777Y-8717436D02*
X2446253Y-8698389D01*
X2446253Y-8698389D02*
X2436729Y-8660293D01*
X2436729Y-8660293D02*
X2436729Y-8612674D01*
X2436729Y-8612674D02*
X2446253Y-8574579D01*
X2446253Y-8574579D02*
X2455777Y-8555531D01*
X2455777Y-8555531D02*
X2465301Y-8546008D01*
X2465301Y-8546008D02*
X2484348Y-8536484D01*
X2741491Y-8736484D02*
X2627206Y-8736484D01*
X2684348Y-8736484D02*
X2684348Y-8536484D01*
X2684348Y-8536484D02*
X2665301Y-8565055D01*
X2665301Y-8565055D02*
X2646253Y-8584103D01*
X2646253Y-8584103D02*
X2627206Y-8593627D01*
X2931967Y-8736484D02*
X2817682Y-8736484D01*
X2874825Y-8736484D02*
X2874825Y-8536484D01*
X2874825Y-8536484D02*
X2855777Y-8565055D01*
X2855777Y-8565055D02*
X2836729Y-8584103D01*
X2836729Y-8584103D02*
X2817682Y-8593627D01*
X3046253Y-8622198D02*
X3027206Y-8612674D01*
X3027206Y-8612674D02*
X3017682Y-8603150D01*
X3017682Y-8603150D02*
X3008158Y-8584103D01*
X3008158Y-8584103D02*
X3008158Y-8574579D01*
X3008158Y-8574579D02*
X3017682Y-8555531D01*
X3017682Y-8555531D02*
X3027206Y-8546008D01*
X3027206Y-8546008D02*
X3046253Y-8536484D01*
X3046253Y-8536484D02*
X3084348Y-8536484D01*
X3084348Y-8536484D02*
X3103396Y-8546008D01*
X3103396Y-8546008D02*
X3112920Y-8555531D01*
X3112920Y-8555531D02*
X3122444Y-8574579D01*
X3122444Y-8574579D02*
X3122444Y-8584103D01*
X3122444Y-8584103D02*
X3112920Y-8603150D01*
X3112920Y-8603150D02*
X3103396Y-8612674D01*
X3103396Y-8612674D02*
X3084348Y-8622198D01*
X3084348Y-8622198D02*
X3046253Y-8622198D01*
X3046253Y-8622198D02*
X3027206Y-8631722D01*
X3027206Y-8631722D02*
X3017682Y-8641246D01*
X3017682Y-8641246D02*
X3008158Y-8660293D01*
X3008158Y-8660293D02*
X3008158Y-8698389D01*
X3008158Y-8698389D02*
X3017682Y-8717436D01*
X3017682Y-8717436D02*
X3027206Y-8726960D01*
X3027206Y-8726960D02*
X3046253Y-8736484D01*
X3046253Y-8736484D02*
X3084348Y-8736484D01*
X3084348Y-8736484D02*
X3103396Y-8726960D01*
X3103396Y-8726960D02*
X3112920Y-8717436D01*
X3112920Y-8717436D02*
X3122444Y-8698389D01*
X3122444Y-8698389D02*
X3122444Y-8660293D01*
X3122444Y-8660293D02*
X3112920Y-8641246D01*
X3112920Y-8641246D02*
X3103396Y-8631722D01*
X3103396Y-8631722D02*
X3084348Y-8622198D01*
X3198634Y-8536484D02*
X3198634Y-8574579D01*
X3274825Y-8536484D02*
X3274825Y-8574579D01*
X3570063Y-8812674D02*
X3560539Y-8803150D01*
X3560539Y-8803150D02*
X3541491Y-8774579D01*
X3541491Y-8774579D02*
X3531968Y-8755531D01*
X3531968Y-8755531D02*
X3522444Y-8726960D01*
X3522444Y-8726960D02*
X3512920Y-8679341D01*
X3512920Y-8679341D02*
X3512920Y-8641246D01*
X3512920Y-8641246D02*
X3522444Y-8593627D01*
X3522444Y-8593627D02*
X3531968Y-8565055D01*
X3531968Y-8565055D02*
X3541491Y-8546008D01*
X3541491Y-8546008D02*
X3560539Y-8517436D01*
X3560539Y-8517436D02*
X3570063Y-8507912D01*
X3636729Y-8555531D02*
X3646253Y-8546008D01*
X3646253Y-8546008D02*
X3665301Y-8536484D01*
X3665301Y-8536484D02*
X3712920Y-8536484D01*
X3712920Y-8536484D02*
X3731968Y-8546008D01*
X3731968Y-8546008D02*
X3741491Y-8555531D01*
X3741491Y-8555531D02*
X3751015Y-8574579D01*
X3751015Y-8574579D02*
X3751015Y-8593627D01*
X3751015Y-8593627D02*
X3741491Y-8622198D01*
X3741491Y-8622198D02*
X3627206Y-8736484D01*
X3627206Y-8736484D02*
X3751015Y-8736484D01*
X3817682Y-8536484D02*
X3941491Y-8536484D01*
X3941491Y-8536484D02*
X3874825Y-8612674D01*
X3874825Y-8612674D02*
X3903396Y-8612674D01*
X3903396Y-8612674D02*
X3922444Y-8622198D01*
X3922444Y-8622198D02*
X3931968Y-8631722D01*
X3931968Y-8631722D02*
X3941491Y-8650770D01*
X3941491Y-8650770D02*
X3941491Y-8698389D01*
X3941491Y-8698389D02*
X3931968Y-8717436D01*
X3931968Y-8717436D02*
X3922444Y-8726960D01*
X3922444Y-8726960D02*
X3903396Y-8736484D01*
X3903396Y-8736484D02*
X3846253Y-8736484D01*
X3846253Y-8736484D02*
X3827206Y-8726960D01*
X3827206Y-8726960D02*
X3817682Y-8717436D01*
X4017682Y-8555531D02*
X4027206Y-8546008D01*
X4027206Y-8546008D02*
X4046253Y-8536484D01*
X4046253Y-8536484D02*
X4093872Y-8536484D01*
X4093872Y-8536484D02*
X4112920Y-8546008D01*
X4112920Y-8546008D02*
X4122444Y-8555531D01*
X4122444Y-8555531D02*
X4131968Y-8574579D01*
X4131968Y-8574579D02*
X4131968Y-8593627D01*
X4131968Y-8593627D02*
X4122444Y-8622198D01*
X4122444Y-8622198D02*
X4008158Y-8736484D01*
X4008158Y-8736484D02*
X4131968Y-8736484D01*
X4370063Y-8736484D02*
X4370063Y-8536484D01*
X4455777Y-8736484D02*
X4455777Y-8631722D01*
X4455777Y-8631722D02*
X4446253Y-8612674D01*
X4446253Y-8612674D02*
X4427206Y-8603150D01*
X4427206Y-8603150D02*
X4398634Y-8603150D01*
X4398634Y-8603150D02*
X4379587Y-8612674D01*
X4379587Y-8612674D02*
X4370063Y-8622198D01*
X4579587Y-8736484D02*
X4560539Y-8726960D01*
X4560539Y-8726960D02*
X4551015Y-8717436D01*
X4551015Y-8717436D02*
X4541492Y-8698389D01*
X4541492Y-8698389D02*
X4541492Y-8641246D01*
X4541492Y-8641246D02*
X4551015Y-8622198D01*
X4551015Y-8622198D02*
X4560539Y-8612674D01*
X4560539Y-8612674D02*
X4579587Y-8603150D01*
X4579587Y-8603150D02*
X4608158Y-8603150D01*
X4608158Y-8603150D02*
X4627206Y-8612674D01*
X4627206Y-8612674D02*
X4636730Y-8622198D01*
X4636730Y-8622198D02*
X4646253Y-8641246D01*
X4646253Y-8641246D02*
X4646253Y-8698389D01*
X4646253Y-8698389D02*
X4636730Y-8717436D01*
X4636730Y-8717436D02*
X4627206Y-8726960D01*
X4627206Y-8726960D02*
X4608158Y-8736484D01*
X4608158Y-8736484D02*
X4579587Y-8736484D01*
X4760539Y-8736484D02*
X4741492Y-8726960D01*
X4741492Y-8726960D02*
X4731968Y-8707912D01*
X4731968Y-8707912D02*
X4731968Y-8536484D01*
X4912920Y-8726960D02*
X4893873Y-8736484D01*
X4893873Y-8736484D02*
X4855777Y-8736484D01*
X4855777Y-8736484D02*
X4836730Y-8726960D01*
X4836730Y-8726960D02*
X4827206Y-8707912D01*
X4827206Y-8707912D02*
X4827206Y-8631722D01*
X4827206Y-8631722D02*
X4836730Y-8612674D01*
X4836730Y-8612674D02*
X4855777Y-8603150D01*
X4855777Y-8603150D02*
X4893873Y-8603150D01*
X4893873Y-8603150D02*
X4912920Y-8612674D01*
X4912920Y-8612674D02*
X4922444Y-8631722D01*
X4922444Y-8631722D02*
X4922444Y-8650770D01*
X4922444Y-8650770D02*
X4827206Y-8669817D01*
X4998634Y-8726960D02*
X5017682Y-8736484D01*
X5017682Y-8736484D02*
X5055777Y-8736484D01*
X5055777Y-8736484D02*
X5074825Y-8726960D01*
X5074825Y-8726960D02*
X5084349Y-8707912D01*
X5084349Y-8707912D02*
X5084349Y-8698389D01*
X5084349Y-8698389D02*
X5074825Y-8679341D01*
X5074825Y-8679341D02*
X5055777Y-8669817D01*
X5055777Y-8669817D02*
X5027206Y-8669817D01*
X5027206Y-8669817D02*
X5008158Y-8660293D01*
X5008158Y-8660293D02*
X4998634Y-8641246D01*
X4998634Y-8641246D02*
X4998634Y-8631722D01*
X4998634Y-8631722D02*
X5008158Y-8612674D01*
X5008158Y-8612674D02*
X5027206Y-8603150D01*
X5027206Y-8603150D02*
X5055777Y-8603150D01*
X5055777Y-8603150D02*
X5074825Y-8612674D01*
X5151015Y-8812674D02*
X5160539Y-8803150D01*
X5160539Y-8803150D02*
X5179587Y-8774579D01*
X5179587Y-8774579D02*
X5189111Y-8755531D01*
X5189111Y-8755531D02*
X5198634Y-8726960D01*
X5198634Y-8726960D02*
X5208158Y-8679341D01*
X5208158Y-8679341D02*
X5208158Y-8641246D01*
X5208158Y-8641246D02*
X5198634Y-8593627D01*
X5198634Y-8593627D02*
X5189111Y-8565055D01*
X5189111Y-8565055D02*
X5179587Y-8546008D01*
X5179587Y-8546008D02*
X5160539Y-8517436D01*
X5160539Y-8517436D02*
X5151015Y-8507912D01*
D10*
X-5000Y-8909000D02*
G75*
G02*
X-40000Y-8909000I-17500J0D01*
G01*
X-40000Y-8909000D02*
G75*
G02*
X-5000Y-8909000I17500J0D01*
G01*
D11*
X293872Y-8800484D02*
X312920Y-8800484D01*
X312920Y-8800484D02*
X331967Y-8810008D01*
X331967Y-8810008D02*
X341491Y-8819531D01*
X341491Y-8819531D02*
X351015Y-8838579D01*
X351015Y-8838579D02*
X360539Y-8876674D01*
X360539Y-8876674D02*
X360539Y-8924293D01*
X360539Y-8924293D02*
X351015Y-8962389D01*
X351015Y-8962389D02*
X341491Y-8981436D01*
X341491Y-8981436D02*
X331967Y-8990960D01*
X331967Y-8990960D02*
X312920Y-9000484D01*
X312920Y-9000484D02*
X293872Y-9000484D01*
X293872Y-9000484D02*
X274824Y-8990960D01*
X274824Y-8990960D02*
X265301Y-8981436D01*
X265301Y-8981436D02*
X255777Y-8962389D01*
X255777Y-8962389D02*
X246253Y-8924293D01*
X246253Y-8924293D02*
X246253Y-8876674D01*
X246253Y-8876674D02*
X255777Y-8838579D01*
X255777Y-8838579D02*
X265301Y-8819531D01*
X265301Y-8819531D02*
X274824Y-8810008D01*
X274824Y-8810008D02*
X293872Y-8800484D01*
X446253Y-8981436D02*
X455777Y-8990960D01*
X455777Y-8990960D02*
X446253Y-9000484D01*
X446253Y-9000484D02*
X436729Y-8990960D01*
X436729Y-8990960D02*
X446253Y-8981436D01*
X446253Y-8981436D02*
X446253Y-9000484D01*
X522443Y-8800484D02*
X646253Y-8800484D01*
X646253Y-8800484D02*
X579586Y-8876674D01*
X579586Y-8876674D02*
X608158Y-8876674D01*
X608158Y-8876674D02*
X627205Y-8886198D01*
X627205Y-8886198D02*
X636729Y-8895722D01*
X636729Y-8895722D02*
X646253Y-8914770D01*
X646253Y-8914770D02*
X646253Y-8962389D01*
X646253Y-8962389D02*
X636729Y-8981436D01*
X636729Y-8981436D02*
X627205Y-8990960D01*
X627205Y-8990960D02*
X608158Y-9000484D01*
X608158Y-9000484D02*
X551015Y-9000484D01*
X551015Y-9000484D02*
X531967Y-8990960D01*
X531967Y-8990960D02*
X522443Y-8981436D01*
X827205Y-8800484D02*
X731967Y-8800484D01*
X731967Y-8800484D02*
X722443Y-8895722D01*
X722443Y-8895722D02*
X731967Y-8886198D01*
X731967Y-8886198D02*
X751015Y-8876674D01*
X751015Y-8876674D02*
X798634Y-8876674D01*
X798634Y-8876674D02*
X817682Y-8886198D01*
X817682Y-8886198D02*
X827205Y-8895722D01*
X827205Y-8895722D02*
X836729Y-8914770D01*
X836729Y-8914770D02*
X836729Y-8962389D01*
X836729Y-8962389D02*
X827205Y-8981436D01*
X827205Y-8981436D02*
X817682Y-8990960D01*
X817682Y-8990960D02*
X798634Y-9000484D01*
X798634Y-9000484D02*
X751015Y-9000484D01*
X751015Y-9000484D02*
X731967Y-8990960D01*
X731967Y-8990960D02*
X722443Y-8981436D01*
X960539Y-8800484D02*
X979586Y-8800484D01*
X979586Y-8800484D02*
X998634Y-8810008D01*
X998634Y-8810008D02*
X1008158Y-8819531D01*
X1008158Y-8819531D02*
X1017682Y-8838579D01*
X1017682Y-8838579D02*
X1027205Y-8876674D01*
X1027205Y-8876674D02*
X1027205Y-8924293D01*
X1027205Y-8924293D02*
X1017682Y-8962389D01*
X1017682Y-8962389D02*
X1008158Y-8981436D01*
X1008158Y-8981436D02*
X998634Y-8990960D01*
X998634Y-8990960D02*
X979586Y-9000484D01*
X979586Y-9000484D02*
X960539Y-9000484D01*
X960539Y-9000484D02*
X941491Y-8990960D01*
X941491Y-8990960D02*
X931967Y-8981436D01*
X931967Y-8981436D02*
X922443Y-8962389D01*
X922443Y-8962389D02*
X912920Y-8924293D01*
X912920Y-8924293D02*
X912920Y-8876674D01*
X912920Y-8876674D02*
X922443Y-8838579D01*
X922443Y-8838579D02*
X931967Y-8819531D01*
X931967Y-8819531D02*
X941491Y-8810008D01*
X941491Y-8810008D02*
X960539Y-8800484D01*
X1112920Y-9000484D02*
X1112920Y-8867150D01*
X1112920Y-8886198D02*
X1122444Y-8876674D01*
X1122444Y-8876674D02*
X1141491Y-8867150D01*
X1141491Y-8867150D02*
X1170063Y-8867150D01*
X1170063Y-8867150D02*
X1189110Y-8876674D01*
X1189110Y-8876674D02*
X1198634Y-8895722D01*
X1198634Y-8895722D02*
X1198634Y-9000484D01*
X1198634Y-8895722D02*
X1208158Y-8876674D01*
X1208158Y-8876674D02*
X1227205Y-8867150D01*
X1227205Y-8867150D02*
X1255777Y-8867150D01*
X1255777Y-8867150D02*
X1274825Y-8876674D01*
X1274825Y-8876674D02*
X1284348Y-8895722D01*
X1284348Y-8895722D02*
X1284348Y-9000484D01*
X1379586Y-9000484D02*
X1379586Y-8867150D01*
X1379586Y-8886198D02*
X1389110Y-8876674D01*
X1389110Y-8876674D02*
X1408158Y-8867150D01*
X1408158Y-8867150D02*
X1436729Y-8867150D01*
X1436729Y-8867150D02*
X1455777Y-8876674D01*
X1455777Y-8876674D02*
X1465301Y-8895722D01*
X1465301Y-8895722D02*
X1465301Y-9000484D01*
X1465301Y-8895722D02*
X1474824Y-8876674D01*
X1474824Y-8876674D02*
X1493872Y-8867150D01*
X1493872Y-8867150D02*
X1522443Y-8867150D01*
X1522443Y-8867150D02*
X1541491Y-8876674D01*
X1541491Y-8876674D02*
X1551015Y-8895722D01*
X1551015Y-8895722D02*
X1551015Y-9000484D01*
X1941491Y-8790960D02*
X1770063Y-9048103D01*
X2198634Y-8800484D02*
X2217682Y-8800484D01*
X2217682Y-8800484D02*
X2236729Y-8810008D01*
X2236729Y-8810008D02*
X2246253Y-8819531D01*
X2246253Y-8819531D02*
X2255777Y-8838579D01*
X2255777Y-8838579D02*
X2265301Y-8876674D01*
X2265301Y-8876674D02*
X2265301Y-8924293D01*
X2265301Y-8924293D02*
X2255777Y-8962389D01*
X2255777Y-8962389D02*
X2246253Y-8981436D01*
X2246253Y-8981436D02*
X2236729Y-8990960D01*
X2236729Y-8990960D02*
X2217682Y-9000484D01*
X2217682Y-9000484D02*
X2198634Y-9000484D01*
X2198634Y-9000484D02*
X2179587Y-8990960D01*
X2179587Y-8990960D02*
X2170063Y-8981436D01*
X2170063Y-8981436D02*
X2160539Y-8962389D01*
X2160539Y-8962389D02*
X2151015Y-8924293D01*
X2151015Y-8924293D02*
X2151015Y-8876674D01*
X2151015Y-8876674D02*
X2160539Y-8838579D01*
X2160539Y-8838579D02*
X2170063Y-8819531D01*
X2170063Y-8819531D02*
X2179587Y-8810008D01*
X2179587Y-8810008D02*
X2198634Y-8800484D01*
X2351015Y-8981436D02*
X2360539Y-8990960D01*
X2360539Y-8990960D02*
X2351015Y-9000484D01*
X2351015Y-9000484D02*
X2341491Y-8990960D01*
X2341491Y-8990960D02*
X2351015Y-8981436D01*
X2351015Y-8981436D02*
X2351015Y-9000484D01*
X2484348Y-8800484D02*
X2503396Y-8800484D01*
X2503396Y-8800484D02*
X2522444Y-8810008D01*
X2522444Y-8810008D02*
X2531968Y-8819531D01*
X2531968Y-8819531D02*
X2541491Y-8838579D01*
X2541491Y-8838579D02*
X2551015Y-8876674D01*
X2551015Y-8876674D02*
X2551015Y-8924293D01*
X2551015Y-8924293D02*
X2541491Y-8962389D01*
X2541491Y-8962389D02*
X2531968Y-8981436D01*
X2531968Y-8981436D02*
X2522444Y-8990960D01*
X2522444Y-8990960D02*
X2503396Y-9000484D01*
X2503396Y-9000484D02*
X2484348Y-9000484D01*
X2484348Y-9000484D02*
X2465301Y-8990960D01*
X2465301Y-8990960D02*
X2455777Y-8981436D01*
X2455777Y-8981436D02*
X2446253Y-8962389D01*
X2446253Y-8962389D02*
X2436729Y-8924293D01*
X2436729Y-8924293D02*
X2436729Y-8876674D01*
X2436729Y-8876674D02*
X2446253Y-8838579D01*
X2446253Y-8838579D02*
X2455777Y-8819531D01*
X2455777Y-8819531D02*
X2465301Y-8810008D01*
X2465301Y-8810008D02*
X2484348Y-8800484D01*
X2741491Y-9000484D02*
X2627206Y-9000484D01*
X2684348Y-9000484D02*
X2684348Y-8800484D01*
X2684348Y-8800484D02*
X2665301Y-8829055D01*
X2665301Y-8829055D02*
X2646253Y-8848103D01*
X2646253Y-8848103D02*
X2627206Y-8857627D01*
X2808158Y-8800484D02*
X2931967Y-8800484D01*
X2931967Y-8800484D02*
X2865301Y-8876674D01*
X2865301Y-8876674D02*
X2893872Y-8876674D01*
X2893872Y-8876674D02*
X2912920Y-8886198D01*
X2912920Y-8886198D02*
X2922444Y-8895722D01*
X2922444Y-8895722D02*
X2931967Y-8914770D01*
X2931967Y-8914770D02*
X2931967Y-8962389D01*
X2931967Y-8962389D02*
X2922444Y-8981436D01*
X2922444Y-8981436D02*
X2912920Y-8990960D01*
X2912920Y-8990960D02*
X2893872Y-9000484D01*
X2893872Y-9000484D02*
X2836729Y-9000484D01*
X2836729Y-9000484D02*
X2817682Y-8990960D01*
X2817682Y-8990960D02*
X2808158Y-8981436D01*
X3046253Y-8886198D02*
X3027206Y-8876674D01*
X3027206Y-8876674D02*
X3017682Y-8867150D01*
X3017682Y-8867150D02*
X3008158Y-8848103D01*
X3008158Y-8848103D02*
X3008158Y-8838579D01*
X3008158Y-8838579D02*
X3017682Y-8819531D01*
X3017682Y-8819531D02*
X3027206Y-8810008D01*
X3027206Y-8810008D02*
X3046253Y-8800484D01*
X3046253Y-8800484D02*
X3084348Y-8800484D01*
X3084348Y-8800484D02*
X3103396Y-8810008D01*
X3103396Y-8810008D02*
X3112920Y-8819531D01*
X3112920Y-8819531D02*
X3122444Y-8838579D01*
X3122444Y-8838579D02*
X3122444Y-8848103D01*
X3122444Y-8848103D02*
X3112920Y-8867150D01*
X3112920Y-8867150D02*
X3103396Y-8876674D01*
X3103396Y-8876674D02*
X3084348Y-8886198D01*
X3084348Y-8886198D02*
X3046253Y-8886198D01*
X3046253Y-8886198D02*
X3027206Y-8895722D01*
X3027206Y-8895722D02*
X3017682Y-8905246D01*
X3017682Y-8905246D02*
X3008158Y-8924293D01*
X3008158Y-8924293D02*
X3008158Y-8962389D01*
X3008158Y-8962389D02*
X3017682Y-8981436D01*
X3017682Y-8981436D02*
X3027206Y-8990960D01*
X3027206Y-8990960D02*
X3046253Y-9000484D01*
X3046253Y-9000484D02*
X3084348Y-9000484D01*
X3084348Y-9000484D02*
X3103396Y-8990960D01*
X3103396Y-8990960D02*
X3112920Y-8981436D01*
X3112920Y-8981436D02*
X3122444Y-8962389D01*
X3122444Y-8962389D02*
X3122444Y-8924293D01*
X3122444Y-8924293D02*
X3112920Y-8905246D01*
X3112920Y-8905246D02*
X3103396Y-8895722D01*
X3103396Y-8895722D02*
X3084348Y-8886198D01*
X3198634Y-8800484D02*
X3198634Y-8838579D01*
X3274825Y-8800484D02*
X3274825Y-8838579D01*
X3570063Y-9076674D02*
X3560539Y-9067150D01*
X3560539Y-9067150D02*
X3541491Y-9038579D01*
X3541491Y-9038579D02*
X3531968Y-9019531D01*
X3531968Y-9019531D02*
X3522444Y-8990960D01*
X3522444Y-8990960D02*
X3512920Y-8943341D01*
X3512920Y-8943341D02*
X3512920Y-8905246D01*
X3512920Y-8905246D02*
X3522444Y-8857627D01*
X3522444Y-8857627D02*
X3531968Y-8829055D01*
X3531968Y-8829055D02*
X3541491Y-8810008D01*
X3541491Y-8810008D02*
X3560539Y-8781436D01*
X3560539Y-8781436D02*
X3570063Y-8771912D01*
X3751015Y-9000484D02*
X3636729Y-9000484D01*
X3693872Y-9000484D02*
X3693872Y-8800484D01*
X3693872Y-8800484D02*
X3674825Y-8829055D01*
X3674825Y-8829055D02*
X3655777Y-8848103D01*
X3655777Y-8848103D02*
X3636729Y-8857627D01*
X3865301Y-8886198D02*
X3846253Y-8876674D01*
X3846253Y-8876674D02*
X3836729Y-8867150D01*
X3836729Y-8867150D02*
X3827206Y-8848103D01*
X3827206Y-8848103D02*
X3827206Y-8838579D01*
X3827206Y-8838579D02*
X3836729Y-8819531D01*
X3836729Y-8819531D02*
X3846253Y-8810008D01*
X3846253Y-8810008D02*
X3865301Y-8800484D01*
X3865301Y-8800484D02*
X3903396Y-8800484D01*
X3903396Y-8800484D02*
X3922444Y-8810008D01*
X3922444Y-8810008D02*
X3931968Y-8819531D01*
X3931968Y-8819531D02*
X3941491Y-8838579D01*
X3941491Y-8838579D02*
X3941491Y-8848103D01*
X3941491Y-8848103D02*
X3931968Y-8867150D01*
X3931968Y-8867150D02*
X3922444Y-8876674D01*
X3922444Y-8876674D02*
X3903396Y-8886198D01*
X3903396Y-8886198D02*
X3865301Y-8886198D01*
X3865301Y-8886198D02*
X3846253Y-8895722D01*
X3846253Y-8895722D02*
X3836729Y-8905246D01*
X3836729Y-8905246D02*
X3827206Y-8924293D01*
X3827206Y-8924293D02*
X3827206Y-8962389D01*
X3827206Y-8962389D02*
X3836729Y-8981436D01*
X3836729Y-8981436D02*
X3846253Y-8990960D01*
X3846253Y-8990960D02*
X3865301Y-9000484D01*
X3865301Y-9000484D02*
X3903396Y-9000484D01*
X3903396Y-9000484D02*
X3922444Y-8990960D01*
X3922444Y-8990960D02*
X3931968Y-8981436D01*
X3931968Y-8981436D02*
X3941491Y-8962389D01*
X3941491Y-8962389D02*
X3941491Y-8924293D01*
X3941491Y-8924293D02*
X3931968Y-8905246D01*
X3931968Y-8905246D02*
X3922444Y-8895722D01*
X3922444Y-8895722D02*
X3903396Y-8886198D01*
X4112920Y-8867150D02*
X4112920Y-9000484D01*
X4065301Y-8790960D02*
X4017682Y-8933817D01*
X4017682Y-8933817D02*
X4141491Y-8933817D01*
X4370063Y-9000484D02*
X4370063Y-8800484D01*
X4455777Y-9000484D02*
X4455777Y-8895722D01*
X4455777Y-8895722D02*
X4446253Y-8876674D01*
X4446253Y-8876674D02*
X4427206Y-8867150D01*
X4427206Y-8867150D02*
X4398634Y-8867150D01*
X4398634Y-8867150D02*
X4379587Y-8876674D01*
X4379587Y-8876674D02*
X4370063Y-8886198D01*
X4579587Y-9000484D02*
X4560539Y-8990960D01*
X4560539Y-8990960D02*
X4551015Y-8981436D01*
X4551015Y-8981436D02*
X4541492Y-8962389D01*
X4541492Y-8962389D02*
X4541492Y-8905246D01*
X4541492Y-8905246D02*
X4551015Y-8886198D01*
X4551015Y-8886198D02*
X4560539Y-8876674D01*
X4560539Y-8876674D02*
X4579587Y-8867150D01*
X4579587Y-8867150D02*
X4608158Y-8867150D01*
X4608158Y-8867150D02*
X4627206Y-8876674D01*
X4627206Y-8876674D02*
X4636730Y-8886198D01*
X4636730Y-8886198D02*
X4646253Y-8905246D01*
X4646253Y-8905246D02*
X4646253Y-8962389D01*
X4646253Y-8962389D02*
X4636730Y-8981436D01*
X4636730Y-8981436D02*
X4627206Y-8990960D01*
X4627206Y-8990960D02*
X4608158Y-9000484D01*
X4608158Y-9000484D02*
X4579587Y-9000484D01*
X4760539Y-9000484D02*
X4741492Y-8990960D01*
X4741492Y-8990960D02*
X4731968Y-8971912D01*
X4731968Y-8971912D02*
X4731968Y-8800484D01*
X4912920Y-8990960D02*
X4893873Y-9000484D01*
X4893873Y-9000484D02*
X4855777Y-9000484D01*
X4855777Y-9000484D02*
X4836730Y-8990960D01*
X4836730Y-8990960D02*
X4827206Y-8971912D01*
X4827206Y-8971912D02*
X4827206Y-8895722D01*
X4827206Y-8895722D02*
X4836730Y-8876674D01*
X4836730Y-8876674D02*
X4855777Y-8867150D01*
X4855777Y-8867150D02*
X4893873Y-8867150D01*
X4893873Y-8867150D02*
X4912920Y-8876674D01*
X4912920Y-8876674D02*
X4922444Y-8895722D01*
X4922444Y-8895722D02*
X4922444Y-8914770D01*
X4922444Y-8914770D02*
X4827206Y-8933817D01*
X4998634Y-8990960D02*
X5017682Y-9000484D01*
X5017682Y-9000484D02*
X5055777Y-9000484D01*
X5055777Y-9000484D02*
X5074825Y-8990960D01*
X5074825Y-8990960D02*
X5084349Y-8971912D01*
X5084349Y-8971912D02*
X5084349Y-8962389D01*
X5084349Y-8962389D02*
X5074825Y-8943341D01*
X5074825Y-8943341D02*
X5055777Y-8933817D01*
X5055777Y-8933817D02*
X5027206Y-8933817D01*
X5027206Y-8933817D02*
X5008158Y-8924293D01*
X5008158Y-8924293D02*
X4998634Y-8905246D01*
X4998634Y-8905246D02*
X4998634Y-8895722D01*
X4998634Y-8895722D02*
X5008158Y-8876674D01*
X5008158Y-8876674D02*
X5027206Y-8867150D01*
X5027206Y-8867150D02*
X5055777Y-8867150D01*
X5055777Y-8867150D02*
X5074825Y-8876674D01*
X5151015Y-9076674D02*
X5160539Y-9067150D01*
X5160539Y-9067150D02*
X5179587Y-9038579D01*
X5179587Y-9038579D02*
X5189111Y-9019531D01*
X5189111Y-9019531D02*
X5198634Y-8990960D01*
X5198634Y-8990960D02*
X5208158Y-8943341D01*
X5208158Y-8943341D02*
X5208158Y-8905246D01*
X5208158Y-8905246D02*
X5198634Y-8857627D01*
X5198634Y-8857627D02*
X5189111Y-8829055D01*
X5189111Y-8829055D02*
X5179587Y-8810008D01*
X5179587Y-8810008D02*
X5160539Y-8781436D01*
X5160539Y-8781436D02*
X5151015Y-8771912D01*
D10*
X-35000Y-9143000D02*
X-35000Y-9203000D01*
X-65000Y-9173000D02*
X-5000Y-9173000D01*
D11*
X293872Y-9064484D02*
X312920Y-9064484D01*
X312920Y-9064484D02*
X331967Y-9074008D01*
X331967Y-9074008D02*
X341491Y-9083531D01*
X341491Y-9083531D02*
X351015Y-9102579D01*
X351015Y-9102579D02*
X360539Y-9140674D01*
X360539Y-9140674D02*
X360539Y-9188293D01*
X360539Y-9188293D02*
X351015Y-9226389D01*
X351015Y-9226389D02*
X341491Y-9245436D01*
X341491Y-9245436D02*
X331967Y-9254960D01*
X331967Y-9254960D02*
X312920Y-9264484D01*
X312920Y-9264484D02*
X293872Y-9264484D01*
X293872Y-9264484D02*
X274824Y-9254960D01*
X274824Y-9254960D02*
X265301Y-9245436D01*
X265301Y-9245436D02*
X255777Y-9226389D01*
X255777Y-9226389D02*
X246253Y-9188293D01*
X246253Y-9188293D02*
X246253Y-9140674D01*
X246253Y-9140674D02*
X255777Y-9102579D01*
X255777Y-9102579D02*
X265301Y-9083531D01*
X265301Y-9083531D02*
X274824Y-9074008D01*
X274824Y-9074008D02*
X293872Y-9064484D01*
X446253Y-9245436D02*
X455777Y-9254960D01*
X455777Y-9254960D02*
X446253Y-9264484D01*
X446253Y-9264484D02*
X436729Y-9254960D01*
X436729Y-9254960D02*
X446253Y-9245436D01*
X446253Y-9245436D02*
X446253Y-9264484D01*
X627205Y-9064484D02*
X589110Y-9064484D01*
X589110Y-9064484D02*
X570063Y-9074008D01*
X570063Y-9074008D02*
X560539Y-9083531D01*
X560539Y-9083531D02*
X541491Y-9112103D01*
X541491Y-9112103D02*
X531967Y-9150198D01*
X531967Y-9150198D02*
X531967Y-9226389D01*
X531967Y-9226389D02*
X541491Y-9245436D01*
X541491Y-9245436D02*
X551015Y-9254960D01*
X551015Y-9254960D02*
X570063Y-9264484D01*
X570063Y-9264484D02*
X608158Y-9264484D01*
X608158Y-9264484D02*
X627205Y-9254960D01*
X627205Y-9254960D02*
X636729Y-9245436D01*
X636729Y-9245436D02*
X646253Y-9226389D01*
X646253Y-9226389D02*
X646253Y-9178770D01*
X646253Y-9178770D02*
X636729Y-9159722D01*
X636729Y-9159722D02*
X627205Y-9150198D01*
X627205Y-9150198D02*
X608158Y-9140674D01*
X608158Y-9140674D02*
X570063Y-9140674D01*
X570063Y-9140674D02*
X551015Y-9150198D01*
X551015Y-9150198D02*
X541491Y-9159722D01*
X541491Y-9159722D02*
X531967Y-9178770D01*
X770062Y-9064484D02*
X789110Y-9064484D01*
X789110Y-9064484D02*
X808158Y-9074008D01*
X808158Y-9074008D02*
X817682Y-9083531D01*
X817682Y-9083531D02*
X827205Y-9102579D01*
X827205Y-9102579D02*
X836729Y-9140674D01*
X836729Y-9140674D02*
X836729Y-9188293D01*
X836729Y-9188293D02*
X827205Y-9226389D01*
X827205Y-9226389D02*
X817682Y-9245436D01*
X817682Y-9245436D02*
X808158Y-9254960D01*
X808158Y-9254960D02*
X789110Y-9264484D01*
X789110Y-9264484D02*
X770062Y-9264484D01*
X770062Y-9264484D02*
X751015Y-9254960D01*
X751015Y-9254960D02*
X741491Y-9245436D01*
X741491Y-9245436D02*
X731967Y-9226389D01*
X731967Y-9226389D02*
X722443Y-9188293D01*
X722443Y-9188293D02*
X722443Y-9140674D01*
X722443Y-9140674D02*
X731967Y-9102579D01*
X731967Y-9102579D02*
X741491Y-9083531D01*
X741491Y-9083531D02*
X751015Y-9074008D01*
X751015Y-9074008D02*
X770062Y-9064484D01*
X960539Y-9064484D02*
X979586Y-9064484D01*
X979586Y-9064484D02*
X998634Y-9074008D01*
X998634Y-9074008D02*
X1008158Y-9083531D01*
X1008158Y-9083531D02*
X1017682Y-9102579D01*
X1017682Y-9102579D02*
X1027205Y-9140674D01*
X1027205Y-9140674D02*
X1027205Y-9188293D01*
X1027205Y-9188293D02*
X1017682Y-9226389D01*
X1017682Y-9226389D02*
X1008158Y-9245436D01*
X1008158Y-9245436D02*
X998634Y-9254960D01*
X998634Y-9254960D02*
X979586Y-9264484D01*
X979586Y-9264484D02*
X960539Y-9264484D01*
X960539Y-9264484D02*
X941491Y-9254960D01*
X941491Y-9254960D02*
X931967Y-9245436D01*
X931967Y-9245436D02*
X922443Y-9226389D01*
X922443Y-9226389D02*
X912920Y-9188293D01*
X912920Y-9188293D02*
X912920Y-9140674D01*
X912920Y-9140674D02*
X922443Y-9102579D01*
X922443Y-9102579D02*
X931967Y-9083531D01*
X931967Y-9083531D02*
X941491Y-9074008D01*
X941491Y-9074008D02*
X960539Y-9064484D01*
X1112920Y-9264484D02*
X1112920Y-9131150D01*
X1112920Y-9150198D02*
X1122444Y-9140674D01*
X1122444Y-9140674D02*
X1141491Y-9131150D01*
X1141491Y-9131150D02*
X1170063Y-9131150D01*
X1170063Y-9131150D02*
X1189110Y-9140674D01*
X1189110Y-9140674D02*
X1198634Y-9159722D01*
X1198634Y-9159722D02*
X1198634Y-9264484D01*
X1198634Y-9159722D02*
X1208158Y-9140674D01*
X1208158Y-9140674D02*
X1227205Y-9131150D01*
X1227205Y-9131150D02*
X1255777Y-9131150D01*
X1255777Y-9131150D02*
X1274825Y-9140674D01*
X1274825Y-9140674D02*
X1284348Y-9159722D01*
X1284348Y-9159722D02*
X1284348Y-9264484D01*
X1379586Y-9264484D02*
X1379586Y-9131150D01*
X1379586Y-9150198D02*
X1389110Y-9140674D01*
X1389110Y-9140674D02*
X1408158Y-9131150D01*
X1408158Y-9131150D02*
X1436729Y-9131150D01*
X1436729Y-9131150D02*
X1455777Y-9140674D01*
X1455777Y-9140674D02*
X1465301Y-9159722D01*
X1465301Y-9159722D02*
X1465301Y-9264484D01*
X1465301Y-9159722D02*
X1474824Y-9140674D01*
X1474824Y-9140674D02*
X1493872Y-9131150D01*
X1493872Y-9131150D02*
X1522443Y-9131150D01*
X1522443Y-9131150D02*
X1541491Y-9140674D01*
X1541491Y-9140674D02*
X1551015Y-9159722D01*
X1551015Y-9159722D02*
X1551015Y-9264484D01*
X1941491Y-9054960D02*
X1770063Y-9312103D01*
X2198634Y-9064484D02*
X2217682Y-9064484D01*
X2217682Y-9064484D02*
X2236729Y-9074008D01*
X2236729Y-9074008D02*
X2246253Y-9083531D01*
X2246253Y-9083531D02*
X2255777Y-9102579D01*
X2255777Y-9102579D02*
X2265301Y-9140674D01*
X2265301Y-9140674D02*
X2265301Y-9188293D01*
X2265301Y-9188293D02*
X2255777Y-9226389D01*
X2255777Y-9226389D02*
X2246253Y-9245436D01*
X2246253Y-9245436D02*
X2236729Y-9254960D01*
X2236729Y-9254960D02*
X2217682Y-9264484D01*
X2217682Y-9264484D02*
X2198634Y-9264484D01*
X2198634Y-9264484D02*
X2179587Y-9254960D01*
X2179587Y-9254960D02*
X2170063Y-9245436D01*
X2170063Y-9245436D02*
X2160539Y-9226389D01*
X2160539Y-9226389D02*
X2151015Y-9188293D01*
X2151015Y-9188293D02*
X2151015Y-9140674D01*
X2151015Y-9140674D02*
X2160539Y-9102579D01*
X2160539Y-9102579D02*
X2170063Y-9083531D01*
X2170063Y-9083531D02*
X2179587Y-9074008D01*
X2179587Y-9074008D02*
X2198634Y-9064484D01*
X2351015Y-9245436D02*
X2360539Y-9254960D01*
X2360539Y-9254960D02*
X2351015Y-9264484D01*
X2351015Y-9264484D02*
X2341491Y-9254960D01*
X2341491Y-9254960D02*
X2351015Y-9245436D01*
X2351015Y-9245436D02*
X2351015Y-9264484D01*
X2484348Y-9064484D02*
X2503396Y-9064484D01*
X2503396Y-9064484D02*
X2522444Y-9074008D01*
X2522444Y-9074008D02*
X2531968Y-9083531D01*
X2531968Y-9083531D02*
X2541491Y-9102579D01*
X2541491Y-9102579D02*
X2551015Y-9140674D01*
X2551015Y-9140674D02*
X2551015Y-9188293D01*
X2551015Y-9188293D02*
X2541491Y-9226389D01*
X2541491Y-9226389D02*
X2531968Y-9245436D01*
X2531968Y-9245436D02*
X2522444Y-9254960D01*
X2522444Y-9254960D02*
X2503396Y-9264484D01*
X2503396Y-9264484D02*
X2484348Y-9264484D01*
X2484348Y-9264484D02*
X2465301Y-9254960D01*
X2465301Y-9254960D02*
X2455777Y-9245436D01*
X2455777Y-9245436D02*
X2446253Y-9226389D01*
X2446253Y-9226389D02*
X2436729Y-9188293D01*
X2436729Y-9188293D02*
X2436729Y-9140674D01*
X2436729Y-9140674D02*
X2446253Y-9102579D01*
X2446253Y-9102579D02*
X2455777Y-9083531D01*
X2455777Y-9083531D02*
X2465301Y-9074008D01*
X2465301Y-9074008D02*
X2484348Y-9064484D01*
X2627206Y-9083531D02*
X2636729Y-9074008D01*
X2636729Y-9074008D02*
X2655777Y-9064484D01*
X2655777Y-9064484D02*
X2703396Y-9064484D01*
X2703396Y-9064484D02*
X2722444Y-9074008D01*
X2722444Y-9074008D02*
X2731968Y-9083531D01*
X2731968Y-9083531D02*
X2741491Y-9102579D01*
X2741491Y-9102579D02*
X2741491Y-9121627D01*
X2741491Y-9121627D02*
X2731968Y-9150198D01*
X2731968Y-9150198D02*
X2617682Y-9264484D01*
X2617682Y-9264484D02*
X2741491Y-9264484D01*
X2808158Y-9064484D02*
X2931967Y-9064484D01*
X2931967Y-9064484D02*
X2865301Y-9140674D01*
X2865301Y-9140674D02*
X2893872Y-9140674D01*
X2893872Y-9140674D02*
X2912920Y-9150198D01*
X2912920Y-9150198D02*
X2922444Y-9159722D01*
X2922444Y-9159722D02*
X2931967Y-9178770D01*
X2931967Y-9178770D02*
X2931967Y-9226389D01*
X2931967Y-9226389D02*
X2922444Y-9245436D01*
X2922444Y-9245436D02*
X2912920Y-9254960D01*
X2912920Y-9254960D02*
X2893872Y-9264484D01*
X2893872Y-9264484D02*
X2836729Y-9264484D01*
X2836729Y-9264484D02*
X2817682Y-9254960D01*
X2817682Y-9254960D02*
X2808158Y-9245436D01*
X3103396Y-9064484D02*
X3065301Y-9064484D01*
X3065301Y-9064484D02*
X3046253Y-9074008D01*
X3046253Y-9074008D02*
X3036729Y-9083531D01*
X3036729Y-9083531D02*
X3017682Y-9112103D01*
X3017682Y-9112103D02*
X3008158Y-9150198D01*
X3008158Y-9150198D02*
X3008158Y-9226389D01*
X3008158Y-9226389D02*
X3017682Y-9245436D01*
X3017682Y-9245436D02*
X3027206Y-9254960D01*
X3027206Y-9254960D02*
X3046253Y-9264484D01*
X3046253Y-9264484D02*
X3084348Y-9264484D01*
X3084348Y-9264484D02*
X3103396Y-9254960D01*
X3103396Y-9254960D02*
X3112920Y-9245436D01*
X3112920Y-9245436D02*
X3122444Y-9226389D01*
X3122444Y-9226389D02*
X3122444Y-9178770D01*
X3122444Y-9178770D02*
X3112920Y-9159722D01*
X3112920Y-9159722D02*
X3103396Y-9150198D01*
X3103396Y-9150198D02*
X3084348Y-9140674D01*
X3084348Y-9140674D02*
X3046253Y-9140674D01*
X3046253Y-9140674D02*
X3027206Y-9150198D01*
X3027206Y-9150198D02*
X3017682Y-9159722D01*
X3017682Y-9159722D02*
X3008158Y-9178770D01*
X3198634Y-9064484D02*
X3198634Y-9102579D01*
X3274825Y-9064484D02*
X3274825Y-9102579D01*
X3570063Y-9340674D02*
X3560539Y-9331150D01*
X3560539Y-9331150D02*
X3541491Y-9302579D01*
X3541491Y-9302579D02*
X3531968Y-9283531D01*
X3531968Y-9283531D02*
X3522444Y-9254960D01*
X3522444Y-9254960D02*
X3512920Y-9207341D01*
X3512920Y-9207341D02*
X3512920Y-9169246D01*
X3512920Y-9169246D02*
X3522444Y-9121627D01*
X3522444Y-9121627D02*
X3531968Y-9093055D01*
X3531968Y-9093055D02*
X3541491Y-9074008D01*
X3541491Y-9074008D02*
X3560539Y-9045436D01*
X3560539Y-9045436D02*
X3570063Y-9035912D01*
X3684348Y-9064484D02*
X3703396Y-9064484D01*
X3703396Y-9064484D02*
X3722444Y-9074008D01*
X3722444Y-9074008D02*
X3731968Y-9083531D01*
X3731968Y-9083531D02*
X3741491Y-9102579D01*
X3741491Y-9102579D02*
X3751015Y-9140674D01*
X3751015Y-9140674D02*
X3751015Y-9188293D01*
X3751015Y-9188293D02*
X3741491Y-9226389D01*
X3741491Y-9226389D02*
X3731968Y-9245436D01*
X3731968Y-9245436D02*
X3722444Y-9254960D01*
X3722444Y-9254960D02*
X3703396Y-9264484D01*
X3703396Y-9264484D02*
X3684348Y-9264484D01*
X3684348Y-9264484D02*
X3665301Y-9254960D01*
X3665301Y-9254960D02*
X3655777Y-9245436D01*
X3655777Y-9245436D02*
X3646253Y-9226389D01*
X3646253Y-9226389D02*
X3636729Y-9188293D01*
X3636729Y-9188293D02*
X3636729Y-9140674D01*
X3636729Y-9140674D02*
X3646253Y-9102579D01*
X3646253Y-9102579D02*
X3655777Y-9083531D01*
X3655777Y-9083531D02*
X3665301Y-9074008D01*
X3665301Y-9074008D02*
X3684348Y-9064484D01*
X3989110Y-9264484D02*
X3989110Y-9064484D01*
X4074825Y-9264484D02*
X4074825Y-9159722D01*
X4074825Y-9159722D02*
X4065301Y-9140674D01*
X4065301Y-9140674D02*
X4046253Y-9131150D01*
X4046253Y-9131150D02*
X4017682Y-9131150D01*
X4017682Y-9131150D02*
X3998634Y-9140674D01*
X3998634Y-9140674D02*
X3989110Y-9150198D01*
X4198634Y-9264484D02*
X4179587Y-9254960D01*
X4179587Y-9254960D02*
X4170063Y-9245436D01*
X4170063Y-9245436D02*
X4160539Y-9226389D01*
X4160539Y-9226389D02*
X4160539Y-9169246D01*
X4160539Y-9169246D02*
X4170063Y-9150198D01*
X4170063Y-9150198D02*
X4179587Y-9140674D01*
X4179587Y-9140674D02*
X4198634Y-9131150D01*
X4198634Y-9131150D02*
X4227206Y-9131150D01*
X4227206Y-9131150D02*
X4246253Y-9140674D01*
X4246253Y-9140674D02*
X4255777Y-9150198D01*
X4255777Y-9150198D02*
X4265301Y-9169246D01*
X4265301Y-9169246D02*
X4265301Y-9226389D01*
X4265301Y-9226389D02*
X4255777Y-9245436D01*
X4255777Y-9245436D02*
X4246253Y-9254960D01*
X4246253Y-9254960D02*
X4227206Y-9264484D01*
X4227206Y-9264484D02*
X4198634Y-9264484D01*
X4379587Y-9264484D02*
X4360539Y-9254960D01*
X4360539Y-9254960D02*
X4351015Y-9235912D01*
X4351015Y-9235912D02*
X4351015Y-9064484D01*
X4531968Y-9254960D02*
X4512920Y-9264484D01*
X4512920Y-9264484D02*
X4474825Y-9264484D01*
X4474825Y-9264484D02*
X4455777Y-9254960D01*
X4455777Y-9254960D02*
X4446253Y-9235912D01*
X4446253Y-9235912D02*
X4446253Y-9159722D01*
X4446253Y-9159722D02*
X4455777Y-9140674D01*
X4455777Y-9140674D02*
X4474825Y-9131150D01*
X4474825Y-9131150D02*
X4512920Y-9131150D01*
X4512920Y-9131150D02*
X4531968Y-9140674D01*
X4531968Y-9140674D02*
X4541492Y-9159722D01*
X4541492Y-9159722D02*
X4541492Y-9178770D01*
X4541492Y-9178770D02*
X4446253Y-9197817D01*
X4617682Y-9254960D02*
X4636730Y-9264484D01*
X4636730Y-9264484D02*
X4674825Y-9264484D01*
X4674825Y-9264484D02*
X4693873Y-9254960D01*
X4693873Y-9254960D02*
X4703396Y-9235912D01*
X4703396Y-9235912D02*
X4703396Y-9226389D01*
X4703396Y-9226389D02*
X4693873Y-9207341D01*
X4693873Y-9207341D02*
X4674825Y-9197817D01*
X4674825Y-9197817D02*
X4646253Y-9197817D01*
X4646253Y-9197817D02*
X4627206Y-9188293D01*
X4627206Y-9188293D02*
X4617682Y-9169246D01*
X4617682Y-9169246D02*
X4617682Y-9159722D01*
X4617682Y-9159722D02*
X4627206Y-9140674D01*
X4627206Y-9140674D02*
X4646253Y-9131150D01*
X4646253Y-9131150D02*
X4674825Y-9131150D01*
X4674825Y-9131150D02*
X4693873Y-9140674D01*
X4941492Y-9188293D02*
X5093873Y-9188293D01*
X5017682Y-9264484D02*
X5017682Y-9112103D01*
X5427206Y-9131150D02*
X5427206Y-9264484D01*
X5379587Y-9054960D02*
X5331968Y-9197817D01*
X5331968Y-9197817D02*
X5455777Y-9197817D01*
X5674825Y-9254960D02*
X5693873Y-9264484D01*
X5693873Y-9264484D02*
X5731968Y-9264484D01*
X5731968Y-9264484D02*
X5751015Y-9254960D01*
X5751015Y-9254960D02*
X5760539Y-9235912D01*
X5760539Y-9235912D02*
X5760539Y-9226389D01*
X5760539Y-9226389D02*
X5751015Y-9207341D01*
X5751015Y-9207341D02*
X5731968Y-9197817D01*
X5731968Y-9197817D02*
X5703396Y-9197817D01*
X5703396Y-9197817D02*
X5684349Y-9188293D01*
X5684349Y-9188293D02*
X5674825Y-9169246D01*
X5674825Y-9169246D02*
X5674825Y-9159722D01*
X5674825Y-9159722D02*
X5684349Y-9140674D01*
X5684349Y-9140674D02*
X5703396Y-9131150D01*
X5703396Y-9131150D02*
X5731968Y-9131150D01*
X5731968Y-9131150D02*
X5751015Y-9140674D01*
X5874825Y-9264484D02*
X5855777Y-9254960D01*
X5855777Y-9254960D02*
X5846254Y-9235912D01*
X5846254Y-9235912D02*
X5846254Y-9064484D01*
X5979587Y-9264484D02*
X5960539Y-9254960D01*
X5960539Y-9254960D02*
X5951015Y-9245436D01*
X5951015Y-9245436D02*
X5941492Y-9226389D01*
X5941492Y-9226389D02*
X5941492Y-9169246D01*
X5941492Y-9169246D02*
X5951015Y-9150198D01*
X5951015Y-9150198D02*
X5960539Y-9140674D01*
X5960539Y-9140674D02*
X5979587Y-9131150D01*
X5979587Y-9131150D02*
X6008158Y-9131150D01*
X6008158Y-9131150D02*
X6027206Y-9140674D01*
X6027206Y-9140674D02*
X6036730Y-9150198D01*
X6036730Y-9150198D02*
X6046254Y-9169246D01*
X6046254Y-9169246D02*
X6046254Y-9226389D01*
X6046254Y-9226389D02*
X6036730Y-9245436D01*
X6036730Y-9245436D02*
X6027206Y-9254960D01*
X6027206Y-9254960D02*
X6008158Y-9264484D01*
X6008158Y-9264484D02*
X5979587Y-9264484D01*
X6103396Y-9131150D02*
X6179587Y-9131150D01*
X6131968Y-9064484D02*
X6131968Y-9235912D01*
X6131968Y-9235912D02*
X6141492Y-9254960D01*
X6141492Y-9254960D02*
X6160539Y-9264484D01*
X6160539Y-9264484D02*
X6179587Y-9264484D01*
X6236730Y-9254960D02*
X6255777Y-9264484D01*
X6255777Y-9264484D02*
X6293873Y-9264484D01*
X6293873Y-9264484D02*
X6312920Y-9254960D01*
X6312920Y-9254960D02*
X6322444Y-9235912D01*
X6322444Y-9235912D02*
X6322444Y-9226389D01*
X6322444Y-9226389D02*
X6312920Y-9207341D01*
X6312920Y-9207341D02*
X6293873Y-9197817D01*
X6293873Y-9197817D02*
X6265301Y-9197817D01*
X6265301Y-9197817D02*
X6246254Y-9188293D01*
X6246254Y-9188293D02*
X6236730Y-9169246D01*
X6236730Y-9169246D02*
X6236730Y-9159722D01*
X6236730Y-9159722D02*
X6246254Y-9140674D01*
X6246254Y-9140674D02*
X6265301Y-9131150D01*
X6265301Y-9131150D02*
X6293873Y-9131150D01*
X6293873Y-9131150D02*
X6312920Y-9140674D01*
X6389111Y-9340674D02*
X6398635Y-9331150D01*
X6398635Y-9331150D02*
X6417682Y-9302579D01*
X6417682Y-9302579D02*
X6427206Y-9283531D01*
X6427206Y-9283531D02*
X6436730Y-9254960D01*
X6436730Y-9254960D02*
X6446254Y-9207341D01*
X6446254Y-9207341D02*
X6446254Y-9169246D01*
X6446254Y-9169246D02*
X6436730Y-9121627D01*
X6436730Y-9121627D02*
X6427206Y-9093055D01*
X6427206Y-9093055D02*
X6417682Y-9074008D01*
X6417682Y-9074008D02*
X6398635Y-9045436D01*
X6398635Y-9045436D02*
X6389111Y-9035912D01*
D10*
X-16716Y-9465285D02*
X-16716Y-9408716D01*
X-73285Y-9408716D01*
X-73285Y-9465285D01*
X-16716Y-9465285D01*
D11*
X293872Y-9328484D02*
X312920Y-9328484D01*
X312920Y-9328484D02*
X331967Y-9338008D01*
X331967Y-9338008D02*
X341491Y-9347531D01*
X341491Y-9347531D02*
X351015Y-9366579D01*
X351015Y-9366579D02*
X360539Y-9404674D01*
X360539Y-9404674D02*
X360539Y-9452293D01*
X360539Y-9452293D02*
X351015Y-9490389D01*
X351015Y-9490389D02*
X341491Y-9509436D01*
X341491Y-9509436D02*
X331967Y-9518960D01*
X331967Y-9518960D02*
X312920Y-9528484D01*
X312920Y-9528484D02*
X293872Y-9528484D01*
X293872Y-9528484D02*
X274824Y-9518960D01*
X274824Y-9518960D02*
X265301Y-9509436D01*
X265301Y-9509436D02*
X255777Y-9490389D01*
X255777Y-9490389D02*
X246253Y-9452293D01*
X246253Y-9452293D02*
X246253Y-9404674D01*
X246253Y-9404674D02*
X255777Y-9366579D01*
X255777Y-9366579D02*
X265301Y-9347531D01*
X265301Y-9347531D02*
X274824Y-9338008D01*
X274824Y-9338008D02*
X293872Y-9328484D01*
X446253Y-9509436D02*
X455777Y-9518960D01*
X455777Y-9518960D02*
X446253Y-9528484D01*
X446253Y-9528484D02*
X436729Y-9518960D01*
X436729Y-9518960D02*
X446253Y-9509436D01*
X446253Y-9509436D02*
X446253Y-9528484D01*
X570063Y-9414198D02*
X551015Y-9404674D01*
X551015Y-9404674D02*
X541491Y-9395150D01*
X541491Y-9395150D02*
X531967Y-9376103D01*
X531967Y-9376103D02*
X531967Y-9366579D01*
X531967Y-9366579D02*
X541491Y-9347531D01*
X541491Y-9347531D02*
X551015Y-9338008D01*
X551015Y-9338008D02*
X570063Y-9328484D01*
X570063Y-9328484D02*
X608158Y-9328484D01*
X608158Y-9328484D02*
X627205Y-9338008D01*
X627205Y-9338008D02*
X636729Y-9347531D01*
X636729Y-9347531D02*
X646253Y-9366579D01*
X646253Y-9366579D02*
X646253Y-9376103D01*
X646253Y-9376103D02*
X636729Y-9395150D01*
X636729Y-9395150D02*
X627205Y-9404674D01*
X627205Y-9404674D02*
X608158Y-9414198D01*
X608158Y-9414198D02*
X570063Y-9414198D01*
X570063Y-9414198D02*
X551015Y-9423722D01*
X551015Y-9423722D02*
X541491Y-9433246D01*
X541491Y-9433246D02*
X531967Y-9452293D01*
X531967Y-9452293D02*
X531967Y-9490389D01*
X531967Y-9490389D02*
X541491Y-9509436D01*
X541491Y-9509436D02*
X551015Y-9518960D01*
X551015Y-9518960D02*
X570063Y-9528484D01*
X570063Y-9528484D02*
X608158Y-9528484D01*
X608158Y-9528484D02*
X627205Y-9518960D01*
X627205Y-9518960D02*
X636729Y-9509436D01*
X636729Y-9509436D02*
X646253Y-9490389D01*
X646253Y-9490389D02*
X646253Y-9452293D01*
X646253Y-9452293D02*
X636729Y-9433246D01*
X636729Y-9433246D02*
X627205Y-9423722D01*
X627205Y-9423722D02*
X608158Y-9414198D01*
X770062Y-9328484D02*
X789110Y-9328484D01*
X789110Y-9328484D02*
X808158Y-9338008D01*
X808158Y-9338008D02*
X817682Y-9347531D01*
X817682Y-9347531D02*
X827205Y-9366579D01*
X827205Y-9366579D02*
X836729Y-9404674D01*
X836729Y-9404674D02*
X836729Y-9452293D01*
X836729Y-9452293D02*
X827205Y-9490389D01*
X827205Y-9490389D02*
X817682Y-9509436D01*
X817682Y-9509436D02*
X808158Y-9518960D01*
X808158Y-9518960D02*
X789110Y-9528484D01*
X789110Y-9528484D02*
X770062Y-9528484D01*
X770062Y-9528484D02*
X751015Y-9518960D01*
X751015Y-9518960D02*
X741491Y-9509436D01*
X741491Y-9509436D02*
X731967Y-9490389D01*
X731967Y-9490389D02*
X722443Y-9452293D01*
X722443Y-9452293D02*
X722443Y-9404674D01*
X722443Y-9404674D02*
X731967Y-9366579D01*
X731967Y-9366579D02*
X741491Y-9347531D01*
X741491Y-9347531D02*
X751015Y-9338008D01*
X751015Y-9338008D02*
X770062Y-9328484D01*
X960539Y-9328484D02*
X979586Y-9328484D01*
X979586Y-9328484D02*
X998634Y-9338008D01*
X998634Y-9338008D02*
X1008158Y-9347531D01*
X1008158Y-9347531D02*
X1017682Y-9366579D01*
X1017682Y-9366579D02*
X1027205Y-9404674D01*
X1027205Y-9404674D02*
X1027205Y-9452293D01*
X1027205Y-9452293D02*
X1017682Y-9490389D01*
X1017682Y-9490389D02*
X1008158Y-9509436D01*
X1008158Y-9509436D02*
X998634Y-9518960D01*
X998634Y-9518960D02*
X979586Y-9528484D01*
X979586Y-9528484D02*
X960539Y-9528484D01*
X960539Y-9528484D02*
X941491Y-9518960D01*
X941491Y-9518960D02*
X931967Y-9509436D01*
X931967Y-9509436D02*
X922443Y-9490389D01*
X922443Y-9490389D02*
X912920Y-9452293D01*
X912920Y-9452293D02*
X912920Y-9404674D01*
X912920Y-9404674D02*
X922443Y-9366579D01*
X922443Y-9366579D02*
X931967Y-9347531D01*
X931967Y-9347531D02*
X941491Y-9338008D01*
X941491Y-9338008D02*
X960539Y-9328484D01*
X1112920Y-9528484D02*
X1112920Y-9395150D01*
X1112920Y-9414198D02*
X1122444Y-9404674D01*
X1122444Y-9404674D02*
X1141491Y-9395150D01*
X1141491Y-9395150D02*
X1170063Y-9395150D01*
X1170063Y-9395150D02*
X1189110Y-9404674D01*
X1189110Y-9404674D02*
X1198634Y-9423722D01*
X1198634Y-9423722D02*
X1198634Y-9528484D01*
X1198634Y-9423722D02*
X1208158Y-9404674D01*
X1208158Y-9404674D02*
X1227205Y-9395150D01*
X1227205Y-9395150D02*
X1255777Y-9395150D01*
X1255777Y-9395150D02*
X1274825Y-9404674D01*
X1274825Y-9404674D02*
X1284348Y-9423722D01*
X1284348Y-9423722D02*
X1284348Y-9528484D01*
X1379586Y-9528484D02*
X1379586Y-9395150D01*
X1379586Y-9414198D02*
X1389110Y-9404674D01*
X1389110Y-9404674D02*
X1408158Y-9395150D01*
X1408158Y-9395150D02*
X1436729Y-9395150D01*
X1436729Y-9395150D02*
X1455777Y-9404674D01*
X1455777Y-9404674D02*
X1465301Y-9423722D01*
X1465301Y-9423722D02*
X1465301Y-9528484D01*
X1465301Y-9423722D02*
X1474824Y-9404674D01*
X1474824Y-9404674D02*
X1493872Y-9395150D01*
X1493872Y-9395150D02*
X1522443Y-9395150D01*
X1522443Y-9395150D02*
X1541491Y-9404674D01*
X1541491Y-9404674D02*
X1551015Y-9423722D01*
X1551015Y-9423722D02*
X1551015Y-9528484D01*
X1941491Y-9318960D02*
X1770063Y-9576103D01*
X2198634Y-9328484D02*
X2217682Y-9328484D01*
X2217682Y-9328484D02*
X2236729Y-9338008D01*
X2236729Y-9338008D02*
X2246253Y-9347531D01*
X2246253Y-9347531D02*
X2255777Y-9366579D01*
X2255777Y-9366579D02*
X2265301Y-9404674D01*
X2265301Y-9404674D02*
X2265301Y-9452293D01*
X2265301Y-9452293D02*
X2255777Y-9490389D01*
X2255777Y-9490389D02*
X2246253Y-9509436D01*
X2246253Y-9509436D02*
X2236729Y-9518960D01*
X2236729Y-9518960D02*
X2217682Y-9528484D01*
X2217682Y-9528484D02*
X2198634Y-9528484D01*
X2198634Y-9528484D02*
X2179587Y-9518960D01*
X2179587Y-9518960D02*
X2170063Y-9509436D01*
X2170063Y-9509436D02*
X2160539Y-9490389D01*
X2160539Y-9490389D02*
X2151015Y-9452293D01*
X2151015Y-9452293D02*
X2151015Y-9404674D01*
X2151015Y-9404674D02*
X2160539Y-9366579D01*
X2160539Y-9366579D02*
X2170063Y-9347531D01*
X2170063Y-9347531D02*
X2179587Y-9338008D01*
X2179587Y-9338008D02*
X2198634Y-9328484D01*
X2351015Y-9509436D02*
X2360539Y-9518960D01*
X2360539Y-9518960D02*
X2351015Y-9528484D01*
X2351015Y-9528484D02*
X2341491Y-9518960D01*
X2341491Y-9518960D02*
X2351015Y-9509436D01*
X2351015Y-9509436D02*
X2351015Y-9528484D01*
X2484348Y-9328484D02*
X2503396Y-9328484D01*
X2503396Y-9328484D02*
X2522444Y-9338008D01*
X2522444Y-9338008D02*
X2531968Y-9347531D01*
X2531968Y-9347531D02*
X2541491Y-9366579D01*
X2541491Y-9366579D02*
X2551015Y-9404674D01*
X2551015Y-9404674D02*
X2551015Y-9452293D01*
X2551015Y-9452293D02*
X2541491Y-9490389D01*
X2541491Y-9490389D02*
X2531968Y-9509436D01*
X2531968Y-9509436D02*
X2522444Y-9518960D01*
X2522444Y-9518960D02*
X2503396Y-9528484D01*
X2503396Y-9528484D02*
X2484348Y-9528484D01*
X2484348Y-9528484D02*
X2465301Y-9518960D01*
X2465301Y-9518960D02*
X2455777Y-9509436D01*
X2455777Y-9509436D02*
X2446253Y-9490389D01*
X2446253Y-9490389D02*
X2436729Y-9452293D01*
X2436729Y-9452293D02*
X2436729Y-9404674D01*
X2436729Y-9404674D02*
X2446253Y-9366579D01*
X2446253Y-9366579D02*
X2455777Y-9347531D01*
X2455777Y-9347531D02*
X2465301Y-9338008D01*
X2465301Y-9338008D02*
X2484348Y-9328484D01*
X2617682Y-9328484D02*
X2741491Y-9328484D01*
X2741491Y-9328484D02*
X2674825Y-9404674D01*
X2674825Y-9404674D02*
X2703396Y-9404674D01*
X2703396Y-9404674D02*
X2722444Y-9414198D01*
X2722444Y-9414198D02*
X2731968Y-9423722D01*
X2731968Y-9423722D02*
X2741491Y-9442770D01*
X2741491Y-9442770D02*
X2741491Y-9490389D01*
X2741491Y-9490389D02*
X2731968Y-9509436D01*
X2731968Y-9509436D02*
X2722444Y-9518960D01*
X2722444Y-9518960D02*
X2703396Y-9528484D01*
X2703396Y-9528484D02*
X2646253Y-9528484D01*
X2646253Y-9528484D02*
X2627206Y-9518960D01*
X2627206Y-9518960D02*
X2617682Y-9509436D01*
X2931967Y-9528484D02*
X2817682Y-9528484D01*
X2874825Y-9528484D02*
X2874825Y-9328484D01*
X2874825Y-9328484D02*
X2855777Y-9357055D01*
X2855777Y-9357055D02*
X2836729Y-9376103D01*
X2836729Y-9376103D02*
X2817682Y-9385627D01*
X3112920Y-9328484D02*
X3017682Y-9328484D01*
X3017682Y-9328484D02*
X3008158Y-9423722D01*
X3008158Y-9423722D02*
X3017682Y-9414198D01*
X3017682Y-9414198D02*
X3036729Y-9404674D01*
X3036729Y-9404674D02*
X3084348Y-9404674D01*
X3084348Y-9404674D02*
X3103396Y-9414198D01*
X3103396Y-9414198D02*
X3112920Y-9423722D01*
X3112920Y-9423722D02*
X3122444Y-9442770D01*
X3122444Y-9442770D02*
X3122444Y-9490389D01*
X3122444Y-9490389D02*
X3112920Y-9509436D01*
X3112920Y-9509436D02*
X3103396Y-9518960D01*
X3103396Y-9518960D02*
X3084348Y-9528484D01*
X3084348Y-9528484D02*
X3036729Y-9528484D01*
X3036729Y-9528484D02*
X3017682Y-9518960D01*
X3017682Y-9518960D02*
X3008158Y-9509436D01*
X3198634Y-9328484D02*
X3198634Y-9366579D01*
X3274825Y-9328484D02*
X3274825Y-9366579D01*
X3570063Y-9604674D02*
X3560539Y-9595150D01*
X3560539Y-9595150D02*
X3541491Y-9566579D01*
X3541491Y-9566579D02*
X3531968Y-9547531D01*
X3531968Y-9547531D02*
X3522444Y-9518960D01*
X3522444Y-9518960D02*
X3512920Y-9471341D01*
X3512920Y-9471341D02*
X3512920Y-9433246D01*
X3512920Y-9433246D02*
X3522444Y-9385627D01*
X3522444Y-9385627D02*
X3531968Y-9357055D01*
X3531968Y-9357055D02*
X3541491Y-9338008D01*
X3541491Y-9338008D02*
X3560539Y-9309436D01*
X3560539Y-9309436D02*
X3570063Y-9299912D01*
X3684348Y-9328484D02*
X3703396Y-9328484D01*
X3703396Y-9328484D02*
X3722444Y-9338008D01*
X3722444Y-9338008D02*
X3731968Y-9347531D01*
X3731968Y-9347531D02*
X3741491Y-9366579D01*
X3741491Y-9366579D02*
X3751015Y-9404674D01*
X3751015Y-9404674D02*
X3751015Y-9452293D01*
X3751015Y-9452293D02*
X3741491Y-9490389D01*
X3741491Y-9490389D02*
X3731968Y-9509436D01*
X3731968Y-9509436D02*
X3722444Y-9518960D01*
X3722444Y-9518960D02*
X3703396Y-9528484D01*
X3703396Y-9528484D02*
X3684348Y-9528484D01*
X3684348Y-9528484D02*
X3665301Y-9518960D01*
X3665301Y-9518960D02*
X3655777Y-9509436D01*
X3655777Y-9509436D02*
X3646253Y-9490389D01*
X3646253Y-9490389D02*
X3636729Y-9452293D01*
X3636729Y-9452293D02*
X3636729Y-9404674D01*
X3636729Y-9404674D02*
X3646253Y-9366579D01*
X3646253Y-9366579D02*
X3655777Y-9347531D01*
X3655777Y-9347531D02*
X3665301Y-9338008D01*
X3665301Y-9338008D02*
X3684348Y-9328484D01*
X3989110Y-9528484D02*
X3989110Y-9328484D01*
X4074825Y-9528484D02*
X4074825Y-9423722D01*
X4074825Y-9423722D02*
X4065301Y-9404674D01*
X4065301Y-9404674D02*
X4046253Y-9395150D01*
X4046253Y-9395150D02*
X4017682Y-9395150D01*
X4017682Y-9395150D02*
X3998634Y-9404674D01*
X3998634Y-9404674D02*
X3989110Y-9414198D01*
X4198634Y-9528484D02*
X4179587Y-9518960D01*
X4179587Y-9518960D02*
X4170063Y-9509436D01*
X4170063Y-9509436D02*
X4160539Y-9490389D01*
X4160539Y-9490389D02*
X4160539Y-9433246D01*
X4160539Y-9433246D02*
X4170063Y-9414198D01*
X4170063Y-9414198D02*
X4179587Y-9404674D01*
X4179587Y-9404674D02*
X4198634Y-9395150D01*
X4198634Y-9395150D02*
X4227206Y-9395150D01*
X4227206Y-9395150D02*
X4246253Y-9404674D01*
X4246253Y-9404674D02*
X4255777Y-9414198D01*
X4255777Y-9414198D02*
X4265301Y-9433246D01*
X4265301Y-9433246D02*
X4265301Y-9490389D01*
X4265301Y-9490389D02*
X4255777Y-9509436D01*
X4255777Y-9509436D02*
X4246253Y-9518960D01*
X4246253Y-9518960D02*
X4227206Y-9528484D01*
X4227206Y-9528484D02*
X4198634Y-9528484D01*
X4379587Y-9528484D02*
X4360539Y-9518960D01*
X4360539Y-9518960D02*
X4351015Y-9499912D01*
X4351015Y-9499912D02*
X4351015Y-9328484D01*
X4531968Y-9518960D02*
X4512920Y-9528484D01*
X4512920Y-9528484D02*
X4474825Y-9528484D01*
X4474825Y-9528484D02*
X4455777Y-9518960D01*
X4455777Y-9518960D02*
X4446253Y-9499912D01*
X4446253Y-9499912D02*
X4446253Y-9423722D01*
X4446253Y-9423722D02*
X4455777Y-9404674D01*
X4455777Y-9404674D02*
X4474825Y-9395150D01*
X4474825Y-9395150D02*
X4512920Y-9395150D01*
X4512920Y-9395150D02*
X4531968Y-9404674D01*
X4531968Y-9404674D02*
X4541492Y-9423722D01*
X4541492Y-9423722D02*
X4541492Y-9442770D01*
X4541492Y-9442770D02*
X4446253Y-9461817D01*
X4617682Y-9518960D02*
X4636730Y-9528484D01*
X4636730Y-9528484D02*
X4674825Y-9528484D01*
X4674825Y-9528484D02*
X4693873Y-9518960D01*
X4693873Y-9518960D02*
X4703396Y-9499912D01*
X4703396Y-9499912D02*
X4703396Y-9490389D01*
X4703396Y-9490389D02*
X4693873Y-9471341D01*
X4693873Y-9471341D02*
X4674825Y-9461817D01*
X4674825Y-9461817D02*
X4646253Y-9461817D01*
X4646253Y-9461817D02*
X4627206Y-9452293D01*
X4627206Y-9452293D02*
X4617682Y-9433246D01*
X4617682Y-9433246D02*
X4617682Y-9423722D01*
X4617682Y-9423722D02*
X4627206Y-9404674D01*
X4627206Y-9404674D02*
X4646253Y-9395150D01*
X4646253Y-9395150D02*
X4674825Y-9395150D01*
X4674825Y-9395150D02*
X4693873Y-9404674D01*
X4941492Y-9452293D02*
X5093873Y-9452293D01*
X5017682Y-9528484D02*
X5017682Y-9376103D01*
X5427206Y-9395150D02*
X5427206Y-9528484D01*
X5379587Y-9318960D02*
X5331968Y-9461817D01*
X5331968Y-9461817D02*
X5455777Y-9461817D01*
X5674825Y-9518960D02*
X5693873Y-9528484D01*
X5693873Y-9528484D02*
X5731968Y-9528484D01*
X5731968Y-9528484D02*
X5751015Y-9518960D01*
X5751015Y-9518960D02*
X5760539Y-9499912D01*
X5760539Y-9499912D02*
X5760539Y-9490389D01*
X5760539Y-9490389D02*
X5751015Y-9471341D01*
X5751015Y-9471341D02*
X5731968Y-9461817D01*
X5731968Y-9461817D02*
X5703396Y-9461817D01*
X5703396Y-9461817D02*
X5684349Y-9452293D01*
X5684349Y-9452293D02*
X5674825Y-9433246D01*
X5674825Y-9433246D02*
X5674825Y-9423722D01*
X5674825Y-9423722D02*
X5684349Y-9404674D01*
X5684349Y-9404674D02*
X5703396Y-9395150D01*
X5703396Y-9395150D02*
X5731968Y-9395150D01*
X5731968Y-9395150D02*
X5751015Y-9404674D01*
X5874825Y-9528484D02*
X5855777Y-9518960D01*
X5855777Y-9518960D02*
X5846254Y-9499912D01*
X5846254Y-9499912D02*
X5846254Y-9328484D01*
X5979587Y-9528484D02*
X5960539Y-9518960D01*
X5960539Y-9518960D02*
X5951015Y-9509436D01*
X5951015Y-9509436D02*
X5941492Y-9490389D01*
X5941492Y-9490389D02*
X5941492Y-9433246D01*
X5941492Y-9433246D02*
X5951015Y-9414198D01*
X5951015Y-9414198D02*
X5960539Y-9404674D01*
X5960539Y-9404674D02*
X5979587Y-9395150D01*
X5979587Y-9395150D02*
X6008158Y-9395150D01*
X6008158Y-9395150D02*
X6027206Y-9404674D01*
X6027206Y-9404674D02*
X6036730Y-9414198D01*
X6036730Y-9414198D02*
X6046254Y-9433246D01*
X6046254Y-9433246D02*
X6046254Y-9490389D01*
X6046254Y-9490389D02*
X6036730Y-9509436D01*
X6036730Y-9509436D02*
X6027206Y-9518960D01*
X6027206Y-9518960D02*
X6008158Y-9528484D01*
X6008158Y-9528484D02*
X5979587Y-9528484D01*
X6103396Y-9395150D02*
X6179587Y-9395150D01*
X6131968Y-9328484D02*
X6131968Y-9499912D01*
X6131968Y-9499912D02*
X6141492Y-9518960D01*
X6141492Y-9518960D02*
X6160539Y-9528484D01*
X6160539Y-9528484D02*
X6179587Y-9528484D01*
X6236730Y-9518960D02*
X6255777Y-9528484D01*
X6255777Y-9528484D02*
X6293873Y-9528484D01*
X6293873Y-9528484D02*
X6312920Y-9518960D01*
X6312920Y-9518960D02*
X6322444Y-9499912D01*
X6322444Y-9499912D02*
X6322444Y-9490389D01*
X6322444Y-9490389D02*
X6312920Y-9471341D01*
X6312920Y-9471341D02*
X6293873Y-9461817D01*
X6293873Y-9461817D02*
X6265301Y-9461817D01*
X6265301Y-9461817D02*
X6246254Y-9452293D01*
X6246254Y-9452293D02*
X6236730Y-9433246D01*
X6236730Y-9433246D02*
X6236730Y-9423722D01*
X6236730Y-9423722D02*
X6246254Y-9404674D01*
X6246254Y-9404674D02*
X6265301Y-9395150D01*
X6265301Y-9395150D02*
X6293873Y-9395150D01*
X6293873Y-9395150D02*
X6312920Y-9404674D01*
X6389111Y-9604674D02*
X6398635Y-9595150D01*
X6398635Y-9595150D02*
X6417682Y-9566579D01*
X6417682Y-9566579D02*
X6427206Y-9547531D01*
X6427206Y-9547531D02*
X6436730Y-9518960D01*
X6436730Y-9518960D02*
X6446254Y-9471341D01*
X6446254Y-9471341D02*
X6446254Y-9433246D01*
X6446254Y-9433246D02*
X6436730Y-9385627D01*
X6436730Y-9385627D02*
X6427206Y-9357055D01*
X6427206Y-9357055D02*
X6417682Y-9338008D01*
X6417682Y-9338008D02*
X6398635Y-9309436D01*
X6398635Y-9309436D02*
X6389111Y-9299912D01*
D10*
X-50000Y-9746000D02*
X-5000Y-9701000D01*
X-50000Y-9656000D01*
X-95000Y-9701000D01*
X-50000Y-9746000D01*
D11*
X293872Y-9592484D02*
X312920Y-9592484D01*
X312920Y-9592484D02*
X331967Y-9602008D01*
X331967Y-9602008D02*
X341491Y-9611531D01*
X341491Y-9611531D02*
X351015Y-9630579D01*
X351015Y-9630579D02*
X360539Y-9668674D01*
X360539Y-9668674D02*
X360539Y-9716293D01*
X360539Y-9716293D02*
X351015Y-9754389D01*
X351015Y-9754389D02*
X341491Y-9773436D01*
X341491Y-9773436D02*
X331967Y-9782960D01*
X331967Y-9782960D02*
X312920Y-9792484D01*
X312920Y-9792484D02*
X293872Y-9792484D01*
X293872Y-9792484D02*
X274824Y-9782960D01*
X274824Y-9782960D02*
X265301Y-9773436D01*
X265301Y-9773436D02*
X255777Y-9754389D01*
X255777Y-9754389D02*
X246253Y-9716293D01*
X246253Y-9716293D02*
X246253Y-9668674D01*
X246253Y-9668674D02*
X255777Y-9630579D01*
X255777Y-9630579D02*
X265301Y-9611531D01*
X265301Y-9611531D02*
X274824Y-9602008D01*
X274824Y-9602008D02*
X293872Y-9592484D01*
X446253Y-9773436D02*
X455777Y-9782960D01*
X455777Y-9782960D02*
X446253Y-9792484D01*
X446253Y-9792484D02*
X436729Y-9782960D01*
X436729Y-9782960D02*
X446253Y-9773436D01*
X446253Y-9773436D02*
X446253Y-9792484D01*
X551015Y-9792484D02*
X589110Y-9792484D01*
X589110Y-9792484D02*
X608158Y-9782960D01*
X608158Y-9782960D02*
X617682Y-9773436D01*
X617682Y-9773436D02*
X636729Y-9744865D01*
X636729Y-9744865D02*
X646253Y-9706770D01*
X646253Y-9706770D02*
X646253Y-9630579D01*
X646253Y-9630579D02*
X636729Y-9611531D01*
X636729Y-9611531D02*
X627205Y-9602008D01*
X627205Y-9602008D02*
X608158Y-9592484D01*
X608158Y-9592484D02*
X570063Y-9592484D01*
X570063Y-9592484D02*
X551015Y-9602008D01*
X551015Y-9602008D02*
X541491Y-9611531D01*
X541491Y-9611531D02*
X531967Y-9630579D01*
X531967Y-9630579D02*
X531967Y-9678198D01*
X531967Y-9678198D02*
X541491Y-9697246D01*
X541491Y-9697246D02*
X551015Y-9706770D01*
X551015Y-9706770D02*
X570063Y-9716293D01*
X570063Y-9716293D02*
X608158Y-9716293D01*
X608158Y-9716293D02*
X627205Y-9706770D01*
X627205Y-9706770D02*
X636729Y-9697246D01*
X636729Y-9697246D02*
X646253Y-9678198D01*
X770062Y-9592484D02*
X789110Y-9592484D01*
X789110Y-9592484D02*
X808158Y-9602008D01*
X808158Y-9602008D02*
X817682Y-9611531D01*
X817682Y-9611531D02*
X827205Y-9630579D01*
X827205Y-9630579D02*
X836729Y-9668674D01*
X836729Y-9668674D02*
X836729Y-9716293D01*
X836729Y-9716293D02*
X827205Y-9754389D01*
X827205Y-9754389D02*
X817682Y-9773436D01*
X817682Y-9773436D02*
X808158Y-9782960D01*
X808158Y-9782960D02*
X789110Y-9792484D01*
X789110Y-9792484D02*
X770062Y-9792484D01*
X770062Y-9792484D02*
X751015Y-9782960D01*
X751015Y-9782960D02*
X741491Y-9773436D01*
X741491Y-9773436D02*
X731967Y-9754389D01*
X731967Y-9754389D02*
X722443Y-9716293D01*
X722443Y-9716293D02*
X722443Y-9668674D01*
X722443Y-9668674D02*
X731967Y-9630579D01*
X731967Y-9630579D02*
X741491Y-9611531D01*
X741491Y-9611531D02*
X751015Y-9602008D01*
X751015Y-9602008D02*
X770062Y-9592484D01*
X960539Y-9592484D02*
X979586Y-9592484D01*
X979586Y-9592484D02*
X998634Y-9602008D01*
X998634Y-9602008D02*
X1008158Y-9611531D01*
X1008158Y-9611531D02*
X1017682Y-9630579D01*
X1017682Y-9630579D02*
X1027205Y-9668674D01*
X1027205Y-9668674D02*
X1027205Y-9716293D01*
X1027205Y-9716293D02*
X1017682Y-9754389D01*
X1017682Y-9754389D02*
X1008158Y-9773436D01*
X1008158Y-9773436D02*
X998634Y-9782960D01*
X998634Y-9782960D02*
X979586Y-9792484D01*
X979586Y-9792484D02*
X960539Y-9792484D01*
X960539Y-9792484D02*
X941491Y-9782960D01*
X941491Y-9782960D02*
X931967Y-9773436D01*
X931967Y-9773436D02*
X922443Y-9754389D01*
X922443Y-9754389D02*
X912920Y-9716293D01*
X912920Y-9716293D02*
X912920Y-9668674D01*
X912920Y-9668674D02*
X922443Y-9630579D01*
X922443Y-9630579D02*
X931967Y-9611531D01*
X931967Y-9611531D02*
X941491Y-9602008D01*
X941491Y-9602008D02*
X960539Y-9592484D01*
X1112920Y-9792484D02*
X1112920Y-9659150D01*
X1112920Y-9678198D02*
X1122444Y-9668674D01*
X1122444Y-9668674D02*
X1141491Y-9659150D01*
X1141491Y-9659150D02*
X1170063Y-9659150D01*
X1170063Y-9659150D02*
X1189110Y-9668674D01*
X1189110Y-9668674D02*
X1198634Y-9687722D01*
X1198634Y-9687722D02*
X1198634Y-9792484D01*
X1198634Y-9687722D02*
X1208158Y-9668674D01*
X1208158Y-9668674D02*
X1227205Y-9659150D01*
X1227205Y-9659150D02*
X1255777Y-9659150D01*
X1255777Y-9659150D02*
X1274825Y-9668674D01*
X1274825Y-9668674D02*
X1284348Y-9687722D01*
X1284348Y-9687722D02*
X1284348Y-9792484D01*
X1379586Y-9792484D02*
X1379586Y-9659150D01*
X1379586Y-9678198D02*
X1389110Y-9668674D01*
X1389110Y-9668674D02*
X1408158Y-9659150D01*
X1408158Y-9659150D02*
X1436729Y-9659150D01*
X1436729Y-9659150D02*
X1455777Y-9668674D01*
X1455777Y-9668674D02*
X1465301Y-9687722D01*
X1465301Y-9687722D02*
X1465301Y-9792484D01*
X1465301Y-9687722D02*
X1474824Y-9668674D01*
X1474824Y-9668674D02*
X1493872Y-9659150D01*
X1493872Y-9659150D02*
X1522443Y-9659150D01*
X1522443Y-9659150D02*
X1541491Y-9668674D01*
X1541491Y-9668674D02*
X1551015Y-9687722D01*
X1551015Y-9687722D02*
X1551015Y-9792484D01*
X1941491Y-9582960D02*
X1770063Y-9840103D01*
X2198634Y-9592484D02*
X2217682Y-9592484D01*
X2217682Y-9592484D02*
X2236729Y-9602008D01*
X2236729Y-9602008D02*
X2246253Y-9611531D01*
X2246253Y-9611531D02*
X2255777Y-9630579D01*
X2255777Y-9630579D02*
X2265301Y-9668674D01*
X2265301Y-9668674D02*
X2265301Y-9716293D01*
X2265301Y-9716293D02*
X2255777Y-9754389D01*
X2255777Y-9754389D02*
X2246253Y-9773436D01*
X2246253Y-9773436D02*
X2236729Y-9782960D01*
X2236729Y-9782960D02*
X2217682Y-9792484D01*
X2217682Y-9792484D02*
X2198634Y-9792484D01*
X2198634Y-9792484D02*
X2179587Y-9782960D01*
X2179587Y-9782960D02*
X2170063Y-9773436D01*
X2170063Y-9773436D02*
X2160539Y-9754389D01*
X2160539Y-9754389D02*
X2151015Y-9716293D01*
X2151015Y-9716293D02*
X2151015Y-9668674D01*
X2151015Y-9668674D02*
X2160539Y-9630579D01*
X2160539Y-9630579D02*
X2170063Y-9611531D01*
X2170063Y-9611531D02*
X2179587Y-9602008D01*
X2179587Y-9602008D02*
X2198634Y-9592484D01*
X2351015Y-9773436D02*
X2360539Y-9782960D01*
X2360539Y-9782960D02*
X2351015Y-9792484D01*
X2351015Y-9792484D02*
X2341491Y-9782960D01*
X2341491Y-9782960D02*
X2351015Y-9773436D01*
X2351015Y-9773436D02*
X2351015Y-9792484D01*
X2484348Y-9592484D02*
X2503396Y-9592484D01*
X2503396Y-9592484D02*
X2522444Y-9602008D01*
X2522444Y-9602008D02*
X2531968Y-9611531D01*
X2531968Y-9611531D02*
X2541491Y-9630579D01*
X2541491Y-9630579D02*
X2551015Y-9668674D01*
X2551015Y-9668674D02*
X2551015Y-9716293D01*
X2551015Y-9716293D02*
X2541491Y-9754389D01*
X2541491Y-9754389D02*
X2531968Y-9773436D01*
X2531968Y-9773436D02*
X2522444Y-9782960D01*
X2522444Y-9782960D02*
X2503396Y-9792484D01*
X2503396Y-9792484D02*
X2484348Y-9792484D01*
X2484348Y-9792484D02*
X2465301Y-9782960D01*
X2465301Y-9782960D02*
X2455777Y-9773436D01*
X2455777Y-9773436D02*
X2446253Y-9754389D01*
X2446253Y-9754389D02*
X2436729Y-9716293D01*
X2436729Y-9716293D02*
X2436729Y-9668674D01*
X2436729Y-9668674D02*
X2446253Y-9630579D01*
X2446253Y-9630579D02*
X2455777Y-9611531D01*
X2455777Y-9611531D02*
X2465301Y-9602008D01*
X2465301Y-9602008D02*
X2484348Y-9592484D01*
X2617682Y-9592484D02*
X2741491Y-9592484D01*
X2741491Y-9592484D02*
X2674825Y-9668674D01*
X2674825Y-9668674D02*
X2703396Y-9668674D01*
X2703396Y-9668674D02*
X2722444Y-9678198D01*
X2722444Y-9678198D02*
X2731968Y-9687722D01*
X2731968Y-9687722D02*
X2741491Y-9706770D01*
X2741491Y-9706770D02*
X2741491Y-9754389D01*
X2741491Y-9754389D02*
X2731968Y-9773436D01*
X2731968Y-9773436D02*
X2722444Y-9782960D01*
X2722444Y-9782960D02*
X2703396Y-9792484D01*
X2703396Y-9792484D02*
X2646253Y-9792484D01*
X2646253Y-9792484D02*
X2627206Y-9782960D01*
X2627206Y-9782960D02*
X2617682Y-9773436D01*
X2922444Y-9592484D02*
X2827206Y-9592484D01*
X2827206Y-9592484D02*
X2817682Y-9687722D01*
X2817682Y-9687722D02*
X2827206Y-9678198D01*
X2827206Y-9678198D02*
X2846253Y-9668674D01*
X2846253Y-9668674D02*
X2893872Y-9668674D01*
X2893872Y-9668674D02*
X2912920Y-9678198D01*
X2912920Y-9678198D02*
X2922444Y-9687722D01*
X2922444Y-9687722D02*
X2931967Y-9706770D01*
X2931967Y-9706770D02*
X2931967Y-9754389D01*
X2931967Y-9754389D02*
X2922444Y-9773436D01*
X2922444Y-9773436D02*
X2912920Y-9782960D01*
X2912920Y-9782960D02*
X2893872Y-9792484D01*
X2893872Y-9792484D02*
X2846253Y-9792484D01*
X2846253Y-9792484D02*
X2827206Y-9782960D01*
X2827206Y-9782960D02*
X2817682Y-9773436D01*
X3103396Y-9659150D02*
X3103396Y-9792484D01*
X3055777Y-9582960D02*
X3008158Y-9725817D01*
X3008158Y-9725817D02*
X3131967Y-9725817D01*
X3198634Y-9592484D02*
X3198634Y-9630579D01*
X3274825Y-9592484D02*
X3274825Y-9630579D01*
X3570063Y-9868674D02*
X3560539Y-9859150D01*
X3560539Y-9859150D02*
X3541491Y-9830579D01*
X3541491Y-9830579D02*
X3531968Y-9811531D01*
X3531968Y-9811531D02*
X3522444Y-9782960D01*
X3522444Y-9782960D02*
X3512920Y-9735341D01*
X3512920Y-9735341D02*
X3512920Y-9697246D01*
X3512920Y-9697246D02*
X3522444Y-9649627D01*
X3522444Y-9649627D02*
X3531968Y-9621055D01*
X3531968Y-9621055D02*
X3541491Y-9602008D01*
X3541491Y-9602008D02*
X3560539Y-9573436D01*
X3560539Y-9573436D02*
X3570063Y-9563912D01*
X3636729Y-9611531D02*
X3646253Y-9602008D01*
X3646253Y-9602008D02*
X3665301Y-9592484D01*
X3665301Y-9592484D02*
X3712920Y-9592484D01*
X3712920Y-9592484D02*
X3731968Y-9602008D01*
X3731968Y-9602008D02*
X3741491Y-9611531D01*
X3741491Y-9611531D02*
X3751015Y-9630579D01*
X3751015Y-9630579D02*
X3751015Y-9649627D01*
X3751015Y-9649627D02*
X3741491Y-9678198D01*
X3741491Y-9678198D02*
X3627206Y-9792484D01*
X3627206Y-9792484D02*
X3751015Y-9792484D01*
X3865301Y-9678198D02*
X3846253Y-9668674D01*
X3846253Y-9668674D02*
X3836729Y-9659150D01*
X3836729Y-9659150D02*
X3827206Y-9640103D01*
X3827206Y-9640103D02*
X3827206Y-9630579D01*
X3827206Y-9630579D02*
X3836729Y-9611531D01*
X3836729Y-9611531D02*
X3846253Y-9602008D01*
X3846253Y-9602008D02*
X3865301Y-9592484D01*
X3865301Y-9592484D02*
X3903396Y-9592484D01*
X3903396Y-9592484D02*
X3922444Y-9602008D01*
X3922444Y-9602008D02*
X3931968Y-9611531D01*
X3931968Y-9611531D02*
X3941491Y-9630579D01*
X3941491Y-9630579D02*
X3941491Y-9640103D01*
X3941491Y-9640103D02*
X3931968Y-9659150D01*
X3931968Y-9659150D02*
X3922444Y-9668674D01*
X3922444Y-9668674D02*
X3903396Y-9678198D01*
X3903396Y-9678198D02*
X3865301Y-9678198D01*
X3865301Y-9678198D02*
X3846253Y-9687722D01*
X3846253Y-9687722D02*
X3836729Y-9697246D01*
X3836729Y-9697246D02*
X3827206Y-9716293D01*
X3827206Y-9716293D02*
X3827206Y-9754389D01*
X3827206Y-9754389D02*
X3836729Y-9773436D01*
X3836729Y-9773436D02*
X3846253Y-9782960D01*
X3846253Y-9782960D02*
X3865301Y-9792484D01*
X3865301Y-9792484D02*
X3903396Y-9792484D01*
X3903396Y-9792484D02*
X3922444Y-9782960D01*
X3922444Y-9782960D02*
X3931968Y-9773436D01*
X3931968Y-9773436D02*
X3941491Y-9754389D01*
X3941491Y-9754389D02*
X3941491Y-9716293D01*
X3941491Y-9716293D02*
X3931968Y-9697246D01*
X3931968Y-9697246D02*
X3922444Y-9687722D01*
X3922444Y-9687722D02*
X3903396Y-9678198D01*
X4179587Y-9792484D02*
X4179587Y-9592484D01*
X4265301Y-9792484D02*
X4265301Y-9687722D01*
X4265301Y-9687722D02*
X4255777Y-9668674D01*
X4255777Y-9668674D02*
X4236730Y-9659150D01*
X4236730Y-9659150D02*
X4208158Y-9659150D01*
X4208158Y-9659150D02*
X4189110Y-9668674D01*
X4189110Y-9668674D02*
X4179587Y-9678198D01*
X4389111Y-9792484D02*
X4370063Y-9782960D01*
X4370063Y-9782960D02*
X4360539Y-9773436D01*
X4360539Y-9773436D02*
X4351015Y-9754389D01*
X4351015Y-9754389D02*
X4351015Y-9697246D01*
X4351015Y-9697246D02*
X4360539Y-9678198D01*
X4360539Y-9678198D02*
X4370063Y-9668674D01*
X4370063Y-9668674D02*
X4389111Y-9659150D01*
X4389111Y-9659150D02*
X4417682Y-9659150D01*
X4417682Y-9659150D02*
X4436730Y-9668674D01*
X4436730Y-9668674D02*
X4446253Y-9678198D01*
X4446253Y-9678198D02*
X4455777Y-9697246D01*
X4455777Y-9697246D02*
X4455777Y-9754389D01*
X4455777Y-9754389D02*
X4446253Y-9773436D01*
X4446253Y-9773436D02*
X4436730Y-9782960D01*
X4436730Y-9782960D02*
X4417682Y-9792484D01*
X4417682Y-9792484D02*
X4389111Y-9792484D01*
X4570063Y-9792484D02*
X4551015Y-9782960D01*
X4551015Y-9782960D02*
X4541492Y-9763912D01*
X4541492Y-9763912D02*
X4541492Y-9592484D01*
X4722444Y-9782960D02*
X4703396Y-9792484D01*
X4703396Y-9792484D02*
X4665301Y-9792484D01*
X4665301Y-9792484D02*
X4646253Y-9782960D01*
X4646253Y-9782960D02*
X4636730Y-9763912D01*
X4636730Y-9763912D02*
X4636730Y-9687722D01*
X4636730Y-9687722D02*
X4646253Y-9668674D01*
X4646253Y-9668674D02*
X4665301Y-9659150D01*
X4665301Y-9659150D02*
X4703396Y-9659150D01*
X4703396Y-9659150D02*
X4722444Y-9668674D01*
X4722444Y-9668674D02*
X4731968Y-9687722D01*
X4731968Y-9687722D02*
X4731968Y-9706770D01*
X4731968Y-9706770D02*
X4636730Y-9725817D01*
X4808158Y-9782960D02*
X4827206Y-9792484D01*
X4827206Y-9792484D02*
X4865301Y-9792484D01*
X4865301Y-9792484D02*
X4884349Y-9782960D01*
X4884349Y-9782960D02*
X4893873Y-9763912D01*
X4893873Y-9763912D02*
X4893873Y-9754389D01*
X4893873Y-9754389D02*
X4884349Y-9735341D01*
X4884349Y-9735341D02*
X4865301Y-9725817D01*
X4865301Y-9725817D02*
X4836730Y-9725817D01*
X4836730Y-9725817D02*
X4817682Y-9716293D01*
X4817682Y-9716293D02*
X4808158Y-9697246D01*
X4808158Y-9697246D02*
X4808158Y-9687722D01*
X4808158Y-9687722D02*
X4817682Y-9668674D01*
X4817682Y-9668674D02*
X4836730Y-9659150D01*
X4836730Y-9659150D02*
X4865301Y-9659150D01*
X4865301Y-9659150D02*
X4884349Y-9668674D01*
X4960539Y-9868674D02*
X4970063Y-9859150D01*
X4970063Y-9859150D02*
X4989111Y-9830579D01*
X4989111Y-9830579D02*
X4998634Y-9811531D01*
X4998634Y-9811531D02*
X5008158Y-9782960D01*
X5008158Y-9782960D02*
X5017682Y-9735341D01*
X5017682Y-9735341D02*
X5017682Y-9697246D01*
X5017682Y-9697246D02*
X5008158Y-9649627D01*
X5008158Y-9649627D02*
X4998634Y-9621055D01*
X4998634Y-9621055D02*
X4989111Y-9602008D01*
X4989111Y-9602008D02*
X4970063Y-9573436D01*
X4970063Y-9573436D02*
X4960539Y-9563912D01*
D10*
X-65000Y-9935000D02*
X-5000Y-9995000D01*
X-5000Y-9935000D02*
X-65000Y-9995000D01*
X-5000Y-9965000D02*
G75*
G02*
X-65000Y-9965000I-30000J0D01*
G01*
X-65000Y-9965000D02*
G75*
G02*
X-5000Y-9965000I30000J0D01*
G01*
D11*
X293872Y-9856484D02*
X312920Y-9856484D01*
X312920Y-9856484D02*
X331967Y-9866008D01*
X331967Y-9866008D02*
X341491Y-9875531D01*
X341491Y-9875531D02*
X351015Y-9894579D01*
X351015Y-9894579D02*
X360539Y-9932674D01*
X360539Y-9932674D02*
X360539Y-9980293D01*
X360539Y-9980293D02*
X351015Y-10018389D01*
X351015Y-10018389D02*
X341491Y-10037436D01*
X341491Y-10037436D02*
X331967Y-10046960D01*
X331967Y-10046960D02*
X312920Y-10056484D01*
X312920Y-10056484D02*
X293872Y-10056484D01*
X293872Y-10056484D02*
X274824Y-10046960D01*
X274824Y-10046960D02*
X265301Y-10037436D01*
X265301Y-10037436D02*
X255777Y-10018389D01*
X255777Y-10018389D02*
X246253Y-9980293D01*
X246253Y-9980293D02*
X246253Y-9932674D01*
X246253Y-9932674D02*
X255777Y-9894579D01*
X255777Y-9894579D02*
X265301Y-9875531D01*
X265301Y-9875531D02*
X274824Y-9866008D01*
X274824Y-9866008D02*
X293872Y-9856484D01*
X446253Y-10037436D02*
X455777Y-10046960D01*
X455777Y-10046960D02*
X446253Y-10056484D01*
X446253Y-10056484D02*
X436729Y-10046960D01*
X436729Y-10046960D02*
X446253Y-10037436D01*
X446253Y-10037436D02*
X446253Y-10056484D01*
X627205Y-9856484D02*
X589110Y-9856484D01*
X589110Y-9856484D02*
X570063Y-9866008D01*
X570063Y-9866008D02*
X560539Y-9875531D01*
X560539Y-9875531D02*
X541491Y-9904103D01*
X541491Y-9904103D02*
X531967Y-9942198D01*
X531967Y-9942198D02*
X531967Y-10018389D01*
X531967Y-10018389D02*
X541491Y-10037436D01*
X541491Y-10037436D02*
X551015Y-10046960D01*
X551015Y-10046960D02*
X570063Y-10056484D01*
X570063Y-10056484D02*
X608158Y-10056484D01*
X608158Y-10056484D02*
X627205Y-10046960D01*
X627205Y-10046960D02*
X636729Y-10037436D01*
X636729Y-10037436D02*
X646253Y-10018389D01*
X646253Y-10018389D02*
X646253Y-9970770D01*
X646253Y-9970770D02*
X636729Y-9951722D01*
X636729Y-9951722D02*
X627205Y-9942198D01*
X627205Y-9942198D02*
X608158Y-9932674D01*
X608158Y-9932674D02*
X570063Y-9932674D01*
X570063Y-9932674D02*
X551015Y-9942198D01*
X551015Y-9942198D02*
X541491Y-9951722D01*
X541491Y-9951722D02*
X531967Y-9970770D01*
X770062Y-9856484D02*
X789110Y-9856484D01*
X789110Y-9856484D02*
X808158Y-9866008D01*
X808158Y-9866008D02*
X817682Y-9875531D01*
X817682Y-9875531D02*
X827205Y-9894579D01*
X827205Y-9894579D02*
X836729Y-9932674D01*
X836729Y-9932674D02*
X836729Y-9980293D01*
X836729Y-9980293D02*
X827205Y-10018389D01*
X827205Y-10018389D02*
X817682Y-10037436D01*
X817682Y-10037436D02*
X808158Y-10046960D01*
X808158Y-10046960D02*
X789110Y-10056484D01*
X789110Y-10056484D02*
X770062Y-10056484D01*
X770062Y-10056484D02*
X751015Y-10046960D01*
X751015Y-10046960D02*
X741491Y-10037436D01*
X741491Y-10037436D02*
X731967Y-10018389D01*
X731967Y-10018389D02*
X722443Y-9980293D01*
X722443Y-9980293D02*
X722443Y-9932674D01*
X722443Y-9932674D02*
X731967Y-9894579D01*
X731967Y-9894579D02*
X741491Y-9875531D01*
X741491Y-9875531D02*
X751015Y-9866008D01*
X751015Y-9866008D02*
X770062Y-9856484D01*
X960539Y-9856484D02*
X979586Y-9856484D01*
X979586Y-9856484D02*
X998634Y-9866008D01*
X998634Y-9866008D02*
X1008158Y-9875531D01*
X1008158Y-9875531D02*
X1017682Y-9894579D01*
X1017682Y-9894579D02*
X1027205Y-9932674D01*
X1027205Y-9932674D02*
X1027205Y-9980293D01*
X1027205Y-9980293D02*
X1017682Y-10018389D01*
X1017682Y-10018389D02*
X1008158Y-10037436D01*
X1008158Y-10037436D02*
X998634Y-10046960D01*
X998634Y-10046960D02*
X979586Y-10056484D01*
X979586Y-10056484D02*
X960539Y-10056484D01*
X960539Y-10056484D02*
X941491Y-10046960D01*
X941491Y-10046960D02*
X931967Y-10037436D01*
X931967Y-10037436D02*
X922443Y-10018389D01*
X922443Y-10018389D02*
X912920Y-9980293D01*
X912920Y-9980293D02*
X912920Y-9932674D01*
X912920Y-9932674D02*
X922443Y-9894579D01*
X922443Y-9894579D02*
X931967Y-9875531D01*
X931967Y-9875531D02*
X941491Y-9866008D01*
X941491Y-9866008D02*
X960539Y-9856484D01*
X1112920Y-10056484D02*
X1112920Y-9923150D01*
X1112920Y-9942198D02*
X1122444Y-9932674D01*
X1122444Y-9932674D02*
X1141491Y-9923150D01*
X1141491Y-9923150D02*
X1170063Y-9923150D01*
X1170063Y-9923150D02*
X1189110Y-9932674D01*
X1189110Y-9932674D02*
X1198634Y-9951722D01*
X1198634Y-9951722D02*
X1198634Y-10056484D01*
X1198634Y-9951722D02*
X1208158Y-9932674D01*
X1208158Y-9932674D02*
X1227205Y-9923150D01*
X1227205Y-9923150D02*
X1255777Y-9923150D01*
X1255777Y-9923150D02*
X1274825Y-9932674D01*
X1274825Y-9932674D02*
X1284348Y-9951722D01*
X1284348Y-9951722D02*
X1284348Y-10056484D01*
X1379586Y-10056484D02*
X1379586Y-9923150D01*
X1379586Y-9942198D02*
X1389110Y-9932674D01*
X1389110Y-9932674D02*
X1408158Y-9923150D01*
X1408158Y-9923150D02*
X1436729Y-9923150D01*
X1436729Y-9923150D02*
X1455777Y-9932674D01*
X1455777Y-9932674D02*
X1465301Y-9951722D01*
X1465301Y-9951722D02*
X1465301Y-10056484D01*
X1465301Y-9951722D02*
X1474824Y-9932674D01*
X1474824Y-9932674D02*
X1493872Y-9923150D01*
X1493872Y-9923150D02*
X1522443Y-9923150D01*
X1522443Y-9923150D02*
X1541491Y-9932674D01*
X1541491Y-9932674D02*
X1551015Y-9951722D01*
X1551015Y-9951722D02*
X1551015Y-10056484D01*
X1941491Y-9846960D02*
X1770063Y-10104103D01*
X2198634Y-9856484D02*
X2217682Y-9856484D01*
X2217682Y-9856484D02*
X2236729Y-9866008D01*
X2236729Y-9866008D02*
X2246253Y-9875531D01*
X2246253Y-9875531D02*
X2255777Y-9894579D01*
X2255777Y-9894579D02*
X2265301Y-9932674D01*
X2265301Y-9932674D02*
X2265301Y-9980293D01*
X2265301Y-9980293D02*
X2255777Y-10018389D01*
X2255777Y-10018389D02*
X2246253Y-10037436D01*
X2246253Y-10037436D02*
X2236729Y-10046960D01*
X2236729Y-10046960D02*
X2217682Y-10056484D01*
X2217682Y-10056484D02*
X2198634Y-10056484D01*
X2198634Y-10056484D02*
X2179587Y-10046960D01*
X2179587Y-10046960D02*
X2170063Y-10037436D01*
X2170063Y-10037436D02*
X2160539Y-10018389D01*
X2160539Y-10018389D02*
X2151015Y-9980293D01*
X2151015Y-9980293D02*
X2151015Y-9932674D01*
X2151015Y-9932674D02*
X2160539Y-9894579D01*
X2160539Y-9894579D02*
X2170063Y-9875531D01*
X2170063Y-9875531D02*
X2179587Y-9866008D01*
X2179587Y-9866008D02*
X2198634Y-9856484D01*
X2351015Y-10037436D02*
X2360539Y-10046960D01*
X2360539Y-10046960D02*
X2351015Y-10056484D01*
X2351015Y-10056484D02*
X2341491Y-10046960D01*
X2341491Y-10046960D02*
X2351015Y-10037436D01*
X2351015Y-10037436D02*
X2351015Y-10056484D01*
X2484348Y-9856484D02*
X2503396Y-9856484D01*
X2503396Y-9856484D02*
X2522444Y-9866008D01*
X2522444Y-9866008D02*
X2531968Y-9875531D01*
X2531968Y-9875531D02*
X2541491Y-9894579D01*
X2541491Y-9894579D02*
X2551015Y-9932674D01*
X2551015Y-9932674D02*
X2551015Y-9980293D01*
X2551015Y-9980293D02*
X2541491Y-10018389D01*
X2541491Y-10018389D02*
X2531968Y-10037436D01*
X2531968Y-10037436D02*
X2522444Y-10046960D01*
X2522444Y-10046960D02*
X2503396Y-10056484D01*
X2503396Y-10056484D02*
X2484348Y-10056484D01*
X2484348Y-10056484D02*
X2465301Y-10046960D01*
X2465301Y-10046960D02*
X2455777Y-10037436D01*
X2455777Y-10037436D02*
X2446253Y-10018389D01*
X2446253Y-10018389D02*
X2436729Y-9980293D01*
X2436729Y-9980293D02*
X2436729Y-9932674D01*
X2436729Y-9932674D02*
X2446253Y-9894579D01*
X2446253Y-9894579D02*
X2455777Y-9875531D01*
X2455777Y-9875531D02*
X2465301Y-9866008D01*
X2465301Y-9866008D02*
X2484348Y-9856484D01*
X2627206Y-9875531D02*
X2636729Y-9866008D01*
X2636729Y-9866008D02*
X2655777Y-9856484D01*
X2655777Y-9856484D02*
X2703396Y-9856484D01*
X2703396Y-9856484D02*
X2722444Y-9866008D01*
X2722444Y-9866008D02*
X2731968Y-9875531D01*
X2731968Y-9875531D02*
X2741491Y-9894579D01*
X2741491Y-9894579D02*
X2741491Y-9913627D01*
X2741491Y-9913627D02*
X2731968Y-9942198D01*
X2731968Y-9942198D02*
X2617682Y-10056484D01*
X2617682Y-10056484D02*
X2741491Y-10056484D01*
X2808158Y-9856484D02*
X2931967Y-9856484D01*
X2931967Y-9856484D02*
X2865301Y-9932674D01*
X2865301Y-9932674D02*
X2893872Y-9932674D01*
X2893872Y-9932674D02*
X2912920Y-9942198D01*
X2912920Y-9942198D02*
X2922444Y-9951722D01*
X2922444Y-9951722D02*
X2931967Y-9970770D01*
X2931967Y-9970770D02*
X2931967Y-10018389D01*
X2931967Y-10018389D02*
X2922444Y-10037436D01*
X2922444Y-10037436D02*
X2912920Y-10046960D01*
X2912920Y-10046960D02*
X2893872Y-10056484D01*
X2893872Y-10056484D02*
X2836729Y-10056484D01*
X2836729Y-10056484D02*
X2817682Y-10046960D01*
X2817682Y-10046960D02*
X2808158Y-10037436D01*
X3103396Y-9856484D02*
X3065301Y-9856484D01*
X3065301Y-9856484D02*
X3046253Y-9866008D01*
X3046253Y-9866008D02*
X3036729Y-9875531D01*
X3036729Y-9875531D02*
X3017682Y-9904103D01*
X3017682Y-9904103D02*
X3008158Y-9942198D01*
X3008158Y-9942198D02*
X3008158Y-10018389D01*
X3008158Y-10018389D02*
X3017682Y-10037436D01*
X3017682Y-10037436D02*
X3027206Y-10046960D01*
X3027206Y-10046960D02*
X3046253Y-10056484D01*
X3046253Y-10056484D02*
X3084348Y-10056484D01*
X3084348Y-10056484D02*
X3103396Y-10046960D01*
X3103396Y-10046960D02*
X3112920Y-10037436D01*
X3112920Y-10037436D02*
X3122444Y-10018389D01*
X3122444Y-10018389D02*
X3122444Y-9970770D01*
X3122444Y-9970770D02*
X3112920Y-9951722D01*
X3112920Y-9951722D02*
X3103396Y-9942198D01*
X3103396Y-9942198D02*
X3084348Y-9932674D01*
X3084348Y-9932674D02*
X3046253Y-9932674D01*
X3046253Y-9932674D02*
X3027206Y-9942198D01*
X3027206Y-9942198D02*
X3017682Y-9951722D01*
X3017682Y-9951722D02*
X3008158Y-9970770D01*
X3198634Y-9856484D02*
X3198634Y-9894579D01*
X3274825Y-9856484D02*
X3274825Y-9894579D01*
X3570063Y-10132674D02*
X3560539Y-10123150D01*
X3560539Y-10123150D02*
X3541491Y-10094579D01*
X3541491Y-10094579D02*
X3531968Y-10075531D01*
X3531968Y-10075531D02*
X3522444Y-10046960D01*
X3522444Y-10046960D02*
X3512920Y-9999341D01*
X3512920Y-9999341D02*
X3512920Y-9961246D01*
X3512920Y-9961246D02*
X3522444Y-9913627D01*
X3522444Y-9913627D02*
X3531968Y-9885055D01*
X3531968Y-9885055D02*
X3541491Y-9866008D01*
X3541491Y-9866008D02*
X3560539Y-9837436D01*
X3560539Y-9837436D02*
X3570063Y-9827912D01*
X3636729Y-9875531D02*
X3646253Y-9866008D01*
X3646253Y-9866008D02*
X3665301Y-9856484D01*
X3665301Y-9856484D02*
X3712920Y-9856484D01*
X3712920Y-9856484D02*
X3731968Y-9866008D01*
X3731968Y-9866008D02*
X3741491Y-9875531D01*
X3741491Y-9875531D02*
X3751015Y-9894579D01*
X3751015Y-9894579D02*
X3751015Y-9913627D01*
X3751015Y-9913627D02*
X3741491Y-9942198D01*
X3741491Y-9942198D02*
X3627206Y-10056484D01*
X3627206Y-10056484D02*
X3751015Y-10056484D01*
X3989110Y-10056484D02*
X3989110Y-9856484D01*
X4074825Y-10056484D02*
X4074825Y-9951722D01*
X4074825Y-9951722D02*
X4065301Y-9932674D01*
X4065301Y-9932674D02*
X4046253Y-9923150D01*
X4046253Y-9923150D02*
X4017682Y-9923150D01*
X4017682Y-9923150D02*
X3998634Y-9932674D01*
X3998634Y-9932674D02*
X3989110Y-9942198D01*
X4198634Y-10056484D02*
X4179587Y-10046960D01*
X4179587Y-10046960D02*
X4170063Y-10037436D01*
X4170063Y-10037436D02*
X4160539Y-10018389D01*
X4160539Y-10018389D02*
X4160539Y-9961246D01*
X4160539Y-9961246D02*
X4170063Y-9942198D01*
X4170063Y-9942198D02*
X4179587Y-9932674D01*
X4179587Y-9932674D02*
X4198634Y-9923150D01*
X4198634Y-9923150D02*
X4227206Y-9923150D01*
X4227206Y-9923150D02*
X4246253Y-9932674D01*
X4246253Y-9932674D02*
X4255777Y-9942198D01*
X4255777Y-9942198D02*
X4265301Y-9961246D01*
X4265301Y-9961246D02*
X4265301Y-10018389D01*
X4265301Y-10018389D02*
X4255777Y-10037436D01*
X4255777Y-10037436D02*
X4246253Y-10046960D01*
X4246253Y-10046960D02*
X4227206Y-10056484D01*
X4227206Y-10056484D02*
X4198634Y-10056484D01*
X4379587Y-10056484D02*
X4360539Y-10046960D01*
X4360539Y-10046960D02*
X4351015Y-10027912D01*
X4351015Y-10027912D02*
X4351015Y-9856484D01*
X4531968Y-10046960D02*
X4512920Y-10056484D01*
X4512920Y-10056484D02*
X4474825Y-10056484D01*
X4474825Y-10056484D02*
X4455777Y-10046960D01*
X4455777Y-10046960D02*
X4446253Y-10027912D01*
X4446253Y-10027912D02*
X4446253Y-9951722D01*
X4446253Y-9951722D02*
X4455777Y-9932674D01*
X4455777Y-9932674D02*
X4474825Y-9923150D01*
X4474825Y-9923150D02*
X4512920Y-9923150D01*
X4512920Y-9923150D02*
X4531968Y-9932674D01*
X4531968Y-9932674D02*
X4541492Y-9951722D01*
X4541492Y-9951722D02*
X4541492Y-9970770D01*
X4541492Y-9970770D02*
X4446253Y-9989817D01*
X4617682Y-10046960D02*
X4636730Y-10056484D01*
X4636730Y-10056484D02*
X4674825Y-10056484D01*
X4674825Y-10056484D02*
X4693873Y-10046960D01*
X4693873Y-10046960D02*
X4703396Y-10027912D01*
X4703396Y-10027912D02*
X4703396Y-10018389D01*
X4703396Y-10018389D02*
X4693873Y-9999341D01*
X4693873Y-9999341D02*
X4674825Y-9989817D01*
X4674825Y-9989817D02*
X4646253Y-9989817D01*
X4646253Y-9989817D02*
X4627206Y-9980293D01*
X4627206Y-9980293D02*
X4617682Y-9961246D01*
X4617682Y-9961246D02*
X4617682Y-9951722D01*
X4617682Y-9951722D02*
X4627206Y-9932674D01*
X4627206Y-9932674D02*
X4646253Y-9923150D01*
X4646253Y-9923150D02*
X4674825Y-9923150D01*
X4674825Y-9923150D02*
X4693873Y-9932674D01*
X4770063Y-10132674D02*
X4779587Y-10123150D01*
X4779587Y-10123150D02*
X4798634Y-10094579D01*
X4798634Y-10094579D02*
X4808158Y-10075531D01*
X4808158Y-10075531D02*
X4817682Y-10046960D01*
X4817682Y-10046960D02*
X4827206Y-9999341D01*
X4827206Y-9999341D02*
X4827206Y-9961246D01*
X4827206Y-9961246D02*
X4817682Y-9913627D01*
X4817682Y-9913627D02*
X4808158Y-9885055D01*
X4808158Y-9885055D02*
X4798634Y-9866008D01*
X4798634Y-9866008D02*
X4779587Y-9837436D01*
X4779587Y-9837436D02*
X4770063Y-9827912D01*
X5131968Y-10132674D02*
X5122444Y-10123150D01*
X5122444Y-10123150D02*
X5103396Y-10094579D01*
X5103396Y-10094579D02*
X5093873Y-10075531D01*
X5093873Y-10075531D02*
X5084349Y-10046960D01*
X5084349Y-10046960D02*
X5074825Y-9999341D01*
X5074825Y-9999341D02*
X5074825Y-9961246D01*
X5074825Y-9961246D02*
X5084349Y-9913627D01*
X5084349Y-9913627D02*
X5093873Y-9885055D01*
X5093873Y-9885055D02*
X5103396Y-9866008D01*
X5103396Y-9866008D02*
X5122444Y-9837436D01*
X5122444Y-9837436D02*
X5131968Y-9827912D01*
X5208158Y-9923150D02*
X5208158Y-10056484D01*
X5208158Y-9942198D02*
X5217682Y-9932674D01*
X5217682Y-9932674D02*
X5236730Y-9923150D01*
X5236730Y-9923150D02*
X5265301Y-9923150D01*
X5265301Y-9923150D02*
X5284349Y-9932674D01*
X5284349Y-9932674D02*
X5293873Y-9951722D01*
X5293873Y-9951722D02*
X5293873Y-10056484D01*
X5417682Y-10056484D02*
X5398634Y-10046960D01*
X5398634Y-10046960D02*
X5389111Y-10037436D01*
X5389111Y-10037436D02*
X5379587Y-10018389D01*
X5379587Y-10018389D02*
X5379587Y-9961246D01*
X5379587Y-9961246D02*
X5389111Y-9942198D01*
X5389111Y-9942198D02*
X5398634Y-9932674D01*
X5398634Y-9932674D02*
X5417682Y-9923150D01*
X5417682Y-9923150D02*
X5446254Y-9923150D01*
X5446254Y-9923150D02*
X5465301Y-9932674D01*
X5465301Y-9932674D02*
X5474825Y-9942198D01*
X5474825Y-9942198D02*
X5484349Y-9961246D01*
X5484349Y-9961246D02*
X5484349Y-10018389D01*
X5484349Y-10018389D02*
X5474825Y-10037436D01*
X5474825Y-10037436D02*
X5465301Y-10046960D01*
X5465301Y-10046960D02*
X5446254Y-10056484D01*
X5446254Y-10056484D02*
X5417682Y-10056484D01*
X5541492Y-9923150D02*
X5617682Y-9923150D01*
X5570063Y-9856484D02*
X5570063Y-10027912D01*
X5570063Y-10027912D02*
X5579587Y-10046960D01*
X5579587Y-10046960D02*
X5598634Y-10056484D01*
X5598634Y-10056484D02*
X5617682Y-10056484D01*
X5836730Y-9923150D02*
X5836730Y-10123150D01*
X5836730Y-9932674D02*
X5855777Y-9923150D01*
X5855777Y-9923150D02*
X5893873Y-9923150D01*
X5893873Y-9923150D02*
X5912920Y-9932674D01*
X5912920Y-9932674D02*
X5922444Y-9942198D01*
X5922444Y-9942198D02*
X5931968Y-9961246D01*
X5931968Y-9961246D02*
X5931968Y-10018389D01*
X5931968Y-10018389D02*
X5922444Y-10037436D01*
X5922444Y-10037436D02*
X5912920Y-10046960D01*
X5912920Y-10046960D02*
X5893873Y-10056484D01*
X5893873Y-10056484D02*
X5855777Y-10056484D01*
X5855777Y-10056484D02*
X5836730Y-10046960D01*
X6046253Y-10056484D02*
X6027206Y-10046960D01*
X6027206Y-10046960D02*
X6017682Y-10027912D01*
X6017682Y-10027912D02*
X6017682Y-9856484D01*
X6208158Y-10056484D02*
X6208158Y-9951722D01*
X6208158Y-9951722D02*
X6198634Y-9932674D01*
X6198634Y-9932674D02*
X6179587Y-9923150D01*
X6179587Y-9923150D02*
X6141492Y-9923150D01*
X6141492Y-9923150D02*
X6122444Y-9932674D01*
X6208158Y-10046960D02*
X6189111Y-10056484D01*
X6189111Y-10056484D02*
X6141492Y-10056484D01*
X6141492Y-10056484D02*
X6122444Y-10046960D01*
X6122444Y-10046960D02*
X6112920Y-10027912D01*
X6112920Y-10027912D02*
X6112920Y-10008865D01*
X6112920Y-10008865D02*
X6122444Y-9989817D01*
X6122444Y-9989817D02*
X6141492Y-9980293D01*
X6141492Y-9980293D02*
X6189111Y-9980293D01*
X6189111Y-9980293D02*
X6208158Y-9970770D01*
X6274825Y-9923150D02*
X6351015Y-9923150D01*
X6303396Y-9856484D02*
X6303396Y-10027912D01*
X6303396Y-10027912D02*
X6312920Y-10046960D01*
X6312920Y-10046960D02*
X6331968Y-10056484D01*
X6331968Y-10056484D02*
X6351015Y-10056484D01*
X6493873Y-10046960D02*
X6474825Y-10056484D01*
X6474825Y-10056484D02*
X6436730Y-10056484D01*
X6436730Y-10056484D02*
X6417682Y-10046960D01*
X6417682Y-10046960D02*
X6408158Y-10027912D01*
X6408158Y-10027912D02*
X6408158Y-9951722D01*
X6408158Y-9951722D02*
X6417682Y-9932674D01*
X6417682Y-9932674D02*
X6436730Y-9923150D01*
X6436730Y-9923150D02*
X6474825Y-9923150D01*
X6474825Y-9923150D02*
X6493873Y-9932674D01*
X6493873Y-9932674D02*
X6503396Y-9951722D01*
X6503396Y-9951722D02*
X6503396Y-9970770D01*
X6503396Y-9970770D02*
X6408158Y-9989817D01*
X6674825Y-10056484D02*
X6674825Y-9856484D01*
X6674825Y-10046960D02*
X6655777Y-10056484D01*
X6655777Y-10056484D02*
X6617682Y-10056484D01*
X6617682Y-10056484D02*
X6598634Y-10046960D01*
X6598634Y-10046960D02*
X6589111Y-10037436D01*
X6589111Y-10037436D02*
X6579587Y-10018389D01*
X6579587Y-10018389D02*
X6579587Y-9961246D01*
X6579587Y-9961246D02*
X6589111Y-9942198D01*
X6589111Y-9942198D02*
X6598634Y-9932674D01*
X6598634Y-9932674D02*
X6617682Y-9923150D01*
X6617682Y-9923150D02*
X6655777Y-9923150D01*
X6655777Y-9923150D02*
X6674825Y-9932674D01*
X6751015Y-10132674D02*
X6760539Y-10123150D01*
X6760539Y-10123150D02*
X6779587Y-10094579D01*
X6779587Y-10094579D02*
X6789111Y-10075531D01*
X6789111Y-10075531D02*
X6798634Y-10046960D01*
X6798634Y-10046960D02*
X6808158Y-9999341D01*
X6808158Y-9999341D02*
X6808158Y-9961246D01*
X6808158Y-9961246D02*
X6798634Y-9913627D01*
X6798634Y-9913627D02*
X6789111Y-9885055D01*
X6789111Y-9885055D02*
X6779587Y-9866008D01*
X6779587Y-9866008D02*
X6760539Y-9837436D01*
X6760539Y-9837436D02*
X6751015Y-9827912D01*
X-205000Y-10129000D02*
X-5000Y-10329000D01*
X-5000Y-10129000D02*
X-205000Y-10329000D01*
X-105000Y-10129000D02*
X-105000Y-10329000D01*
X-205000Y-10229000D02*
X-5000Y-10229000D01*
X236729Y-10120484D02*
X360539Y-10120484D01*
X360539Y-10120484D02*
X293872Y-10196674D01*
X293872Y-10196674D02*
X322444Y-10196674D01*
X322444Y-10196674D02*
X341491Y-10206198D01*
X341491Y-10206198D02*
X351015Y-10215722D01*
X351015Y-10215722D02*
X360539Y-10234770D01*
X360539Y-10234770D02*
X360539Y-10282389D01*
X360539Y-10282389D02*
X351015Y-10301436D01*
X351015Y-10301436D02*
X341491Y-10310960D01*
X341491Y-10310960D02*
X322444Y-10320484D01*
X322444Y-10320484D02*
X265301Y-10320484D01*
X265301Y-10320484D02*
X246253Y-10310960D01*
X246253Y-10310960D02*
X236729Y-10301436D01*
X446253Y-10301436D02*
X455777Y-10310960D01*
X455777Y-10310960D02*
X446253Y-10320484D01*
X446253Y-10320484D02*
X436729Y-10310960D01*
X436729Y-10310960D02*
X446253Y-10301436D01*
X446253Y-10301436D02*
X446253Y-10320484D01*
X531967Y-10139531D02*
X541491Y-10130008D01*
X541491Y-10130008D02*
X560539Y-10120484D01*
X560539Y-10120484D02*
X608158Y-10120484D01*
X608158Y-10120484D02*
X627205Y-10130008D01*
X627205Y-10130008D02*
X636729Y-10139531D01*
X636729Y-10139531D02*
X646253Y-10158579D01*
X646253Y-10158579D02*
X646253Y-10177627D01*
X646253Y-10177627D02*
X636729Y-10206198D01*
X636729Y-10206198D02*
X522443Y-10320484D01*
X522443Y-10320484D02*
X646253Y-10320484D01*
X770062Y-10120484D02*
X789110Y-10120484D01*
X789110Y-10120484D02*
X808158Y-10130008D01*
X808158Y-10130008D02*
X817682Y-10139531D01*
X817682Y-10139531D02*
X827205Y-10158579D01*
X827205Y-10158579D02*
X836729Y-10196674D01*
X836729Y-10196674D02*
X836729Y-10244293D01*
X836729Y-10244293D02*
X827205Y-10282389D01*
X827205Y-10282389D02*
X817682Y-10301436D01*
X817682Y-10301436D02*
X808158Y-10310960D01*
X808158Y-10310960D02*
X789110Y-10320484D01*
X789110Y-10320484D02*
X770062Y-10320484D01*
X770062Y-10320484D02*
X751015Y-10310960D01*
X751015Y-10310960D02*
X741491Y-10301436D01*
X741491Y-10301436D02*
X731967Y-10282389D01*
X731967Y-10282389D02*
X722443Y-10244293D01*
X722443Y-10244293D02*
X722443Y-10196674D01*
X722443Y-10196674D02*
X731967Y-10158579D01*
X731967Y-10158579D02*
X741491Y-10139531D01*
X741491Y-10139531D02*
X751015Y-10130008D01*
X751015Y-10130008D02*
X770062Y-10120484D01*
X960539Y-10120484D02*
X979586Y-10120484D01*
X979586Y-10120484D02*
X998634Y-10130008D01*
X998634Y-10130008D02*
X1008158Y-10139531D01*
X1008158Y-10139531D02*
X1017682Y-10158579D01*
X1017682Y-10158579D02*
X1027205Y-10196674D01*
X1027205Y-10196674D02*
X1027205Y-10244293D01*
X1027205Y-10244293D02*
X1017682Y-10282389D01*
X1017682Y-10282389D02*
X1008158Y-10301436D01*
X1008158Y-10301436D02*
X998634Y-10310960D01*
X998634Y-10310960D02*
X979586Y-10320484D01*
X979586Y-10320484D02*
X960539Y-10320484D01*
X960539Y-10320484D02*
X941491Y-10310960D01*
X941491Y-10310960D02*
X931967Y-10301436D01*
X931967Y-10301436D02*
X922443Y-10282389D01*
X922443Y-10282389D02*
X912920Y-10244293D01*
X912920Y-10244293D02*
X912920Y-10196674D01*
X912920Y-10196674D02*
X922443Y-10158579D01*
X922443Y-10158579D02*
X931967Y-10139531D01*
X931967Y-10139531D02*
X941491Y-10130008D01*
X941491Y-10130008D02*
X960539Y-10120484D01*
X1112920Y-10320484D02*
X1112920Y-10187150D01*
X1112920Y-10206198D02*
X1122444Y-10196674D01*
X1122444Y-10196674D02*
X1141491Y-10187150D01*
X1141491Y-10187150D02*
X1170063Y-10187150D01*
X1170063Y-10187150D02*
X1189110Y-10196674D01*
X1189110Y-10196674D02*
X1198634Y-10215722D01*
X1198634Y-10215722D02*
X1198634Y-10320484D01*
X1198634Y-10215722D02*
X1208158Y-10196674D01*
X1208158Y-10196674D02*
X1227205Y-10187150D01*
X1227205Y-10187150D02*
X1255777Y-10187150D01*
X1255777Y-10187150D02*
X1274825Y-10196674D01*
X1274825Y-10196674D02*
X1284348Y-10215722D01*
X1284348Y-10215722D02*
X1284348Y-10320484D01*
X1379586Y-10320484D02*
X1379586Y-10187150D01*
X1379586Y-10206198D02*
X1389110Y-10196674D01*
X1389110Y-10196674D02*
X1408158Y-10187150D01*
X1408158Y-10187150D02*
X1436729Y-10187150D01*
X1436729Y-10187150D02*
X1455777Y-10196674D01*
X1455777Y-10196674D02*
X1465301Y-10215722D01*
X1465301Y-10215722D02*
X1465301Y-10320484D01*
X1465301Y-10215722D02*
X1474824Y-10196674D01*
X1474824Y-10196674D02*
X1493872Y-10187150D01*
X1493872Y-10187150D02*
X1522443Y-10187150D01*
X1522443Y-10187150D02*
X1541491Y-10196674D01*
X1541491Y-10196674D02*
X1551015Y-10215722D01*
X1551015Y-10215722D02*
X1551015Y-10320484D01*
X1941491Y-10110960D02*
X1770063Y-10368103D01*
X2198634Y-10120484D02*
X2217682Y-10120484D01*
X2217682Y-10120484D02*
X2236729Y-10130008D01*
X2236729Y-10130008D02*
X2246253Y-10139531D01*
X2246253Y-10139531D02*
X2255777Y-10158579D01*
X2255777Y-10158579D02*
X2265301Y-10196674D01*
X2265301Y-10196674D02*
X2265301Y-10244293D01*
X2265301Y-10244293D02*
X2255777Y-10282389D01*
X2255777Y-10282389D02*
X2246253Y-10301436D01*
X2246253Y-10301436D02*
X2236729Y-10310960D01*
X2236729Y-10310960D02*
X2217682Y-10320484D01*
X2217682Y-10320484D02*
X2198634Y-10320484D01*
X2198634Y-10320484D02*
X2179587Y-10310960D01*
X2179587Y-10310960D02*
X2170063Y-10301436D01*
X2170063Y-10301436D02*
X2160539Y-10282389D01*
X2160539Y-10282389D02*
X2151015Y-10244293D01*
X2151015Y-10244293D02*
X2151015Y-10196674D01*
X2151015Y-10196674D02*
X2160539Y-10158579D01*
X2160539Y-10158579D02*
X2170063Y-10139531D01*
X2170063Y-10139531D02*
X2179587Y-10130008D01*
X2179587Y-10130008D02*
X2198634Y-10120484D01*
X2351015Y-10301436D02*
X2360539Y-10310960D01*
X2360539Y-10310960D02*
X2351015Y-10320484D01*
X2351015Y-10320484D02*
X2341491Y-10310960D01*
X2341491Y-10310960D02*
X2351015Y-10301436D01*
X2351015Y-10301436D02*
X2351015Y-10320484D01*
X2551015Y-10320484D02*
X2436729Y-10320484D01*
X2493872Y-10320484D02*
X2493872Y-10120484D01*
X2493872Y-10120484D02*
X2474825Y-10149055D01*
X2474825Y-10149055D02*
X2455777Y-10168103D01*
X2455777Y-10168103D02*
X2436729Y-10177627D01*
X2627206Y-10139531D02*
X2636729Y-10130008D01*
X2636729Y-10130008D02*
X2655777Y-10120484D01*
X2655777Y-10120484D02*
X2703396Y-10120484D01*
X2703396Y-10120484D02*
X2722444Y-10130008D01*
X2722444Y-10130008D02*
X2731968Y-10139531D01*
X2731968Y-10139531D02*
X2741491Y-10158579D01*
X2741491Y-10158579D02*
X2741491Y-10177627D01*
X2741491Y-10177627D02*
X2731968Y-10206198D01*
X2731968Y-10206198D02*
X2617682Y-10320484D01*
X2617682Y-10320484D02*
X2741491Y-10320484D01*
X2912920Y-10120484D02*
X2874825Y-10120484D01*
X2874825Y-10120484D02*
X2855777Y-10130008D01*
X2855777Y-10130008D02*
X2846253Y-10139531D01*
X2846253Y-10139531D02*
X2827206Y-10168103D01*
X2827206Y-10168103D02*
X2817682Y-10206198D01*
X2817682Y-10206198D02*
X2817682Y-10282389D01*
X2817682Y-10282389D02*
X2827206Y-10301436D01*
X2827206Y-10301436D02*
X2836729Y-10310960D01*
X2836729Y-10310960D02*
X2855777Y-10320484D01*
X2855777Y-10320484D02*
X2893872Y-10320484D01*
X2893872Y-10320484D02*
X2912920Y-10310960D01*
X2912920Y-10310960D02*
X2922444Y-10301436D01*
X2922444Y-10301436D02*
X2931967Y-10282389D01*
X2931967Y-10282389D02*
X2931967Y-10234770D01*
X2931967Y-10234770D02*
X2922444Y-10215722D01*
X2922444Y-10215722D02*
X2912920Y-10206198D01*
X2912920Y-10206198D02*
X2893872Y-10196674D01*
X2893872Y-10196674D02*
X2855777Y-10196674D01*
X2855777Y-10196674D02*
X2836729Y-10206198D01*
X2836729Y-10206198D02*
X2827206Y-10215722D01*
X2827206Y-10215722D02*
X2817682Y-10234770D01*
X3055777Y-10120484D02*
X3074825Y-10120484D01*
X3074825Y-10120484D02*
X3093872Y-10130008D01*
X3093872Y-10130008D02*
X3103396Y-10139531D01*
X3103396Y-10139531D02*
X3112920Y-10158579D01*
X3112920Y-10158579D02*
X3122444Y-10196674D01*
X3122444Y-10196674D02*
X3122444Y-10244293D01*
X3122444Y-10244293D02*
X3112920Y-10282389D01*
X3112920Y-10282389D02*
X3103396Y-10301436D01*
X3103396Y-10301436D02*
X3093872Y-10310960D01*
X3093872Y-10310960D02*
X3074825Y-10320484D01*
X3074825Y-10320484D02*
X3055777Y-10320484D01*
X3055777Y-10320484D02*
X3036729Y-10310960D01*
X3036729Y-10310960D02*
X3027206Y-10301436D01*
X3027206Y-10301436D02*
X3017682Y-10282389D01*
X3017682Y-10282389D02*
X3008158Y-10244293D01*
X3008158Y-10244293D02*
X3008158Y-10196674D01*
X3008158Y-10196674D02*
X3017682Y-10158579D01*
X3017682Y-10158579D02*
X3027206Y-10139531D01*
X3027206Y-10139531D02*
X3036729Y-10130008D01*
X3036729Y-10130008D02*
X3055777Y-10120484D01*
X3198634Y-10120484D02*
X3198634Y-10158579D01*
X3274825Y-10120484D02*
X3274825Y-10158579D01*
X3570063Y-10396674D02*
X3560539Y-10387150D01*
X3560539Y-10387150D02*
X3541491Y-10358579D01*
X3541491Y-10358579D02*
X3531968Y-10339531D01*
X3531968Y-10339531D02*
X3522444Y-10310960D01*
X3522444Y-10310960D02*
X3512920Y-10263341D01*
X3512920Y-10263341D02*
X3512920Y-10225246D01*
X3512920Y-10225246D02*
X3522444Y-10177627D01*
X3522444Y-10177627D02*
X3531968Y-10149055D01*
X3531968Y-10149055D02*
X3541491Y-10130008D01*
X3541491Y-10130008D02*
X3560539Y-10101436D01*
X3560539Y-10101436D02*
X3570063Y-10091912D01*
X3731968Y-10187150D02*
X3731968Y-10320484D01*
X3684348Y-10110960D02*
X3636729Y-10253817D01*
X3636729Y-10253817D02*
X3760539Y-10253817D01*
X3989110Y-10320484D02*
X3989110Y-10120484D01*
X4074825Y-10320484D02*
X4074825Y-10215722D01*
X4074825Y-10215722D02*
X4065301Y-10196674D01*
X4065301Y-10196674D02*
X4046253Y-10187150D01*
X4046253Y-10187150D02*
X4017682Y-10187150D01*
X4017682Y-10187150D02*
X3998634Y-10196674D01*
X3998634Y-10196674D02*
X3989110Y-10206198D01*
X4198634Y-10320484D02*
X4179587Y-10310960D01*
X4179587Y-10310960D02*
X4170063Y-10301436D01*
X4170063Y-10301436D02*
X4160539Y-10282389D01*
X4160539Y-10282389D02*
X4160539Y-10225246D01*
X4160539Y-10225246D02*
X4170063Y-10206198D01*
X4170063Y-10206198D02*
X4179587Y-10196674D01*
X4179587Y-10196674D02*
X4198634Y-10187150D01*
X4198634Y-10187150D02*
X4227206Y-10187150D01*
X4227206Y-10187150D02*
X4246253Y-10196674D01*
X4246253Y-10196674D02*
X4255777Y-10206198D01*
X4255777Y-10206198D02*
X4265301Y-10225246D01*
X4265301Y-10225246D02*
X4265301Y-10282389D01*
X4265301Y-10282389D02*
X4255777Y-10301436D01*
X4255777Y-10301436D02*
X4246253Y-10310960D01*
X4246253Y-10310960D02*
X4227206Y-10320484D01*
X4227206Y-10320484D02*
X4198634Y-10320484D01*
X4379587Y-10320484D02*
X4360539Y-10310960D01*
X4360539Y-10310960D02*
X4351015Y-10291912D01*
X4351015Y-10291912D02*
X4351015Y-10120484D01*
X4531968Y-10310960D02*
X4512920Y-10320484D01*
X4512920Y-10320484D02*
X4474825Y-10320484D01*
X4474825Y-10320484D02*
X4455777Y-10310960D01*
X4455777Y-10310960D02*
X4446253Y-10291912D01*
X4446253Y-10291912D02*
X4446253Y-10215722D01*
X4446253Y-10215722D02*
X4455777Y-10196674D01*
X4455777Y-10196674D02*
X4474825Y-10187150D01*
X4474825Y-10187150D02*
X4512920Y-10187150D01*
X4512920Y-10187150D02*
X4531968Y-10196674D01*
X4531968Y-10196674D02*
X4541492Y-10215722D01*
X4541492Y-10215722D02*
X4541492Y-10234770D01*
X4541492Y-10234770D02*
X4446253Y-10253817D01*
X4617682Y-10310960D02*
X4636730Y-10320484D01*
X4636730Y-10320484D02*
X4674825Y-10320484D01*
X4674825Y-10320484D02*
X4693873Y-10310960D01*
X4693873Y-10310960D02*
X4703396Y-10291912D01*
X4703396Y-10291912D02*
X4703396Y-10282389D01*
X4703396Y-10282389D02*
X4693873Y-10263341D01*
X4693873Y-10263341D02*
X4674825Y-10253817D01*
X4674825Y-10253817D02*
X4646253Y-10253817D01*
X4646253Y-10253817D02*
X4627206Y-10244293D01*
X4627206Y-10244293D02*
X4617682Y-10225246D01*
X4617682Y-10225246D02*
X4617682Y-10215722D01*
X4617682Y-10215722D02*
X4627206Y-10196674D01*
X4627206Y-10196674D02*
X4646253Y-10187150D01*
X4646253Y-10187150D02*
X4674825Y-10187150D01*
X4674825Y-10187150D02*
X4693873Y-10196674D01*
X4770063Y-10396674D02*
X4779587Y-10387150D01*
X4779587Y-10387150D02*
X4798634Y-10358579D01*
X4798634Y-10358579D02*
X4808158Y-10339531D01*
X4808158Y-10339531D02*
X4817682Y-10310960D01*
X4817682Y-10310960D02*
X4827206Y-10263341D01*
X4827206Y-10263341D02*
X4827206Y-10225246D01*
X4827206Y-10225246D02*
X4817682Y-10177627D01*
X4817682Y-10177627D02*
X4808158Y-10149055D01*
X4808158Y-10149055D02*
X4798634Y-10130008D01*
X4798634Y-10130008D02*
X4779587Y-10101436D01*
X4779587Y-10101436D02*
X4770063Y-10091912D01*
X5131968Y-10396674D02*
X5122444Y-10387150D01*
X5122444Y-10387150D02*
X5103396Y-10358579D01*
X5103396Y-10358579D02*
X5093873Y-10339531D01*
X5093873Y-10339531D02*
X5084349Y-10310960D01*
X5084349Y-10310960D02*
X5074825Y-10263341D01*
X5074825Y-10263341D02*
X5074825Y-10225246D01*
X5074825Y-10225246D02*
X5084349Y-10177627D01*
X5084349Y-10177627D02*
X5093873Y-10149055D01*
X5093873Y-10149055D02*
X5103396Y-10130008D01*
X5103396Y-10130008D02*
X5122444Y-10101436D01*
X5122444Y-10101436D02*
X5131968Y-10091912D01*
X5208158Y-10187150D02*
X5208158Y-10320484D01*
X5208158Y-10206198D02*
X5217682Y-10196674D01*
X5217682Y-10196674D02*
X5236730Y-10187150D01*
X5236730Y-10187150D02*
X5265301Y-10187150D01*
X5265301Y-10187150D02*
X5284349Y-10196674D01*
X5284349Y-10196674D02*
X5293873Y-10215722D01*
X5293873Y-10215722D02*
X5293873Y-10320484D01*
X5417682Y-10320484D02*
X5398634Y-10310960D01*
X5398634Y-10310960D02*
X5389111Y-10301436D01*
X5389111Y-10301436D02*
X5379587Y-10282389D01*
X5379587Y-10282389D02*
X5379587Y-10225246D01*
X5379587Y-10225246D02*
X5389111Y-10206198D01*
X5389111Y-10206198D02*
X5398634Y-10196674D01*
X5398634Y-10196674D02*
X5417682Y-10187150D01*
X5417682Y-10187150D02*
X5446254Y-10187150D01*
X5446254Y-10187150D02*
X5465301Y-10196674D01*
X5465301Y-10196674D02*
X5474825Y-10206198D01*
X5474825Y-10206198D02*
X5484349Y-10225246D01*
X5484349Y-10225246D02*
X5484349Y-10282389D01*
X5484349Y-10282389D02*
X5474825Y-10301436D01*
X5474825Y-10301436D02*
X5465301Y-10310960D01*
X5465301Y-10310960D02*
X5446254Y-10320484D01*
X5446254Y-10320484D02*
X5417682Y-10320484D01*
X5541492Y-10187150D02*
X5617682Y-10187150D01*
X5570063Y-10120484D02*
X5570063Y-10291912D01*
X5570063Y-10291912D02*
X5579587Y-10310960D01*
X5579587Y-10310960D02*
X5598634Y-10320484D01*
X5598634Y-10320484D02*
X5617682Y-10320484D01*
X5836730Y-10187150D02*
X5836730Y-10387150D01*
X5836730Y-10196674D02*
X5855777Y-10187150D01*
X5855777Y-10187150D02*
X5893873Y-10187150D01*
X5893873Y-10187150D02*
X5912920Y-10196674D01*
X5912920Y-10196674D02*
X5922444Y-10206198D01*
X5922444Y-10206198D02*
X5931968Y-10225246D01*
X5931968Y-10225246D02*
X5931968Y-10282389D01*
X5931968Y-10282389D02*
X5922444Y-10301436D01*
X5922444Y-10301436D02*
X5912920Y-10310960D01*
X5912920Y-10310960D02*
X5893873Y-10320484D01*
X5893873Y-10320484D02*
X5855777Y-10320484D01*
X5855777Y-10320484D02*
X5836730Y-10310960D01*
X6046253Y-10320484D02*
X6027206Y-10310960D01*
X6027206Y-10310960D02*
X6017682Y-10291912D01*
X6017682Y-10291912D02*
X6017682Y-10120484D01*
X6208158Y-10320484D02*
X6208158Y-10215722D01*
X6208158Y-10215722D02*
X6198634Y-10196674D01*
X6198634Y-10196674D02*
X6179587Y-10187150D01*
X6179587Y-10187150D02*
X6141492Y-10187150D01*
X6141492Y-10187150D02*
X6122444Y-10196674D01*
X6208158Y-10310960D02*
X6189111Y-10320484D01*
X6189111Y-10320484D02*
X6141492Y-10320484D01*
X6141492Y-10320484D02*
X6122444Y-10310960D01*
X6122444Y-10310960D02*
X6112920Y-10291912D01*
X6112920Y-10291912D02*
X6112920Y-10272865D01*
X6112920Y-10272865D02*
X6122444Y-10253817D01*
X6122444Y-10253817D02*
X6141492Y-10244293D01*
X6141492Y-10244293D02*
X6189111Y-10244293D01*
X6189111Y-10244293D02*
X6208158Y-10234770D01*
X6274825Y-10187150D02*
X6351015Y-10187150D01*
X6303396Y-10120484D02*
X6303396Y-10291912D01*
X6303396Y-10291912D02*
X6312920Y-10310960D01*
X6312920Y-10310960D02*
X6331968Y-10320484D01*
X6331968Y-10320484D02*
X6351015Y-10320484D01*
X6493873Y-10310960D02*
X6474825Y-10320484D01*
X6474825Y-10320484D02*
X6436730Y-10320484D01*
X6436730Y-10320484D02*
X6417682Y-10310960D01*
X6417682Y-10310960D02*
X6408158Y-10291912D01*
X6408158Y-10291912D02*
X6408158Y-10215722D01*
X6408158Y-10215722D02*
X6417682Y-10196674D01*
X6417682Y-10196674D02*
X6436730Y-10187150D01*
X6436730Y-10187150D02*
X6474825Y-10187150D01*
X6474825Y-10187150D02*
X6493873Y-10196674D01*
X6493873Y-10196674D02*
X6503396Y-10215722D01*
X6503396Y-10215722D02*
X6503396Y-10234770D01*
X6503396Y-10234770D02*
X6408158Y-10253817D01*
X6674825Y-10320484D02*
X6674825Y-10120484D01*
X6674825Y-10310960D02*
X6655777Y-10320484D01*
X6655777Y-10320484D02*
X6617682Y-10320484D01*
X6617682Y-10320484D02*
X6598634Y-10310960D01*
X6598634Y-10310960D02*
X6589111Y-10301436D01*
X6589111Y-10301436D02*
X6579587Y-10282389D01*
X6579587Y-10282389D02*
X6579587Y-10225246D01*
X6579587Y-10225246D02*
X6589111Y-10206198D01*
X6589111Y-10206198D02*
X6598634Y-10196674D01*
X6598634Y-10196674D02*
X6617682Y-10187150D01*
X6617682Y-10187150D02*
X6655777Y-10187150D01*
X6655777Y-10187150D02*
X6674825Y-10196674D01*
X6751015Y-10396674D02*
X6760539Y-10387150D01*
X6760539Y-10387150D02*
X6779587Y-10358579D01*
X6779587Y-10358579D02*
X6789111Y-10339531D01*
X6789111Y-10339531D02*
X6798634Y-10310960D01*
X6798634Y-10310960D02*
X6808158Y-10263341D01*
X6808158Y-10263341D02*
X6808158Y-10225246D01*
X6808158Y-10225246D02*
X6798634Y-10177627D01*
X6798634Y-10177627D02*
X6789111Y-10149055D01*
X6789111Y-10149055D02*
X6779587Y-10130008D01*
X6779587Y-10130008D02*
X6760539Y-10101436D01*
X6760539Y-10101436D02*
X6751015Y-10091912D01*
M02*
