%TF.GenerationSoftware,KiCad,Pcbnew,10.0.6*%
%TF.CreationDate,2026-10-04T17:57:05+08:00*%
%TF.ProjectId,flowio-p1,666c6f77-696f-42d7-9031-2e6b69636164,rev?*%
%TF.SameCoordinates,Original*%
%TF.FileFunction,Copper,L1,Top*%
%TF.FilePolarity,Positive*%
%FSLAX46Y46*%
G04 Gerber Fmt 4.6, Leading zero omitted, Abs format (unit mm)*
G04 Created by KiCad (PCBNEW 10.0.6) date 2026-10-04 17:57:05*
%MOMM*%
%LPD*%
G01*
G04 APERTURE LIST*
G04 Aperture macros list*
%AMRoundRect*
0 Rectangle with rounded corners*
0 $1 Rounding radius*
0 $2 $3 $4 $5 $6 $7 $8 $9 X,Y pos of 4 corners*
0 Add a 4 corners polygon primitive as box body*
4,1,4,$2,$3,$4,$5,$6,$7,$8,$9,$2,$3,0*
0 Add four circle primitives for the rounded corners*
1,1,$1+$1,$2,$3*
1,1,$1+$1,$4,$5*
1,1,$1+$1,$6,$7*
1,1,$1+$1,$8,$9*
0 Add four rect primitives between the rounded corners*
20,1,$1+$1,$2,$3,$4,$5,0*
20,1,$1+$1,$4,$5,$6,$7,0*
20,1,$1+$1,$6,$7,$8,$9,0*
20,1,$1+$1,$8,$9,$2,$3,0*%
%AMFreePoly0*
4,1,29,0.478316,0.594867,0.629610,0.554328,0.765257,0.476012,0.876012,0.365257,0.954328,0.229610,0.994867,0.078316,0.994867,-0.078316,0.954328,-0.229610,0.876012,-0.365257,0.765257,-0.476012,0.629610,-0.554328,0.478316,-0.594867,0.400000,-0.600000,-0.400000,-0.600000,-0.478316,-0.594867,-0.629610,-0.554328,-0.765257,-0.476012,-0.876012,-0.365257,-0.954328,-0.229610,-0.994867,-0.078316,
-0.994867,0.078316,-0.954328,0.229610,-0.876012,0.365257,-0.765257,0.476012,-0.629610,0.554328,-0.478316,0.594867,-0.400000,0.600000,0.400000,0.600000,0.478316,0.594867,0.478316,0.594867,$1*%
%AMFreePoly1*
4,1,29,0.378316,0.594867,0.529610,0.554328,0.665257,0.476012,0.776012,0.365257,0.854328,0.229610,0.894867,0.078316,0.894867,-0.078316,0.854328,-0.229610,0.776012,-0.365257,0.665257,-0.476012,0.529610,-0.554328,0.378316,-0.594867,0.300000,-0.600000,-0.300000,-0.600000,-0.378316,-0.594867,-0.529610,-0.554328,-0.665257,-0.476012,-0.776012,-0.365257,-0.854328,-0.229610,-0.894867,-0.078316,
-0.894867,0.078316,-0.854328,0.229610,-0.776012,0.365257,-0.665257,0.476012,-0.529610,0.554328,-0.378316,0.594867,-0.300000,0.600000,0.300000,0.600000,0.378316,0.594867,0.378316,0.594867,$1*%
%AMFreePoly2*
4,1,9,0.299900,-0.649900,-0.000100,-0.649900,-0.000100,-0.650100,-0.300100,-0.650100,-0.300100,0.649900,-0.000100,0.649900,-0.000100,0.650100,0.299900,0.650100,0.299900,-0.649900,0.299900,-0.649900,$1*%
%AMFreePoly3*
4,1,7,0.300100,-0.650000,0.000100,-0.650000,0.000100,-0.650100,-0.299900,-0.650100,-0.299900,0.649900,0.300100,0.649900,0.300100,-0.650000,0.300100,-0.650000,$1*%
%AMFreePoly4*
4,1,5,0.299900,-0.649900,-0.300200,-0.649900,-0.300200,0.650100,0.299900,0.650100,0.299900,-0.649900,0.299900,-0.649900,$1*%
%AMFreePoly5*
4,1,29,0.471789,0.545295,0.610476,0.508134,0.734819,0.436344,0.836344,0.334819,0.908134,0.210476,0.945295,0.071789,0.945295,-0.071789,0.908134,-0.210476,0.836344,-0.334819,0.734819,-0.436344,0.610476,-0.508134,0.471789,-0.545295,0.400000,-0.550000,-0.400000,-0.550000,-0.471789,-0.545295,-0.610476,-0.508134,-0.734819,-0.436344,-0.836344,-0.334819,-0.908134,-0.210476,-0.945295,-0.071789,
-0.945295,0.071789,-0.908134,0.210476,-0.836344,0.334819,-0.734819,0.436344,-0.610476,0.508134,-0.471789,0.545295,-0.400000,0.550000,0.400000,0.550000,0.471789,0.545295,0.471789,0.545295,$1*%
G04 Aperture macros list end*
%TA.AperFunction,SMDPad,CuDef*%
%ADD10C,1.000000*%
%TD*%
%TA.AperFunction,SMDPad,CuDef*%
%ADD11R,1.500000X3.500000*%
%TD*%
%TA.AperFunction,SMDPad,CuDef*%
%ADD12R,1.000000X0.650000*%
%TD*%
%TA.AperFunction,SMDPad,CuDef*%
%ADD13R,1.000000X1.500000*%
%TD*%
%TA.AperFunction,SMDPad,CuDef*%
%ADD14R,0.800000X0.800000*%
%TD*%
%TA.AperFunction,SMDPad,CuDef*%
%ADD15R,0.806500X0.864000*%
%TD*%
%TA.AperFunction,ComponentPad*%
%ADD16C,1.500000*%
%TD*%
%TA.AperFunction,SMDPad,CuDef*%
%ADD17R,1.520000X1.680000*%
%TD*%
%TA.AperFunction,SMDPad,CuDef*%
%ADD18RoundRect,0.225000X0.250000X-0.225000X0.250000X0.225000X-0.250000X0.225000X-0.250000X-0.225000X0*%
%TD*%
%TA.AperFunction,SMDPad,CuDef*%
%ADD19R,0.864000X0.806500*%
%TD*%
%TA.AperFunction,SMDPad,CuDef*%
%ADD20RoundRect,0.225000X-0.225000X-0.250000X0.225000X-0.250000X0.225000X0.250000X-0.225000X0.250000X0*%
%TD*%
%TA.AperFunction,SMDPad,CuDef*%
%ADD21R,1.485000X1.728000*%
%TD*%
%TA.AperFunction,SMDPad,CuDef*%
%ADD22R,3.500000X1.500000*%
%TD*%
%TA.AperFunction,SMDPad,CuDef*%
%ADD23R,0.532000X1.027500*%
%TD*%
%TA.AperFunction,SMDPad,CuDef*%
%ADD24R,1.728000X1.485000*%
%TD*%
%TA.AperFunction,SMDPad,CuDef*%
%ADD25R,2.000000X2.000000*%
%TD*%
%TA.AperFunction,SMDPad,CuDef*%
%ADD26R,1.150000X1.700000*%
%TD*%
%TA.AperFunction,ComponentPad*%
%ADD27FreePoly0,180.000000*%
%TD*%
%TA.AperFunction,ComponentPad*%
%ADD28FreePoly1,180.000000*%
%TD*%
%TA.AperFunction,SMDPad,CuDef*%
%ADD29FreePoly2,90.000000*%
%TD*%
%TA.AperFunction,SMDPad,CuDef*%
%ADD30FreePoly3,90.000000*%
%TD*%
%TA.AperFunction,SMDPad,CuDef*%
%ADD31R,1.300000X0.300000*%
%TD*%
%TA.AperFunction,SMDPad,CuDef*%
%ADD32FreePoly4,90.000000*%
%TD*%
%TA.AperFunction,SMDPad,CuDef*%
%ADD33R,2.124000X3.320000*%
%TD*%
%TA.AperFunction,ComponentPad*%
%ADD34FreePoly5,0.000000*%
%TD*%
%TA.AperFunction,SMDPad,CuDef*%
%ADD35R,1.200000X0.700000*%
%TD*%
%TA.AperFunction,SMDPad,CuDef*%
%ADD36R,1.200000X0.800000*%
%TD*%
%TA.AperFunction,SMDPad,CuDef*%
%ADD37R,0.532000X1.072000*%
%TD*%
%TA.AperFunction,SMDPad,CuDef*%
%ADD38R,2.000000X0.900000*%
%TD*%
%TA.AperFunction,SMDPad,CuDef*%
%ADD39O,0.568400X1.950200*%
%TD*%
%TA.AperFunction,SMDPad,CuDef*%
%ADD40R,1.500000X0.900000*%
%TD*%
%TA.AperFunction,SMDPad,CuDef*%
%ADD41R,0.900000X1.500000*%
%TD*%
%TA.AperFunction,SMDPad,CuDef*%
%ADD42R,0.900000X0.900000*%
%TD*%
%TA.AperFunction,SMDPad,CuDef*%
%ADD43R,0.400000X1.650000*%
%TD*%
%TA.AperFunction,SMDPad,CuDef*%
%ADD44R,0.600000X1.500000*%
%TD*%
%TA.AperFunction,SMDPad,CuDef*%
%ADD45R,2.800000X2.400000*%
%TD*%
G04 APERTURE END LIST*
D10*
%TO.P,TP11,1*%
%TO.N,PH*%
X37000000Y-55000000D03*
%TD*%
D11*
%TO.P,J14,1*%
%TO.N,+5V*%
X50650100Y-77700100D03*
%TO.P,J14,2*%
%TO.N,DRV5*%
X48149900Y-77699900D03*
%TO.P,J14,3*%
%TO.N,N/C*%
X53630200Y-70300100D03*
%TO.P,J14,4*%
X45169800Y-70299900D03*
%TD*%
D12*
%TO.P,Q7,1*%
%TO.N,GATE5*%
X47400000Y-66950000D03*
%TO.P,Q7,2*%
%TO.N,GND*%
X47400000Y-65050000D03*
%TO.P,Q7,3*%
%TO.N,DRV5*%
X45400000Y-66000000D03*
%TD*%
D13*
%TO.P,LED1,1*%
%TO.N,+3V3*%
X51000100Y-16500000D03*
%TO.P,LED1,2*%
%TO.N,N/C*%
X53999900Y-16500000D03*
%TO.P,LED1,3*%
%TO.N,GND*%
X53999900Y-11500000D03*
%TO.P,LED1,4*%
%TO.N,RGB_R*%
X51000100Y-11500000D03*
%TD*%
D14*
%TO.P,LED2,1*%
%TO.N,+3V3*%
X56000000Y-29749900D03*
%TO.P,LED2,2*%
%TO.N,LED_PWR_K*%
X56000000Y-31250100D03*
%TD*%
D12*
%TO.P,Q14,1*%
%TO.N,GATE_V*%
X87000000Y-34950000D03*
%TO.P,Q14,2*%
%TO.N,GND*%
X87000000Y-33050000D03*
%TO.P,Q14,3*%
%TO.N,DRV_V*%
X85000000Y-34000000D03*
%TD*%
D15*
%TO.P,R14,1*%
%TO.N,+3V3*%
X27746600Y-31000000D03*
%TO.P,R14,2*%
%TO.N,STRAP3*%
X29253400Y-31000000D03*
%TD*%
D11*
%TO.P,J12,1*%
%TO.N,+5V*%
X28650100Y-77700100D03*
%TO.P,J12,2*%
%TO.N,DRV3*%
X26149900Y-77699900D03*
%TO.P,J12,3*%
%TO.N,N/C*%
X31630200Y-70300100D03*
%TO.P,J12,4*%
X23169800Y-70299900D03*
%TD*%
D16*
%TO.P,J5,1*%
%TO.N,+3V3*%
X98310000Y-74000100D03*
%TO.P,J5,2*%
%TO.N,GND*%
X95770000Y-73999900D03*
%TO.P,J5,3*%
%TO.N,S1_SDA*%
X93230000Y-73999900D03*
%TO.P,J5,4*%
%TO.N,S1_SCL*%
X90690000Y-73999900D03*
%TD*%
D17*
%TO.P,D13,1*%
%TO.N,+5V*%
X82964900Y-34000000D03*
%TO.P,D13,2*%
%TO.N,DRV_V*%
X79035100Y-34000000D03*
%TD*%
D18*
%TO.P,C15,1*%
%TO.N,+5V*%
X34500000Y-52275000D03*
%TO.P,C15,2*%
%TO.N,GND*%
X34500000Y-50725000D03*
%TD*%
D14*
%TO.P,LED5,1*%
%TO.N,+3V3*%
X68003400Y-44799500D03*
%TO.P,LED5,2*%
%TO.N,LED_RX_K*%
X67996600Y-43200500D03*
%TD*%
D18*
%TO.P,C6,1*%
%TO.N,BUCK_SS*%
X18500000Y-45775000D03*
%TO.P,C6,2*%
%TO.N,GND*%
X18500000Y-44225000D03*
%TD*%
D19*
%TO.P,R36,1*%
%TO.N,+3V3*%
X64000000Y-40353400D03*
%TO.P,R36,2*%
%TO.N,S3_SCL*%
X64000000Y-38846600D03*
%TD*%
D10*
%TO.P,TP1,1*%
%TO.N,+3V3*%
X58500000Y-21500000D03*
%TD*%
D19*
%TO.P,R59,1*%
%TO.N,GATE_S*%
X86500000Y-19253400D03*
%TO.P,R59,2*%
%TO.N,GND*%
X86500000Y-17746600D03*
%TD*%
D11*
%TO.P,J17,1*%
%TO.N,+5V*%
X83650100Y-77700100D03*
%TO.P,J17,2*%
%TO.N,DRV8*%
X81149900Y-77699900D03*
%TO.P,J17,3*%
%TO.N,N/C*%
X86630200Y-70300100D03*
%TO.P,J17,4*%
X78169800Y-70299900D03*
%TD*%
D19*
%TO.P,R53,1*%
%TO.N,GATE7*%
X74900000Y-61753400D03*
%TO.P,R53,2*%
%TO.N,GND*%
X74900000Y-60246600D03*
%TD*%
%TO.P,R1,1*%
%TO.N,CC1*%
X90500000Y-9753400D03*
%TO.P,R1,2*%
%TO.N,GND*%
X90500000Y-8246600D03*
%TD*%
D15*
%TO.P,R22,1*%
%TO.N,+3V3*%
X65746600Y-26000000D03*
%TO.P,R22,2*%
%TO.N,RTS_R*%
X67253400Y-26000000D03*
%TD*%
D12*
%TO.P,Q10,1*%
%TO.N,GATE8*%
X80400000Y-66950000D03*
%TO.P,Q10,2*%
%TO.N,GND*%
X80400000Y-65050000D03*
%TO.P,Q10,3*%
%TO.N,DRV8*%
X78400000Y-66000000D03*
%TD*%
D16*
%TO.P,J7,1*%
%TO.N,+3V3*%
X80890000Y-3999900D03*
%TO.P,J7,2*%
%TO.N,GND*%
X83430000Y-4000100D03*
%TO.P,J7,3*%
%TO.N,S3_SDA*%
X85970000Y-4000100D03*
%TO.P,J7,4*%
%TO.N,S3_SCL*%
X88510000Y-4000100D03*
%TD*%
D11*
%TO.P,J11,1*%
%TO.N,+5V*%
X17650099Y-77700100D03*
%TO.P,J11,2*%
%TO.N,DRV2*%
X15149899Y-77699900D03*
%TO.P,J11,3*%
%TO.N,N/C*%
X20630199Y-70300100D03*
%TO.P,J11,4*%
X12169799Y-70299900D03*
%TD*%
D20*
%TO.P,C11,1*%
%TO.N,+3V3*%
X76225000Y-51500000D03*
%TO.P,C11,2*%
%TO.N,GND*%
X77775000Y-51500000D03*
%TD*%
D21*
%TO.P,C1,1*%
%TO.N,+5V*%
X28407400Y-33500000D03*
%TO.P,C1,2*%
%TO.N,GND*%
X31592600Y-33500000D03*
%TD*%
D19*
%TO.P,R31,1*%
%TO.N,+3V3*%
X60000000Y-40353400D03*
%TO.P,R31,2*%
%TO.N,S3_SDA*%
X60000000Y-38846600D03*
%TD*%
D15*
%TO.P,R8,1*%
%TO.N,+3V3*%
X51246600Y-27000000D03*
%TO.P,R8,2*%
%TO.N,I2C_SDA*%
X52753400Y-27000000D03*
%TD*%
D22*
%TO.P,J20,1*%
%TO.N,+5V*%
X97700100Y-16249900D03*
%TO.P,J20,2*%
%TO.N,DRV_S*%
X97699900Y-18750100D03*
%TO.P,J20,3*%
%TO.N,N/C*%
X90300100Y-13269800D03*
%TO.P,J20,4*%
X90299900Y-21730200D03*
%TD*%
D17*
%TO.P,D5,1*%
%TO.N,+5V*%
X20864900Y-66000000D03*
%TO.P,D5,2*%
%TO.N,DRV2*%
X16935100Y-66000000D03*
%TD*%
D19*
%TO.P,R6,1*%
%TO.N,COMP*%
X18500000Y-50753400D03*
%TO.P,R6,2*%
%TO.N,COMP_RC*%
X18500000Y-49246600D03*
%TD*%
D10*
%TO.P,TP10,1*%
%TO.N,DRV1*%
X14500000Y-57000000D03*
%TD*%
D15*
%TO.P,R21,1*%
%TO.N,+3V3*%
X61246600Y-26000000D03*
%TO.P,R21,2*%
%TO.N,DTR_R*%
X62753400Y-26000000D03*
%TD*%
D20*
%TO.P,C3,1*%
%TO.N,COMP_RC*%
X21225000Y-53000000D03*
%TO.P,C3,2*%
%TO.N,GND*%
X22775000Y-53000000D03*
%TD*%
D14*
%TO.P,LED3,1*%
%TO.N,LED_USER*%
X50500100Y-30749000D03*
%TO.P,LED3,2*%
%TO.N,LED_USER_K*%
X50499900Y-29251000D03*
%TD*%
D23*
%TO.P,Q11,1*%
%TO.N,DTR_R*%
X72950000Y-27036300D03*
%TO.P,Q11,2*%
%TO.N,GND*%
X71050000Y-27036300D03*
%TO.P,Q11,3*%
%TO.N,EN*%
X72000000Y-28963700D03*
%TD*%
D17*
%TO.P,D14,1*%
%TO.N,+5V*%
X82964900Y-45000000D03*
%TO.P,D14,2*%
%TO.N,DRV_F*%
X79035100Y-45000000D03*
%TD*%
D19*
%TO.P,R46,1*%
%TO.N,IO21*%
X78900000Y-61753400D03*
%TO.P,R46,2*%
%TO.N,GATE8*%
X78900000Y-60246600D03*
%TD*%
D16*
%TO.P,J19,1*%
%TO.N,LED_USER*%
X67590000Y-3999900D03*
%TO.P,J19,2*%
%TO.N,+3V3*%
X70130000Y-4000100D03*
%TO.P,J19,3*%
%TO.N,GND*%
X72670000Y-4000100D03*
%TO.P,J19,4*%
%TO.N,BTN_USER*%
X75210000Y-4000100D03*
%TD*%
D19*
%TO.P,R55,1*%
%TO.N,IO15*%
X80000000Y-19253400D03*
%TO.P,R55,2*%
%TO.N,GATE_S*%
X80000000Y-17746600D03*
%TD*%
D10*
%TO.P,TP8,1*%
%TO.N,I2C_SCL*%
X47000000Y-31500000D03*
%TD*%
D11*
%TO.P,J13,1*%
%TO.N,+5V*%
X39650100Y-77700100D03*
%TO.P,J13,2*%
%TO.N,DRV4*%
X37149900Y-77699900D03*
%TO.P,J13,3*%
%TO.N,N/C*%
X42630200Y-70300100D03*
%TO.P,J13,4*%
X34169800Y-70299900D03*
%TD*%
D24*
%TO.P,C8,1*%
%TO.N,+3V3*%
X56000000Y-49092600D03*
%TO.P,C8,2*%
%TO.N,GND*%
X56000000Y-45907400D03*
%TD*%
D19*
%TO.P,R62,1*%
%TO.N,GATE_PUMP*%
X86500000Y-52253400D03*
%TO.P,R62,2*%
%TO.N,GND*%
X86500000Y-50746600D03*
%TD*%
%TO.P,R60,1*%
%TO.N,GATE_V*%
X86500000Y-30253400D03*
%TO.P,R60,2*%
%TO.N,GND*%
X86500000Y-28746600D03*
%TD*%
D23*
%TO.P,Q12,1*%
%TO.N,RTS_R*%
X72950000Y-33036300D03*
%TO.P,Q12,2*%
%TO.N,GND*%
X71050000Y-33036300D03*
%TO.P,Q12,3*%
%TO.N,BOOT*%
X72000000Y-34963700D03*
%TD*%
D15*
%TO.P,R13,1*%
%TO.N,+3V3*%
X23246600Y-31000000D03*
%TO.P,R13,2*%
%TO.N,BOOT*%
X24753400Y-31000000D03*
%TD*%
D19*
%TO.P,R25,1*%
%TO.N,LED_TX_K*%
X68000000Y-39753400D03*
%TO.P,R25,2*%
%TO.N,CH_TX*%
X68000000Y-38246600D03*
%TD*%
%TO.P,R30,1*%
%TO.N,+3V3*%
X60000000Y-35553400D03*
%TO.P,R30,2*%
%TO.N,S2_SDA*%
X60000000Y-34046600D03*
%TD*%
%TO.P,R45,1*%
%TO.N,IO12*%
X67900000Y-61753400D03*
%TO.P,R45,2*%
%TO.N,GATE7*%
X67900000Y-60246600D03*
%TD*%
D17*
%TO.P,D8,1*%
%TO.N,+5V*%
X53864900Y-66000000D03*
%TO.P,D8,2*%
%TO.N,DRV5*%
X49935100Y-66000000D03*
%TD*%
D19*
%TO.P,R39,1*%
%TO.N,IO4*%
X1900000Y-61753400D03*
%TO.P,R39,2*%
%TO.N,GATE1*%
X1900000Y-60246600D03*
%TD*%
D16*
%TO.P,J8,1*%
%TO.N,+3V3*%
X4999900Y-42310000D03*
%TO.P,J8,2*%
%TO.N,GND*%
X5000100Y-39770000D03*
%TO.P,J8,3*%
%TO.N,S4_SDA*%
X5000100Y-37230000D03*
%TO.P,J8,4*%
%TO.N,S4_SCL*%
X5000100Y-34690000D03*
%TD*%
D19*
%TO.P,R24,1*%
%TO.N,LED_USER_K*%
X48500000Y-35753400D03*
%TO.P,R24,2*%
%TO.N,GND*%
X48500000Y-34246600D03*
%TD*%
D24*
%TO.P,C17,1*%
%TO.N,+5V*%
X16000000Y-25592600D03*
%TO.P,C17,2*%
%TO.N,GND*%
X16000000Y-22407400D03*
%TD*%
D12*
%TO.P,Q5,1*%
%TO.N,GATE3*%
X25400000Y-66950000D03*
%TO.P,Q5,2*%
%TO.N,GND*%
X25400000Y-65050000D03*
%TO.P,Q5,3*%
%TO.N,DRV3*%
X23400000Y-66000000D03*
%TD*%
%TO.P,Q15,1*%
%TO.N,GATE_F*%
X87000000Y-45950000D03*
%TO.P,Q15,2*%
%TO.N,GND*%
X87000000Y-44050000D03*
%TO.P,Q15,3*%
%TO.N,DRV_F*%
X85000000Y-45000000D03*
%TD*%
D19*
%TO.P,R56,1*%
%TO.N,IO16*%
X80000000Y-30253400D03*
%TO.P,R56,2*%
%TO.N,GATE_V*%
X80000000Y-28746600D03*
%TD*%
D17*
%TO.P,D12,1*%
%TO.N,+5V*%
X82964900Y-23000000D03*
%TO.P,D12,2*%
%TO.N,DRV_S*%
X79035100Y-23000000D03*
%TD*%
D20*
%TO.P,C14,1*%
%TO.N,EN*%
X5725000Y-13000000D03*
%TO.P,C14,2*%
%TO.N,GND*%
X7275000Y-13000000D03*
%TD*%
D10*
%TO.P,TP4,1*%
%TO.N,GND*%
X45000000Y-57500000D03*
%TD*%
D15*
%TO.P,R19,1*%
%TO.N,DTR*%
X61246600Y-22000000D03*
%TO.P,R19,2*%
%TO.N,DTR_R*%
X62753400Y-22000000D03*
%TD*%
D19*
%TO.P,R26,1*%
%TO.N,LED_RX_K*%
X68000000Y-53753400D03*
%TO.P,R26,2*%
%TO.N,CH_RX*%
X68000000Y-52246600D03*
%TD*%
%TO.P,R57,1*%
%TO.N,IO17*%
X80000000Y-41253400D03*
%TO.P,R57,2*%
%TO.N,GATE_F*%
X80000000Y-39746600D03*
%TD*%
%TO.P,R4,1*%
%TO.N,+3V3*%
X52500000Y-42753400D03*
%TO.P,R4,2*%
%TO.N,FB*%
X52500000Y-41246600D03*
%TD*%
D20*
%TO.P,C13,1*%
%TO.N,+3V3*%
X57225000Y-17500000D03*
%TO.P,C13,2*%
%TO.N,GND*%
X58775000Y-17500000D03*
%TD*%
D24*
%TO.P,C7,1*%
%TO.N,+3V3*%
X56000000Y-42092600D03*
%TO.P,C7,2*%
%TO.N,GND*%
X56000000Y-38907400D03*
%TD*%
D12*
%TO.P,Q6,1*%
%TO.N,GATE4*%
X36400000Y-66950000D03*
%TO.P,Q6,2*%
%TO.N,GND*%
X36400000Y-65050000D03*
%TO.P,Q6,3*%
%TO.N,DRV4*%
X34400000Y-66000000D03*
%TD*%
D19*
%TO.P,R38,1*%
%TO.N,+3V3*%
X64000000Y-49953400D03*
%TO.P,R38,2*%
%TO.N,S5_SCL*%
X64000000Y-48446600D03*
%TD*%
%TO.P,R3,1*%
%TO.N,+5V*%
X21000000Y-34753400D03*
%TO.P,R3,2*%
%TO.N,BUCK_EN*%
X21000000Y-33246600D03*
%TD*%
D10*
%TO.P,TP12,1*%
%TO.N,EN*%
X2800000Y-11000000D03*
%TD*%
%TO.P,TP9,1*%
%TO.N,GATE1*%
X12000000Y-57500000D03*
%TD*%
D17*
%TO.P,D7,1*%
%TO.N,+5V*%
X42864900Y-66000000D03*
%TO.P,D7,2*%
%TO.N,DRV4*%
X38935100Y-66000000D03*
%TD*%
D15*
%TO.P,R9,1*%
%TO.N,+3V3*%
X55746600Y-27000000D03*
%TO.P,R9,2*%
%TO.N,I2C_SCL*%
X57253400Y-27000000D03*
%TD*%
D19*
%TO.P,R63,1*%
%TO.N,P5_CC1*%
X11000000Y-15253400D03*
%TO.P,R63,2*%
%TO.N,GND*%
X11000000Y-13746600D03*
%TD*%
%TO.P,R50,1*%
%TO.N,GATE4*%
X41900000Y-61753400D03*
%TO.P,R50,2*%
%TO.N,GND*%
X41900000Y-60246600D03*
%TD*%
D17*
%TO.P,D10,1*%
%TO.N,+5V*%
X75864900Y-66000000D03*
%TO.P,D10,2*%
%TO.N,DRV7*%
X71935100Y-66000000D03*
%TD*%
D15*
%TO.P,R7,1*%
%TO.N,+3V3*%
X15746600Y-19000000D03*
%TO.P,R7,2*%
%TO.N,EN*%
X17253400Y-19000000D03*
%TD*%
D17*
%TO.P,D4,1*%
%TO.N,+5V*%
X9864900Y-66000000D03*
%TO.P,D4,2*%
%TO.N,DRV1*%
X5935100Y-66000000D03*
%TD*%
D25*
%TO.P,D3,1*%
%TO.N,PH*%
X37800100Y-51500000D03*
%TO.P,D3,2*%
%TO.N,GND*%
X42199900Y-51500000D03*
%TD*%
D19*
%TO.P,R64,1*%
%TO.N,P5_CC2*%
X11000000Y-24253400D03*
%TO.P,R64,2*%
%TO.N,GND*%
X11000000Y-22746600D03*
%TD*%
D12*
%TO.P,Q8,1*%
%TO.N,GATE6*%
X58400000Y-66950000D03*
%TO.P,Q8,2*%
%TO.N,GND*%
X58400000Y-65050000D03*
%TO.P,Q8,3*%
%TO.N,DRV6*%
X56400000Y-66000000D03*
%TD*%
D19*
%TO.P,R18,1*%
%TO.N,USB_DN*%
X69000000Y-17253400D03*
%TO.P,R18,2*%
%TO.N,USB_DN_CH*%
X69000000Y-15746600D03*
%TD*%
%TO.P,R51,1*%
%TO.N,GATE5*%
X52900000Y-61753400D03*
%TO.P,R51,2*%
%TO.N,GND*%
X52900000Y-60246600D03*
%TD*%
%TO.P,R27,1*%
%TO.N,+3V3*%
X45500000Y-35253400D03*
%TO.P,R27,2*%
%TO.N,BTN_USER*%
X45500000Y-33746600D03*
%TD*%
D10*
%TO.P,TP7,1*%
%TO.N,I2C_SDA*%
X43500000Y-31500000D03*
%TD*%
D12*
%TO.P,Q3,1*%
%TO.N,GATE1*%
X3400000Y-66950000D03*
%TO.P,Q3,2*%
%TO.N,GND*%
X3400000Y-65050000D03*
%TO.P,Q3,3*%
%TO.N,DRV1*%
X1400000Y-66000000D03*
%TD*%
D16*
%TO.P,J9,1*%
%TO.N,+3V3*%
X40990000Y-3999900D03*
%TO.P,J9,2*%
%TO.N,GND*%
X43530000Y-4000100D03*
%TO.P,J9,3*%
%TO.N,S5_SDA*%
X46070000Y-4000100D03*
%TO.P,J9,4*%
%TO.N,S5_SCL*%
X48610000Y-4000100D03*
%TD*%
D19*
%TO.P,R54,1*%
%TO.N,GATE8*%
X85900000Y-61753400D03*
%TO.P,R54,2*%
%TO.N,GND*%
X85900000Y-60246600D03*
%TD*%
D24*
%TO.P,C9,1*%
%TO.N,+3V3*%
X63000000Y-56592600D03*
%TO.P,C9,2*%
%TO.N,GND*%
X63000000Y-53407400D03*
%TD*%
D26*
%TO.P,SW1,1*%
%TO.N,EN*%
X5825000Y-8500000D03*
%TO.P,SW1,2*%
%TO.N,GND*%
X10175000Y-8500000D03*
%TD*%
D27*
%TO.P,J1,1*%
%TO.N,GND*%
X2669300Y-14674800D03*
D28*
%TO.P,J1,2*%
X6849100Y-14674800D03*
%TO.P,J1,3*%
X6849100Y-23325200D03*
D27*
%TO.P,J1,4*%
X2669300Y-23325200D03*
D29*
%TO.P,J1,A1B12*%
X1901000Y-22199900D03*
D30*
%TO.P,J1,A4B9*%
%TO.N,+5V*%
X1901000Y-21400000D03*
D31*
%TO.P,J1,A5*%
%TO.N,P5_CC1*%
X1901000Y-20249900D03*
%TO.P,J1,A6*%
%TO.N,N/C*%
X1901000Y-19249900D03*
%TO.P,J1,A7*%
X1901000Y-18750100D03*
%TO.P,J1,A8*%
X1901000Y-17750300D03*
D32*
%TO.P,J1,B1A12*%
%TO.N,GND*%
X1901000Y-15799900D03*
%TO.P,J1,B4A9*%
%TO.N,+5V*%
X1901000Y-16599700D03*
D31*
%TO.P,J1,B5*%
%TO.N,P5_CC2*%
X1901000Y-17249900D03*
%TO.P,J1,B6*%
%TO.N,N/C*%
X1901000Y-18249900D03*
%TO.P,J1,B7*%
X1901000Y-19750100D03*
%TO.P,J1,B8*%
X1901000Y-20750100D03*
%TD*%
D12*
%TO.P,Q13,1*%
%TO.N,GATE_S*%
X87000000Y-23950000D03*
%TO.P,Q13,2*%
%TO.N,GND*%
X87000000Y-22050000D03*
%TO.P,Q13,3*%
%TO.N,DRV_S*%
X85000000Y-23000000D03*
%TD*%
D19*
%TO.P,R41,1*%
%TO.N,IO6*%
X23900000Y-61753400D03*
%TO.P,R41,2*%
%TO.N,GATE3*%
X23900000Y-60246600D03*
%TD*%
%TO.P,R52,1*%
%TO.N,GATE6*%
X63900000Y-61753400D03*
%TO.P,R52,2*%
%TO.N,GND*%
X63900000Y-60246600D03*
%TD*%
D20*
%TO.P,C4,1*%
%TO.N,COMP_RC*%
X26225000Y-54000000D03*
%TO.P,C4,2*%
%TO.N,GND*%
X27775000Y-54000000D03*
%TD*%
D19*
%TO.P,R58,1*%
%TO.N,IO18*%
X80000000Y-52253400D03*
%TO.P,R58,2*%
%TO.N,GATE_PUMP*%
X80000000Y-50746600D03*
%TD*%
D11*
%TO.P,J16,1*%
%TO.N,+5V*%
X72650100Y-77700100D03*
%TO.P,J16,2*%
%TO.N,DRV7*%
X70149900Y-77699900D03*
%TO.P,J16,3*%
%TO.N,N/C*%
X75630200Y-70300100D03*
%TO.P,J16,4*%
X67169800Y-70299900D03*
%TD*%
D19*
%TO.P,R11,1*%
%TO.N,CH_RX*%
X76500000Y-35253400D03*
%TO.P,R11,2*%
%TO.N,UART_TX*%
X76500000Y-33746600D03*
%TD*%
D15*
%TO.P,R15,1*%
%TO.N,GND*%
X33246600Y-31000000D03*
%TO.P,R15,2*%
%TO.N,STRAP45*%
X34753400Y-31000000D03*
%TD*%
D17*
%TO.P,D9,1*%
%TO.N,+5V*%
X64864900Y-66000000D03*
%TO.P,D9,2*%
%TO.N,DRV6*%
X60935100Y-66000000D03*
%TD*%
D33*
%TO.P,L1,1*%
%TO.N,PH*%
X45878100Y-43000000D03*
%TO.P,L1,2*%
%TO.N,+3V3*%
X36121900Y-43000000D03*
%TD*%
D19*
%TO.P,R43,1*%
%TO.N,IO10*%
X45900000Y-61753400D03*
%TO.P,R43,2*%
%TO.N,GATE5*%
X45900000Y-60246600D03*
%TD*%
D22*
%TO.P,J23,1*%
%TO.N,+5V*%
X97700100Y-49249900D03*
%TO.P,J23,2*%
%TO.N,DRV_PUMP*%
X97699900Y-51750100D03*
%TO.P,J23,3*%
%TO.N,N/C*%
X90300100Y-46269800D03*
%TO.P,J23,4*%
X90299900Y-54730200D03*
%TD*%
D20*
%TO.P,C12,1*%
%TO.N,+3V3*%
X78725000Y-27000000D03*
%TO.P,C12,2*%
%TO.N,GND*%
X80275000Y-27000000D03*
%TD*%
D19*
%TO.P,R23,1*%
%TO.N,LED_PWR_K*%
X56000000Y-35753400D03*
%TO.P,R23,2*%
%TO.N,GND*%
X56000000Y-34246600D03*
%TD*%
D16*
%TO.P,J6,1*%
%TO.N,+3V3*%
X4999900Y-55810000D03*
%TO.P,J6,2*%
%TO.N,GND*%
X5000100Y-53270000D03*
%TO.P,J6,3*%
%TO.N,S2_SDA*%
X5000100Y-50730000D03*
%TO.P,J6,4*%
%TO.N,S2_SCL*%
X5000100Y-48190000D03*
%TD*%
D19*
%TO.P,R17,1*%
%TO.N,USB_DP*%
X69000000Y-13253400D03*
%TO.P,R17,2*%
%TO.N,USB_DP_CH*%
X69000000Y-11746600D03*
%TD*%
D17*
%TO.P,D15,1*%
%TO.N,+5V*%
X82964900Y-56000000D03*
%TO.P,D15,2*%
%TO.N,DRV_PUMP*%
X79035100Y-56000000D03*
%TD*%
D34*
%TO.P,J2,7*%
%TO.N,GND*%
X98300000Y-1680100D03*
X94499900Y-1680100D03*
X98300000Y-10319900D03*
X94499900Y-10319900D03*
D35*
%TO.P,J2,A5*%
%TO.N,CC1*%
X98550000Y-5500000D03*
%TO.P,J2,A9*%
%TO.N,USB_VBUS*%
X98550000Y-7500000D03*
D36*
%TO.P,J2,A12*%
%TO.N,GND*%
X98550000Y-8699900D03*
D35*
%TO.P,J2,B5*%
%TO.N,CC2*%
X98550000Y-6500000D03*
%TO.P,J2,B9*%
%TO.N,USB_VBUS*%
X98550000Y-4500000D03*
D36*
%TO.P,J2,B12*%
%TO.N,GND*%
X98550000Y-3300100D03*
%TD*%
D19*
%TO.P,R48,1*%
%TO.N,GATE2*%
X19900000Y-61753400D03*
%TO.P,R48,2*%
%TO.N,GND*%
X19900000Y-60246600D03*
%TD*%
D10*
%TO.P,TP13,1*%
%TO.N,DRV_PUMP*%
X90500000Y-63000000D03*
%TD*%
D19*
%TO.P,R34,1*%
%TO.N,+3V3*%
X64000000Y-30753400D03*
%TO.P,R34,2*%
%TO.N,S1_SCL*%
X64000000Y-29246600D03*
%TD*%
%TO.P,R42,1*%
%TO.N,IO7*%
X34900000Y-61753400D03*
%TO.P,R42,2*%
%TO.N,GATE4*%
X34900000Y-60246600D03*
%TD*%
D20*
%TO.P,C18,1*%
%TO.N,+3V3*%
X41225000Y-29000000D03*
%TO.P,C18,2*%
%TO.N,GND*%
X42775000Y-29000000D03*
%TD*%
D19*
%TO.P,R35,1*%
%TO.N,+3V3*%
X64000000Y-35553400D03*
%TO.P,R35,2*%
%TO.N,S2_SCL*%
X64000000Y-34046600D03*
%TD*%
D11*
%TO.P,J15,1*%
%TO.N,+5V*%
X61650100Y-77700100D03*
%TO.P,J15,2*%
%TO.N,DRV6*%
X59149900Y-77699900D03*
%TO.P,J15,3*%
%TO.N,N/C*%
X64630200Y-70300100D03*
%TO.P,J15,4*%
X56169800Y-70299900D03*
%TD*%
%TO.P,J10,1*%
%TO.N,+5V*%
X6650100Y-77700100D03*
%TO.P,J10,2*%
%TO.N,DRV1*%
X4149900Y-77699900D03*
%TO.P,J10,3*%
%TO.N,N/C*%
X9630200Y-70300100D03*
%TO.P,J10,4*%
X1169800Y-70299900D03*
%TD*%
D19*
%TO.P,R2,1*%
%TO.N,CC2*%
X83000000Y-19753400D03*
%TO.P,R2,2*%
%TO.N,GND*%
X83000000Y-18246600D03*
%TD*%
D12*
%TO.P,Q4,1*%
%TO.N,GATE2*%
X14399999Y-66950000D03*
%TO.P,Q4,2*%
%TO.N,GND*%
X14399999Y-65050000D03*
%TO.P,Q4,3*%
%TO.N,DRV2*%
X12399999Y-66000000D03*
%TD*%
D19*
%TO.P,R28,1*%
%TO.N,+3V3*%
X57000000Y-57753400D03*
%TO.P,R28,2*%
%TO.N,TCA_RST*%
X57000000Y-56246600D03*
%TD*%
D14*
%TO.P,LED4,1*%
%TO.N,+3V3*%
X68003400Y-34799500D03*
%TO.P,LED4,2*%
%TO.N,LED_TX_K*%
X67996600Y-33200500D03*
%TD*%
D20*
%TO.P,C10,1*%
%TO.N,+3V3*%
X42225000Y-14000000D03*
%TO.P,C10,2*%
%TO.N,GND*%
X43775000Y-14000000D03*
%TD*%
D19*
%TO.P,R33,1*%
%TO.N,+3V3*%
X60000000Y-49953400D03*
%TO.P,R33,2*%
%TO.N,S5_SDA*%
X60000000Y-48446600D03*
%TD*%
%TO.P,R5,1*%
%TO.N,FB*%
X52500000Y-47753400D03*
%TO.P,R5,2*%
%TO.N,GND*%
X52500000Y-46246600D03*
%TD*%
D37*
%TO.P,U5,1*%
%TO.N,USB_DP*%
X73550000Y-15149100D03*
%TO.P,U5,2*%
%TO.N,GND*%
X74500000Y-15149100D03*
%TO.P,U5,3*%
%TO.N,USB_DN*%
X75450000Y-15149100D03*
%TO.P,U5,4*%
X75450000Y-12850900D03*
%TO.P,U5,5*%
%TO.N,USB_VBUS*%
X74500000Y-12850900D03*
%TO.P,U5,6*%
%TO.N,USB_DP*%
X73550000Y-12850900D03*
%TD*%
D15*
%TO.P,R16,1*%
%TO.N,+3V3*%
X38246600Y-31000000D03*
%TO.P,R16,2*%
%TO.N,STRAP46*%
X39753400Y-31000000D03*
%TD*%
D19*
%TO.P,R49,1*%
%TO.N,GATE3*%
X30900000Y-61753400D03*
%TO.P,R49,2*%
%TO.N,GND*%
X30900000Y-60246600D03*
%TD*%
D16*
%TO.P,J18,1*%
%TO.N,UART_TX*%
X54290000Y-3999900D03*
%TO.P,J18,2*%
%TO.N,GND*%
X56830000Y-4000100D03*
%TO.P,J18,3*%
%TO.N,UART_RX*%
X59370000Y-4000100D03*
%TO.P,J18,4*%
%TO.N,+3V3*%
X61910000Y-4000100D03*
%TD*%
D19*
%TO.P,R47,1*%
%TO.N,GATE1*%
X8900000Y-61753400D03*
%TO.P,R47,2*%
%TO.N,GND*%
X8900000Y-60246600D03*
%TD*%
D15*
%TO.P,R20,1*%
%TO.N,RTS*%
X65746600Y-22000000D03*
%TO.P,R20,2*%
%TO.N,RTS_R*%
X67253400Y-22000000D03*
%TD*%
D19*
%TO.P,R29,1*%
%TO.N,+3V3*%
X60000000Y-30753400D03*
%TO.P,R29,2*%
%TO.N,S1_SDA*%
X60000000Y-29246600D03*
%TD*%
D12*
%TO.P,Q9,1*%
%TO.N,GATE7*%
X69400000Y-66950000D03*
%TO.P,Q9,2*%
%TO.N,GND*%
X69400000Y-65050000D03*
%TO.P,Q9,3*%
%TO.N,DRV7*%
X67400000Y-66000000D03*
%TD*%
D38*
%TO.P,U6,1*%
%TO.N,N/C*%
X40020000Y-18190000D03*
%TO.P,U6,2*%
%TO.N,+3V3*%
X40020000Y-20730000D03*
%TO.P,U6,3*%
%TO.N,N/C*%
X40020000Y-23270000D03*
%TO.P,U6,4*%
X40020000Y-25810000D03*
%TO.P,U6,5*%
X47980000Y-25810000D03*
%TO.P,U6,6*%
%TO.N,I2C_SDA*%
X47980000Y-23270000D03*
%TO.P,U6,7*%
%TO.N,I2C_SCL*%
X47980000Y-20730000D03*
%TO.P,U6,8*%
%TO.N,GND*%
X47980000Y-18190000D03*
%TD*%
D26*
%TO.P,SW3,1*%
%TO.N,BTN_USER*%
X45825000Y-51000000D03*
%TO.P,SW3,2*%
%TO.N,GND*%
X50175000Y-51000000D03*
%TD*%
D17*
%TO.P,D11,1*%
%TO.N,+5V*%
X86864900Y-66000000D03*
%TO.P,D11,2*%
%TO.N,DRV8*%
X82935100Y-66000000D03*
%TD*%
D39*
%TO.P,U3,1*%
%TO.N,BOOT*%
X23095000Y-47705100D03*
%TO.P,U3,2*%
%TO.N,+5V*%
X24365000Y-47705100D03*
%TO.P,U3,3*%
%TO.N,BUCK_EN*%
X25635000Y-47705100D03*
%TO.P,U3,4*%
%TO.N,BUCK_SS*%
X26905000Y-47705100D03*
%TO.P,U3,5*%
%TO.N,FB*%
X26905000Y-42294900D03*
%TO.P,U3,6*%
%TO.N,COMP*%
X25635000Y-42294900D03*
%TO.P,U3,7*%
%TO.N,GND*%
X24365000Y-42294900D03*
%TO.P,U3,8*%
%TO.N,PH*%
X23095000Y-42294900D03*
%TD*%
D40*
%TO.P,U1,1*%
%TO.N,GND*%
X19250000Y-7455000D03*
%TO.P,U1,2*%
%TO.N,+3V3*%
X19250000Y-8725000D03*
%TO.P,U1,3*%
%TO.N,EN*%
X19250000Y-9995000D03*
%TO.P,U1,4*%
%TO.N,IO4*%
X19250000Y-11265000D03*
%TO.P,U1,5*%
%TO.N,IO5*%
X19250000Y-12535000D03*
%TO.P,U1,6*%
%TO.N,IO6*%
X19250000Y-13805000D03*
%TO.P,U1,7*%
%TO.N,IO7*%
X19250000Y-15075000D03*
%TO.P,U1,8*%
%TO.N,IO15*%
X19250000Y-16345000D03*
%TO.P,U1,9*%
%TO.N,IO16*%
X19250000Y-17615000D03*
%TO.P,U1,10*%
%TO.N,IO17*%
X19250000Y-18885000D03*
%TO.P,U1,11*%
%TO.N,IO18*%
X19250000Y-20155000D03*
%TO.P,U1,12*%
%TO.N,I2C_SDA*%
X19250000Y-21425000D03*
%TO.P,U1,13*%
%TO.N,N/C*%
X19250000Y-22695000D03*
%TO.P,U1,14*%
X19250000Y-23965000D03*
D41*
%TO.P,U1,15*%
%TO.N,STRAP3*%
X21015000Y-25245000D03*
%TO.P,U1,16*%
%TO.N,STRAP46*%
X22285000Y-25245000D03*
%TO.P,U1,17*%
%TO.N,I2C_SCL*%
X23555000Y-25245000D03*
%TO.P,U1,18*%
%TO.N,IO10*%
X24825000Y-25245000D03*
%TO.P,U1,19*%
%TO.N,IO11*%
X26095000Y-25245000D03*
%TO.P,U1,20*%
%TO.N,IO12*%
X27365000Y-25245000D03*
%TO.P,U1,21*%
%TO.N,LED_USER*%
X28635000Y-25245000D03*
%TO.P,U1,22*%
%TO.N,BTN_USER*%
X29905000Y-25245000D03*
%TO.P,U1,23*%
%TO.N,IO21*%
X31175000Y-25245000D03*
%TO.P,U1,24*%
%TO.N,N/C*%
X32445000Y-25245000D03*
%TO.P,U1,25*%
%TO.N,IO48*%
X33715000Y-25245000D03*
%TO.P,U1,26*%
%TO.N,STRAP45*%
X34985000Y-25215000D03*
D40*
%TO.P,U1,27*%
%TO.N,BOOT*%
X36750000Y-23965000D03*
%TO.P,U1,28*%
%TO.N,N/C*%
X36750000Y-22695000D03*
%TO.P,U1,29*%
X36750000Y-21425000D03*
%TO.P,U1,30*%
X36750000Y-20155000D03*
%TO.P,U1,31*%
X36750000Y-18885000D03*
%TO.P,U1,32*%
X36750000Y-17615000D03*
%TO.P,U1,33*%
X36750000Y-16345000D03*
%TO.P,U1,34*%
X36750000Y-15075000D03*
%TO.P,U1,35*%
X36750000Y-13805000D03*
%TO.P,U1,36*%
%TO.N,UART_RX*%
X36750000Y-12535000D03*
%TO.P,U1,37*%
%TO.N,UART_TX*%
X36750000Y-11265000D03*
%TO.P,U1,38*%
%TO.N,N/C*%
X36750000Y-9995000D03*
%TO.P,U1,39*%
X36750000Y-8725000D03*
%TO.P,U1,40*%
%TO.N,GND*%
X36750000Y-7455000D03*
D42*
%TO.P,U1,41*%
X25099800Y-13775100D03*
X25099800Y-15175100D03*
X25099800Y-16575200D03*
X26499900Y-13775100D03*
X26499900Y-15175100D03*
X26499900Y-16575200D03*
X27899900Y-13775100D03*
X27899900Y-15175100D03*
X27899900Y-16575200D03*
%TD*%
D19*
%TO.P,R32,1*%
%TO.N,+3V3*%
X60000000Y-45153400D03*
%TO.P,R32,2*%
%TO.N,S4_SDA*%
X60000000Y-43646600D03*
%TD*%
D18*
%TO.P,C5,1*%
%TO.N,BOOT*%
X31800000Y-42275000D03*
%TO.P,C5,2*%
%TO.N,PH*%
X31800000Y-40725000D03*
%TD*%
D12*
%TO.P,Q16,1*%
%TO.N,GATE_PUMP*%
X87000000Y-56950000D03*
%TO.P,Q16,2*%
%TO.N,GND*%
X87000000Y-55050000D03*
%TO.P,Q16,3*%
%TO.N,DRV_PUMP*%
X85000000Y-56000000D03*
%TD*%
D43*
%TO.P,U2,1*%
%TO.N,GND*%
X69925200Y-47022600D03*
%TO.P,U2,2*%
X70575200Y-47022600D03*
%TO.P,U2,3*%
%TO.N,TCA_RST*%
X71225200Y-47022600D03*
%TO.P,U2,4*%
%TO.N,S1_SDA*%
X71875200Y-47022600D03*
%TO.P,U2,5*%
%TO.N,S1_SCL*%
X72525100Y-47022600D03*
%TO.P,U2,6*%
%TO.N,S2_SDA*%
X73175100Y-47022600D03*
%TO.P,U2,7*%
%TO.N,S2_SCL*%
X73824900Y-47022600D03*
%TO.P,U2,8*%
%TO.N,S3_SDA*%
X74475100Y-47022600D03*
%TO.P,U2,9*%
%TO.N,S3_SCL*%
X75125100Y-47022600D03*
%TO.P,U2,10*%
%TO.N,S4_SDA*%
X75775100Y-47022600D03*
%TO.P,U2,11*%
%TO.N,S4_SCL*%
X76425100Y-47022600D03*
%TO.P,U2,12*%
%TO.N,GND*%
X77074800Y-47022600D03*
%TO.P,U2,13*%
%TO.N,S5_SDA*%
X77074800Y-40977400D03*
%TO.P,U2,14*%
%TO.N,S5_SCL*%
X76425100Y-40977400D03*
%TO.P,U2,15*%
%TO.N,N/C*%
X75775100Y-40977400D03*
%TO.P,U2,16*%
X75125100Y-40977400D03*
%TO.P,U2,17*%
X74475100Y-40977400D03*
%TO.P,U2,18*%
X73824900Y-40977400D03*
%TO.P,U2,19*%
X73175100Y-40977400D03*
%TO.P,U2,20*%
X72525100Y-40977400D03*
%TO.P,U2,21*%
%TO.N,GND*%
X71875200Y-40977400D03*
%TO.P,U2,22*%
%TO.N,I2C_SCL*%
X71225200Y-40977400D03*
%TO.P,U2,23*%
%TO.N,I2C_SDA*%
X70575200Y-40977400D03*
%TO.P,U2,24*%
%TO.N,+3V3*%
X69925200Y-40977400D03*
%TD*%
D10*
%TO.P,TP5,1*%
%TO.N,GND*%
X82000000Y-63000000D03*
%TD*%
D22*
%TO.P,J21,1*%
%TO.N,+5V*%
X97700100Y-27249900D03*
%TO.P,J21,2*%
%TO.N,DRV_V*%
X97699900Y-29750100D03*
%TO.P,J21,3*%
%TO.N,N/C*%
X90300100Y-24269800D03*
%TO.P,J21,4*%
X90299900Y-32730200D03*
%TD*%
D19*
%TO.P,R40,1*%
%TO.N,IO5*%
X12899999Y-61753400D03*
%TO.P,R40,2*%
%TO.N,GATE2*%
X12899999Y-60246600D03*
%TD*%
D10*
%TO.P,TP2,1*%
%TO.N,+5V*%
X14000000Y-33000000D03*
%TD*%
D19*
%TO.P,R12,1*%
%TO.N,IO48*%
X52500000Y-21253400D03*
%TO.P,R12,2*%
%TO.N,RGB_R*%
X52500000Y-19746600D03*
%TD*%
D26*
%TO.P,SW2,1*%
%TO.N,BOOT*%
X12825000Y-10500000D03*
%TO.P,SW2,2*%
%TO.N,GND*%
X17175000Y-10500000D03*
%TD*%
D10*
%TO.P,TP6,1*%
%TO.N,GND*%
X48500000Y-47500000D03*
%TD*%
D22*
%TO.P,J22,1*%
%TO.N,+5V*%
X97700100Y-38249900D03*
%TO.P,J22,2*%
%TO.N,DRV_F*%
X97699900Y-40750100D03*
%TO.P,J22,3*%
%TO.N,N/C*%
X90300100Y-35269800D03*
%TO.P,J22,4*%
X90299900Y-43730200D03*
%TD*%
D20*
%TO.P,C2,1*%
%TO.N,+5V*%
X29225000Y-38500000D03*
%TO.P,C2,2*%
%TO.N,GND*%
X30775000Y-38500000D03*
%TD*%
D19*
%TO.P,R10,1*%
%TO.N,CH_TX*%
X76500000Y-30753400D03*
%TO.P,R10,2*%
%TO.N,UART_RX*%
X76500000Y-29246600D03*
%TD*%
%TO.P,R37,1*%
%TO.N,+3V3*%
X64000000Y-45153400D03*
%TO.P,R37,2*%
%TO.N,S4_SCL*%
X64000000Y-43646600D03*
%TD*%
D37*
%TO.P,U7,1*%
%TO.N,P5_CC1*%
X11550000Y-20149100D03*
%TO.P,U7,2*%
%TO.N,GND*%
X12500000Y-20149100D03*
%TO.P,U7,3*%
%TO.N,P5_CC2*%
X13450000Y-20149100D03*
%TO.P,U7,4*%
X13450000Y-17850900D03*
%TO.P,U7,5*%
%TO.N,+5V*%
X12500000Y-17850900D03*
%TO.P,U7,6*%
%TO.N,P5_CC1*%
X11550000Y-17850900D03*
%TD*%
D19*
%TO.P,R44,1*%
%TO.N,IO11*%
X56900000Y-61753400D03*
%TO.P,R44,2*%
%TO.N,GATE6*%
X56900000Y-60246600D03*
%TD*%
D44*
%TO.P,U4,1*%
%TO.N,USB_DP_CH*%
X72500000Y-24249900D03*
%TO.P,U4,2*%
%TO.N,USB_DN_CH*%
X73500000Y-24249900D03*
%TO.P,U4,3*%
%TO.N,GND*%
X74500000Y-24249900D03*
%TO.P,U4,4*%
%TO.N,DTR*%
X75500000Y-24249900D03*
%TO.P,U4,5*%
%TO.N,N/C*%
X76500000Y-24249900D03*
%TO.P,U4,6*%
%TO.N,RTS*%
X76500000Y-18750100D03*
%TO.P,U4,7*%
%TO.N,+3V3*%
X75500000Y-18750100D03*
%TO.P,U4,8*%
%TO.N,CH_TX*%
X74500000Y-18750100D03*
%TO.P,U4,9*%
%TO.N,CH_RX*%
X73500000Y-18750100D03*
%TO.P,U4,10*%
%TO.N,+3V3*%
X72500000Y-18750100D03*
D45*
%TO.P,U4,11*%
%TO.N,GND*%
X74500000Y-21500100D03*
%TD*%
D17*
%TO.P,D6,1*%
%TO.N,+5V*%
X31864900Y-66000000D03*
%TO.P,D6,2*%
%TO.N,DRV3*%
X27935100Y-66000000D03*
%TD*%
D19*
%TO.P,R61,1*%
%TO.N,GATE_F*%
X86500000Y-41253400D03*
%TO.P,R61,2*%
%TO.N,GND*%
X86500000Y-39746600D03*
%TD*%
D25*
%TO.P,D2,1*%
%TO.N,+5V*%
X21800100Y-38500000D03*
%TO.P,D2,2*%
%TO.N,USB_VBUS*%
X26199900Y-38500000D03*
%TD*%
D20*
%TO.P,C16,1*%
%TO.N,+5V*%
X80725000Y-60500000D03*
%TO.P,C16,2*%
%TO.N,GND*%
X82275000Y-60500000D03*
%TD*%
D10*
%TO.P,TP3,1*%
%TO.N,GND*%
X34000000Y-57500000D03*
%TD*%
M02*
