M48
; DRILL file KiCad 10.0.6 date 2026-10-04T17:57:04
; FORMAT={-:-/ absolute / metric / decimal}
; #@! TF.CreationDate,2026-10-04T17:57:04+08:00
; #@! TF.GenerationSoftware,Kicad,Pcbnew,10.0.6
; #@! TF.FileFunction,MixedPlating,1,4
FMAT,2
METRIC
; #@! TA.AperFunction,Plated,PTH,ComponentDrill
T1C0.600
; #@! TA.AperFunction,Plated,PTH,ComponentDrill
T2C0.800
; #@! TA.AperFunction,Plated,PTH,ComponentDrill
T3C0.900
; #@! TA.AperFunction,NonPlated,NPTH,ComponentDrill
T4C0.600
; #@! TA.AperFunction,NonPlated,NPTH,ComponentDrill
T5C3.200
%
G90
G05
T3
X5.0Y-42.31
X5.0Y-55.81
X5.0Y-34.69
X5.0Y-37.23
X5.0Y-39.77
X5.0Y-48.19
X5.0Y-50.73
X5.0Y-53.27
X40.99Y-4.0
X43.53Y-4.0
X46.07Y-4.0
X48.61Y-4.0
X54.29Y-4.0
X56.83Y-4.0
X59.37Y-4.0
X61.91Y-4.0
X67.59Y-4.0
X70.13Y-4.0
X72.67Y-4.0
X75.21Y-4.0
X80.89Y-4.0
X83.43Y-4.0
X85.97Y-4.0
X88.51Y-4.0
X90.69Y-74.0
X93.23Y-74.0
X95.77Y-74.0
X98.31Y-74.0
T4
X3.169Y-16.1
X3.169Y-21.9
T5
X3.0Y-28.0
X3.4Y-3.4
X73.5Y-55.7
X83.0Y-12.5
T1
X94.15Y-1.68G85X94.85Y-1.68
G05
X94.15Y-10.32G85X94.85Y-10.32
G05
X97.95Y-1.68G85X98.65Y-1.68
G05
X97.95Y-10.32G85X98.65Y-10.32
G05
T2
X3.019Y-14.675G85X2.319Y-14.675
G05
X3.019Y-23.325G85X2.319Y-23.325
G05
X7.049Y-14.675G85X6.649Y-14.675
G05
X7.049Y-23.325G85X6.649Y-23.325
G05
M30
