%TF.GenerationSoftware,KiCad,Pcbnew,10.0.6*%
%TF.CreationDate,2026-10-05T03:03:15+08:00*%
%TF.ProjectId,flowio-p1,666c6f77-696f-42d7-9031-2e6b69636164,rev?*%
%TF.SameCoordinates,Original*%
%TF.FileFunction,Soldermask,Top*%
%TF.FilePolarity,Negative*%
%FSLAX46Y46*%
G04 Gerber Fmt 4.6, Leading zero omitted, Abs format (unit mm)*
G04 Created by KiCad (PCBNEW 10.0.6) date 2026-10-05 03:03:15*
%MOMM*%
%LPD*%
G01*
G04 APERTURE LIST*
G04 Aperture macros list*
%AMRoundRect*
0 Rectangle with rounded corners*
0 $1 Rounding radius*
0 $2 $3 $4 $5 $6 $7 $8 $9 X,Y pos of 4 corners*
0 Add a 4 corners polygon primitive as box body*
4,1,4,$2,$3,$4,$5,$6,$7,$8,$9,$2,$3,0*
0 Add four circle primitives for the rounded corners*
1,1,$1+$1,$2,$3*
1,1,$1+$1,$4,$5*
1,1,$1+$1,$6,$7*
1,1,$1+$1,$8,$9*
0 Add four rect primitives between the rounded corners*
20,1,$1+$1,$2,$3,$4,$5,0*
20,1,$1+$1,$4,$5,$6,$7,0*
20,1,$1+$1,$6,$7,$8,$9,0*
20,1,$1+$1,$8,$9,$2,$3,0*%
%AMFreePoly0*
4,1,29,0.478316,0.594867,0.629610,0.554328,0.765257,0.476012,0.876012,0.365257,0.954328,0.229610,0.994867,0.078316,0.994867,-0.078316,0.954328,-0.229610,0.876012,-0.365257,0.765257,-0.476012,0.629610,-0.554328,0.478316,-0.594867,0.400000,-0.600000,-0.400000,-0.600000,-0.478316,-0.594867,-0.629610,-0.554328,-0.765257,-0.476012,-0.876012,-0.365257,-0.954328,-0.229610,-0.994867,-0.078316,
-0.994867,0.078316,-0.954328,0.229610,-0.876012,0.365257,-0.765257,0.476012,-0.629610,0.554328,-0.478316,0.594867,-0.400000,0.600000,0.400000,0.600000,0.478316,0.594867,0.478316,0.594867,$1*%
%AMFreePoly1*
4,1,29,0.378316,0.594867,0.529610,0.554328,0.665257,0.476012,0.776012,0.365257,0.854328,0.229610,0.894867,0.078316,0.894867,-0.078316,0.854328,-0.229610,0.776012,-0.365257,0.665257,-0.476012,0.529610,-0.554328,0.378316,-0.594867,0.300000,-0.600000,-0.300000,-0.600000,-0.378316,-0.594867,-0.529610,-0.554328,-0.665257,-0.476012,-0.776012,-0.365257,-0.854328,-0.229610,-0.894867,-0.078316,
-0.894867,0.078316,-0.854328,0.229610,-0.776012,0.365257,-0.665257,0.476012,-0.529610,0.554328,-0.378316,0.594867,-0.300000,0.600000,0.300000,0.600000,0.378316,0.594867,0.378316,0.594867,$1*%
%AMFreePoly2*
4,1,9,0.299900,-0.649900,-0.000100,-0.649900,-0.000100,-0.650100,-0.300100,-0.650100,-0.300100,0.649900,-0.000100,0.649900,-0.000100,0.650100,0.299900,0.650100,0.299900,-0.649900,0.299900,-0.649900,$1*%
%AMFreePoly3*
4,1,7,0.300100,-0.650000,0.000100,-0.650000,0.000100,-0.650100,-0.299900,-0.650100,-0.299900,0.649900,0.300100,0.649900,0.300100,-0.650000,0.300100,-0.650000,$1*%
%AMFreePoly4*
4,1,5,0.299900,-0.649900,-0.300200,-0.649900,-0.300200,0.650100,0.299900,0.650100,0.299900,-0.649900,0.299900,-0.649900,$1*%
%AMFreePoly5*
4,1,29,0.471789,0.545295,0.610476,0.508134,0.734819,0.436344,0.836344,0.334819,0.908134,0.210476,0.945295,0.071789,0.945295,-0.071789,0.908134,-0.210476,0.836344,-0.334819,0.734819,-0.436344,0.610476,-0.508134,0.471789,-0.545295,0.400000,-0.550000,-0.400000,-0.550000,-0.471789,-0.545295,-0.610476,-0.508134,-0.734819,-0.436344,-0.836344,-0.334819,-0.908134,-0.210476,-0.945295,-0.071789,
-0.945295,0.071789,-0.908134,0.210476,-0.836344,0.334819,-0.734819,0.436344,-0.610476,0.508134,-0.471789,0.545295,-0.400000,0.550000,0.400000,0.550000,0.471789,0.545295,0.471789,0.545295,$1*%
G04 Aperture macros list end*
%ADD10C,1.000000*%
%ADD11R,1.500000X3.500000*%
%ADD12R,1.000000X0.650000*%
%ADD13R,1.000000X1.500000*%
%ADD14R,0.800000X0.800000*%
%ADD15R,0.806500X0.864000*%
%ADD16C,1.500000*%
%ADD17R,1.520000X1.680000*%
%ADD18RoundRect,0.225000X0.250000X-0.225000X0.250000X0.225000X-0.250000X0.225000X-0.250000X-0.225000X0*%
%ADD19R,0.864000X0.806500*%
%ADD20RoundRect,0.225000X-0.225000X-0.250000X0.225000X-0.250000X0.225000X0.250000X-0.225000X0.250000X0*%
%ADD21R,1.485000X1.728000*%
%ADD22R,3.500000X1.500000*%
%ADD23R,0.532000X1.027500*%
%ADD24R,1.728000X1.485000*%
%ADD25C,3.200000*%
%ADD26R,2.000000X2.000000*%
%ADD27R,1.150000X1.700000*%
%ADD28C,0.600000*%
%ADD29FreePoly0,180.000000*%
%ADD30FreePoly1,180.000000*%
%ADD31FreePoly2,90.000000*%
%ADD32FreePoly3,90.000000*%
%ADD33R,1.300000X0.300000*%
%ADD34FreePoly4,90.000000*%
%ADD35R,2.124000X3.320000*%
%ADD36FreePoly5,0.000000*%
%ADD37R,1.200000X0.700000*%
%ADD38R,1.200000X0.800000*%
%ADD39R,0.532000X1.072000*%
%ADD40R,2.000000X0.900000*%
%ADD41O,0.568400X1.950200*%
%ADD42R,1.500000X0.900000*%
%ADD43R,0.900000X1.500000*%
%ADD44R,0.900000X0.900000*%
%ADD45R,0.400000X1.650000*%
%ADD46R,0.600000X1.500000*%
%ADD47R,2.800000X2.400000*%
G04 APERTURE END LIST*
D10*
%TO.C,TP11*%
X37000000Y-55000000D03*
%TD*%
D11*
%TO.C,J14*%
X50650100Y-77700100D03*
X48149900Y-77699900D03*
X53630200Y-70300100D03*
X45169800Y-70299900D03*
%TD*%
D12*
%TO.C,Q7*%
X47400000Y-66950000D03*
X47400000Y-65050000D03*
X45400000Y-66000000D03*
%TD*%
D13*
%TO.C,LED1*%
X51000100Y-16500000D03*
X53999900Y-16500000D03*
X53999900Y-11500000D03*
X51000100Y-11500000D03*
%TD*%
D14*
%TO.C,LED2*%
X56000000Y-29749900D03*
X56000000Y-31250100D03*
%TD*%
D12*
%TO.C,Q14*%
X87000000Y-34950000D03*
X87000000Y-33050000D03*
X85000000Y-34000000D03*
%TD*%
D15*
%TO.C,R14*%
X27746600Y-31000000D03*
X29253400Y-31000000D03*
%TD*%
D11*
%TO.C,J12*%
X28650100Y-77700100D03*
X26149900Y-77699900D03*
X31630200Y-70300100D03*
X23169800Y-70299900D03*
%TD*%
D16*
%TO.C,J5*%
X98310000Y-74000100D03*
X95770000Y-73999900D03*
X93230000Y-73999900D03*
X90690000Y-73999900D03*
%TD*%
D17*
%TO.C,D13*%
X82964900Y-34000000D03*
X79035100Y-34000000D03*
%TD*%
D18*
%TO.C,C15*%
X34500000Y-52275000D03*
X34500000Y-50725000D03*
%TD*%
D14*
%TO.C,LED5*%
X68003400Y-44799500D03*
X67996600Y-43200500D03*
%TD*%
D18*
%TO.C,C6*%
X18500000Y-45775000D03*
X18500000Y-44225000D03*
%TD*%
D19*
%TO.C,R36*%
X64000000Y-40353400D03*
X64000000Y-38846600D03*
%TD*%
D10*
%TO.C,TP1*%
X58500000Y-21500000D03*
%TD*%
D19*
%TO.C,R59*%
X86500000Y-19253400D03*
X86500000Y-17746600D03*
%TD*%
D11*
%TO.C,J17*%
X83650100Y-77700100D03*
X81149900Y-77699900D03*
X86630200Y-70300100D03*
X78169800Y-70299900D03*
%TD*%
D19*
%TO.C,R53*%
X74900000Y-61753400D03*
X74900000Y-60246600D03*
%TD*%
%TO.C,R1*%
X90500000Y-9753400D03*
X90500000Y-8246600D03*
%TD*%
D15*
%TO.C,R22*%
X65746600Y-26000000D03*
X67253400Y-26000000D03*
%TD*%
D12*
%TO.C,Q10*%
X80400000Y-66950000D03*
X80400000Y-65050000D03*
X78400000Y-66000000D03*
%TD*%
D16*
%TO.C,J7*%
X80890000Y-3999900D03*
X83430000Y-4000100D03*
X85970000Y-4000100D03*
X88510000Y-4000100D03*
%TD*%
D11*
%TO.C,J11*%
X17650100Y-77700100D03*
X15149900Y-77699900D03*
X20630200Y-70300100D03*
X12169800Y-70299900D03*
%TD*%
D20*
%TO.C,C11*%
X76225000Y-51500000D03*
X77775000Y-51500000D03*
%TD*%
D21*
%TO.C,C1*%
X28407400Y-33500000D03*
X31592600Y-33500000D03*
%TD*%
D19*
%TO.C,R31*%
X60000000Y-40353400D03*
X60000000Y-38846600D03*
%TD*%
D15*
%TO.C,R8*%
X51246600Y-27000000D03*
X52753400Y-27000000D03*
%TD*%
D22*
%TO.C,J20*%
X97700100Y-16249900D03*
X97699900Y-18750100D03*
X90300100Y-13269800D03*
X90299900Y-21730200D03*
%TD*%
D17*
%TO.C,D5*%
X20864900Y-66000000D03*
X16935100Y-66000000D03*
%TD*%
D19*
%TO.C,R6*%
X18500000Y-50753400D03*
X18500000Y-49246600D03*
%TD*%
D10*
%TO.C,TP10*%
X14500000Y-57000000D03*
%TD*%
D15*
%TO.C,R21*%
X61246600Y-26000000D03*
X62753400Y-26000000D03*
%TD*%
D20*
%TO.C,C3*%
X21225000Y-53000000D03*
X22775000Y-53000000D03*
%TD*%
D14*
%TO.C,LED3*%
X50500100Y-30749000D03*
X50499900Y-29251000D03*
%TD*%
D23*
%TO.C,Q11*%
X72950000Y-27036300D03*
X71050000Y-27036300D03*
X72000000Y-28963700D03*
%TD*%
D17*
%TO.C,D14*%
X82964900Y-45000000D03*
X79035100Y-45000000D03*
%TD*%
D19*
%TO.C,R46*%
X78900000Y-61753400D03*
X78900000Y-60246600D03*
%TD*%
D16*
%TO.C,J19*%
X67590000Y-3999900D03*
X70130000Y-4000100D03*
X72670000Y-4000100D03*
X75210000Y-4000100D03*
%TD*%
D19*
%TO.C,R55*%
X80000000Y-19253400D03*
X80000000Y-17746600D03*
%TD*%
D10*
%TO.C,TP8*%
X47000000Y-31500000D03*
%TD*%
D11*
%TO.C,J13*%
X39650100Y-77700100D03*
X37149900Y-77699900D03*
X42630200Y-70300100D03*
X34169800Y-70299900D03*
%TD*%
D24*
%TO.C,C8*%
X56000000Y-49092600D03*
X56000000Y-45907400D03*
%TD*%
D19*
%TO.C,R62*%
X86500000Y-52253400D03*
X86500000Y-50746600D03*
%TD*%
D25*
%TO.C,HC*%
X83000000Y-12500000D03*
%TD*%
D19*
%TO.C,R60*%
X86500000Y-30253400D03*
X86500000Y-28746600D03*
%TD*%
D23*
%TO.C,Q12*%
X72950000Y-33036300D03*
X71050000Y-33036300D03*
X72000000Y-34963700D03*
%TD*%
D15*
%TO.C,R13*%
X23246600Y-31000000D03*
X24753400Y-31000000D03*
%TD*%
D19*
%TO.C,R25*%
X68000000Y-39753400D03*
X68000000Y-38246600D03*
%TD*%
%TO.C,R30*%
X60000000Y-35553400D03*
X60000000Y-34046600D03*
%TD*%
%TO.C,R45*%
X67900000Y-61753400D03*
X67900000Y-60246600D03*
%TD*%
D17*
%TO.C,D8*%
X53864900Y-66000000D03*
X49935100Y-66000000D03*
%TD*%
D19*
%TO.C,R39*%
X1900000Y-61753400D03*
X1900000Y-60246600D03*
%TD*%
D16*
%TO.C,J8*%
X4999900Y-42310000D03*
X5000100Y-39770000D03*
X5000100Y-37230000D03*
X5000100Y-34690000D03*
%TD*%
D19*
%TO.C,R24*%
X48500000Y-35753400D03*
X48500000Y-34246600D03*
%TD*%
D24*
%TO.C,C17*%
X16000000Y-25592600D03*
X16000000Y-22407400D03*
%TD*%
D12*
%TO.C,Q5*%
X25400000Y-66950000D03*
X25400000Y-65050000D03*
X23400000Y-66000000D03*
%TD*%
%TO.C,Q15*%
X87000000Y-45950000D03*
X87000000Y-44050000D03*
X85000000Y-45000000D03*
%TD*%
D19*
%TO.C,R56*%
X80000000Y-30253400D03*
X80000000Y-28746600D03*
%TD*%
D17*
%TO.C,D12*%
X82964900Y-23000000D03*
X79035100Y-23000000D03*
%TD*%
D20*
%TO.C,C14*%
X5725000Y-13000000D03*
X7275000Y-13000000D03*
%TD*%
D10*
%TO.C,TP4*%
X45000000Y-57500000D03*
%TD*%
D15*
%TO.C,R19*%
X61246600Y-22000000D03*
X62753400Y-22000000D03*
%TD*%
D19*
%TO.C,R26*%
X68000000Y-53753400D03*
X68000000Y-52246600D03*
%TD*%
%TO.C,R57*%
X80000000Y-41253400D03*
X80000000Y-39746600D03*
%TD*%
%TO.C,R4*%
X52500000Y-42753400D03*
X52500000Y-41246600D03*
%TD*%
D20*
%TO.C,C13*%
X57225000Y-17500000D03*
X58775000Y-17500000D03*
%TD*%
D24*
%TO.C,C7*%
X56000000Y-42092600D03*
X56000000Y-38907400D03*
%TD*%
D12*
%TO.C,Q6*%
X36400000Y-66950000D03*
X36400000Y-65050000D03*
X34400000Y-66000000D03*
%TD*%
D19*
%TO.C,R38*%
X64000000Y-49953400D03*
X64000000Y-48446600D03*
%TD*%
D25*
%TO.C,HB*%
X3000000Y-28000000D03*
%TD*%
D19*
%TO.C,R3*%
X21000000Y-34753400D03*
X21000000Y-33246600D03*
%TD*%
D10*
%TO.C,TP12*%
X2800000Y-11000000D03*
%TD*%
%TO.C,TP9*%
X12000000Y-57500000D03*
%TD*%
D17*
%TO.C,D7*%
X42864900Y-66000000D03*
X38935100Y-66000000D03*
%TD*%
D15*
%TO.C,R9*%
X55746600Y-27000000D03*
X57253400Y-27000000D03*
%TD*%
D19*
%TO.C,R63*%
X11000000Y-15253400D03*
X11000000Y-13746600D03*
%TD*%
%TO.C,R50*%
X41900000Y-61753400D03*
X41900000Y-60246600D03*
%TD*%
D17*
%TO.C,D10*%
X75864900Y-66000000D03*
X71935100Y-66000000D03*
%TD*%
D15*
%TO.C,R7*%
X15746600Y-19000000D03*
X17253400Y-19000000D03*
%TD*%
D17*
%TO.C,D4*%
X9864900Y-66000000D03*
X5935100Y-66000000D03*
%TD*%
D26*
%TO.C,D3*%
X37800100Y-51500000D03*
X42199900Y-51500000D03*
%TD*%
D19*
%TO.C,R64*%
X11000000Y-24253400D03*
X11000000Y-22746600D03*
%TD*%
D12*
%TO.C,Q8*%
X58400000Y-66950000D03*
X58400000Y-65050000D03*
X56400000Y-66000000D03*
%TD*%
D19*
%TO.C,R18*%
X69000000Y-17253400D03*
X69000000Y-15746600D03*
%TD*%
%TO.C,R51*%
X52900000Y-61753400D03*
X52900000Y-60246600D03*
%TD*%
%TO.C,R27*%
X45500000Y-35253400D03*
X45500000Y-33746600D03*
%TD*%
D10*
%TO.C,TP7*%
X43500000Y-31500000D03*
%TD*%
D12*
%TO.C,Q3*%
X3400000Y-66950000D03*
X3400000Y-65050000D03*
X1400000Y-66000000D03*
%TD*%
D16*
%TO.C,J9*%
X40990000Y-3999900D03*
X43530000Y-4000100D03*
X46070000Y-4000100D03*
X48610000Y-4000100D03*
%TD*%
D19*
%TO.C,R54*%
X85900000Y-61753400D03*
X85900000Y-60246600D03*
%TD*%
D24*
%TO.C,C9*%
X63000000Y-56592600D03*
X63000000Y-53407400D03*
%TD*%
D27*
%TO.C,SW1*%
X5825000Y-8500000D03*
X10175000Y-8500000D03*
%TD*%
D28*
%TO.C,J1*%
X3169400Y-21899900D03*
X3169400Y-16100100D03*
D29*
X2669300Y-14674800D03*
D30*
X6849100Y-14674800D03*
X6849100Y-23325200D03*
D29*
X2669300Y-23325200D03*
D31*
X1901000Y-22199900D03*
D32*
X1901000Y-21400000D03*
D33*
X1901000Y-20249900D03*
X1901000Y-19249900D03*
X1901000Y-18750100D03*
X1901000Y-17750300D03*
D34*
X1901000Y-15799900D03*
X1901000Y-16599700D03*
D33*
X1901000Y-17249900D03*
X1901000Y-18249900D03*
X1901000Y-19750100D03*
X1901000Y-20750100D03*
%TD*%
D12*
%TO.C,Q13*%
X87000000Y-23950000D03*
X87000000Y-22050000D03*
X85000000Y-23000000D03*
%TD*%
D19*
%TO.C,R41*%
X23900000Y-61753400D03*
X23900000Y-60246600D03*
%TD*%
%TO.C,R52*%
X63900000Y-61753400D03*
X63900000Y-60246600D03*
%TD*%
D20*
%TO.C,C4*%
X26225000Y-54000000D03*
X27775000Y-54000000D03*
%TD*%
D19*
%TO.C,R58*%
X80000000Y-52253400D03*
X80000000Y-50746600D03*
%TD*%
D11*
%TO.C,J16*%
X72650100Y-77700100D03*
X70149900Y-77699900D03*
X75630200Y-70300100D03*
X67169800Y-70299900D03*
%TD*%
D19*
%TO.C,R11*%
X76500000Y-35253400D03*
X76500000Y-33746600D03*
%TD*%
D15*
%TO.C,R15*%
X33246600Y-31000000D03*
X34753400Y-31000000D03*
%TD*%
D17*
%TO.C,D9*%
X64864900Y-66000000D03*
X60935100Y-66000000D03*
%TD*%
D35*
%TO.C,L1*%
X45878100Y-43000000D03*
X36121900Y-43000000D03*
%TD*%
D19*
%TO.C,R43*%
X45900000Y-61753400D03*
X45900000Y-60246600D03*
%TD*%
D22*
%TO.C,J23*%
X97700100Y-49249900D03*
X97699900Y-51750100D03*
X90300100Y-46269800D03*
X90299900Y-54730200D03*
%TD*%
D20*
%TO.C,C12*%
X78725000Y-27000000D03*
X80275000Y-27000000D03*
%TD*%
D19*
%TO.C,R23*%
X56000000Y-35753400D03*
X56000000Y-34246600D03*
%TD*%
D16*
%TO.C,J6*%
X4999900Y-55810000D03*
X5000100Y-53270000D03*
X5000100Y-50730000D03*
X5000100Y-48190000D03*
%TD*%
D19*
%TO.C,R17*%
X69000000Y-13253400D03*
X69000000Y-11746600D03*
%TD*%
D17*
%TO.C,D15*%
X82964900Y-56000000D03*
X79035100Y-56000000D03*
%TD*%
D36*
%TO.C,J2*%
X98300000Y-1680100D03*
X94499900Y-1680100D03*
X98300000Y-10319900D03*
X94499900Y-10319900D03*
D37*
X98550000Y-5500000D03*
X98550000Y-7500000D03*
D38*
X98550000Y-8699900D03*
D37*
X98550000Y-6500000D03*
X98550000Y-4500000D03*
D38*
X98550000Y-3300100D03*
%TD*%
D19*
%TO.C,R48*%
X19900000Y-61753400D03*
X19900000Y-60246600D03*
%TD*%
D10*
%TO.C,TP13*%
X90500000Y-63000000D03*
%TD*%
D19*
%TO.C,R34*%
X64000000Y-30753400D03*
X64000000Y-29246600D03*
%TD*%
%TO.C,R42*%
X34900000Y-61753400D03*
X34900000Y-60246600D03*
%TD*%
D20*
%TO.C,C18*%
X41225000Y-29000000D03*
X42775000Y-29000000D03*
%TD*%
D19*
%TO.C,R35*%
X64000000Y-35553400D03*
X64000000Y-34046600D03*
%TD*%
D11*
%TO.C,J15*%
X61650100Y-77700100D03*
X59149900Y-77699900D03*
X64630200Y-70300100D03*
X56169800Y-70299900D03*
%TD*%
%TO.C,J10*%
X6650100Y-77700100D03*
X4149900Y-77699900D03*
X9630200Y-70300100D03*
X1169800Y-70299900D03*
%TD*%
D19*
%TO.C,R2*%
X83000000Y-19753400D03*
X83000000Y-18246600D03*
%TD*%
D12*
%TO.C,Q4*%
X14400000Y-66950000D03*
X14400000Y-65050000D03*
X12400000Y-66000000D03*
%TD*%
D19*
%TO.C,R28*%
X57000000Y-57753400D03*
X57000000Y-56246600D03*
%TD*%
D14*
%TO.C,LED4*%
X68003400Y-34799500D03*
X67996600Y-33200500D03*
%TD*%
D20*
%TO.C,C10*%
X42225000Y-14000000D03*
X43775000Y-14000000D03*
%TD*%
D19*
%TO.C,R33*%
X60000000Y-49953400D03*
X60000000Y-48446600D03*
%TD*%
%TO.C,R5*%
X52500000Y-47753400D03*
X52500000Y-46246600D03*
%TD*%
D39*
%TO.C,U5*%
X73550000Y-15149100D03*
X74500000Y-15149100D03*
X75450000Y-15149100D03*
X75450000Y-12850900D03*
X74500000Y-12850900D03*
X73550000Y-12850900D03*
%TD*%
D15*
%TO.C,R16*%
X38246600Y-31000000D03*
X39753400Y-31000000D03*
%TD*%
D19*
%TO.C,R49*%
X30900000Y-61753400D03*
X30900000Y-60246600D03*
%TD*%
D16*
%TO.C,J18*%
X54290000Y-3999900D03*
X56830000Y-4000100D03*
X59370000Y-4000100D03*
X61910000Y-4000100D03*
%TD*%
D19*
%TO.C,R47*%
X8900000Y-61753400D03*
X8900000Y-60246600D03*
%TD*%
D15*
%TO.C,R20*%
X65746600Y-22000000D03*
X67253400Y-22000000D03*
%TD*%
D19*
%TO.C,R29*%
X60000000Y-30753400D03*
X60000000Y-29246600D03*
%TD*%
D12*
%TO.C,Q9*%
X69400000Y-66950000D03*
X69400000Y-65050000D03*
X67400000Y-66000000D03*
%TD*%
D40*
%TO.C,U6*%
X40020000Y-18190000D03*
X40020000Y-20730000D03*
X40020000Y-23270000D03*
X40020000Y-25810000D03*
X47980000Y-25810000D03*
X47980000Y-23270000D03*
X47980000Y-20730000D03*
X47980000Y-18190000D03*
%TD*%
D27*
%TO.C,SW3*%
X45825000Y-51000000D03*
X50175000Y-51000000D03*
%TD*%
D17*
%TO.C,D11*%
X86864900Y-66000000D03*
X82935100Y-66000000D03*
%TD*%
D41*
%TO.C,U3*%
X23095000Y-47705100D03*
X24365000Y-47705100D03*
X25635000Y-47705100D03*
X26905000Y-47705100D03*
X26905000Y-42294900D03*
X25635000Y-42294900D03*
X24365000Y-42294900D03*
X23095000Y-42294900D03*
%TD*%
D42*
%TO.C,U1*%
X19250000Y-7455000D03*
X19250000Y-8725000D03*
X19250000Y-9995000D03*
X19250000Y-11265000D03*
X19250000Y-12535000D03*
X19250000Y-13805000D03*
X19250000Y-15075000D03*
X19250000Y-16345000D03*
X19250000Y-17615000D03*
X19250000Y-18885000D03*
X19250000Y-20155000D03*
X19250000Y-21425000D03*
X19250000Y-22695000D03*
X19250000Y-23965000D03*
D43*
X21015000Y-25245000D03*
X22285000Y-25245000D03*
X23555000Y-25245000D03*
X24825000Y-25245000D03*
X26095000Y-25245000D03*
X27365000Y-25245000D03*
X28635000Y-25245000D03*
X29905000Y-25245000D03*
X31175000Y-25245000D03*
X32445000Y-25245000D03*
X33715000Y-25245000D03*
X34985000Y-25215000D03*
D42*
X36750000Y-23965000D03*
X36750000Y-22695000D03*
X36750000Y-21425000D03*
X36750000Y-20155000D03*
X36750000Y-18885000D03*
X36750000Y-17615000D03*
X36750000Y-16345000D03*
X36750000Y-15075000D03*
X36750000Y-13805000D03*
X36750000Y-12535000D03*
X36750000Y-11265000D03*
X36750000Y-9995000D03*
X36750000Y-8725000D03*
X36750000Y-7455000D03*
D44*
X25099800Y-13775100D03*
X25099800Y-15175100D03*
X25099800Y-16575200D03*
X26499900Y-13775100D03*
X26499900Y-15175100D03*
X26499900Y-16575200D03*
X27899900Y-13775100D03*
X27899900Y-15175100D03*
X27899900Y-16575200D03*
%TD*%
D19*
%TO.C,R32*%
X60000000Y-45153400D03*
X60000000Y-43646600D03*
%TD*%
D18*
%TO.C,C5*%
X31800000Y-42275000D03*
X31800000Y-40725000D03*
%TD*%
D25*
%TO.C,HA*%
X3400000Y-3400000D03*
%TD*%
D12*
%TO.C,Q16*%
X87000000Y-56950000D03*
X87000000Y-55050000D03*
X85000000Y-56000000D03*
%TD*%
D45*
%TO.C,U2*%
X69925200Y-47022600D03*
X70575200Y-47022600D03*
X71225200Y-47022600D03*
X71875200Y-47022600D03*
X72525100Y-47022600D03*
X73175100Y-47022600D03*
X73824900Y-47022600D03*
X74475100Y-47022600D03*
X75125100Y-47022600D03*
X75775100Y-47022600D03*
X76425100Y-47022600D03*
X77074800Y-47022600D03*
X77074800Y-40977400D03*
X76425100Y-40977400D03*
X75775100Y-40977400D03*
X75125100Y-40977400D03*
X74475100Y-40977400D03*
X73824900Y-40977400D03*
X73175100Y-40977400D03*
X72525100Y-40977400D03*
X71875200Y-40977400D03*
X71225200Y-40977400D03*
X70575200Y-40977400D03*
X69925200Y-40977400D03*
%TD*%
D10*
%TO.C,TP5*%
X82000000Y-63000000D03*
%TD*%
D22*
%TO.C,J21*%
X97700100Y-27249900D03*
X97699900Y-29750100D03*
X90300100Y-24269800D03*
X90299900Y-32730200D03*
%TD*%
D19*
%TO.C,R40*%
X12900000Y-61753400D03*
X12900000Y-60246600D03*
%TD*%
D10*
%TO.C,TP2*%
X14000000Y-33000000D03*
%TD*%
D19*
%TO.C,R12*%
X52500000Y-21253400D03*
X52500000Y-19746600D03*
%TD*%
D27*
%TO.C,SW2*%
X12825000Y-10500000D03*
X17175000Y-10500000D03*
%TD*%
D10*
%TO.C,TP6*%
X48500000Y-47500000D03*
%TD*%
D22*
%TO.C,J22*%
X97700100Y-38249900D03*
X97699900Y-40750100D03*
X90300100Y-35269800D03*
X90299900Y-43730200D03*
%TD*%
D20*
%TO.C,C2*%
X29225000Y-38500000D03*
X30775000Y-38500000D03*
%TD*%
D19*
%TO.C,R10*%
X76500000Y-30753400D03*
X76500000Y-29246600D03*
%TD*%
%TO.C,R37*%
X64000000Y-45153400D03*
X64000000Y-43646600D03*
%TD*%
D39*
%TO.C,U7*%
X11550000Y-20149100D03*
X12500000Y-20149100D03*
X13450000Y-20149100D03*
X13450000Y-17850900D03*
X12500000Y-17850900D03*
X11550000Y-17850900D03*
%TD*%
D19*
%TO.C,R44*%
X56900000Y-61753400D03*
X56900000Y-60246600D03*
%TD*%
D46*
%TO.C,U4*%
X72500000Y-24249900D03*
X73500000Y-24249900D03*
X74500000Y-24249900D03*
X75500000Y-24249900D03*
X76500000Y-24249900D03*
X76500000Y-18750100D03*
X75500000Y-18750100D03*
X74500000Y-18750100D03*
X73500000Y-18750100D03*
X72500000Y-18750100D03*
D47*
X74500000Y-21500100D03*
%TD*%
D17*
%TO.C,D6*%
X31864900Y-66000000D03*
X27935100Y-66000000D03*
%TD*%
D19*
%TO.C,R61*%
X86500000Y-41253400D03*
X86500000Y-39746600D03*
%TD*%
D25*
%TO.C,HD*%
X73500000Y-55700000D03*
%TD*%
D26*
%TO.C,D2*%
X21800100Y-38500000D03*
X26199900Y-38500000D03*
%TD*%
D20*
%TO.C,C16*%
X80725000Y-60500000D03*
X82275000Y-60500000D03*
%TD*%
D10*
%TO.C,TP3*%
X34000000Y-57500000D03*
%TD*%
M02*
