M48
; DRILL file KiCad 10.0.6 date 2026-10-01T23:46:28
; FORMAT={-:-/ absolute / metric / decimal}
; #@! TF.CreationDate,2026-10-01T23:46:28+08:00
; #@! TF.GenerationSoftware,Kicad,Pcbnew,10.0.6
; #@! TF.FileFunction,MixedPlating,1,4
FMAT,2
METRIC
; #@! TA.AperFunction,Plated,PTH,ViaDrill
T1C0.300
; #@! TA.AperFunction,Plated,PTH,ViaDrill
T2C0.350
; #@! TA.AperFunction,Plated,PTH,ViaDrill
T3C0.400
; #@! TA.AperFunction,Plated,PTH,ViaDrill
T4C0.450
; #@! TA.AperFunction,Plated,PTH,ComponentDrill
T5C0.600
; #@! TA.AperFunction,Plated,PTH,ComponentDrill
T6C0.900
; #@! TA.AperFunction,Plated,PTH,ComponentDrill
T7C1.200
; #@! TA.AperFunction,Plated,PTH,ComponentDrill
T8C1.300
; #@! TA.AperFunction,NonPlated,NPTH,ComponentDrill
T9C3.200
%
G90
G05
T1
X7.174Y-56.747
X12.994Y-56.299
X14.615Y-17.97
X14.999Y-64.086
X17.269Y-12.283
X17.569Y-13.504
X17.879Y-9.185
X17.917Y-18.951
X18.7Y-34.976
X19.312Y-47.572
X20.5Y-63.0
X20.67Y-14.203
X21.172Y-50.194
X21.501Y-30.484
X21.723Y-12.913
X22.9Y-16.2
X22.96Y-29.861
X23.734Y-45.326
X24.361Y-23.716
X24.539Y-56.299
X24.633Y-21.592
X24.8Y-27.357
X24.934Y-44.116
X25.081Y-50.238
X25.142Y-35.546
X25.55Y-26.517
X25.696Y-49.691
X27.0Y-27.0
X27.254Y-23.591
X27.542Y-21.592
X27.542Y-43.919
X27.987Y-38.524
X29.584Y-23.604
X30.0Y-43.0
X33.2Y-33.2
X33.346Y-27.374
X33.658Y-23.791
X33.8Y-29.8
X34.3Y-40.8
X35.358Y-17.694
X35.902Y-56.655
X36.0Y-53.0
X36.1Y-31.9
X36.2Y-29.7
X36.3Y-32.9
X36.3Y-41.6
X37.9Y-31.2
X40.848Y-30.47
X41.8Y-25.9
X42.074Y-30.849
X42.2Y-21.5
X44.3Y-34.5
X44.5Y-21.5
X44.5Y-25.1
X45.0Y-53.407
X45.775Y-30.385
X46.4Y-21.5
X46.5Y-36.9
X47.345Y-32.803
X48.167Y-28.107
X48.5Y-34.2
X48.865Y-21.591
X49.0Y-14.3
X49.247Y-27.0
X49.959Y-45.135
X50.356Y-23.63
X53.0Y-14.2
X54.3Y-27.7
X54.5Y-21.5
X56.595Y-24.441
X57.586Y-56.793
X57.7Y-27.9
X57.8Y-21.5
X57.899Y-55.892
X59.549Y-44.73
X61.247Y-26.0
X63.041Y-38.676
X63.223Y-48.506
X63.287Y-29.393
X65.605Y-41.929
X65.628Y-56.498
X65.685Y-46.679
X65.747Y-26.0
X66.886Y-23.643
X67.146Y-20.806
X67.147Y-38.817
X67.329Y-29.242
X67.335Y-33.965
X67.721Y-25.059
X68.267Y-48.569
X68.361Y-43.436
X68.743Y-21.591
X69.1Y-46.536
X69.563Y-41.627
X70.853Y-39.547
X70.982Y-43.064
X71.02Y-38.435
X71.3Y-26.7
X71.479Y-15.711
X71.64Y-14.164
X71.957Y-17.895
X72.01Y-44.607
X72.999Y-44.682
X73.6Y-33.4
X74.128Y-50.546
X74.205Y-15.914
X74.5Y-12.0
X74.5Y-13.15
X74.608Y-45.14
X74.977Y-16.736
X75.0Y-48.508
X75.674Y-37.334
X76.641Y-44.795
X76.644Y-35.347
X76.705Y-30.145
X76.969Y-33.027
X77.007Y-21.591
X77.007Y-53.652
X77.726Y-45.455
X78.5Y-13.2
X78.8Y-21.5
X79.7Y-21.5
X82.711Y-12.913
X82.826Y-7.3
T2
X4.0Y-16.0
X4.0Y-40.0
X4.0Y-52.0
X4.0Y-64.0
X12.365Y-60.5
X14.297Y-20.819
X15.5Y-33.0
X16.0Y-4.0
X16.0Y-16.0
X16.0Y-28.0
X16.0Y-40.0
X16.0Y-52.0
X16.0Y-64.0
X18.5Y-25.593
X22.5Y-28.753
X22.8Y-33.5
X23.164Y-61.25
X23.3Y-38.5
X28.0Y-28.0
X28.0Y-40.0
X28.0Y-52.0
X28.0Y-64.0
X29.225Y-40.0
X29.706Y-34.25
X34.365Y-60.5
X36.0Y-52.275
X36.122Y-43.0
X39.297Y-32.819
X40.0Y-4.0
X40.0Y-16.0
X40.0Y-28.0
X40.0Y-40.0
X40.0Y-64.0
X42.706Y-9.75
X43.275Y-15.819
X45.365Y-60.5
X47.85Y-37.592
X49.799Y-17.25
X50.297Y-28.819
X52.0Y-4.0
X52.0Y-52.0
X52.0Y-64.0
X53.0Y-40.253
X54.797Y-28.819
X55.775Y-19.319
X56.365Y-60.5
X57.5Y-41.593
X57.5Y-47.093
X58.0Y-58.253
X59.25Y-22.799
X60.0Y-28.25
X61.247Y-27.5
X63.5Y-30.753
X63.5Y-35.553
X63.5Y-40.353
X63.5Y-45.153
X63.5Y-49.953
X64.0Y-16.0
X64.0Y-28.0
X64.0Y-52.0
X64.0Y-64.0
X65.747Y-27.5
X67.365Y-60.5
X67.5Y-30.753
X67.5Y-35.553
X67.5Y-40.353
X67.5Y-45.153
X67.5Y-49.953
X71.003Y-34.8
X71.003Y-44.799
X76.0Y-16.0
X76.0Y-28.0
X76.0Y-52.0
X76.0Y-64.0
X79.775Y-51.819
X79.799Y-58.025
X80.275Y-27.319
X88.0Y-16.0
X88.0Y-40.0
X88.0Y-52.0
X88.0Y-64.0
X88.0Y-28.69
X88.615Y-61.799
T3
X22.991Y-49.494
X26.512Y-31.512
X27.212Y-32.088
X29.962Y-26.738
X47.77Y-33.7
X53.716Y-17.062
X55.524Y-21.706
X55.526Y-19.919
X58.393Y-28.626
X58.6Y-22.799
X58.8Y-21.5
X59.563Y-29.841
X59.9Y-22.799
X61.366Y-31.652
X61.826Y-32.112
X70.74Y-22.369
X71.375Y-49.048
X73.719Y-37.738
X79.07Y-6.89
X79.525Y-25.5
T4
X24.153Y-49.31
X77.041Y-60.88
X78.9Y-57.275
T6
X5.0Y-49.81
X5.0Y-42.19
X5.0Y-44.73
X5.0Y-47.27
X42.19Y-4.0
X44.73Y-4.0
X47.27Y-4.0
X49.81Y-4.0
X55.69Y-4.0
X58.23Y-4.0
X60.77Y-4.0
X63.31Y-4.0
X69.19Y-4.0
X71.73Y-4.0
X74.27Y-4.0
X76.81Y-4.0
X86.5Y-20.73
X86.5Y-23.27
X86.5Y-25.81
X86.5Y-31.23
X86.5Y-33.77
X86.5Y-36.31
X86.5Y-44.73
X86.5Y-47.27
X86.5Y-49.81
X86.5Y-18.19
X86.5Y-28.69
X86.5Y-42.19
T8
X3.96Y-68.5
X9.04Y-68.5
X14.96Y-68.5
X20.04Y-68.5
X25.96Y-68.5
X31.04Y-68.5
X36.96Y-68.5
X42.04Y-68.5
X47.96Y-68.5
X53.04Y-68.5
X58.96Y-68.5
X64.04Y-68.5
X69.96Y-68.5
X75.04Y-68.5
X80.96Y-68.5
X86.04Y-68.5
T9
X3.0Y-37.0
X4.0Y-4.0
X68.0Y-65.0
X86.0Y-13.0
T5
X83.75Y-1.68G85X84.45Y-1.68
G05
X83.75Y-10.32G85X84.45Y-10.32
G05
X87.55Y-1.68G85X88.25Y-1.68
G05
X87.55Y-10.32G85X88.25Y-10.32
G05
T7
X2.5Y-25.85G85X2.5Y-28.35
G05
X5.95Y-30.1G85X8.45Y-30.1
G05
X8.45Y-23.9G85X5.95Y-23.9
G05
M30
