%TF.GenerationSoftware,KiCad,Pcbnew,10.0.6*%
%TF.CreationDate,2026-10-05T03:03:15+08:00*%
%TF.ProjectId,flowio-p1,666c6f77-696f-42d7-9031-2e6b69636164,rev?*%
%TF.SameCoordinates,Original*%
%TF.FileFunction,Paste,Top*%
%TF.FilePolarity,Positive*%
%FSLAX46Y46*%
G04 Gerber Fmt 4.6, Leading zero omitted, Abs format (unit mm)*
G04 Created by KiCad (PCBNEW 10.0.6) date 2026-10-05 03:03:15*
%MOMM*%
%LPD*%
G01*
G04 APERTURE LIST*
G04 Aperture macros list*
%AMRoundRect*
0 Rectangle with rounded corners*
0 $1 Rounding radius*
0 $2 $3 $4 $5 $6 $7 $8 $9 X,Y pos of 4 corners*
0 Add a 4 corners polygon primitive as box body*
4,1,4,$2,$3,$4,$5,$6,$7,$8,$9,$2,$3,0*
0 Add four circle primitives for the rounded corners*
1,1,$1+$1,$2,$3*
1,1,$1+$1,$4,$5*
1,1,$1+$1,$6,$7*
1,1,$1+$1,$8,$9*
0 Add four rect primitives between the rounded corners*
20,1,$1+$1,$2,$3,$4,$5,0*
20,1,$1+$1,$4,$5,$6,$7,0*
20,1,$1+$1,$6,$7,$8,$9,0*
20,1,$1+$1,$8,$9,$2,$3,0*%
%AMFreePoly0*
4,1,9,0.299900,-0.649900,-0.000100,-0.649900,-0.000100,-0.650100,-0.300100,-0.650100,-0.300100,0.649900,-0.000100,0.649900,-0.000100,0.650100,0.299900,0.650100,0.299900,-0.649900,0.299900,-0.649900,$1*%
%AMFreePoly1*
4,1,7,0.300100,-0.650000,0.000100,-0.650000,0.000100,-0.650100,-0.299900,-0.650100,-0.299900,0.649900,0.300100,0.649900,0.300100,-0.650000,0.300100,-0.650000,$1*%
%AMFreePoly2*
4,1,5,0.299900,-0.649900,-0.300200,-0.649900,-0.300200,0.650100,0.299900,0.650100,0.299900,-0.649900,0.299900,-0.649900,$1*%
G04 Aperture macros list end*
%ADD10C,0.000000*%
%ADD11R,1.500000X3.500000*%
%ADD12R,1.000000X0.650000*%
%ADD13R,1.000000X1.500000*%
%ADD14R,0.800000X0.800000*%
%ADD15R,0.806500X0.864000*%
%ADD16R,1.520000X1.680000*%
%ADD17RoundRect,0.225000X0.250000X-0.225000X0.250000X0.225000X-0.250000X0.225000X-0.250000X-0.225000X0*%
%ADD18R,0.864000X0.806500*%
%ADD19RoundRect,0.225000X-0.225000X-0.250000X0.225000X-0.250000X0.225000X0.250000X-0.225000X0.250000X0*%
%ADD20R,1.485000X1.728000*%
%ADD21R,3.500000X1.500000*%
%ADD22R,0.532000X1.027500*%
%ADD23R,1.728000X1.485000*%
%ADD24R,2.000000X2.000000*%
%ADD25R,1.150000X1.700000*%
%ADD26FreePoly0,90.000000*%
%ADD27FreePoly1,90.000000*%
%ADD28R,1.300000X0.300000*%
%ADD29FreePoly2,90.000000*%
%ADD30R,2.124000X3.320000*%
%ADD31R,1.200000X0.700000*%
%ADD32R,1.200000X0.800000*%
%ADD33R,0.532000X1.072000*%
%ADD34R,2.000000X0.900000*%
%ADD35O,0.568400X1.950200*%
%ADD36R,1.500000X0.900000*%
%ADD37R,0.900000X1.500000*%
%ADD38R,0.900000X0.900000*%
%ADD39R,0.400000X1.650000*%
%ADD40R,0.600000X1.500000*%
%ADD41R,2.800000X2.400000*%
G04 APERTURE END LIST*
D10*
%TO.C,R14*%
G36*
X28155000Y-30600000D02*
G01*
X28155000Y-30842000D01*
X27785000Y-30842000D01*
X27785000Y-31172000D01*
X28155000Y-31172000D01*
X28155000Y-31400000D01*
X28105000Y-31450000D01*
X27305000Y-31450000D01*
X27255000Y-31400000D01*
X27255000Y-30600000D01*
X27305000Y-30550000D01*
X28105000Y-30550000D01*
X28155000Y-30600000D01*
G37*
G36*
X29745000Y-30600000D02*
G01*
X29745000Y-31400000D01*
X29695000Y-31450000D01*
X28895000Y-31450000D01*
X28845000Y-31400000D01*
X28845000Y-31158000D01*
X29215000Y-31158000D01*
X29215000Y-30828000D01*
X28845000Y-30828000D01*
X28845000Y-30600000D01*
X28895000Y-30550000D01*
X29695000Y-30550000D01*
X29745000Y-30600000D01*
G37*
%TO.C,R36*%
G36*
X64450000Y-38405000D02*
G01*
X64450000Y-39205000D01*
X64400000Y-39255000D01*
X64158000Y-39255000D01*
X64158000Y-38885000D01*
X63828000Y-38885000D01*
X63828000Y-39255000D01*
X63600000Y-39255000D01*
X63550000Y-39205000D01*
X63550000Y-38405000D01*
X63600000Y-38355000D01*
X64400000Y-38355000D01*
X64450000Y-38405000D01*
G37*
G36*
X63842000Y-40315000D02*
G01*
X64172000Y-40315000D01*
X64172000Y-39945000D01*
X64400000Y-39945000D01*
X64450000Y-39995000D01*
X64450000Y-40795000D01*
X64400000Y-40845000D01*
X63600000Y-40845000D01*
X63550000Y-40795000D01*
X63550000Y-39995000D01*
X63600000Y-39945000D01*
X63842000Y-39945000D01*
X63842000Y-40315000D01*
G37*
%TO.C,R59*%
G36*
X86950000Y-17305000D02*
G01*
X86950000Y-18105000D01*
X86900000Y-18155000D01*
X86658000Y-18155000D01*
X86658000Y-17785000D01*
X86328000Y-17785000D01*
X86328000Y-18155000D01*
X86100000Y-18155000D01*
X86050000Y-18105000D01*
X86050000Y-17305000D01*
X86100000Y-17255000D01*
X86900000Y-17255000D01*
X86950000Y-17305000D01*
G37*
G36*
X86342000Y-19215000D02*
G01*
X86672000Y-19215000D01*
X86672000Y-18845000D01*
X86900000Y-18845000D01*
X86950000Y-18895000D01*
X86950000Y-19695000D01*
X86900000Y-19745000D01*
X86100000Y-19745000D01*
X86050000Y-19695000D01*
X86050000Y-18895000D01*
X86100000Y-18845000D01*
X86342000Y-18845000D01*
X86342000Y-19215000D01*
G37*
%TO.C,R53*%
G36*
X75350000Y-59805000D02*
G01*
X75350000Y-60605000D01*
X75300000Y-60655000D01*
X75058000Y-60655000D01*
X75058000Y-60285000D01*
X74728000Y-60285000D01*
X74728000Y-60655000D01*
X74500000Y-60655000D01*
X74450000Y-60605000D01*
X74450000Y-59805000D01*
X74500000Y-59755000D01*
X75300000Y-59755000D01*
X75350000Y-59805000D01*
G37*
G36*
X74742000Y-61715000D02*
G01*
X75072000Y-61715000D01*
X75072000Y-61345000D01*
X75300000Y-61345000D01*
X75350000Y-61395000D01*
X75350000Y-62195000D01*
X75300000Y-62245000D01*
X74500000Y-62245000D01*
X74450000Y-62195000D01*
X74450000Y-61395000D01*
X74500000Y-61345000D01*
X74742000Y-61345000D01*
X74742000Y-61715000D01*
G37*
%TO.C,R1*%
G36*
X90950000Y-7805000D02*
G01*
X90950000Y-8605000D01*
X90900000Y-8655000D01*
X90658000Y-8655000D01*
X90658000Y-8285000D01*
X90328000Y-8285000D01*
X90328000Y-8655000D01*
X90100000Y-8655000D01*
X90050000Y-8605000D01*
X90050000Y-7805000D01*
X90100000Y-7755000D01*
X90900000Y-7755000D01*
X90950000Y-7805000D01*
G37*
G36*
X90342000Y-9715000D02*
G01*
X90672000Y-9715000D01*
X90672000Y-9345000D01*
X90900000Y-9345000D01*
X90950000Y-9395000D01*
X90950000Y-10195000D01*
X90900000Y-10245000D01*
X90100000Y-10245000D01*
X90050000Y-10195000D01*
X90050000Y-9395000D01*
X90100000Y-9345000D01*
X90342000Y-9345000D01*
X90342000Y-9715000D01*
G37*
%TO.C,R22*%
G36*
X66155000Y-25600000D02*
G01*
X66155000Y-25842000D01*
X65785000Y-25842000D01*
X65785000Y-26172000D01*
X66155000Y-26172000D01*
X66155000Y-26400000D01*
X66105000Y-26450000D01*
X65305000Y-26450000D01*
X65255000Y-26400000D01*
X65255000Y-25600000D01*
X65305000Y-25550000D01*
X66105000Y-25550000D01*
X66155000Y-25600000D01*
G37*
G36*
X67745000Y-25600000D02*
G01*
X67745000Y-26400000D01*
X67695000Y-26450000D01*
X66895000Y-26450000D01*
X66845000Y-26400000D01*
X66845000Y-26158000D01*
X67215000Y-26158000D01*
X67215000Y-25828000D01*
X66845000Y-25828000D01*
X66845000Y-25600000D01*
X66895000Y-25550000D01*
X67695000Y-25550000D01*
X67745000Y-25600000D01*
G37*
%TO.C,C1*%
G36*
X29150000Y-32736000D02*
G01*
X29150000Y-33106200D01*
X29050000Y-33206200D01*
X28745100Y-33206200D01*
X28645100Y-33306200D01*
X28645100Y-33693800D01*
X28745100Y-33793800D01*
X29050000Y-33793800D01*
X29150000Y-33893800D01*
X29150000Y-34264000D01*
X29050000Y-34364000D01*
X27765000Y-34364000D01*
X27665000Y-34264000D01*
X27665000Y-32736000D01*
X27765000Y-32636000D01*
X29050000Y-32636000D01*
X29150000Y-32736000D01*
G37*
G36*
X32335000Y-32736000D02*
G01*
X32335000Y-34264000D01*
X32235000Y-34364000D01*
X30950000Y-34364000D01*
X30850000Y-34264000D01*
X30850000Y-33893800D01*
X30950000Y-33793800D01*
X31254900Y-33793800D01*
X31354900Y-33693800D01*
X31354900Y-33306200D01*
X31254900Y-33206200D01*
X30950000Y-33206200D01*
X30850000Y-33106200D01*
X30850000Y-32736000D01*
X30950000Y-32636000D01*
X32235000Y-32636000D01*
X32335000Y-32736000D01*
G37*
%TO.C,R31*%
G36*
X60450000Y-38405000D02*
G01*
X60450000Y-39205000D01*
X60400000Y-39255000D01*
X60158000Y-39255000D01*
X60158000Y-38885000D01*
X59828000Y-38885000D01*
X59828000Y-39255000D01*
X59600000Y-39255000D01*
X59550000Y-39205000D01*
X59550000Y-38405000D01*
X59600000Y-38355000D01*
X60400000Y-38355000D01*
X60450000Y-38405000D01*
G37*
G36*
X59842000Y-40315000D02*
G01*
X60172000Y-40315000D01*
X60172000Y-39945000D01*
X60400000Y-39945000D01*
X60450000Y-39995000D01*
X60450000Y-40795000D01*
X60400000Y-40845000D01*
X59600000Y-40845000D01*
X59550000Y-40795000D01*
X59550000Y-39995000D01*
X59600000Y-39945000D01*
X59842000Y-39945000D01*
X59842000Y-40315000D01*
G37*
%TO.C,R8*%
G36*
X51655000Y-26600000D02*
G01*
X51655000Y-26842000D01*
X51285000Y-26842000D01*
X51285000Y-27172000D01*
X51655000Y-27172000D01*
X51655000Y-27400000D01*
X51605000Y-27450000D01*
X50805000Y-27450000D01*
X50755000Y-27400000D01*
X50755000Y-26600000D01*
X50805000Y-26550000D01*
X51605000Y-26550000D01*
X51655000Y-26600000D01*
G37*
G36*
X53245000Y-26600000D02*
G01*
X53245000Y-27400000D01*
X53195000Y-27450000D01*
X52395000Y-27450000D01*
X52345000Y-27400000D01*
X52345000Y-27158000D01*
X52715000Y-27158000D01*
X52715000Y-26828000D01*
X52345000Y-26828000D01*
X52345000Y-26600000D01*
X52395000Y-26550000D01*
X53195000Y-26550000D01*
X53245000Y-26600000D01*
G37*
%TO.C,R6*%
G36*
X18950000Y-48805000D02*
G01*
X18950000Y-49605000D01*
X18900000Y-49655000D01*
X18658000Y-49655000D01*
X18658000Y-49285000D01*
X18328000Y-49285000D01*
X18328000Y-49655000D01*
X18100000Y-49655000D01*
X18050000Y-49605000D01*
X18050000Y-48805000D01*
X18100000Y-48755000D01*
X18900000Y-48755000D01*
X18950000Y-48805000D01*
G37*
G36*
X18342000Y-50715000D02*
G01*
X18672000Y-50715000D01*
X18672000Y-50345000D01*
X18900000Y-50345000D01*
X18950000Y-50395000D01*
X18950000Y-51195000D01*
X18900000Y-51245000D01*
X18100000Y-51245000D01*
X18050000Y-51195000D01*
X18050000Y-50395000D01*
X18100000Y-50345000D01*
X18342000Y-50345000D01*
X18342000Y-50715000D01*
G37*
%TO.C,R21*%
G36*
X61655000Y-25600000D02*
G01*
X61655000Y-25842000D01*
X61285000Y-25842000D01*
X61285000Y-26172000D01*
X61655000Y-26172000D01*
X61655000Y-26400000D01*
X61605000Y-26450000D01*
X60805000Y-26450000D01*
X60755000Y-26400000D01*
X60755000Y-25600000D01*
X60805000Y-25550000D01*
X61605000Y-25550000D01*
X61655000Y-25600000D01*
G37*
G36*
X63245000Y-25600000D02*
G01*
X63245000Y-26400000D01*
X63195000Y-26450000D01*
X62395000Y-26450000D01*
X62345000Y-26400000D01*
X62345000Y-26158000D01*
X62715000Y-26158000D01*
X62715000Y-25828000D01*
X62345000Y-25828000D01*
X62345000Y-25600000D01*
X62395000Y-25550000D01*
X63195000Y-25550000D01*
X63245000Y-25600000D01*
G37*
%TO.C,R46*%
G36*
X79350000Y-59805000D02*
G01*
X79350000Y-60605000D01*
X79300000Y-60655000D01*
X79058000Y-60655000D01*
X79058000Y-60285000D01*
X78728000Y-60285000D01*
X78728000Y-60655000D01*
X78500000Y-60655000D01*
X78450000Y-60605000D01*
X78450000Y-59805000D01*
X78500000Y-59755000D01*
X79300000Y-59755000D01*
X79350000Y-59805000D01*
G37*
G36*
X78742000Y-61715000D02*
G01*
X79072000Y-61715000D01*
X79072000Y-61345000D01*
X79300000Y-61345000D01*
X79350000Y-61395000D01*
X79350000Y-62195000D01*
X79300000Y-62245000D01*
X78500000Y-62245000D01*
X78450000Y-62195000D01*
X78450000Y-61395000D01*
X78500000Y-61345000D01*
X78742000Y-61345000D01*
X78742000Y-61715000D01*
G37*
%TO.C,R55*%
G36*
X80450000Y-17305000D02*
G01*
X80450000Y-18105000D01*
X80400000Y-18155000D01*
X80158000Y-18155000D01*
X80158000Y-17785000D01*
X79828000Y-17785000D01*
X79828000Y-18155000D01*
X79600000Y-18155000D01*
X79550000Y-18105000D01*
X79550000Y-17305000D01*
X79600000Y-17255000D01*
X80400000Y-17255000D01*
X80450000Y-17305000D01*
G37*
G36*
X79842000Y-19215000D02*
G01*
X80172000Y-19215000D01*
X80172000Y-18845000D01*
X80400000Y-18845000D01*
X80450000Y-18895000D01*
X80450000Y-19695000D01*
X80400000Y-19745000D01*
X79600000Y-19745000D01*
X79550000Y-19695000D01*
X79550000Y-18895000D01*
X79600000Y-18845000D01*
X79842000Y-18845000D01*
X79842000Y-19215000D01*
G37*
%TO.C,C8*%
G36*
X56864000Y-45265000D02*
G01*
X56864000Y-46550000D01*
X56764000Y-46650000D01*
X56393800Y-46650000D01*
X56293800Y-46550000D01*
X56293800Y-46245100D01*
X56193800Y-46145100D01*
X55806200Y-46145100D01*
X55706200Y-46245100D01*
X55706200Y-46550000D01*
X55606200Y-46650000D01*
X55236000Y-46650000D01*
X55136000Y-46550000D01*
X55136000Y-45265000D01*
X55236000Y-45165000D01*
X56764000Y-45165000D01*
X56864000Y-45265000D01*
G37*
G36*
X55706200Y-48450000D02*
G01*
X55706200Y-48754900D01*
X55806200Y-48854900D01*
X56193800Y-48854900D01*
X56293800Y-48754900D01*
X56293800Y-48450000D01*
X56393800Y-48350000D01*
X56764000Y-48350000D01*
X56864000Y-48450000D01*
X56864000Y-49735000D01*
X56764000Y-49835000D01*
X55236000Y-49835000D01*
X55136000Y-49735000D01*
X55136000Y-48450000D01*
X55236000Y-48350000D01*
X55606200Y-48350000D01*
X55706200Y-48450000D01*
G37*
%TO.C,R62*%
G36*
X86950000Y-50305000D02*
G01*
X86950000Y-51105000D01*
X86900000Y-51155000D01*
X86658000Y-51155000D01*
X86658000Y-50785000D01*
X86328000Y-50785000D01*
X86328000Y-51155000D01*
X86100000Y-51155000D01*
X86050000Y-51105000D01*
X86050000Y-50305000D01*
X86100000Y-50255000D01*
X86900000Y-50255000D01*
X86950000Y-50305000D01*
G37*
G36*
X86342000Y-52215000D02*
G01*
X86672000Y-52215000D01*
X86672000Y-51845000D01*
X86900000Y-51845000D01*
X86950000Y-51895000D01*
X86950000Y-52695000D01*
X86900000Y-52745000D01*
X86100000Y-52745000D01*
X86050000Y-52695000D01*
X86050000Y-51895000D01*
X86100000Y-51845000D01*
X86342000Y-51845000D01*
X86342000Y-52215000D01*
G37*
%TO.C,R60*%
G36*
X86950000Y-28305000D02*
G01*
X86950000Y-29105000D01*
X86900000Y-29155000D01*
X86658000Y-29155000D01*
X86658000Y-28785000D01*
X86328000Y-28785000D01*
X86328000Y-29155000D01*
X86100000Y-29155000D01*
X86050000Y-29105000D01*
X86050000Y-28305000D01*
X86100000Y-28255000D01*
X86900000Y-28255000D01*
X86950000Y-28305000D01*
G37*
G36*
X86342000Y-30215000D02*
G01*
X86672000Y-30215000D01*
X86672000Y-29845000D01*
X86900000Y-29845000D01*
X86950000Y-29895000D01*
X86950000Y-30695000D01*
X86900000Y-30745000D01*
X86100000Y-30745000D01*
X86050000Y-30695000D01*
X86050000Y-29895000D01*
X86100000Y-29845000D01*
X86342000Y-29845000D01*
X86342000Y-30215000D01*
G37*
%TO.C,R13*%
G36*
X23655000Y-30600000D02*
G01*
X23655000Y-30842000D01*
X23285000Y-30842000D01*
X23285000Y-31172000D01*
X23655000Y-31172000D01*
X23655000Y-31400000D01*
X23605000Y-31450000D01*
X22805000Y-31450000D01*
X22755000Y-31400000D01*
X22755000Y-30600000D01*
X22805000Y-30550000D01*
X23605000Y-30550000D01*
X23655000Y-30600000D01*
G37*
G36*
X25245000Y-30600000D02*
G01*
X25245000Y-31400000D01*
X25195000Y-31450000D01*
X24395000Y-31450000D01*
X24345000Y-31400000D01*
X24345000Y-31158000D01*
X24715000Y-31158000D01*
X24715000Y-30828000D01*
X24345000Y-30828000D01*
X24345000Y-30600000D01*
X24395000Y-30550000D01*
X25195000Y-30550000D01*
X25245000Y-30600000D01*
G37*
%TO.C,R25*%
G36*
X68450000Y-37805000D02*
G01*
X68450000Y-38605000D01*
X68400000Y-38655000D01*
X68158000Y-38655000D01*
X68158000Y-38285000D01*
X67828000Y-38285000D01*
X67828000Y-38655000D01*
X67600000Y-38655000D01*
X67550000Y-38605000D01*
X67550000Y-37805000D01*
X67600000Y-37755000D01*
X68400000Y-37755000D01*
X68450000Y-37805000D01*
G37*
G36*
X67842000Y-39715000D02*
G01*
X68172000Y-39715000D01*
X68172000Y-39345000D01*
X68400000Y-39345000D01*
X68450000Y-39395000D01*
X68450000Y-40195000D01*
X68400000Y-40245000D01*
X67600000Y-40245000D01*
X67550000Y-40195000D01*
X67550000Y-39395000D01*
X67600000Y-39345000D01*
X67842000Y-39345000D01*
X67842000Y-39715000D01*
G37*
%TO.C,R30*%
G36*
X60450000Y-33605000D02*
G01*
X60450000Y-34405000D01*
X60400000Y-34455000D01*
X60158000Y-34455000D01*
X60158000Y-34085000D01*
X59828000Y-34085000D01*
X59828000Y-34455000D01*
X59600000Y-34455000D01*
X59550000Y-34405000D01*
X59550000Y-33605000D01*
X59600000Y-33555000D01*
X60400000Y-33555000D01*
X60450000Y-33605000D01*
G37*
G36*
X59842000Y-35515000D02*
G01*
X60172000Y-35515000D01*
X60172000Y-35145000D01*
X60400000Y-35145000D01*
X60450000Y-35195000D01*
X60450000Y-35995000D01*
X60400000Y-36045000D01*
X59600000Y-36045000D01*
X59550000Y-35995000D01*
X59550000Y-35195000D01*
X59600000Y-35145000D01*
X59842000Y-35145000D01*
X59842000Y-35515000D01*
G37*
%TO.C,R45*%
G36*
X68350000Y-59805000D02*
G01*
X68350000Y-60605000D01*
X68300000Y-60655000D01*
X68058000Y-60655000D01*
X68058000Y-60285000D01*
X67728000Y-60285000D01*
X67728000Y-60655000D01*
X67500000Y-60655000D01*
X67450000Y-60605000D01*
X67450000Y-59805000D01*
X67500000Y-59755000D01*
X68300000Y-59755000D01*
X68350000Y-59805000D01*
G37*
G36*
X67742000Y-61715000D02*
G01*
X68072000Y-61715000D01*
X68072000Y-61345000D01*
X68300000Y-61345000D01*
X68350000Y-61395000D01*
X68350000Y-62195000D01*
X68300000Y-62245000D01*
X67500000Y-62245000D01*
X67450000Y-62195000D01*
X67450000Y-61395000D01*
X67500000Y-61345000D01*
X67742000Y-61345000D01*
X67742000Y-61715000D01*
G37*
%TO.C,R39*%
G36*
X2350000Y-59805000D02*
G01*
X2350000Y-60605000D01*
X2300000Y-60655000D01*
X2058000Y-60655000D01*
X2058000Y-60285000D01*
X1728000Y-60285000D01*
X1728000Y-60655000D01*
X1500000Y-60655000D01*
X1450000Y-60605000D01*
X1450000Y-59805000D01*
X1500000Y-59755000D01*
X2300000Y-59755000D01*
X2350000Y-59805000D01*
G37*
G36*
X1742000Y-61715000D02*
G01*
X2072000Y-61715000D01*
X2072000Y-61345000D01*
X2300000Y-61345000D01*
X2350000Y-61395000D01*
X2350000Y-62195000D01*
X2300000Y-62245000D01*
X1500000Y-62245000D01*
X1450000Y-62195000D01*
X1450000Y-61395000D01*
X1500000Y-61345000D01*
X1742000Y-61345000D01*
X1742000Y-61715000D01*
G37*
%TO.C,R24*%
G36*
X48950000Y-33805000D02*
G01*
X48950000Y-34605000D01*
X48900000Y-34655000D01*
X48658000Y-34655000D01*
X48658000Y-34285000D01*
X48328000Y-34285000D01*
X48328000Y-34655000D01*
X48100000Y-34655000D01*
X48050000Y-34605000D01*
X48050000Y-33805000D01*
X48100000Y-33755000D01*
X48900000Y-33755000D01*
X48950000Y-33805000D01*
G37*
G36*
X48342000Y-35715000D02*
G01*
X48672000Y-35715000D01*
X48672000Y-35345000D01*
X48900000Y-35345000D01*
X48950000Y-35395000D01*
X48950000Y-36195000D01*
X48900000Y-36245000D01*
X48100000Y-36245000D01*
X48050000Y-36195000D01*
X48050000Y-35395000D01*
X48100000Y-35345000D01*
X48342000Y-35345000D01*
X48342000Y-35715000D01*
G37*
%TO.C,C17*%
G36*
X16864000Y-21765000D02*
G01*
X16864000Y-23050000D01*
X16764000Y-23150000D01*
X16393800Y-23150000D01*
X16293800Y-23050000D01*
X16293800Y-22745100D01*
X16193800Y-22645100D01*
X15806200Y-22645100D01*
X15706200Y-22745100D01*
X15706200Y-23050000D01*
X15606200Y-23150000D01*
X15236000Y-23150000D01*
X15136000Y-23050000D01*
X15136000Y-21765000D01*
X15236000Y-21665000D01*
X16764000Y-21665000D01*
X16864000Y-21765000D01*
G37*
G36*
X15706200Y-24950000D02*
G01*
X15706200Y-25254900D01*
X15806200Y-25354900D01*
X16193800Y-25354900D01*
X16293800Y-25254900D01*
X16293800Y-24950000D01*
X16393800Y-24850000D01*
X16764000Y-24850000D01*
X16864000Y-24950000D01*
X16864000Y-26235000D01*
X16764000Y-26335000D01*
X15236000Y-26335000D01*
X15136000Y-26235000D01*
X15136000Y-24950000D01*
X15236000Y-24850000D01*
X15606200Y-24850000D01*
X15706200Y-24950000D01*
G37*
%TO.C,R56*%
G36*
X80450000Y-28305000D02*
G01*
X80450000Y-29105000D01*
X80400000Y-29155000D01*
X80158000Y-29155000D01*
X80158000Y-28785000D01*
X79828000Y-28785000D01*
X79828000Y-29155000D01*
X79600000Y-29155000D01*
X79550000Y-29105000D01*
X79550000Y-28305000D01*
X79600000Y-28255000D01*
X80400000Y-28255000D01*
X80450000Y-28305000D01*
G37*
G36*
X79842000Y-30215000D02*
G01*
X80172000Y-30215000D01*
X80172000Y-29845000D01*
X80400000Y-29845000D01*
X80450000Y-29895000D01*
X80450000Y-30695000D01*
X80400000Y-30745000D01*
X79600000Y-30745000D01*
X79550000Y-30695000D01*
X79550000Y-29895000D01*
X79600000Y-29845000D01*
X79842000Y-29845000D01*
X79842000Y-30215000D01*
G37*
%TO.C,R19*%
G36*
X61655000Y-21600000D02*
G01*
X61655000Y-21842000D01*
X61285000Y-21842000D01*
X61285000Y-22172000D01*
X61655000Y-22172000D01*
X61655000Y-22400000D01*
X61605000Y-22450000D01*
X60805000Y-22450000D01*
X60755000Y-22400000D01*
X60755000Y-21600000D01*
X60805000Y-21550000D01*
X61605000Y-21550000D01*
X61655000Y-21600000D01*
G37*
G36*
X63245000Y-21600000D02*
G01*
X63245000Y-22400000D01*
X63195000Y-22450000D01*
X62395000Y-22450000D01*
X62345000Y-22400000D01*
X62345000Y-22158000D01*
X62715000Y-22158000D01*
X62715000Y-21828000D01*
X62345000Y-21828000D01*
X62345000Y-21600000D01*
X62395000Y-21550000D01*
X63195000Y-21550000D01*
X63245000Y-21600000D01*
G37*
%TO.C,R26*%
G36*
X68450000Y-51805000D02*
G01*
X68450000Y-52605000D01*
X68400000Y-52655000D01*
X68158000Y-52655000D01*
X68158000Y-52285000D01*
X67828000Y-52285000D01*
X67828000Y-52655000D01*
X67600000Y-52655000D01*
X67550000Y-52605000D01*
X67550000Y-51805000D01*
X67600000Y-51755000D01*
X68400000Y-51755000D01*
X68450000Y-51805000D01*
G37*
G36*
X67842000Y-53715000D02*
G01*
X68172000Y-53715000D01*
X68172000Y-53345000D01*
X68400000Y-53345000D01*
X68450000Y-53395000D01*
X68450000Y-54195000D01*
X68400000Y-54245000D01*
X67600000Y-54245000D01*
X67550000Y-54195000D01*
X67550000Y-53395000D01*
X67600000Y-53345000D01*
X67842000Y-53345000D01*
X67842000Y-53715000D01*
G37*
%TO.C,R57*%
G36*
X80450000Y-39305000D02*
G01*
X80450000Y-40105000D01*
X80400000Y-40155000D01*
X80158000Y-40155000D01*
X80158000Y-39785000D01*
X79828000Y-39785000D01*
X79828000Y-40155000D01*
X79600000Y-40155000D01*
X79550000Y-40105000D01*
X79550000Y-39305000D01*
X79600000Y-39255000D01*
X80400000Y-39255000D01*
X80450000Y-39305000D01*
G37*
G36*
X79842000Y-41215000D02*
G01*
X80172000Y-41215000D01*
X80172000Y-40845000D01*
X80400000Y-40845000D01*
X80450000Y-40895000D01*
X80450000Y-41695000D01*
X80400000Y-41745000D01*
X79600000Y-41745000D01*
X79550000Y-41695000D01*
X79550000Y-40895000D01*
X79600000Y-40845000D01*
X79842000Y-40845000D01*
X79842000Y-41215000D01*
G37*
%TO.C,R4*%
G36*
X52950000Y-40805000D02*
G01*
X52950000Y-41605000D01*
X52900000Y-41655000D01*
X52658000Y-41655000D01*
X52658000Y-41285000D01*
X52328000Y-41285000D01*
X52328000Y-41655000D01*
X52100000Y-41655000D01*
X52050000Y-41605000D01*
X52050000Y-40805000D01*
X52100000Y-40755000D01*
X52900000Y-40755000D01*
X52950000Y-40805000D01*
G37*
G36*
X52342000Y-42715000D02*
G01*
X52672000Y-42715000D01*
X52672000Y-42345000D01*
X52900000Y-42345000D01*
X52950000Y-42395000D01*
X52950000Y-43195000D01*
X52900000Y-43245000D01*
X52100000Y-43245000D01*
X52050000Y-43195000D01*
X52050000Y-42395000D01*
X52100000Y-42345000D01*
X52342000Y-42345000D01*
X52342000Y-42715000D01*
G37*
%TO.C,C7*%
G36*
X56864000Y-38265000D02*
G01*
X56864000Y-39550000D01*
X56764000Y-39650000D01*
X56393800Y-39650000D01*
X56293800Y-39550000D01*
X56293800Y-39245100D01*
X56193800Y-39145100D01*
X55806200Y-39145100D01*
X55706200Y-39245100D01*
X55706200Y-39550000D01*
X55606200Y-39650000D01*
X55236000Y-39650000D01*
X55136000Y-39550000D01*
X55136000Y-38265000D01*
X55236000Y-38165000D01*
X56764000Y-38165000D01*
X56864000Y-38265000D01*
G37*
G36*
X55706200Y-41450000D02*
G01*
X55706200Y-41754900D01*
X55806200Y-41854900D01*
X56193800Y-41854900D01*
X56293800Y-41754900D01*
X56293800Y-41450000D01*
X56393800Y-41350000D01*
X56764000Y-41350000D01*
X56864000Y-41450000D01*
X56864000Y-42735000D01*
X56764000Y-42835000D01*
X55236000Y-42835000D01*
X55136000Y-42735000D01*
X55136000Y-41450000D01*
X55236000Y-41350000D01*
X55606200Y-41350000D01*
X55706200Y-41450000D01*
G37*
%TO.C,R38*%
G36*
X64450000Y-48005000D02*
G01*
X64450000Y-48805000D01*
X64400000Y-48855000D01*
X64158000Y-48855000D01*
X64158000Y-48485000D01*
X63828000Y-48485000D01*
X63828000Y-48855000D01*
X63600000Y-48855000D01*
X63550000Y-48805000D01*
X63550000Y-48005000D01*
X63600000Y-47955000D01*
X64400000Y-47955000D01*
X64450000Y-48005000D01*
G37*
G36*
X63842000Y-49915000D02*
G01*
X64172000Y-49915000D01*
X64172000Y-49545000D01*
X64400000Y-49545000D01*
X64450000Y-49595000D01*
X64450000Y-50395000D01*
X64400000Y-50445000D01*
X63600000Y-50445000D01*
X63550000Y-50395000D01*
X63550000Y-49595000D01*
X63600000Y-49545000D01*
X63842000Y-49545000D01*
X63842000Y-49915000D01*
G37*
%TO.C,R3*%
G36*
X21450000Y-32805000D02*
G01*
X21450000Y-33605000D01*
X21400000Y-33655000D01*
X21158000Y-33655000D01*
X21158000Y-33285000D01*
X20828000Y-33285000D01*
X20828000Y-33655000D01*
X20600000Y-33655000D01*
X20550000Y-33605000D01*
X20550000Y-32805000D01*
X20600000Y-32755000D01*
X21400000Y-32755000D01*
X21450000Y-32805000D01*
G37*
G36*
X20842000Y-34715000D02*
G01*
X21172000Y-34715000D01*
X21172000Y-34345000D01*
X21400000Y-34345000D01*
X21450000Y-34395000D01*
X21450000Y-35195000D01*
X21400000Y-35245000D01*
X20600000Y-35245000D01*
X20550000Y-35195000D01*
X20550000Y-34395000D01*
X20600000Y-34345000D01*
X20842000Y-34345000D01*
X20842000Y-34715000D01*
G37*
%TO.C,R9*%
G36*
X56155000Y-26600000D02*
G01*
X56155000Y-26842000D01*
X55785000Y-26842000D01*
X55785000Y-27172000D01*
X56155000Y-27172000D01*
X56155000Y-27400000D01*
X56105000Y-27450000D01*
X55305000Y-27450000D01*
X55255000Y-27400000D01*
X55255000Y-26600000D01*
X55305000Y-26550000D01*
X56105000Y-26550000D01*
X56155000Y-26600000D01*
G37*
G36*
X57745000Y-26600000D02*
G01*
X57745000Y-27400000D01*
X57695000Y-27450000D01*
X56895000Y-27450000D01*
X56845000Y-27400000D01*
X56845000Y-27158000D01*
X57215000Y-27158000D01*
X57215000Y-26828000D01*
X56845000Y-26828000D01*
X56845000Y-26600000D01*
X56895000Y-26550000D01*
X57695000Y-26550000D01*
X57745000Y-26600000D01*
G37*
%TO.C,R63*%
G36*
X11450000Y-13305000D02*
G01*
X11450000Y-14105000D01*
X11400000Y-14155000D01*
X11158000Y-14155000D01*
X11158000Y-13785000D01*
X10828000Y-13785000D01*
X10828000Y-14155000D01*
X10600000Y-14155000D01*
X10550000Y-14105000D01*
X10550000Y-13305000D01*
X10600000Y-13255000D01*
X11400000Y-13255000D01*
X11450000Y-13305000D01*
G37*
G36*
X10842000Y-15215000D02*
G01*
X11172000Y-15215000D01*
X11172000Y-14845000D01*
X11400000Y-14845000D01*
X11450000Y-14895000D01*
X11450000Y-15695000D01*
X11400000Y-15745000D01*
X10600000Y-15745000D01*
X10550000Y-15695000D01*
X10550000Y-14895000D01*
X10600000Y-14845000D01*
X10842000Y-14845000D01*
X10842000Y-15215000D01*
G37*
%TO.C,R50*%
G36*
X42350000Y-59805000D02*
G01*
X42350000Y-60605000D01*
X42300000Y-60655000D01*
X42058000Y-60655000D01*
X42058000Y-60285000D01*
X41728000Y-60285000D01*
X41728000Y-60655000D01*
X41500000Y-60655000D01*
X41450000Y-60605000D01*
X41450000Y-59805000D01*
X41500000Y-59755000D01*
X42300000Y-59755000D01*
X42350000Y-59805000D01*
G37*
G36*
X41742000Y-61715000D02*
G01*
X42072000Y-61715000D01*
X42072000Y-61345000D01*
X42300000Y-61345000D01*
X42350000Y-61395000D01*
X42350000Y-62195000D01*
X42300000Y-62245000D01*
X41500000Y-62245000D01*
X41450000Y-62195000D01*
X41450000Y-61395000D01*
X41500000Y-61345000D01*
X41742000Y-61345000D01*
X41742000Y-61715000D01*
G37*
%TO.C,R7*%
G36*
X16155000Y-18600000D02*
G01*
X16155000Y-18842000D01*
X15785000Y-18842000D01*
X15785000Y-19172000D01*
X16155000Y-19172000D01*
X16155000Y-19400000D01*
X16105000Y-19450000D01*
X15305000Y-19450000D01*
X15255000Y-19400000D01*
X15255000Y-18600000D01*
X15305000Y-18550000D01*
X16105000Y-18550000D01*
X16155000Y-18600000D01*
G37*
G36*
X17745000Y-18600000D02*
G01*
X17745000Y-19400000D01*
X17695000Y-19450000D01*
X16895000Y-19450000D01*
X16845000Y-19400000D01*
X16845000Y-19158000D01*
X17215000Y-19158000D01*
X17215000Y-18828000D01*
X16845000Y-18828000D01*
X16845000Y-18600000D01*
X16895000Y-18550000D01*
X17695000Y-18550000D01*
X17745000Y-18600000D01*
G37*
%TO.C,R64*%
G36*
X11450000Y-22305000D02*
G01*
X11450000Y-23105000D01*
X11400000Y-23155000D01*
X11158000Y-23155000D01*
X11158000Y-22785000D01*
X10828000Y-22785000D01*
X10828000Y-23155000D01*
X10600000Y-23155000D01*
X10550000Y-23105000D01*
X10550000Y-22305000D01*
X10600000Y-22255000D01*
X11400000Y-22255000D01*
X11450000Y-22305000D01*
G37*
G36*
X10842000Y-24215000D02*
G01*
X11172000Y-24215000D01*
X11172000Y-23845000D01*
X11400000Y-23845000D01*
X11450000Y-23895000D01*
X11450000Y-24695000D01*
X11400000Y-24745000D01*
X10600000Y-24745000D01*
X10550000Y-24695000D01*
X10550000Y-23895000D01*
X10600000Y-23845000D01*
X10842000Y-23845000D01*
X10842000Y-24215000D01*
G37*
%TO.C,R18*%
G36*
X69450000Y-15305000D02*
G01*
X69450000Y-16105000D01*
X69400000Y-16155000D01*
X69158000Y-16155000D01*
X69158000Y-15785000D01*
X68828000Y-15785000D01*
X68828000Y-16155000D01*
X68600000Y-16155000D01*
X68550000Y-16105000D01*
X68550000Y-15305000D01*
X68600000Y-15255000D01*
X69400000Y-15255000D01*
X69450000Y-15305000D01*
G37*
G36*
X68842000Y-17215000D02*
G01*
X69172000Y-17215000D01*
X69172000Y-16845000D01*
X69400000Y-16845000D01*
X69450000Y-16895000D01*
X69450000Y-17695000D01*
X69400000Y-17745000D01*
X68600000Y-17745000D01*
X68550000Y-17695000D01*
X68550000Y-16895000D01*
X68600000Y-16845000D01*
X68842000Y-16845000D01*
X68842000Y-17215000D01*
G37*
%TO.C,R51*%
G36*
X53350000Y-59805000D02*
G01*
X53350000Y-60605000D01*
X53300000Y-60655000D01*
X53058000Y-60655000D01*
X53058000Y-60285000D01*
X52728000Y-60285000D01*
X52728000Y-60655000D01*
X52500000Y-60655000D01*
X52450000Y-60605000D01*
X52450000Y-59805000D01*
X52500000Y-59755000D01*
X53300000Y-59755000D01*
X53350000Y-59805000D01*
G37*
G36*
X52742000Y-61715000D02*
G01*
X53072000Y-61715000D01*
X53072000Y-61345000D01*
X53300000Y-61345000D01*
X53350000Y-61395000D01*
X53350000Y-62195000D01*
X53300000Y-62245000D01*
X52500000Y-62245000D01*
X52450000Y-62195000D01*
X52450000Y-61395000D01*
X52500000Y-61345000D01*
X52742000Y-61345000D01*
X52742000Y-61715000D01*
G37*
%TO.C,R27*%
G36*
X45950000Y-33305000D02*
G01*
X45950000Y-34105000D01*
X45900000Y-34155000D01*
X45658000Y-34155000D01*
X45658000Y-33785000D01*
X45328000Y-33785000D01*
X45328000Y-34155000D01*
X45100000Y-34155000D01*
X45050000Y-34105000D01*
X45050000Y-33305000D01*
X45100000Y-33255000D01*
X45900000Y-33255000D01*
X45950000Y-33305000D01*
G37*
G36*
X45342000Y-35215000D02*
G01*
X45672000Y-35215000D01*
X45672000Y-34845000D01*
X45900000Y-34845000D01*
X45950000Y-34895000D01*
X45950000Y-35695000D01*
X45900000Y-35745000D01*
X45100000Y-35745000D01*
X45050000Y-35695000D01*
X45050000Y-34895000D01*
X45100000Y-34845000D01*
X45342000Y-34845000D01*
X45342000Y-35215000D01*
G37*
%TO.C,R54*%
G36*
X86350000Y-59805000D02*
G01*
X86350000Y-60605000D01*
X86300000Y-60655000D01*
X86058000Y-60655000D01*
X86058000Y-60285000D01*
X85728000Y-60285000D01*
X85728000Y-60655000D01*
X85500000Y-60655000D01*
X85450000Y-60605000D01*
X85450000Y-59805000D01*
X85500000Y-59755000D01*
X86300000Y-59755000D01*
X86350000Y-59805000D01*
G37*
G36*
X85742000Y-61715000D02*
G01*
X86072000Y-61715000D01*
X86072000Y-61345000D01*
X86300000Y-61345000D01*
X86350000Y-61395000D01*
X86350000Y-62195000D01*
X86300000Y-62245000D01*
X85500000Y-62245000D01*
X85450000Y-62195000D01*
X85450000Y-61395000D01*
X85500000Y-61345000D01*
X85742000Y-61345000D01*
X85742000Y-61715000D01*
G37*
%TO.C,C9*%
G36*
X63864000Y-52765000D02*
G01*
X63864000Y-54050000D01*
X63764000Y-54150000D01*
X63393800Y-54150000D01*
X63293800Y-54050000D01*
X63293800Y-53745100D01*
X63193800Y-53645100D01*
X62806200Y-53645100D01*
X62706200Y-53745100D01*
X62706200Y-54050000D01*
X62606200Y-54150000D01*
X62236000Y-54150000D01*
X62136000Y-54050000D01*
X62136000Y-52765000D01*
X62236000Y-52665000D01*
X63764000Y-52665000D01*
X63864000Y-52765000D01*
G37*
G36*
X62706200Y-55950000D02*
G01*
X62706200Y-56254900D01*
X62806200Y-56354900D01*
X63193800Y-56354900D01*
X63293800Y-56254900D01*
X63293800Y-55950000D01*
X63393800Y-55850000D01*
X63764000Y-55850000D01*
X63864000Y-55950000D01*
X63864000Y-57235000D01*
X63764000Y-57335000D01*
X62236000Y-57335000D01*
X62136000Y-57235000D01*
X62136000Y-55950000D01*
X62236000Y-55850000D01*
X62606200Y-55850000D01*
X62706200Y-55950000D01*
G37*
%TO.C,J1*%
G36*
X2550900Y-20399900D02*
G01*
X1250900Y-20399900D01*
X1250900Y-20099900D01*
X2550900Y-20099900D01*
X2550900Y-20399900D01*
G37*
G36*
X2550900Y-17399900D02*
G01*
X1250900Y-17399900D01*
X1250900Y-17099900D01*
X2550900Y-17099900D01*
X2550900Y-17399900D01*
G37*
G36*
X2550900Y-17900300D02*
G01*
X1250900Y-17900300D01*
X1250900Y-17600300D01*
X2550900Y-17600300D01*
X2550900Y-17900300D01*
G37*
G36*
X2550900Y-18399900D02*
G01*
X1250900Y-18399900D01*
X1250900Y-18099900D01*
X2550900Y-18099900D01*
X2550900Y-18399900D01*
G37*
G36*
X2550900Y-18900100D02*
G01*
X1250900Y-18900100D01*
X1250900Y-18600100D01*
X2550900Y-18600100D01*
X2550900Y-18900100D01*
G37*
G36*
X2550900Y-19399900D02*
G01*
X1250900Y-19399900D01*
X1250900Y-19099900D01*
X2550900Y-19099900D01*
X2550900Y-19399900D01*
G37*
G36*
X2550900Y-19900000D02*
G01*
X1250900Y-19900000D01*
X1250900Y-19600000D01*
X2550900Y-19600000D01*
X2550900Y-19900000D01*
G37*
G36*
X2550900Y-20900000D02*
G01*
X1250900Y-20900000D01*
X1250900Y-20600000D01*
X2550900Y-20600000D01*
X2550900Y-20900000D01*
G37*
G36*
X2551000Y-15800000D02*
G01*
X2551000Y-16100000D01*
X1251100Y-16100000D01*
X1251100Y-15800000D01*
X1251100Y-15500000D01*
X2551000Y-15500000D01*
X2551000Y-15800000D01*
G37*
G36*
X2551000Y-21399900D02*
G01*
X2551000Y-21699900D01*
X1251000Y-21699900D01*
X1251000Y-21400000D01*
X1251000Y-21100000D01*
X2551000Y-21100000D01*
X2551000Y-21399900D01*
G37*
G36*
X2550800Y-16599800D02*
G01*
X2550800Y-16599900D01*
X2550800Y-16899900D01*
X1250900Y-16899900D01*
X1250900Y-16599900D01*
X1250900Y-16599800D01*
X1250900Y-16299800D01*
X2550800Y-16299800D01*
X2550800Y-16599800D01*
G37*
G36*
X2550900Y-22199900D02*
G01*
X2551000Y-22199900D01*
X2551000Y-22499900D01*
X1251000Y-22499900D01*
X1251000Y-22200000D01*
X1250900Y-22200000D01*
X1250900Y-21900000D01*
X2550900Y-21900000D01*
X2550900Y-22199900D01*
G37*
G36*
X3099200Y-14075600D02*
G01*
X3129000Y-14077900D01*
X3158700Y-14081600D01*
X3188200Y-14086800D01*
X3217400Y-14093400D01*
X3246200Y-14101500D01*
X3274500Y-14111100D01*
X3302400Y-14122000D01*
X3329600Y-14134300D01*
X3356300Y-14148000D01*
X3382200Y-14162900D01*
X3407300Y-14179200D01*
X3431600Y-14196600D01*
X3455000Y-14215200D01*
X3477400Y-14235100D01*
X3498800Y-14255900D01*
X3519200Y-14277900D01*
X3538400Y-14300800D01*
X3556500Y-14324600D01*
X3573300Y-14349400D01*
X3588900Y-14374900D01*
X3603200Y-14401200D01*
X3616200Y-14428100D01*
X3627800Y-14455700D01*
X3638100Y-14483800D01*
X3646900Y-14512400D01*
X3654300Y-14541400D01*
X3660200Y-14570700D01*
X3664700Y-14600300D01*
X3667600Y-14630100D01*
X3669100Y-14659900D01*
X3669100Y-14689800D01*
X3667600Y-14719700D01*
X3664700Y-14749500D01*
X3660200Y-14779100D01*
X3654300Y-14808400D01*
X3646900Y-14837400D01*
X3638100Y-14866000D01*
X3627800Y-14894100D01*
X3616200Y-14921600D01*
X3603200Y-14948600D01*
X3588900Y-14974900D01*
X3573300Y-15000400D01*
X3556500Y-15025100D01*
X3538400Y-15049000D01*
X3519200Y-15071900D01*
X3498800Y-15093800D01*
X3477400Y-15114700D01*
X3455000Y-15134500D01*
X3431600Y-15153200D01*
X3407300Y-15170600D01*
X3382200Y-15186900D01*
X3356300Y-15201800D01*
X3329600Y-15215500D01*
X3302400Y-15227800D01*
X3274500Y-15238700D01*
X3246200Y-15248200D01*
X3217400Y-15256300D01*
X3188200Y-15263000D01*
X3158700Y-15268200D01*
X3129000Y-15271900D01*
X3099200Y-15274200D01*
X3069300Y-15274900D01*
X2269300Y-15274900D01*
X2239400Y-15274200D01*
X2209600Y-15271900D01*
X2179900Y-15268200D01*
X2150400Y-15263000D01*
X2121300Y-15256300D01*
X2092400Y-15248200D01*
X2064100Y-15238700D01*
X2036200Y-15227800D01*
X2009000Y-15215500D01*
X1982400Y-15201800D01*
X1956500Y-15186900D01*
X1931300Y-15170600D01*
X1907000Y-15153200D01*
X1883600Y-15134500D01*
X1861200Y-15114700D01*
X1839800Y-15093800D01*
X1819400Y-15071900D01*
X1800200Y-15049000D01*
X1782100Y-15025100D01*
X1765300Y-15000400D01*
X1749700Y-14974900D01*
X1735400Y-14948600D01*
X1722400Y-14921600D01*
X1710800Y-14894100D01*
X1700600Y-14866000D01*
X1691700Y-14837400D01*
X1684300Y-14808400D01*
X1678400Y-14779100D01*
X1674000Y-14749500D01*
X1671000Y-14719700D01*
X1669500Y-14689800D01*
X1669500Y-14659900D01*
X1671000Y-14630100D01*
X1674000Y-14600300D01*
X1678400Y-14570700D01*
X1684300Y-14541400D01*
X1691700Y-14512400D01*
X1700600Y-14483800D01*
X1710800Y-14455700D01*
X1722400Y-14428100D01*
X1735400Y-14401200D01*
X1749700Y-14374900D01*
X1765300Y-14349400D01*
X1782100Y-14324600D01*
X1800200Y-14300800D01*
X1819400Y-14277900D01*
X1839800Y-14255900D01*
X1861200Y-14235100D01*
X1883600Y-14215200D01*
X1907000Y-14196600D01*
X1931300Y-14179200D01*
X1956500Y-14162900D01*
X1982400Y-14148000D01*
X2009000Y-14134300D01*
X2036200Y-14122000D01*
X2064100Y-14111100D01*
X2092400Y-14101500D01*
X2121300Y-14093400D01*
X2150400Y-14086800D01*
X2179900Y-14081600D01*
X2209600Y-14077900D01*
X2239400Y-14075600D01*
X2269300Y-14074900D01*
X3069300Y-14074900D01*
X3099200Y-14075600D01*
G37*
G36*
X3099200Y-22725800D02*
G01*
X3129000Y-22728100D01*
X3158700Y-22731800D01*
X3188200Y-22737000D01*
X3217400Y-22743700D01*
X3246200Y-22751800D01*
X3274500Y-22761300D01*
X3302400Y-22772200D01*
X3329600Y-22784500D01*
X3356300Y-22798200D01*
X3382200Y-22813100D01*
X3407300Y-22829400D01*
X3431600Y-22846800D01*
X3455000Y-22865500D01*
X3477400Y-22885300D01*
X3498800Y-22906200D01*
X3519200Y-22928100D01*
X3538400Y-22951000D01*
X3556500Y-22974900D01*
X3573300Y-22999600D01*
X3588900Y-23025100D01*
X3603200Y-23051400D01*
X3616200Y-23078400D01*
X3627800Y-23105900D01*
X3638100Y-23134000D01*
X3646900Y-23162600D01*
X3654300Y-23191600D01*
X3660200Y-23220900D01*
X3664700Y-23250500D01*
X3667600Y-23280300D01*
X3669100Y-23310200D01*
X3669100Y-23340100D01*
X3667600Y-23369900D01*
X3664700Y-23399700D01*
X3660200Y-23429300D01*
X3654300Y-23458600D01*
X3646900Y-23487600D01*
X3638100Y-23516200D01*
X3627800Y-23544300D01*
X3616200Y-23571900D01*
X3603200Y-23598800D01*
X3588900Y-23625100D01*
X3573300Y-23650600D01*
X3556500Y-23675400D01*
X3538400Y-23699200D01*
X3519200Y-23722100D01*
X3498800Y-23744100D01*
X3477400Y-23764900D01*
X3455000Y-23784800D01*
X3431600Y-23803400D01*
X3407300Y-23820800D01*
X3382200Y-23837100D01*
X3356300Y-23852000D01*
X3329600Y-23865700D01*
X3302400Y-23878000D01*
X3274500Y-23888900D01*
X3246200Y-23898500D01*
X3217400Y-23906600D01*
X3188200Y-23913200D01*
X3158700Y-23918400D01*
X3129000Y-23922100D01*
X3099200Y-23924400D01*
X3069300Y-23925100D01*
X2269300Y-23925100D01*
X2239400Y-23924400D01*
X2209600Y-23922100D01*
X2179900Y-23918400D01*
X2150400Y-23913200D01*
X2121300Y-23906600D01*
X2092400Y-23898500D01*
X2064100Y-23888900D01*
X2036200Y-23878000D01*
X2009000Y-23865700D01*
X1982400Y-23852000D01*
X1956500Y-23837100D01*
X1931300Y-23820800D01*
X1907000Y-23803400D01*
X1883600Y-23784800D01*
X1861200Y-23764900D01*
X1839800Y-23744100D01*
X1819400Y-23722100D01*
X1800200Y-23699200D01*
X1782100Y-23675400D01*
X1765300Y-23650600D01*
X1749700Y-23625100D01*
X1735400Y-23598800D01*
X1722400Y-23571900D01*
X1710800Y-23544300D01*
X1700600Y-23516200D01*
X1691700Y-23487600D01*
X1684300Y-23458600D01*
X1678400Y-23429300D01*
X1674000Y-23399700D01*
X1671000Y-23369900D01*
X1669500Y-23340100D01*
X1669500Y-23310200D01*
X1671000Y-23280300D01*
X1674000Y-23250500D01*
X1678400Y-23220900D01*
X1684300Y-23191600D01*
X1691700Y-23162600D01*
X1700600Y-23134000D01*
X1710800Y-23105900D01*
X1722400Y-23078400D01*
X1735400Y-23051400D01*
X1749700Y-23025100D01*
X1765300Y-22999600D01*
X1782100Y-22974900D01*
X1800200Y-22951000D01*
X1819400Y-22928100D01*
X1839800Y-22906200D01*
X1861200Y-22885300D01*
X1883600Y-22865500D01*
X1907000Y-22846800D01*
X1931300Y-22829400D01*
X1956500Y-22813100D01*
X1982400Y-22798200D01*
X2009000Y-22784500D01*
X2036200Y-22772200D01*
X2064100Y-22761300D01*
X2092400Y-22751800D01*
X2121300Y-22743700D01*
X2150400Y-22737000D01*
X2179900Y-22731800D01*
X2209600Y-22728100D01*
X2239400Y-22725800D01*
X2269300Y-22725100D01*
X3069300Y-22725100D01*
X3099200Y-22725800D01*
G37*
G36*
X7179100Y-22725800D02*
G01*
X7208900Y-22728100D01*
X7238600Y-22731800D01*
X7268100Y-22737000D01*
X7297300Y-22743700D01*
X7326100Y-22751800D01*
X7354400Y-22761300D01*
X7382300Y-22772200D01*
X7409500Y-22784500D01*
X7436200Y-22798200D01*
X7462100Y-22813100D01*
X7487200Y-22829400D01*
X7511500Y-22846800D01*
X7534900Y-22865500D01*
X7557300Y-22885300D01*
X7578700Y-22906200D01*
X7599100Y-22928100D01*
X7618300Y-22951000D01*
X7636400Y-22974900D01*
X7653200Y-22999600D01*
X7668800Y-23025100D01*
X7683100Y-23051400D01*
X7696100Y-23078400D01*
X7707700Y-23105900D01*
X7718000Y-23134000D01*
X7726800Y-23162600D01*
X7734200Y-23191600D01*
X7740100Y-23220900D01*
X7744600Y-23250500D01*
X7747500Y-23280300D01*
X7749000Y-23310200D01*
X7749000Y-23340100D01*
X7747500Y-23369900D01*
X7744600Y-23399700D01*
X7740100Y-23429300D01*
X7734200Y-23458600D01*
X7726800Y-23487600D01*
X7718000Y-23516200D01*
X7707700Y-23544300D01*
X7696100Y-23571900D01*
X7683100Y-23598800D01*
X7668800Y-23625100D01*
X7653200Y-23650600D01*
X7636400Y-23675400D01*
X7618300Y-23699200D01*
X7599100Y-23722100D01*
X7578700Y-23744100D01*
X7557300Y-23764900D01*
X7534900Y-23784800D01*
X7511500Y-23803400D01*
X7487200Y-23820800D01*
X7462100Y-23837100D01*
X7436200Y-23852000D01*
X7409500Y-23865700D01*
X7382300Y-23878000D01*
X7354400Y-23888900D01*
X7326100Y-23898500D01*
X7297300Y-23906600D01*
X7268100Y-23913200D01*
X7238600Y-23918400D01*
X7208900Y-23922100D01*
X7179100Y-23924400D01*
X7149200Y-23925100D01*
X6549200Y-23925100D01*
X6519300Y-23924400D01*
X6489500Y-23922100D01*
X6459800Y-23918400D01*
X6430300Y-23913200D01*
X6401200Y-23906600D01*
X6372300Y-23898500D01*
X6344000Y-23888900D01*
X6316100Y-23878000D01*
X6288900Y-23865700D01*
X6262300Y-23852000D01*
X6236400Y-23837100D01*
X6211200Y-23820800D01*
X6186900Y-23803400D01*
X6163500Y-23784800D01*
X6141100Y-23764900D01*
X6119700Y-23744100D01*
X6099300Y-23722100D01*
X6080100Y-23699200D01*
X6062000Y-23675400D01*
X6045200Y-23650600D01*
X6029600Y-23625100D01*
X6015300Y-23598800D01*
X6002300Y-23571900D01*
X5990700Y-23544300D01*
X5980500Y-23516200D01*
X5971600Y-23487600D01*
X5964200Y-23458600D01*
X5958300Y-23429300D01*
X5953900Y-23399700D01*
X5950900Y-23369900D01*
X5949400Y-23340100D01*
X5949400Y-23310200D01*
X5950900Y-23280300D01*
X5953900Y-23250500D01*
X5958300Y-23220900D01*
X5964200Y-23191600D01*
X5971600Y-23162600D01*
X5980500Y-23134000D01*
X5990700Y-23105900D01*
X6002300Y-23078400D01*
X6015300Y-23051400D01*
X6029600Y-23025100D01*
X6045200Y-22999600D01*
X6062000Y-22974900D01*
X6080100Y-22951000D01*
X6099300Y-22928100D01*
X6119700Y-22906200D01*
X6141100Y-22885300D01*
X6163500Y-22865500D01*
X6186900Y-22846800D01*
X6211200Y-22829400D01*
X6236400Y-22813100D01*
X6262300Y-22798200D01*
X6288900Y-22784500D01*
X6316100Y-22772200D01*
X6344000Y-22761300D01*
X6372300Y-22751800D01*
X6401200Y-22743700D01*
X6430300Y-22737000D01*
X6459800Y-22731800D01*
X6489500Y-22728100D01*
X6519300Y-22725800D01*
X6549200Y-22725100D01*
X7149200Y-22725100D01*
X7179100Y-22725800D01*
G37*
G36*
X7179100Y-14075600D02*
G01*
X7208900Y-14077900D01*
X7238600Y-14081600D01*
X7268100Y-14086800D01*
X7297300Y-14093400D01*
X7326100Y-14101500D01*
X7354400Y-14111100D01*
X7382300Y-14122000D01*
X7409500Y-14134300D01*
X7436200Y-14148000D01*
X7462100Y-14162900D01*
X7487200Y-14179200D01*
X7511500Y-14196600D01*
X7534900Y-14215200D01*
X7557300Y-14235100D01*
X7578700Y-14255900D01*
X7599100Y-14277900D01*
X7618300Y-14300800D01*
X7636400Y-14324600D01*
X7653200Y-14349400D01*
X7668800Y-14374900D01*
X7683100Y-14401200D01*
X7696100Y-14428100D01*
X7707700Y-14455700D01*
X7718000Y-14483800D01*
X7726800Y-14512400D01*
X7734200Y-14541400D01*
X7740100Y-14570700D01*
X7744600Y-14600300D01*
X7747500Y-14630100D01*
X7749000Y-14659900D01*
X7749000Y-14689800D01*
X7747500Y-14719700D01*
X7744600Y-14749500D01*
X7740100Y-14779100D01*
X7734200Y-14808400D01*
X7726800Y-14837400D01*
X7718000Y-14866000D01*
X7707700Y-14894100D01*
X7696100Y-14921600D01*
X7683100Y-14948600D01*
X7668800Y-14974900D01*
X7653200Y-15000400D01*
X7636400Y-15025100D01*
X7618300Y-15049000D01*
X7599100Y-15071900D01*
X7578700Y-15093800D01*
X7557300Y-15114700D01*
X7534900Y-15134500D01*
X7511500Y-15153200D01*
X7487200Y-15170600D01*
X7462100Y-15186900D01*
X7436200Y-15201800D01*
X7409500Y-15215500D01*
X7382300Y-15227800D01*
X7354400Y-15238700D01*
X7326100Y-15248200D01*
X7297300Y-15256300D01*
X7268100Y-15263000D01*
X7238600Y-15268200D01*
X7208900Y-15271900D01*
X7179100Y-15274200D01*
X7149200Y-15274900D01*
X6549200Y-15274900D01*
X6519300Y-15274200D01*
X6489500Y-15271900D01*
X6459800Y-15268200D01*
X6430300Y-15263000D01*
X6401200Y-15256300D01*
X6372300Y-15248200D01*
X6344000Y-15238700D01*
X6316100Y-15227800D01*
X6288900Y-15215500D01*
X6262300Y-15201800D01*
X6236400Y-15186900D01*
X6211200Y-15170600D01*
X6186900Y-15153200D01*
X6163500Y-15134500D01*
X6141100Y-15114700D01*
X6119700Y-15093800D01*
X6099300Y-15071900D01*
X6080100Y-15049000D01*
X6062000Y-15025100D01*
X6045200Y-15000400D01*
X6029600Y-14974900D01*
X6015300Y-14948600D01*
X6002300Y-14921600D01*
X5990700Y-14894100D01*
X5980500Y-14866000D01*
X5971600Y-14837400D01*
X5964200Y-14808400D01*
X5958300Y-14779100D01*
X5953900Y-14749500D01*
X5950900Y-14719700D01*
X5949400Y-14689800D01*
X5949400Y-14659900D01*
X5950900Y-14630100D01*
X5953900Y-14600300D01*
X5958300Y-14570700D01*
X5964200Y-14541400D01*
X5971600Y-14512400D01*
X5980500Y-14483800D01*
X5990700Y-14455700D01*
X6002300Y-14428100D01*
X6015300Y-14401200D01*
X6029600Y-14374900D01*
X6045200Y-14349400D01*
X6062000Y-14324600D01*
X6080100Y-14300800D01*
X6099300Y-14277900D01*
X6119700Y-14255900D01*
X6141100Y-14235100D01*
X6163500Y-14215200D01*
X6186900Y-14196600D01*
X6211200Y-14179200D01*
X6236400Y-14162900D01*
X6262300Y-14148000D01*
X6288900Y-14134300D01*
X6316100Y-14122000D01*
X6344000Y-14111100D01*
X6372300Y-14101500D01*
X6401200Y-14093400D01*
X6430300Y-14086800D01*
X6459800Y-14081600D01*
X6489500Y-14077900D01*
X6519300Y-14075600D01*
X6549200Y-14074900D01*
X7149200Y-14074900D01*
X7179100Y-14075600D01*
G37*
%TO.C,R41*%
G36*
X24350000Y-59805000D02*
G01*
X24350000Y-60605000D01*
X24300000Y-60655000D01*
X24058000Y-60655000D01*
X24058000Y-60285000D01*
X23728000Y-60285000D01*
X23728000Y-60655000D01*
X23500000Y-60655000D01*
X23450000Y-60605000D01*
X23450000Y-59805000D01*
X23500000Y-59755000D01*
X24300000Y-59755000D01*
X24350000Y-59805000D01*
G37*
G36*
X23742000Y-61715000D02*
G01*
X24072000Y-61715000D01*
X24072000Y-61345000D01*
X24300000Y-61345000D01*
X24350000Y-61395000D01*
X24350000Y-62195000D01*
X24300000Y-62245000D01*
X23500000Y-62245000D01*
X23450000Y-62195000D01*
X23450000Y-61395000D01*
X23500000Y-61345000D01*
X23742000Y-61345000D01*
X23742000Y-61715000D01*
G37*
%TO.C,R52*%
G36*
X64350000Y-59805000D02*
G01*
X64350000Y-60605000D01*
X64300000Y-60655000D01*
X64058000Y-60655000D01*
X64058000Y-60285000D01*
X63728000Y-60285000D01*
X63728000Y-60655000D01*
X63500000Y-60655000D01*
X63450000Y-60605000D01*
X63450000Y-59805000D01*
X63500000Y-59755000D01*
X64300000Y-59755000D01*
X64350000Y-59805000D01*
G37*
G36*
X63742000Y-61715000D02*
G01*
X64072000Y-61715000D01*
X64072000Y-61345000D01*
X64300000Y-61345000D01*
X64350000Y-61395000D01*
X64350000Y-62195000D01*
X64300000Y-62245000D01*
X63500000Y-62245000D01*
X63450000Y-62195000D01*
X63450000Y-61395000D01*
X63500000Y-61345000D01*
X63742000Y-61345000D01*
X63742000Y-61715000D01*
G37*
%TO.C,R58*%
G36*
X80450000Y-50305000D02*
G01*
X80450000Y-51105000D01*
X80400000Y-51155000D01*
X80158000Y-51155000D01*
X80158000Y-50785000D01*
X79828000Y-50785000D01*
X79828000Y-51155000D01*
X79600000Y-51155000D01*
X79550000Y-51105000D01*
X79550000Y-50305000D01*
X79600000Y-50255000D01*
X80400000Y-50255000D01*
X80450000Y-50305000D01*
G37*
G36*
X79842000Y-52215000D02*
G01*
X80172000Y-52215000D01*
X80172000Y-51845000D01*
X80400000Y-51845000D01*
X80450000Y-51895000D01*
X80450000Y-52695000D01*
X80400000Y-52745000D01*
X79600000Y-52745000D01*
X79550000Y-52695000D01*
X79550000Y-51895000D01*
X79600000Y-51845000D01*
X79842000Y-51845000D01*
X79842000Y-52215000D01*
G37*
%TO.C,R11*%
G36*
X76950000Y-33305000D02*
G01*
X76950000Y-34105000D01*
X76900000Y-34155000D01*
X76658000Y-34155000D01*
X76658000Y-33785000D01*
X76328000Y-33785000D01*
X76328000Y-34155000D01*
X76100000Y-34155000D01*
X76050000Y-34105000D01*
X76050000Y-33305000D01*
X76100000Y-33255000D01*
X76900000Y-33255000D01*
X76950000Y-33305000D01*
G37*
G36*
X76342000Y-35215000D02*
G01*
X76672000Y-35215000D01*
X76672000Y-34845000D01*
X76900000Y-34845000D01*
X76950000Y-34895000D01*
X76950000Y-35695000D01*
X76900000Y-35745000D01*
X76100000Y-35745000D01*
X76050000Y-35695000D01*
X76050000Y-34895000D01*
X76100000Y-34845000D01*
X76342000Y-34845000D01*
X76342000Y-35215000D01*
G37*
%TO.C,R15*%
G36*
X33655000Y-30600000D02*
G01*
X33655000Y-30842000D01*
X33285000Y-30842000D01*
X33285000Y-31172000D01*
X33655000Y-31172000D01*
X33655000Y-31400000D01*
X33605000Y-31450000D01*
X32805000Y-31450000D01*
X32755000Y-31400000D01*
X32755000Y-30600000D01*
X32805000Y-30550000D01*
X33605000Y-30550000D01*
X33655000Y-30600000D01*
G37*
G36*
X35245000Y-30600000D02*
G01*
X35245000Y-31400000D01*
X35195000Y-31450000D01*
X34395000Y-31450000D01*
X34345000Y-31400000D01*
X34345000Y-31158000D01*
X34715000Y-31158000D01*
X34715000Y-30828000D01*
X34345000Y-30828000D01*
X34345000Y-30600000D01*
X34395000Y-30550000D01*
X35195000Y-30550000D01*
X35245000Y-30600000D01*
G37*
%TO.C,R43*%
G36*
X46350000Y-59805000D02*
G01*
X46350000Y-60605000D01*
X46300000Y-60655000D01*
X46058000Y-60655000D01*
X46058000Y-60285000D01*
X45728000Y-60285000D01*
X45728000Y-60655000D01*
X45500000Y-60655000D01*
X45450000Y-60605000D01*
X45450000Y-59805000D01*
X45500000Y-59755000D01*
X46300000Y-59755000D01*
X46350000Y-59805000D01*
G37*
G36*
X45742000Y-61715000D02*
G01*
X46072000Y-61715000D01*
X46072000Y-61345000D01*
X46300000Y-61345000D01*
X46350000Y-61395000D01*
X46350000Y-62195000D01*
X46300000Y-62245000D01*
X45500000Y-62245000D01*
X45450000Y-62195000D01*
X45450000Y-61395000D01*
X45500000Y-61345000D01*
X45742000Y-61345000D01*
X45742000Y-61715000D01*
G37*
%TO.C,R23*%
G36*
X56450000Y-33805000D02*
G01*
X56450000Y-34605000D01*
X56400000Y-34655000D01*
X56158000Y-34655000D01*
X56158000Y-34285000D01*
X55828000Y-34285000D01*
X55828000Y-34655000D01*
X55600000Y-34655000D01*
X55550000Y-34605000D01*
X55550000Y-33805000D01*
X55600000Y-33755000D01*
X56400000Y-33755000D01*
X56450000Y-33805000D01*
G37*
G36*
X55842000Y-35715000D02*
G01*
X56172000Y-35715000D01*
X56172000Y-35345000D01*
X56400000Y-35345000D01*
X56450000Y-35395000D01*
X56450000Y-36195000D01*
X56400000Y-36245000D01*
X55600000Y-36245000D01*
X55550000Y-36195000D01*
X55550000Y-35395000D01*
X55600000Y-35345000D01*
X55842000Y-35345000D01*
X55842000Y-35715000D01*
G37*
%TO.C,R17*%
G36*
X69450000Y-11305000D02*
G01*
X69450000Y-12105000D01*
X69400000Y-12155000D01*
X69158000Y-12155000D01*
X69158000Y-11785000D01*
X68828000Y-11785000D01*
X68828000Y-12155000D01*
X68600000Y-12155000D01*
X68550000Y-12105000D01*
X68550000Y-11305000D01*
X68600000Y-11255000D01*
X69400000Y-11255000D01*
X69450000Y-11305000D01*
G37*
G36*
X68842000Y-13215000D02*
G01*
X69172000Y-13215000D01*
X69172000Y-12845000D01*
X69400000Y-12845000D01*
X69450000Y-12895000D01*
X69450000Y-13695000D01*
X69400000Y-13745000D01*
X68600000Y-13745000D01*
X68550000Y-13695000D01*
X68550000Y-12895000D01*
X68600000Y-12845000D01*
X68842000Y-12845000D01*
X68842000Y-13215000D01*
G37*
%TO.C,J2*%
G36*
X98925000Y-3700200D02*
G01*
X97925000Y-3700200D01*
X97925000Y-2900100D01*
X98925000Y-2900100D01*
X98925000Y-3700200D01*
G37*
G36*
X98925000Y-4850100D02*
G01*
X97925000Y-4850100D01*
X97925000Y-4150000D01*
X98925000Y-4150000D01*
X98925000Y-4850100D01*
G37*
G36*
X98925000Y-5850000D02*
G01*
X97925000Y-5850000D01*
X97925000Y-5150100D01*
X98925000Y-5150100D01*
X98925000Y-5850000D01*
G37*
G36*
X98925000Y-6850100D02*
G01*
X97925000Y-6850100D01*
X97925000Y-6150000D01*
X98925000Y-6150000D01*
X98925000Y-6850100D01*
G37*
G36*
X98925000Y-7850000D02*
G01*
X97925000Y-7850000D01*
X97925000Y-7150100D01*
X98925000Y-7150100D01*
X98925000Y-7850000D01*
G37*
G36*
X98925000Y-9100000D02*
G01*
X97925000Y-9100000D01*
X97925000Y-8299900D01*
X98925000Y-8299900D01*
X98925000Y-9100000D01*
G37*
G36*
X94927400Y-1130800D02*
G01*
X94954700Y-1132800D01*
X94981900Y-1136200D01*
X95008900Y-1141000D01*
X95035700Y-1147100D01*
X95062100Y-1154500D01*
X95088100Y-1163300D01*
X95113600Y-1173300D01*
X95138600Y-1184500D01*
X95163000Y-1197100D01*
X95186700Y-1210800D01*
X95209800Y-1225700D01*
X95232100Y-1241700D01*
X95253500Y-1258800D01*
X95274000Y-1276900D01*
X95293700Y-1296000D01*
X95312300Y-1316200D01*
X95330000Y-1337200D01*
X95346500Y-1359000D01*
X95362000Y-1381700D01*
X95376300Y-1405100D01*
X95389400Y-1429200D01*
X95401300Y-1453900D01*
X95411900Y-1479200D01*
X95421300Y-1504900D01*
X95429400Y-1531100D01*
X95436200Y-1557700D01*
X95441600Y-1584600D01*
X95445700Y-1611700D01*
X95448400Y-1639000D01*
X95449800Y-1666400D01*
X95449800Y-1693800D01*
X95448400Y-1721200D01*
X95445700Y-1748500D01*
X95441600Y-1775600D01*
X95436200Y-1802500D01*
X95429400Y-1829100D01*
X95421300Y-1855300D01*
X95411900Y-1881000D01*
X95401300Y-1906300D01*
X95389400Y-1931000D01*
X95376300Y-1955100D01*
X95362000Y-1978500D01*
X95346500Y-2001200D01*
X95330000Y-2023000D01*
X95312300Y-2044000D01*
X95293700Y-2064100D01*
X95274000Y-2083300D01*
X95253500Y-2101400D01*
X95232100Y-2118500D01*
X95209800Y-2134500D01*
X95186700Y-2149400D01*
X95163000Y-2163100D01*
X95138600Y-2175600D01*
X95113600Y-2186900D01*
X95088100Y-2196900D01*
X95062100Y-2205700D01*
X95035700Y-2213100D01*
X95008900Y-2219200D01*
X94981900Y-2224000D01*
X94954700Y-2227400D01*
X94927400Y-2229400D01*
X94900000Y-2230100D01*
X94100000Y-2230100D01*
X94072500Y-2229400D01*
X94045200Y-2227400D01*
X94018000Y-2224000D01*
X93991000Y-2219200D01*
X93964200Y-2213100D01*
X93937800Y-2205700D01*
X93911800Y-2196900D01*
X93886300Y-2186900D01*
X93861300Y-2175600D01*
X93836900Y-2163100D01*
X93813200Y-2149400D01*
X93790100Y-2134500D01*
X93767800Y-2118500D01*
X93746400Y-2101400D01*
X93725900Y-2083300D01*
X93706200Y-2064100D01*
X93687600Y-2044000D01*
X93669900Y-2023000D01*
X93653400Y-2001200D01*
X93637900Y-1978500D01*
X93623600Y-1955100D01*
X93610500Y-1931000D01*
X93598600Y-1906300D01*
X93588000Y-1881000D01*
X93578600Y-1855300D01*
X93570500Y-1829100D01*
X93563700Y-1802500D01*
X93558300Y-1775600D01*
X93554200Y-1748500D01*
X93551500Y-1721200D01*
X93550100Y-1693800D01*
X93550100Y-1666400D01*
X93551500Y-1639000D01*
X93554200Y-1611700D01*
X93558300Y-1584600D01*
X93563700Y-1557700D01*
X93570500Y-1531100D01*
X93578600Y-1504900D01*
X93588000Y-1479200D01*
X93598600Y-1453900D01*
X93610500Y-1429200D01*
X93623600Y-1405100D01*
X93637900Y-1381700D01*
X93653400Y-1359000D01*
X93669900Y-1337200D01*
X93687600Y-1316200D01*
X93706200Y-1296000D01*
X93725900Y-1276900D01*
X93746400Y-1258800D01*
X93767800Y-1241700D01*
X93790100Y-1225700D01*
X93813200Y-1210800D01*
X93836900Y-1197100D01*
X93861300Y-1184500D01*
X93886300Y-1173300D01*
X93911800Y-1163300D01*
X93937800Y-1154500D01*
X93964200Y-1147100D01*
X93991000Y-1141000D01*
X94018000Y-1136200D01*
X94045200Y-1132800D01*
X94072500Y-1130800D01*
X94100000Y-1130100D01*
X94900000Y-1130100D01*
X94927400Y-1130800D01*
G37*
G36*
X94927400Y-9770600D02*
G01*
X94954700Y-9772600D01*
X94981900Y-9776000D01*
X95008900Y-9780800D01*
X95035700Y-9786900D01*
X95062100Y-9794300D01*
X95088100Y-9803100D01*
X95113600Y-9813100D01*
X95138600Y-9824400D01*
X95163000Y-9836900D01*
X95186700Y-9850600D01*
X95209800Y-9865500D01*
X95232100Y-9881500D01*
X95253500Y-9898600D01*
X95274000Y-9916700D01*
X95293700Y-9935900D01*
X95312300Y-9956000D01*
X95330000Y-9977000D01*
X95346500Y-9998800D01*
X95362000Y-10021500D01*
X95376300Y-10044900D01*
X95389400Y-10069000D01*
X95401300Y-10093700D01*
X95411900Y-10119000D01*
X95421300Y-10144700D01*
X95429400Y-10170900D01*
X95436200Y-10197500D01*
X95441600Y-10224400D01*
X95445700Y-10251500D01*
X95448400Y-10278800D01*
X95449800Y-10306200D01*
X95449800Y-10333600D01*
X95448400Y-10361000D01*
X95445700Y-10388300D01*
X95441600Y-10415400D01*
X95436200Y-10442300D01*
X95429400Y-10468900D01*
X95421300Y-10495100D01*
X95411900Y-10520800D01*
X95401300Y-10546100D01*
X95389400Y-10570800D01*
X95376300Y-10594900D01*
X95362000Y-10618300D01*
X95346500Y-10641000D01*
X95330000Y-10662800D01*
X95312300Y-10683800D01*
X95293700Y-10704000D01*
X95274000Y-10723100D01*
X95253500Y-10741200D01*
X95232100Y-10758300D01*
X95209800Y-10774300D01*
X95186700Y-10789200D01*
X95163000Y-10802900D01*
X95138600Y-10815500D01*
X95113600Y-10826700D01*
X95088100Y-10836700D01*
X95062100Y-10845500D01*
X95035700Y-10852900D01*
X95008900Y-10859000D01*
X94981900Y-10863800D01*
X94954700Y-10867200D01*
X94927400Y-10869200D01*
X94900000Y-10869900D01*
X94100000Y-10869900D01*
X94072500Y-10869200D01*
X94045200Y-10867200D01*
X94018000Y-10863800D01*
X93991000Y-10859000D01*
X93964200Y-10852900D01*
X93937800Y-10845500D01*
X93911800Y-10836700D01*
X93886300Y-10826700D01*
X93861300Y-10815500D01*
X93836900Y-10802900D01*
X93813200Y-10789200D01*
X93790100Y-10774300D01*
X93767800Y-10758300D01*
X93746400Y-10741200D01*
X93725900Y-10723100D01*
X93706200Y-10704000D01*
X93687600Y-10683800D01*
X93669900Y-10662800D01*
X93653400Y-10641000D01*
X93637900Y-10618300D01*
X93623600Y-10594900D01*
X93610500Y-10570800D01*
X93598600Y-10546100D01*
X93588000Y-10520800D01*
X93578600Y-10495100D01*
X93570500Y-10468900D01*
X93563700Y-10442300D01*
X93558300Y-10415400D01*
X93554200Y-10388300D01*
X93551500Y-10361000D01*
X93550100Y-10333600D01*
X93550100Y-10306200D01*
X93551500Y-10278800D01*
X93554200Y-10251500D01*
X93558300Y-10224400D01*
X93563700Y-10197500D01*
X93570500Y-10170900D01*
X93578600Y-10144700D01*
X93588000Y-10119000D01*
X93598600Y-10093700D01*
X93610500Y-10069000D01*
X93623600Y-10044900D01*
X93637900Y-10021500D01*
X93653400Y-9998800D01*
X93669900Y-9977000D01*
X93687600Y-9956000D01*
X93706200Y-9935900D01*
X93725900Y-9916700D01*
X93746400Y-9898600D01*
X93767800Y-9881500D01*
X93790100Y-9865500D01*
X93813200Y-9850600D01*
X93836900Y-9836900D01*
X93861300Y-9824400D01*
X93886300Y-9813100D01*
X93911800Y-9803100D01*
X93937800Y-9794300D01*
X93964200Y-9786900D01*
X93991000Y-9780800D01*
X94018000Y-9776000D01*
X94045200Y-9772600D01*
X94072500Y-9770600D01*
X94100000Y-9769900D01*
X94900000Y-9769900D01*
X94927400Y-9770600D01*
G37*
G36*
X98727500Y-1130800D02*
G01*
X98754800Y-1132800D01*
X98782000Y-1136200D01*
X98809000Y-1141000D01*
X98835800Y-1147100D01*
X98862200Y-1154500D01*
X98888200Y-1163300D01*
X98913700Y-1173300D01*
X98938700Y-1184500D01*
X98963100Y-1197100D01*
X98986800Y-1210800D01*
X99009900Y-1225700D01*
X99032200Y-1241700D01*
X99053600Y-1258800D01*
X99074100Y-1276900D01*
X99093800Y-1296000D01*
X99112400Y-1316200D01*
X99130100Y-1337200D01*
X99146600Y-1359000D01*
X99162100Y-1381700D01*
X99176400Y-1405100D01*
X99189500Y-1429200D01*
X99201400Y-1453900D01*
X99212000Y-1479200D01*
X99221400Y-1504900D01*
X99229500Y-1531100D01*
X99236300Y-1557700D01*
X99241700Y-1584600D01*
X99245800Y-1611700D01*
X99248500Y-1639000D01*
X99249900Y-1666400D01*
X99249900Y-1693800D01*
X99248500Y-1721200D01*
X99245800Y-1748500D01*
X99241700Y-1775600D01*
X99236300Y-1802500D01*
X99229500Y-1829100D01*
X99221400Y-1855300D01*
X99212000Y-1881000D01*
X99201400Y-1906300D01*
X99189500Y-1931000D01*
X99176400Y-1955100D01*
X99162100Y-1978500D01*
X99146600Y-2001200D01*
X99130100Y-2023000D01*
X99112400Y-2044000D01*
X99093800Y-2064100D01*
X99074100Y-2083300D01*
X99053600Y-2101400D01*
X99032200Y-2118500D01*
X99009900Y-2134500D01*
X98986800Y-2149400D01*
X98963100Y-2163100D01*
X98938700Y-2175600D01*
X98913700Y-2186900D01*
X98888200Y-2196900D01*
X98862200Y-2205700D01*
X98835800Y-2213100D01*
X98809000Y-2219200D01*
X98782000Y-2224000D01*
X98754800Y-2227400D01*
X98727500Y-2229400D01*
X98700000Y-2230100D01*
X97900000Y-2230100D01*
X97872600Y-2229400D01*
X97845300Y-2227400D01*
X97818100Y-2224000D01*
X97791100Y-2219200D01*
X97764300Y-2213100D01*
X97737900Y-2205700D01*
X97711900Y-2196900D01*
X97686400Y-2186900D01*
X97661400Y-2175600D01*
X97637000Y-2163100D01*
X97613300Y-2149400D01*
X97590200Y-2134500D01*
X97567900Y-2118500D01*
X97546500Y-2101400D01*
X97526000Y-2083300D01*
X97506300Y-2064100D01*
X97487700Y-2044000D01*
X97470000Y-2023000D01*
X97453500Y-2001200D01*
X97438000Y-1978500D01*
X97423700Y-1955100D01*
X97410600Y-1931000D01*
X97398700Y-1906300D01*
X97388100Y-1881000D01*
X97378700Y-1855300D01*
X97370600Y-1829100D01*
X97363800Y-1802500D01*
X97358400Y-1775600D01*
X97354300Y-1748500D01*
X97351600Y-1721200D01*
X97350200Y-1693800D01*
X97350200Y-1666400D01*
X97351600Y-1639000D01*
X97354300Y-1611700D01*
X97358400Y-1584600D01*
X97363800Y-1557700D01*
X97370600Y-1531100D01*
X97378700Y-1504900D01*
X97388100Y-1479200D01*
X97398700Y-1453900D01*
X97410600Y-1429200D01*
X97423700Y-1405100D01*
X97438000Y-1381700D01*
X97453500Y-1359000D01*
X97470000Y-1337200D01*
X97487700Y-1316200D01*
X97506300Y-1296000D01*
X97526000Y-1276900D01*
X97546500Y-1258800D01*
X97567900Y-1241700D01*
X97590200Y-1225700D01*
X97613300Y-1210800D01*
X97637000Y-1197100D01*
X97661400Y-1184500D01*
X97686400Y-1173300D01*
X97711900Y-1163300D01*
X97737900Y-1154500D01*
X97764300Y-1147100D01*
X97791100Y-1141000D01*
X97818100Y-1136200D01*
X97845300Y-1132800D01*
X97872600Y-1130800D01*
X97900000Y-1130100D01*
X98700000Y-1130100D01*
X98727500Y-1130800D01*
G37*
G36*
X98727500Y-9770600D02*
G01*
X98754800Y-9772600D01*
X98782000Y-9776000D01*
X98809000Y-9780800D01*
X98835800Y-9786900D01*
X98862200Y-9794300D01*
X98888200Y-9803100D01*
X98913700Y-9813100D01*
X98938700Y-9824400D01*
X98963100Y-9836900D01*
X98986800Y-9850600D01*
X99009900Y-9865500D01*
X99032200Y-9881500D01*
X99053600Y-9898600D01*
X99074100Y-9916700D01*
X99093800Y-9935900D01*
X99112400Y-9956000D01*
X99130100Y-9977000D01*
X99146600Y-9998800D01*
X99162100Y-10021500D01*
X99176400Y-10044900D01*
X99189500Y-10069000D01*
X99201400Y-10093700D01*
X99212000Y-10119000D01*
X99221400Y-10144700D01*
X99229500Y-10170900D01*
X99236300Y-10197500D01*
X99241700Y-10224400D01*
X99245800Y-10251500D01*
X99248500Y-10278800D01*
X99249900Y-10306200D01*
X99249900Y-10333600D01*
X99248500Y-10361000D01*
X99245800Y-10388300D01*
X99241700Y-10415400D01*
X99236300Y-10442300D01*
X99229500Y-10468900D01*
X99221400Y-10495100D01*
X99212000Y-10520800D01*
X99201400Y-10546100D01*
X99189500Y-10570800D01*
X99176400Y-10594900D01*
X99162100Y-10618300D01*
X99146600Y-10641000D01*
X99130100Y-10662800D01*
X99112400Y-10683800D01*
X99093800Y-10704000D01*
X99074100Y-10723100D01*
X99053600Y-10741200D01*
X99032200Y-10758300D01*
X99009900Y-10774300D01*
X98986800Y-10789200D01*
X98963100Y-10802900D01*
X98938700Y-10815500D01*
X98913700Y-10826700D01*
X98888200Y-10836700D01*
X98862200Y-10845500D01*
X98835800Y-10852900D01*
X98809000Y-10859000D01*
X98782000Y-10863800D01*
X98754800Y-10867200D01*
X98727500Y-10869200D01*
X98700000Y-10869900D01*
X97900000Y-10869900D01*
X97872600Y-10869200D01*
X97845300Y-10867200D01*
X97818100Y-10863800D01*
X97791100Y-10859000D01*
X97764300Y-10852900D01*
X97737900Y-10845500D01*
X97711900Y-10836700D01*
X97686400Y-10826700D01*
X97661400Y-10815500D01*
X97637000Y-10802900D01*
X97613300Y-10789200D01*
X97590200Y-10774300D01*
X97567900Y-10758300D01*
X97546500Y-10741200D01*
X97526000Y-10723100D01*
X97506300Y-10704000D01*
X97487700Y-10683800D01*
X97470000Y-10662800D01*
X97453500Y-10641000D01*
X97438000Y-10618300D01*
X97423700Y-10594900D01*
X97410600Y-10570800D01*
X97398700Y-10546100D01*
X97388100Y-10520800D01*
X97378700Y-10495100D01*
X97370600Y-10468900D01*
X97363800Y-10442300D01*
X97358400Y-10415400D01*
X97354300Y-10388300D01*
X97351600Y-10361000D01*
X97350200Y-10333600D01*
X97350200Y-10306200D01*
X97351600Y-10278800D01*
X97354300Y-10251500D01*
X97358400Y-10224400D01*
X97363800Y-10197500D01*
X97370600Y-10170900D01*
X97378700Y-10144700D01*
X97388100Y-10119000D01*
X97398700Y-10093700D01*
X97410600Y-10069000D01*
X97423700Y-10044900D01*
X97438000Y-10021500D01*
X97453500Y-9998800D01*
X97470000Y-9977000D01*
X97487700Y-9956000D01*
X97506300Y-9935900D01*
X97526000Y-9916700D01*
X97546500Y-9898600D01*
X97567900Y-9881500D01*
X97590200Y-9865500D01*
X97613300Y-9850600D01*
X97637000Y-9836900D01*
X97661400Y-9824400D01*
X97686400Y-9813100D01*
X97711900Y-9803100D01*
X97737900Y-9794300D01*
X97764300Y-9786900D01*
X97791100Y-9780800D01*
X97818100Y-9776000D01*
X97845300Y-9772600D01*
X97872600Y-9770600D01*
X97900000Y-9769900D01*
X98700000Y-9769900D01*
X98727500Y-9770600D01*
G37*
%TO.C,R48*%
G36*
X20350000Y-59805000D02*
G01*
X20350000Y-60605000D01*
X20300000Y-60655000D01*
X20058000Y-60655000D01*
X20058000Y-60285000D01*
X19728000Y-60285000D01*
X19728000Y-60655000D01*
X19500000Y-60655000D01*
X19450000Y-60605000D01*
X19450000Y-59805000D01*
X19500000Y-59755000D01*
X20300000Y-59755000D01*
X20350000Y-59805000D01*
G37*
G36*
X19742000Y-61715000D02*
G01*
X20072000Y-61715000D01*
X20072000Y-61345000D01*
X20300000Y-61345000D01*
X20350000Y-61395000D01*
X20350000Y-62195000D01*
X20300000Y-62245000D01*
X19500000Y-62245000D01*
X19450000Y-62195000D01*
X19450000Y-61395000D01*
X19500000Y-61345000D01*
X19742000Y-61345000D01*
X19742000Y-61715000D01*
G37*
%TO.C,R34*%
G36*
X64450000Y-28805000D02*
G01*
X64450000Y-29605000D01*
X64400000Y-29655000D01*
X64158000Y-29655000D01*
X64158000Y-29285000D01*
X63828000Y-29285000D01*
X63828000Y-29655000D01*
X63600000Y-29655000D01*
X63550000Y-29605000D01*
X63550000Y-28805000D01*
X63600000Y-28755000D01*
X64400000Y-28755000D01*
X64450000Y-28805000D01*
G37*
G36*
X63842000Y-30715000D02*
G01*
X64172000Y-30715000D01*
X64172000Y-30345000D01*
X64400000Y-30345000D01*
X64450000Y-30395000D01*
X64450000Y-31195000D01*
X64400000Y-31245000D01*
X63600000Y-31245000D01*
X63550000Y-31195000D01*
X63550000Y-30395000D01*
X63600000Y-30345000D01*
X63842000Y-30345000D01*
X63842000Y-30715000D01*
G37*
%TO.C,R42*%
G36*
X35350000Y-59805000D02*
G01*
X35350000Y-60605000D01*
X35300000Y-60655000D01*
X35058000Y-60655000D01*
X35058000Y-60285000D01*
X34728000Y-60285000D01*
X34728000Y-60655000D01*
X34500000Y-60655000D01*
X34450000Y-60605000D01*
X34450000Y-59805000D01*
X34500000Y-59755000D01*
X35300000Y-59755000D01*
X35350000Y-59805000D01*
G37*
G36*
X34742000Y-61715000D02*
G01*
X35072000Y-61715000D01*
X35072000Y-61345000D01*
X35300000Y-61345000D01*
X35350000Y-61395000D01*
X35350000Y-62195000D01*
X35300000Y-62245000D01*
X34500000Y-62245000D01*
X34450000Y-62195000D01*
X34450000Y-61395000D01*
X34500000Y-61345000D01*
X34742000Y-61345000D01*
X34742000Y-61715000D01*
G37*
%TO.C,R35*%
G36*
X64450000Y-33605000D02*
G01*
X64450000Y-34405000D01*
X64400000Y-34455000D01*
X64158000Y-34455000D01*
X64158000Y-34085000D01*
X63828000Y-34085000D01*
X63828000Y-34455000D01*
X63600000Y-34455000D01*
X63550000Y-34405000D01*
X63550000Y-33605000D01*
X63600000Y-33555000D01*
X64400000Y-33555000D01*
X64450000Y-33605000D01*
G37*
G36*
X63842000Y-35515000D02*
G01*
X64172000Y-35515000D01*
X64172000Y-35145000D01*
X64400000Y-35145000D01*
X64450000Y-35195000D01*
X64450000Y-35995000D01*
X64400000Y-36045000D01*
X63600000Y-36045000D01*
X63550000Y-35995000D01*
X63550000Y-35195000D01*
X63600000Y-35145000D01*
X63842000Y-35145000D01*
X63842000Y-35515000D01*
G37*
%TO.C,R2*%
G36*
X83450000Y-17805000D02*
G01*
X83450000Y-18605000D01*
X83400000Y-18655000D01*
X83158000Y-18655000D01*
X83158000Y-18285000D01*
X82828000Y-18285000D01*
X82828000Y-18655000D01*
X82600000Y-18655000D01*
X82550000Y-18605000D01*
X82550000Y-17805000D01*
X82600000Y-17755000D01*
X83400000Y-17755000D01*
X83450000Y-17805000D01*
G37*
G36*
X82842000Y-19715000D02*
G01*
X83172000Y-19715000D01*
X83172000Y-19345000D01*
X83400000Y-19345000D01*
X83450000Y-19395000D01*
X83450000Y-20195000D01*
X83400000Y-20245000D01*
X82600000Y-20245000D01*
X82550000Y-20195000D01*
X82550000Y-19395000D01*
X82600000Y-19345000D01*
X82842000Y-19345000D01*
X82842000Y-19715000D01*
G37*
%TO.C,R28*%
G36*
X57450000Y-55805000D02*
G01*
X57450000Y-56605000D01*
X57400000Y-56655000D01*
X57158000Y-56655000D01*
X57158000Y-56285000D01*
X56828000Y-56285000D01*
X56828000Y-56655000D01*
X56600000Y-56655000D01*
X56550000Y-56605000D01*
X56550000Y-55805000D01*
X56600000Y-55755000D01*
X57400000Y-55755000D01*
X57450000Y-55805000D01*
G37*
G36*
X56842000Y-57715000D02*
G01*
X57172000Y-57715000D01*
X57172000Y-57345000D01*
X57400000Y-57345000D01*
X57450000Y-57395000D01*
X57450000Y-58195000D01*
X57400000Y-58245000D01*
X56600000Y-58245000D01*
X56550000Y-58195000D01*
X56550000Y-57395000D01*
X56600000Y-57345000D01*
X56842000Y-57345000D01*
X56842000Y-57715000D01*
G37*
%TO.C,R33*%
G36*
X60450000Y-48005000D02*
G01*
X60450000Y-48805000D01*
X60400000Y-48855000D01*
X60158000Y-48855000D01*
X60158000Y-48485000D01*
X59828000Y-48485000D01*
X59828000Y-48855000D01*
X59600000Y-48855000D01*
X59550000Y-48805000D01*
X59550000Y-48005000D01*
X59600000Y-47955000D01*
X60400000Y-47955000D01*
X60450000Y-48005000D01*
G37*
G36*
X59842000Y-49915000D02*
G01*
X60172000Y-49915000D01*
X60172000Y-49545000D01*
X60400000Y-49545000D01*
X60450000Y-49595000D01*
X60450000Y-50395000D01*
X60400000Y-50445000D01*
X59600000Y-50445000D01*
X59550000Y-50395000D01*
X59550000Y-49595000D01*
X59600000Y-49545000D01*
X59842000Y-49545000D01*
X59842000Y-49915000D01*
G37*
%TO.C,R5*%
G36*
X52950000Y-45805000D02*
G01*
X52950000Y-46605000D01*
X52900000Y-46655000D01*
X52658000Y-46655000D01*
X52658000Y-46285000D01*
X52328000Y-46285000D01*
X52328000Y-46655000D01*
X52100000Y-46655000D01*
X52050000Y-46605000D01*
X52050000Y-45805000D01*
X52100000Y-45755000D01*
X52900000Y-45755000D01*
X52950000Y-45805000D01*
G37*
G36*
X52342000Y-47715000D02*
G01*
X52672000Y-47715000D01*
X52672000Y-47345000D01*
X52900000Y-47345000D01*
X52950000Y-47395000D01*
X52950000Y-48195000D01*
X52900000Y-48245000D01*
X52100000Y-48245000D01*
X52050000Y-48195000D01*
X52050000Y-47395000D01*
X52100000Y-47345000D01*
X52342000Y-47345000D01*
X52342000Y-47715000D01*
G37*
%TO.C,R16*%
G36*
X38655000Y-30600000D02*
G01*
X38655000Y-30842000D01*
X38285000Y-30842000D01*
X38285000Y-31172000D01*
X38655000Y-31172000D01*
X38655000Y-31400000D01*
X38605000Y-31450000D01*
X37805000Y-31450000D01*
X37755000Y-31400000D01*
X37755000Y-30600000D01*
X37805000Y-30550000D01*
X38605000Y-30550000D01*
X38655000Y-30600000D01*
G37*
G36*
X40245000Y-30600000D02*
G01*
X40245000Y-31400000D01*
X40195000Y-31450000D01*
X39395000Y-31450000D01*
X39345000Y-31400000D01*
X39345000Y-31158000D01*
X39715000Y-31158000D01*
X39715000Y-30828000D01*
X39345000Y-30828000D01*
X39345000Y-30600000D01*
X39395000Y-30550000D01*
X40195000Y-30550000D01*
X40245000Y-30600000D01*
G37*
%TO.C,R49*%
G36*
X31350000Y-59805000D02*
G01*
X31350000Y-60605000D01*
X31300000Y-60655000D01*
X31058000Y-60655000D01*
X31058000Y-60285000D01*
X30728000Y-60285000D01*
X30728000Y-60655000D01*
X30500000Y-60655000D01*
X30450000Y-60605000D01*
X30450000Y-59805000D01*
X30500000Y-59755000D01*
X31300000Y-59755000D01*
X31350000Y-59805000D01*
G37*
G36*
X30742000Y-61715000D02*
G01*
X31072000Y-61715000D01*
X31072000Y-61345000D01*
X31300000Y-61345000D01*
X31350000Y-61395000D01*
X31350000Y-62195000D01*
X31300000Y-62245000D01*
X30500000Y-62245000D01*
X30450000Y-62195000D01*
X30450000Y-61395000D01*
X30500000Y-61345000D01*
X30742000Y-61345000D01*
X30742000Y-61715000D01*
G37*
%TO.C,R47*%
G36*
X9350000Y-59805000D02*
G01*
X9350000Y-60605000D01*
X9300000Y-60655000D01*
X9058000Y-60655000D01*
X9058000Y-60285000D01*
X8728000Y-60285000D01*
X8728000Y-60655000D01*
X8500000Y-60655000D01*
X8450000Y-60605000D01*
X8450000Y-59805000D01*
X8500000Y-59755000D01*
X9300000Y-59755000D01*
X9350000Y-59805000D01*
G37*
G36*
X8742000Y-61715000D02*
G01*
X9072000Y-61715000D01*
X9072000Y-61345000D01*
X9300000Y-61345000D01*
X9350000Y-61395000D01*
X9350000Y-62195000D01*
X9300000Y-62245000D01*
X8500000Y-62245000D01*
X8450000Y-62195000D01*
X8450000Y-61395000D01*
X8500000Y-61345000D01*
X8742000Y-61345000D01*
X8742000Y-61715000D01*
G37*
%TO.C,R20*%
G36*
X66155000Y-21600000D02*
G01*
X66155000Y-21842000D01*
X65785000Y-21842000D01*
X65785000Y-22172000D01*
X66155000Y-22172000D01*
X66155000Y-22400000D01*
X66105000Y-22450000D01*
X65305000Y-22450000D01*
X65255000Y-22400000D01*
X65255000Y-21600000D01*
X65305000Y-21550000D01*
X66105000Y-21550000D01*
X66155000Y-21600000D01*
G37*
G36*
X67745000Y-21600000D02*
G01*
X67745000Y-22400000D01*
X67695000Y-22450000D01*
X66895000Y-22450000D01*
X66845000Y-22400000D01*
X66845000Y-22158000D01*
X67215000Y-22158000D01*
X67215000Y-21828000D01*
X66845000Y-21828000D01*
X66845000Y-21600000D01*
X66895000Y-21550000D01*
X67695000Y-21550000D01*
X67745000Y-21600000D01*
G37*
%TO.C,R29*%
G36*
X60450000Y-28805000D02*
G01*
X60450000Y-29605000D01*
X60400000Y-29655000D01*
X60158000Y-29655000D01*
X60158000Y-29285000D01*
X59828000Y-29285000D01*
X59828000Y-29655000D01*
X59600000Y-29655000D01*
X59550000Y-29605000D01*
X59550000Y-28805000D01*
X59600000Y-28755000D01*
X60400000Y-28755000D01*
X60450000Y-28805000D01*
G37*
G36*
X59842000Y-30715000D02*
G01*
X60172000Y-30715000D01*
X60172000Y-30345000D01*
X60400000Y-30345000D01*
X60450000Y-30395000D01*
X60450000Y-31195000D01*
X60400000Y-31245000D01*
X59600000Y-31245000D01*
X59550000Y-31195000D01*
X59550000Y-30395000D01*
X59600000Y-30345000D01*
X59842000Y-30345000D01*
X59842000Y-30715000D01*
G37*
%TO.C,R32*%
G36*
X60450000Y-43205000D02*
G01*
X60450000Y-44005000D01*
X60400000Y-44055000D01*
X60158000Y-44055000D01*
X60158000Y-43685000D01*
X59828000Y-43685000D01*
X59828000Y-44055000D01*
X59600000Y-44055000D01*
X59550000Y-44005000D01*
X59550000Y-43205000D01*
X59600000Y-43155000D01*
X60400000Y-43155000D01*
X60450000Y-43205000D01*
G37*
G36*
X59842000Y-45115000D02*
G01*
X60172000Y-45115000D01*
X60172000Y-44745000D01*
X60400000Y-44745000D01*
X60450000Y-44795000D01*
X60450000Y-45595000D01*
X60400000Y-45645000D01*
X59600000Y-45645000D01*
X59550000Y-45595000D01*
X59550000Y-44795000D01*
X59600000Y-44745000D01*
X59842000Y-44745000D01*
X59842000Y-45115000D01*
G37*
%TO.C,R40*%
G36*
X13350000Y-59805000D02*
G01*
X13350000Y-60605000D01*
X13300000Y-60655000D01*
X13058000Y-60655000D01*
X13058000Y-60285000D01*
X12728000Y-60285000D01*
X12728000Y-60655000D01*
X12500000Y-60655000D01*
X12450000Y-60605000D01*
X12450000Y-59805000D01*
X12500000Y-59755000D01*
X13300000Y-59755000D01*
X13350000Y-59805000D01*
G37*
G36*
X12742000Y-61715000D02*
G01*
X13072000Y-61715000D01*
X13072000Y-61345000D01*
X13300000Y-61345000D01*
X13350000Y-61395000D01*
X13350000Y-62195000D01*
X13300000Y-62245000D01*
X12500000Y-62245000D01*
X12450000Y-62195000D01*
X12450000Y-61395000D01*
X12500000Y-61345000D01*
X12742000Y-61345000D01*
X12742000Y-61715000D01*
G37*
%TO.C,R12*%
G36*
X52950000Y-19305000D02*
G01*
X52950000Y-20105000D01*
X52900000Y-20155000D01*
X52658000Y-20155000D01*
X52658000Y-19785000D01*
X52328000Y-19785000D01*
X52328000Y-20155000D01*
X52100000Y-20155000D01*
X52050000Y-20105000D01*
X52050000Y-19305000D01*
X52100000Y-19255000D01*
X52900000Y-19255000D01*
X52950000Y-19305000D01*
G37*
G36*
X52342000Y-21215000D02*
G01*
X52672000Y-21215000D01*
X52672000Y-20845000D01*
X52900000Y-20845000D01*
X52950000Y-20895000D01*
X52950000Y-21695000D01*
X52900000Y-21745000D01*
X52100000Y-21745000D01*
X52050000Y-21695000D01*
X52050000Y-20895000D01*
X52100000Y-20845000D01*
X52342000Y-20845000D01*
X52342000Y-21215000D01*
G37*
%TO.C,R10*%
G36*
X76950000Y-28805000D02*
G01*
X76950000Y-29605000D01*
X76900000Y-29655000D01*
X76658000Y-29655000D01*
X76658000Y-29285000D01*
X76328000Y-29285000D01*
X76328000Y-29655000D01*
X76100000Y-29655000D01*
X76050000Y-29605000D01*
X76050000Y-28805000D01*
X76100000Y-28755000D01*
X76900000Y-28755000D01*
X76950000Y-28805000D01*
G37*
G36*
X76342000Y-30715000D02*
G01*
X76672000Y-30715000D01*
X76672000Y-30345000D01*
X76900000Y-30345000D01*
X76950000Y-30395000D01*
X76950000Y-31195000D01*
X76900000Y-31245000D01*
X76100000Y-31245000D01*
X76050000Y-31195000D01*
X76050000Y-30395000D01*
X76100000Y-30345000D01*
X76342000Y-30345000D01*
X76342000Y-30715000D01*
G37*
%TO.C,R37*%
G36*
X64450000Y-43205000D02*
G01*
X64450000Y-44005000D01*
X64400000Y-44055000D01*
X64158000Y-44055000D01*
X64158000Y-43685000D01*
X63828000Y-43685000D01*
X63828000Y-44055000D01*
X63600000Y-44055000D01*
X63550000Y-44005000D01*
X63550000Y-43205000D01*
X63600000Y-43155000D01*
X64400000Y-43155000D01*
X64450000Y-43205000D01*
G37*
G36*
X63842000Y-45115000D02*
G01*
X64172000Y-45115000D01*
X64172000Y-44745000D01*
X64400000Y-44745000D01*
X64450000Y-44795000D01*
X64450000Y-45595000D01*
X64400000Y-45645000D01*
X63600000Y-45645000D01*
X63550000Y-45595000D01*
X63550000Y-44795000D01*
X63600000Y-44745000D01*
X63842000Y-44745000D01*
X63842000Y-45115000D01*
G37*
%TO.C,R44*%
G36*
X57350000Y-59805000D02*
G01*
X57350000Y-60605000D01*
X57300000Y-60655000D01*
X57058000Y-60655000D01*
X57058000Y-60285000D01*
X56728000Y-60285000D01*
X56728000Y-60655000D01*
X56500000Y-60655000D01*
X56450000Y-60605000D01*
X56450000Y-59805000D01*
X56500000Y-59755000D01*
X57300000Y-59755000D01*
X57350000Y-59805000D01*
G37*
G36*
X56742000Y-61715000D02*
G01*
X57072000Y-61715000D01*
X57072000Y-61345000D01*
X57300000Y-61345000D01*
X57350000Y-61395000D01*
X57350000Y-62195000D01*
X57300000Y-62245000D01*
X56500000Y-62245000D01*
X56450000Y-62195000D01*
X56450000Y-61395000D01*
X56500000Y-61345000D01*
X56742000Y-61345000D01*
X56742000Y-61715000D01*
G37*
%TO.C,R61*%
G36*
X86950000Y-39305000D02*
G01*
X86950000Y-40105000D01*
X86900000Y-40155000D01*
X86658000Y-40155000D01*
X86658000Y-39785000D01*
X86328000Y-39785000D01*
X86328000Y-40155000D01*
X86100000Y-40155000D01*
X86050000Y-40105000D01*
X86050000Y-39305000D01*
X86100000Y-39255000D01*
X86900000Y-39255000D01*
X86950000Y-39305000D01*
G37*
G36*
X86342000Y-41215000D02*
G01*
X86672000Y-41215000D01*
X86672000Y-40845000D01*
X86900000Y-40845000D01*
X86950000Y-40895000D01*
X86950000Y-41695000D01*
X86900000Y-41745000D01*
X86100000Y-41745000D01*
X86050000Y-41695000D01*
X86050000Y-40895000D01*
X86100000Y-40845000D01*
X86342000Y-40845000D01*
X86342000Y-41215000D01*
G37*
%TD*%
D11*
%TO.C,J14*%
X50650100Y-77700100D03*
X48149900Y-77699900D03*
X53630200Y-70300100D03*
X45169800Y-70299900D03*
%TD*%
D12*
%TO.C,Q7*%
X47400000Y-66950000D03*
X47400000Y-65050000D03*
X45400000Y-66000000D03*
%TD*%
D13*
%TO.C,LED1*%
X51000100Y-16500000D03*
X53999900Y-16500000D03*
X53999900Y-11500000D03*
X51000100Y-11500000D03*
%TD*%
D14*
%TO.C,LED2*%
X56000000Y-29749900D03*
X56000000Y-31250100D03*
%TD*%
D12*
%TO.C,Q14*%
X87000000Y-34950000D03*
X87000000Y-33050000D03*
X85000000Y-34000000D03*
%TD*%
D15*
%TO.C,R14*%
X27746600Y-31000000D03*
X29253400Y-31000000D03*
%TD*%
D11*
%TO.C,J12*%
X28650100Y-77700100D03*
X26149900Y-77699900D03*
X31630200Y-70300100D03*
X23169800Y-70299900D03*
%TD*%
D16*
%TO.C,D13*%
X82964900Y-34000000D03*
X79035100Y-34000000D03*
%TD*%
D17*
%TO.C,C15*%
X34500000Y-52275000D03*
X34500000Y-50725000D03*
%TD*%
D14*
%TO.C,LED5*%
X68003400Y-44799500D03*
X67996600Y-43200500D03*
%TD*%
D17*
%TO.C,C6*%
X18500000Y-45775000D03*
X18500000Y-44225000D03*
%TD*%
D18*
%TO.C,R36*%
X64000000Y-40353400D03*
X64000000Y-38846600D03*
%TD*%
%TO.C,R59*%
X86500000Y-19253400D03*
X86500000Y-17746600D03*
%TD*%
D11*
%TO.C,J17*%
X83650100Y-77700100D03*
X81149900Y-77699900D03*
X86630200Y-70300100D03*
X78169800Y-70299900D03*
%TD*%
D18*
%TO.C,R53*%
X74900000Y-61753400D03*
X74900000Y-60246600D03*
%TD*%
%TO.C,R1*%
X90500000Y-9753400D03*
X90500000Y-8246600D03*
%TD*%
D15*
%TO.C,R22*%
X65746600Y-26000000D03*
X67253400Y-26000000D03*
%TD*%
D12*
%TO.C,Q10*%
X80400000Y-66950000D03*
X80400000Y-65050000D03*
X78400000Y-66000000D03*
%TD*%
D11*
%TO.C,J11*%
X17650100Y-77700100D03*
X15149900Y-77699900D03*
X20630200Y-70300100D03*
X12169800Y-70299900D03*
%TD*%
D19*
%TO.C,C11*%
X76225000Y-51500000D03*
X77775000Y-51500000D03*
%TD*%
D20*
%TO.C,C1*%
X28407400Y-33500000D03*
X31592600Y-33500000D03*
%TD*%
D18*
%TO.C,R31*%
X60000000Y-40353400D03*
X60000000Y-38846600D03*
%TD*%
D15*
%TO.C,R8*%
X51246600Y-27000000D03*
X52753400Y-27000000D03*
%TD*%
D21*
%TO.C,J20*%
X97700100Y-16249900D03*
X97699900Y-18750100D03*
X90300100Y-13269800D03*
X90299900Y-21730200D03*
%TD*%
D16*
%TO.C,D5*%
X20864900Y-66000000D03*
X16935100Y-66000000D03*
%TD*%
D18*
%TO.C,R6*%
X18500000Y-50753400D03*
X18500000Y-49246600D03*
%TD*%
D15*
%TO.C,R21*%
X61246600Y-26000000D03*
X62753400Y-26000000D03*
%TD*%
D19*
%TO.C,C3*%
X21225000Y-53000000D03*
X22775000Y-53000000D03*
%TD*%
D14*
%TO.C,LED3*%
X50500100Y-30749000D03*
X50499900Y-29251000D03*
%TD*%
D22*
%TO.C,Q11*%
X72950000Y-27036300D03*
X71050000Y-27036300D03*
X72000000Y-28963700D03*
%TD*%
D16*
%TO.C,D14*%
X82964900Y-45000000D03*
X79035100Y-45000000D03*
%TD*%
D18*
%TO.C,R46*%
X78900000Y-61753400D03*
X78900000Y-60246600D03*
%TD*%
%TO.C,R55*%
X80000000Y-19253400D03*
X80000000Y-17746600D03*
%TD*%
D11*
%TO.C,J13*%
X39650100Y-77700100D03*
X37149900Y-77699900D03*
X42630200Y-70300100D03*
X34169800Y-70299900D03*
%TD*%
D23*
%TO.C,C8*%
X56000000Y-49092600D03*
X56000000Y-45907400D03*
%TD*%
D18*
%TO.C,R62*%
X86500000Y-52253400D03*
X86500000Y-50746600D03*
%TD*%
%TO.C,R60*%
X86500000Y-30253400D03*
X86500000Y-28746600D03*
%TD*%
D22*
%TO.C,Q12*%
X72950000Y-33036300D03*
X71050000Y-33036300D03*
X72000000Y-34963700D03*
%TD*%
D15*
%TO.C,R13*%
X23246600Y-31000000D03*
X24753400Y-31000000D03*
%TD*%
D18*
%TO.C,R25*%
X68000000Y-39753400D03*
X68000000Y-38246600D03*
%TD*%
%TO.C,R30*%
X60000000Y-35553400D03*
X60000000Y-34046600D03*
%TD*%
%TO.C,R45*%
X67900000Y-61753400D03*
X67900000Y-60246600D03*
%TD*%
D16*
%TO.C,D8*%
X53864900Y-66000000D03*
X49935100Y-66000000D03*
%TD*%
D18*
%TO.C,R39*%
X1900000Y-61753400D03*
X1900000Y-60246600D03*
%TD*%
%TO.C,R24*%
X48500000Y-35753400D03*
X48500000Y-34246600D03*
%TD*%
D23*
%TO.C,C17*%
X16000000Y-25592600D03*
X16000000Y-22407400D03*
%TD*%
D12*
%TO.C,Q5*%
X25400000Y-66950000D03*
X25400000Y-65050000D03*
X23400000Y-66000000D03*
%TD*%
%TO.C,Q15*%
X87000000Y-45950000D03*
X87000000Y-44050000D03*
X85000000Y-45000000D03*
%TD*%
D18*
%TO.C,R56*%
X80000000Y-30253400D03*
X80000000Y-28746600D03*
%TD*%
D16*
%TO.C,D12*%
X82964900Y-23000000D03*
X79035100Y-23000000D03*
%TD*%
D19*
%TO.C,C14*%
X5725000Y-13000000D03*
X7275000Y-13000000D03*
%TD*%
D15*
%TO.C,R19*%
X61246600Y-22000000D03*
X62753400Y-22000000D03*
%TD*%
D18*
%TO.C,R26*%
X68000000Y-53753400D03*
X68000000Y-52246600D03*
%TD*%
%TO.C,R57*%
X80000000Y-41253400D03*
X80000000Y-39746600D03*
%TD*%
%TO.C,R4*%
X52500000Y-42753400D03*
X52500000Y-41246600D03*
%TD*%
D19*
%TO.C,C13*%
X57225000Y-17500000D03*
X58775000Y-17500000D03*
%TD*%
D23*
%TO.C,C7*%
X56000000Y-42092600D03*
X56000000Y-38907400D03*
%TD*%
D12*
%TO.C,Q6*%
X36400000Y-66950000D03*
X36400000Y-65050000D03*
X34400000Y-66000000D03*
%TD*%
D18*
%TO.C,R38*%
X64000000Y-49953400D03*
X64000000Y-48446600D03*
%TD*%
%TO.C,R3*%
X21000000Y-34753400D03*
X21000000Y-33246600D03*
%TD*%
D16*
%TO.C,D7*%
X42864900Y-66000000D03*
X38935100Y-66000000D03*
%TD*%
D15*
%TO.C,R9*%
X55746600Y-27000000D03*
X57253400Y-27000000D03*
%TD*%
D18*
%TO.C,R63*%
X11000000Y-15253400D03*
X11000000Y-13746600D03*
%TD*%
%TO.C,R50*%
X41900000Y-61753400D03*
X41900000Y-60246600D03*
%TD*%
D16*
%TO.C,D10*%
X75864900Y-66000000D03*
X71935100Y-66000000D03*
%TD*%
D15*
%TO.C,R7*%
X15746600Y-19000000D03*
X17253400Y-19000000D03*
%TD*%
D16*
%TO.C,D4*%
X9864900Y-66000000D03*
X5935100Y-66000000D03*
%TD*%
D24*
%TO.C,D3*%
X37800100Y-51500000D03*
X42199900Y-51500000D03*
%TD*%
D18*
%TO.C,R64*%
X11000000Y-24253400D03*
X11000000Y-22746600D03*
%TD*%
D12*
%TO.C,Q8*%
X58400000Y-66950000D03*
X58400000Y-65050000D03*
X56400000Y-66000000D03*
%TD*%
D18*
%TO.C,R18*%
X69000000Y-17253400D03*
X69000000Y-15746600D03*
%TD*%
%TO.C,R51*%
X52900000Y-61753400D03*
X52900000Y-60246600D03*
%TD*%
%TO.C,R27*%
X45500000Y-35253400D03*
X45500000Y-33746600D03*
%TD*%
D12*
%TO.C,Q3*%
X3400000Y-66950000D03*
X3400000Y-65050000D03*
X1400000Y-66000000D03*
%TD*%
D18*
%TO.C,R54*%
X85900000Y-61753400D03*
X85900000Y-60246600D03*
%TD*%
D23*
%TO.C,C9*%
X63000000Y-56592600D03*
X63000000Y-53407400D03*
%TD*%
D25*
%TO.C,SW1*%
X5825000Y-8500000D03*
X10175000Y-8500000D03*
%TD*%
D26*
%TO.C,J1*%
X1901000Y-22199900D03*
D27*
X1901000Y-21400000D03*
D28*
X1901000Y-20249900D03*
X1901000Y-19249900D03*
X1901000Y-18750100D03*
X1901000Y-17750300D03*
D29*
X1901000Y-15799900D03*
X1901000Y-16599700D03*
D28*
X1901000Y-17249900D03*
X1901000Y-18249900D03*
X1901000Y-19750100D03*
X1901000Y-20750100D03*
%TD*%
D12*
%TO.C,Q13*%
X87000000Y-23950000D03*
X87000000Y-22050000D03*
X85000000Y-23000000D03*
%TD*%
D18*
%TO.C,R41*%
X23900000Y-61753400D03*
X23900000Y-60246600D03*
%TD*%
%TO.C,R52*%
X63900000Y-61753400D03*
X63900000Y-60246600D03*
%TD*%
D19*
%TO.C,C4*%
X26225000Y-54000000D03*
X27775000Y-54000000D03*
%TD*%
D18*
%TO.C,R58*%
X80000000Y-52253400D03*
X80000000Y-50746600D03*
%TD*%
D11*
%TO.C,J16*%
X72650100Y-77700100D03*
X70149900Y-77699900D03*
X75630200Y-70300100D03*
X67169800Y-70299900D03*
%TD*%
D18*
%TO.C,R11*%
X76500000Y-35253400D03*
X76500000Y-33746600D03*
%TD*%
D15*
%TO.C,R15*%
X33246600Y-31000000D03*
X34753400Y-31000000D03*
%TD*%
D16*
%TO.C,D9*%
X64864900Y-66000000D03*
X60935100Y-66000000D03*
%TD*%
D30*
%TO.C,L1*%
X45878100Y-43000000D03*
X36121900Y-43000000D03*
%TD*%
D18*
%TO.C,R43*%
X45900000Y-61753400D03*
X45900000Y-60246600D03*
%TD*%
D21*
%TO.C,J23*%
X97700100Y-49249900D03*
X97699900Y-51750100D03*
X90300100Y-46269800D03*
X90299900Y-54730200D03*
%TD*%
D19*
%TO.C,C12*%
X78725000Y-27000000D03*
X80275000Y-27000000D03*
%TD*%
D18*
%TO.C,R23*%
X56000000Y-35753400D03*
X56000000Y-34246600D03*
%TD*%
%TO.C,R17*%
X69000000Y-13253400D03*
X69000000Y-11746600D03*
%TD*%
D16*
%TO.C,D15*%
X82964900Y-56000000D03*
X79035100Y-56000000D03*
%TD*%
D31*
%TO.C,J2*%
X98550000Y-5500000D03*
X98550000Y-7500000D03*
D32*
X98550000Y-8699900D03*
D31*
X98550000Y-6500000D03*
X98550000Y-4500000D03*
D32*
X98550000Y-3300100D03*
%TD*%
D18*
%TO.C,R48*%
X19900000Y-61753400D03*
X19900000Y-60246600D03*
%TD*%
%TO.C,R34*%
X64000000Y-30753400D03*
X64000000Y-29246600D03*
%TD*%
%TO.C,R42*%
X34900000Y-61753400D03*
X34900000Y-60246600D03*
%TD*%
D19*
%TO.C,C18*%
X41225000Y-29000000D03*
X42775000Y-29000000D03*
%TD*%
D18*
%TO.C,R35*%
X64000000Y-35553400D03*
X64000000Y-34046600D03*
%TD*%
D11*
%TO.C,J15*%
X61650100Y-77700100D03*
X59149900Y-77699900D03*
X64630200Y-70300100D03*
X56169800Y-70299900D03*
%TD*%
%TO.C,J10*%
X6650100Y-77700100D03*
X4149900Y-77699900D03*
X9630200Y-70300100D03*
X1169800Y-70299900D03*
%TD*%
D18*
%TO.C,R2*%
X83000000Y-19753400D03*
X83000000Y-18246600D03*
%TD*%
D12*
%TO.C,Q4*%
X14400000Y-66950000D03*
X14400000Y-65050000D03*
X12400000Y-66000000D03*
%TD*%
D18*
%TO.C,R28*%
X57000000Y-57753400D03*
X57000000Y-56246600D03*
%TD*%
D14*
%TO.C,LED4*%
X68003400Y-34799500D03*
X67996600Y-33200500D03*
%TD*%
D19*
%TO.C,C10*%
X42225000Y-14000000D03*
X43775000Y-14000000D03*
%TD*%
D18*
%TO.C,R33*%
X60000000Y-49953400D03*
X60000000Y-48446600D03*
%TD*%
%TO.C,R5*%
X52500000Y-47753400D03*
X52500000Y-46246600D03*
%TD*%
D33*
%TO.C,U5*%
X73550000Y-15149100D03*
X74500000Y-15149100D03*
X75450000Y-15149100D03*
X75450000Y-12850900D03*
X74500000Y-12850900D03*
X73550000Y-12850900D03*
%TD*%
D15*
%TO.C,R16*%
X38246600Y-31000000D03*
X39753400Y-31000000D03*
%TD*%
D18*
%TO.C,R49*%
X30900000Y-61753400D03*
X30900000Y-60246600D03*
%TD*%
%TO.C,R47*%
X8900000Y-61753400D03*
X8900000Y-60246600D03*
%TD*%
D15*
%TO.C,R20*%
X65746600Y-22000000D03*
X67253400Y-22000000D03*
%TD*%
D18*
%TO.C,R29*%
X60000000Y-30753400D03*
X60000000Y-29246600D03*
%TD*%
D12*
%TO.C,Q9*%
X69400000Y-66950000D03*
X69400000Y-65050000D03*
X67400000Y-66000000D03*
%TD*%
D34*
%TO.C,U6*%
X40020000Y-18190000D03*
X40020000Y-20730000D03*
X40020000Y-23270000D03*
X40020000Y-25810000D03*
X47980000Y-25810000D03*
X47980000Y-23270000D03*
X47980000Y-20730000D03*
X47980000Y-18190000D03*
%TD*%
D25*
%TO.C,SW3*%
X45825000Y-51000000D03*
X50175000Y-51000000D03*
%TD*%
D16*
%TO.C,D11*%
X86864900Y-66000000D03*
X82935100Y-66000000D03*
%TD*%
D35*
%TO.C,U3*%
X23095000Y-47705100D03*
X24365000Y-47705100D03*
X25635000Y-47705100D03*
X26905000Y-47705100D03*
X26905000Y-42294900D03*
X25635000Y-42294900D03*
X24365000Y-42294900D03*
X23095000Y-42294900D03*
%TD*%
D36*
%TO.C,U1*%
X19250000Y-7455000D03*
X19250000Y-8725000D03*
X19250000Y-9995000D03*
X19250000Y-11265000D03*
X19250000Y-12535000D03*
X19250000Y-13805000D03*
X19250000Y-15075000D03*
X19250000Y-16345000D03*
X19250000Y-17615000D03*
X19250000Y-18885000D03*
X19250000Y-20155000D03*
X19250000Y-21425000D03*
X19250000Y-22695000D03*
X19250000Y-23965000D03*
D37*
X21015000Y-25245000D03*
X22285000Y-25245000D03*
X23555000Y-25245000D03*
X24825000Y-25245000D03*
X26095000Y-25245000D03*
X27365000Y-25245000D03*
X28635000Y-25245000D03*
X29905000Y-25245000D03*
X31175000Y-25245000D03*
X32445000Y-25245000D03*
X33715000Y-25245000D03*
X34985000Y-25215000D03*
D36*
X36750000Y-23965000D03*
X36750000Y-22695000D03*
X36750000Y-21425000D03*
X36750000Y-20155000D03*
X36750000Y-18885000D03*
X36750000Y-17615000D03*
X36750000Y-16345000D03*
X36750000Y-15075000D03*
X36750000Y-13805000D03*
X36750000Y-12535000D03*
X36750000Y-11265000D03*
X36750000Y-9995000D03*
X36750000Y-8725000D03*
X36750000Y-7455000D03*
D38*
X25099800Y-13775100D03*
X25099800Y-15175100D03*
X25099800Y-16575200D03*
X26499900Y-13775100D03*
X26499900Y-15175100D03*
X26499900Y-16575200D03*
X27899900Y-13775100D03*
X27899900Y-15175100D03*
X27899900Y-16575200D03*
%TD*%
D18*
%TO.C,R32*%
X60000000Y-45153400D03*
X60000000Y-43646600D03*
%TD*%
D17*
%TO.C,C5*%
X31800000Y-42275000D03*
X31800000Y-40725000D03*
%TD*%
D12*
%TO.C,Q16*%
X87000000Y-56950000D03*
X87000000Y-55050000D03*
X85000000Y-56000000D03*
%TD*%
D39*
%TO.C,U2*%
X69925200Y-47022600D03*
X70575200Y-47022600D03*
X71225200Y-47022600D03*
X71875200Y-47022600D03*
X72525100Y-47022600D03*
X73175100Y-47022600D03*
X73824900Y-47022600D03*
X74475100Y-47022600D03*
X75125100Y-47022600D03*
X75775100Y-47022600D03*
X76425100Y-47022600D03*
X77074800Y-47022600D03*
X77074800Y-40977400D03*
X76425100Y-40977400D03*
X75775100Y-40977400D03*
X75125100Y-40977400D03*
X74475100Y-40977400D03*
X73824900Y-40977400D03*
X73175100Y-40977400D03*
X72525100Y-40977400D03*
X71875200Y-40977400D03*
X71225200Y-40977400D03*
X70575200Y-40977400D03*
X69925200Y-40977400D03*
%TD*%
D21*
%TO.C,J21*%
X97700100Y-27249900D03*
X97699900Y-29750100D03*
X90300100Y-24269800D03*
X90299900Y-32730200D03*
%TD*%
D18*
%TO.C,R40*%
X12900000Y-61753400D03*
X12900000Y-60246600D03*
%TD*%
%TO.C,R12*%
X52500000Y-21253400D03*
X52500000Y-19746600D03*
%TD*%
D25*
%TO.C,SW2*%
X12825000Y-10500000D03*
X17175000Y-10500000D03*
%TD*%
D21*
%TO.C,J22*%
X97700100Y-38249900D03*
X97699900Y-40750100D03*
X90300100Y-35269800D03*
X90299900Y-43730200D03*
%TD*%
D19*
%TO.C,C2*%
X29225000Y-38500000D03*
X30775000Y-38500000D03*
%TD*%
D18*
%TO.C,R10*%
X76500000Y-30753400D03*
X76500000Y-29246600D03*
%TD*%
%TO.C,R37*%
X64000000Y-45153400D03*
X64000000Y-43646600D03*
%TD*%
D33*
%TO.C,U7*%
X11550000Y-20149100D03*
X12500000Y-20149100D03*
X13450000Y-20149100D03*
X13450000Y-17850900D03*
X12500000Y-17850900D03*
X11550000Y-17850900D03*
%TD*%
D18*
%TO.C,R44*%
X56900000Y-61753400D03*
X56900000Y-60246600D03*
%TD*%
D40*
%TO.C,U4*%
X72500000Y-24249900D03*
X73500000Y-24249900D03*
X74500000Y-24249900D03*
X75500000Y-24249900D03*
X76500000Y-24249900D03*
X76500000Y-18750100D03*
X75500000Y-18750100D03*
X74500000Y-18750100D03*
X73500000Y-18750100D03*
X72500000Y-18750100D03*
D41*
X74500000Y-21500100D03*
%TD*%
D16*
%TO.C,D6*%
X31864900Y-66000000D03*
X27935100Y-66000000D03*
%TD*%
D18*
%TO.C,R61*%
X86500000Y-41253400D03*
X86500000Y-39746600D03*
%TD*%
D24*
%TO.C,D2*%
X21800100Y-38500000D03*
X26199900Y-38500000D03*
%TD*%
D19*
%TO.C,C16*%
X80725000Y-60500000D03*
X82275000Y-60500000D03*
%TD*%
M02*
