%TF.GenerationSoftware,KiCad,Pcbnew,10.0.6*%
%TF.CreationDate,2026-10-05T03:03:15+08:00*%
%TF.ProjectId,flowio-p1,666c6f77-696f-42d7-9031-2e6b69636164,rev?*%
%TF.SameCoordinates,Original*%
%TF.FileFunction,Other,User*%
%FSLAX46Y46*%
G04 Gerber Fmt 4.6, Leading zero omitted, Abs format (unit mm)*
G04 Created by KiCad (PCBNEW 10.0.6) date 2026-10-05 03:03:15*
%MOMM*%
%LPD*%
G01*
G04 APERTURE LIST*
%ADD10C,0.050000*%
G04 APERTURE END LIST*
%TO.C,TP11*%
D10*
X38000000Y-55000000D02*
G75*
G02*
X36000000Y-55000000I-1000000J0D01*
G01*
X36000000Y-55000000D02*
G75*
G02*
X38000000Y-55000000I1000000J0D01*
G01*
%TO.C,J14*%
X44020000Y-68290000D02*
X54780000Y-68290000D01*
X44020000Y-79710000D02*
X44020000Y-68290000D01*
X54780000Y-68290000D02*
X54780000Y-79710000D01*
X54780000Y-79710000D02*
X44020000Y-79710000D01*
%TO.C,Q7*%
X44640000Y-64140000D02*
X48320000Y-64140000D01*
X44640000Y-67860000D02*
X44640000Y-64140000D01*
X48320000Y-64140000D02*
X48320000Y-67860000D01*
X48320000Y-67860000D02*
X44640000Y-67860000D01*
%TO.C,LED1*%
X49590000Y-9220000D02*
X55380000Y-9220000D01*
X49590000Y-18480000D02*
X49590000Y-9220000D01*
X55380000Y-9220000D02*
X55380000Y-18480000D01*
X55380000Y-18480000D02*
X49590000Y-18480000D01*
%TO.C,LED2*%
X54920000Y-28650000D02*
X57080000Y-28650000D01*
X54920000Y-32580000D02*
X54920000Y-28650000D01*
X57080000Y-28650000D02*
X57080000Y-32580000D01*
X57080000Y-32580000D02*
X54920000Y-32580000D01*
%TO.C,Q14*%
X84240000Y-32140000D02*
X87920000Y-32140000D01*
X84240000Y-35860000D02*
X84240000Y-32140000D01*
X87920000Y-32140000D02*
X87920000Y-35860000D01*
X87920000Y-35860000D02*
X84240000Y-35860000D01*
%TO.C,R14*%
X26780000Y-30010000D02*
X30220000Y-30010000D01*
X26780000Y-31990000D02*
X26780000Y-30010000D01*
X30220000Y-30010000D02*
X30220000Y-31990000D01*
X30220000Y-31990000D02*
X26780000Y-31990000D01*
%TO.C,J12*%
X22020000Y-68290000D02*
X32780000Y-68290000D01*
X22020000Y-79710000D02*
X22020000Y-68290000D01*
X32780000Y-68290000D02*
X32780000Y-79710000D01*
X32780000Y-79710000D02*
X22020000Y-79710000D01*
%TO.C,J5*%
X87870000Y-71270000D02*
X101130000Y-71270000D01*
X87870000Y-77770000D02*
X87870000Y-71270000D01*
X101130000Y-71270000D02*
X101130000Y-77770000D01*
X101130000Y-77770000D02*
X87870000Y-77770000D01*
%TO.C,D13*%
X78020000Y-32320000D02*
X83980000Y-32320000D01*
X78020000Y-35680000D02*
X78020000Y-32320000D01*
X83980000Y-32320000D02*
X83980000Y-35680000D01*
X83980000Y-35680000D02*
X78020000Y-35680000D01*
%TO.C,C15*%
X33770000Y-50020000D02*
X35230000Y-50020000D01*
X35230000Y-52980000D01*
X33770000Y-52980000D01*
X33770000Y-50020000D01*
%TO.C,LED5*%
X66910000Y-42280000D02*
X69080000Y-42280000D01*
X66910000Y-45820000D02*
X66910000Y-42280000D01*
X69080000Y-42280000D02*
X69080000Y-45820000D01*
X69080000Y-45820000D02*
X66910000Y-45820000D01*
%TO.C,C6*%
X17770000Y-43520000D02*
X19230000Y-43520000D01*
X19230000Y-46480000D01*
X17770000Y-46480000D01*
X17770000Y-43520000D01*
%TO.C,R36*%
X63010000Y-37880000D02*
X64990000Y-37880000D01*
X63010000Y-41320000D02*
X63010000Y-37880000D01*
X64990000Y-37880000D02*
X64990000Y-41320000D01*
X64990000Y-41320000D02*
X63010000Y-41320000D01*
%TO.C,TP1*%
X59500000Y-21500000D02*
G75*
G02*
X57500000Y-21500000I-1000000J0D01*
G01*
X57500000Y-21500000D02*
G75*
G02*
X59500000Y-21500000I1000000J0D01*
G01*
%TO.C,R59*%
X85510000Y-16780000D02*
X87490000Y-16780000D01*
X85510000Y-20220000D02*
X85510000Y-16780000D01*
X87490000Y-16780000D02*
X87490000Y-20220000D01*
X87490000Y-20220000D02*
X85510000Y-20220000D01*
%TO.C,J17*%
X77020000Y-68290000D02*
X87780000Y-68290000D01*
X77020000Y-79710000D02*
X77020000Y-68290000D01*
X87780000Y-68290000D02*
X87780000Y-79710000D01*
X87780000Y-79710000D02*
X77020000Y-79710000D01*
%TO.C,R53*%
X73910000Y-59280000D02*
X75890000Y-59280000D01*
X73910000Y-62720000D02*
X73910000Y-59280000D01*
X75890000Y-59280000D02*
X75890000Y-62720000D01*
X75890000Y-62720000D02*
X73910000Y-62720000D01*
%TO.C,R1*%
X89510000Y-7280000D02*
X91490000Y-7280000D01*
X89510000Y-10720000D02*
X89510000Y-7280000D01*
X91490000Y-7280000D02*
X91490000Y-10720000D01*
X91490000Y-10720000D02*
X89510000Y-10720000D01*
%TO.C,R22*%
X64780000Y-25010000D02*
X68220000Y-25010000D01*
X64780000Y-26990000D02*
X64780000Y-25010000D01*
X68220000Y-25010000D02*
X68220000Y-26990000D01*
X68220000Y-26990000D02*
X64780000Y-26990000D01*
%TO.C,Q10*%
X77640000Y-64140000D02*
X81320000Y-64140000D01*
X77640000Y-67860000D02*
X77640000Y-64140000D01*
X81320000Y-64140000D02*
X81320000Y-67860000D01*
X81320000Y-67860000D02*
X77640000Y-67860000D01*
%TO.C,J7*%
X78070000Y-230000D02*
X91330000Y-230000D01*
X78070000Y-6730000D02*
X78070000Y-230000D01*
X91330000Y-230000D02*
X91330000Y-6730000D01*
X91330000Y-6730000D02*
X78070000Y-6730000D01*
%TO.C,J11*%
X11020000Y-68290000D02*
X21780000Y-68290000D01*
X11020000Y-79710000D02*
X11020000Y-68290000D01*
X21780000Y-68290000D02*
X21780000Y-79710000D01*
X21780000Y-79710000D02*
X11020000Y-79710000D01*
%TO.C,C11*%
X75520000Y-50770000D02*
X78480000Y-50770000D01*
X78480000Y-52230000D01*
X75520000Y-52230000D01*
X75520000Y-50770000D01*
%TO.C,C1*%
X27100000Y-32070000D02*
X32900000Y-32070000D01*
X27100000Y-34930000D02*
X27100000Y-32070000D01*
X32900000Y-32070000D02*
X32900000Y-34930000D01*
X32900000Y-34930000D02*
X27100000Y-34930000D01*
%TO.C,R31*%
X59010000Y-37880000D02*
X60990000Y-37880000D01*
X59010000Y-41320000D02*
X59010000Y-37880000D01*
X60990000Y-37880000D02*
X60990000Y-41320000D01*
X60990000Y-41320000D02*
X59010000Y-41320000D01*
%TO.C,R8*%
X50280000Y-26010000D02*
X53720000Y-26010000D01*
X50280000Y-27990000D02*
X50280000Y-26010000D01*
X53720000Y-26010000D02*
X53720000Y-27990000D01*
X53720000Y-27990000D02*
X50280000Y-27990000D01*
%TO.C,J20*%
X88290000Y-12120000D02*
X99710000Y-12120000D01*
X88290000Y-22880000D02*
X88290000Y-12120000D01*
X99710000Y-12120000D02*
X99710000Y-22880000D01*
X99710000Y-22880000D02*
X88290000Y-22880000D01*
%TO.C,D5*%
X15920000Y-64320000D02*
X21880000Y-64320000D01*
X15920000Y-67680000D02*
X15920000Y-64320000D01*
X21880000Y-64320000D02*
X21880000Y-67680000D01*
X21880000Y-67680000D02*
X15920000Y-67680000D01*
%TO.C,R6*%
X17510000Y-48280000D02*
X19490000Y-48280000D01*
X17510000Y-51720000D02*
X17510000Y-48280000D01*
X19490000Y-48280000D02*
X19490000Y-51720000D01*
X19490000Y-51720000D02*
X17510000Y-51720000D01*
%TO.C,TP10*%
X15500000Y-57000000D02*
G75*
G02*
X13500000Y-57000000I-1000000J0D01*
G01*
X13500000Y-57000000D02*
G75*
G02*
X15500000Y-57000000I1000000J0D01*
G01*
%TO.C,R21*%
X60280000Y-25010000D02*
X63720000Y-25010000D01*
X60280000Y-26990000D02*
X60280000Y-25010000D01*
X63720000Y-25010000D02*
X63720000Y-26990000D01*
X63720000Y-26990000D02*
X60280000Y-26990000D01*
%TO.C,C3*%
X20520000Y-52270000D02*
X23480000Y-52270000D01*
X23480000Y-53730000D01*
X20520000Y-53730000D01*
X20520000Y-52270000D01*
%TO.C,LED3*%
X49410000Y-28280000D02*
X51580000Y-28280000D01*
X49410000Y-31820000D02*
X49410000Y-28280000D01*
X51580000Y-28280000D02*
X51580000Y-31820000D01*
X51580000Y-31820000D02*
X49410000Y-31820000D01*
%TO.C,Q11*%
X70120000Y-26270000D02*
X74180000Y-26270000D01*
X70120000Y-29730000D02*
X70120000Y-26270000D01*
X74180000Y-26270000D02*
X74180000Y-29730000D01*
X74180000Y-29730000D02*
X70120000Y-29730000D01*
%TO.C,D14*%
X78020000Y-43320000D02*
X83980000Y-43320000D01*
X78020000Y-46680000D02*
X78020000Y-43320000D01*
X83980000Y-43320000D02*
X83980000Y-46680000D01*
X83980000Y-46680000D02*
X78020000Y-46680000D01*
%TO.C,R46*%
X77910000Y-59280000D02*
X79890000Y-59280000D01*
X77910000Y-62720000D02*
X77910000Y-59280000D01*
X79890000Y-59280000D02*
X79890000Y-62720000D01*
X79890000Y-62720000D02*
X77910000Y-62720000D01*
%TO.C,J19*%
X64770000Y-230000D02*
X78030000Y-230000D01*
X64770000Y-6730000D02*
X64770000Y-230000D01*
X78030000Y-230000D02*
X78030000Y-6730000D01*
X78030000Y-6730000D02*
X64770000Y-6730000D01*
%TO.C,R55*%
X79010000Y-16780000D02*
X80990000Y-16780000D01*
X79010000Y-20220000D02*
X79010000Y-16780000D01*
X80990000Y-16780000D02*
X80990000Y-20220000D01*
X80990000Y-20220000D02*
X79010000Y-20220000D01*
%TO.C,TP8*%
X48000000Y-31500000D02*
G75*
G02*
X46000000Y-31500000I-1000000J0D01*
G01*
X46000000Y-31500000D02*
G75*
G02*
X48000000Y-31500000I1000000J0D01*
G01*
%TO.C,J13*%
X33020000Y-68290000D02*
X43780000Y-68290000D01*
X33020000Y-79710000D02*
X33020000Y-68290000D01*
X43780000Y-68290000D02*
X43780000Y-79710000D01*
X43780000Y-79710000D02*
X33020000Y-79710000D01*
%TO.C,C8*%
X54570000Y-44600000D02*
X57430000Y-44600000D01*
X54570000Y-50400000D02*
X54570000Y-44600000D01*
X57430000Y-44600000D02*
X57430000Y-50400000D01*
X57430000Y-50400000D02*
X54570000Y-50400000D01*
%TO.C,R62*%
X85510000Y-49780000D02*
X87490000Y-49780000D01*
X85510000Y-53220000D02*
X85510000Y-49780000D01*
X87490000Y-49780000D02*
X87490000Y-53220000D01*
X87490000Y-53220000D02*
X85510000Y-53220000D01*
%TO.C,HC*%
X86450000Y-12500000D02*
G75*
G02*
X79550000Y-12500000I-3450000J0D01*
G01*
X79550000Y-12500000D02*
G75*
G02*
X86450000Y-12500000I3450000J0D01*
G01*
%TO.C,R60*%
X85510000Y-27780000D02*
X87490000Y-27780000D01*
X85510000Y-31220000D02*
X85510000Y-27780000D01*
X87490000Y-27780000D02*
X87490000Y-31220000D01*
X87490000Y-31220000D02*
X85510000Y-31220000D01*
%TO.C,Q12*%
X70120000Y-32270000D02*
X74180000Y-32270000D01*
X70120000Y-35730000D02*
X70120000Y-32270000D01*
X74180000Y-32270000D02*
X74180000Y-35730000D01*
X74180000Y-35730000D02*
X70120000Y-35730000D01*
%TO.C,R13*%
X22280000Y-30010000D02*
X25720000Y-30010000D01*
X22280000Y-31990000D02*
X22280000Y-30010000D01*
X25720000Y-30010000D02*
X25720000Y-31990000D01*
X25720000Y-31990000D02*
X22280000Y-31990000D01*
%TO.C,R25*%
X67010000Y-37280000D02*
X68990000Y-37280000D01*
X67010000Y-40720000D02*
X67010000Y-37280000D01*
X68990000Y-37280000D02*
X68990000Y-40720000D01*
X68990000Y-40720000D02*
X67010000Y-40720000D01*
%TO.C,R30*%
X59010000Y-33080000D02*
X60990000Y-33080000D01*
X59010000Y-36520000D02*
X59010000Y-33080000D01*
X60990000Y-33080000D02*
X60990000Y-36520000D01*
X60990000Y-36520000D02*
X59010000Y-36520000D01*
%TO.C,R45*%
X66910000Y-59280000D02*
X68890000Y-59280000D01*
X66910000Y-62720000D02*
X66910000Y-59280000D01*
X68890000Y-59280000D02*
X68890000Y-62720000D01*
X68890000Y-62720000D02*
X66910000Y-62720000D01*
%TO.C,D8*%
X48920000Y-64320000D02*
X54880000Y-64320000D01*
X48920000Y-67680000D02*
X48920000Y-64320000D01*
X54880000Y-64320000D02*
X54880000Y-67680000D01*
X54880000Y-67680000D02*
X48920000Y-67680000D01*
%TO.C,R39*%
X910000Y-59280000D02*
X2890000Y-59280000D01*
X910000Y-62720000D02*
X910000Y-59280000D01*
X2890000Y-59280000D02*
X2890000Y-62720000D01*
X2890000Y-62720000D02*
X910000Y-62720000D01*
%TO.C,J8*%
X1230000Y-31870000D02*
X7730000Y-31870000D01*
X1230000Y-45130000D02*
X1230000Y-31870000D01*
X7730000Y-31870000D02*
X7730000Y-45130000D01*
X7730000Y-45130000D02*
X1230000Y-45130000D01*
%TO.C,R24*%
X47510000Y-33280000D02*
X49490000Y-33280000D01*
X47510000Y-36720000D02*
X47510000Y-33280000D01*
X49490000Y-33280000D02*
X49490000Y-36720000D01*
X49490000Y-36720000D02*
X47510000Y-36720000D01*
%TO.C,C17*%
X14570000Y-21100000D02*
X17430000Y-21100000D01*
X14570000Y-26900000D02*
X14570000Y-21100000D01*
X17430000Y-21100000D02*
X17430000Y-26900000D01*
X17430000Y-26900000D02*
X14570000Y-26900000D01*
%TO.C,Q5*%
X22640000Y-64140000D02*
X26320000Y-64140000D01*
X22640000Y-67860000D02*
X22640000Y-64140000D01*
X26320000Y-64140000D02*
X26320000Y-67860000D01*
X26320000Y-67860000D02*
X22640000Y-67860000D01*
%TO.C,Q15*%
X84240000Y-43140000D02*
X87920000Y-43140000D01*
X84240000Y-46860000D02*
X84240000Y-43140000D01*
X87920000Y-43140000D02*
X87920000Y-46860000D01*
X87920000Y-46860000D02*
X84240000Y-46860000D01*
%TO.C,R56*%
X79010000Y-27780000D02*
X80990000Y-27780000D01*
X79010000Y-31220000D02*
X79010000Y-27780000D01*
X80990000Y-27780000D02*
X80990000Y-31220000D01*
X80990000Y-31220000D02*
X79010000Y-31220000D01*
%TO.C,D12*%
X78020000Y-21320000D02*
X83980000Y-21320000D01*
X78020000Y-24680000D02*
X78020000Y-21320000D01*
X83980000Y-21320000D02*
X83980000Y-24680000D01*
X83980000Y-24680000D02*
X78020000Y-24680000D01*
%TO.C,C14*%
X5020000Y-12270000D02*
X7980000Y-12270000D01*
X7980000Y-13730000D01*
X5020000Y-13730000D01*
X5020000Y-12270000D01*
%TO.C,TP4*%
X46000000Y-57500000D02*
G75*
G02*
X44000000Y-57500000I-1000000J0D01*
G01*
X44000000Y-57500000D02*
G75*
G02*
X46000000Y-57500000I1000000J0D01*
G01*
%TO.C,R19*%
X60280000Y-21010000D02*
X63720000Y-21010000D01*
X60280000Y-22990000D02*
X60280000Y-21010000D01*
X63720000Y-21010000D02*
X63720000Y-22990000D01*
X63720000Y-22990000D02*
X60280000Y-22990000D01*
%TO.C,R26*%
X67010000Y-51280000D02*
X68990000Y-51280000D01*
X67010000Y-54720000D02*
X67010000Y-51280000D01*
X68990000Y-51280000D02*
X68990000Y-54720000D01*
X68990000Y-54720000D02*
X67010000Y-54720000D01*
%TO.C,R57*%
X79010000Y-38780000D02*
X80990000Y-38780000D01*
X79010000Y-42220000D02*
X79010000Y-38780000D01*
X80990000Y-38780000D02*
X80990000Y-42220000D01*
X80990000Y-42220000D02*
X79010000Y-42220000D01*
%TO.C,R4*%
X51510000Y-40280000D02*
X53490000Y-40280000D01*
X51510000Y-43720000D02*
X51510000Y-40280000D01*
X53490000Y-40280000D02*
X53490000Y-43720000D01*
X53490000Y-43720000D02*
X51510000Y-43720000D01*
%TO.C,C13*%
X56520000Y-16770000D02*
X59480000Y-16770000D01*
X59480000Y-18230000D01*
X56520000Y-18230000D01*
X56520000Y-16770000D01*
%TO.C,C7*%
X54570000Y-37600000D02*
X57430000Y-37600000D01*
X54570000Y-43400000D02*
X54570000Y-37600000D01*
X57430000Y-37600000D02*
X57430000Y-43400000D01*
X57430000Y-43400000D02*
X54570000Y-43400000D01*
%TO.C,Q6*%
X33640000Y-64140000D02*
X37320000Y-64140000D01*
X33640000Y-67860000D02*
X33640000Y-64140000D01*
X37320000Y-64140000D02*
X37320000Y-67860000D01*
X37320000Y-67860000D02*
X33640000Y-67860000D01*
%TO.C,R38*%
X63010000Y-47480000D02*
X64990000Y-47480000D01*
X63010000Y-50920000D02*
X63010000Y-47480000D01*
X64990000Y-47480000D02*
X64990000Y-50920000D01*
X64990000Y-50920000D02*
X63010000Y-50920000D01*
%TO.C,HB*%
X6450000Y-28000000D02*
G75*
G02*
X-450000Y-28000000I-3450000J0D01*
G01*
X-450000Y-28000000D02*
G75*
G02*
X6450000Y-28000000I3450000J0D01*
G01*
%TO.C,R3*%
X20010000Y-32280000D02*
X21990000Y-32280000D01*
X20010000Y-35720000D02*
X20010000Y-32280000D01*
X21990000Y-32280000D02*
X21990000Y-35720000D01*
X21990000Y-35720000D02*
X20010000Y-35720000D01*
%TO.C,TP12*%
X3800000Y-11000000D02*
G75*
G02*
X1800000Y-11000000I-1000000J0D01*
G01*
X1800000Y-11000000D02*
G75*
G02*
X3800000Y-11000000I1000000J0D01*
G01*
%TO.C,TP9*%
X13000000Y-57500000D02*
G75*
G02*
X11000000Y-57500000I-1000000J0D01*
G01*
X11000000Y-57500000D02*
G75*
G02*
X13000000Y-57500000I1000000J0D01*
G01*
%TO.C,D7*%
X37920000Y-64320000D02*
X43880000Y-64320000D01*
X37920000Y-67680000D02*
X37920000Y-64320000D01*
X43880000Y-64320000D02*
X43880000Y-67680000D01*
X43880000Y-67680000D02*
X37920000Y-67680000D01*
%TO.C,R9*%
X54780000Y-26010000D02*
X58220000Y-26010000D01*
X54780000Y-27990000D02*
X54780000Y-26010000D01*
X58220000Y-26010000D02*
X58220000Y-27990000D01*
X58220000Y-27990000D02*
X54780000Y-27990000D01*
%TO.C,R63*%
X10010000Y-12780000D02*
X11990000Y-12780000D01*
X10010000Y-16220000D02*
X10010000Y-12780000D01*
X11990000Y-12780000D02*
X11990000Y-16220000D01*
X11990000Y-16220000D02*
X10010000Y-16220000D01*
%TO.C,R50*%
X40910000Y-59280000D02*
X42890000Y-59280000D01*
X40910000Y-62720000D02*
X40910000Y-59280000D01*
X42890000Y-59280000D02*
X42890000Y-62720000D01*
X42890000Y-62720000D02*
X40910000Y-62720000D01*
%TO.C,D10*%
X70920000Y-64320000D02*
X76880000Y-64320000D01*
X70920000Y-67680000D02*
X70920000Y-64320000D01*
X76880000Y-64320000D02*
X76880000Y-67680000D01*
X76880000Y-67680000D02*
X70920000Y-67680000D01*
%TO.C,R7*%
X14780000Y-18010000D02*
X18220000Y-18010000D01*
X14780000Y-19990000D02*
X14780000Y-18010000D01*
X18220000Y-18010000D02*
X18220000Y-19990000D01*
X18220000Y-19990000D02*
X14780000Y-19990000D01*
%TO.C,D4*%
X4920000Y-64320000D02*
X10880000Y-64320000D01*
X4920000Y-67680000D02*
X4920000Y-64320000D01*
X10880000Y-64320000D02*
X10880000Y-67680000D01*
X10880000Y-67680000D02*
X4920000Y-67680000D01*
%TO.C,D3*%
X36550000Y-49740000D02*
X43450000Y-49740000D01*
X36550000Y-53260000D02*
X36550000Y-49740000D01*
X43450000Y-49740000D02*
X43450000Y-53260000D01*
X43450000Y-53260000D02*
X36550000Y-53260000D01*
%TO.C,R64*%
X10010000Y-21780000D02*
X11990000Y-21780000D01*
X10010000Y-25220000D02*
X10010000Y-21780000D01*
X11990000Y-21780000D02*
X11990000Y-25220000D01*
X11990000Y-25220000D02*
X10010000Y-25220000D01*
%TO.C,Q8*%
X55640000Y-64140000D02*
X59320000Y-64140000D01*
X55640000Y-67860000D02*
X55640000Y-64140000D01*
X59320000Y-64140000D02*
X59320000Y-67860000D01*
X59320000Y-67860000D02*
X55640000Y-67860000D01*
%TO.C,R18*%
X68010000Y-14780000D02*
X69990000Y-14780000D01*
X68010000Y-18220000D02*
X68010000Y-14780000D01*
X69990000Y-14780000D02*
X69990000Y-18220000D01*
X69990000Y-18220000D02*
X68010000Y-18220000D01*
%TO.C,R51*%
X51910000Y-59280000D02*
X53890000Y-59280000D01*
X51910000Y-62720000D02*
X51910000Y-59280000D01*
X53890000Y-59280000D02*
X53890000Y-62720000D01*
X53890000Y-62720000D02*
X51910000Y-62720000D01*
%TO.C,R27*%
X44510000Y-32780000D02*
X46490000Y-32780000D01*
X44510000Y-36220000D02*
X44510000Y-32780000D01*
X46490000Y-32780000D02*
X46490000Y-36220000D01*
X46490000Y-36220000D02*
X44510000Y-36220000D01*
%TO.C,TP7*%
X44500000Y-31500000D02*
G75*
G02*
X42500000Y-31500000I-1000000J0D01*
G01*
X42500000Y-31500000D02*
G75*
G02*
X44500000Y-31500000I1000000J0D01*
G01*
%TO.C,Q3*%
X640000Y-64140000D02*
X4320000Y-64140000D01*
X640000Y-67860000D02*
X640000Y-64140000D01*
X4320000Y-64140000D02*
X4320000Y-67860000D01*
X4320000Y-67860000D02*
X640000Y-67860000D01*
%TO.C,J9*%
X38170000Y-230000D02*
X51430000Y-230000D01*
X38170000Y-6730000D02*
X38170000Y-230000D01*
X51430000Y-230000D02*
X51430000Y-6730000D01*
X51430000Y-6730000D02*
X38170000Y-6730000D01*
%TO.C,R54*%
X84910000Y-59280000D02*
X86890000Y-59280000D01*
X84910000Y-62720000D02*
X84910000Y-59280000D01*
X86890000Y-59280000D02*
X86890000Y-62720000D01*
X86890000Y-62720000D02*
X84910000Y-62720000D01*
%TO.C,C9*%
X61570000Y-52100000D02*
X64430000Y-52100000D01*
X61570000Y-57900000D02*
X61570000Y-52100000D01*
X64430000Y-52100000D02*
X64430000Y-57900000D01*
X64430000Y-57900000D02*
X61570000Y-57900000D01*
%TO.C,SW1*%
X4990000Y-6620000D02*
X11010000Y-6620000D01*
X4990000Y-10380000D02*
X4990000Y-6620000D01*
X11010000Y-6620000D02*
X11010000Y-10380000D01*
X11010000Y-10380000D02*
X4990000Y-10380000D01*
%TO.C,J1*%
X990000Y-13810000D02*
X9850000Y-13810000D01*
X990000Y-24190000D02*
X990000Y-13810000D01*
X9850000Y-13810000D02*
X9850000Y-24190000D01*
X9850000Y-24190000D02*
X990000Y-24190000D01*
%TO.C,Q13*%
X84240000Y-21140000D02*
X87920000Y-21140000D01*
X84240000Y-24860000D02*
X84240000Y-21140000D01*
X87920000Y-21140000D02*
X87920000Y-24860000D01*
X87920000Y-24860000D02*
X84240000Y-24860000D01*
%TO.C,R41*%
X22910000Y-59280000D02*
X24890000Y-59280000D01*
X22910000Y-62720000D02*
X22910000Y-59280000D01*
X24890000Y-59280000D02*
X24890000Y-62720000D01*
X24890000Y-62720000D02*
X22910000Y-62720000D01*
%TO.C,R52*%
X62910000Y-59280000D02*
X64890000Y-59280000D01*
X62910000Y-62720000D02*
X62910000Y-59280000D01*
X64890000Y-59280000D02*
X64890000Y-62720000D01*
X64890000Y-62720000D02*
X62910000Y-62720000D01*
%TO.C,C4*%
X25520000Y-53270000D02*
X28480000Y-53270000D01*
X28480000Y-54730000D01*
X25520000Y-54730000D01*
X25520000Y-53270000D01*
%TO.C,R58*%
X79010000Y-49780000D02*
X80990000Y-49780000D01*
X79010000Y-53220000D02*
X79010000Y-49780000D01*
X80990000Y-49780000D02*
X80990000Y-53220000D01*
X80990000Y-53220000D02*
X79010000Y-53220000D01*
%TO.C,J16*%
X66020000Y-68290000D02*
X76780000Y-68290000D01*
X66020000Y-79710000D02*
X66020000Y-68290000D01*
X76780000Y-68290000D02*
X76780000Y-79710000D01*
X76780000Y-79710000D02*
X66020000Y-79710000D01*
%TO.C,R11*%
X75510000Y-32780000D02*
X77490000Y-32780000D01*
X75510000Y-36220000D02*
X75510000Y-32780000D01*
X77490000Y-32780000D02*
X77490000Y-36220000D01*
X77490000Y-36220000D02*
X75510000Y-36220000D01*
%TO.C,R15*%
X32280000Y-30010000D02*
X35720000Y-30010000D01*
X32280000Y-31990000D02*
X32280000Y-30010000D01*
X35720000Y-30010000D02*
X35720000Y-31990000D01*
X35720000Y-31990000D02*
X32280000Y-31990000D01*
%TO.C,D9*%
X59920000Y-64320000D02*
X65880000Y-64320000D01*
X59920000Y-67680000D02*
X59920000Y-64320000D01*
X65880000Y-64320000D02*
X65880000Y-67680000D01*
X65880000Y-67680000D02*
X59920000Y-67680000D01*
%TO.C,L1*%
X34800000Y-37590000D02*
X47200000Y-37590000D01*
X34800000Y-48410000D02*
X34800000Y-37590000D01*
X47200000Y-37590000D02*
X47200000Y-48410000D01*
X47200000Y-48410000D02*
X34800000Y-48410000D01*
%TO.C,R43*%
X44910000Y-59280000D02*
X46890000Y-59280000D01*
X44910000Y-62720000D02*
X44910000Y-59280000D01*
X46890000Y-59280000D02*
X46890000Y-62720000D01*
X46890000Y-62720000D02*
X44910000Y-62720000D01*
%TO.C,J23*%
X88290000Y-45120000D02*
X99710000Y-45120000D01*
X88290000Y-55880000D02*
X88290000Y-45120000D01*
X99710000Y-45120000D02*
X99710000Y-55880000D01*
X99710000Y-55880000D02*
X88290000Y-55880000D01*
%TO.C,C12*%
X78020000Y-26270000D02*
X80980000Y-26270000D01*
X80980000Y-27730000D01*
X78020000Y-27730000D01*
X78020000Y-26270000D01*
%TO.C,R23*%
X55010000Y-33280000D02*
X56990000Y-33280000D01*
X55010000Y-36720000D02*
X55010000Y-33280000D01*
X56990000Y-33280000D02*
X56990000Y-36720000D01*
X56990000Y-36720000D02*
X55010000Y-36720000D01*
%TO.C,J6*%
X1230000Y-45370000D02*
X7730000Y-45370000D01*
X1230000Y-58630000D02*
X1230000Y-45370000D01*
X7730000Y-45370000D02*
X7730000Y-58630000D01*
X7730000Y-58630000D02*
X1230000Y-58630000D01*
%TO.C,R17*%
X68010000Y-10780000D02*
X69990000Y-10780000D01*
X68010000Y-14220000D02*
X68010000Y-10780000D01*
X69990000Y-10780000D02*
X69990000Y-14220000D01*
X69990000Y-14220000D02*
X68010000Y-14220000D01*
%TO.C,D15*%
X78020000Y-54320000D02*
X83980000Y-54320000D01*
X78020000Y-57680000D02*
X78020000Y-54320000D01*
X83980000Y-54320000D02*
X83980000Y-57680000D01*
X83980000Y-57680000D02*
X78020000Y-57680000D01*
%TO.C,J2*%
X91520000Y-870000D02*
X99510000Y-870000D01*
X91520000Y-11130000D02*
X91520000Y-870000D01*
X99510000Y-870000D02*
X99510000Y-11130000D01*
X99510000Y-11130000D02*
X91520000Y-11130000D01*
%TO.C,R48*%
X18910000Y-59280000D02*
X20890000Y-59280000D01*
X18910000Y-62720000D02*
X18910000Y-59280000D01*
X20890000Y-59280000D02*
X20890000Y-62720000D01*
X20890000Y-62720000D02*
X18910000Y-62720000D01*
%TO.C,TP13*%
X91500000Y-63000000D02*
G75*
G02*
X89500000Y-63000000I-1000000J0D01*
G01*
X89500000Y-63000000D02*
G75*
G02*
X91500000Y-63000000I1000000J0D01*
G01*
%TO.C,R34*%
X63010000Y-28280000D02*
X64990000Y-28280000D01*
X63010000Y-31720000D02*
X63010000Y-28280000D01*
X64990000Y-28280000D02*
X64990000Y-31720000D01*
X64990000Y-31720000D02*
X63010000Y-31720000D01*
%TO.C,R42*%
X33910000Y-59280000D02*
X35890000Y-59280000D01*
X33910000Y-62720000D02*
X33910000Y-59280000D01*
X35890000Y-59280000D02*
X35890000Y-62720000D01*
X35890000Y-62720000D02*
X33910000Y-62720000D01*
%TO.C,C18*%
X40520000Y-28270000D02*
X43480000Y-28270000D01*
X43480000Y-29730000D01*
X40520000Y-29730000D01*
X40520000Y-28270000D01*
%TO.C,R35*%
X63010000Y-33080000D02*
X64990000Y-33080000D01*
X63010000Y-36520000D02*
X63010000Y-33080000D01*
X64990000Y-33080000D02*
X64990000Y-36520000D01*
X64990000Y-36520000D02*
X63010000Y-36520000D01*
%TO.C,J15*%
X55020000Y-68290000D02*
X65780000Y-68290000D01*
X55020000Y-79710000D02*
X55020000Y-68290000D01*
X65780000Y-68290000D02*
X65780000Y-79710000D01*
X65780000Y-79710000D02*
X55020000Y-79710000D01*
%TO.C,J10*%
X20000Y-68290000D02*
X10780000Y-68290000D01*
X20000Y-79710000D02*
X20000Y-68290000D01*
X10780000Y-68290000D02*
X10780000Y-79710000D01*
X10780000Y-79710000D02*
X20000Y-79710000D01*
%TO.C,R2*%
X82010000Y-17280000D02*
X83990000Y-17280000D01*
X82010000Y-20720000D02*
X82010000Y-17280000D01*
X83990000Y-17280000D02*
X83990000Y-20720000D01*
X83990000Y-20720000D02*
X82010000Y-20720000D01*
%TO.C,Q4*%
X11640000Y-64140000D02*
X15320000Y-64140000D01*
X11640000Y-67860000D02*
X11640000Y-64140000D01*
X15320000Y-64140000D02*
X15320000Y-67860000D01*
X15320000Y-67860000D02*
X11640000Y-67860000D01*
%TO.C,R28*%
X56010000Y-55280000D02*
X57990000Y-55280000D01*
X56010000Y-58720000D02*
X56010000Y-55280000D01*
X57990000Y-55280000D02*
X57990000Y-58720000D01*
X57990000Y-58720000D02*
X56010000Y-58720000D01*
%TO.C,LED4*%
X66910000Y-32280000D02*
X69080000Y-32280000D01*
X66910000Y-35820000D02*
X66910000Y-32280000D01*
X69080000Y-32280000D02*
X69080000Y-35820000D01*
X69080000Y-35820000D02*
X66910000Y-35820000D01*
%TO.C,C10*%
X41520000Y-13270000D02*
X44480000Y-13270000D01*
X44480000Y-14730000D01*
X41520000Y-14730000D01*
X41520000Y-13270000D01*
%TO.C,R33*%
X59010000Y-47480000D02*
X60990000Y-47480000D01*
X59010000Y-50920000D02*
X59010000Y-47480000D01*
X60990000Y-47480000D02*
X60990000Y-50920000D01*
X60990000Y-50920000D02*
X59010000Y-50920000D01*
%TO.C,R5*%
X51510000Y-45280000D02*
X53490000Y-45280000D01*
X51510000Y-48720000D02*
X51510000Y-45280000D01*
X53490000Y-45280000D02*
X53490000Y-48720000D01*
X53490000Y-48720000D02*
X51510000Y-48720000D01*
%TO.C,U5*%
X72280000Y-12060000D02*
X76370000Y-12060000D01*
X72280000Y-16140000D02*
X72280000Y-12060000D01*
X76370000Y-12060000D02*
X76370000Y-16140000D01*
X76370000Y-16140000D02*
X72280000Y-16140000D01*
%TO.C,R16*%
X37280000Y-30010000D02*
X40720000Y-30010000D01*
X37280000Y-31990000D02*
X37280000Y-30010000D01*
X40720000Y-30010000D02*
X40720000Y-31990000D01*
X40720000Y-31990000D02*
X37280000Y-31990000D01*
%TO.C,R49*%
X29910000Y-59280000D02*
X31890000Y-59280000D01*
X29910000Y-62720000D02*
X29910000Y-59280000D01*
X31890000Y-59280000D02*
X31890000Y-62720000D01*
X31890000Y-62720000D02*
X29910000Y-62720000D01*
%TO.C,J18*%
X51470000Y-230000D02*
X64730000Y-230000D01*
X51470000Y-6730000D02*
X51470000Y-230000D01*
X64730000Y-230000D02*
X64730000Y-6730000D01*
X64730000Y-6730000D02*
X51470000Y-6730000D01*
%TO.C,R47*%
X7910000Y-59280000D02*
X9890000Y-59280000D01*
X7910000Y-62720000D02*
X7910000Y-59280000D01*
X9890000Y-59280000D02*
X9890000Y-62720000D01*
X9890000Y-62720000D02*
X7910000Y-62720000D01*
%TO.C,R20*%
X64780000Y-21010000D02*
X68220000Y-21010000D01*
X64780000Y-22990000D02*
X64780000Y-21010000D01*
X68220000Y-21010000D02*
X68220000Y-22990000D01*
X68220000Y-22990000D02*
X64780000Y-22990000D01*
%TO.C,R29*%
X59010000Y-28280000D02*
X60990000Y-28280000D01*
X59010000Y-31720000D02*
X59010000Y-28280000D01*
X60990000Y-28280000D02*
X60990000Y-31720000D01*
X60990000Y-31720000D02*
X59010000Y-31720000D01*
%TO.C,Q9*%
X66640000Y-64140000D02*
X70320000Y-64140000D01*
X66640000Y-67860000D02*
X66640000Y-64140000D01*
X70320000Y-64140000D02*
X70320000Y-67860000D01*
X70320000Y-67860000D02*
X66640000Y-67860000D01*
%TO.C,U6*%
X39000000Y-16200000D02*
X49000000Y-16200000D01*
X49000000Y-27800000D01*
X39000000Y-27800000D01*
X39000000Y-16200000D01*
%TO.C,SW3*%
X44990000Y-49120000D02*
X51010000Y-49120000D01*
X44990000Y-52880000D02*
X44990000Y-49120000D01*
X51010000Y-49120000D02*
X51010000Y-52880000D01*
X51010000Y-52880000D02*
X44990000Y-52880000D01*
%TO.C,D11*%
X81920000Y-64320000D02*
X87880000Y-64320000D01*
X81920000Y-67680000D02*
X81920000Y-64320000D01*
X87880000Y-64320000D02*
X87880000Y-67680000D01*
X87880000Y-67680000D02*
X81920000Y-67680000D01*
%TO.C,U3*%
X22110000Y-41060000D02*
X27880000Y-41060000D01*
X22110000Y-48960000D02*
X22110000Y-41060000D01*
X27880000Y-41060000D02*
X27880000Y-48960000D01*
X27880000Y-48960000D02*
X22110000Y-48960000D01*
%TO.C,U1*%
X18240000Y430000D02*
X37760000Y430000D01*
X18240000Y-26250000D02*
X18240000Y430000D01*
X37760000Y430000D02*
X37760000Y-26250000D01*
X37760000Y-26250000D02*
X18240000Y-26250000D01*
%TO.C,R32*%
X59010000Y-42680000D02*
X60990000Y-42680000D01*
X59010000Y-46120000D02*
X59010000Y-42680000D01*
X60990000Y-42680000D02*
X60990000Y-46120000D01*
X60990000Y-46120000D02*
X59010000Y-46120000D01*
%TO.C,C5*%
X31070000Y-40020000D02*
X32530000Y-40020000D01*
X32530000Y-42980000D01*
X31070000Y-42980000D01*
X31070000Y-40020000D01*
%TO.C,HA*%
X6850000Y-3400000D02*
G75*
G02*
X-50000Y-3400000I-3450000J0D01*
G01*
X-50000Y-3400000D02*
G75*
G02*
X6850000Y-3400000I3450000J0D01*
G01*
%TO.C,Q16*%
X84240000Y-54140000D02*
X87920000Y-54140000D01*
X84240000Y-57860000D02*
X84240000Y-54140000D01*
X87920000Y-54140000D02*
X87920000Y-57860000D01*
X87920000Y-57860000D02*
X84240000Y-57860000D01*
%TO.C,U2*%
X69160000Y-39900000D02*
X77820000Y-39900000D01*
X69160000Y-48100000D02*
X69160000Y-39900000D01*
X77820000Y-39900000D02*
X77820000Y-48100000D01*
X77820000Y-48100000D02*
X69160000Y-48100000D01*
%TO.C,TP5*%
X83000000Y-63000000D02*
G75*
G02*
X81000000Y-63000000I-1000000J0D01*
G01*
X81000000Y-63000000D02*
G75*
G02*
X83000000Y-63000000I1000000J0D01*
G01*
%TO.C,J21*%
X88290000Y-23120000D02*
X99710000Y-23120000D01*
X88290000Y-33880000D02*
X88290000Y-23120000D01*
X99710000Y-23120000D02*
X99710000Y-33880000D01*
X99710000Y-33880000D02*
X88290000Y-33880000D01*
%TO.C,R40*%
X11910000Y-59280000D02*
X13890000Y-59280000D01*
X11910000Y-62720000D02*
X11910000Y-59280000D01*
X13890000Y-59280000D02*
X13890000Y-62720000D01*
X13890000Y-62720000D02*
X11910000Y-62720000D01*
%TO.C,TP2*%
X15000000Y-33000000D02*
G75*
G02*
X13000000Y-33000000I-1000000J0D01*
G01*
X13000000Y-33000000D02*
G75*
G02*
X15000000Y-33000000I1000000J0D01*
G01*
%TO.C,R12*%
X51510000Y-18780000D02*
X53490000Y-18780000D01*
X51510000Y-22220000D02*
X51510000Y-18780000D01*
X53490000Y-18780000D02*
X53490000Y-22220000D01*
X53490000Y-22220000D02*
X51510000Y-22220000D01*
%TO.C,SW2*%
X11990000Y-8620000D02*
X18010000Y-8620000D01*
X11990000Y-12380000D02*
X11990000Y-8620000D01*
X18010000Y-8620000D02*
X18010000Y-12380000D01*
X18010000Y-12380000D02*
X11990000Y-12380000D01*
%TO.C,TP6*%
X49500000Y-47500000D02*
G75*
G02*
X47500000Y-47500000I-1000000J0D01*
G01*
X47500000Y-47500000D02*
G75*
G02*
X49500000Y-47500000I1000000J0D01*
G01*
%TO.C,J22*%
X88290000Y-34120000D02*
X99710000Y-34120000D01*
X88290000Y-44880000D02*
X88290000Y-34120000D01*
X99710000Y-34120000D02*
X99710000Y-44880000D01*
X99710000Y-44880000D02*
X88290000Y-44880000D01*
%TO.C,C2*%
X28520000Y-37770000D02*
X31480000Y-37770000D01*
X31480000Y-39230000D01*
X28520000Y-39230000D01*
X28520000Y-37770000D01*
%TO.C,R10*%
X75510000Y-28280000D02*
X77490000Y-28280000D01*
X75510000Y-31720000D02*
X75510000Y-28280000D01*
X77490000Y-28280000D02*
X77490000Y-31720000D01*
X77490000Y-31720000D02*
X75510000Y-31720000D01*
%TO.C,R37*%
X63010000Y-42680000D02*
X64990000Y-42680000D01*
X63010000Y-46120000D02*
X63010000Y-42680000D01*
X64990000Y-42680000D02*
X64990000Y-46120000D01*
X64990000Y-46120000D02*
X63010000Y-46120000D01*
%TO.C,U7*%
X10280000Y-17060000D02*
X14370000Y-17060000D01*
X10280000Y-21140000D02*
X10280000Y-17060000D01*
X14370000Y-17060000D02*
X14370000Y-21140000D01*
X14370000Y-21140000D02*
X10280000Y-21140000D01*
%TO.C,R44*%
X55910000Y-59280000D02*
X57890000Y-59280000D01*
X55910000Y-62720000D02*
X55910000Y-59280000D01*
X57890000Y-59280000D02*
X57890000Y-62720000D01*
X57890000Y-62720000D02*
X55910000Y-62720000D01*
%TO.C,U4*%
X71180000Y-17740000D02*
X77380000Y-17740000D01*
X71180000Y-25310000D02*
X71180000Y-17740000D01*
X77380000Y-17740000D02*
X77380000Y-25310000D01*
X77380000Y-25310000D02*
X71180000Y-25310000D01*
%TO.C,D6*%
X26920000Y-64320000D02*
X32880000Y-64320000D01*
X26920000Y-67680000D02*
X26920000Y-64320000D01*
X32880000Y-64320000D02*
X32880000Y-67680000D01*
X32880000Y-67680000D02*
X26920000Y-67680000D01*
%TO.C,R61*%
X85510000Y-38780000D02*
X87490000Y-38780000D01*
X85510000Y-42220000D02*
X85510000Y-38780000D01*
X87490000Y-38780000D02*
X87490000Y-42220000D01*
X87490000Y-42220000D02*
X85510000Y-42220000D01*
%TO.C,HD*%
X76950000Y-55700000D02*
G75*
G02*
X70050000Y-55700000I-3450000J0D01*
G01*
X70050000Y-55700000D02*
G75*
G02*
X76950000Y-55700000I3450000J0D01*
G01*
%TO.C,D2*%
X20550000Y-36740000D02*
X27450000Y-36740000D01*
X20550000Y-40260000D02*
X20550000Y-36740000D01*
X27450000Y-36740000D02*
X27450000Y-40260000D01*
X27450000Y-40260000D02*
X20550000Y-40260000D01*
%TO.C,C16*%
X80020000Y-59770000D02*
X82980000Y-59770000D01*
X82980000Y-61230000D01*
X80020000Y-61230000D01*
X80020000Y-59770000D01*
%TO.C,TP3*%
X35000000Y-57500000D02*
G75*
G02*
X33000000Y-57500000I-1000000J0D01*
G01*
X33000000Y-57500000D02*
G75*
G02*
X35000000Y-57500000I1000000J0D01*
G01*
%TD*%
M02*
