%TF.GenerationSoftware,KiCad,Pcbnew,10.0.6*%
%TF.CreationDate,2026-10-01T18:47:02+08:00*%
%TF.ProjectId,flowio-p1,666c6f77-696f-42d7-9031-2e6b69636164,rev?*%
%TF.SameCoordinates,Original*%
%TF.FileFunction,Other,User*%
%FSLAX46Y46*%
G04 Gerber Fmt 4.6, Leading zero omitted, Abs format (unit mm)*
G04 Created by KiCad (PCBNEW 10.0.6) date 2026-10-01 18:47:02*
%MOMM*%
%LPD*%
G01*
G04 APERTURE LIST*
%ADD10C,0.050000*%
G04 APERTURE END LIST*
%TO.C,R29*%
D10*
X61010000Y-28280000D02*
X62990000Y-28280000D01*
X61010000Y-31720000D02*
X61010000Y-28280000D01*
X62990000Y-28280000D02*
X62990000Y-31720000D01*
X62990000Y-31720000D02*
X61010000Y-31720000D01*
%TO.C,R38*%
X65010000Y-47480000D02*
X66990000Y-47480000D01*
X65010000Y-50920000D02*
X65010000Y-47480000D01*
X66990000Y-47480000D02*
X66990000Y-50920000D01*
X66990000Y-50920000D02*
X65010000Y-50920000D01*
%TO.C,D3*%
X45050000Y-41240000D02*
X51950000Y-41240000D01*
X45050000Y-44760000D02*
X45050000Y-41240000D01*
X51950000Y-41240000D02*
X51950000Y-44760000D01*
X51950000Y-44760000D02*
X45050000Y-44760000D01*
%TO.C,J16*%
X67030000Y-63600000D02*
X78560000Y-63600000D01*
X67030000Y-74520000D02*
X67030000Y-63600000D01*
X78560000Y-63600000D02*
X78560000Y-74520000D01*
X78560000Y-74520000D02*
X67030000Y-74520000D01*
%TO.C,R4*%
X50510000Y-37780000D02*
X52490000Y-37780000D01*
X50510000Y-41220000D02*
X50510000Y-37780000D01*
X52490000Y-37780000D02*
X52490000Y-41220000D01*
X52490000Y-41220000D02*
X50510000Y-41220000D01*
%TO.C,C2*%
X28520000Y-37770000D02*
X31480000Y-37770000D01*
X31480000Y-39230000D01*
X28520000Y-39230000D01*
X28520000Y-37770000D01*
%TO.C,Q10*%
X79340000Y-58640000D02*
X83020000Y-58640000D01*
X79340000Y-62360000D02*
X79340000Y-58640000D01*
X83020000Y-58640000D02*
X83020000Y-62360000D01*
X83020000Y-62360000D02*
X79340000Y-62360000D01*
%TO.C,R10*%
X77510000Y-29280000D02*
X79490000Y-29280000D01*
X77510000Y-32720000D02*
X77510000Y-29280000D01*
X79490000Y-29280000D02*
X79490000Y-32720000D01*
X79490000Y-32720000D02*
X77510000Y-32720000D01*
%TO.C,R2*%
X77510000Y-12280000D02*
X79490000Y-12280000D01*
X77510000Y-15720000D02*
X77510000Y-12280000D01*
X79490000Y-12280000D02*
X79490000Y-15720000D01*
X79490000Y-15720000D02*
X77510000Y-15720000D01*
%TO.C,R13*%
X22280000Y-30010000D02*
X25720000Y-30010000D01*
X22280000Y-31990000D02*
X22280000Y-30010000D01*
X25720000Y-30010000D02*
X25720000Y-31990000D01*
X25720000Y-31990000D02*
X22280000Y-31990000D01*
%TO.C,C7*%
X54570000Y-37100000D02*
X57430000Y-37100000D01*
X54570000Y-42900000D02*
X54570000Y-37100000D01*
X57430000Y-37100000D02*
X57430000Y-42900000D01*
X57430000Y-42900000D02*
X54570000Y-42900000D01*
%TO.C,J2*%
X81120000Y-870000D02*
X89110000Y-870000D01*
X81120000Y-11130000D02*
X81120000Y-870000D01*
X89110000Y-870000D02*
X89110000Y-11130000D01*
X89110000Y-11130000D02*
X81120000Y-11130000D01*
%TO.C,R34*%
X65010000Y-28280000D02*
X66990000Y-28280000D01*
X65010000Y-31720000D02*
X65010000Y-28280000D01*
X66990000Y-28280000D02*
X66990000Y-31720000D01*
X66990000Y-31720000D02*
X65010000Y-31720000D01*
%TO.C,LED5*%
X68410000Y-42280000D02*
X70580000Y-42280000D01*
X68410000Y-45820000D02*
X68410000Y-42280000D01*
X70580000Y-42280000D02*
X70580000Y-45820000D01*
X70580000Y-45820000D02*
X68410000Y-45820000D01*
%TO.C,HA*%
X7450000Y-4000000D02*
G75*
G02*
X550000Y-4000000I-3450000J0D01*
G01*
X550000Y-4000000D02*
G75*
G02*
X7450000Y-4000000I3450000J0D01*
G01*
%TO.C,C16*%
X77770000Y-55020000D02*
X79230000Y-55020000D01*
X79230000Y-57980000D01*
X77770000Y-57980000D01*
X77770000Y-55020000D01*
%TO.C,R47*%
X7910000Y-53780000D02*
X9890000Y-53780000D01*
X7910000Y-57220000D02*
X7910000Y-53780000D01*
X9890000Y-53780000D02*
X9890000Y-57220000D01*
X9890000Y-57220000D02*
X7910000Y-57220000D01*
%TO.C,C1*%
X27100000Y-32070000D02*
X32900000Y-32070000D01*
X27100000Y-34930000D02*
X27100000Y-32070000D01*
X32900000Y-32070000D02*
X32900000Y-34930000D01*
X32900000Y-34930000D02*
X27100000Y-34930000D01*
%TO.C,R53*%
X73910000Y-53780000D02*
X75890000Y-53780000D01*
X73910000Y-57220000D02*
X73910000Y-53780000D01*
X75890000Y-53780000D02*
X75890000Y-57220000D01*
X75890000Y-57220000D02*
X73910000Y-57220000D01*
%TO.C,R50*%
X40910000Y-53780000D02*
X42890000Y-53780000D01*
X40910000Y-57220000D02*
X40910000Y-53780000D01*
X42890000Y-53780000D02*
X42890000Y-57220000D01*
X42890000Y-57220000D02*
X40910000Y-57220000D01*
%TO.C,C6*%
X17770000Y-43520000D02*
X19230000Y-43520000D01*
X19230000Y-46480000D01*
X17770000Y-46480000D01*
X17770000Y-43520000D01*
%TO.C,R36*%
X65010000Y-37880000D02*
X66990000Y-37880000D01*
X65010000Y-41320000D02*
X65010000Y-37880000D01*
X66990000Y-37880000D02*
X66990000Y-41320000D01*
X66990000Y-41320000D02*
X65010000Y-41320000D01*
%TO.C,D8*%
X49920000Y-58820000D02*
X55880000Y-58820000D01*
X49920000Y-62180000D02*
X49920000Y-58820000D01*
X55880000Y-58820000D02*
X55880000Y-62180000D01*
X55880000Y-62180000D02*
X49920000Y-62180000D01*
%TO.C,R9*%
X52780000Y-26010000D02*
X56220000Y-26010000D01*
X52780000Y-27990000D02*
X52780000Y-26010000D01*
X56220000Y-26010000D02*
X56220000Y-27990000D01*
X56220000Y-27990000D02*
X52780000Y-27990000D01*
%TO.C,R14*%
X26780000Y-30010000D02*
X30220000Y-30010000D01*
X26780000Y-31990000D02*
X26780000Y-30010000D01*
X30220000Y-30010000D02*
X30220000Y-31990000D01*
X30220000Y-31990000D02*
X26780000Y-31990000D01*
%TO.C,R43*%
X47110000Y-53780000D02*
X49090000Y-53780000D01*
X47110000Y-57220000D02*
X47110000Y-53780000D01*
X49090000Y-53780000D02*
X49090000Y-57220000D01*
X49090000Y-57220000D02*
X47110000Y-57220000D01*
%TO.C,J9*%
X39370000Y-230000D02*
X52630000Y-230000D01*
X39370000Y-6730000D02*
X39370000Y-230000D01*
X52630000Y-230000D02*
X52630000Y-6730000D01*
X52630000Y-6730000D02*
X39370000Y-6730000D01*
%TO.C,J13*%
X34030000Y-63600000D02*
X45560000Y-63600000D01*
X34030000Y-74520000D02*
X34030000Y-63600000D01*
X45560000Y-63600000D02*
X45560000Y-74520000D01*
X45560000Y-74520000D02*
X34030000Y-74520000D01*
%TO.C,C12*%
X78520000Y-24770000D02*
X81480000Y-24770000D01*
X81480000Y-26230000D01*
X78520000Y-26230000D01*
X78520000Y-24770000D01*
%TO.C,C15*%
X33770000Y-50020000D02*
X35230000Y-50020000D01*
X35230000Y-52980000D01*
X33770000Y-52980000D01*
X33770000Y-50020000D01*
%TO.C,TP3*%
X35000000Y-57500000D02*
G75*
G02*
X33000000Y-57500000I-1000000J0D01*
G01*
X33000000Y-57500000D02*
G75*
G02*
X35000000Y-57500000I1000000J0D01*
G01*
%TO.C,Q12*%
X67770000Y-26620000D02*
X71230000Y-26620000D01*
X67770000Y-30680000D02*
X67770000Y-26620000D01*
X71230000Y-26620000D02*
X71230000Y-30680000D01*
X71230000Y-30680000D02*
X67770000Y-30680000D01*
%TO.C,Q8*%
X57340000Y-58640000D02*
X61020000Y-58640000D01*
X57340000Y-62360000D02*
X57340000Y-58640000D01*
X61020000Y-58640000D02*
X61020000Y-62360000D01*
X61020000Y-62360000D02*
X57340000Y-62360000D01*
%TO.C,C11*%
X78020000Y-49270000D02*
X80980000Y-49270000D01*
X80980000Y-50730000D01*
X78020000Y-50730000D01*
X78020000Y-49270000D01*
%TO.C,C10*%
X41520000Y-13270000D02*
X44480000Y-13270000D01*
X44480000Y-14730000D01*
X41520000Y-14730000D01*
X41520000Y-13270000D01*
%TO.C,TP6*%
X49500000Y-47500000D02*
G75*
G02*
X47500000Y-47500000I-1000000J0D01*
G01*
X47500000Y-47500000D02*
G75*
G02*
X49500000Y-47500000I1000000J0D01*
G01*
%TO.C,R19*%
X60280000Y-21010000D02*
X63720000Y-21010000D01*
X60280000Y-22990000D02*
X60280000Y-21010000D01*
X63720000Y-21010000D02*
X63720000Y-22990000D01*
X63720000Y-22990000D02*
X60280000Y-22990000D01*
%TO.C,Q4*%
X13340000Y-58640000D02*
X17020000Y-58640000D01*
X13340000Y-62360000D02*
X13340000Y-58640000D01*
X17020000Y-58640000D02*
X17020000Y-62360000D01*
X17020000Y-62360000D02*
X13340000Y-62360000D01*
%TO.C,D6*%
X27920000Y-58820000D02*
X33880000Y-58820000D01*
X27920000Y-62180000D02*
X27920000Y-58820000D01*
X33880000Y-58820000D02*
X33880000Y-62180000D01*
X33880000Y-62180000D02*
X27920000Y-62180000D01*
%TO.C,U3*%
X22110000Y-41060000D02*
X27880000Y-41060000D01*
X22110000Y-48960000D02*
X22110000Y-41060000D01*
X27880000Y-41060000D02*
X27880000Y-48960000D01*
X27880000Y-48960000D02*
X22110000Y-48960000D01*
%TO.C,R30*%
X61010000Y-33080000D02*
X62990000Y-33080000D01*
X61010000Y-36520000D02*
X61010000Y-33080000D01*
X62990000Y-33080000D02*
X62990000Y-36520000D01*
X62990000Y-36520000D02*
X61010000Y-36520000D01*
%TO.C,J14*%
X45030000Y-63600000D02*
X56560000Y-63600000D01*
X45030000Y-74520000D02*
X45030000Y-63600000D01*
X56560000Y-63600000D02*
X56560000Y-74520000D01*
X56560000Y-74520000D02*
X45030000Y-74520000D01*
%TO.C,U5*%
X72280000Y-10060000D02*
X76370000Y-10060000D01*
X72280000Y-14140000D02*
X72280000Y-10060000D01*
X76370000Y-10060000D02*
X76370000Y-14140000D01*
X76370000Y-14140000D02*
X72280000Y-14140000D01*
%TO.C,U4*%
X71680000Y-17740000D02*
X77880000Y-17740000D01*
X71680000Y-25310000D02*
X71680000Y-17740000D01*
X77880000Y-17740000D02*
X77880000Y-25310000D01*
X77880000Y-25310000D02*
X71680000Y-25310000D01*
%TO.C,HB*%
X6450000Y-37000000D02*
G75*
G02*
X-450000Y-37000000I-3450000J0D01*
G01*
X-450000Y-37000000D02*
G75*
G02*
X6450000Y-37000000I3450000J0D01*
G01*
%TO.C,HD*%
X71450000Y-65000000D02*
G75*
G02*
X64550000Y-65000000I-3450000J0D01*
G01*
X64550000Y-65000000D02*
G75*
G02*
X71450000Y-65000000I3450000J0D01*
G01*
%TO.C,R32*%
X61010000Y-42680000D02*
X62990000Y-42680000D01*
X61010000Y-46120000D02*
X61010000Y-42680000D01*
X62990000Y-42680000D02*
X62990000Y-46120000D01*
X62990000Y-46120000D02*
X61010000Y-46120000D01*
%TO.C,R20*%
X64780000Y-21010000D02*
X68220000Y-21010000D01*
X64780000Y-22990000D02*
X64780000Y-21010000D01*
X68220000Y-21010000D02*
X68220000Y-22990000D01*
X68220000Y-22990000D02*
X64780000Y-22990000D01*
%TO.C,J11*%
X12030000Y-63600000D02*
X23560000Y-63600000D01*
X12030000Y-74520000D02*
X12030000Y-63600000D01*
X23560000Y-63600000D02*
X23560000Y-74520000D01*
X23560000Y-74520000D02*
X12030000Y-74520000D01*
%TO.C,R35*%
X65010000Y-33080000D02*
X66990000Y-33080000D01*
X65010000Y-36520000D02*
X65010000Y-33080000D01*
X66990000Y-33080000D02*
X66990000Y-36520000D01*
X66990000Y-36520000D02*
X65010000Y-36520000D01*
%TO.C,R18*%
X69010000Y-13280000D02*
X70990000Y-13280000D01*
X69010000Y-16720000D02*
X69010000Y-13280000D01*
X70990000Y-13280000D02*
X70990000Y-16720000D01*
X70990000Y-16720000D02*
X69010000Y-16720000D01*
%TO.C,D1*%
X20050000Y-31740000D02*
X26950000Y-31740000D01*
X20050000Y-35260000D02*
X20050000Y-31740000D01*
X26950000Y-31740000D02*
X26950000Y-35260000D01*
X26950000Y-35260000D02*
X20050000Y-35260000D01*
%TO.C,R15*%
X32280000Y-30010000D02*
X35720000Y-30010000D01*
X32280000Y-31990000D02*
X32280000Y-30010000D01*
X35720000Y-30010000D02*
X35720000Y-31990000D01*
X35720000Y-31990000D02*
X32280000Y-31990000D01*
%TO.C,TP12*%
X3800000Y-11000000D02*
G75*
G02*
X1800000Y-11000000I-1000000J0D01*
G01*
X1800000Y-11000000D02*
G75*
G02*
X3800000Y-11000000I1000000J0D01*
G01*
%TO.C,J19*%
X66370000Y-230000D02*
X79630000Y-230000D01*
X66370000Y-6730000D02*
X66370000Y-230000D01*
X79630000Y-230000D02*
X79630000Y-6730000D01*
X79630000Y-6730000D02*
X66370000Y-6730000D01*
%TO.C,C17*%
X15570000Y-21100000D02*
X18430000Y-21100000D01*
X15570000Y-26900000D02*
X15570000Y-21100000D01*
X18430000Y-21100000D02*
X18430000Y-26900000D01*
X18430000Y-26900000D02*
X15570000Y-26900000D01*
%TO.C,LED1*%
X47090000Y-9220000D02*
X52880000Y-9220000D01*
X47090000Y-18480000D02*
X47090000Y-9220000D01*
X52880000Y-9220000D02*
X52880000Y-18480000D01*
X52880000Y-18480000D02*
X47090000Y-18480000D01*
%TO.C,Q3*%
X2340000Y-58640000D02*
X6020000Y-58640000D01*
X2340000Y-62360000D02*
X2340000Y-58640000D01*
X6020000Y-58640000D02*
X6020000Y-62360000D01*
X6020000Y-62360000D02*
X2340000Y-62360000D01*
%TO.C,R27*%
X45510000Y-32780000D02*
X47490000Y-32780000D01*
X45510000Y-36220000D02*
X45510000Y-32780000D01*
X47490000Y-32780000D02*
X47490000Y-36220000D01*
X47490000Y-36220000D02*
X45510000Y-36220000D01*
%TO.C,D4*%
X5920000Y-58820000D02*
X11880000Y-58820000D01*
X5920000Y-62180000D02*
X5920000Y-58820000D01*
X11880000Y-58820000D02*
X11880000Y-62180000D01*
X11880000Y-62180000D02*
X5920000Y-62180000D01*
%TO.C,C9*%
X40100000Y-7570000D02*
X45900000Y-7570000D01*
X40100000Y-10430000D02*
X40100000Y-7570000D01*
X45900000Y-7570000D02*
X45900000Y-10430000D01*
X45900000Y-10430000D02*
X40100000Y-10430000D01*
%TO.C,R6*%
X17510000Y-48280000D02*
X19490000Y-48280000D01*
X17510000Y-51720000D02*
X17510000Y-48280000D01*
X19490000Y-48280000D02*
X19490000Y-51720000D01*
X19490000Y-51720000D02*
X17510000Y-51720000D01*
%TO.C,R39*%
X3110000Y-53780000D02*
X5090000Y-53780000D01*
X3110000Y-57220000D02*
X3110000Y-53780000D01*
X5090000Y-53780000D02*
X5090000Y-57220000D01*
X5090000Y-57220000D02*
X3110000Y-57220000D01*
%TO.C,TP7*%
X44500000Y-31000000D02*
G75*
G02*
X42500000Y-31000000I-1000000J0D01*
G01*
X42500000Y-31000000D02*
G75*
G02*
X44500000Y-31000000I1000000J0D01*
G01*
%TO.C,J18*%
X52870000Y-230000D02*
X66130000Y-230000D01*
X52870000Y-6730000D02*
X52870000Y-230000D01*
X66130000Y-230000D02*
X66130000Y-6730000D01*
X66130000Y-6730000D02*
X52870000Y-6730000D01*
%TO.C,R17*%
X69010000Y-9280000D02*
X70990000Y-9280000D01*
X69010000Y-12720000D02*
X69010000Y-9280000D01*
X70990000Y-9280000D02*
X70990000Y-12720000D01*
X70990000Y-12720000D02*
X69010000Y-12720000D01*
%TO.C,R44*%
X58110000Y-53780000D02*
X60090000Y-53780000D01*
X58110000Y-57220000D02*
X58110000Y-53780000D01*
X60090000Y-53780000D02*
X60090000Y-57220000D01*
X60090000Y-57220000D02*
X58110000Y-57220000D01*
%TO.C,R21*%
X60280000Y-25010000D02*
X63720000Y-25010000D01*
X60280000Y-26990000D02*
X60280000Y-25010000D01*
X63720000Y-25010000D02*
X63720000Y-26990000D01*
X63720000Y-26990000D02*
X60280000Y-26990000D01*
%TO.C,R31*%
X61010000Y-37880000D02*
X62990000Y-37880000D01*
X61010000Y-41320000D02*
X61010000Y-37880000D01*
X62990000Y-37880000D02*
X62990000Y-41320000D01*
X62990000Y-41320000D02*
X61010000Y-41320000D01*
%TO.C,U2*%
X69660000Y-39900000D02*
X78320000Y-39900000D01*
X69660000Y-48100000D02*
X69660000Y-39900000D01*
X78320000Y-39900000D02*
X78320000Y-48100000D01*
X78320000Y-48100000D02*
X69660000Y-48100000D01*
%TO.C,J6*%
X83770000Y-25870000D02*
X90270000Y-25870000D01*
X83770000Y-39130000D02*
X83770000Y-25870000D01*
X90270000Y-25870000D02*
X90270000Y-39130000D01*
X90270000Y-39130000D02*
X83770000Y-39130000D01*
%TO.C,TP1*%
X59500000Y-21500000D02*
G75*
G02*
X57500000Y-21500000I-1000000J0D01*
G01*
X57500000Y-21500000D02*
G75*
G02*
X59500000Y-21500000I1000000J0D01*
G01*
%TO.C,TP5*%
X82500000Y-57500000D02*
G75*
G02*
X80500000Y-57500000I-1000000J0D01*
G01*
X80500000Y-57500000D02*
G75*
G02*
X82500000Y-57500000I1000000J0D01*
G01*
%TO.C,LED2*%
X57420000Y-27150000D02*
X59580000Y-27150000D01*
X57420000Y-31080000D02*
X57420000Y-27150000D01*
X59580000Y-27150000D02*
X59580000Y-31080000D01*
X59580000Y-31080000D02*
X57420000Y-31080000D01*
%TO.C,J12*%
X23030000Y-63600000D02*
X34560000Y-63600000D01*
X23030000Y-74520000D02*
X23030000Y-63600000D01*
X34560000Y-63600000D02*
X34560000Y-74520000D01*
X34560000Y-74520000D02*
X23030000Y-74520000D01*
%TO.C,C8*%
X54570000Y-42600000D02*
X57430000Y-42600000D01*
X54570000Y-48400000D02*
X54570000Y-42600000D01*
X57430000Y-42600000D02*
X57430000Y-48400000D01*
X57430000Y-48400000D02*
X54570000Y-48400000D01*
%TO.C,J15*%
X56030000Y-63600000D02*
X67560000Y-63600000D01*
X56030000Y-74520000D02*
X56030000Y-63600000D01*
X67560000Y-63600000D02*
X67560000Y-74520000D01*
X67560000Y-74520000D02*
X56030000Y-74520000D01*
%TO.C,C5*%
X31070000Y-40020000D02*
X32530000Y-40020000D01*
X32530000Y-42980000D01*
X31070000Y-42980000D01*
X31070000Y-40020000D01*
%TO.C,D2*%
X20550000Y-36740000D02*
X27450000Y-36740000D01*
X20550000Y-40260000D02*
X20550000Y-36740000D01*
X27450000Y-36740000D02*
X27450000Y-40260000D01*
X27450000Y-40260000D02*
X20550000Y-40260000D01*
%TO.C,R49*%
X29910000Y-53780000D02*
X31890000Y-53780000D01*
X29910000Y-57220000D02*
X29910000Y-53780000D01*
X31890000Y-53780000D02*
X31890000Y-57220000D01*
X31890000Y-57220000D02*
X29910000Y-57220000D01*
%TO.C,Q7*%
X46340000Y-58640000D02*
X50020000Y-58640000D01*
X46340000Y-62360000D02*
X46340000Y-58640000D01*
X50020000Y-58640000D02*
X50020000Y-62360000D01*
X50020000Y-62360000D02*
X46340000Y-62360000D01*
%TO.C,R22*%
X64780000Y-25010000D02*
X68220000Y-25010000D01*
X64780000Y-26990000D02*
X64780000Y-25010000D01*
X68220000Y-25010000D02*
X68220000Y-26990000D01*
X68220000Y-26990000D02*
X64780000Y-26990000D01*
%TO.C,R45*%
X69110000Y-53780000D02*
X71090000Y-53780000D01*
X69110000Y-57220000D02*
X69110000Y-53780000D01*
X71090000Y-53780000D02*
X71090000Y-57220000D01*
X71090000Y-57220000D02*
X69110000Y-57220000D01*
%TO.C,R48*%
X18910000Y-53780000D02*
X20890000Y-53780000D01*
X18910000Y-57220000D02*
X18910000Y-53780000D01*
X20890000Y-53780000D02*
X20890000Y-57220000D01*
X20890000Y-57220000D02*
X18910000Y-57220000D01*
%TO.C,TP2*%
X15000000Y-33000000D02*
G75*
G02*
X13000000Y-33000000I-1000000J0D01*
G01*
X13000000Y-33000000D02*
G75*
G02*
X15000000Y-33000000I1000000J0D01*
G01*
%TO.C,U1*%
X18240000Y430000D02*
X37760000Y430000D01*
X18240000Y-26250000D02*
X18240000Y430000D01*
X37760000Y430000D02*
X37760000Y-26250000D01*
X37760000Y-26250000D02*
X18240000Y-26250000D01*
%TO.C,R5*%
X50510000Y-42780000D02*
X52490000Y-42780000D01*
X50510000Y-46220000D02*
X50510000Y-42780000D01*
X52490000Y-42780000D02*
X52490000Y-46220000D01*
X52490000Y-46220000D02*
X50510000Y-46220000D01*
%TO.C,R41*%
X25110000Y-53780000D02*
X27090000Y-53780000D01*
X25110000Y-57220000D02*
X25110000Y-53780000D01*
X27090000Y-53780000D02*
X27090000Y-57220000D01*
X27090000Y-57220000D02*
X25110000Y-57220000D01*
%TO.C,HC*%
X89450000Y-13000000D02*
G75*
G02*
X82550000Y-13000000I-3450000J0D01*
G01*
X82550000Y-13000000D02*
G75*
G02*
X89450000Y-13000000I3450000J0D01*
G01*
%TO.C,D10*%
X71920000Y-58820000D02*
X77880000Y-58820000D01*
X71920000Y-62180000D02*
X71920000Y-58820000D01*
X77880000Y-58820000D02*
X77880000Y-62180000D01*
X77880000Y-62180000D02*
X71920000Y-62180000D01*
%TO.C,R26*%
X68510000Y-46780000D02*
X70490000Y-46780000D01*
X68510000Y-50220000D02*
X68510000Y-46780000D01*
X70490000Y-46780000D02*
X70490000Y-50220000D01*
X70490000Y-50220000D02*
X68510000Y-50220000D01*
%TO.C,R54*%
X84910000Y-53780000D02*
X86890000Y-53780000D01*
X84910000Y-57220000D02*
X84910000Y-53780000D01*
X86890000Y-53780000D02*
X86890000Y-57220000D01*
X86890000Y-57220000D02*
X84910000Y-57220000D01*
%TO.C,R52*%
X62910000Y-53780000D02*
X64890000Y-53780000D01*
X62910000Y-57220000D02*
X62910000Y-53780000D01*
X64890000Y-53780000D02*
X64890000Y-57220000D01*
X64890000Y-57220000D02*
X62910000Y-57220000D01*
%TO.C,Q6*%
X35340000Y-58640000D02*
X39020000Y-58640000D01*
X35340000Y-62360000D02*
X35340000Y-58640000D01*
X39020000Y-58640000D02*
X39020000Y-62360000D01*
X39020000Y-62360000D02*
X35340000Y-62360000D01*
%TO.C,C4*%
X26020000Y-49770000D02*
X28980000Y-49770000D01*
X28980000Y-51230000D01*
X26020000Y-51230000D01*
X26020000Y-49770000D01*
%TO.C,J7*%
X83770000Y-39370000D02*
X90270000Y-39370000D01*
X83770000Y-52630000D02*
X83770000Y-39370000D01*
X90270000Y-39370000D02*
X90270000Y-52630000D01*
X90270000Y-52630000D02*
X83770000Y-52630000D01*
%TO.C,TP8*%
X48200000Y-31000000D02*
G75*
G02*
X46200000Y-31000000I-1000000J0D01*
G01*
X46200000Y-31000000D02*
G75*
G02*
X48200000Y-31000000I1000000J0D01*
G01*
%TO.C,SW2*%
X10490000Y-10620000D02*
X16510000Y-10620000D01*
X10490000Y-14380000D02*
X10490000Y-10620000D01*
X16510000Y-10620000D02*
X16510000Y-14380000D01*
X16510000Y-14380000D02*
X10490000Y-14380000D01*
%TO.C,D5*%
X16920000Y-58820000D02*
X22880000Y-58820000D01*
X16920000Y-62180000D02*
X16920000Y-58820000D01*
X22880000Y-58820000D02*
X22880000Y-62180000D01*
X22880000Y-62180000D02*
X16920000Y-62180000D01*
%TO.C,R24*%
X47510000Y-33280000D02*
X49490000Y-33280000D01*
X47510000Y-36720000D02*
X47510000Y-33280000D01*
X49490000Y-33280000D02*
X49490000Y-36720000D01*
X49490000Y-36720000D02*
X47510000Y-36720000D01*
%TO.C,J5*%
X83770000Y-15370000D02*
X90270000Y-15370000D01*
X83770000Y-28630000D02*
X83770000Y-15370000D01*
X90270000Y-15370000D02*
X90270000Y-28630000D01*
X90270000Y-28630000D02*
X83770000Y-28630000D01*
%TO.C,R12*%
X49010000Y-18780000D02*
X50990000Y-18780000D01*
X49010000Y-22220000D02*
X49010000Y-18780000D01*
X50990000Y-18780000D02*
X50990000Y-22220000D01*
X50990000Y-22220000D02*
X49010000Y-22220000D01*
%TO.C,R8*%
X48280000Y-26010000D02*
X51720000Y-26010000D01*
X48280000Y-27990000D02*
X48280000Y-26010000D01*
X51720000Y-26010000D02*
X51720000Y-27990000D01*
X51720000Y-27990000D02*
X48280000Y-27990000D01*
%TO.C,J8*%
X1230000Y-39370000D02*
X7730000Y-39370000D01*
X1230000Y-52630000D02*
X1230000Y-39370000D01*
X7730000Y-39370000D02*
X7730000Y-52630000D01*
X7730000Y-52630000D02*
X1230000Y-52630000D01*
%TO.C,SW1*%
X5990000Y-6620000D02*
X12010000Y-6620000D01*
X5990000Y-10380000D02*
X5990000Y-6620000D01*
X12010000Y-6620000D02*
X12010000Y-10380000D01*
X12010000Y-10380000D02*
X5990000Y-10380000D01*
%TO.C,TP4*%
X46000000Y-57500000D02*
G75*
G02*
X44000000Y-57500000I-1000000J0D01*
G01*
X44000000Y-57500000D02*
G75*
G02*
X46000000Y-57500000I1000000J0D01*
G01*
%TO.C,R11*%
X77510000Y-34280000D02*
X79490000Y-34280000D01*
X77510000Y-37720000D02*
X77510000Y-34280000D01*
X79490000Y-34280000D02*
X79490000Y-37720000D01*
X79490000Y-37720000D02*
X77510000Y-37720000D01*
%TO.C,LED4*%
X68410000Y-32280000D02*
X70580000Y-32280000D01*
X68410000Y-35820000D02*
X68410000Y-32280000D01*
X70580000Y-32280000D02*
X70580000Y-35820000D01*
X70580000Y-35820000D02*
X68410000Y-35820000D01*
%TO.C,R46*%
X80110000Y-53780000D02*
X82090000Y-53780000D01*
X80110000Y-57220000D02*
X80110000Y-53780000D01*
X82090000Y-53780000D02*
X82090000Y-57220000D01*
X82090000Y-57220000D02*
X80110000Y-57220000D01*
%TO.C,R23*%
X57510000Y-31780000D02*
X59490000Y-31780000D01*
X57510000Y-35220000D02*
X57510000Y-31780000D01*
X59490000Y-31780000D02*
X59490000Y-35220000D01*
X59490000Y-35220000D02*
X57510000Y-35220000D01*
%TO.C,Q5*%
X24340000Y-58640000D02*
X28020000Y-58640000D01*
X24340000Y-62360000D02*
X24340000Y-58640000D01*
X28020000Y-58640000D02*
X28020000Y-62360000D01*
X28020000Y-62360000D02*
X24340000Y-62360000D01*
%TO.C,C13*%
X54020000Y-16770000D02*
X56980000Y-16770000D01*
X56980000Y-18230000D01*
X54020000Y-18230000D01*
X54020000Y-16770000D01*
%TO.C,R42*%
X36110000Y-53780000D02*
X38090000Y-53780000D01*
X36110000Y-57220000D02*
X36110000Y-53780000D01*
X38090000Y-53780000D02*
X38090000Y-57220000D01*
X38090000Y-57220000D02*
X36110000Y-57220000D01*
%TO.C,R51*%
X51910000Y-53780000D02*
X53890000Y-53780000D01*
X51910000Y-57220000D02*
X51910000Y-53780000D01*
X53890000Y-53780000D02*
X53890000Y-57220000D01*
X53890000Y-57220000D02*
X51910000Y-57220000D01*
%TO.C,D7*%
X38920000Y-58820000D02*
X44880000Y-58820000D01*
X38920000Y-62180000D02*
X38920000Y-58820000D01*
X44880000Y-58820000D02*
X44880000Y-62180000D01*
X44880000Y-62180000D02*
X38920000Y-62180000D01*
%TO.C,C3*%
X21520000Y-49770000D02*
X24480000Y-49770000D01*
X24480000Y-51230000D01*
X21520000Y-51230000D01*
X21520000Y-49770000D01*
%TO.C,J17*%
X78030000Y-63600000D02*
X89560000Y-63600000D01*
X78030000Y-74520000D02*
X78030000Y-63600000D01*
X89560000Y-63600000D02*
X89560000Y-74520000D01*
X89560000Y-74520000D02*
X78030000Y-74520000D01*
%TO.C,TP11*%
X41000000Y-50500000D02*
G75*
G02*
X39000000Y-50500000I-1000000J0D01*
G01*
X39000000Y-50500000D02*
G75*
G02*
X41000000Y-50500000I1000000J0D01*
G01*
%TO.C,J1*%
X1240000Y-15820000D02*
X12080000Y-15820000D01*
X1240000Y-31350000D02*
X1240000Y-15820000D01*
X12080000Y-15820000D02*
X12080000Y-31350000D01*
X12080000Y-31350000D02*
X1240000Y-31350000D01*
%TO.C,J10*%
X1030000Y-63600000D02*
X12560000Y-63600000D01*
X1030000Y-74520000D02*
X1030000Y-63600000D01*
X12560000Y-63600000D02*
X12560000Y-74520000D01*
X12560000Y-74520000D02*
X1030000Y-74520000D01*
%TO.C,SW3*%
X43490000Y-49120000D02*
X49510000Y-49120000D01*
X43490000Y-52880000D02*
X43490000Y-49120000D01*
X49510000Y-49120000D02*
X49510000Y-52880000D01*
X49510000Y-52880000D02*
X43490000Y-52880000D01*
%TO.C,R3*%
X20010000Y-26280000D02*
X21990000Y-26280000D01*
X20010000Y-29720000D02*
X20010000Y-26280000D01*
X21990000Y-26280000D02*
X21990000Y-29720000D01*
X21990000Y-29720000D02*
X20010000Y-29720000D01*
%TO.C,TP10*%
X24500000Y-59500000D02*
G75*
G02*
X22500000Y-59500000I-1000000J0D01*
G01*
X22500000Y-59500000D02*
G75*
G02*
X24500000Y-59500000I1000000J0D01*
G01*
%TO.C,R16*%
X37280000Y-30010000D02*
X40720000Y-30010000D01*
X37280000Y-31990000D02*
X37280000Y-30010000D01*
X40720000Y-30010000D02*
X40720000Y-31990000D01*
X40720000Y-31990000D02*
X37280000Y-31990000D01*
%TO.C,Q11*%
X67770000Y-21620000D02*
X71230000Y-21620000D01*
X67770000Y-25680000D02*
X67770000Y-21620000D01*
X71230000Y-21620000D02*
X71230000Y-25680000D01*
X71230000Y-25680000D02*
X67770000Y-25680000D01*
%TO.C,C14*%
X5020000Y-12270000D02*
X7980000Y-12270000D01*
X7980000Y-13730000D01*
X5020000Y-13730000D01*
X5020000Y-12270000D01*
%TO.C,LED3*%
X47410000Y-28280000D02*
X49580000Y-28280000D01*
X47410000Y-31820000D02*
X47410000Y-28280000D01*
X49580000Y-28280000D02*
X49580000Y-31820000D01*
X49580000Y-31820000D02*
X47410000Y-31820000D01*
%TO.C,R1*%
X77510000Y-8280000D02*
X79490000Y-8280000D01*
X77510000Y-11720000D02*
X77510000Y-8280000D01*
X79490000Y-8280000D02*
X79490000Y-11720000D01*
X79490000Y-11720000D02*
X77510000Y-11720000D01*
%TO.C,R7*%
X12280000Y-18010000D02*
X15720000Y-18010000D01*
X12280000Y-19990000D02*
X12280000Y-18010000D01*
X15720000Y-18010000D02*
X15720000Y-19990000D01*
X15720000Y-19990000D02*
X12280000Y-19990000D01*
%TO.C,D11*%
X82920000Y-58820000D02*
X88880000Y-58820000D01*
X82920000Y-62180000D02*
X82920000Y-58820000D01*
X88880000Y-58820000D02*
X88880000Y-62180000D01*
X88880000Y-62180000D02*
X82920000Y-62180000D01*
%TO.C,TP9*%
X13000000Y-63500000D02*
G75*
G02*
X11000000Y-63500000I-1000000J0D01*
G01*
X11000000Y-63500000D02*
G75*
G02*
X13000000Y-63500000I1000000J0D01*
G01*
%TO.C,L1*%
X33300000Y-37590000D02*
X45700000Y-37590000D01*
X33300000Y-48410000D02*
X33300000Y-37590000D01*
X45700000Y-37590000D02*
X45700000Y-48410000D01*
X45700000Y-48410000D02*
X33300000Y-48410000D01*
%TO.C,Q9*%
X68340000Y-58640000D02*
X72020000Y-58640000D01*
X68340000Y-62360000D02*
X68340000Y-58640000D01*
X72020000Y-58640000D02*
X72020000Y-62360000D01*
X72020000Y-62360000D02*
X68340000Y-62360000D01*
%TO.C,R40*%
X14110000Y-53780000D02*
X16090000Y-53780000D01*
X14110000Y-57220000D02*
X14110000Y-53780000D01*
X16090000Y-53780000D02*
X16090000Y-57220000D01*
X16090000Y-57220000D02*
X14110000Y-57220000D01*
%TO.C,R28*%
X55510000Y-55780000D02*
X57490000Y-55780000D01*
X55510000Y-59220000D02*
X55510000Y-55780000D01*
X57490000Y-55780000D02*
X57490000Y-59220000D01*
X57490000Y-59220000D02*
X55510000Y-59220000D01*
%TO.C,R37*%
X65010000Y-42680000D02*
X66990000Y-42680000D01*
X65010000Y-46120000D02*
X65010000Y-42680000D01*
X66990000Y-42680000D02*
X66990000Y-46120000D01*
X66990000Y-46120000D02*
X65010000Y-46120000D01*
%TO.C,D9*%
X60920000Y-58820000D02*
X66880000Y-58820000D01*
X60920000Y-62180000D02*
X60920000Y-58820000D01*
X66880000Y-58820000D02*
X66880000Y-62180000D01*
X66880000Y-62180000D02*
X60920000Y-62180000D01*
%TO.C,R25*%
X68510000Y-37280000D02*
X70490000Y-37280000D01*
X68510000Y-40720000D02*
X68510000Y-37280000D01*
X70490000Y-37280000D02*
X70490000Y-40720000D01*
X70490000Y-40720000D02*
X68510000Y-40720000D01*
%TO.C,R33*%
X61010000Y-47480000D02*
X62990000Y-47480000D01*
X61010000Y-50920000D02*
X61010000Y-47480000D01*
X62990000Y-47480000D02*
X62990000Y-50920000D01*
X62990000Y-50920000D02*
X61010000Y-50920000D01*
%TD*%
M02*
