ISO-10303-21;
HEADER;
FILE_DESCRIPTION(('FreeCAD Model'),'2;1');
FILE_NAME('Open CASCADE Shape Model','2026-10-05T07:07:26',('FreeCAD'),(
    'FreeCAD'),'Open CASCADE STEP processor 7.8','FreeCAD','Unknown');
FILE_SCHEMA(('AUTOMOTIVE_DESIGN { 1 0 10303 214 1 1 1 1 }'));
ENDSEC;
DATA;
#1 = APPLICATION_PROTOCOL_DEFINITION('international standard',
  'automotive_design',2000,#2);
#2 = APPLICATION_CONTEXT(
  'core data for automotive mechanical design processes');
#3 = SHAPE_DEFINITION_REPRESENTATION(#4,#10);
#4 = PRODUCT_DEFINITION_SHAPE('','',#5);
#5 = PRODUCT_DEFINITION('design','',#6,#9);
#6 = PRODUCT_DEFINITION_FORMATION('','',#7);
#7 = PRODUCT('Open CASCADE STEP translator 7.8 3',
  'Open CASCADE STEP translator 7.8 3','',(#8));
#8 = PRODUCT_CONTEXT('',#2,'mechanical');
#9 = PRODUCT_DEFINITION_CONTEXT('part definition',#2,'design');
#10 = SHAPE_REPRESENTATION('',(#11,#15,#225,#424,#634),#833);
#11 = AXIS2_PLACEMENT_3D('',#12,#13,#14);
#12 = CARTESIAN_POINT('',(0.,0.,0.));
#13 = DIRECTION('',(0.,0.,1.));
#14 = DIRECTION('',(1.,0.,-0.));
#15 = MANIFOLD_SOLID_BREP('',#16);
#16 = CLOSED_SHELL('',(#17,#54,#79,#108,#190,#216));
#17 = ADVANCED_FACE('',(#18,#38),#49,.T.);
#18 = FACE_BOUND('',#19,.T.);
#19 = EDGE_LOOP('',(#20,#31));
#20 = ORIENTED_EDGE('',*,*,#21,.T.);
#21 = EDGE_CURVE('',#22,#24,#26,.T.);
#22 = VERTEX_POINT('',#23);
#23 = CARTESIAN_POINT('',(150.25,42.9,31.4));
#24 = VERTEX_POINT('',#25);
#25 = CARTESIAN_POINT('',(150.25,42.9,5.4));
#26 = CIRCLE('',#27,13.);
#27 = AXIS2_PLACEMENT_3D('',#28,#29,#30);
#28 = CARTESIAN_POINT('',(150.25,42.9,18.4));
#29 = DIRECTION('',(1.,0.,0.));
#30 = DIRECTION('',(-0.,0.,1.));
#31 = ORIENTED_EDGE('',*,*,#32,.T.);
#32 = EDGE_CURVE('',#24,#22,#33,.T.);
#33 = CIRCLE('',#34,13.);
#34 = AXIS2_PLACEMENT_3D('',#35,#36,#37);
#35 = CARTESIAN_POINT('',(150.25,42.9,18.4));
#36 = DIRECTION('',(1.,0.,0.));
#37 = DIRECTION('',(-0.,0.,1.));
#38 = FACE_BOUND('',#39,.T.);
#39 = EDGE_LOOP('',(#40));
#40 = ORIENTED_EDGE('',*,*,#41,.F.);
#41 = EDGE_CURVE('',#42,#42,#44,.T.);
#42 = VERTEX_POINT('',#43);
#43 = CARTESIAN_POINT('',(150.25,42.9,30.5));
#44 = CIRCLE('',#45,12.1);
#45 = AXIS2_PLACEMENT_3D('',#46,#47,#48);
#46 = CARTESIAN_POINT('',(150.25,42.9,18.4));
#47 = DIRECTION('',(1.,0.,0.));
#48 = DIRECTION('',(-0.,0.,1.));
#49 = PLANE('',#50);
#50 = AXIS2_PLACEMENT_3D('',#51,#52,#53);
#51 = CARTESIAN_POINT('',(150.25,42.9,18.4));
#52 = DIRECTION('',(1.,0.,0.));
#53 = DIRECTION('',(-0.,0.,1.));
#54 = ADVANCED_FACE('',(#55),#74,.F.);
#55 = FACE_BOUND('',#56,.F.);
#56 = EDGE_LOOP('',(#57,#58,#66,#73));
#57 = ORIENTED_EDGE('',*,*,#41,.F.);
#58 = ORIENTED_EDGE('',*,*,#59,.F.);
#59 = EDGE_CURVE('',#60,#42,#62,.T.);
#60 = VERTEX_POINT('',#61);
#61 = CARTESIAN_POINT('',(142.25,42.9,30.5));
#62 = LINE('',#63,#64);
#63 = CARTESIAN_POINT('',(141.75,42.9,30.5));
#64 = VECTOR('',#65,1.);
#65 = DIRECTION('',(1.,0.,0.));
#66 = ORIENTED_EDGE('',*,*,#67,.T.);
#67 = EDGE_CURVE('',#60,#60,#68,.T.);
#68 = CIRCLE('',#69,12.1);
#69 = AXIS2_PLACEMENT_3D('',#70,#71,#72);
#70 = CARTESIAN_POINT('',(142.25,42.9,18.4));
#71 = DIRECTION('',(1.,0.,0.));
#72 = DIRECTION('',(-0.,0.,1.));
#73 = ORIENTED_EDGE('',*,*,#59,.T.);
#74 = CYLINDRICAL_SURFACE('',#75,12.1);
#75 = AXIS2_PLACEMENT_3D('',#76,#77,#78);
#76 = CARTESIAN_POINT('',(141.75,42.9,18.4));
#77 = DIRECTION('',(1.,0.,0.));
#78 = DIRECTION('',(-0.,0.,1.));
#79 = ADVANCED_FACE('',(#80,#100),#103,.F.);
#80 = FACE_BOUND('',#81,.F.);
#81 = EDGE_LOOP('',(#82,#93));
#82 = ORIENTED_EDGE('',*,*,#83,.T.);
#83 = EDGE_CURVE('',#84,#86,#88,.T.);
#84 = VERTEX_POINT('',#85);
#85 = CARTESIAN_POINT('',(142.25,42.9,31.4));
#86 = VERTEX_POINT('',#87);
#87 = CARTESIAN_POINT('',(142.25,42.9,5.4));
#88 = CIRCLE('',#89,13.);
#89 = AXIS2_PLACEMENT_3D('',#90,#91,#92);
#90 = CARTESIAN_POINT('',(142.25,42.9,18.4));
#91 = DIRECTION('',(1.,0.,0.));
#92 = DIRECTION('',(-0.,0.,1.));
#93 = ORIENTED_EDGE('',*,*,#94,.T.);
#94 = EDGE_CURVE('',#86,#84,#95,.T.);
#95 = CIRCLE('',#96,13.);
#96 = AXIS2_PLACEMENT_3D('',#97,#98,#99);
#97 = CARTESIAN_POINT('',(142.25,42.9,18.4));
#98 = DIRECTION('',(1.,0.,0.));
#99 = DIRECTION('',(-0.,0.,1.));
#100 = FACE_BOUND('',#101,.F.);
#101 = EDGE_LOOP('',(#102));
#102 = ORIENTED_EDGE('',*,*,#67,.F.);
#103 = PLANE('',#104);
#104 = AXIS2_PLACEMENT_3D('',#105,#106,#107);
#105 = CARTESIAN_POINT('',(142.25,42.9,18.4));
#106 = DIRECTION('',(1.,0.,0.));
#107 = DIRECTION('',(-0.,0.,1.));
#108 = ADVANCED_FACE('',(#109,#121),#185,.T.);
#109 = FACE_BOUND('',#110,.T.);
#110 = EDGE_LOOP('',(#111,#112,#113,#118,#119,#120));
#111 = ORIENTED_EDGE('',*,*,#83,.T.);
#112 = ORIENTED_EDGE('',*,*,#94,.T.);
#113 = ORIENTED_EDGE('',*,*,#114,.T.);
#114 = EDGE_CURVE('',#84,#22,#115,.T.);
#115 = B_SPLINE_CURVE_WITH_KNOTS('',1,(#116,#117),.UNSPECIFIED.,.F.,.F.,
  (2,2),(0.,8.),.PIECEWISE_BEZIER_KNOTS.);
#116 = CARTESIAN_POINT('',(142.25,42.9,31.4));
#117 = CARTESIAN_POINT('',(150.25,42.9,31.4));
#118 = ORIENTED_EDGE('',*,*,#32,.F.);
#119 = ORIENTED_EDGE('',*,*,#21,.F.);
#120 = ORIENTED_EDGE('',*,*,#114,.F.);
#121 = FACE_BOUND('',#122,.T.);
#122 = EDGE_LOOP('',(#123,#156));
#123 = ORIENTED_EDGE('',*,*,#124,.T.);
#124 = EDGE_CURVE('',#125,#127,#129,.T.);
#125 = VERTEX_POINT('',#126);
#126 = CARTESIAN_POINT('',(144.55,42.9,5.4));
#127 = VERTEX_POINT('',#128);
#128 = CARTESIAN_POINT('',(147.95,42.9,5.4));
#129 = B_SPLINE_CURVE_WITH_KNOTS('',7,(#130,#131,#132,#133,#134,#135,
    #136,#137,#138,#139,#140,#141,#142,#143,#144,#145,#146,#147,#148,
    #149,#150,#151,#152,#153,#154,#155),.UNSPECIFIED.,.F.,.F.,(8,6,6,6,8
    ),(0.,0.247107917605,0.500040943916,0.752969149684,1.),
  .UNSPECIFIED.);
#130 = CARTESIAN_POINT('',(144.55,42.9,5.4));
#131 = CARTESIAN_POINT('',(144.55,42.675896370551,5.4));
#132 = CARTESIAN_POINT('',(144.58446610057,42.457210977456,
    5.404507245317));
#133 = CARTESIAN_POINT('',(144.65040035514,42.250200683581,
    5.413128658734));
#134 = CARTESIAN_POINT('',(144.74353374006,42.060171597147,
    5.424743946006));
#135 = CARTESIAN_POINT('',(144.85838750048,41.891246947455,
    5.437768631489));
#136 = CARTESIAN_POINT('',(144.98834678735,41.745965890119,5.45075190044
    ));
#137 = CARTESIAN_POINT('',(145.26643236268,41.50080047664,5.474917069559
    ));
#138 = CARTESIAN_POINT('',(145.41835966614,41.399030038192,5.48634858112
    ));
#139 = CARTESIAN_POINT('',(145.57800179785,41.318768346704,
    5.496161639701));
#140 = CARTESIAN_POINT('',(145.74279477216,41.259223035981,
    5.503821442684));
#141 = CARTESIAN_POINT('',(145.91077455166,41.219755202589,
    5.509027422283));
#142 = CARTESIAN_POINT('',(146.08033391442,41.2,5.511633152335));
#143 = CARTESIAN_POINT('',(146.41966285198,41.2,5.511633152335));
#144 = CARTESIAN_POINT('',(146.5892188842,41.219754436776,5.509027523068
    ));
#145 = CARTESIAN_POINT('',(146.75720073409,41.259220762408,
    5.503821745673));
#146 = CARTESIAN_POINT('',(146.92200095306,41.318767393571,
    5.496161739667));
#147 = CARTESIAN_POINT('',(147.08164989592,41.3990342296,5.486347981275)
  );
#148 = CARTESIAN_POINT('',(147.23357693071,41.500808669875,
    5.474916261978));
#149 = CARTESIAN_POINT('',(147.51160389516,41.745922410906,
    5.450756186047));
#150 = CARTESIAN_POINT('',(147.64159153406,41.891206395054,
    5.437771671346));
#151 = CARTESIAN_POINT('',(147.7564878707,42.060176111164,5.424742120813
    ));
#152 = CARTESIAN_POINT('',(147.84964146379,42.250267381231,
    5.413123174805));
#153 = CARTESIAN_POINT('',(147.91556319177,42.457320588923,5.40450341747
    ));
#154 = CARTESIAN_POINT('',(147.95,42.675991607917,5.4));
#155 = CARTESIAN_POINT('',(147.95,42.9,5.4));
#156 = ORIENTED_EDGE('',*,*,#157,.T.);
#157 = EDGE_CURVE('',#127,#125,#158,.T.);
#158 = B_SPLINE_CURVE_WITH_KNOTS('',7,(#159,#160,#161,#162,#163,#164,
    #165,#166,#167,#168,#169,#170,#171,#172,#173,#174,#175,#176,#177,
    #178,#179,#180,#181,#182,#183,#184),.UNSPECIFIED.,.F.,.F.,(8,6,6,6,8
    ),(0.,0.247105148276,0.500014010199,0.752932285565,1.),
  .UNSPECIFIED.);
#159 = CARTESIAN_POINT('',(147.95,42.9,5.4));
#160 = CARTESIAN_POINT('',(147.95,43.124103629449,5.4));
#161 = CARTESIAN_POINT('',(147.91553389942,43.342789022544,
    5.404507245317));
#162 = CARTESIAN_POINT('',(147.84959964485,43.54979931642,5.413128658734
    ));
#163 = CARTESIAN_POINT('',(147.75646625993,43.739828402853,
    5.424743946006));
#164 = CARTESIAN_POINT('',(147.64161249951,43.908753052545,
    5.437768631489));
#165 = CARTESIAN_POINT('',(147.51165321264,44.054034109881,5.45075190044
    ));
#166 = CARTESIAN_POINT('',(147.23357949948,44.299189065451,
    5.474916038757));
#167 = CARTESIAN_POINT('',(147.08165414743,44.400963221601,5.48634767971
    ));
#168 = CARTESIAN_POINT('',(146.92200415862,44.48123194231,5.496161616046
    ));
#169 = CARTESIAN_POINT('',(146.75720012654,44.540780500265,5.50382191804
    ));
#170 = CARTESIAN_POINT('',(146.58921391683,44.58024700538,5.509027711125
    ));
#171 = CARTESIAN_POINT('',(146.41965653724,44.6,5.511633152335));
#172 = CARTESIAN_POINT('',(146.08033714801,44.6,5.511633152335));
#173 = CARTESIAN_POINT('',(145.91078111579,44.580245563224,
    5.509027523068));
#174 = CARTESIAN_POINT('',(145.7427992659,44.540779237592,5.503821745673
    ));
#175 = CARTESIAN_POINT('',(145.57799904694,44.481232606429,
    5.496161739667));
#176 = CARTESIAN_POINT('',(145.41835010407,44.400965770399,
    5.486347981275));
#177 = CARTESIAN_POINT('',(145.26642306928,44.299191330125,
    5.474916261978));
#178 = CARTESIAN_POINT('',(144.98837021017,44.054054759875,
    5.450753935844));
#179 = CARTESIAN_POINT('',(144.85840091464,43.908775370789,
    5.437770373902));
#180 = CARTESIAN_POINT('',(144.74352686209,43.739831996631,
    5.424743536516));
#181 = CARTESIAN_POINT('',(144.65038103851,43.54977221282,5.41312613947)
  );
#182 = CARTESIAN_POINT('',(144.58445093201,43.342736465443,
    5.404505258895));
#183 = CARTESIAN_POINT('',(144.55,43.124054319199,5.4));
#184 = CARTESIAN_POINT('',(144.55,42.9,5.4));
#185 = CYLINDRICAL_SURFACE('',#186,13.);
#186 = AXIS2_PLACEMENT_3D('',#187,#188,#189);
#187 = CARTESIAN_POINT('',(142.25,42.9,18.4));
#188 = DIRECTION('',(1.,0.,0.));
#189 = DIRECTION('',(-0.,0.,1.));
#190 = ADVANCED_FACE('',(#191),#211,.F.);
#191 = FACE_BOUND('',#192,.F.);
#192 = EDGE_LOOP('',(#193,#201,#208,#209,#210));
#193 = ORIENTED_EDGE('',*,*,#194,.T.);
#194 = EDGE_CURVE('',#127,#195,#197,.T.);
#195 = VERTEX_POINT('',#196);
#196 = CARTESIAN_POINT('',(147.95,42.9,5.9));
#197 = LINE('',#198,#199);
#198 = CARTESIAN_POINT('',(147.95,42.9,1.9));
#199 = VECTOR('',#200,1.);
#200 = DIRECTION('',(0.,0.,1.));
#201 = ORIENTED_EDGE('',*,*,#202,.F.);
#202 = EDGE_CURVE('',#195,#195,#203,.T.);
#203 = CIRCLE('',#204,1.7);
#204 = AXIS2_PLACEMENT_3D('',#205,#206,#207);
#205 = CARTESIAN_POINT('',(146.25,42.9,5.9));
#206 = DIRECTION('',(0.,0.,1.));
#207 = DIRECTION('',(1.,0.,-0.));
#208 = ORIENTED_EDGE('',*,*,#194,.F.);
#209 = ORIENTED_EDGE('',*,*,#157,.T.);
#210 = ORIENTED_EDGE('',*,*,#124,.T.);
#211 = CYLINDRICAL_SURFACE('',#212,1.7);
#212 = AXIS2_PLACEMENT_3D('',#213,#214,#215);
#213 = CARTESIAN_POINT('',(146.25,42.9,1.9));
#214 = DIRECTION('',(0.,0.,1.));
#215 = DIRECTION('',(1.,0.,-0.));
#216 = ADVANCED_FACE('',(#217),#220,.F.);
#217 = FACE_BOUND('',#218,.F.);
#218 = EDGE_LOOP('',(#219));
#219 = ORIENTED_EDGE('',*,*,#202,.T.);
#220 = PLANE('',#221);
#221 = AXIS2_PLACEMENT_3D('',#222,#223,#224);
#222 = CARTESIAN_POINT('',(146.25,42.9,5.9));
#223 = DIRECTION('',(0.,0.,1.));
#224 = DIRECTION('',(1.,0.,-0.));
#225 = MANIFOLD_SOLID_BREP('',#226);
#226 = CLOSED_SHELL('',(#227,#287,#318,#342,#366,#383,#409));
#227 = ADVANCED_FACE('',(#228,#262),#282,.T.);
#228 = FACE_BOUND('',#229,.T.);
#229 = EDGE_LOOP('',(#230,#240,#248,#256));
#230 = ORIENTED_EDGE('',*,*,#231,.F.);
#231 = EDGE_CURVE('',#232,#234,#236,.T.);
#232 = VERTEX_POINT('',#233);
#233 = CARTESIAN_POINT('',(140.25,36.9,5.4));
#234 = VERTEX_POINT('',#235);
#235 = CARTESIAN_POINT('',(140.25,48.9,5.4));
#236 = LINE('',#237,#238);
#237 = CARTESIAN_POINT('',(140.25,36.9,5.4));
#238 = VECTOR('',#239,1.);
#239 = DIRECTION('',(-0.,1.,0.));
#240 = ORIENTED_EDGE('',*,*,#241,.T.);
#241 = EDGE_CURVE('',#232,#242,#244,.T.);
#242 = VERTEX_POINT('',#243);
#243 = CARTESIAN_POINT('',(152.25,36.9,5.4));
#244 = LINE('',#245,#246);
#245 = CARTESIAN_POINT('',(140.25,36.9,5.4));
#246 = VECTOR('',#247,1.);
#247 = DIRECTION('',(1.,0.,-0.));
#248 = ORIENTED_EDGE('',*,*,#249,.T.);
#249 = EDGE_CURVE('',#242,#250,#252,.T.);
#250 = VERTEX_POINT('',#251);
#251 = CARTESIAN_POINT('',(152.25,48.9,5.4));
#252 = LINE('',#253,#254);
#253 = CARTESIAN_POINT('',(152.25,36.9,5.4));
#254 = VECTOR('',#255,1.);
#255 = DIRECTION('',(-0.,1.,0.));
#256 = ORIENTED_EDGE('',*,*,#257,.F.);
#257 = EDGE_CURVE('',#234,#250,#258,.T.);
#258 = LINE('',#259,#260);
#259 = CARTESIAN_POINT('',(140.25,48.9,5.4));
#260 = VECTOR('',#261,1.);
#261 = DIRECTION('',(1.,0.,-0.));
#262 = FACE_BOUND('',#263,.T.);
#263 = EDGE_LOOP('',(#264,#275));
#264 = ORIENTED_EDGE('',*,*,#265,.F.);
#265 = EDGE_CURVE('',#266,#268,#270,.T.);
#266 = VERTEX_POINT('',#267);
#267 = CARTESIAN_POINT('',(144.55,42.9,5.4));
#268 = VERTEX_POINT('',#269);
#269 = CARTESIAN_POINT('',(147.95,42.9,5.4));
#270 = CIRCLE('',#271,1.7);
#271 = AXIS2_PLACEMENT_3D('',#272,#273,#274);
#272 = CARTESIAN_POINT('',(146.25,42.9,5.4));
#273 = DIRECTION('',(0.,0.,1.));
#274 = DIRECTION('',(1.,0.,-0.));
#275 = ORIENTED_EDGE('',*,*,#276,.F.);
#276 = EDGE_CURVE('',#268,#266,#277,.T.);
#277 = CIRCLE('',#278,1.7);
#278 = AXIS2_PLACEMENT_3D('',#279,#280,#281);
#279 = CARTESIAN_POINT('',(146.25,42.9,5.4));
#280 = DIRECTION('',(0.,0.,1.));
#281 = DIRECTION('',(1.,0.,-0.));
#282 = PLANE('',#283);
#283 = AXIS2_PLACEMENT_3D('',#284,#285,#286);
#284 = CARTESIAN_POINT('',(140.25,36.9,5.4));
#285 = DIRECTION('',(0.,0.,1.));
#286 = DIRECTION('',(1.,0.,-0.));
#287 = ADVANCED_FACE('',(#288),#313,.F.);
#288 = FACE_BOUND('',#289,.F.);
#289 = EDGE_LOOP('',(#290,#298,#306,#312));
#290 = ORIENTED_EDGE('',*,*,#291,.F.);
#291 = EDGE_CURVE('',#292,#232,#294,.T.);
#292 = VERTEX_POINT('',#293);
#293 = CARTESIAN_POINT('',(140.25,36.9,2.4));
#294 = LINE('',#295,#296);
#295 = CARTESIAN_POINT('',(140.25,36.9,2.4));
#296 = VECTOR('',#297,1.);
#297 = DIRECTION('',(0.,0.,1.));
#298 = ORIENTED_EDGE('',*,*,#299,.T.);
#299 = EDGE_CURVE('',#292,#300,#302,.T.);
#300 = VERTEX_POINT('',#301);
#301 = CARTESIAN_POINT('',(140.25,48.9,2.4));
#302 = LINE('',#303,#304);
#303 = CARTESIAN_POINT('',(140.25,36.9,2.4));
#304 = VECTOR('',#305,1.);
#305 = DIRECTION('',(-0.,1.,0.));
#306 = ORIENTED_EDGE('',*,*,#307,.T.);
#307 = EDGE_CURVE('',#300,#234,#308,.T.);
#308 = LINE('',#309,#310);
#309 = CARTESIAN_POINT('',(140.25,48.9,2.4));
#310 = VECTOR('',#311,1.);
#311 = DIRECTION('',(0.,0.,1.));
#312 = ORIENTED_EDGE('',*,*,#231,.F.);
#313 = PLANE('',#314);
#314 = AXIS2_PLACEMENT_3D('',#315,#316,#317);
#315 = CARTESIAN_POINT('',(140.25,36.9,2.4));
#316 = DIRECTION('',(1.,0.,-0.));
#317 = DIRECTION('',(0.,0.,1.));
#318 = ADVANCED_FACE('',(#319),#337,.T.);
#319 = FACE_BOUND('',#320,.T.);
#320 = EDGE_LOOP('',(#321,#329,#330,#331));
#321 = ORIENTED_EDGE('',*,*,#322,.F.);
#322 = EDGE_CURVE('',#300,#323,#325,.T.);
#323 = VERTEX_POINT('',#324);
#324 = CARTESIAN_POINT('',(152.25,48.9,2.4));
#325 = LINE('',#326,#327);
#326 = CARTESIAN_POINT('',(140.25,48.9,2.4));
#327 = VECTOR('',#328,1.);
#328 = DIRECTION('',(1.,0.,-0.));
#329 = ORIENTED_EDGE('',*,*,#307,.T.);
#330 = ORIENTED_EDGE('',*,*,#257,.T.);
#331 = ORIENTED_EDGE('',*,*,#332,.F.);
#332 = EDGE_CURVE('',#323,#250,#333,.T.);
#333 = LINE('',#334,#335);
#334 = CARTESIAN_POINT('',(152.25,48.9,2.4));
#335 = VECTOR('',#336,1.);
#336 = DIRECTION('',(0.,0.,1.));
#337 = PLANE('',#338);
#338 = AXIS2_PLACEMENT_3D('',#339,#340,#341);
#339 = CARTESIAN_POINT('',(140.25,48.9,2.4));
#340 = DIRECTION('',(-0.,1.,0.));
#341 = DIRECTION('',(0.,0.,1.));
#342 = ADVANCED_FACE('',(#343),#361,.F.);
#343 = FACE_BOUND('',#344,.F.);
#344 = EDGE_LOOP('',(#345,#353,#354,#355));
#345 = ORIENTED_EDGE('',*,*,#346,.F.);
#346 = EDGE_CURVE('',#292,#347,#349,.T.);
#347 = VERTEX_POINT('',#348);
#348 = CARTESIAN_POINT('',(152.25,36.9,2.4));
#349 = LINE('',#350,#351);
#350 = CARTESIAN_POINT('',(140.25,36.9,2.4));
#351 = VECTOR('',#352,1.);
#352 = DIRECTION('',(1.,0.,-0.));
#353 = ORIENTED_EDGE('',*,*,#291,.T.);
#354 = ORIENTED_EDGE('',*,*,#241,.T.);
#355 = ORIENTED_EDGE('',*,*,#356,.F.);
#356 = EDGE_CURVE('',#347,#242,#357,.T.);
#357 = LINE('',#358,#359);
#358 = CARTESIAN_POINT('',(152.25,36.9,2.4));
#359 = VECTOR('',#360,1.);
#360 = DIRECTION('',(0.,0.,1.));
#361 = PLANE('',#362);
#362 = AXIS2_PLACEMENT_3D('',#363,#364,#365);
#363 = CARTESIAN_POINT('',(140.25,36.9,2.4));
#364 = DIRECTION('',(-0.,1.,0.));
#365 = DIRECTION('',(0.,0.,1.));
#366 = ADVANCED_FACE('',(#367),#378,.T.);
#367 = FACE_BOUND('',#368,.T.);
#368 = EDGE_LOOP('',(#369,#370,#376,#377));
#369 = ORIENTED_EDGE('',*,*,#356,.F.);
#370 = ORIENTED_EDGE('',*,*,#371,.T.);
#371 = EDGE_CURVE('',#347,#323,#372,.T.);
#372 = LINE('',#373,#374);
#373 = CARTESIAN_POINT('',(152.25,36.9,2.4));
#374 = VECTOR('',#375,1.);
#375 = DIRECTION('',(-0.,1.,0.));
#376 = ORIENTED_EDGE('',*,*,#332,.T.);
#377 = ORIENTED_EDGE('',*,*,#249,.F.);
#378 = PLANE('',#379);
#379 = AXIS2_PLACEMENT_3D('',#380,#381,#382);
#380 = CARTESIAN_POINT('',(152.25,36.9,2.4));
#381 = DIRECTION('',(1.,0.,-0.));
#382 = DIRECTION('',(0.,0.,1.));
#383 = ADVANCED_FACE('',(#384),#404,.F.);
#384 = FACE_BOUND('',#385,.F.);
#385 = EDGE_LOOP('',(#386,#387,#395,#402,#403));
#386 = ORIENTED_EDGE('',*,*,#276,.F.);
#387 = ORIENTED_EDGE('',*,*,#388,.F.);
#388 = EDGE_CURVE('',#389,#268,#391,.T.);
#389 = VERTEX_POINT('',#390);
#390 = CARTESIAN_POINT('',(147.95,42.9,2.4));
#391 = LINE('',#392,#393);
#392 = CARTESIAN_POINT('',(147.95,42.9,1.9));
#393 = VECTOR('',#394,1.);
#394 = DIRECTION('',(0.,0.,1.));
#395 = ORIENTED_EDGE('',*,*,#396,.T.);
#396 = EDGE_CURVE('',#389,#389,#397,.T.);
#397 = CIRCLE('',#398,1.7);
#398 = AXIS2_PLACEMENT_3D('',#399,#400,#401);
#399 = CARTESIAN_POINT('',(146.25,42.9,2.4));
#400 = DIRECTION('',(0.,0.,1.));
#401 = DIRECTION('',(1.,0.,-0.));
#402 = ORIENTED_EDGE('',*,*,#388,.T.);
#403 = ORIENTED_EDGE('',*,*,#265,.F.);
#404 = CYLINDRICAL_SURFACE('',#405,1.7);
#405 = AXIS2_PLACEMENT_3D('',#406,#407,#408);
#406 = CARTESIAN_POINT('',(146.25,42.9,1.9));
#407 = DIRECTION('',(0.,0.,1.));
#408 = DIRECTION('',(1.,0.,-0.));
#409 = ADVANCED_FACE('',(#410,#416),#419,.F.);
#410 = FACE_BOUND('',#411,.F.);
#411 = EDGE_LOOP('',(#412,#413,#414,#415));
#412 = ORIENTED_EDGE('',*,*,#299,.F.);
#413 = ORIENTED_EDGE('',*,*,#346,.T.);
#414 = ORIENTED_EDGE('',*,*,#371,.T.);
#415 = ORIENTED_EDGE('',*,*,#322,.F.);
#416 = FACE_BOUND('',#417,.F.);
#417 = EDGE_LOOP('',(#418));
#418 = ORIENTED_EDGE('',*,*,#396,.F.);
#419 = PLANE('',#420);
#420 = AXIS2_PLACEMENT_3D('',#421,#422,#423);
#421 = CARTESIAN_POINT('',(140.25,36.9,2.4));
#422 = DIRECTION('',(0.,0.,1.));
#423 = DIRECTION('',(1.,0.,-0.));
#424 = MANIFOLD_SOLID_BREP('',#425);
#425 = CLOSED_SHELL('',(#426,#463,#488,#517,#599,#625));
#426 = ADVANCED_FACE('',(#427,#447),#458,.T.);
#427 = FACE_BOUND('',#428,.T.);
#428 = EDGE_LOOP('',(#429,#440));
#429 = ORIENTED_EDGE('',*,*,#430,.T.);
#430 = EDGE_CURVE('',#431,#433,#435,.T.);
#431 = VERTEX_POINT('',#432);
#432 = CARTESIAN_POINT('',(196.25,42.9,31.4));
#433 = VERTEX_POINT('',#434);
#434 = CARTESIAN_POINT('',(196.25,42.9,5.4));
#435 = CIRCLE('',#436,13.);
#436 = AXIS2_PLACEMENT_3D('',#437,#438,#439);
#437 = CARTESIAN_POINT('',(196.25,42.9,18.4));
#438 = DIRECTION('',(1.,0.,0.));
#439 = DIRECTION('',(-0.,0.,1.));
#440 = ORIENTED_EDGE('',*,*,#441,.T.);
#441 = EDGE_CURVE('',#433,#431,#442,.T.);
#442 = CIRCLE('',#443,13.);
#443 = AXIS2_PLACEMENT_3D('',#444,#445,#446);
#444 = CARTESIAN_POINT('',(196.25,42.9,18.4));
#445 = DIRECTION('',(1.,0.,0.));
#446 = DIRECTION('',(-0.,0.,1.));
#447 = FACE_BOUND('',#448,.T.);
#448 = EDGE_LOOP('',(#449));
#449 = ORIENTED_EDGE('',*,*,#450,.F.);
#450 = EDGE_CURVE('',#451,#451,#453,.T.);
#451 = VERTEX_POINT('',#452);
#452 = CARTESIAN_POINT('',(196.25,42.9,30.5));
#453 = CIRCLE('',#454,12.1);
#454 = AXIS2_PLACEMENT_3D('',#455,#456,#457);
#455 = CARTESIAN_POINT('',(196.25,42.9,18.4));
#456 = DIRECTION('',(1.,0.,0.));
#457 = DIRECTION('',(-0.,0.,1.));
#458 = PLANE('',#459);
#459 = AXIS2_PLACEMENT_3D('',#460,#461,#462);
#460 = CARTESIAN_POINT('',(196.25,42.9,18.4));
#461 = DIRECTION('',(1.,0.,0.));
#462 = DIRECTION('',(-0.,0.,1.));
#463 = ADVANCED_FACE('',(#464),#483,.F.);
#464 = FACE_BOUND('',#465,.F.);
#465 = EDGE_LOOP('',(#466,#467,#475,#482));
#466 = ORIENTED_EDGE('',*,*,#450,.F.);
#467 = ORIENTED_EDGE('',*,*,#468,.F.);
#468 = EDGE_CURVE('',#469,#451,#471,.T.);
#469 = VERTEX_POINT('',#470);
#470 = CARTESIAN_POINT('',(188.25,42.9,30.5));
#471 = LINE('',#472,#473);
#472 = CARTESIAN_POINT('',(187.75,42.9,30.5));
#473 = VECTOR('',#474,1.);
#474 = DIRECTION('',(1.,0.,0.));
#475 = ORIENTED_EDGE('',*,*,#476,.T.);
#476 = EDGE_CURVE('',#469,#469,#477,.T.);
#477 = CIRCLE('',#478,12.1);
#478 = AXIS2_PLACEMENT_3D('',#479,#480,#481);
#479 = CARTESIAN_POINT('',(188.25,42.9,18.4));
#480 = DIRECTION('',(1.,0.,0.));
#481 = DIRECTION('',(-0.,0.,1.));
#482 = ORIENTED_EDGE('',*,*,#468,.T.);
#483 = CYLINDRICAL_SURFACE('',#484,12.1);
#484 = AXIS2_PLACEMENT_3D('',#485,#486,#487);
#485 = CARTESIAN_POINT('',(187.75,42.9,18.4));
#486 = DIRECTION('',(1.,0.,0.));
#487 = DIRECTION('',(-0.,0.,1.));
#488 = ADVANCED_FACE('',(#489,#509),#512,.F.);
#489 = FACE_BOUND('',#490,.F.);
#490 = EDGE_LOOP('',(#491,#502));
#491 = ORIENTED_EDGE('',*,*,#492,.T.);
#492 = EDGE_CURVE('',#493,#495,#497,.T.);
#493 = VERTEX_POINT('',#494);
#494 = CARTESIAN_POINT('',(188.25,42.9,31.4));
#495 = VERTEX_POINT('',#496);
#496 = CARTESIAN_POINT('',(188.25,42.9,5.4));
#497 = CIRCLE('',#498,13.);
#498 = AXIS2_PLACEMENT_3D('',#499,#500,#501);
#499 = CARTESIAN_POINT('',(188.25,42.9,18.4));
#500 = DIRECTION('',(1.,0.,0.));
#501 = DIRECTION('',(-0.,0.,1.));
#502 = ORIENTED_EDGE('',*,*,#503,.T.);
#503 = EDGE_CURVE('',#495,#493,#504,.T.);
#504 = CIRCLE('',#505,13.);
#505 = AXIS2_PLACEMENT_3D('',#506,#507,#508);
#506 = CARTESIAN_POINT('',(188.25,42.9,18.4));
#507 = DIRECTION('',(1.,0.,0.));
#508 = DIRECTION('',(-0.,0.,1.));
#509 = FACE_BOUND('',#510,.F.);
#510 = EDGE_LOOP('',(#511));
#511 = ORIENTED_EDGE('',*,*,#476,.F.);
#512 = PLANE('',#513);
#513 = AXIS2_PLACEMENT_3D('',#514,#515,#516);
#514 = CARTESIAN_POINT('',(188.25,42.9,18.4));
#515 = DIRECTION('',(1.,0.,0.));
#516 = DIRECTION('',(-0.,0.,1.));
#517 = ADVANCED_FACE('',(#518,#530),#594,.T.);
#518 = FACE_BOUND('',#519,.T.);
#519 = EDGE_LOOP('',(#520,#521,#522,#527,#528,#529));
#520 = ORIENTED_EDGE('',*,*,#492,.T.);
#521 = ORIENTED_EDGE('',*,*,#503,.T.);
#522 = ORIENTED_EDGE('',*,*,#523,.T.);
#523 = EDGE_CURVE('',#493,#431,#524,.T.);
#524 = B_SPLINE_CURVE_WITH_KNOTS('',1,(#525,#526),.UNSPECIFIED.,.F.,.F.,
  (2,2),(0.,8.),.PIECEWISE_BEZIER_KNOTS.);
#525 = CARTESIAN_POINT('',(188.25,42.9,31.4));
#526 = CARTESIAN_POINT('',(196.25,42.9,31.4));
#527 = ORIENTED_EDGE('',*,*,#441,.F.);
#528 = ORIENTED_EDGE('',*,*,#430,.F.);
#529 = ORIENTED_EDGE('',*,*,#523,.F.);
#530 = FACE_BOUND('',#531,.T.);
#531 = EDGE_LOOP('',(#532,#565));
#532 = ORIENTED_EDGE('',*,*,#533,.T.);
#533 = EDGE_CURVE('',#534,#536,#538,.T.);
#534 = VERTEX_POINT('',#535);
#535 = CARTESIAN_POINT('',(190.55,42.9,5.4));
#536 = VERTEX_POINT('',#537);
#537 = CARTESIAN_POINT('',(193.95,42.9,5.4));
#538 = B_SPLINE_CURVE_WITH_KNOTS('',7,(#539,#540,#541,#542,#543,#544,
    #545,#546,#547,#548,#549,#550,#551,#552,#553,#554,#555,#556,#557,
    #558,#559,#560,#561,#562,#563,#564),.UNSPECIFIED.,.F.,.F.,(8,6,6,6,8
    ),(0.,0.247107917605,0.500040943916,0.752969149684,1.),
  .UNSPECIFIED.);
#539 = CARTESIAN_POINT('',(190.55,42.9,5.4));
#540 = CARTESIAN_POINT('',(190.55,42.675896370551,5.4));
#541 = CARTESIAN_POINT('',(190.58446610057,42.457210977456,
    5.404507245317));
#542 = CARTESIAN_POINT('',(190.65040035514,42.250200683581,
    5.413128658734));
#543 = CARTESIAN_POINT('',(190.74353374006,42.060171597147,
    5.424743946006));
#544 = CARTESIAN_POINT('',(190.85838750048,41.891246947455,
    5.437768631489));
#545 = CARTESIAN_POINT('',(190.98834678735,41.745965890119,5.45075190044
    ));
#546 = CARTESIAN_POINT('',(191.26643236268,41.50080047664,5.474917069559
    ));
#547 = CARTESIAN_POINT('',(191.41835966614,41.399030038192,5.48634858112
    ));
#548 = CARTESIAN_POINT('',(191.57800179785,41.318768346703,
    5.496161639701));
#549 = CARTESIAN_POINT('',(191.74279477216,41.259223035981,
    5.503821442684));
#550 = CARTESIAN_POINT('',(191.91077455166,41.219755202589,
    5.509027422283));
#551 = CARTESIAN_POINT('',(192.08033391442,41.2,5.511633152335));
#552 = CARTESIAN_POINT('',(192.41966285198,41.2,5.511633152335));
#553 = CARTESIAN_POINT('',(192.5892188842,41.219754436776,5.509027523068
    ));
#554 = CARTESIAN_POINT('',(192.75720073409,41.259220762408,
    5.503821745673));
#555 = CARTESIAN_POINT('',(192.92200095306,41.318767393572,
    5.496161739667));
#556 = CARTESIAN_POINT('',(193.08164989592,41.3990342296,5.486347981275)
  );
#557 = CARTESIAN_POINT('',(193.23357693071,41.500808669875,
    5.474916261978));
#558 = CARTESIAN_POINT('',(193.51160389516,41.745922410907,
    5.450756186047));
#559 = CARTESIAN_POINT('',(193.64159153406,41.891206395054,
    5.437771671346));
#560 = CARTESIAN_POINT('',(193.7564878707,42.060176111164,5.424742120813
    ));
#561 = CARTESIAN_POINT('',(193.84964146379,42.25026738123,5.413123174805
    ));
#562 = CARTESIAN_POINT('',(193.91556319177,42.457320588923,5.40450341747
    ));
#563 = CARTESIAN_POINT('',(193.95,42.675991607918,5.4));
#564 = CARTESIAN_POINT('',(193.95,42.9,5.4));
#565 = ORIENTED_EDGE('',*,*,#566,.T.);
#566 = EDGE_CURVE('',#536,#534,#567,.T.);
#567 = B_SPLINE_CURVE_WITH_KNOTS('',7,(#568,#569,#570,#571,#572,#573,
    #574,#575,#576,#577,#578,#579,#580,#581,#582,#583,#584,#585,#586,
    #587,#588,#589,#590,#591,#592,#593),.UNSPECIFIED.,.F.,.F.,(8,6,6,6,8
    ),(0.,0.247105144226,0.500014002002,0.752932278635,1.),
  .UNSPECIFIED.);
#568 = CARTESIAN_POINT('',(193.95,42.9,5.4));
#569 = CARTESIAN_POINT('',(193.95,43.124103629449,5.4));
#570 = CARTESIAN_POINT('',(193.91553389942,43.342789022544,
    5.404507245317));
#571 = CARTESIAN_POINT('',(193.84959964485,43.549799316419,
    5.413128658734));
#572 = CARTESIAN_POINT('',(193.75646625993,43.739828402853,
    5.424743946006));
#573 = CARTESIAN_POINT('',(193.64161249951,43.908753052545,
    5.437768631489));
#574 = CARTESIAN_POINT('',(193.51165321264,44.054034109881,5.45075190044
    ));
#575 = CARTESIAN_POINT('',(193.23357949948,44.299189065451,
    5.474916038757));
#576 = CARTESIAN_POINT('',(193.08165414742,44.400963221601,5.48634767971
    ));
#577 = CARTESIAN_POINT('',(192.92200415862,44.481231942309,
    5.496161616046));
#578 = CARTESIAN_POINT('',(192.75720012653,44.540780500266,5.50382191804
    ));
#579 = CARTESIAN_POINT('',(192.58921391683,44.58024700538,5.509027711125
    ));
#580 = CARTESIAN_POINT('',(192.41965653724,44.6,5.511633152335));
#581 = CARTESIAN_POINT('',(192.08033714438,44.6,5.511633152335));
#582 = CARTESIAN_POINT('',(191.91078112475,44.580245562312,
    5.509027522993));
#583 = CARTESIAN_POINT('',(191.74279925933,44.540779241953,
    5.503821746083));
#584 = CARTESIAN_POINT('',(191.57799904379,44.48123259817,5.496161738853
    ));
#585 = CARTESIAN_POINT('',(191.41835011126,44.400965777864,5.48634798202
    ));
#586 = CARTESIAN_POINT('',(191.26642306604,44.299191327267,
    5.474916261697));
#587 = CARTESIAN_POINT('',(190.98837021017,44.054054759876,
    5.450753935844));
#588 = CARTESIAN_POINT('',(190.85840091464,43.908775370789,
    5.437770373902));
#589 = CARTESIAN_POINT('',(190.74352686209,43.739831996631,
    5.424743536516));
#590 = CARTESIAN_POINT('',(190.65038103851,43.54977221282,5.41312613947)
  );
#591 = CARTESIAN_POINT('',(190.58445093201,43.342736465443,
    5.404505258895));
#592 = CARTESIAN_POINT('',(190.55,43.124054319199,5.4));
#593 = CARTESIAN_POINT('',(190.55,42.9,5.4));
#594 = CYLINDRICAL_SURFACE('',#595,13.);
#595 = AXIS2_PLACEMENT_3D('',#596,#597,#598);
#596 = CARTESIAN_POINT('',(188.25,42.9,18.4));
#597 = DIRECTION('',(1.,0.,0.));
#598 = DIRECTION('',(-0.,0.,1.));
#599 = ADVANCED_FACE('',(#600),#620,.F.);
#600 = FACE_BOUND('',#601,.F.);
#601 = EDGE_LOOP('',(#602,#610,#617,#618,#619));
#602 = ORIENTED_EDGE('',*,*,#603,.T.);
#603 = EDGE_CURVE('',#536,#604,#606,.T.);
#604 = VERTEX_POINT('',#605);
#605 = CARTESIAN_POINT('',(193.95,42.9,5.9));
#606 = LINE('',#607,#608);
#607 = CARTESIAN_POINT('',(193.95,42.9,1.9));
#608 = VECTOR('',#609,1.);
#609 = DIRECTION('',(0.,0.,1.));
#610 = ORIENTED_EDGE('',*,*,#611,.F.);
#611 = EDGE_CURVE('',#604,#604,#612,.T.);
#612 = CIRCLE('',#613,1.7);
#613 = AXIS2_PLACEMENT_3D('',#614,#615,#616);
#614 = CARTESIAN_POINT('',(192.25,42.9,5.9));
#615 = DIRECTION('',(0.,0.,1.));
#616 = DIRECTION('',(1.,0.,-0.));
#617 = ORIENTED_EDGE('',*,*,#603,.F.);
#618 = ORIENTED_EDGE('',*,*,#566,.T.);
#619 = ORIENTED_EDGE('',*,*,#533,.T.);
#620 = CYLINDRICAL_SURFACE('',#621,1.7);
#621 = AXIS2_PLACEMENT_3D('',#622,#623,#624);
#622 = CARTESIAN_POINT('',(192.25,42.9,1.9));
#623 = DIRECTION('',(0.,0.,1.));
#624 = DIRECTION('',(1.,0.,-0.));
#625 = ADVANCED_FACE('',(#626),#629,.F.);
#626 = FACE_BOUND('',#627,.F.);
#627 = EDGE_LOOP('',(#628));
#628 = ORIENTED_EDGE('',*,*,#611,.T.);
#629 = PLANE('',#630);
#630 = AXIS2_PLACEMENT_3D('',#631,#632,#633);
#631 = CARTESIAN_POINT('',(192.25,42.9,5.9));
#632 = DIRECTION('',(0.,0.,1.));
#633 = DIRECTION('',(1.,0.,-0.));
#634 = MANIFOLD_SOLID_BREP('',#635);
#635 = CLOSED_SHELL('',(#636,#696,#727,#751,#775,#792,#818));
#636 = ADVANCED_FACE('',(#637,#671),#691,.T.);
#637 = FACE_BOUND('',#638,.T.);
#638 = EDGE_LOOP('',(#639,#649,#657,#665));
#639 = ORIENTED_EDGE('',*,*,#640,.F.);
#640 = EDGE_CURVE('',#641,#643,#645,.T.);
#641 = VERTEX_POINT('',#642);
#642 = CARTESIAN_POINT('',(186.25,36.9,5.4));
#643 = VERTEX_POINT('',#644);
#644 = CARTESIAN_POINT('',(186.25,48.9,5.4));
#645 = LINE('',#646,#647);
#646 = CARTESIAN_POINT('',(186.25,36.9,5.4));
#647 = VECTOR('',#648,1.);
#648 = DIRECTION('',(-0.,1.,0.));
#649 = ORIENTED_EDGE('',*,*,#650,.T.);
#650 = EDGE_CURVE('',#641,#651,#653,.T.);
#651 = VERTEX_POINT('',#652);
#652 = CARTESIAN_POINT('',(198.25,36.9,5.4));
#653 = LINE('',#654,#655);
#654 = CARTESIAN_POINT('',(186.25,36.9,5.4));
#655 = VECTOR('',#656,1.);
#656 = DIRECTION('',(1.,0.,-0.));
#657 = ORIENTED_EDGE('',*,*,#658,.T.);
#658 = EDGE_CURVE('',#651,#659,#661,.T.);
#659 = VERTEX_POINT('',#660);
#660 = CARTESIAN_POINT('',(198.25,48.9,5.4));
#661 = LINE('',#662,#663);
#662 = CARTESIAN_POINT('',(198.25,36.9,5.4));
#663 = VECTOR('',#664,1.);
#664 = DIRECTION('',(-0.,1.,0.));
#665 = ORIENTED_EDGE('',*,*,#666,.F.);
#666 = EDGE_CURVE('',#643,#659,#667,.T.);
#667 = LINE('',#668,#669);
#668 = CARTESIAN_POINT('',(186.25,48.9,5.4));
#669 = VECTOR('',#670,1.);
#670 = DIRECTION('',(1.,0.,-0.));
#671 = FACE_BOUND('',#672,.T.);
#672 = EDGE_LOOP('',(#673,#684));
#673 = ORIENTED_EDGE('',*,*,#674,.F.);
#674 = EDGE_CURVE('',#675,#677,#679,.T.);
#675 = VERTEX_POINT('',#676);
#676 = CARTESIAN_POINT('',(190.55,42.9,5.4));
#677 = VERTEX_POINT('',#678);
#678 = CARTESIAN_POINT('',(193.95,42.9,5.4));
#679 = CIRCLE('',#680,1.7);
#680 = AXIS2_PLACEMENT_3D('',#681,#682,#683);
#681 = CARTESIAN_POINT('',(192.25,42.9,5.4));
#682 = DIRECTION('',(0.,0.,1.));
#683 = DIRECTION('',(1.,0.,-0.));
#684 = ORIENTED_EDGE('',*,*,#685,.F.);
#685 = EDGE_CURVE('',#677,#675,#686,.T.);
#686 = CIRCLE('',#687,1.7);
#687 = AXIS2_PLACEMENT_3D('',#688,#689,#690);
#688 = CARTESIAN_POINT('',(192.25,42.9,5.4));
#689 = DIRECTION('',(0.,0.,1.));
#690 = DIRECTION('',(1.,0.,-0.));
#691 = PLANE('',#692);
#692 = AXIS2_PLACEMENT_3D('',#693,#694,#695);
#693 = CARTESIAN_POINT('',(186.25,36.9,5.4));
#694 = DIRECTION('',(0.,0.,1.));
#695 = DIRECTION('',(1.,0.,-0.));
#696 = ADVANCED_FACE('',(#697),#722,.F.);
#697 = FACE_BOUND('',#698,.F.);
#698 = EDGE_LOOP('',(#699,#707,#715,#721));
#699 = ORIENTED_EDGE('',*,*,#700,.F.);
#700 = EDGE_CURVE('',#701,#641,#703,.T.);
#701 = VERTEX_POINT('',#702);
#702 = CARTESIAN_POINT('',(186.25,36.9,2.4));
#703 = LINE('',#704,#705);
#704 = CARTESIAN_POINT('',(186.25,36.9,2.4));
#705 = VECTOR('',#706,1.);
#706 = DIRECTION('',(0.,0.,1.));
#707 = ORIENTED_EDGE('',*,*,#708,.T.);
#708 = EDGE_CURVE('',#701,#709,#711,.T.);
#709 = VERTEX_POINT('',#710);
#710 = CARTESIAN_POINT('',(186.25,48.9,2.4));
#711 = LINE('',#712,#713);
#712 = CARTESIAN_POINT('',(186.25,36.9,2.4));
#713 = VECTOR('',#714,1.);
#714 = DIRECTION('',(-0.,1.,0.));
#715 = ORIENTED_EDGE('',*,*,#716,.T.);
#716 = EDGE_CURVE('',#709,#643,#717,.T.);
#717 = LINE('',#718,#719);
#718 = CARTESIAN_POINT('',(186.25,48.9,2.4));
#719 = VECTOR('',#720,1.);
#720 = DIRECTION('',(0.,0.,1.));
#721 = ORIENTED_EDGE('',*,*,#640,.F.);
#722 = PLANE('',#723);
#723 = AXIS2_PLACEMENT_3D('',#724,#725,#726);
#724 = CARTESIAN_POINT('',(186.25,36.9,2.4));
#725 = DIRECTION('',(1.,0.,-0.));
#726 = DIRECTION('',(0.,0.,1.));
#727 = ADVANCED_FACE('',(#728),#746,.T.);
#728 = FACE_BOUND('',#729,.T.);
#729 = EDGE_LOOP('',(#730,#738,#739,#740));
#730 = ORIENTED_EDGE('',*,*,#731,.F.);
#731 = EDGE_CURVE('',#709,#732,#734,.T.);
#732 = VERTEX_POINT('',#733);
#733 = CARTESIAN_POINT('',(198.25,48.9,2.4));
#734 = LINE('',#735,#736);
#735 = CARTESIAN_POINT('',(186.25,48.9,2.4));
#736 = VECTOR('',#737,1.);
#737 = DIRECTION('',(1.,0.,-0.));
#738 = ORIENTED_EDGE('',*,*,#716,.T.);
#739 = ORIENTED_EDGE('',*,*,#666,.T.);
#740 = ORIENTED_EDGE('',*,*,#741,.F.);
#741 = EDGE_CURVE('',#732,#659,#742,.T.);
#742 = LINE('',#743,#744);
#743 = CARTESIAN_POINT('',(198.25,48.9,2.4));
#744 = VECTOR('',#745,1.);
#745 = DIRECTION('',(0.,0.,1.));
#746 = PLANE('',#747);
#747 = AXIS2_PLACEMENT_3D('',#748,#749,#750);
#748 = CARTESIAN_POINT('',(186.25,48.9,2.4));
#749 = DIRECTION('',(-0.,1.,0.));
#750 = DIRECTION('',(0.,0.,1.));
#751 = ADVANCED_FACE('',(#752),#770,.F.);
#752 = FACE_BOUND('',#753,.F.);
#753 = EDGE_LOOP('',(#754,#762,#763,#764));
#754 = ORIENTED_EDGE('',*,*,#755,.F.);
#755 = EDGE_CURVE('',#701,#756,#758,.T.);
#756 = VERTEX_POINT('',#757);
#757 = CARTESIAN_POINT('',(198.25,36.9,2.4));
#758 = LINE('',#759,#760);
#759 = CARTESIAN_POINT('',(186.25,36.9,2.4));
#760 = VECTOR('',#761,1.);
#761 = DIRECTION('',(1.,0.,-0.));
#762 = ORIENTED_EDGE('',*,*,#700,.T.);
#763 = ORIENTED_EDGE('',*,*,#650,.T.);
#764 = ORIENTED_EDGE('',*,*,#765,.F.);
#765 = EDGE_CURVE('',#756,#651,#766,.T.);
#766 = LINE('',#767,#768);
#767 = CARTESIAN_POINT('',(198.25,36.9,2.4));
#768 = VECTOR('',#769,1.);
#769 = DIRECTION('',(0.,0.,1.));
#770 = PLANE('',#771);
#771 = AXIS2_PLACEMENT_3D('',#772,#773,#774);
#772 = CARTESIAN_POINT('',(186.25,36.9,2.4));
#773 = DIRECTION('',(-0.,1.,0.));
#774 = DIRECTION('',(0.,0.,1.));
#775 = ADVANCED_FACE('',(#776),#787,.T.);
#776 = FACE_BOUND('',#777,.T.);
#777 = EDGE_LOOP('',(#778,#779,#785,#786));
#778 = ORIENTED_EDGE('',*,*,#765,.F.);
#779 = ORIENTED_EDGE('',*,*,#780,.T.);
#780 = EDGE_CURVE('',#756,#732,#781,.T.);
#781 = LINE('',#782,#783);
#782 = CARTESIAN_POINT('',(198.25,36.9,2.4));
#783 = VECTOR('',#784,1.);
#784 = DIRECTION('',(-0.,1.,0.));
#785 = ORIENTED_EDGE('',*,*,#741,.T.);
#786 = ORIENTED_EDGE('',*,*,#658,.F.);
#787 = PLANE('',#788);
#788 = AXIS2_PLACEMENT_3D('',#789,#790,#791);
#789 = CARTESIAN_POINT('',(198.25,36.9,2.4));
#790 = DIRECTION('',(1.,0.,-0.));
#791 = DIRECTION('',(0.,0.,1.));
#792 = ADVANCED_FACE('',(#793),#813,.F.);
#793 = FACE_BOUND('',#794,.F.);
#794 = EDGE_LOOP('',(#795,#796,#804,#811,#812));
#795 = ORIENTED_EDGE('',*,*,#685,.F.);
#796 = ORIENTED_EDGE('',*,*,#797,.F.);
#797 = EDGE_CURVE('',#798,#677,#800,.T.);
#798 = VERTEX_POINT('',#799);
#799 = CARTESIAN_POINT('',(193.95,42.9,2.4));
#800 = LINE('',#801,#802);
#801 = CARTESIAN_POINT('',(193.95,42.9,1.9));
#802 = VECTOR('',#803,1.);
#803 = DIRECTION('',(0.,0.,1.));
#804 = ORIENTED_EDGE('',*,*,#805,.T.);
#805 = EDGE_CURVE('',#798,#798,#806,.T.);
#806 = CIRCLE('',#807,1.7);
#807 = AXIS2_PLACEMENT_3D('',#808,#809,#810);
#808 = CARTESIAN_POINT('',(192.25,42.9,2.4));
#809 = DIRECTION('',(0.,0.,1.));
#810 = DIRECTION('',(1.,0.,-0.));
#811 = ORIENTED_EDGE('',*,*,#797,.T.);
#812 = ORIENTED_EDGE('',*,*,#674,.F.);
#813 = CYLINDRICAL_SURFACE('',#814,1.7);
#814 = AXIS2_PLACEMENT_3D('',#815,#816,#817);
#815 = CARTESIAN_POINT('',(192.25,42.9,1.9));
#816 = DIRECTION('',(0.,0.,1.));
#817 = DIRECTION('',(1.,0.,-0.));
#818 = ADVANCED_FACE('',(#819,#825),#828,.F.);
#819 = FACE_BOUND('',#820,.F.);
#820 = EDGE_LOOP('',(#821,#822,#823,#824));
#821 = ORIENTED_EDGE('',*,*,#708,.F.);
#822 = ORIENTED_EDGE('',*,*,#755,.T.);
#823 = ORIENTED_EDGE('',*,*,#780,.T.);
#824 = ORIENTED_EDGE('',*,*,#731,.F.);
#825 = FACE_BOUND('',#826,.F.);
#826 = EDGE_LOOP('',(#827));
#827 = ORIENTED_EDGE('',*,*,#805,.F.);
#828 = PLANE('',#829);
#829 = AXIS2_PLACEMENT_3D('',#830,#831,#832);
#830 = CARTESIAN_POINT('',(186.25,36.9,2.4));
#831 = DIRECTION('',(0.,0.,1.));
#832 = DIRECTION('',(1.,0.,-0.));
#833 = ( GEOMETRIC_REPRESENTATION_CONTEXT(3) 
GLOBAL_UNCERTAINTY_ASSIGNED_CONTEXT((#837)) GLOBAL_UNIT_ASSIGNED_CONTEXT
((#834,#835,#836)) REPRESENTATION_CONTEXT('Context #1',
  '3D Context with UNIT and UNCERTAINTY') );
#834 = ( LENGTH_UNIT() NAMED_UNIT(*) SI_UNIT(.MILLI.,.METRE.) );
#835 = ( NAMED_UNIT(*) PLANE_ANGLE_UNIT() SI_UNIT($,.RADIAN.) );
#836 = ( NAMED_UNIT(*) SI_UNIT($,.STERADIAN.) SOLID_ANGLE_UNIT() );
#837 = UNCERTAINTY_MEASURE_WITH_UNIT(LENGTH_MEASURE(1.E-06),#834,
  'distance_accuracy_value','confusion accuracy');
#838 = PRODUCT_RELATED_PRODUCT_CATEGORY('part',$,(#7));
ENDSEC;
END-ISO-10303-21;
