ISO-10303-21;
HEADER;
FILE_DESCRIPTION(('FreeCAD Model'),'2;1');
FILE_NAME('Open CASCADE Shape Model','2026-10-05T04:02:54',('FreeCAD'),(
    'FreeCAD'),'Open CASCADE STEP processor 7.8','FreeCAD','Unknown');
FILE_SCHEMA(('AUTOMOTIVE_DESIGN { 1 0 10303 214 1 1 1 1 }'));
ENDSEC;
DATA;
#1 = APPLICATION_PROTOCOL_DEFINITION('international standard',
  'automotive_design',2000,#2);
#2 = APPLICATION_CONTEXT(
  'core data for automotive mechanical design processes');
#3 = SHAPE_DEFINITION_REPRESENTATION(#4,#10);
#4 = PRODUCT_DEFINITION_SHAPE('','',#5);
#5 = PRODUCT_DEFINITION('design','',#6,#9);
#6 = PRODUCT_DEFINITION_FORMATION('','',#7);
#7 = PRODUCT('Open CASCADE STEP translator 7.8 1',
  'Open CASCADE STEP translator 7.8 1','',(#8));
#8 = PRODUCT_CONTEXT('',#2,'mechanical');
#9 = PRODUCT_DEFINITION_CONTEXT('part definition',#2,'design');
#10 = SHAPE_REPRESENTATION('',(#11,#15,#445),#843);
#11 = AXIS2_PLACEMENT_3D('',#12,#13,#14);
#12 = CARTESIAN_POINT('',(0.,0.,0.));
#13 = DIRECTION('',(0.,0.,1.));
#14 = DIRECTION('',(1.,0.,-0.));
#15 = MANIFOLD_SOLID_BREP('',#16);
#16 = CLOSED_SHELL('',(#17,#53,#81,#133,#155,#171,#225,#253,#317,#339,
    #355,#381,#407,#433));
#17 = ADVANCED_FACE('',(#18),#48,.F.);
#18 = FACE_BOUND('',#19,.F.);
#19 = EDGE_LOOP('',(#20,#29,#36,#43));
#20 = ORIENTED_EDGE('',*,*,#21,.F.);
#21 = EDGE_CURVE('',#22,#24,#26,.T.);
#22 = VERTEX_POINT('',#23);
#23 = CARTESIAN_POINT('',(135.8,26.5,0.));
#24 = VERTEX_POINT('',#25);
#25 = CARTESIAN_POINT('',(135.8,26.5,38.9));
#26 = B_SPLINE_CURVE_WITH_KNOTS('',1,(#27,#28),.UNSPECIFIED.,.F.,.F.,(2,
    2),(0.,38.9),.PIECEWISE_BEZIER_KNOTS.);
#27 = CARTESIAN_POINT('',(135.8,26.5,0.));
#28 = CARTESIAN_POINT('',(135.8,26.5,38.9));
#29 = ORIENTED_EDGE('',*,*,#30,.T.);
#30 = EDGE_CURVE('',#22,#31,#33,.T.);
#31 = VERTEX_POINT('',#32);
#32 = CARTESIAN_POINT('',(135.8,59.3,0.));
#33 = B_SPLINE_CURVE_WITH_KNOTS('',1,(#34,#35),.UNSPECIFIED.,.F.,.F.,(2,
    2),(0.,32.8),.PIECEWISE_BEZIER_KNOTS.);
#34 = CARTESIAN_POINT('',(135.8,26.5,0.));
#35 = CARTESIAN_POINT('',(135.8,59.3,0.));
#36 = ORIENTED_EDGE('',*,*,#37,.T.);
#37 = EDGE_CURVE('',#31,#38,#40,.T.);
#38 = VERTEX_POINT('',#39);
#39 = CARTESIAN_POINT('',(135.8,59.3,38.9));
#40 = B_SPLINE_CURVE_WITH_KNOTS('',1,(#41,#42),.UNSPECIFIED.,.F.,.F.,(2,
    2),(0.,38.9),.PIECEWISE_BEZIER_KNOTS.);
#41 = CARTESIAN_POINT('',(135.8,59.3,0.));
#42 = CARTESIAN_POINT('',(135.8,59.3,38.9));
#43 = ORIENTED_EDGE('',*,*,#44,.F.);
#44 = EDGE_CURVE('',#24,#38,#45,.T.);
#45 = B_SPLINE_CURVE_WITH_KNOTS('',1,(#46,#47),.UNSPECIFIED.,.F.,.F.,(2,
    2),(0.,32.8),.PIECEWISE_BEZIER_KNOTS.);
#46 = CARTESIAN_POINT('',(135.8,26.5,38.9));
#47 = CARTESIAN_POINT('',(135.8,59.3,38.9));
#48 = B_SPLINE_SURFACE_WITH_KNOTS('',1,1,(
    (#49,#50)
    ,(#51,#52
    )),.UNSPECIFIED.,.F.,.F.,.F.,(2,2),(2,2),(0.,38.9),(-32.8,0.),
  .PIECEWISE_BEZIER_KNOTS.);
#49 = CARTESIAN_POINT('',(135.8,59.3,0.));
#50 = CARTESIAN_POINT('',(135.8,26.5,0.));
#51 = CARTESIAN_POINT('',(135.8,59.3,38.9));
#52 = CARTESIAN_POINT('',(135.8,26.5,38.9));
#53 = ADVANCED_FACE('',(#54),#76,.F.);
#54 = FACE_BOUND('',#55,.F.);
#55 = EDGE_LOOP('',(#56,#63,#64,#71));
#56 = ORIENTED_EDGE('',*,*,#57,.F.);
#57 = EDGE_CURVE('',#22,#58,#60,.T.);
#58 = VERTEX_POINT('',#59);
#59 = CARTESIAN_POINT('',(202.7,26.5,0.));
#60 = B_SPLINE_CURVE_WITH_KNOTS('',1,(#61,#62),.UNSPECIFIED.,.F.,.F.,(2,
    2),(0.,66.9),.PIECEWISE_BEZIER_KNOTS.);
#61 = CARTESIAN_POINT('',(135.8,26.5,0.));
#62 = CARTESIAN_POINT('',(202.7,26.5,0.));
#63 = ORIENTED_EDGE('',*,*,#21,.T.);
#64 = ORIENTED_EDGE('',*,*,#65,.T.);
#65 = EDGE_CURVE('',#24,#66,#68,.T.);
#66 = VERTEX_POINT('',#67);
#67 = CARTESIAN_POINT('',(202.7,26.5,38.9));
#68 = B_SPLINE_CURVE_WITH_KNOTS('',1,(#69,#70),.UNSPECIFIED.,.F.,.F.,(2,
    2),(0.,66.9),.PIECEWISE_BEZIER_KNOTS.);
#69 = CARTESIAN_POINT('',(135.8,26.5,38.9));
#70 = CARTESIAN_POINT('',(202.7,26.5,38.9));
#71 = ORIENTED_EDGE('',*,*,#72,.F.);
#72 = EDGE_CURVE('',#58,#66,#73,.T.);
#73 = B_SPLINE_CURVE_WITH_KNOTS('',1,(#74,#75),.UNSPECIFIED.,.F.,.F.,(2,
    2),(0.,38.9),.PIECEWISE_BEZIER_KNOTS.);
#74 = CARTESIAN_POINT('',(202.7,26.5,0.));
#75 = CARTESIAN_POINT('',(202.7,26.5,38.9));
#76 = B_SPLINE_SURFACE_WITH_KNOTS('',1,1,(
    (#77,#78)
    ,(#79,#80
    )),.UNSPECIFIED.,.F.,.F.,.F.,(2,2),(2,2),(0.,38.9),(0.,66.9),
  .PIECEWISE_BEZIER_KNOTS.);
#77 = CARTESIAN_POINT('',(135.8,26.5,0.));
#78 = CARTESIAN_POINT('',(202.7,26.5,0.));
#79 = CARTESIAN_POINT('',(135.8,26.5,38.9));
#80 = CARTESIAN_POINT('',(202.7,26.5,38.9));
#81 = ADVANCED_FACE('',(#82,#98),#128,.T.);
#82 = FACE_BOUND('',#83,.T.);
#83 = EDGE_LOOP('',(#84,#85,#86,#93));
#84 = ORIENTED_EDGE('',*,*,#44,.F.);
#85 = ORIENTED_EDGE('',*,*,#65,.T.);
#86 = ORIENTED_EDGE('',*,*,#87,.T.);
#87 = EDGE_CURVE('',#66,#88,#90,.T.);
#88 = VERTEX_POINT('',#89);
#89 = CARTESIAN_POINT('',(202.7,59.3,38.9));
#90 = B_SPLINE_CURVE_WITH_KNOTS('',1,(#91,#92),.UNSPECIFIED.,.F.,.F.,(2,
    2),(0.,32.8),.PIECEWISE_BEZIER_KNOTS.);
#91 = CARTESIAN_POINT('',(202.7,26.5,38.9));
#92 = CARTESIAN_POINT('',(202.7,59.3,38.9));
#93 = ORIENTED_EDGE('',*,*,#94,.F.);
#94 = EDGE_CURVE('',#38,#88,#95,.T.);
#95 = B_SPLINE_CURVE_WITH_KNOTS('',1,(#96,#97),.UNSPECIFIED.,.F.,.F.,(2,
    2),(0.,66.9),.PIECEWISE_BEZIER_KNOTS.);
#96 = CARTESIAN_POINT('',(135.8,59.3,38.9));
#97 = CARTESIAN_POINT('',(202.7,59.3,38.9));
#98 = FACE_BOUND('',#99,.T.);
#99 = EDGE_LOOP('',(#100,#109,#116,#123));
#100 = ORIENTED_EDGE('',*,*,#101,.T.);
#101 = EDGE_CURVE('',#102,#104,#106,.T.);
#102 = VERTEX_POINT('',#103);
#103 = CARTESIAN_POINT('',(200.3,28.9,38.9));
#104 = VERTEX_POINT('',#105);
#105 = CARTESIAN_POINT('',(138.2,28.9,38.9));
#106 = B_SPLINE_CURVE_WITH_KNOTS('',1,(#107,#108),.UNSPECIFIED.,.F.,.F.,
  (2,2),(-63.3,-1.2),.PIECEWISE_BEZIER_KNOTS.);
#107 = CARTESIAN_POINT('',(200.3,28.9,38.9));
#108 = CARTESIAN_POINT('',(138.2,28.9,38.9));
#109 = ORIENTED_EDGE('',*,*,#110,.T.);
#110 = EDGE_CURVE('',#104,#111,#113,.T.);
#111 = VERTEX_POINT('',#112);
#112 = CARTESIAN_POINT('',(138.2,56.9,38.9));
#113 = B_SPLINE_CURVE_WITH_KNOTS('',1,(#114,#115),.UNSPECIFIED.,.F.,.F.,
  (2,2),(1.2,29.2),.PIECEWISE_BEZIER_KNOTS.);
#114 = CARTESIAN_POINT('',(138.2,28.9,38.9));
#115 = CARTESIAN_POINT('',(138.2,56.9,38.9));
#116 = ORIENTED_EDGE('',*,*,#117,.F.);
#117 = EDGE_CURVE('',#118,#111,#120,.T.);
#118 = VERTEX_POINT('',#119);
#119 = CARTESIAN_POINT('',(200.3,56.9,38.9));
#120 = B_SPLINE_CURVE_WITH_KNOTS('',1,(#121,#122),.UNSPECIFIED.,.F.,.F.,
  (2,2),(-63.3,-1.2),.PIECEWISE_BEZIER_KNOTS.);
#121 = CARTESIAN_POINT('',(200.3,56.9,38.9));
#122 = CARTESIAN_POINT('',(138.2,56.9,38.9));
#123 = ORIENTED_EDGE('',*,*,#124,.F.);
#124 = EDGE_CURVE('',#102,#118,#125,.T.);
#125 = B_SPLINE_CURVE_WITH_KNOTS('',1,(#126,#127),.UNSPECIFIED.,.F.,.F.,
  (2,2),(1.2,29.2),.PIECEWISE_BEZIER_KNOTS.);
#126 = CARTESIAN_POINT('',(200.3,28.9,38.9));
#127 = CARTESIAN_POINT('',(200.3,56.9,38.9));
#128 = B_SPLINE_SURFACE_WITH_KNOTS('',1,1,(
    (#129,#130)
    ,(#131,#132
    )),.UNSPECIFIED.,.F.,.F.,.F.,(2,2),(2,2),(0.,66.9),(0.,32.8),
  .PIECEWISE_BEZIER_KNOTS.);
#129 = CARTESIAN_POINT('',(135.8,26.5,38.9));
#130 = CARTESIAN_POINT('',(135.8,59.3,38.9));
#131 = CARTESIAN_POINT('',(202.7,26.5,38.9));
#132 = CARTESIAN_POINT('',(202.7,59.3,38.9));
#133 = ADVANCED_FACE('',(#134),#150,.T.);
#134 = FACE_BOUND('',#135,.T.);
#135 = EDGE_LOOP('',(#136,#143,#144,#145));
#136 = ORIENTED_EDGE('',*,*,#137,.F.);
#137 = EDGE_CURVE('',#31,#138,#140,.T.);
#138 = VERTEX_POINT('',#139);
#139 = CARTESIAN_POINT('',(202.7,59.3,0.));
#140 = B_SPLINE_CURVE_WITH_KNOTS('',1,(#141,#142),.UNSPECIFIED.,.F.,.F.,
  (2,2),(0.,66.9),.PIECEWISE_BEZIER_KNOTS.);
#141 = CARTESIAN_POINT('',(135.8,59.3,0.));
#142 = CARTESIAN_POINT('',(202.7,59.3,0.));
#143 = ORIENTED_EDGE('',*,*,#37,.T.);
#144 = ORIENTED_EDGE('',*,*,#94,.T.);
#145 = ORIENTED_EDGE('',*,*,#146,.F.);
#146 = EDGE_CURVE('',#138,#88,#147,.T.);
#147 = B_SPLINE_CURVE_WITH_KNOTS('',1,(#148,#149),.UNSPECIFIED.,.F.,.F.,
  (2,2),(0.,38.9),.PIECEWISE_BEZIER_KNOTS.);
#148 = CARTESIAN_POINT('',(202.7,59.3,0.));
#149 = CARTESIAN_POINT('',(202.7,59.3,38.9));
#150 = B_SPLINE_SURFACE_WITH_KNOTS('',1,1,(
    (#151,#152)
    ,(#153,#154
    )),.UNSPECIFIED.,.F.,.F.,.F.,(2,2),(2,2),(0.,38.9),(0.,66.9),
  .PIECEWISE_BEZIER_KNOTS.);
#151 = CARTESIAN_POINT('',(135.8,59.3,0.));
#152 = CARTESIAN_POINT('',(202.7,59.3,0.));
#153 = CARTESIAN_POINT('',(135.8,59.3,38.9));
#154 = CARTESIAN_POINT('',(202.7,59.3,38.9));
#155 = ADVANCED_FACE('',(#156),#166,.F.);
#156 = FACE_BOUND('',#157,.F.);
#157 = EDGE_LOOP('',(#158,#159,#160,#165));
#158 = ORIENTED_EDGE('',*,*,#30,.F.);
#159 = ORIENTED_EDGE('',*,*,#57,.T.);
#160 = ORIENTED_EDGE('',*,*,#161,.T.);
#161 = EDGE_CURVE('',#58,#138,#162,.T.);
#162 = B_SPLINE_CURVE_WITH_KNOTS('',1,(#163,#164),.UNSPECIFIED.,.F.,.F.,
  (2,2),(0.,32.8),.PIECEWISE_BEZIER_KNOTS.);
#163 = CARTESIAN_POINT('',(202.7,26.5,0.));
#164 = CARTESIAN_POINT('',(202.7,59.3,0.));
#165 = ORIENTED_EDGE('',*,*,#137,.F.);
#166 = B_SPLINE_SURFACE_WITH_KNOTS('',1,1,(
    (#167,#168)
    ,(#169,#170
    )),.UNSPECIFIED.,.F.,.F.,.F.,(2,2),(2,2),(0.,66.9),(0.,32.8),
  .PIECEWISE_BEZIER_KNOTS.);
#167 = CARTESIAN_POINT('',(135.8,26.5,0.));
#168 = CARTESIAN_POINT('',(135.8,59.3,0.));
#169 = CARTESIAN_POINT('',(202.7,26.5,0.));
#170 = CARTESIAN_POINT('',(202.7,59.3,0.));
#171 = ADVANCED_FACE('',(#172,#178,#192,#206),#220,.T.);
#172 = FACE_BOUND('',#173,.T.);
#173 = EDGE_LOOP('',(#174,#175,#176,#177));
#174 = ORIENTED_EDGE('',*,*,#72,.F.);
#175 = ORIENTED_EDGE('',*,*,#161,.T.);
#176 = ORIENTED_EDGE('',*,*,#146,.T.);
#177 = ORIENTED_EDGE('',*,*,#87,.F.);
#178 = FACE_BOUND('',#179,.T.);
#179 = EDGE_LOOP('',(#180));
#180 = ORIENTED_EDGE('',*,*,#181,.F.);
#181 = EDGE_CURVE('',#182,#182,#184,.T.);
#182 = VERTEX_POINT('',#183);
#183 = CARTESIAN_POINT('',(202.7,50.9,21.2));
#184 = ( BOUNDED_CURVE() B_SPLINE_CURVE(2,(#185,#186,#187,#188,#189,#190
,#191),.UNSPECIFIED.,.T.,.F.) B_SPLINE_CURVE_WITH_KNOTS((1,2,2,2,2,1),(
    -2.094395102393,0.,2.094395102393,4.188790204786,6.28318530718,
8.377580409573),.UNSPECIFIED.) CURVE() GEOMETRIC_REPRESENTATION_ITEM() 
RATIONAL_B_SPLINE_CURVE((1.,0.5,1.,0.5,1.,0.5,1.)) REPRESENTATION_ITEM(
  '') );
#185 = CARTESIAN_POINT('',(202.7,50.9,21.2));
#186 = CARTESIAN_POINT('',(202.7,46.050257738807,21.2));
#187 = CARTESIAN_POINT('',(202.7,48.475128869404,17.));
#188 = CARTESIAN_POINT('',(202.7,50.9,12.8));
#189 = CARTESIAN_POINT('',(202.7,53.324871130596,17.));
#190 = CARTESIAN_POINT('',(202.7,55.749742261193,21.2));
#191 = CARTESIAN_POINT('',(202.7,50.9,21.2));
#192 = FACE_BOUND('',#193,.T.);
#193 = EDGE_LOOP('',(#194));
#194 = ORIENTED_EDGE('',*,*,#195,.F.);
#195 = EDGE_CURVE('',#196,#196,#198,.T.);
#196 = VERTEX_POINT('',#197);
#197 = CARTESIAN_POINT('',(202.7,42.9,8.5));
#198 = ( BOUNDED_CURVE() B_SPLINE_CURVE(2,(#199,#200,#201,#202,#203,#204
,#205),.UNSPECIFIED.,.T.,.F.) B_SPLINE_CURVE_WITH_KNOTS((1,2,2,2,2,1),(
    -2.094395102393,0.,2.094395102393,4.188790204786,6.28318530718,
8.377580409573),.UNSPECIFIED.) CURVE() GEOMETRIC_REPRESENTATION_ITEM() 
RATIONAL_B_SPLINE_CURVE((1.,0.5,1.,0.5,1.,0.5,1.)) REPRESENTATION_ITEM(
  '') );
#199 = CARTESIAN_POINT('',(202.7,42.9,8.5));
#200 = CARTESIAN_POINT('',(202.7,38.569872981078,8.5));
#201 = CARTESIAN_POINT('',(202.7,40.734936490539,4.75));
#202 = CARTESIAN_POINT('',(202.7,42.9,1.));
#203 = CARTESIAN_POINT('',(202.7,45.065063509461,4.75));
#204 = CARTESIAN_POINT('',(202.7,47.230127018922,8.5));
#205 = CARTESIAN_POINT('',(202.7,42.9,8.5));
#206 = FACE_BOUND('',#207,.T.);
#207 = EDGE_LOOP('',(#208));
#208 = ORIENTED_EDGE('',*,*,#209,.F.);
#209 = EDGE_CURVE('',#210,#210,#212,.T.);
#210 = VERTEX_POINT('',#211);
#211 = CARTESIAN_POINT('',(202.7,34.9,21.2));
#212 = ( BOUNDED_CURVE() B_SPLINE_CURVE(2,(#213,#214,#215,#216,#217,#218
,#219),.UNSPECIFIED.,.T.,.F.) B_SPLINE_CURVE_WITH_KNOTS((1,2,2,2,2,1),(
    -2.094395102393,0.,2.094395102393,4.188790204786,6.28318530718,
8.377580409573),.UNSPECIFIED.) CURVE() GEOMETRIC_REPRESENTATION_ITEM() 
RATIONAL_B_SPLINE_CURVE((1.,0.5,1.,0.5,1.,0.5,1.)) REPRESENTATION_ITEM(
  '') );
#213 = CARTESIAN_POINT('',(202.7,34.9,21.2));
#214 = CARTESIAN_POINT('',(202.7,30.050257738807,21.2));
#215 = CARTESIAN_POINT('',(202.7,32.475128869404,17.));
#216 = CARTESIAN_POINT('',(202.7,34.9,12.8));
#217 = CARTESIAN_POINT('',(202.7,37.324871130596,17.));
#218 = CARTESIAN_POINT('',(202.7,39.749742261193,21.2));
#219 = CARTESIAN_POINT('',(202.7,34.9,21.2));
#220 = B_SPLINE_SURFACE_WITH_KNOTS('',1,1,(
    (#221,#222)
    ,(#223,#224
    )),.UNSPECIFIED.,.F.,.F.,.F.,(2,2),(2,2),(0.,38.9),(-32.8,0.),
  .PIECEWISE_BEZIER_KNOTS.);
#221 = CARTESIAN_POINT('',(202.7,59.3,0.));
#222 = CARTESIAN_POINT('',(202.7,26.5,0.));
#223 = CARTESIAN_POINT('',(202.7,59.3,38.9));
#224 = CARTESIAN_POINT('',(202.7,26.5,38.9));
#225 = ADVANCED_FACE('',(#226),#248,.T.);
#226 = FACE_BOUND('',#227,.T.);
#227 = EDGE_LOOP('',(#228,#235,#242,#247));
#228 = ORIENTED_EDGE('',*,*,#229,.F.);
#229 = EDGE_CURVE('',#230,#102,#232,.T.);
#230 = VERTEX_POINT('',#231);
#231 = CARTESIAN_POINT('',(200.3,28.9,2.4));
#232 = B_SPLINE_CURVE_WITH_KNOTS('',1,(#233,#234),.UNSPECIFIED.,.F.,.F.,
  (2,2),(0.,36.5),.PIECEWISE_BEZIER_KNOTS.);
#233 = CARTESIAN_POINT('',(200.3,28.9,2.4));
#234 = CARTESIAN_POINT('',(200.3,28.9,38.9));
#235 = ORIENTED_EDGE('',*,*,#236,.F.);
#236 = EDGE_CURVE('',#237,#230,#239,.T.);
#237 = VERTEX_POINT('',#238);
#238 = CARTESIAN_POINT('',(138.2,28.9,2.4));
#239 = B_SPLINE_CURVE_WITH_KNOTS('',1,(#240,#241),.UNSPECIFIED.,.F.,.F.,
  (2,2),(0.,62.1),.PIECEWISE_BEZIER_KNOTS.);
#240 = CARTESIAN_POINT('',(138.2,28.9,2.4));
#241 = CARTESIAN_POINT('',(200.3,28.9,2.4));
#242 = ORIENTED_EDGE('',*,*,#243,.T.);
#243 = EDGE_CURVE('',#237,#104,#244,.T.);
#244 = B_SPLINE_CURVE_WITH_KNOTS('',1,(#245,#246),.UNSPECIFIED.,.F.,.F.,
  (2,2),(0.,36.5),.PIECEWISE_BEZIER_KNOTS.);
#245 = CARTESIAN_POINT('',(138.2,28.9,2.4));
#246 = CARTESIAN_POINT('',(138.2,28.9,38.9));
#247 = ORIENTED_EDGE('',*,*,#101,.F.);
#248 = B_SPLINE_SURFACE_WITH_KNOTS('',1,1,(
    (#249,#250)
    ,(#251,#252
    )),.UNSPECIFIED.,.F.,.F.,.F.,(2,2),(2,2),(0.,36.5),(0.,62.1),
  .PIECEWISE_BEZIER_KNOTS.);
#249 = CARTESIAN_POINT('',(138.2,28.9,2.4));
#250 = CARTESIAN_POINT('',(200.3,28.9,2.4));
#251 = CARTESIAN_POINT('',(138.2,28.9,38.9));
#252 = CARTESIAN_POINT('',(200.3,28.9,38.9));
#253 = ADVANCED_FACE('',(#254,#270,#284,#298),#312,.F.);
#254 = FACE_BOUND('',#255,.F.);
#255 = EDGE_LOOP('',(#256,#257,#264,#269));
#256 = ORIENTED_EDGE('',*,*,#229,.F.);
#257 = ORIENTED_EDGE('',*,*,#258,.T.);
#258 = EDGE_CURVE('',#230,#259,#261,.T.);
#259 = VERTEX_POINT('',#260);
#260 = CARTESIAN_POINT('',(200.3,56.9,2.4));
#261 = B_SPLINE_CURVE_WITH_KNOTS('',1,(#262,#263),.UNSPECIFIED.,.F.,.F.,
  (2,2),(0.,28.),.PIECEWISE_BEZIER_KNOTS.);
#262 = CARTESIAN_POINT('',(200.3,28.9,2.4));
#263 = CARTESIAN_POINT('',(200.3,56.9,2.4));
#264 = ORIENTED_EDGE('',*,*,#265,.T.);
#265 = EDGE_CURVE('',#259,#118,#266,.T.);
#266 = B_SPLINE_CURVE_WITH_KNOTS('',1,(#267,#268),.UNSPECIFIED.,.F.,.F.,
  (2,2),(0.,36.5),.PIECEWISE_BEZIER_KNOTS.);
#267 = CARTESIAN_POINT('',(200.3,56.9,2.4));
#268 = CARTESIAN_POINT('',(200.3,56.9,38.9));
#269 = ORIENTED_EDGE('',*,*,#124,.F.);
#270 = FACE_BOUND('',#271,.F.);
#271 = EDGE_LOOP('',(#272));
#272 = ORIENTED_EDGE('',*,*,#273,.F.);
#273 = EDGE_CURVE('',#274,#274,#276,.T.);
#274 = VERTEX_POINT('',#275);
#275 = CARTESIAN_POINT('',(200.3,50.9,21.2));
#276 = ( BOUNDED_CURVE() B_SPLINE_CURVE(2,(#277,#278,#279,#280,#281,#282
,#283),.UNSPECIFIED.,.T.,.F.) B_SPLINE_CURVE_WITH_KNOTS((1,2,2,2,2,1),(
    -2.094395102393,0.,2.094395102393,4.188790204786,6.28318530718,
8.377580409573),.UNSPECIFIED.) CURVE() GEOMETRIC_REPRESENTATION_ITEM() 
RATIONAL_B_SPLINE_CURVE((1.,0.5,1.,0.5,1.,0.5,1.)) REPRESENTATION_ITEM(
  '') );
#277 = CARTESIAN_POINT('',(200.3,50.9,21.2));
#278 = CARTESIAN_POINT('',(200.3,46.050257738807,21.2));
#279 = CARTESIAN_POINT('',(200.3,48.475128869404,17.));
#280 = CARTESIAN_POINT('',(200.3,50.9,12.8));
#281 = CARTESIAN_POINT('',(200.3,53.324871130596,17.));
#282 = CARTESIAN_POINT('',(200.3,55.749742261193,21.2));
#283 = CARTESIAN_POINT('',(200.3,50.9,21.2));
#284 = FACE_BOUND('',#285,.F.);
#285 = EDGE_LOOP('',(#286));
#286 = ORIENTED_EDGE('',*,*,#287,.F.);
#287 = EDGE_CURVE('',#288,#288,#290,.T.);
#288 = VERTEX_POINT('',#289);
#289 = CARTESIAN_POINT('',(200.3,42.9,8.5));
#290 = ( BOUNDED_CURVE() B_SPLINE_CURVE(2,(#291,#292,#293,#294,#295,#296
,#297),.UNSPECIFIED.,.T.,.F.) B_SPLINE_CURVE_WITH_KNOTS((1,2,2,2,2,1),(
    -2.094395102393,0.,2.094395102393,4.188790204786,6.28318530718,
8.377580409573),.UNSPECIFIED.) CURVE() GEOMETRIC_REPRESENTATION_ITEM() 
RATIONAL_B_SPLINE_CURVE((1.,0.5,1.,0.5,1.,0.5,1.)) REPRESENTATION_ITEM(
  '') );
#291 = CARTESIAN_POINT('',(200.3,42.9,8.5));
#292 = CARTESIAN_POINT('',(200.3,38.569872981078,8.5));
#293 = CARTESIAN_POINT('',(200.3,40.734936490539,4.75));
#294 = CARTESIAN_POINT('',(200.3,42.9,1.));
#295 = CARTESIAN_POINT('',(200.3,45.065063509461,4.75));
#296 = CARTESIAN_POINT('',(200.3,47.230127018922,8.5));
#297 = CARTESIAN_POINT('',(200.3,42.9,8.5));
#298 = FACE_BOUND('',#299,.F.);
#299 = EDGE_LOOP('',(#300));
#300 = ORIENTED_EDGE('',*,*,#301,.F.);
#301 = EDGE_CURVE('',#302,#302,#304,.T.);
#302 = VERTEX_POINT('',#303);
#303 = CARTESIAN_POINT('',(200.3,34.9,21.2));
#304 = ( BOUNDED_CURVE() B_SPLINE_CURVE(2,(#305,#306,#307,#308,#309,#310
,#311),.UNSPECIFIED.,.T.,.F.) B_SPLINE_CURVE_WITH_KNOTS((1,2,2,2,2,1),(
    -2.094395102393,0.,2.094395102393,4.188790204786,6.28318530718,
8.377580409573),.UNSPECIFIED.) CURVE() GEOMETRIC_REPRESENTATION_ITEM() 
RATIONAL_B_SPLINE_CURVE((1.,0.5,1.,0.5,1.,0.5,1.)) REPRESENTATION_ITEM(
  '') );
#305 = CARTESIAN_POINT('',(200.3,34.9,21.2));
#306 = CARTESIAN_POINT('',(200.3,30.050257738807,21.2));
#307 = CARTESIAN_POINT('',(200.3,32.475128869404,17.));
#308 = CARTESIAN_POINT('',(200.3,34.9,12.8));
#309 = CARTESIAN_POINT('',(200.3,37.324871130596,17.));
#310 = CARTESIAN_POINT('',(200.3,39.749742261193,21.2));
#311 = CARTESIAN_POINT('',(200.3,34.9,21.2));
#312 = B_SPLINE_SURFACE_WITH_KNOTS('',1,1,(
    (#313,#314)
    ,(#315,#316
    )),.UNSPECIFIED.,.F.,.F.,.F.,(2,2),(2,2),(0.,36.5),(-28.,0.),
  .PIECEWISE_BEZIER_KNOTS.);
#313 = CARTESIAN_POINT('',(200.3,56.9,2.4));
#314 = CARTESIAN_POINT('',(200.3,28.9,2.4));
#315 = CARTESIAN_POINT('',(200.3,56.9,38.9));
#316 = CARTESIAN_POINT('',(200.3,28.9,38.9));
#317 = ADVANCED_FACE('',(#318),#334,.F.);
#318 = FACE_BOUND('',#319,.F.);
#319 = EDGE_LOOP('',(#320,#321,#328,#333));
#320 = ORIENTED_EDGE('',*,*,#265,.F.);
#321 = ORIENTED_EDGE('',*,*,#322,.F.);
#322 = EDGE_CURVE('',#323,#259,#325,.T.);
#323 = VERTEX_POINT('',#324);
#324 = CARTESIAN_POINT('',(138.2,56.9,2.4));
#325 = B_SPLINE_CURVE_WITH_KNOTS('',1,(#326,#327),.UNSPECIFIED.,.F.,.F.,
  (2,2),(0.,62.1),.PIECEWISE_BEZIER_KNOTS.);
#326 = CARTESIAN_POINT('',(138.2,56.9,2.4));
#327 = CARTESIAN_POINT('',(200.3,56.9,2.4));
#328 = ORIENTED_EDGE('',*,*,#329,.T.);
#329 = EDGE_CURVE('',#323,#111,#330,.T.);
#330 = B_SPLINE_CURVE_WITH_KNOTS('',1,(#331,#332),.UNSPECIFIED.,.F.,.F.,
  (2,2),(0.,36.5),.PIECEWISE_BEZIER_KNOTS.);
#331 = CARTESIAN_POINT('',(138.2,56.9,2.4));
#332 = CARTESIAN_POINT('',(138.2,56.9,38.9));
#333 = ORIENTED_EDGE('',*,*,#117,.F.);
#334 = B_SPLINE_SURFACE_WITH_KNOTS('',1,1,(
    (#335,#336)
    ,(#337,#338
    )),.UNSPECIFIED.,.F.,.F.,.F.,(2,2),(2,2),(0.,36.5),(0.,62.1),
  .PIECEWISE_BEZIER_KNOTS.);
#335 = CARTESIAN_POINT('',(138.2,56.9,2.4));
#336 = CARTESIAN_POINT('',(200.3,56.9,2.4));
#337 = CARTESIAN_POINT('',(138.2,56.9,38.9));
#338 = CARTESIAN_POINT('',(200.3,56.9,38.9));
#339 = ADVANCED_FACE('',(#340),#350,.T.);
#340 = FACE_BOUND('',#341,.T.);
#341 = EDGE_LOOP('',(#342,#343,#348,#349));
#342 = ORIENTED_EDGE('',*,*,#243,.F.);
#343 = ORIENTED_EDGE('',*,*,#344,.T.);
#344 = EDGE_CURVE('',#237,#323,#345,.T.);
#345 = B_SPLINE_CURVE_WITH_KNOTS('',1,(#346,#347),.UNSPECIFIED.,.F.,.F.,
  (2,2),(0.,28.),.PIECEWISE_BEZIER_KNOTS.);
#346 = CARTESIAN_POINT('',(138.2,28.9,2.4));
#347 = CARTESIAN_POINT('',(138.2,56.9,2.4));
#348 = ORIENTED_EDGE('',*,*,#329,.T.);
#349 = ORIENTED_EDGE('',*,*,#110,.F.);
#350 = B_SPLINE_SURFACE_WITH_KNOTS('',1,1,(
    (#351,#352)
    ,(#353,#354
    )),.UNSPECIFIED.,.F.,.F.,.F.,(2,2),(2,2),(0.,36.5),(-28.,0.),
  .PIECEWISE_BEZIER_KNOTS.);
#351 = CARTESIAN_POINT('',(138.2,56.9,2.4));
#352 = CARTESIAN_POINT('',(138.2,28.9,2.4));
#353 = CARTESIAN_POINT('',(138.2,56.9,38.9));
#354 = CARTESIAN_POINT('',(138.2,28.9,38.9));
#355 = ADVANCED_FACE('',(#356),#366,.F.);
#356 = FACE_BOUND('',#357,.F.);
#357 = EDGE_LOOP('',(#358,#359,#364,#365));
#358 = ORIENTED_EDGE('',*,*,#181,.F.);
#359 = ORIENTED_EDGE('',*,*,#360,.F.);
#360 = EDGE_CURVE('',#274,#182,#361,.T.);
#361 = B_SPLINE_CURVE_WITH_KNOTS('',1,(#362,#363),.UNSPECIFIED.,.F.,.F.,
  (2,2),(0.6,3.),.PIECEWISE_BEZIER_KNOTS.);
#362 = CARTESIAN_POINT('',(200.3,50.9,21.2));
#363 = CARTESIAN_POINT('',(202.7,50.9,21.2));
#364 = ORIENTED_EDGE('',*,*,#273,.T.);
#365 = ORIENTED_EDGE('',*,*,#360,.T.);
#366 = ( BOUNDED_SURFACE() B_SPLINE_SURFACE(2,1,(
    (#367,#368)
    ,(#369,#370)
    ,(#371,#372)
    ,(#373,#374)
    ,(#375,#376)
    ,(#377,#378)
,(#379,#380
    )),.UNSPECIFIED.,.T.,.F.,.F.) B_SPLINE_SURFACE_WITH_KNOTS((1,2,2,2,2
    ,1),(2,2),(-2.094395102393,0.,2.094395102393,4.188790204786,
    6.28318530718,8.377580409573),(0.6,3.),.UNSPECIFIED.) 
GEOMETRIC_REPRESENTATION_ITEM() RATIONAL_B_SPLINE_SURFACE((
    (1.,1.)
    ,(0.5,0.5)
    ,(1.,1.)
    ,(0.5,0.5)
    ,(1.,1.)
    ,(0.5,0.5)
,(1.,1.))) REPRESENTATION_ITEM('') SURFACE() );
#367 = CARTESIAN_POINT('',(200.3,50.9,21.2));
#368 = CARTESIAN_POINT('',(202.7,50.9,21.2));
#369 = CARTESIAN_POINT('',(200.3,46.050257738807,21.2));
#370 = CARTESIAN_POINT('',(202.7,46.050257738807,21.2));
#371 = CARTESIAN_POINT('',(200.3,48.475128869404,17.));
#372 = CARTESIAN_POINT('',(202.7,48.475128869404,17.));
#373 = CARTESIAN_POINT('',(200.3,50.9,12.8));
#374 = CARTESIAN_POINT('',(202.7,50.9,12.8));
#375 = CARTESIAN_POINT('',(200.3,53.324871130596,17.));
#376 = CARTESIAN_POINT('',(202.7,53.324871130596,17.));
#377 = CARTESIAN_POINT('',(200.3,55.749742261193,21.2));
#378 = CARTESIAN_POINT('',(202.7,55.749742261193,21.2));
#379 = CARTESIAN_POINT('',(200.3,50.9,21.2));
#380 = CARTESIAN_POINT('',(202.7,50.9,21.2));
#381 = ADVANCED_FACE('',(#382),#392,.F.);
#382 = FACE_BOUND('',#383,.F.);
#383 = EDGE_LOOP('',(#384,#385,#390,#391));
#384 = ORIENTED_EDGE('',*,*,#195,.F.);
#385 = ORIENTED_EDGE('',*,*,#386,.F.);
#386 = EDGE_CURVE('',#288,#196,#387,.T.);
#387 = B_SPLINE_CURVE_WITH_KNOTS('',1,(#388,#389),.UNSPECIFIED.,.F.,.F.,
  (2,2),(0.6,3.),.PIECEWISE_BEZIER_KNOTS.);
#388 = CARTESIAN_POINT('',(200.3,42.9,8.5));
#389 = CARTESIAN_POINT('',(202.7,42.9,8.5));
#390 = ORIENTED_EDGE('',*,*,#287,.T.);
#391 = ORIENTED_EDGE('',*,*,#386,.T.);
#392 = ( BOUNDED_SURFACE() B_SPLINE_SURFACE(2,1,(
    (#393,#394)
    ,(#395,#396)
    ,(#397,#398)
    ,(#399,#400)
    ,(#401,#402)
    ,(#403,#404)
,(#405,#406
    )),.UNSPECIFIED.,.T.,.F.,.F.) B_SPLINE_SURFACE_WITH_KNOTS((1,2,2,2,2
    ,1),(2,2),(-2.094395102393,0.,2.094395102393,4.188790204786,
    6.28318530718,8.377580409573),(0.6,3.),.UNSPECIFIED.) 
GEOMETRIC_REPRESENTATION_ITEM() RATIONAL_B_SPLINE_SURFACE((
    (1.,1.)
    ,(0.5,0.5)
    ,(1.,1.)
    ,(0.5,0.5)
    ,(1.,1.)
    ,(0.5,0.5)
,(1.,1.))) REPRESENTATION_ITEM('') SURFACE() );
#393 = CARTESIAN_POINT('',(200.3,42.9,8.5));
#394 = CARTESIAN_POINT('',(202.7,42.9,8.5));
#395 = CARTESIAN_POINT('',(200.3,38.569872981078,8.5));
#396 = CARTESIAN_POINT('',(202.7,38.569872981078,8.5));
#397 = CARTESIAN_POINT('',(200.3,40.734936490539,4.75));
#398 = CARTESIAN_POINT('',(202.7,40.734936490539,4.75));
#399 = CARTESIAN_POINT('',(200.3,42.9,1.));
#400 = CARTESIAN_POINT('',(202.7,42.9,1.));
#401 = CARTESIAN_POINT('',(200.3,45.065063509461,4.75));
#402 = CARTESIAN_POINT('',(202.7,45.065063509461,4.75));
#403 = CARTESIAN_POINT('',(200.3,47.230127018922,8.5));
#404 = CARTESIAN_POINT('',(202.7,47.230127018922,8.5));
#405 = CARTESIAN_POINT('',(200.3,42.9,8.5));
#406 = CARTESIAN_POINT('',(202.7,42.9,8.5));
#407 = ADVANCED_FACE('',(#408),#418,.F.);
#408 = FACE_BOUND('',#409,.F.);
#409 = EDGE_LOOP('',(#410,#411,#416,#417));
#410 = ORIENTED_EDGE('',*,*,#209,.F.);
#411 = ORIENTED_EDGE('',*,*,#412,.F.);
#412 = EDGE_CURVE('',#302,#210,#413,.T.);
#413 = B_SPLINE_CURVE_WITH_KNOTS('',1,(#414,#415),.UNSPECIFIED.,.F.,.F.,
  (2,2),(0.6,3.),.PIECEWISE_BEZIER_KNOTS.);
#414 = CARTESIAN_POINT('',(200.3,34.9,21.2));
#415 = CARTESIAN_POINT('',(202.7,34.9,21.2));
#416 = ORIENTED_EDGE('',*,*,#301,.T.);
#417 = ORIENTED_EDGE('',*,*,#412,.T.);
#418 = ( BOUNDED_SURFACE() B_SPLINE_SURFACE(2,1,(
    (#419,#420)
    ,(#421,#422)
    ,(#423,#424)
    ,(#425,#426)
    ,(#427,#428)
    ,(#429,#430)
,(#431,#432
    )),.UNSPECIFIED.,.T.,.F.,.F.) B_SPLINE_SURFACE_WITH_KNOTS((1,2,2,2,2
    ,1),(2,2),(-2.094395102393,0.,2.094395102393,4.188790204786,
    6.28318530718,8.377580409573),(0.6,3.),.UNSPECIFIED.) 
GEOMETRIC_REPRESENTATION_ITEM() RATIONAL_B_SPLINE_SURFACE((
    (1.,1.)
    ,(0.5,0.5)
    ,(1.,1.)
    ,(0.5,0.5)
    ,(1.,1.)
    ,(0.5,0.5)
,(1.,1.))) REPRESENTATION_ITEM('') SURFACE() );
#419 = CARTESIAN_POINT('',(200.3,34.9,21.2));
#420 = CARTESIAN_POINT('',(202.7,34.9,21.2));
#421 = CARTESIAN_POINT('',(200.3,30.050257738807,21.2));
#422 = CARTESIAN_POINT('',(202.7,30.050257738807,21.2));
#423 = CARTESIAN_POINT('',(200.3,32.475128869404,17.));
#424 = CARTESIAN_POINT('',(202.7,32.475128869404,17.));
#425 = CARTESIAN_POINT('',(200.3,34.9,12.8));
#426 = CARTESIAN_POINT('',(202.7,34.9,12.8));
#427 = CARTESIAN_POINT('',(200.3,37.324871130596,17.));
#428 = CARTESIAN_POINT('',(202.7,37.324871130596,17.));
#429 = CARTESIAN_POINT('',(200.3,39.749742261193,21.2));
#430 = CARTESIAN_POINT('',(202.7,39.749742261193,21.2));
#431 = CARTESIAN_POINT('',(200.3,34.9,21.2));
#432 = CARTESIAN_POINT('',(202.7,34.9,21.2));
#433 = ADVANCED_FACE('',(#434),#440,.T.);
#434 = FACE_BOUND('',#435,.T.);
#435 = EDGE_LOOP('',(#436,#437,#438,#439));
#436 = ORIENTED_EDGE('',*,*,#344,.F.);
#437 = ORIENTED_EDGE('',*,*,#236,.T.);
#438 = ORIENTED_EDGE('',*,*,#258,.T.);
#439 = ORIENTED_EDGE('',*,*,#322,.F.);
#440 = B_SPLINE_SURFACE_WITH_KNOTS('',1,1,(
    (#441,#442)
    ,(#443,#444
    )),.UNSPECIFIED.,.F.,.F.,.F.,(2,2),(2,2),(0.,62.1),(0.,28.),
  .PIECEWISE_BEZIER_KNOTS.);
#441 = CARTESIAN_POINT('',(138.2,28.9,2.4));
#442 = CARTESIAN_POINT('',(138.2,56.9,2.4));
#443 = CARTESIAN_POINT('',(200.3,28.9,2.4));
#444 = CARTESIAN_POINT('',(200.3,56.9,2.4));
#445 = MANIFOLD_SOLID_BREP('',#446);
#446 = CLOSED_SHELL('',(#447,#483,#511,#533,#555,#601,#613,#641,#663,
    #685,#701,#743,#771,#793,#815,#831));
#447 = ADVANCED_FACE('',(#448),#478,.F.);
#448 = FACE_BOUND('',#449,.F.);
#449 = EDGE_LOOP('',(#450,#459,#466,#473));
#450 = ORIENTED_EDGE('',*,*,#451,.F.);
#451 = EDGE_CURVE('',#452,#454,#456,.T.);
#452 = VERTEX_POINT('',#453);
#453 = CARTESIAN_POINT('',(135.8,26.5,38.9));
#454 = VERTEX_POINT('',#455);
#455 = CARTESIAN_POINT('',(135.8,26.5,41.3));
#456 = B_SPLINE_CURVE_WITH_KNOTS('',1,(#457,#458),.UNSPECIFIED.,.F.,.F.,
  (2,2),(0.,2.4),.PIECEWISE_BEZIER_KNOTS.);
#457 = CARTESIAN_POINT('',(135.8,26.5,38.9));
#458 = CARTESIAN_POINT('',(135.8,26.5,41.3));
#459 = ORIENTED_EDGE('',*,*,#460,.T.);
#460 = EDGE_CURVE('',#452,#461,#463,.T.);
#461 = VERTEX_POINT('',#462);
#462 = CARTESIAN_POINT('',(135.8,59.3,38.9));
#463 = B_SPLINE_CURVE_WITH_KNOTS('',1,(#464,#465),.UNSPECIFIED.,.F.,.F.,
  (2,2),(0.,32.8),.PIECEWISE_BEZIER_KNOTS.);
#464 = CARTESIAN_POINT('',(135.8,26.5,38.9));
#465 = CARTESIAN_POINT('',(135.8,59.3,38.9));
#466 = ORIENTED_EDGE('',*,*,#467,.T.);
#467 = EDGE_CURVE('',#461,#468,#470,.T.);
#468 = VERTEX_POINT('',#469);
#469 = CARTESIAN_POINT('',(135.8,59.3,41.3));
#470 = B_SPLINE_CURVE_WITH_KNOTS('',1,(#471,#472),.UNSPECIFIED.,.F.,.F.,
  (2,2),(0.,2.4),.PIECEWISE_BEZIER_KNOTS.);
#471 = CARTESIAN_POINT('',(135.8,59.3,38.9));
#472 = CARTESIAN_POINT('',(135.8,59.3,41.3));
#473 = ORIENTED_EDGE('',*,*,#474,.F.);
#474 = EDGE_CURVE('',#454,#468,#475,.T.);
#475 = B_SPLINE_CURVE_WITH_KNOTS('',1,(#476,#477),.UNSPECIFIED.,.F.,.F.,
  (2,2),(0.,32.8),.PIECEWISE_BEZIER_KNOTS.);
#476 = CARTESIAN_POINT('',(135.8,26.5,41.3));
#477 = CARTESIAN_POINT('',(135.8,59.3,41.3));
#478 = B_SPLINE_SURFACE_WITH_KNOTS('',1,1,(
    (#479,#480)
    ,(#481,#482
    )),.UNSPECIFIED.,.F.,.F.,.F.,(2,2),(2,2),(0.,2.4),(-32.8,0.),
  .PIECEWISE_BEZIER_KNOTS.);
#479 = CARTESIAN_POINT('',(135.8,59.3,38.9));
#480 = CARTESIAN_POINT('',(135.8,26.5,38.9));
#481 = CARTESIAN_POINT('',(135.8,59.3,41.3));
#482 = CARTESIAN_POINT('',(135.8,26.5,41.3));
#483 = ADVANCED_FACE('',(#484),#506,.F.);
#484 = FACE_BOUND('',#485,.F.);
#485 = EDGE_LOOP('',(#486,#493,#494,#501));
#486 = ORIENTED_EDGE('',*,*,#487,.F.);
#487 = EDGE_CURVE('',#452,#488,#490,.T.);
#488 = VERTEX_POINT('',#489);
#489 = CARTESIAN_POINT('',(202.7,26.5,38.9));
#490 = B_SPLINE_CURVE_WITH_KNOTS('',1,(#491,#492),.UNSPECIFIED.,.F.,.F.,
  (2,2),(0.,66.9),.PIECEWISE_BEZIER_KNOTS.);
#491 = CARTESIAN_POINT('',(135.8,26.5,38.9));
#492 = CARTESIAN_POINT('',(202.7,26.5,38.9));
#493 = ORIENTED_EDGE('',*,*,#451,.T.);
#494 = ORIENTED_EDGE('',*,*,#495,.T.);
#495 = EDGE_CURVE('',#454,#496,#498,.T.);
#496 = VERTEX_POINT('',#497);
#497 = CARTESIAN_POINT('',(202.7,26.5,41.3));
#498 = B_SPLINE_CURVE_WITH_KNOTS('',1,(#499,#500),.UNSPECIFIED.,.F.,.F.,
  (2,2),(0.,66.9),.PIECEWISE_BEZIER_KNOTS.);
#499 = CARTESIAN_POINT('',(135.8,26.5,41.3));
#500 = CARTESIAN_POINT('',(202.7,26.5,41.3));
#501 = ORIENTED_EDGE('',*,*,#502,.F.);
#502 = EDGE_CURVE('',#488,#496,#503,.T.);
#503 = B_SPLINE_CURVE_WITH_KNOTS('',1,(#504,#505),.UNSPECIFIED.,.F.,.F.,
  (2,2),(0.,2.4),.PIECEWISE_BEZIER_KNOTS.);
#504 = CARTESIAN_POINT('',(202.7,26.5,38.9));
#505 = CARTESIAN_POINT('',(202.7,26.5,41.3));
#506 = B_SPLINE_SURFACE_WITH_KNOTS('',1,1,(
    (#507,#508)
    ,(#509,#510
    )),.UNSPECIFIED.,.F.,.F.,.F.,(2,2),(2,2),(0.,2.4),(0.,66.9),
  .PIECEWISE_BEZIER_KNOTS.);
#507 = CARTESIAN_POINT('',(135.8,26.5,38.9));
#508 = CARTESIAN_POINT('',(202.7,26.5,38.9));
#509 = CARTESIAN_POINT('',(135.8,26.5,41.3));
#510 = CARTESIAN_POINT('',(202.7,26.5,41.3));
#511 = ADVANCED_FACE('',(#512),#528,.T.);
#512 = FACE_BOUND('',#513,.T.);
#513 = EDGE_LOOP('',(#514,#515,#516,#523));
#514 = ORIENTED_EDGE('',*,*,#474,.F.);
#515 = ORIENTED_EDGE('',*,*,#495,.T.);
#516 = ORIENTED_EDGE('',*,*,#517,.T.);
#517 = EDGE_CURVE('',#496,#518,#520,.T.);
#518 = VERTEX_POINT('',#519);
#519 = CARTESIAN_POINT('',(202.7,59.3,41.3));
#520 = B_SPLINE_CURVE_WITH_KNOTS('',1,(#521,#522),.UNSPECIFIED.,.F.,.F.,
  (2,2),(0.,32.8),.PIECEWISE_BEZIER_KNOTS.);
#521 = CARTESIAN_POINT('',(202.7,26.5,41.3));
#522 = CARTESIAN_POINT('',(202.7,59.3,41.3));
#523 = ORIENTED_EDGE('',*,*,#524,.F.);
#524 = EDGE_CURVE('',#468,#518,#525,.T.);
#525 = B_SPLINE_CURVE_WITH_KNOTS('',1,(#526,#527),.UNSPECIFIED.,.F.,.F.,
  (2,2),(0.,66.9),.PIECEWISE_BEZIER_KNOTS.);
#526 = CARTESIAN_POINT('',(135.8,59.3,41.3));
#527 = CARTESIAN_POINT('',(202.7,59.3,41.3));
#528 = B_SPLINE_SURFACE_WITH_KNOTS('',1,1,(
    (#529,#530)
    ,(#531,#532
    )),.UNSPECIFIED.,.F.,.F.,.F.,(2,2),(2,2),(0.,66.9),(0.,32.8),
  .PIECEWISE_BEZIER_KNOTS.);
#529 = CARTESIAN_POINT('',(135.8,26.5,41.3));
#530 = CARTESIAN_POINT('',(135.8,59.3,41.3));
#531 = CARTESIAN_POINT('',(202.7,26.5,41.3));
#532 = CARTESIAN_POINT('',(202.7,59.3,41.3));
#533 = ADVANCED_FACE('',(#534),#550,.T.);
#534 = FACE_BOUND('',#535,.T.);
#535 = EDGE_LOOP('',(#536,#543,#544,#545));
#536 = ORIENTED_EDGE('',*,*,#537,.F.);
#537 = EDGE_CURVE('',#461,#538,#540,.T.);
#538 = VERTEX_POINT('',#539);
#539 = CARTESIAN_POINT('',(202.7,59.3,38.9));
#540 = B_SPLINE_CURVE_WITH_KNOTS('',1,(#541,#542),.UNSPECIFIED.,.F.,.F.,
  (2,2),(0.,66.9),.PIECEWISE_BEZIER_KNOTS.);
#541 = CARTESIAN_POINT('',(135.8,59.3,38.9));
#542 = CARTESIAN_POINT('',(202.7,59.3,38.9));
#543 = ORIENTED_EDGE('',*,*,#467,.T.);
#544 = ORIENTED_EDGE('',*,*,#524,.T.);
#545 = ORIENTED_EDGE('',*,*,#546,.F.);
#546 = EDGE_CURVE('',#538,#518,#547,.T.);
#547 = B_SPLINE_CURVE_WITH_KNOTS('',1,(#548,#549),.UNSPECIFIED.,.F.,.F.,
  (2,2),(0.,2.4),.PIECEWISE_BEZIER_KNOTS.);
#548 = CARTESIAN_POINT('',(202.7,59.3,38.9));
#549 = CARTESIAN_POINT('',(202.7,59.3,41.3));
#550 = B_SPLINE_SURFACE_WITH_KNOTS('',1,1,(
    (#551,#552)
    ,(#553,#554
    )),.UNSPECIFIED.,.F.,.F.,.F.,(2,2),(2,2),(0.,2.4),(0.,66.9),
  .PIECEWISE_BEZIER_KNOTS.);
#551 = CARTESIAN_POINT('',(135.8,59.3,38.9));
#552 = CARTESIAN_POINT('',(202.7,59.3,38.9));
#553 = CARTESIAN_POINT('',(135.8,59.3,41.3));
#554 = CARTESIAN_POINT('',(202.7,59.3,41.3));
#555 = ADVANCED_FACE('',(#556,#566),#596,.F.);
#556 = FACE_BOUND('',#557,.F.);
#557 = EDGE_LOOP('',(#558,#559,#560,#565));
#558 = ORIENTED_EDGE('',*,*,#460,.F.);
#559 = ORIENTED_EDGE('',*,*,#487,.T.);
#560 = ORIENTED_EDGE('',*,*,#561,.T.);
#561 = EDGE_CURVE('',#488,#538,#562,.T.);
#562 = B_SPLINE_CURVE_WITH_KNOTS('',1,(#563,#564),.UNSPECIFIED.,.F.,.F.,
  (2,2),(0.,32.8),.PIECEWISE_BEZIER_KNOTS.);
#563 = CARTESIAN_POINT('',(202.7,26.5,38.9));
#564 = CARTESIAN_POINT('',(202.7,59.3,38.9));
#565 = ORIENTED_EDGE('',*,*,#537,.F.);
#566 = FACE_BOUND('',#567,.F.);
#567 = EDGE_LOOP('',(#568,#577,#584,#591));
#568 = ORIENTED_EDGE('',*,*,#569,.F.);
#569 = EDGE_CURVE('',#570,#572,#574,.T.);
#570 = VERTEX_POINT('',#571);
#571 = CARTESIAN_POINT('',(138.6,29.3,38.9));
#572 = VERTEX_POINT('',#573);
#573 = CARTESIAN_POINT('',(199.9,29.3,38.9));
#574 = B_SPLINE_CURVE_WITH_KNOTS('',1,(#575,#576),.UNSPECIFIED.,.F.,.F.,
  (2,2),(0.,61.3),.PIECEWISE_BEZIER_KNOTS.);
#575 = CARTESIAN_POINT('',(138.6,29.3,38.9));
#576 = CARTESIAN_POINT('',(199.9,29.3,38.9));
#577 = ORIENTED_EDGE('',*,*,#578,.T.);
#578 = EDGE_CURVE('',#570,#579,#581,.T.);
#579 = VERTEX_POINT('',#580);
#580 = CARTESIAN_POINT('',(138.6,56.5,38.9));
#581 = B_SPLINE_CURVE_WITH_KNOTS('',1,(#582,#583),.UNSPECIFIED.,.F.,.F.,
  (2,2),(0.,27.2),.PIECEWISE_BEZIER_KNOTS.);
#582 = CARTESIAN_POINT('',(138.6,29.3,38.9));
#583 = CARTESIAN_POINT('',(138.6,56.5,38.9));
#584 = ORIENTED_EDGE('',*,*,#585,.T.);
#585 = EDGE_CURVE('',#579,#586,#588,.T.);
#586 = VERTEX_POINT('',#587);
#587 = CARTESIAN_POINT('',(199.9,56.5,38.9));
#588 = B_SPLINE_CURVE_WITH_KNOTS('',1,(#589,#590),.UNSPECIFIED.,.F.,.F.,
  (2,2),(0.,61.3),.PIECEWISE_BEZIER_KNOTS.);
#589 = CARTESIAN_POINT('',(138.6,56.5,38.9));
#590 = CARTESIAN_POINT('',(199.9,56.5,38.9));
#591 = ORIENTED_EDGE('',*,*,#592,.F.);
#592 = EDGE_CURVE('',#572,#586,#593,.T.);
#593 = B_SPLINE_CURVE_WITH_KNOTS('',1,(#594,#595),.UNSPECIFIED.,.F.,.F.,
  (2,2),(0.,27.2),.PIECEWISE_BEZIER_KNOTS.);
#594 = CARTESIAN_POINT('',(199.9,29.3,38.9));
#595 = CARTESIAN_POINT('',(199.9,56.5,38.9));
#596 = B_SPLINE_SURFACE_WITH_KNOTS('',1,1,(
    (#597,#598)
    ,(#599,#600
    )),.UNSPECIFIED.,.F.,.F.,.F.,(2,2),(2,2),(0.,66.9),(0.,32.8),
  .PIECEWISE_BEZIER_KNOTS.);
#597 = CARTESIAN_POINT('',(135.8,26.5,38.9));
#598 = CARTESIAN_POINT('',(135.8,59.3,38.9));
#599 = CARTESIAN_POINT('',(202.7,26.5,38.9));
#600 = CARTESIAN_POINT('',(202.7,59.3,38.9));
#601 = ADVANCED_FACE('',(#602),#608,.T.);
#602 = FACE_BOUND('',#603,.T.);
#603 = EDGE_LOOP('',(#604,#605,#606,#607));
#604 = ORIENTED_EDGE('',*,*,#502,.F.);
#605 = ORIENTED_EDGE('',*,*,#561,.T.);
#606 = ORIENTED_EDGE('',*,*,#546,.T.);
#607 = ORIENTED_EDGE('',*,*,#517,.F.);
#608 = B_SPLINE_SURFACE_WITH_KNOTS('',1,1,(
    (#609,#610)
    ,(#611,#612
    )),.UNSPECIFIED.,.F.,.F.,.F.,(2,2),(2,2),(0.,2.4),(-32.8,0.),
  .PIECEWISE_BEZIER_KNOTS.);
#609 = CARTESIAN_POINT('',(202.7,59.3,38.9));
#610 = CARTESIAN_POINT('',(202.7,26.5,38.9));
#611 = CARTESIAN_POINT('',(202.7,59.3,41.3));
#612 = CARTESIAN_POINT('',(202.7,26.5,41.3));
#613 = ADVANCED_FACE('',(#614),#636,.F.);
#614 = FACE_BOUND('',#615,.F.);
#615 = EDGE_LOOP('',(#616,#625,#630,#631));
#616 = ORIENTED_EDGE('',*,*,#617,.F.);
#617 = EDGE_CURVE('',#618,#620,#622,.T.);
#618 = VERTEX_POINT('',#619);
#619 = CARTESIAN_POINT('',(138.6,29.3,34.9));
#620 = VERTEX_POINT('',#621);
#621 = CARTESIAN_POINT('',(199.9,29.3,34.9));
#622 = B_SPLINE_CURVE_WITH_KNOTS('',1,(#623,#624),.UNSPECIFIED.,.F.,.F.,
  (2,2),(0.,61.3),.PIECEWISE_BEZIER_KNOTS.);
#623 = CARTESIAN_POINT('',(138.6,29.3,34.9));
#624 = CARTESIAN_POINT('',(199.9,29.3,34.9));
#625 = ORIENTED_EDGE('',*,*,#626,.T.);
#626 = EDGE_CURVE('',#618,#570,#627,.T.);
#627 = B_SPLINE_CURVE_WITH_KNOTS('',1,(#628,#629),.UNSPECIFIED.,.F.,.F.,
  (2,2),(0.,4.),.PIECEWISE_BEZIER_KNOTS.);
#628 = CARTESIAN_POINT('',(138.6,29.3,34.9));
#629 = CARTESIAN_POINT('',(138.6,29.3,38.9));
#630 = ORIENTED_EDGE('',*,*,#569,.T.);
#631 = ORIENTED_EDGE('',*,*,#632,.F.);
#632 = EDGE_CURVE('',#620,#572,#633,.T.);
#633 = B_SPLINE_CURVE_WITH_KNOTS('',1,(#634,#635),.UNSPECIFIED.,.F.,.F.,
  (2,2),(0.,4.),.PIECEWISE_BEZIER_KNOTS.);
#634 = CARTESIAN_POINT('',(199.9,29.3,34.9));
#635 = CARTESIAN_POINT('',(199.9,29.3,38.9));
#636 = B_SPLINE_SURFACE_WITH_KNOTS('',1,1,(
    (#637,#638)
    ,(#639,#640
    )),.UNSPECIFIED.,.F.,.F.,.F.,(2,2),(2,2),(0.,4.),(0.,61.3),
  .PIECEWISE_BEZIER_KNOTS.);
#637 = CARTESIAN_POINT('',(138.6,29.3,34.9));
#638 = CARTESIAN_POINT('',(199.9,29.3,34.9));
#639 = CARTESIAN_POINT('',(138.6,29.3,38.9));
#640 = CARTESIAN_POINT('',(199.9,29.3,38.9));
#641 = ADVANCED_FACE('',(#642),#658,.T.);
#642 = FACE_BOUND('',#643,.T.);
#643 = EDGE_LOOP('',(#644,#645,#652,#657));
#644 = ORIENTED_EDGE('',*,*,#632,.F.);
#645 = ORIENTED_EDGE('',*,*,#646,.T.);
#646 = EDGE_CURVE('',#620,#647,#649,.T.);
#647 = VERTEX_POINT('',#648);
#648 = CARTESIAN_POINT('',(199.9,56.5,34.9));
#649 = B_SPLINE_CURVE_WITH_KNOTS('',1,(#650,#651),.UNSPECIFIED.,.F.,.F.,
  (2,2),(0.,27.2),.PIECEWISE_BEZIER_KNOTS.);
#650 = CARTESIAN_POINT('',(199.9,29.3,34.9));
#651 = CARTESIAN_POINT('',(199.9,56.5,34.9));
#652 = ORIENTED_EDGE('',*,*,#653,.T.);
#653 = EDGE_CURVE('',#647,#586,#654,.T.);
#654 = B_SPLINE_CURVE_WITH_KNOTS('',1,(#655,#656),.UNSPECIFIED.,.F.,.F.,
  (2,2),(0.,4.),.PIECEWISE_BEZIER_KNOTS.);
#655 = CARTESIAN_POINT('',(199.9,56.5,34.9));
#656 = CARTESIAN_POINT('',(199.9,56.5,38.9));
#657 = ORIENTED_EDGE('',*,*,#592,.F.);
#658 = B_SPLINE_SURFACE_WITH_KNOTS('',1,1,(
    (#659,#660)
    ,(#661,#662
    )),.UNSPECIFIED.,.F.,.F.,.F.,(2,2),(2,2),(0.,4.),(-27.2,0.),
  .PIECEWISE_BEZIER_KNOTS.);
#659 = CARTESIAN_POINT('',(199.9,56.5,34.9));
#660 = CARTESIAN_POINT('',(199.9,29.3,34.9));
#661 = CARTESIAN_POINT('',(199.9,56.5,38.9));
#662 = CARTESIAN_POINT('',(199.9,29.3,38.9));
#663 = ADVANCED_FACE('',(#664),#680,.T.);
#664 = FACE_BOUND('',#665,.T.);
#665 = EDGE_LOOP('',(#666,#673,#678,#679));
#666 = ORIENTED_EDGE('',*,*,#667,.F.);
#667 = EDGE_CURVE('',#668,#647,#670,.T.);
#668 = VERTEX_POINT('',#669);
#669 = CARTESIAN_POINT('',(138.6,56.5,34.9));
#670 = B_SPLINE_CURVE_WITH_KNOTS('',1,(#671,#672),.UNSPECIFIED.,.F.,.F.,
  (2,2),(0.,61.3),.PIECEWISE_BEZIER_KNOTS.);
#671 = CARTESIAN_POINT('',(138.6,56.5,34.9));
#672 = CARTESIAN_POINT('',(199.9,56.5,34.9));
#673 = ORIENTED_EDGE('',*,*,#674,.T.);
#674 = EDGE_CURVE('',#668,#579,#675,.T.);
#675 = B_SPLINE_CURVE_WITH_KNOTS('',1,(#676,#677),.UNSPECIFIED.,.F.,.F.,
  (2,2),(0.,4.),.PIECEWISE_BEZIER_KNOTS.);
#676 = CARTESIAN_POINT('',(138.6,56.5,34.9));
#677 = CARTESIAN_POINT('',(138.6,56.5,38.9));
#678 = ORIENTED_EDGE('',*,*,#585,.T.);
#679 = ORIENTED_EDGE('',*,*,#653,.F.);
#680 = B_SPLINE_SURFACE_WITH_KNOTS('',1,1,(
    (#681,#682)
    ,(#683,#684
    )),.UNSPECIFIED.,.F.,.F.,.F.,(2,2),(2,2),(0.,4.),(0.,61.3),
  .PIECEWISE_BEZIER_KNOTS.);
#681 = CARTESIAN_POINT('',(138.6,56.5,34.9));
#682 = CARTESIAN_POINT('',(199.9,56.5,34.9));
#683 = CARTESIAN_POINT('',(138.6,56.5,38.9));
#684 = CARTESIAN_POINT('',(199.9,56.5,38.9));
#685 = ADVANCED_FACE('',(#686),#696,.F.);
#686 = FACE_BOUND('',#687,.F.);
#687 = EDGE_LOOP('',(#688,#689,#694,#695));
#688 = ORIENTED_EDGE('',*,*,#626,.F.);
#689 = ORIENTED_EDGE('',*,*,#690,.T.);
#690 = EDGE_CURVE('',#618,#668,#691,.T.);
#691 = B_SPLINE_CURVE_WITH_KNOTS('',1,(#692,#693),.UNSPECIFIED.,.F.,.F.,
  (2,2),(0.,27.2),.PIECEWISE_BEZIER_KNOTS.);
#692 = CARTESIAN_POINT('',(138.6,29.3,34.9));
#693 = CARTESIAN_POINT('',(138.6,56.5,34.9));
#694 = ORIENTED_EDGE('',*,*,#674,.T.);
#695 = ORIENTED_EDGE('',*,*,#578,.F.);
#696 = B_SPLINE_SURFACE_WITH_KNOTS('',1,1,(
    (#697,#698)
    ,(#699,#700
    )),.UNSPECIFIED.,.F.,.F.,.F.,(2,2),(2,2),(0.,4.),(-27.2,0.),
  .PIECEWISE_BEZIER_KNOTS.);
#697 = CARTESIAN_POINT('',(138.6,56.5,34.9));
#698 = CARTESIAN_POINT('',(138.6,29.3,34.9));
#699 = CARTESIAN_POINT('',(138.6,56.5,38.9));
#700 = CARTESIAN_POINT('',(138.6,29.3,38.9));
#701 = ADVANCED_FACE('',(#702,#708),#738,.F.);
#702 = FACE_BOUND('',#703,.F.);
#703 = EDGE_LOOP('',(#704,#705,#706,#707));
#704 = ORIENTED_EDGE('',*,*,#690,.F.);
#705 = ORIENTED_EDGE('',*,*,#617,.T.);
#706 = ORIENTED_EDGE('',*,*,#646,.T.);
#707 = ORIENTED_EDGE('',*,*,#667,.F.);
#708 = FACE_BOUND('',#709,.F.);
#709 = EDGE_LOOP('',(#710,#719,#726,#733));
#710 = ORIENTED_EDGE('',*,*,#711,.T.);
#711 = EDGE_CURVE('',#712,#714,#716,.T.);
#712 = VERTEX_POINT('',#713);
#713 = CARTESIAN_POINT('',(197.9,31.3,34.9));
#714 = VERTEX_POINT('',#715);
#715 = CARTESIAN_POINT('',(140.6,31.3,34.9));
#716 = B_SPLINE_CURVE_WITH_KNOTS('',1,(#717,#718),.UNSPECIFIED.,.F.,.F.,
  (2,2),(-58.3,-1.),.PIECEWISE_BEZIER_KNOTS.);
#717 = CARTESIAN_POINT('',(197.9,31.3,34.9));
#718 = CARTESIAN_POINT('',(140.6,31.3,34.9));
#719 = ORIENTED_EDGE('',*,*,#720,.T.);
#720 = EDGE_CURVE('',#714,#721,#723,.T.);
#721 = VERTEX_POINT('',#722);
#722 = CARTESIAN_POINT('',(140.6,54.5,34.9));
#723 = B_SPLINE_CURVE_WITH_KNOTS('',1,(#724,#725),.UNSPECIFIED.,.F.,.F.,
  (2,2),(1.,24.2),.PIECEWISE_BEZIER_KNOTS.);
#724 = CARTESIAN_POINT('',(140.6,31.3,34.9));
#725 = CARTESIAN_POINT('',(140.6,54.5,34.9));
#726 = ORIENTED_EDGE('',*,*,#727,.F.);
#727 = EDGE_CURVE('',#728,#721,#730,.T.);
#728 = VERTEX_POINT('',#729);
#729 = CARTESIAN_POINT('',(197.9,54.5,34.9));
#730 = B_SPLINE_CURVE_WITH_KNOTS('',1,(#731,#732),.UNSPECIFIED.,.F.,.F.,
  (2,2),(-58.3,-1.),.PIECEWISE_BEZIER_KNOTS.);
#731 = CARTESIAN_POINT('',(197.9,54.5,34.9));
#732 = CARTESIAN_POINT('',(140.6,54.5,34.9));
#733 = ORIENTED_EDGE('',*,*,#734,.F.);
#734 = EDGE_CURVE('',#712,#728,#735,.T.);
#735 = B_SPLINE_CURVE_WITH_KNOTS('',1,(#736,#737),.UNSPECIFIED.,.F.,.F.,
  (2,2),(1.,24.2),.PIECEWISE_BEZIER_KNOTS.);
#736 = CARTESIAN_POINT('',(197.9,31.3,34.9));
#737 = CARTESIAN_POINT('',(197.9,54.5,34.9));
#738 = B_SPLINE_SURFACE_WITH_KNOTS('',1,1,(
    (#739,#740)
    ,(#741,#742
    )),.UNSPECIFIED.,.F.,.F.,.F.,(2,2),(2,2),(0.,61.3),(0.,27.2),
  .PIECEWISE_BEZIER_KNOTS.);
#739 = CARTESIAN_POINT('',(138.6,29.3,34.9));
#740 = CARTESIAN_POINT('',(138.6,56.5,34.9));
#741 = CARTESIAN_POINT('',(199.9,29.3,34.9));
#742 = CARTESIAN_POINT('',(199.9,56.5,34.9));
#743 = ADVANCED_FACE('',(#744),#766,.T.);
#744 = FACE_BOUND('',#745,.T.);
#745 = EDGE_LOOP('',(#746,#753,#754,#761));
#746 = ORIENTED_EDGE('',*,*,#747,.F.);
#747 = EDGE_CURVE('',#712,#748,#750,.T.);
#748 = VERTEX_POINT('',#749);
#749 = CARTESIAN_POINT('',(197.9,31.3,38.9));
#750 = B_SPLINE_CURVE_WITH_KNOTS('',1,(#751,#752),.UNSPECIFIED.,.F.,.F.,
  (2,2),(1.,5.),.PIECEWISE_BEZIER_KNOTS.);
#751 = CARTESIAN_POINT('',(197.9,31.3,34.9));
#752 = CARTESIAN_POINT('',(197.9,31.3,38.9));
#753 = ORIENTED_EDGE('',*,*,#711,.T.);
#754 = ORIENTED_EDGE('',*,*,#755,.T.);
#755 = EDGE_CURVE('',#714,#756,#758,.T.);
#756 = VERTEX_POINT('',#757);
#757 = CARTESIAN_POINT('',(140.6,31.3,38.9));
#758 = B_SPLINE_CURVE_WITH_KNOTS('',1,(#759,#760),.UNSPECIFIED.,.F.,.F.,
  (2,2),(1.,5.),.PIECEWISE_BEZIER_KNOTS.);
#759 = CARTESIAN_POINT('',(140.6,31.3,34.9));
#760 = CARTESIAN_POINT('',(140.6,31.3,38.9));
#761 = ORIENTED_EDGE('',*,*,#762,.F.);
#762 = EDGE_CURVE('',#748,#756,#763,.T.);
#763 = B_SPLINE_CURVE_WITH_KNOTS('',1,(#764,#765),.UNSPECIFIED.,.F.,.F.,
  (2,2),(-58.3,-1.),.PIECEWISE_BEZIER_KNOTS.);
#764 = CARTESIAN_POINT('',(197.9,31.3,38.9));
#765 = CARTESIAN_POINT('',(140.6,31.3,38.9));
#766 = B_SPLINE_SURFACE_WITH_KNOTS('',1,1,(
    (#767,#768)
    ,(#769,#770
    )),.UNSPECIFIED.,.F.,.F.,.F.,(2,2),(2,2),(1.,5.),(0.,57.3),
  .PIECEWISE_BEZIER_KNOTS.);
#767 = CARTESIAN_POINT('',(140.6,31.3,34.9));
#768 = CARTESIAN_POINT('',(197.9,31.3,34.9));
#769 = CARTESIAN_POINT('',(140.6,31.3,38.9));
#770 = CARTESIAN_POINT('',(197.9,31.3,38.9));
#771 = ADVANCED_FACE('',(#772),#788,.F.);
#772 = FACE_BOUND('',#773,.F.);
#773 = EDGE_LOOP('',(#774,#775,#776,#783));
#774 = ORIENTED_EDGE('',*,*,#747,.F.);
#775 = ORIENTED_EDGE('',*,*,#734,.T.);
#776 = ORIENTED_EDGE('',*,*,#777,.T.);
#777 = EDGE_CURVE('',#728,#778,#780,.T.);
#778 = VERTEX_POINT('',#779);
#779 = CARTESIAN_POINT('',(197.9,54.5,38.9));
#780 = B_SPLINE_CURVE_WITH_KNOTS('',1,(#781,#782),.UNSPECIFIED.,.F.,.F.,
  (2,2),(1.,5.),.PIECEWISE_BEZIER_KNOTS.);
#781 = CARTESIAN_POINT('',(197.9,54.5,34.9));
#782 = CARTESIAN_POINT('',(197.9,54.5,38.9));
#783 = ORIENTED_EDGE('',*,*,#784,.F.);
#784 = EDGE_CURVE('',#748,#778,#785,.T.);
#785 = B_SPLINE_CURVE_WITH_KNOTS('',1,(#786,#787),.UNSPECIFIED.,.F.,.F.,
  (2,2),(1.,24.2),.PIECEWISE_BEZIER_KNOTS.);
#786 = CARTESIAN_POINT('',(197.9,31.3,38.9));
#787 = CARTESIAN_POINT('',(197.9,54.5,38.9));
#788 = B_SPLINE_SURFACE_WITH_KNOTS('',1,1,(
    (#789,#790)
    ,(#791,#792
    )),.UNSPECIFIED.,.F.,.F.,.F.,(2,2),(2,2),(1.,5.),(-23.2,0.),
  .PIECEWISE_BEZIER_KNOTS.);
#789 = CARTESIAN_POINT('',(197.9,54.5,34.9));
#790 = CARTESIAN_POINT('',(197.9,31.3,34.9));
#791 = CARTESIAN_POINT('',(197.9,54.5,38.9));
#792 = CARTESIAN_POINT('',(197.9,31.3,38.9));
#793 = ADVANCED_FACE('',(#794),#810,.F.);
#794 = FACE_BOUND('',#795,.F.);
#795 = EDGE_LOOP('',(#796,#797,#798,#805));
#796 = ORIENTED_EDGE('',*,*,#777,.F.);
#797 = ORIENTED_EDGE('',*,*,#727,.T.);
#798 = ORIENTED_EDGE('',*,*,#799,.T.);
#799 = EDGE_CURVE('',#721,#800,#802,.T.);
#800 = VERTEX_POINT('',#801);
#801 = CARTESIAN_POINT('',(140.6,54.5,38.9));
#802 = B_SPLINE_CURVE_WITH_KNOTS('',1,(#803,#804),.UNSPECIFIED.,.F.,.F.,
  (2,2),(1.,5.),.PIECEWISE_BEZIER_KNOTS.);
#803 = CARTESIAN_POINT('',(140.6,54.5,34.9));
#804 = CARTESIAN_POINT('',(140.6,54.5,38.9));
#805 = ORIENTED_EDGE('',*,*,#806,.F.);
#806 = EDGE_CURVE('',#778,#800,#807,.T.);
#807 = B_SPLINE_CURVE_WITH_KNOTS('',1,(#808,#809),.UNSPECIFIED.,.F.,.F.,
  (2,2),(-58.3,-1.),.PIECEWISE_BEZIER_KNOTS.);
#808 = CARTESIAN_POINT('',(197.9,54.5,38.9));
#809 = CARTESIAN_POINT('',(140.6,54.5,38.9));
#810 = B_SPLINE_SURFACE_WITH_KNOTS('',1,1,(
    (#811,#812)
    ,(#813,#814
    )),.UNSPECIFIED.,.F.,.F.,.F.,(2,2),(2,2),(1.,5.),(0.,57.3),
  .PIECEWISE_BEZIER_KNOTS.);
#811 = CARTESIAN_POINT('',(140.6,54.5,34.9));
#812 = CARTESIAN_POINT('',(197.9,54.5,34.9));
#813 = CARTESIAN_POINT('',(140.6,54.5,38.9));
#814 = CARTESIAN_POINT('',(197.9,54.5,38.9));
#815 = ADVANCED_FACE('',(#816),#826,.T.);
#816 = FACE_BOUND('',#817,.T.);
#817 = EDGE_LOOP('',(#818,#819,#820,#821));
#818 = ORIENTED_EDGE('',*,*,#755,.F.);
#819 = ORIENTED_EDGE('',*,*,#720,.T.);
#820 = ORIENTED_EDGE('',*,*,#799,.T.);
#821 = ORIENTED_EDGE('',*,*,#822,.F.);
#822 = EDGE_CURVE('',#756,#800,#823,.T.);
#823 = B_SPLINE_CURVE_WITH_KNOTS('',1,(#824,#825),.UNSPECIFIED.,.F.,.F.,
  (2,2),(1.,24.2),.PIECEWISE_BEZIER_KNOTS.);
#824 = CARTESIAN_POINT('',(140.6,31.3,38.9));
#825 = CARTESIAN_POINT('',(140.6,54.5,38.9));
#826 = B_SPLINE_SURFACE_WITH_KNOTS('',1,1,(
    (#827,#828)
    ,(#829,#830
    )),.UNSPECIFIED.,.F.,.F.,.F.,(2,2),(2,2),(1.,5.),(-23.2,0.),
  .PIECEWISE_BEZIER_KNOTS.);
#827 = CARTESIAN_POINT('',(140.6,54.5,34.9));
#828 = CARTESIAN_POINT('',(140.6,31.3,34.9));
#829 = CARTESIAN_POINT('',(140.6,54.5,38.9));
#830 = CARTESIAN_POINT('',(140.6,31.3,38.9));
#831 = ADVANCED_FACE('',(#832),#838,.F.);
#832 = FACE_BOUND('',#833,.F.);
#833 = EDGE_LOOP('',(#834,#835,#836,#837));
#834 = ORIENTED_EDGE('',*,*,#762,.F.);
#835 = ORIENTED_EDGE('',*,*,#784,.T.);
#836 = ORIENTED_EDGE('',*,*,#806,.T.);
#837 = ORIENTED_EDGE('',*,*,#822,.F.);
#838 = B_SPLINE_SURFACE_WITH_KNOTS('',1,1,(
    (#839,#840)
    ,(#841,#842
    )),.UNSPECIFIED.,.F.,.F.,.F.,(2,2),(2,2),(4.8,62.1),(4.8,28.),
  .PIECEWISE_BEZIER_KNOTS.);
#839 = CARTESIAN_POINT('',(140.6,31.3,38.9));
#840 = CARTESIAN_POINT('',(140.6,54.5,38.9));
#841 = CARTESIAN_POINT('',(197.9,31.3,38.9));
#842 = CARTESIAN_POINT('',(197.9,54.5,38.9));
#843 = ( GEOMETRIC_REPRESENTATION_CONTEXT(3) 
GLOBAL_UNCERTAINTY_ASSIGNED_CONTEXT((#847)) GLOBAL_UNIT_ASSIGNED_CONTEXT
((#844,#845,#846)) REPRESENTATION_CONTEXT('Context #1',
  '3D Context with UNIT and UNCERTAINTY') );
#844 = ( LENGTH_UNIT() NAMED_UNIT(*) SI_UNIT(.MILLI.,.METRE.) );
#845 = ( NAMED_UNIT(*) PLANE_ANGLE_UNIT() SI_UNIT($,.RADIAN.) );
#846 = ( NAMED_UNIT(*) SI_UNIT($,.STERADIAN.) SOLID_ANGLE_UNIT() );
#847 = UNCERTAINTY_MEASURE_WITH_UNIT(LENGTH_MEASURE(1.E-07),#844,
  'distance_accuracy_value','confusion accuracy');
#848 = PRODUCT_RELATED_PRODUCT_CATEGORY('part',$,(#7));
ENDSEC;
END-ISO-10303-21;
